M48
; DRILL file {KiCad (6.0.4)} date Tue May 30 00:28:10 2023
; FORMAT={-:-/ absolute / inch / decimal}
; #@! TF.CreationDate,2023-05-30T00:28:10+09:00
; #@! TF.GenerationSoftware,Kicad,Pcbnew,(6.0.4)
; #@! TF.FileFunction,Plated,1,4,PTH
FMAT,2
INCH
; #@! TA.AperFunction,Plated,PTH,ViaDrill
T1C0.0118
; #@! TA.AperFunction,Plated,PTH,ComponentDrill
T2C0.0866
%
G90
G05
T1
X4.8543Y-2.1201
X4.8543Y-3.1181
X4.8543Y-4.1201
X4.8543Y-5.1181
X5.1019Y-3.6569
X5.102Y-3.585
X5.1024Y-3.753
X5.1024Y-3.8593
X5.1024Y-3.9449
X5.1024Y-4.0413
X5.1024Y-4.1063
X5.126Y-4.229
X5.132Y-3.673
X5.134Y-4.115
X5.144Y-3.778
X5.144Y-3.81
X5.144Y-3.842
X5.144Y-3.874
X5.144Y-3.906
X5.144Y-3.938
X5.144Y-3.97
X5.146Y-3.585
X5.148Y-4.147
X5.151Y-3.701
X5.151Y-3.734
X5.154Y-4.244
X5.154Y-4.276
X5.154Y-4.308
X5.154Y-4.34
X5.154Y-4.372
X5.154Y-4.404
X5.166Y-4.115
X5.175Y-4.435
X5.1767Y-3.6117
X5.181Y-3.752
X5.1909Y-2.8307
X5.1909Y-2.8711
X5.191Y-3.0306
X5.191Y-3.071
X5.197Y-3.257
X5.198Y-4.115
X5.1994Y-3.6344
X5.207Y-4.435
X5.213Y-3.752
X5.219Y-3.66
X5.219Y-3.692
X5.221Y-3.569
X5.223Y-3.815
X5.224Y-3.847
X5.224Y-3.879
X5.224Y-3.911
X5.224Y-4.07
X5.23Y-4.115
X5.233Y-3.942
X5.233Y-3.974
X5.233Y-4.006
X5.233Y-4.038
X5.245Y-3.752
X5.246Y-4.22
X5.246Y-4.252
X5.246Y-4.284
X5.246Y-4.316
X5.246Y-4.348
X5.246Y-4.38
X5.246Y-4.412
X5.255Y-3.821
X5.255Y-3.853
X5.261Y-4.159
X5.262Y-4.115
X5.263Y-3.72
X5.277Y-3.752
X5.283Y-4.055
X5.287Y-3.821
X5.287Y-3.853
X5.3Y-3.891
X5.313Y-3.316
X5.319Y-3.821
X5.319Y-3.853
X5.32Y-2.771
T2
X5.2785Y-2.59
X5.2785Y-4.572
T0
M30
