%TF.GenerationSoftware,KiCad,Pcbnew,(6.0.4)*%
%TF.CreationDate,2023-05-30T00:27:56+09:00*%
%TF.ProjectId,Antenna,416e7465-6e6e-4612-9e6b-696361645f70,rev?*%
%TF.SameCoordinates,Original*%
%TF.FileFunction,Legend,Top*%
%TF.FilePolarity,Positive*%
%FSLAX46Y46*%
G04 Gerber Fmt 4.6, Leading zero omitted, Abs format (unit mm)*
G04 Created by KiCad (PCBNEW (6.0.4)) date 2023-05-30 00:27:56*
%MOMM*%
%LPD*%
G01*
G04 APERTURE LIST*
G04 Aperture macros list*
%AMRoundRect*
0 Rectangle with rounded corners*
0 $1 Rounding radius*
0 $2 $3 $4 $5 $6 $7 $8 $9 X,Y pos of 4 corners*
0 Add a 4 corners polygon primitive as box body*
4,1,4,$2,$3,$4,$5,$6,$7,$8,$9,$2,$3,0*
0 Add four circle primitives for the rounded corners*
1,1,$1+$1,$2,$3*
1,1,$1+$1,$4,$5*
1,1,$1+$1,$6,$7*
1,1,$1+$1,$8,$9*
0 Add four rect primitives between the rounded corners*
20,1,$1+$1,$2,$3,$4,$5,0*
20,1,$1+$1,$4,$5,$6,$7,0*
20,1,$1+$1,$6,$7,$8,$9,0*
20,1,$1+$1,$8,$9,$2,$3,0*%
%AMFreePoly0*
4,1,208,0.042808,3.175456,0.391069,3.154866,0.734585,3.093986,1.068710,2.993637,1.343515,2.877554,1.415628,2.842771,1.720510,2.673193,2.003643,2.469367,2.145212,2.340023,2.243976,2.253499,2.244425,2.253060,2.289054,2.204034,2.291276,2.206209,2.850315,1.634960,2.946697,1.531720,3.478695,0.934270,3.570106,0.826614,4.073396,0.204789,4.159642,0.092945,4.633108,-0.551879,
4.713994,-0.667657,5.156586,-1.334049,5.231934,-1.453506,5.642672,-2.139991,5.712313,-2.262860,6.090287,-2.967916,6.154068,-3.093926,6.498440,-3.815989,6.556221,-3.944865,6.866227,-4.682336,6.917879,-4.813789,7.192832,-5.565034,7.238237,-5.698765,7.477529,-6.462117,7.516592,-6.597845,7.719691,-7.371614,7.752322,-7.509024,7.918779,-8.291494,7.944907,-8.430293,8.074352,-9.219731,
8.093918,-9.359602,8.186065,-10.154256,8.199026,-10.294892,8.253671,-11.093004,8.259999,-11.234101,8.277019,-12.033899,8.276699,-12.175128,8.256059,-12.974842,8.249093,-13.115906,8.190837,-13.913761,8.177239,-14.054337,8.081497,-14.848567,8.061298,-14.988352,7.928281,-15.777195,7.901526,-15.915869,7.731530,-16.697578,7.698277,-16.834843,7.491678,-17.607685,7.452002,-17.743232,7.209258,-18.505494,
7.163247,-18.639021,6.884897,-19.389013,6.832651,-19.520231,6.519310,-20.256292,6.460948,-20.384900,6.113313,-21.105397,6.048961,-21.231120,5.667800,-21.934458,5.597603,-22.057012,5.183762,-22.741631,5.107875,-22.860745,4.662271,-23.525128,4.580862,-23.640539,4.104483,-24.283213,4.017733,-24.394663,3.511634,-25.014205,3.419734,-25.121450,2.885038,-25.716485,2.788191,-25.819286,2.226082,-26.388496,
2.124504,-26.486625,1.536227,-27.028749,1.430149,-27.121985,0.817010,-27.635822,0.706653,-27.723968,0.070009,-28.208377,-0.044368,-28.291227,-0.703104,-28.745136,-0.821259,-28.822514,-1.500629,-29.244916,-1.622291,-29.316645,-2.320789,-29.706605,-2.445692,-29.772530,-3.161769,-30.129183,-3.289636,-30.189155,-4.021705,-30.511711,-4.088350,-30.540119,-4.088930,-30.540358,-4.418670,-30.654294,-4.742994,-30.726515,
-4.821988,-30.739563,-5.168917,-30.776307,-5.517765,-30.772528,-5.863816,-30.728275,-6.153861,-30.658802,-6.230699,-30.636305,-6.559247,-30.518975,-6.871951,-30.364296,-7.164584,-30.174361,-7.395931,-29.985880,-7.455411,-29.932285,-7.700570,-29.684078,-7.915255,-29.409088,-8.096565,-29.111034,-8.223230,-28.841000,-8.253585,-28.766915,-8.366861,-28.436948,-8.441065,-28.096062,-8.475192,-27.748866,-8.472223,-27.450499,
-8.467446,-27.370577,-8.426418,-27.024129,-8.345447,-26.684787,-8.225628,-26.357139,-8.093603,-26.089658,-8.054641,-26.019714,-7.867435,-25.725328,-7.647318,-25.454665,-7.397268,-25.211387,-7.162254,-25.027577,-7.096814,-24.981449,-6.800462,-24.797370,-6.484743,-24.648942,-6.453089,-24.638343,-5.910156,-24.398750,-5.321994,-24.104542,-4.748696,-23.782316,-4.191629,-23.432844,-3.652009,-23.056886,-3.131172,-22.655373,
-2.630301,-22.229218,-2.150557,-21.779409,-1.693049,-21.306985,-1.258847,-20.813051,-0.848976,-20.298774,-0.464371,-19.765326,-0.105920,-19.213938,0.225514,-18.645939,0.529189,-18.062599,0.804374,-17.465326,1.050464,-16.855429,1.266843,-16.234434,1.453045,-15.603688,1.608614,-14.964714,1.733195,-14.319002,1.826503,-13.667997,1.888318,-13.013254,1.918491,-12.356335,1.916959,-11.698677,1.883722,-11.041887,
1.818857,-10.387444,1.722520,-9.736915,1.594924,-9.091750,1.436377,-8.453512,1.247247,-7.823666,1.027968,-7.203666,0.779043,-6.594936,0.501075,-5.998945,0.194680,-5.417021,-0.139399,-4.850570,-0.500407,-4.300874,-0.887494,-3.769226,-1.299779,-3.256838,-1.736244,-2.764971,-2.173247,-2.317911,-2.220771,-2.275834,-2.246082,-2.247537,-2.265050,-2.230147,-2.453101,-2.016097,-2.453358,-2.015810,
-2.453378,-2.015782,-2.462000,-2.005968,-2.511786,-1.943266,-2.712470,-1.657897,-2.878668,-1.351160,-3.008132,-1.027202,-3.088355,-0.739877,-3.106025,-0.661788,-3.163105,-0.317620,-3.179845,0.030847,-3.156016,0.378901,-3.103694,0.672635,-3.085751,0.750663,-2.987930,1.085537,-2.851894,1.406790,-2.679483,1.710079,-2.504985,1.952025,-2.454981,2.014552,-2.221618,2.273880,-1.959726,2.504363,
-1.672848,2.702884,-1.410687,2.845226,-1.338513,2.879884,-1.015776,3.012361,-0.679841,3.106474,-0.335251,3.160951,-0.037256,3.175526,0.042808,3.175456,0.042808,3.175456,$1*%
%AMFreePoly1*
4,1,210,0.042808,3.175456,0.391069,3.154866,0.734585,3.093986,1.068710,2.993637,1.343515,2.877554,1.415628,2.842771,1.720510,2.673193,2.003643,2.469367,2.261200,2.234050,2.458483,2.010278,2.508379,1.947663,2.709562,1.662646,2.876297,1.356200,3.006328,1.032469,3.087063,0.745249,3.104869,0.667190,3.162548,0.323123,3.179996,-0.004777,3.179995,-0.005405,3.159156,-0.353651,
3.102515,-0.678050,3.084436,-0.756046,2.986031,-1.090748,2.849435,-1.411764,2.676495,-1.714751,2.501595,-1.956367,2.451482,-2.018808,2.429507,-2.043143,2.414416,-2.063678,2.302738,-2.183527,2.217670,-2.277731,2.202824,-2.290751,2.176582,-2.318913,2.151108,-2.340559,1.736254,-2.764960,1.299779,-3.256838,0.887494,-3.769226,0.500407,-4.300874,0.139399,-4.850570,-0.194680,-5.417021,
-0.501075,-5.998945,-0.779043,-6.594936,-1.027968,-7.203666,-1.247247,-7.823666,-1.436377,-8.453512,-1.594924,-9.091750,-1.722520,-9.736915,-1.818857,-10.387444,-1.883722,-11.041887,-1.916959,-11.698677,-1.918491,-12.356335,-1.888318,-13.013254,-1.826503,-13.667997,-1.733195,-14.319002,-1.608614,-14.964714,-1.453045,-15.603688,-1.266843,-16.234434,-1.050464,-16.855429,-0.804374,-17.465326,-0.529189,-18.062599,
-0.225514,-18.645939,0.105920,-19.213938,0.464371,-19.765326,0.848976,-20.298774,1.258847,-20.813051,1.693049,-21.306985,2.150557,-21.779409,2.630301,-22.229218,3.131172,-22.655373,3.652009,-23.056886,4.191629,-23.432844,4.748696,-23.782316,5.321994,-24.104542,5.910151,-24.398748,6.482009,-24.651105,6.541730,-24.672463,6.854364,-24.827283,7.106000,-24.987776,7.171278,-25.034134,7.443492,-25.252330,
7.688534,-25.500652,7.903091,-25.775743,8.060120,-26.029304,8.098838,-26.099382,8.249510,-26.414037,8.362633,-26.744056,8.436679,-27.084977,8.468228,-27.381634,8.472726,-27.461572,8.472039,-27.810440,8.430856,-28.156870,8.349733,-28.496176,8.249507,-28.777185,8.218894,-28.851165,8.066983,-29.165224,7.879639,-29.459523,7.659397,-29.730083,7.447230,-29.939820,7.387563,-29.993206,7.114485,-30.210318,
6.818048,-30.394261,6.502261,-30.542545,6.220143,-30.639521,6.143227,-30.661751,5.803010,-30.738965,5.456129,-30.776159,5.107276,-30.772831,4.810978,-30.737867,4.732031,-30.724542,4.391985,-30.646576,4.085952,-30.539130,4.085371,-30.538890,4.022371,-30.508465,4.021065,-30.511429,3.289636,-30.189155,3.161769,-30.129183,2.445692,-29.772530,2.320789,-29.706605,1.622291,-29.316645,1.500629,-29.244916,
0.821259,-28.822514,0.703104,-28.745136,0.044368,-28.291227,-0.070009,-28.208377,-0.706653,-27.723968,-0.817010,-27.635822,-1.430149,-27.121985,-1.536227,-27.028749,-2.124504,-26.486625,-2.226082,-26.388496,-2.788191,-25.819286,-2.885038,-25.716485,-3.419734,-25.121450,-3.511634,-25.014205,-4.017733,-24.394663,-4.104483,-24.283213,-4.580862,-23.640539,-4.662271,-23.525128,-5.107875,-22.860745,-5.183762,-22.741631,
-5.597603,-22.057012,-5.667800,-21.934458,-6.048961,-21.231120,-6.113313,-21.105397,-6.460948,-20.384900,-6.519310,-20.256292,-6.832651,-19.520231,-6.884897,-19.389013,-7.163247,-18.639021,-7.209258,-18.505494,-7.452002,-17.743232,-7.491678,-17.607685,-7.698277,-16.834843,-7.731530,-16.697578,-7.901526,-15.915869,-7.928281,-15.777195,-8.061298,-14.988352,-8.081497,-14.848567,-8.177239,-14.054337,-8.190837,-13.913761,
-8.249093,-13.115906,-8.256059,-12.974842,-8.276699,-12.175128,-8.277019,-12.033899,-8.259999,-11.234101,-8.253671,-11.093004,-8.199026,-10.294892,-8.186065,-10.154256,-8.093918,-9.359602,-8.074352,-9.219731,-7.944907,-8.430293,-7.918779,-8.291494,-7.752322,-7.509024,-7.719691,-7.371614,-7.516592,-6.597845,-7.477529,-6.462117,-7.238237,-5.698765,-7.192832,-5.565034,-6.917879,-4.813789,-6.866227,-4.682336,
-6.556221,-3.944865,-6.498440,-3.815989,-6.154068,-3.093926,-6.090287,-2.967916,-5.712313,-2.262860,-5.642672,-2.139991,-5.231934,-1.453506,-5.156586,-1.334049,-4.713994,-0.667657,-4.633108,-0.551879,-4.159642,0.092945,-4.073396,0.204789,-3.570106,0.826614,-3.478695,0.934270,-2.946697,1.531720,-2.850316,1.634960,-2.290789,2.206708,-2.236753,2.260537,-2.236302,2.260975,-2.222492,2.272908,
-2.221608,2.273890,-1.959715,2.504372,-1.672836,2.702891,-1.410687,2.845226,-1.338513,2.879884,-1.015776,3.012361,-0.679841,3.106474,-0.335251,3.160951,-0.037256,3.175526,0.042808,3.175456,0.042808,3.175456,$1*%
G04 Aperture macros list end*
%ADD10C,0.150000*%
%ADD11C,0.160000*%
%ADD12C,0.120000*%
%ADD13C,0.000000*%
%ADD14RoundRect,0.190000X0.140000X0.170000X-0.140000X0.170000X-0.140000X-0.170000X0.140000X-0.170000X0*%
%ADD15RoundRect,0.050000X0.100000X0.200000X-0.100000X0.200000X-0.100000X-0.200000X0.100000X-0.200000X0*%
%ADD16RoundRect,0.050000X0.550000X0.300000X-0.550000X0.300000X-0.550000X-0.300000X0.550000X-0.300000X0*%
%ADD17RoundRect,0.185000X-0.135000X-0.185000X0.135000X-0.185000X0.135000X0.185000X-0.135000X0.185000X0*%
%ADD18RoundRect,0.275000X-0.335876X-0.017678X-0.017678X-0.335876X0.335876X0.017678X0.017678X0.335876X0*%
%ADD19RoundRect,0.190000X-0.170000X0.140000X-0.170000X-0.140000X0.170000X-0.140000X0.170000X0.140000X0*%
%ADD20RoundRect,0.268750X0.256250X-0.218750X0.256250X0.218750X-0.256250X0.218750X-0.256250X-0.218750X0*%
%ADD21RoundRect,0.197500X0.147500X0.172500X-0.147500X0.172500X-0.147500X-0.172500X0.147500X-0.172500X0*%
%ADD22C,3.900000*%
%ADD23C,2.700000*%
%ADD24RoundRect,0.197500X-0.172500X0.147500X-0.172500X-0.147500X0.172500X-0.147500X0.172500X0.147500X0*%
%ADD25RoundRect,0.185000X-0.185000X0.135000X-0.185000X-0.135000X0.185000X-0.135000X0.185000X0.135000X0*%
%ADD26RoundRect,0.275000X-0.250000X0.225000X-0.250000X-0.225000X0.250000X-0.225000X0.250000X0.225000X0*%
%ADD27RoundRect,0.050000X0.950000X0.500000X-0.950000X0.500000X-0.950000X-0.500000X0.950000X-0.500000X0*%
%ADD28RoundRect,0.050000X0.500000X0.500000X-0.500000X0.500000X-0.500000X-0.500000X0.500000X-0.500000X0*%
%ADD29RoundRect,0.050000X0.525000X1.100000X-0.525000X1.100000X-0.525000X-1.100000X0.525000X-1.100000X0*%
%ADD30RoundRect,0.190000X-0.219203X-0.021213X-0.021213X-0.219203X0.219203X0.021213X0.021213X0.219203X0*%
%ADD31RoundRect,0.050000X-0.125000X0.250000X-0.125000X-0.250000X0.125000X-0.250000X0.125000X0.250000X0*%
%ADD32RoundRect,0.050000X-0.800000X0.450000X-0.800000X-0.450000X0.800000X-0.450000X0.800000X0.450000X0*%
%ADD33RoundRect,0.275000X0.225000X0.250000X-0.225000X0.250000X-0.225000X-0.250000X0.225000X-0.250000X0*%
%ADD34RoundRect,0.197500X-0.147500X-0.172500X0.147500X-0.172500X0.147500X0.172500X-0.147500X0.172500X0*%
%ADD35RoundRect,3.000000X-2.708219X-2.595082X-2.595082X-2.708219X2.708219X2.595082X2.595082X2.708219X0*%
%ADD36RoundRect,3.000000X-2.595082X2.708219X-2.708219X2.595082X2.595082X-2.708219X2.708219X-2.595082X0*%
%ADD37RoundRect,3.000000X0.080000X3.750000X-0.080000X3.750000X-0.080000X-3.750000X0.080000X-3.750000X0*%
%ADD38RoundRect,0.700000X-2.753097X-2.547422X-2.641952X-2.662516X2.753097X2.547422X2.641952X2.662516X0*%
%ADD39RoundRect,0.700000X-2.641952X2.662516X-2.753097X2.547422X2.641952X-2.662516X2.753097X-2.547422X0*%
%ADD40FreePoly0,180.000000*%
%ADD41RoundRect,3.000000X-0.080000X-3.750000X0.080000X-3.750000X0.080000X3.750000X-0.080000X3.750000X0*%
%ADD42C,6.450000*%
%ADD43FreePoly1,0.000000*%
%ADD44RoundRect,0.050000X-0.525000X0.180000X-0.525000X-0.180000X0.525000X-0.180000X0.525000X0.180000X0*%
G04 APERTURE END LIST*
D10*
X134046980Y-56917647D02*
X134761266Y-56917647D01*
X134904123Y-56965266D01*
X134999361Y-57060504D01*
X135046980Y-57203361D01*
X135046980Y-57298600D01*
X135046980Y-55965266D02*
X135046980Y-56441457D01*
X134046980Y-56441457D01*
X134951742Y-55060504D02*
X134999361Y-55108123D01*
X135046980Y-55250980D01*
X135046980Y-55346219D01*
X134999361Y-55489076D01*
X134904123Y-55584314D01*
X134808885Y-55631933D01*
X134618409Y-55679552D01*
X134475552Y-55679552D01*
X134285076Y-55631933D01*
X134189838Y-55584314D01*
X134094600Y-55489076D01*
X134046980Y-55346219D01*
X134046980Y-55250980D01*
X134094600Y-55108123D01*
X134142219Y-55060504D01*
X134046980Y-54346219D02*
X134761266Y-54346219D01*
X134904123Y-54393838D01*
X134999361Y-54489076D01*
X135046980Y-54631933D01*
X135046980Y-54727171D01*
X135046980Y-53393838D02*
X135046980Y-53870028D01*
X134046980Y-53870028D01*
X134951742Y-52489076D02*
X134999361Y-52536695D01*
X135046980Y-52679552D01*
X135046980Y-52774790D01*
X134999361Y-52917647D01*
X134904123Y-53012885D01*
X134808885Y-53060504D01*
X134618409Y-53108123D01*
X134475552Y-53108123D01*
X134285076Y-53060504D01*
X134189838Y-53012885D01*
X134094600Y-52917647D01*
X134046980Y-52774790D01*
X134046980Y-52679552D01*
X134094600Y-52536695D01*
X134142219Y-52489076D01*
X134046980Y-51774790D02*
X134761266Y-51774790D01*
X134904123Y-51822409D01*
X134999361Y-51917647D01*
X135046980Y-52060504D01*
X135046980Y-52155742D01*
X135046980Y-50822409D02*
X135046980Y-51298600D01*
X134046980Y-51298600D01*
X134951742Y-49917647D02*
X134999361Y-49965266D01*
X135046980Y-50108123D01*
X135046980Y-50203361D01*
X134999361Y-50346219D01*
X134904123Y-50441457D01*
X134808885Y-50489076D01*
X134618409Y-50536695D01*
X134475552Y-50536695D01*
X134285076Y-50489076D01*
X134189838Y-50441457D01*
X134094600Y-50346219D01*
X134046980Y-50203361D01*
X134046980Y-50108123D01*
X134094600Y-49965266D01*
X134142219Y-49917647D01*
X134046980Y-49203361D02*
X134761266Y-49203361D01*
X134904123Y-49250980D01*
X134999361Y-49346219D01*
X135046980Y-49489076D01*
X135046980Y-49584314D01*
X135046980Y-48250980D02*
X135046980Y-48727171D01*
X134046980Y-48727171D01*
X134951742Y-47346219D02*
X134999361Y-47393838D01*
X135046980Y-47536695D01*
X135046980Y-47631933D01*
X134999361Y-47774790D01*
X134904123Y-47870028D01*
X134808885Y-47917647D01*
X134618409Y-47965266D01*
X134475552Y-47965266D01*
X134285076Y-47917647D01*
X134189838Y-47870028D01*
X134094600Y-47774790D01*
X134046980Y-47631933D01*
X134046980Y-47536695D01*
X134094600Y-47393838D01*
X134142219Y-47346219D01*
D11*
X134454923Y-97794819D02*
X134645400Y-97651961D01*
X134835876Y-97794819D01*
D12*
%TO.C,C3*%
X135210436Y-99191400D02*
X134994764Y-99191400D01*
X135210436Y-98471400D02*
X134994764Y-98471400D01*
%TO.C,U3*%
X130954600Y-96750800D02*
X130954600Y-93850800D01*
X133154600Y-96750800D02*
X130954600Y-96750800D01*
X130954600Y-93850800D02*
X132354600Y-93850800D01*
X132354600Y-93850800D02*
X133154600Y-94650800D01*
X133154600Y-94650800D02*
X133154600Y-96750800D01*
%TO.C,R2*%
X134364759Y-93979000D02*
X134672041Y-93979000D01*
X134364759Y-93219000D02*
X134672041Y-93219000D01*
%TO.C,C12*%
X134261570Y-103791619D02*
X134460381Y-103990430D01*
X134982819Y-103070370D02*
X135181630Y-103269181D01*
%TO.C,C1*%
X133178436Y-91012600D02*
X132962764Y-91012600D01*
X133178436Y-90292600D02*
X132962764Y-90292600D01*
%TO.C,C6*%
X134600836Y-95000400D02*
X134385164Y-95000400D01*
X134600836Y-94280400D02*
X134385164Y-94280400D01*
%TO.C,C11*%
X131715000Y-107797164D02*
X131715000Y-108012836D01*
X132435000Y-107797164D02*
X132435000Y-108012836D01*
%TO.C,FB2*%
X134897400Y-101026179D02*
X134897400Y-100700621D01*
X135917400Y-101026179D02*
X135917400Y-100700621D01*
%TO.C,C10*%
X133985000Y-104887164D02*
X133985000Y-105102836D01*
X133265000Y-104887164D02*
X133265000Y-105102836D01*
%TO.C,C4*%
X130210000Y-91367164D02*
X130210000Y-91582836D01*
X129490000Y-91367164D02*
X129490000Y-91582836D01*
%TO.C,C8*%
X131313600Y-97631364D02*
X131313600Y-97847036D01*
X132033600Y-97631364D02*
X132033600Y-97847036D01*
%TO.C,R4*%
X130504200Y-106754959D02*
X130504200Y-107062241D01*
X129744200Y-106754959D02*
X129744200Y-107062241D01*
%TO.C,C13*%
X135612600Y-83323820D02*
X135612600Y-83604980D01*
X134592600Y-83323820D02*
X134592600Y-83604980D01*
%TO.C,J2*%
X131220000Y-71650000D02*
X131220000Y-68440000D01*
X133880000Y-74190000D02*
X133880000Y-70630000D01*
X131220000Y-81460000D02*
X131220000Y-78250000D01*
X133880000Y-79270000D02*
X133880000Y-75710000D01*
X133880000Y-68440000D02*
X131220000Y-68440000D01*
X131220000Y-76730000D02*
X131220000Y-73170000D01*
X135090000Y-80790000D02*
X133880000Y-80790000D01*
X133880000Y-81460000D02*
X133880000Y-80790000D01*
X133880000Y-69110000D02*
X133880000Y-68440000D01*
X133880000Y-81460000D02*
X131220000Y-81460000D01*
%TO.C,J1*%
X133375000Y-109929800D02*
X133575000Y-110129800D01*
X130575000Y-109929800D02*
X131375000Y-109929800D01*
X133575000Y-112729800D02*
X133575000Y-112929800D01*
X131375000Y-112929800D02*
X130575000Y-112929800D01*
X130575000Y-110129800D02*
X130575000Y-109929800D01*
X132775000Y-109929800D02*
X132775000Y-109429800D01*
X131375000Y-109929800D02*
X131375000Y-109429800D01*
X130575000Y-112929800D02*
X130575000Y-112729800D01*
X132775000Y-109929800D02*
X133375000Y-109929800D01*
X133575000Y-112929800D02*
X132775000Y-112929800D01*
%TO.C,C5*%
X131442718Y-92508601D02*
X131595221Y-92661104D01*
X130933601Y-93017718D02*
X131086104Y-93170221D01*
%TO.C,IC2*%
X130705000Y-104800000D02*
X130705000Y-103800000D01*
X132945000Y-102800000D02*
X132945000Y-104800000D01*
%TO.C,C9*%
X132365636Y-98827000D02*
X132149964Y-98827000D01*
X132365636Y-99547000D02*
X132149964Y-99547000D01*
%TO.C,C2*%
X132931780Y-83237800D02*
X132650620Y-83237800D01*
X132931780Y-82217800D02*
X132650620Y-82217800D01*
%TO.C,R3*%
X129642600Y-103833959D02*
X129642600Y-104141241D01*
X130402600Y-103833959D02*
X130402600Y-104141241D01*
%TO.C,FB1*%
X135333200Y-91704379D02*
X135333200Y-91378821D01*
X134313200Y-91704379D02*
X134313200Y-91378821D01*
%TD*%
%LPC*%
D13*
G36*
X132918200Y-99263200D02*
G01*
X133146800Y-99491800D01*
X133146800Y-102692200D01*
X130429000Y-102692200D01*
X130200400Y-102463600D01*
X130200400Y-101549200D01*
X130429000Y-101320600D01*
X130429000Y-96520000D01*
X132918200Y-96520000D01*
X132918200Y-99263200D01*
G37*
G36*
X133477000Y-110083600D02*
G01*
X130683000Y-110083600D01*
X130683000Y-106857800D01*
X131622800Y-105918000D01*
X133477000Y-105918000D01*
X133477000Y-110083600D01*
G37*
G36*
X135255000Y-96774000D02*
G01*
X133248400Y-96774000D01*
X133248400Y-97434400D01*
X135255000Y-97434400D01*
X135255000Y-96774000D01*
G37*
G36*
X129362200Y-140944600D02*
G01*
X111556800Y-140944600D01*
X111556800Y-43053000D01*
X129362200Y-43053000D01*
X129362200Y-140944600D01*
G37*
G36*
X135255000Y-95808800D02*
G01*
X133248400Y-95808800D01*
X133248400Y-96469200D01*
X135255000Y-96469200D01*
X135255000Y-95808800D01*
G37*
G36*
X132791200Y-92710000D02*
G01*
X132791200Y-93878400D01*
X132588000Y-94081600D01*
X130606800Y-94081600D01*
X130606800Y-93878400D01*
X129844800Y-93116400D01*
X128447800Y-93116400D01*
X128447800Y-90830400D01*
X130911600Y-90830400D01*
X132791200Y-92710000D01*
G37*
D14*
%TO.C,C3*%
X135582600Y-98831400D03*
X134622600Y-98831400D03*
%TD*%
D15*
%TO.C,U3*%
X132554600Y-94550800D03*
X132054600Y-94550800D03*
X131554600Y-94550800D03*
X131554600Y-96050800D03*
X132054600Y-96050800D03*
X132554600Y-96050800D03*
D16*
X132054600Y-95300800D03*
%TD*%
D17*
%TO.C,R2*%
X134008400Y-93599000D03*
X135028400Y-93599000D03*
%TD*%
D18*
%TO.C,C12*%
X134173592Y-102982392D03*
X135269608Y-104078408D03*
%TD*%
D14*
%TO.C,C1*%
X133550600Y-90652600D03*
X132590600Y-90652600D03*
%TD*%
%TO.C,C6*%
X134973000Y-94640400D03*
X134013000Y-94640400D03*
%TD*%
D19*
%TO.C,C11*%
X132075000Y-107425000D03*
X132075000Y-108385000D03*
%TD*%
D20*
%TO.C,FB2*%
X135407400Y-101650900D03*
X135407400Y-100075900D03*
%TD*%
D21*
%TO.C,L2*%
X132006200Y-102150000D03*
X131036200Y-102150000D03*
%TD*%
D19*
%TO.C,C10*%
X133625000Y-104515000D03*
X133625000Y-105475000D03*
%TD*%
%TO.C,C4*%
X129850000Y-90995000D03*
X129850000Y-91955000D03*
%TD*%
D22*
%TO.C,H2*%
X134075000Y-65786000D03*
D23*
X134075000Y-65786000D03*
%TD*%
D24*
%TO.C,L1*%
X131902200Y-100149800D03*
X131902200Y-101119800D03*
%TD*%
D19*
%TO.C,C8*%
X131673600Y-97259200D03*
X131673600Y-98219200D03*
%TD*%
D25*
%TO.C,R4*%
X130124200Y-106398600D03*
X130124200Y-107418600D03*
%TD*%
D23*
%TO.C,H1*%
X134075000Y-116128800D03*
D22*
X134075000Y-116128800D03*
%TD*%
D26*
%TO.C,C13*%
X135102600Y-82689400D03*
X135102600Y-84239400D03*
%TD*%
D27*
%TO.C,J2*%
X134200000Y-80030000D03*
X130900000Y-77490000D03*
X134200000Y-74950000D03*
X130900000Y-72410000D03*
X134200000Y-69870000D03*
%TD*%
D28*
%TO.C,J1*%
X132075000Y-109929800D03*
D29*
X133550000Y-111429800D03*
D28*
X132075000Y-112929800D03*
D29*
X130600000Y-111429800D03*
%TD*%
D30*
%TO.C,C5*%
X130925000Y-92500000D03*
X131603822Y-93178822D03*
%TD*%
D31*
%TO.C,IC2*%
X132575000Y-103350000D03*
X132075000Y-103350000D03*
X131575000Y-103350000D03*
X131075000Y-103350000D03*
X131075000Y-105250000D03*
X131575000Y-105250000D03*
X132075000Y-105250000D03*
X132575000Y-105250000D03*
D32*
X131825000Y-104300000D03*
%TD*%
D14*
%TO.C,C9*%
X132737800Y-99187000D03*
X131777800Y-99187000D03*
%TD*%
D33*
%TO.C,C2*%
X133566200Y-82727800D03*
X132016200Y-82727800D03*
%TD*%
D34*
%TO.C,L3*%
X132075000Y-106450000D03*
X133045000Y-106450000D03*
%TD*%
D25*
%TO.C,R3*%
X130022600Y-103477600D03*
X130022600Y-104497600D03*
%TD*%
D20*
%TO.C,FB1*%
X134823200Y-92329100D03*
X134823200Y-90754100D03*
%TD*%
D35*
%TO.C,AE1*%
X120601651Y-99700000D03*
D36*
X120601651Y-84150000D03*
D37*
X123301651Y-83050000D03*
D38*
X125901651Y-94500000D03*
D39*
X125901651Y-89350000D03*
D40*
X117950000Y-81450000D03*
D41*
X123301651Y-100800000D03*
D42*
X123301651Y-79200000D03*
X123301651Y-130000000D03*
D43*
X117950000Y-102400000D03*
D42*
X123301651Y-104650000D03*
X123301651Y-53850000D03*
D44*
X129001651Y-91950000D03*
%TD*%
M02*
