%TF.GenerationSoftware,KiCad,Pcbnew,(6.0.4)*%
%TF.CreationDate,2023-05-23T13:29:09+09:00*%
%TF.ProjectId,BajieHeader,42616a69-6548-4656-9164-65722e6b6963,rev?*%
%TF.SameCoordinates,Original*%
%TF.FileFunction,Copper,L2,Bot*%
%TF.FilePolarity,Positive*%
%FSLAX46Y46*%
G04 Gerber Fmt 4.6, Leading zero omitted, Abs format (unit mm)*
G04 Created by KiCad (PCBNEW (6.0.4)) date 2023-05-23 13:29:09*
%MOMM*%
%LPD*%
G01*
G04 APERTURE LIST*
G04 Aperture macros list*
%AMRoundRect*
0 Rectangle with rounded corners*
0 $1 Rounding radius*
0 $2 $3 $4 $5 $6 $7 $8 $9 X,Y pos of 4 corners*
0 Add a 4 corners polygon primitive as box body*
4,1,4,$2,$3,$4,$5,$6,$7,$8,$9,$2,$3,0*
0 Add four circle primitives for the rounded corners*
1,1,$1+$1,$2,$3*
1,1,$1+$1,$4,$5*
1,1,$1+$1,$6,$7*
1,1,$1+$1,$8,$9*
0 Add four rect primitives between the rounded corners*
20,1,$1+$1,$2,$3,$4,$5,0*
20,1,$1+$1,$4,$5,$6,$7,0*
20,1,$1+$1,$6,$7,$8,$9,0*
20,1,$1+$1,$8,$9,$2,$3,0*%
G04 Aperture macros list end*
%TA.AperFunction,ComponentPad*%
%ADD10R,1.700000X1.700000*%
%TD*%
%TA.AperFunction,ComponentPad*%
%ADD11O,1.700000X1.700000*%
%TD*%
%TA.AperFunction,ComponentPad*%
%ADD12R,1.000000X1.000000*%
%TD*%
%TA.AperFunction,ComponentPad*%
%ADD13O,1.000000X1.000000*%
%TD*%
%TA.AperFunction,ComponentPad*%
%ADD14C,2.600000*%
%TD*%
%TA.AperFunction,ConnectorPad*%
%ADD15C,3.500000*%
%TD*%
%TA.AperFunction,SMDPad,CuDef*%
%ADD16RoundRect,0.250000X-0.625000X0.375000X-0.625000X-0.375000X0.625000X-0.375000X0.625000X0.375000X0*%
%TD*%
%TA.AperFunction,SMDPad,CuDef*%
%ADD17RoundRect,0.140000X0.219203X0.021213X0.021213X0.219203X-0.219203X-0.021213X-0.021213X-0.219203X0*%
%TD*%
%TA.AperFunction,SMDPad,CuDef*%
%ADD18RoundRect,0.225000X0.250000X-0.225000X0.250000X0.225000X-0.250000X0.225000X-0.250000X-0.225000X0*%
%TD*%
%TA.AperFunction,SMDPad,CuDef*%
%ADD19RoundRect,0.140000X-0.170000X0.140000X-0.170000X-0.140000X0.170000X-0.140000X0.170000X0.140000X0*%
%TD*%
%TA.AperFunction,ViaPad*%
%ADD20C,0.500000*%
%TD*%
%TA.AperFunction,ViaPad*%
%ADD21C,0.800000*%
%TD*%
%TA.AperFunction,Conductor*%
%ADD22C,1.000000*%
%TD*%
%TA.AperFunction,Conductor*%
%ADD23C,0.250000*%
%TD*%
%TA.AperFunction,Conductor*%
%ADD24C,0.500000*%
%TD*%
G04 APERTURE END LIST*
D10*
%TO.P,J1,1,Pin_1*%
%TO.N,GND*%
X78735000Y-57155000D03*
D11*
%TO.P,J1,2,Pin_2*%
X81275000Y-57155000D03*
%TO.P,J1,3,Pin_3*%
%TO.N,+2V5*%
X78735000Y-59695000D03*
%TO.P,J1,4,Pin_4*%
X81275000Y-59695000D03*
%TO.P,J1,5,Pin_5*%
%TO.N,/P20*%
X78735000Y-62235000D03*
%TO.P,J1,6,Pin_6*%
%TO.N,/N20*%
X81275000Y-62235000D03*
%TO.P,J1,7,Pin_7*%
%TO.N,/T19*%
X78735000Y-64775000D03*
%TO.P,J1,8,Pin_8*%
%TO.N,/R19*%
X81275000Y-64775000D03*
%TO.P,J1,9,Pin_9*%
%TO.N,/DB1N*%
X78735000Y-67315000D03*
%TO.P,J1,10,Pin_10*%
%TO.N,/DB1P*%
X81275000Y-67315000D03*
%TO.P,J1,11,Pin_11*%
%TO.N,/DB0N*%
X78735000Y-69855000D03*
%TO.P,J1,12,Pin_12*%
%TO.N,/DB0P*%
X81275000Y-69855000D03*
%TO.P,J1,13,Pin_13*%
%TO.N,/FCLKN*%
X78735000Y-72395000D03*
%TO.P,J1,14,Pin_14*%
%TO.N,/FCLKP*%
X81275000Y-72395000D03*
%TO.P,J1,15,Pin_15*%
%TO.N,/DCLKP*%
X78735000Y-74935000D03*
%TO.P,J1,16,Pin_16*%
%TO.N,/DCLKN*%
X81275000Y-74935000D03*
%TO.P,J1,17,Pin_17*%
%TO.N,/DA1P*%
X78735000Y-77475000D03*
%TO.P,J1,18,Pin_18*%
%TO.N,/DA1N*%
X81275000Y-77475000D03*
%TO.P,J1,19,Pin_19*%
%TO.N,/DA0P*%
X78735000Y-80015000D03*
%TO.P,J1,20,Pin_20*%
%TO.N,/DA0N*%
X81275000Y-80015000D03*
%TO.P,J1,21,Pin_21*%
%TO.N,/U18*%
X78735000Y-82555000D03*
%TO.P,J1,22,Pin_22*%
%TO.N,/U19*%
X81275000Y-82555000D03*
%TO.P,J1,23,Pin_23*%
%TO.N,/W18*%
X78735000Y-85095000D03*
%TO.P,J1,24,Pin_24*%
%TO.N,/W19*%
X81275000Y-85095000D03*
%TO.P,J1,25,Pin_25*%
%TO.N,/V17*%
X78735000Y-87635000D03*
%TO.P,J1,26,Pin_26*%
%TO.N,/V18*%
X81275000Y-87635000D03*
%TO.P,J1,27,Pin_27*%
%TO.N,/V16*%
X78735000Y-90175000D03*
%TO.P,J1,28,Pin_28*%
%TO.N,/W16*%
X81275000Y-90175000D03*
%TO.P,J1,29,Pin_29*%
%TO.N,/V15*%
X78735000Y-92715000D03*
%TO.P,J1,30,Pin_30*%
%TO.N,/W15*%
X81275000Y-92715000D03*
%TO.P,J1,31,Pin_31*%
%TO.N,/Y18*%
X78735000Y-95255000D03*
%TO.P,J1,32,Pin_32*%
%TO.N,/Y19*%
X81275000Y-95255000D03*
%TO.P,J1,33,Pin_33*%
%TO.N,/Y16*%
X78735000Y-97795000D03*
%TO.P,J1,34,Pin_34*%
%TO.N,/Y17*%
X81275000Y-97795000D03*
%TO.P,J1,35,Pin_35*%
%TO.N,/W14*%
X78735000Y-100335000D03*
%TO.P,J1,36,Pin_36*%
%TO.N,/Y14*%
X81275000Y-100335000D03*
%TO.P,J1,37,Pin_37*%
%TO.N,/T14*%
X78735000Y-102875000D03*
%TO.P,J1,38,Pin_38*%
%TO.N,/T15*%
X81275000Y-102875000D03*
%TO.P,J1,39,Pin_39*%
%TO.N,/P14*%
X78735000Y-105415000D03*
%TO.P,J1,40,Pin_40*%
%TO.N,/U14*%
X81275000Y-105415000D03*
%TO.P,J1,41,Pin_41*%
%TO.N,/V12*%
X78735000Y-107955000D03*
%TO.P,J1,42,Pin_42*%
%TO.N,/W13*%
X81275000Y-107955000D03*
%TO.P,J1,43,Pin_43*%
%TO.N,/T12*%
X78735000Y-110495000D03*
%TO.P,J1,44,Pin_44*%
%TO.N,/U12*%
X81275000Y-110495000D03*
%TO.P,J1,45,Pin_45*%
%TO.N,/T10*%
X78735000Y-113035000D03*
%TO.P,J1,46,Pin_46*%
%TO.N,/T11*%
X81275000Y-113035000D03*
%TO.P,J1,47,Pin_47*%
%TO.N,GND*%
X78735000Y-115575000D03*
%TO.P,J1,48,Pin_48*%
X81275000Y-115575000D03*
%TO.P,J1,49,Pin_49*%
%TO.N,+5V*%
X78735000Y-118115000D03*
%TO.P,J1,50,Pin_50*%
X81275000Y-118115000D03*
%TD*%
D10*
%TO.P,J7,1,Pin_1*%
%TO.N,+12V*%
X90855800Y-109067600D03*
D11*
%TO.P,J7,2,Pin_2*%
%TO.N,GND*%
X90855800Y-106527600D03*
%TO.P,J7,3,Pin_3*%
%TO.N,+3V8*%
X90855800Y-103987600D03*
%TD*%
D12*
%TO.P,J6,1,Pin_1*%
%TO.N,Net-(F1-Pad2)*%
X99517200Y-95732600D03*
D13*
%TO.P,J6,2,Pin_2*%
%TO.N,GND*%
X99517200Y-97002600D03*
%TO.P,J6,3,Pin_3*%
%TO.N,Net-(J6-Pad3)*%
X99517200Y-98272600D03*
%TO.P,J6,4,Pin_4*%
%TO.N,Net-(J6-Pad4)*%
X99517200Y-99542600D03*
%TD*%
D14*
%TO.P,H2,1,1*%
%TO.N,GND*%
X99771200Y-117221000D03*
D15*
X99771200Y-117221000D03*
%TD*%
D10*
%TO.P,J3,1,Pin_1*%
%TO.N,/F19*%
X89199800Y-83185000D03*
D11*
%TO.P,J3,2,Pin_2*%
%TO.N,/F20*%
X91739800Y-83185000D03*
%TO.P,J3,3,Pin_3*%
%TO.N,/CAN_R*%
X89199800Y-85725000D03*
%TO.P,J3,4,Pin_4*%
%TO.N,/CAN_T*%
X91739800Y-85725000D03*
%TO.P,J3,5,Pin_5*%
%TO.N,/H18*%
X89199800Y-88265000D03*
%TO.P,J3,6,Pin_6*%
%TO.N,/H20*%
X91739800Y-88265000D03*
%TO.P,J3,7,Pin_7*%
%TO.N,/J19*%
X89199800Y-90805000D03*
%TO.P,J3,8,Pin_8*%
%TO.N,/J20*%
X91739800Y-90805000D03*
%TO.P,J3,9,Pin_9*%
%TO.N,GND*%
X89199800Y-93345000D03*
%TO.P,J3,10,Pin_10*%
X91739800Y-93345000D03*
%TO.P,J3,11,Pin_11*%
%TO.N,+3V3*%
X89199800Y-95885000D03*
%TO.P,J3,12,Pin_12*%
X91739800Y-95885000D03*
%TD*%
D15*
%TO.P,H1,1,1*%
%TO.N,GND*%
X89433400Y-58902600D03*
D14*
X89433400Y-58902600D03*
%TD*%
D10*
%TO.P,J5,1,Pin_1*%
%TO.N,+3V3*%
X91744800Y-99745800D03*
D11*
%TO.P,J5,2,Pin_2*%
%TO.N,GND*%
X89204800Y-99745800D03*
%TD*%
D10*
%TO.P,J4,1,Pin_1*%
%TO.N,+12V*%
X94462600Y-115011200D03*
D11*
%TO.P,J4,2,Pin_2*%
%TO.N,GND*%
X94462600Y-117551200D03*
%TD*%
D16*
%TO.P,F1,1*%
%TO.N,+5V*%
X99517200Y-91284600D03*
%TO.P,F1,2*%
%TO.N,Net-(F1-Pad2)*%
X99517200Y-94084600D03*
%TD*%
D17*
%TO.P,C1,1*%
%TO.N,+5V*%
X84057811Y-116671411D03*
%TO.P,C1,2*%
%TO.N,GND*%
X83378989Y-115992589D03*
%TD*%
D18*
%TO.P,C2,1*%
%TO.N,GND*%
X92329000Y-116929200D03*
%TO.P,C2,2*%
%TO.N,+12V*%
X92329000Y-115379200D03*
%TD*%
D19*
%TO.P,C13,1*%
%TO.N,+5V*%
X97840800Y-91493400D03*
%TO.P,C13,2*%
%TO.N,GND*%
X97840800Y-92453400D03*
%TD*%
D20*
%TO.N,GND*%
X91262200Y-115849400D03*
X92964000Y-102870000D03*
X89484200Y-102870000D03*
X97459800Y-92532200D03*
X84505800Y-80213200D03*
X94615000Y-87757000D03*
X96951800Y-90322400D03*
X97434400Y-94386400D03*
X95783400Y-107238800D03*
X91871800Y-117373400D03*
X100126800Y-114020600D03*
X87604600Y-115468400D03*
X85902800Y-116001800D03*
X85902800Y-110337600D03*
X85902800Y-111912400D03*
D21*
%TO.N,+5V*%
X98729800Y-91389200D03*
D20*
%TO.N,GND*%
X88646000Y-69240400D03*
X84455000Y-65049400D03*
X83362800Y-81483200D03*
X93548200Y-70281800D03*
X91694000Y-69392800D03*
X89433400Y-70307200D03*
X85191600Y-117246400D03*
X95072200Y-106400600D03*
X91694000Y-80086200D03*
X95072200Y-108102400D03*
X88595200Y-67081400D03*
X86512400Y-117246400D03*
X96951800Y-108915200D03*
X100076000Y-89738200D03*
X91795600Y-112090200D03*
X91694000Y-67081400D03*
X89433400Y-77012800D03*
X96316800Y-106146600D03*
X88595200Y-78562200D03*
X99415600Y-113258600D03*
X91694000Y-77927200D03*
X88341200Y-113614200D03*
X93548200Y-77012800D03*
X98602800Y-109778800D03*
X86461600Y-114376200D03*
X88595200Y-80086200D03*
%TO.N,/R19*%
X87757000Y-77851000D03*
%TO.N,Net-(C6-Pad1)*%
X87020401Y-112854199D03*
X89281000Y-116075299D03*
%TO.N,Net-(C7-Pad1)*%
X96240600Y-110718600D03*
X99314000Y-108458000D03*
%TO.N,+12V*%
X89281000Y-111937800D03*
X100507800Y-110718600D03*
X97663000Y-112318800D03*
%TD*%
D22*
%TO.N,+5V*%
X97259600Y-91284600D02*
X99517200Y-91284600D01*
X96139000Y-92405200D02*
X97259600Y-91284600D01*
X96139000Y-98958400D02*
X96139000Y-92405200D01*
X84886800Y-106019600D02*
X89052400Y-101854000D01*
X84886800Y-116128800D02*
X84886800Y-106019600D01*
X89052400Y-101854000D02*
X93243400Y-101854000D01*
X82900600Y-118115000D02*
X84886800Y-116128800D01*
X81275000Y-118115000D02*
X82900600Y-118115000D01*
X93243400Y-101854000D02*
X96139000Y-98958400D01*
D23*
%TO.N,/R19*%
X80010000Y-66040000D02*
X81275000Y-64775000D01*
X77393800Y-66827400D02*
X78181200Y-66040000D01*
X78130400Y-81280000D02*
X77393800Y-80543400D01*
X78181200Y-66040000D02*
X80010000Y-66040000D01*
X82270600Y-81280000D02*
X78130400Y-81280000D01*
X84759800Y-80848200D02*
X82702400Y-80848200D01*
X77393800Y-80543400D02*
X77393800Y-66827400D01*
X87757000Y-77851000D02*
X84759800Y-80848200D01*
X82702400Y-80848200D02*
X82270600Y-81280000D01*
D22*
%TO.N,+12V*%
X89281000Y-110642400D02*
X90855800Y-109067600D01*
X89281000Y-111937800D02*
X89281000Y-110642400D01*
X92532200Y-115011200D02*
X94462600Y-115011200D01*
X89458800Y-111937800D02*
X92532200Y-115011200D01*
X89281000Y-111937800D02*
X89458800Y-111937800D01*
D24*
X98907600Y-112318800D02*
X97663000Y-112318800D01*
X100507800Y-110718600D02*
X98907600Y-112318800D01*
%TO.N,+5V*%
X97840800Y-91493400D02*
X99308400Y-91493400D01*
X99308400Y-91493400D02*
X99517200Y-91284600D01*
%TO.N,Net-(C6-Pad1)*%
X89281000Y-116075299D02*
X87020401Y-113814700D01*
X87020401Y-113814700D02*
X87020401Y-112854199D01*
%TO.N,Net-(C7-Pad1)*%
X99314000Y-108458000D02*
X98501200Y-108458000D01*
X98501200Y-108458000D02*
X96240600Y-110718600D01*
D22*
%TO.N,Net-(F1-Pad2)*%
X99517200Y-95732600D02*
X99517200Y-94084600D01*
%TD*%
%TA.AperFunction,Conductor*%
%TO.N,+12V*%
G36*
X95242921Y-114193002D02*
G01*
X95289414Y-114246658D01*
X95300800Y-114299000D01*
X95300800Y-115723400D01*
X95280798Y-115791521D01*
X95227142Y-115838014D01*
X95174800Y-115849400D01*
X91972400Y-115849400D01*
X91904279Y-115829398D01*
X91857786Y-115775742D01*
X91846400Y-115723400D01*
X91846400Y-114299000D01*
X91866402Y-114230879D01*
X91920058Y-114184386D01*
X91972400Y-114173000D01*
X95174800Y-114173000D01*
X95242921Y-114193002D01*
G37*
%TD.AperFunction*%
%TD*%
%TA.AperFunction,Conductor*%
%TO.N,GND*%
G36*
X93743821Y-55392502D02*
G01*
X93790314Y-55446158D01*
X93801700Y-55498500D01*
X93801700Y-70435200D01*
X93781698Y-70503321D01*
X93728042Y-70549814D01*
X93675700Y-70561200D01*
X89281000Y-70561200D01*
X89281000Y-76758800D01*
X93675700Y-76758800D01*
X93743821Y-76778802D01*
X93790314Y-76832458D01*
X93801700Y-76884800D01*
X93801700Y-80988275D01*
X93799246Y-81013019D01*
X93796715Y-81025656D01*
X93801700Y-81050893D01*
X93801700Y-81051067D01*
X93801798Y-81051561D01*
X93801799Y-81051566D01*
X93806606Y-81075734D01*
X93806639Y-81075897D01*
X93813892Y-81112614D01*
X93816335Y-81124984D01*
X93816432Y-81125129D01*
X93816466Y-81125301D01*
X93823380Y-81135648D01*
X93823381Y-81135651D01*
X93844417Y-81167132D01*
X93844509Y-81167271D01*
X93858024Y-81187555D01*
X93858302Y-81187972D01*
X93858423Y-81188093D01*
X93872716Y-81209484D01*
X93883032Y-81216377D01*
X93883436Y-81216647D01*
X93902647Y-81232434D01*
X103340402Y-90695223D01*
X103340713Y-90695535D01*
X103374656Y-90757892D01*
X103377500Y-90784512D01*
X103377500Y-119761500D01*
X103357498Y-119829621D01*
X103303842Y-119876114D01*
X103251500Y-119887500D01*
X77088500Y-119887500D01*
X77020379Y-119867498D01*
X76973886Y-119813842D01*
X76962500Y-119761500D01*
X76962500Y-118085964D01*
X77626148Y-118085964D01*
X77639424Y-118288522D01*
X77640845Y-118294118D01*
X77640846Y-118294123D01*
X77661119Y-118373945D01*
X77689392Y-118485269D01*
X77691809Y-118490512D01*
X77729010Y-118571208D01*
X77774377Y-118669616D01*
X77794271Y-118697766D01*
X77887358Y-118829481D01*
X77891533Y-118835389D01*
X77895675Y-118839424D01*
X77931347Y-118874174D01*
X78036938Y-118977035D01*
X78205720Y-119089812D01*
X78211023Y-119092090D01*
X78211026Y-119092092D01*
X78299707Y-119130192D01*
X78392228Y-119169942D01*
X78465244Y-119186464D01*
X78584579Y-119213467D01*
X78584584Y-119213468D01*
X78590216Y-119214742D01*
X78595987Y-119214969D01*
X78595989Y-119214969D01*
X78655756Y-119217317D01*
X78793053Y-119222712D01*
X78893499Y-119208148D01*
X78988231Y-119194413D01*
X78988236Y-119194412D01*
X78993945Y-119193584D01*
X78999409Y-119191729D01*
X78999414Y-119191728D01*
X79180693Y-119130192D01*
X79180698Y-119130190D01*
X79186165Y-119128334D01*
X79363276Y-119029147D01*
X79425934Y-118977035D01*
X79514913Y-118903031D01*
X79519345Y-118899345D01*
X79602471Y-118799398D01*
X79645453Y-118747718D01*
X79645455Y-118747715D01*
X79649147Y-118743276D01*
X79748334Y-118566165D01*
X79750190Y-118560698D01*
X79750192Y-118560693D01*
X79811728Y-118379414D01*
X79811729Y-118379409D01*
X79813584Y-118373945D01*
X79814412Y-118368236D01*
X79814413Y-118368231D01*
X79842179Y-118176727D01*
X79842712Y-118173053D01*
X79844232Y-118115000D01*
X79841564Y-118085964D01*
X80166148Y-118085964D01*
X80179424Y-118288522D01*
X80180845Y-118294118D01*
X80180846Y-118294123D01*
X80201119Y-118373945D01*
X80229392Y-118485269D01*
X80231809Y-118490512D01*
X80269010Y-118571208D01*
X80314377Y-118669616D01*
X80334271Y-118697766D01*
X80427358Y-118829481D01*
X80431533Y-118835389D01*
X80435675Y-118839424D01*
X80471347Y-118874174D01*
X80576938Y-118977035D01*
X80745720Y-119089812D01*
X80751023Y-119092090D01*
X80751026Y-119092092D01*
X80839707Y-119130192D01*
X80932228Y-119169942D01*
X81005244Y-119186464D01*
X81124579Y-119213467D01*
X81124584Y-119213468D01*
X81130216Y-119214742D01*
X81135987Y-119214969D01*
X81135989Y-119214969D01*
X81195756Y-119217317D01*
X81333053Y-119222712D01*
X81433499Y-119208148D01*
X81528231Y-119194413D01*
X81528236Y-119194412D01*
X81533945Y-119193584D01*
X81539409Y-119191729D01*
X81539414Y-119191728D01*
X81720693Y-119130192D01*
X81720698Y-119130190D01*
X81726165Y-119128334D01*
X81903276Y-119029147D01*
X81965934Y-118977035D01*
X82059345Y-118899345D01*
X82060945Y-118901269D01*
X82113851Y-118872379D01*
X82140634Y-118869500D01*
X82833835Y-118869500D01*
X82852785Y-118870933D01*
X82866855Y-118873074D01*
X82866859Y-118873074D01*
X82874089Y-118874174D01*
X82881380Y-118873581D01*
X82881383Y-118873581D01*
X82926448Y-118869915D01*
X82936663Y-118869500D01*
X82944653Y-118869500D01*
X82951902Y-118868655D01*
X82972713Y-118866229D01*
X82977087Y-118865796D01*
X83042149Y-118860504D01*
X83042152Y-118860503D01*
X83049447Y-118859910D01*
X83056409Y-118857655D01*
X83062277Y-118856482D01*
X83068084Y-118855110D01*
X83075354Y-118854262D01*
X83143660Y-118829468D01*
X83147763Y-118828060D01*
X83216822Y-118805688D01*
X83223079Y-118801891D01*
X83228526Y-118799398D01*
X83233854Y-118796730D01*
X83240734Y-118794232D01*
X83301449Y-118754426D01*
X83305159Y-118752085D01*
X83362438Y-118717327D01*
X83362440Y-118717325D01*
X83367233Y-118714417D01*
X83375574Y-118707051D01*
X83375596Y-118707076D01*
X83378641Y-118704376D01*
X83381746Y-118701780D01*
X83387868Y-118697766D01*
X83440816Y-118641873D01*
X83443193Y-118639432D01*
X85373101Y-116709523D01*
X85387512Y-116697138D01*
X85404871Y-116684363D01*
X85438889Y-116644321D01*
X85445819Y-116636805D01*
X85451462Y-116631162D01*
X85468994Y-116609002D01*
X85471770Y-116605616D01*
X85490299Y-116583807D01*
X85518782Y-116550280D01*
X85522111Y-116543760D01*
X85525431Y-116538782D01*
X85528564Y-116533709D01*
X85533107Y-116527967D01*
X85563853Y-116462183D01*
X85565784Y-116458233D01*
X85595464Y-116400107D01*
X85598793Y-116393588D01*
X85600533Y-116386478D01*
X85602623Y-116380858D01*
X85604503Y-116375207D01*
X85607601Y-116368578D01*
X85622387Y-116297486D01*
X85623356Y-116293205D01*
X85630266Y-116264969D01*
X85640611Y-116222692D01*
X85641300Y-116211586D01*
X85641334Y-116211588D01*
X85641577Y-116207529D01*
X85641937Y-116203495D01*
X85643428Y-116196327D01*
X85641346Y-116119385D01*
X85641300Y-116115977D01*
X85641300Y-112847972D01*
X86510751Y-112847972D01*
X86511915Y-112856874D01*
X86511915Y-112856877D01*
X86514837Y-112879218D01*
X86515901Y-112895556D01*
X86515901Y-113744076D01*
X86514560Y-113756081D01*
X86515056Y-113756121D01*
X86514336Y-113765068D01*
X86512355Y-113773824D01*
X86512911Y-113782784D01*
X86515659Y-113827082D01*
X86515901Y-113834884D01*
X86515901Y-113850926D01*
X86516536Y-113855357D01*
X86516536Y-113855362D01*
X86517366Y-113861153D01*
X86518397Y-113871214D01*
X86521303Y-113918059D01*
X86524350Y-113926499D01*
X86525031Y-113929789D01*
X86528983Y-113945638D01*
X86529928Y-113948868D01*
X86531200Y-113957752D01*
X86534915Y-113965923D01*
X86550619Y-114000463D01*
X86554431Y-114009828D01*
X86567323Y-114045537D01*
X86567325Y-114045540D01*
X86570373Y-114053984D01*
X86575669Y-114061233D01*
X86577241Y-114064190D01*
X86585494Y-114078314D01*
X86587299Y-114081137D01*
X86591013Y-114089305D01*
X86611934Y-114113584D01*
X86621644Y-114124853D01*
X86627926Y-114132764D01*
X86635874Y-114143644D01*
X86646736Y-114154506D01*
X86653094Y-114161352D01*
X86685345Y-114198782D01*
X86692880Y-114203666D01*
X86699452Y-114209399D01*
X86710856Y-114218626D01*
X88904654Y-116412424D01*
X88912010Y-116420443D01*
X88935502Y-116448391D01*
X88935505Y-116448394D01*
X88941276Y-116455259D01*
X88948744Y-116460231D01*
X88948745Y-116460231D01*
X88986770Y-116485543D01*
X88992514Y-116489603D01*
X89036236Y-116522370D01*
X89044643Y-116525521D01*
X89049291Y-116528066D01*
X89054097Y-116530358D01*
X89061574Y-116535336D01*
X89113743Y-116551635D01*
X89120372Y-116553910D01*
X89171552Y-116573097D01*
X89180506Y-116573762D01*
X89185700Y-116574904D01*
X89190939Y-116575753D01*
X89199510Y-116578431D01*
X89208484Y-116578595D01*
X89208487Y-116578596D01*
X89233738Y-116579058D01*
X89254156Y-116579433D01*
X89261174Y-116579758D01*
X89306714Y-116583143D01*
X89306723Y-116583142D01*
X89315667Y-116583807D01*
X89324444Y-116581934D01*
X89329732Y-116581573D01*
X89335017Y-116580915D01*
X89343998Y-116581079D01*
X89352661Y-116578717D01*
X89352663Y-116578717D01*
X89396712Y-116566708D01*
X89403548Y-116565047D01*
X89406700Y-116564374D01*
X89456994Y-116553638D01*
X89464895Y-116549375D01*
X89469887Y-116547538D01*
X89474760Y-116545429D01*
X89483422Y-116543068D01*
X89507855Y-116528066D01*
X89529989Y-116514476D01*
X89536084Y-116510965D01*
X89576271Y-116489281D01*
X89576275Y-116489278D01*
X89584174Y-116485016D01*
X89590558Y-116478709D01*
X89594815Y-116475559D01*
X89598920Y-116472151D01*
X89606572Y-116467453D01*
X89612598Y-116460795D01*
X89612601Y-116460793D01*
X89643241Y-116426943D01*
X89648106Y-116421860D01*
X89680596Y-116389765D01*
X89680598Y-116389763D01*
X89686982Y-116383456D01*
X89691341Y-116375610D01*
X89694552Y-116371379D01*
X89697526Y-116366970D01*
X89703551Y-116360313D01*
X89727374Y-116311142D01*
X89730614Y-116304904D01*
X89752796Y-116264969D01*
X89757153Y-116257125D01*
X89759133Y-116248374D01*
X89761033Y-116243399D01*
X89762650Y-116238331D01*
X89766560Y-116230261D01*
X89775630Y-116176351D01*
X89776986Y-116169477D01*
X89789046Y-116116176D01*
X89788490Y-116107216D01*
X89789179Y-116098653D01*
X89789334Y-116097405D01*
X89789294Y-116097401D01*
X89789729Y-116092547D01*
X89790536Y-116087752D01*
X89790688Y-116075299D01*
X89787291Y-116051577D01*
X89784035Y-116028842D01*
X89783004Y-116018782D01*
X89780654Y-115980900D01*
X89780654Y-115980898D01*
X89780098Y-115971941D01*
X89777051Y-115963500D01*
X89776372Y-115960222D01*
X89772416Y-115944354D01*
X89771473Y-115941130D01*
X89770201Y-115932247D01*
X89766487Y-115924078D01*
X89766485Y-115924072D01*
X89750775Y-115889520D01*
X89746961Y-115880151D01*
X89738853Y-115857691D01*
X89731028Y-115836015D01*
X89725731Y-115828765D01*
X89724154Y-115825798D01*
X89715907Y-115811685D01*
X89714102Y-115808862D01*
X89710388Y-115800694D01*
X89679753Y-115765141D01*
X89673475Y-115757235D01*
X89665527Y-115746355D01*
X89654665Y-115735493D01*
X89648307Y-115728646D01*
X89621915Y-115698017D01*
X89616056Y-115691217D01*
X89608521Y-115686333D01*
X89601949Y-115680600D01*
X89590545Y-115671373D01*
X87561806Y-113642634D01*
X87527780Y-113580322D01*
X87524901Y-113553539D01*
X87524901Y-112907112D01*
X87526647Y-112886207D01*
X87529130Y-112871446D01*
X87529937Y-112866652D01*
X87530089Y-112854199D01*
X87520404Y-112786569D01*
X87517281Y-112764763D01*
X87510875Y-112720034D01*
X87510875Y-112720033D01*
X87509602Y-112711147D01*
X87449789Y-112579594D01*
X87443931Y-112572795D01*
X87443928Y-112572791D01*
X87361317Y-112476917D01*
X87361314Y-112476915D01*
X87355457Y-112470117D01*
X87276504Y-112418942D01*
X87241725Y-112396399D01*
X87241723Y-112396398D01*
X87234191Y-112391516D01*
X87167006Y-112371423D01*
X87104339Y-112352681D01*
X87104337Y-112352681D01*
X87095738Y-112350109D01*
X87086764Y-112350054D01*
X87086762Y-112350054D01*
X87023483Y-112349668D01*
X86951228Y-112349227D01*
X86942597Y-112351694D01*
X86942595Y-112351694D01*
X86820910Y-112386471D01*
X86820906Y-112386473D01*
X86812280Y-112388938D01*
X86804693Y-112393725D01*
X86804691Y-112393726D01*
X86744790Y-112431521D01*
X86690062Y-112466052D01*
X86684119Y-112472781D01*
X86684118Y-112472782D01*
X86629600Y-112534512D01*
X86594400Y-112574369D01*
X86590586Y-112582492D01*
X86590585Y-112582494D01*
X86565204Y-112636555D01*
X86532984Y-112705181D01*
X86531604Y-112714045D01*
X86531603Y-112714048D01*
X86514384Y-112824641D01*
X86510751Y-112847972D01*
X85641300Y-112847972D01*
X85641300Y-111978880D01*
X88522476Y-111978880D01*
X88523716Y-111986095D01*
X88523716Y-111986100D01*
X88533337Y-112042091D01*
X88534309Y-112048836D01*
X88541738Y-112112554D01*
X88544235Y-112119434D01*
X88544236Y-112119437D01*
X88544940Y-112121376D01*
X88550682Y-112143032D01*
X88552271Y-112152277D01*
X88555137Y-112159011D01*
X88555137Y-112159013D01*
X88577383Y-112211295D01*
X88579881Y-112217636D01*
X88601768Y-112277934D01*
X88605781Y-112284056D01*
X88605783Y-112284059D01*
X88606915Y-112285786D01*
X88617480Y-112305531D01*
X88618288Y-112307429D01*
X88621156Y-112314168D01*
X88625493Y-112320062D01*
X88625494Y-112320063D01*
X88659173Y-112365828D01*
X88663061Y-112371423D01*
X88694217Y-112418942D01*
X88694220Y-112418945D01*
X88698234Y-112425068D01*
X88703551Y-112430105D01*
X88703552Y-112430106D01*
X88705045Y-112431521D01*
X88719871Y-112448307D01*
X88725437Y-112455871D01*
X88731015Y-112460610D01*
X88731017Y-112460612D01*
X88774322Y-112497402D01*
X88779395Y-112501954D01*
X88820641Y-112541026D01*
X88820644Y-112541029D01*
X88825960Y-112546064D01*
X88832291Y-112549741D01*
X88834069Y-112550774D01*
X88852367Y-112563705D01*
X88853941Y-112565043D01*
X88853945Y-112565046D01*
X88859520Y-112569782D01*
X88916635Y-112598946D01*
X88922621Y-112602210D01*
X88971762Y-112630754D01*
X88971770Y-112630757D01*
X88978096Y-112634432D01*
X88985097Y-112636553D01*
X88985103Y-112636555D01*
X88987082Y-112637154D01*
X89007853Y-112645525D01*
X89009691Y-112646464D01*
X89009696Y-112646466D01*
X89016212Y-112649793D01*
X89078527Y-112665042D01*
X89085085Y-112666836D01*
X89093076Y-112669256D01*
X89106101Y-112673201D01*
X89158671Y-112704696D01*
X90360677Y-113906701D01*
X91549995Y-115096019D01*
X91584020Y-115158331D01*
X91586900Y-115185114D01*
X91586900Y-115723400D01*
X91587260Y-115726746D01*
X91587260Y-115726751D01*
X91590976Y-115761310D01*
X91592830Y-115778559D01*
X91604216Y-115830901D01*
X91604661Y-115832523D01*
X91604662Y-115832527D01*
X91609480Y-115850088D01*
X91611566Y-115857691D01*
X91615467Y-115864542D01*
X91615468Y-115864544D01*
X91649366Y-115924072D01*
X91661669Y-115945678D01*
X91708162Y-115999334D01*
X91741451Y-116031456D01*
X91831170Y-116078387D01*
X91837106Y-116080130D01*
X91894968Y-116097120D01*
X91894972Y-116097121D01*
X91899291Y-116098389D01*
X91903739Y-116099029D01*
X91903746Y-116099030D01*
X91967952Y-116108261D01*
X91967959Y-116108261D01*
X91972400Y-116108900D01*
X93540937Y-116108900D01*
X93565518Y-116111321D01*
X93587533Y-116115700D01*
X94462458Y-116115700D01*
X95337666Y-116115699D01*
X95375063Y-116108261D01*
X95399726Y-116103356D01*
X95399728Y-116103355D01*
X95411901Y-116100934D01*
X95422221Y-116094039D01*
X95422222Y-116094038D01*
X95485768Y-116051577D01*
X95496084Y-116044684D01*
X95552334Y-115960501D01*
X95567100Y-115886267D01*
X95567099Y-114136134D01*
X95552334Y-114061899D01*
X95496084Y-113977716D01*
X95453328Y-113949147D01*
X95422220Y-113928361D01*
X95411901Y-113921466D01*
X95337667Y-113906700D01*
X94462742Y-113906700D01*
X93587534Y-113906701D01*
X93568061Y-113910574D01*
X93565522Y-113911079D01*
X93540943Y-113913500D01*
X92553714Y-113913500D01*
X92485593Y-113893498D01*
X92464619Y-113876595D01*
X90900597Y-112312573D01*
X97153350Y-112312573D01*
X97157146Y-112341595D01*
X97158207Y-112358691D01*
X97158028Y-112387973D01*
X97160495Y-112396604D01*
X97160495Y-112396606D01*
X97165008Y-112412397D01*
X97168795Y-112430683D01*
X97172088Y-112455865D01*
X97175702Y-112464079D01*
X97175704Y-112464085D01*
X97183874Y-112482652D01*
X97189694Y-112498774D01*
X97195271Y-112518289D01*
X97195274Y-112518296D01*
X97197739Y-112526921D01*
X97202527Y-112534509D01*
X97202528Y-112534512D01*
X97211291Y-112548400D01*
X97220059Y-112564889D01*
X97230289Y-112588139D01*
X97236063Y-112595009D01*
X97236065Y-112595011D01*
X97249128Y-112610552D01*
X97259236Y-112624387D01*
X97274853Y-112649139D01*
X97293888Y-112665950D01*
X97306926Y-112679310D01*
X97317503Y-112691893D01*
X97317506Y-112691895D01*
X97323276Y-112698760D01*
X97347650Y-112714985D01*
X97361225Y-112725420D01*
X97383170Y-112744801D01*
X97406165Y-112755597D01*
X97422431Y-112764763D01*
X97443574Y-112778837D01*
X97462564Y-112784770D01*
X97471516Y-112787567D01*
X97487482Y-112793776D01*
X97513982Y-112806217D01*
X97522845Y-112807597D01*
X97522851Y-112807599D01*
X97539078Y-112810126D01*
X97557258Y-112814357D01*
X97572940Y-112819256D01*
X97572949Y-112819257D01*
X97581510Y-112821932D01*
X97590476Y-112822096D01*
X97590480Y-112822097D01*
X97616294Y-112822570D01*
X97620211Y-112822757D01*
X97623697Y-112823300D01*
X97654992Y-112823300D01*
X97657301Y-112823321D01*
X97725998Y-112824580D01*
X97729779Y-112823549D01*
X97733796Y-112823300D01*
X98836976Y-112823300D01*
X98848981Y-112824641D01*
X98849021Y-112824145D01*
X98857968Y-112824865D01*
X98866724Y-112826846D01*
X98919982Y-112823542D01*
X98927784Y-112823300D01*
X98943826Y-112823300D01*
X98948257Y-112822665D01*
X98948262Y-112822665D01*
X98952287Y-112822088D01*
X98954057Y-112821835D01*
X98964114Y-112820804D01*
X98986576Y-112819411D01*
X99002000Y-112818454D01*
X99002002Y-112818454D01*
X99010959Y-112817898D01*
X99019399Y-112814851D01*
X99022689Y-112814170D01*
X99038538Y-112810218D01*
X99041768Y-112809273D01*
X99050652Y-112808001D01*
X99062962Y-112802404D01*
X99093363Y-112788582D01*
X99102728Y-112784770D01*
X99138437Y-112771878D01*
X99138440Y-112771876D01*
X99146884Y-112768828D01*
X99154133Y-112763532D01*
X99157090Y-112761960D01*
X99171214Y-112753707D01*
X99174037Y-112751902D01*
X99182205Y-112748188D01*
X99189002Y-112742331D01*
X99189004Y-112742330D01*
X99208622Y-112725425D01*
X99217758Y-112717553D01*
X99225664Y-112711275D01*
X99236544Y-112703327D01*
X99247406Y-112692465D01*
X99254253Y-112686107D01*
X99270452Y-112672149D01*
X99291682Y-112653856D01*
X99296566Y-112646321D01*
X99302299Y-112639749D01*
X99311526Y-112628345D01*
X100813916Y-111125954D01*
X100822527Y-111118104D01*
X100825724Y-111115450D01*
X100833372Y-111110754D01*
X100871902Y-111068187D01*
X100876222Y-111063648D01*
X100890151Y-111049719D01*
X100894031Y-111044542D01*
X100901442Y-111035552D01*
X100924326Y-111010270D01*
X100930351Y-111003614D01*
X100934265Y-110995535D01*
X100934267Y-110995532D01*
X100935383Y-110993228D01*
X100947949Y-110972599D01*
X100954871Y-110963364D01*
X100961319Y-110946165D01*
X100969990Y-110923034D01*
X100974580Y-110912325D01*
X100989446Y-110881641D01*
X100989447Y-110881639D01*
X100993360Y-110873562D01*
X100995274Y-110862185D01*
X101001546Y-110838858D01*
X101002448Y-110836452D01*
X101005599Y-110828048D01*
X101008791Y-110785091D01*
X101010191Y-110773523D01*
X101016530Y-110735847D01*
X101016531Y-110735840D01*
X101017336Y-110731053D01*
X101017488Y-110718600D01*
X101016799Y-110713787D01*
X101016482Y-110708927D01*
X101016753Y-110708909D01*
X101016512Y-110701823D01*
X101016254Y-110701841D01*
X101015643Y-110692880D01*
X101016308Y-110683933D01*
X101013019Y-110668522D01*
X101005702Y-110634248D01*
X101004199Y-110625807D01*
X100998274Y-110584436D01*
X100998274Y-110584435D01*
X100997001Y-110575548D01*
X100993287Y-110567378D01*
X100990919Y-110559280D01*
X100988013Y-110551381D01*
X100986139Y-110542606D01*
X100962015Y-110497896D01*
X100958210Y-110490231D01*
X100937188Y-110443995D01*
X100931328Y-110437194D01*
X100926783Y-110430087D01*
X100921779Y-110423325D01*
X100917517Y-110415426D01*
X100881822Y-110379292D01*
X100876018Y-110373004D01*
X100842856Y-110334518D01*
X100835325Y-110329636D01*
X100828963Y-110324087D01*
X100822263Y-110319001D01*
X100815957Y-110312618D01*
X100771549Y-110287952D01*
X100764200Y-110283536D01*
X100729120Y-110260798D01*
X100721590Y-110255917D01*
X100712988Y-110253344D01*
X100705326Y-110249804D01*
X100697473Y-110246805D01*
X100689626Y-110242447D01*
X100640086Y-110231237D01*
X100631794Y-110229061D01*
X100591739Y-110217082D01*
X100591735Y-110217081D01*
X100583137Y-110214510D01*
X100574164Y-110214455D01*
X100565837Y-110213211D01*
X100557434Y-110212535D01*
X100548677Y-110210553D01*
X100497983Y-110213698D01*
X100489420Y-110213938D01*
X100438627Y-110213628D01*
X100429995Y-110216095D01*
X100421661Y-110217237D01*
X100413408Y-110218946D01*
X100404442Y-110219502D01*
X100356665Y-110236750D01*
X100348510Y-110239383D01*
X100308309Y-110250872D01*
X100308306Y-110250873D01*
X100299679Y-110253339D01*
X100292088Y-110258128D01*
X100284414Y-110261561D01*
X100276965Y-110265522D01*
X100268516Y-110268572D01*
X100261266Y-110273869D01*
X100261265Y-110273869D01*
X100227504Y-110298533D01*
X100220413Y-110303352D01*
X100194274Y-110319845D01*
X100177461Y-110330453D01*
X100142129Y-110370459D01*
X100136783Y-110376146D01*
X98735534Y-111777395D01*
X98673222Y-111811421D01*
X98646439Y-111814300D01*
X97671602Y-111814300D01*
X97670833Y-111814298D01*
X97593827Y-111813828D01*
X97585197Y-111816294D01*
X97585193Y-111816295D01*
X97565680Y-111821872D01*
X97548919Y-111825450D01*
X97519948Y-111829599D01*
X97511771Y-111833317D01*
X97496835Y-111840108D01*
X97479306Y-111846558D01*
X97463507Y-111851073D01*
X97463506Y-111851074D01*
X97454879Y-111853539D01*
X97431796Y-111868104D01*
X97430123Y-111869159D01*
X97415040Y-111877297D01*
X97403313Y-111882630D01*
X97388395Y-111889412D01*
X97381591Y-111895275D01*
X97381589Y-111895276D01*
X97369153Y-111905991D01*
X97354142Y-111917099D01*
X97340255Y-111925861D01*
X97340253Y-111925863D01*
X97332661Y-111930653D01*
X97313286Y-111952592D01*
X97301093Y-111964637D01*
X97278918Y-111983744D01*
X97274035Y-111991278D01*
X97265104Y-112005056D01*
X97253816Y-112019928D01*
X97236999Y-112038970D01*
X97233184Y-112047096D01*
X97224559Y-112065465D01*
X97216238Y-112080444D01*
X97205200Y-112097474D01*
X97205196Y-112097482D01*
X97200317Y-112105010D01*
X97193038Y-112129349D01*
X97186379Y-112146787D01*
X97175583Y-112169782D01*
X97174203Y-112178648D01*
X97174202Y-112178650D01*
X97171081Y-112198697D01*
X97167298Y-112215415D01*
X97158910Y-112243463D01*
X97158855Y-112252436D01*
X97158855Y-112252438D01*
X97158755Y-112268864D01*
X97157257Y-112287480D01*
X97154731Y-112303700D01*
X97154731Y-112303704D01*
X97153350Y-112312573D01*
X90900597Y-112312573D01*
X90072405Y-111484381D01*
X90038379Y-111422069D01*
X90035500Y-111395286D01*
X90035500Y-111007115D01*
X90055502Y-110938994D01*
X90072405Y-110918020D01*
X90278052Y-110712373D01*
X95730950Y-110712373D01*
X95732114Y-110721274D01*
X95732073Y-110724657D01*
X95732528Y-110740945D01*
X95732758Y-110744320D01*
X95732093Y-110753267D01*
X95733966Y-110762040D01*
X95733966Y-110762044D01*
X95741892Y-110799173D01*
X95743604Y-110809139D01*
X95747490Y-110838858D01*
X95749688Y-110855665D01*
X95753303Y-110863880D01*
X95754207Y-110867119D01*
X95759226Y-110882658D01*
X95760386Y-110885812D01*
X95762261Y-110894594D01*
X95784549Y-110935902D01*
X95788986Y-110944978D01*
X95807889Y-110987939D01*
X95813665Y-110994810D01*
X95815438Y-110997659D01*
X95824637Y-111011194D01*
X95826622Y-111013876D01*
X95830883Y-111021774D01*
X95837187Y-111028155D01*
X95837191Y-111028161D01*
X95863869Y-111055166D01*
X95870666Y-111062621D01*
X95900876Y-111098560D01*
X95908352Y-111103536D01*
X95910851Y-111105771D01*
X95923454Y-111116160D01*
X95926132Y-111118193D01*
X95932444Y-111124582D01*
X95972804Y-111147000D01*
X95973466Y-111147368D01*
X95982099Y-111152628D01*
X96013695Y-111173660D01*
X96013702Y-111173664D01*
X96021174Y-111178637D01*
X96029749Y-111181316D01*
X96032785Y-111182764D01*
X96047791Y-111189196D01*
X96050925Y-111190393D01*
X96058775Y-111194753D01*
X96067530Y-111196734D01*
X96104539Y-111205108D01*
X96114306Y-111207734D01*
X96126613Y-111211579D01*
X96159110Y-111221732D01*
X96168087Y-111221897D01*
X96171399Y-111222433D01*
X96187617Y-111224396D01*
X96190972Y-111224666D01*
X96199724Y-111226646D01*
X96225276Y-111225061D01*
X96246554Y-111223741D01*
X96256663Y-111223520D01*
X96294621Y-111224216D01*
X96294625Y-111224216D01*
X96303598Y-111224380D01*
X96312260Y-111222019D01*
X96315587Y-111221604D01*
X96331704Y-111218936D01*
X96334998Y-111218254D01*
X96343959Y-111217698D01*
X96388102Y-111201762D01*
X96397729Y-111198718D01*
X96434360Y-111188731D01*
X96434364Y-111188729D01*
X96443022Y-111186369D01*
X96450668Y-111181674D01*
X96453735Y-111180347D01*
X96468456Y-111173262D01*
X96471435Y-111171678D01*
X96479884Y-111168628D01*
X96517791Y-111140936D01*
X96526174Y-111135313D01*
X96536555Y-111128939D01*
X96566172Y-111110754D01*
X96604693Y-111068197D01*
X96609013Y-111063658D01*
X98673266Y-108999405D01*
X98735578Y-108965379D01*
X98762361Y-108962500D01*
X99305992Y-108962500D01*
X99308301Y-108962521D01*
X99376998Y-108963780D01*
X99408971Y-108955063D01*
X99424252Y-108951898D01*
X99457052Y-108947201D01*
X99465223Y-108943486D01*
X99465226Y-108943485D01*
X99476637Y-108938296D01*
X99495649Y-108931432D01*
X99501592Y-108929812D01*
X99516422Y-108925769D01*
X99544666Y-108908427D01*
X99558442Y-108901103D01*
X99580428Y-108891107D01*
X99580435Y-108891103D01*
X99588605Y-108887388D01*
X99604911Y-108873338D01*
X99621228Y-108861418D01*
X99631921Y-108854852D01*
X99631922Y-108854851D01*
X99639572Y-108850154D01*
X99661817Y-108825578D01*
X99672977Y-108814688D01*
X99691280Y-108798917D01*
X99698082Y-108793056D01*
X99702966Y-108785522D01*
X99702968Y-108785519D01*
X99709786Y-108775000D01*
X99722103Y-108758977D01*
X99730524Y-108749673D01*
X99730525Y-108749672D01*
X99736551Y-108743014D01*
X99740467Y-108734932D01*
X99751002Y-108713188D01*
X99758662Y-108699594D01*
X99771797Y-108679329D01*
X99771799Y-108679326D01*
X99776683Y-108671790D01*
X99782853Y-108651161D01*
X99790176Y-108632331D01*
X99795645Y-108621043D01*
X99795645Y-108621042D01*
X99799560Y-108612962D01*
X99805057Y-108580286D01*
X99808594Y-108565087D01*
X99818090Y-108533337D01*
X99818221Y-108511813D01*
X99819966Y-108491675D01*
X99822729Y-108475255D01*
X99822730Y-108475243D01*
X99823536Y-108470453D01*
X99823688Y-108458000D01*
X99820088Y-108432860D01*
X99818817Y-108414232D01*
X99818917Y-108397802D01*
X99818972Y-108388827D01*
X99816506Y-108380197D01*
X99816505Y-108380193D01*
X99810928Y-108360680D01*
X99807350Y-108343919D01*
X99804474Y-108323840D01*
X99803201Y-108314948D01*
X99792692Y-108291835D01*
X99786242Y-108274306D01*
X99781727Y-108258507D01*
X99781726Y-108258506D01*
X99779261Y-108249879D01*
X99763641Y-108225123D01*
X99755503Y-108210040D01*
X99747543Y-108192534D01*
X99743388Y-108183395D01*
X99737524Y-108176589D01*
X99726809Y-108164153D01*
X99715701Y-108149142D01*
X99706939Y-108135255D01*
X99706937Y-108135253D01*
X99702147Y-108127661D01*
X99680204Y-108108282D01*
X99668163Y-108096093D01*
X99649056Y-108073918D01*
X99627744Y-108060104D01*
X99612872Y-108048816D01*
X99600558Y-108037941D01*
X99593830Y-108031999D01*
X99579487Y-108025265D01*
X99567335Y-108019559D01*
X99552356Y-108011238D01*
X99535326Y-108000200D01*
X99535318Y-108000196D01*
X99527790Y-107995317D01*
X99503449Y-107988037D01*
X99486013Y-107981379D01*
X99463018Y-107970583D01*
X99454152Y-107969203D01*
X99454150Y-107969202D01*
X99434103Y-107966081D01*
X99417385Y-107962298D01*
X99397938Y-107956482D01*
X99397936Y-107956482D01*
X99389337Y-107953910D01*
X99380365Y-107953855D01*
X99380363Y-107953855D01*
X99370086Y-107953793D01*
X99355154Y-107953702D01*
X99354392Y-107953670D01*
X99353303Y-107953500D01*
X99322602Y-107953500D01*
X99321833Y-107953498D01*
X99244827Y-107953028D01*
X99243492Y-107953410D01*
X99242164Y-107953500D01*
X98571824Y-107953500D01*
X98559819Y-107952159D01*
X98559779Y-107952655D01*
X98550832Y-107951935D01*
X98542076Y-107949954D01*
X98488818Y-107953258D01*
X98481016Y-107953500D01*
X98464974Y-107953500D01*
X98460543Y-107954135D01*
X98460538Y-107954135D01*
X98456513Y-107954712D01*
X98454743Y-107954965D01*
X98444686Y-107955996D01*
X98422224Y-107957389D01*
X98406800Y-107958346D01*
X98406798Y-107958346D01*
X98397841Y-107958902D01*
X98389401Y-107961949D01*
X98386111Y-107962630D01*
X98370262Y-107966582D01*
X98367032Y-107967527D01*
X98358148Y-107968799D01*
X98321732Y-107985356D01*
X98315422Y-107988225D01*
X98306060Y-107992036D01*
X98270358Y-108004925D01*
X98270357Y-108004926D01*
X98261916Y-108007973D01*
X98254667Y-108013269D01*
X98251686Y-108014854D01*
X98237608Y-108023080D01*
X98234769Y-108024896D01*
X98226595Y-108028612D01*
X98203148Y-108048816D01*
X98191048Y-108059242D01*
X98183130Y-108065530D01*
X98172256Y-108073473D01*
X98161394Y-108084335D01*
X98154548Y-108090693D01*
X98117118Y-108122944D01*
X98112234Y-108130479D01*
X98106501Y-108137051D01*
X98097274Y-108148455D01*
X95933806Y-110311923D01*
X95924366Y-110319465D01*
X95924689Y-110319845D01*
X95917854Y-110325662D01*
X95910261Y-110330453D01*
X95904319Y-110337181D01*
X95874929Y-110370459D01*
X95869583Y-110376146D01*
X95858249Y-110387480D01*
X95855564Y-110391063D01*
X95855562Y-110391065D01*
X95852047Y-110395755D01*
X95845662Y-110403598D01*
X95840194Y-110409789D01*
X95822268Y-110430087D01*
X95814599Y-110438770D01*
X95810786Y-110446892D01*
X95808946Y-110449693D01*
X95800537Y-110463688D01*
X95798915Y-110466651D01*
X95793530Y-110473836D01*
X95790377Y-110482246D01*
X95790376Y-110482248D01*
X95777054Y-110517782D01*
X95773130Y-110527095D01*
X95753183Y-110569582D01*
X95751801Y-110578456D01*
X95750815Y-110581683D01*
X95746675Y-110597466D01*
X95745954Y-110600744D01*
X95742802Y-110609152D01*
X95742137Y-110618102D01*
X95739325Y-110655949D01*
X95738171Y-110665999D01*
X95732593Y-110701823D01*
X95730950Y-110712373D01*
X90278052Y-110712373D01*
X90781420Y-110209005D01*
X90843732Y-110174979D01*
X90870515Y-110172100D01*
X91634124Y-110172099D01*
X91730866Y-110172099D01*
X91766618Y-110164988D01*
X91792926Y-110159756D01*
X91792928Y-110159755D01*
X91805101Y-110157334D01*
X91815421Y-110150439D01*
X91815422Y-110150438D01*
X91878968Y-110107977D01*
X91889284Y-110101084D01*
X91945534Y-110016901D01*
X91960300Y-109942667D01*
X91960299Y-108192534D01*
X91951532Y-108148455D01*
X91947956Y-108130474D01*
X91947955Y-108130472D01*
X91945534Y-108118299D01*
X91917889Y-108076925D01*
X91896177Y-108044432D01*
X91889284Y-108034116D01*
X91805101Y-107977866D01*
X91730867Y-107963100D01*
X90855942Y-107963100D01*
X89980734Y-107963101D01*
X89952086Y-107968799D01*
X89918674Y-107975444D01*
X89918672Y-107975445D01*
X89906499Y-107977866D01*
X89896179Y-107984761D01*
X89896178Y-107984762D01*
X89851143Y-108014854D01*
X89822316Y-108034116D01*
X89766066Y-108118299D01*
X89751300Y-108192533D01*
X89751301Y-108641456D01*
X89751301Y-109052885D01*
X89731299Y-109121006D01*
X89714396Y-109141980D01*
X88794700Y-110061676D01*
X88780287Y-110074063D01*
X88762929Y-110086837D01*
X88758186Y-110092420D01*
X88728911Y-110126879D01*
X88721981Y-110134395D01*
X88716338Y-110140038D01*
X88698806Y-110162198D01*
X88696039Y-110165573D01*
X88649018Y-110220920D01*
X88645689Y-110227440D01*
X88642369Y-110232418D01*
X88639236Y-110237491D01*
X88634693Y-110243233D01*
X88631593Y-110249866D01*
X88603947Y-110309017D01*
X88602016Y-110312967D01*
X88569007Y-110377612D01*
X88567267Y-110384722D01*
X88565177Y-110390342D01*
X88563297Y-110395993D01*
X88560199Y-110402622D01*
X88558709Y-110409786D01*
X88558708Y-110409789D01*
X88551594Y-110443995D01*
X88547025Y-110465964D01*
X88545415Y-110473703D01*
X88544449Y-110477973D01*
X88527189Y-110548508D01*
X88526500Y-110559614D01*
X88526466Y-110559612D01*
X88526223Y-110563671D01*
X88525863Y-110567705D01*
X88524372Y-110574873D01*
X88524570Y-110582190D01*
X88526454Y-110651815D01*
X88526500Y-110655223D01*
X88526500Y-111910116D01*
X88526258Y-111917918D01*
X88522476Y-111978880D01*
X85641300Y-111978880D01*
X85641300Y-106384315D01*
X85661302Y-106316194D01*
X85678205Y-106295220D01*
X88014860Y-103958564D01*
X89746948Y-103958564D01*
X89760224Y-104161122D01*
X89761645Y-104166718D01*
X89761646Y-104166723D01*
X89781919Y-104246545D01*
X89810192Y-104357869D01*
X89812609Y-104363112D01*
X89849810Y-104443808D01*
X89895177Y-104542216D01*
X90012333Y-104707989D01*
X90157738Y-104849635D01*
X90326520Y-104962412D01*
X90331823Y-104964690D01*
X90331826Y-104964692D01*
X90507721Y-105040262D01*
X90513028Y-105042542D01*
X90586044Y-105059064D01*
X90705379Y-105086067D01*
X90705384Y-105086068D01*
X90711016Y-105087342D01*
X90716787Y-105087569D01*
X90716789Y-105087569D01*
X90776556Y-105089917D01*
X90913853Y-105095312D01*
X91014299Y-105080748D01*
X91109031Y-105067013D01*
X91109036Y-105067012D01*
X91114745Y-105066184D01*
X91120209Y-105064329D01*
X91120214Y-105064328D01*
X91301493Y-105002792D01*
X91301498Y-105002790D01*
X91306965Y-105000934D01*
X91325570Y-104990515D01*
X91381483Y-104959202D01*
X91484076Y-104901747D01*
X91546734Y-104849635D01*
X91635713Y-104775631D01*
X91640145Y-104771945D01*
X91769947Y-104615876D01*
X91869134Y-104438765D01*
X91870990Y-104433298D01*
X91870992Y-104433293D01*
X91932528Y-104252014D01*
X91932529Y-104252009D01*
X91934384Y-104246545D01*
X91935212Y-104240836D01*
X91935213Y-104240831D01*
X91962979Y-104049327D01*
X91963512Y-104045653D01*
X91965032Y-103987600D01*
X91946458Y-103785459D01*
X91944890Y-103779899D01*
X91892925Y-103595646D01*
X91892924Y-103595644D01*
X91891357Y-103590087D01*
X91880778Y-103568633D01*
X91804131Y-103413209D01*
X91801576Y-103408028D01*
X91680120Y-103245379D01*
X91531058Y-103107587D01*
X91526175Y-103104506D01*
X91526171Y-103104503D01*
X91364264Y-103002348D01*
X91359381Y-102999267D01*
X91170839Y-102924046D01*
X91165179Y-102922920D01*
X91165175Y-102922919D01*
X90977413Y-102885571D01*
X90977410Y-102885571D01*
X90971746Y-102884444D01*
X90965971Y-102884368D01*
X90965967Y-102884368D01*
X90864593Y-102883041D01*
X90768771Y-102881787D01*
X90763074Y-102882766D01*
X90763073Y-102882766D01*
X90574407Y-102915185D01*
X90568710Y-102916164D01*
X90378263Y-102986424D01*
X90203810Y-103090212D01*
X90199470Y-103094018D01*
X90199466Y-103094021D01*
X90179523Y-103111511D01*
X90051192Y-103224055D01*
X89925520Y-103383469D01*
X89922831Y-103388580D01*
X89922829Y-103388583D01*
X89909873Y-103413209D01*
X89831003Y-103563115D01*
X89770807Y-103756978D01*
X89746948Y-103958564D01*
X88014860Y-103958564D01*
X89328019Y-102645405D01*
X89390331Y-102611379D01*
X89417114Y-102608500D01*
X93176635Y-102608500D01*
X93195585Y-102609933D01*
X93209655Y-102612074D01*
X93209659Y-102612074D01*
X93216889Y-102613174D01*
X93224180Y-102612581D01*
X93224183Y-102612581D01*
X93269248Y-102608915D01*
X93279463Y-102608500D01*
X93287453Y-102608500D01*
X93294702Y-102607655D01*
X93315513Y-102605229D01*
X93319887Y-102604796D01*
X93384949Y-102599504D01*
X93384952Y-102599503D01*
X93392247Y-102598910D01*
X93399209Y-102596655D01*
X93405077Y-102595482D01*
X93410884Y-102594110D01*
X93418154Y-102593262D01*
X93486460Y-102568468D01*
X93490563Y-102567060D01*
X93559622Y-102544688D01*
X93565879Y-102540891D01*
X93571326Y-102538398D01*
X93576654Y-102535730D01*
X93583534Y-102533232D01*
X93644249Y-102493426D01*
X93647959Y-102491085D01*
X93705238Y-102456327D01*
X93705240Y-102456325D01*
X93710033Y-102453417D01*
X93718374Y-102446051D01*
X93718396Y-102446076D01*
X93721441Y-102443376D01*
X93724546Y-102440780D01*
X93730668Y-102436766D01*
X93783616Y-102380873D01*
X93785993Y-102378432D01*
X96625304Y-99539121D01*
X96633591Y-99531999D01*
X98758000Y-99531999D01*
X98774518Y-99700462D01*
X98827948Y-99861079D01*
X98915635Y-100005867D01*
X98920526Y-100010932D01*
X98920527Y-100010933D01*
X98944262Y-100035511D01*
X99033221Y-100127631D01*
X99174860Y-100220317D01*
X99333515Y-100279320D01*
X99340496Y-100280251D01*
X99340498Y-100280252D01*
X99494318Y-100300776D01*
X99494322Y-100300776D01*
X99501299Y-100301707D01*
X99508310Y-100301069D01*
X99508314Y-100301069D01*
X99662852Y-100287005D01*
X99669873Y-100286366D01*
X99830859Y-100234058D01*
X99976256Y-100147384D01*
X100098838Y-100030652D01*
X100102739Y-100024781D01*
X100188610Y-99895535D01*
X100188611Y-99895533D01*
X100192511Y-99889663D01*
X100252620Y-99731424D01*
X100263361Y-99654995D01*
X100275627Y-99567723D01*
X100275627Y-99567718D01*
X100276178Y-99563800D01*
X100276474Y-99542600D01*
X100257606Y-99374384D01*
X100201938Y-99214529D01*
X100112238Y-99070979D01*
X100038001Y-98996221D01*
X100004194Y-98933791D01*
X100009506Y-98862994D01*
X100040515Y-98816192D01*
X100093735Y-98765511D01*
X100098838Y-98760652D01*
X100102739Y-98754781D01*
X100188610Y-98625535D01*
X100188611Y-98625533D01*
X100192511Y-98619663D01*
X100252620Y-98461424D01*
X100276178Y-98293800D01*
X100276474Y-98272600D01*
X100257606Y-98104384D01*
X100201938Y-97944529D01*
X100112238Y-97800979D01*
X99992964Y-97680869D01*
X99850044Y-97590169D01*
X99822642Y-97580412D01*
X99697216Y-97535749D01*
X99697211Y-97535748D01*
X99690581Y-97533387D01*
X99683595Y-97532554D01*
X99683591Y-97532553D01*
X99564487Y-97518351D01*
X99522501Y-97513345D01*
X99515498Y-97514081D01*
X99515497Y-97514081D01*
X99361165Y-97530301D01*
X99361161Y-97530302D01*
X99354157Y-97531038D01*
X99347486Y-97533309D01*
X99200587Y-97583317D01*
X99200584Y-97583318D01*
X99193917Y-97585588D01*
X99187919Y-97589278D01*
X99187917Y-97589279D01*
X99055743Y-97670593D01*
X99055741Y-97670595D01*
X99049744Y-97674284D01*
X98928805Y-97792717D01*
X98837109Y-97935000D01*
X98834698Y-97941625D01*
X98781625Y-98087440D01*
X98781624Y-98087445D01*
X98779215Y-98094063D01*
X98758000Y-98261999D01*
X98774518Y-98430462D01*
X98827948Y-98591079D01*
X98831597Y-98597104D01*
X98907620Y-98722632D01*
X98915635Y-98735867D01*
X98920526Y-98740932D01*
X98920527Y-98740933D01*
X98944262Y-98765511D01*
X98985616Y-98808334D01*
X98997342Y-98820477D01*
X99030274Y-98883374D01*
X99023974Y-98954090D01*
X98994863Y-98998027D01*
X98973844Y-99018611D01*
X98928805Y-99062717D01*
X98924994Y-99068631D01*
X98924992Y-99068633D01*
X98871454Y-99151707D01*
X98837109Y-99205000D01*
X98827339Y-99231844D01*
X98781625Y-99357440D01*
X98781624Y-99357445D01*
X98779215Y-99364063D01*
X98758000Y-99531999D01*
X96633591Y-99531999D01*
X96639706Y-99526743D01*
X96657071Y-99513963D01*
X96691089Y-99473921D01*
X96698019Y-99466405D01*
X96703662Y-99460762D01*
X96721194Y-99438602D01*
X96723970Y-99435216D01*
X96766243Y-99385458D01*
X96770982Y-99379880D01*
X96774311Y-99373360D01*
X96777631Y-99368382D01*
X96780764Y-99363309D01*
X96785307Y-99357567D01*
X96816053Y-99291783D01*
X96817984Y-99287833D01*
X96847664Y-99229707D01*
X96850993Y-99223188D01*
X96852733Y-99216078D01*
X96854823Y-99210458D01*
X96856703Y-99204807D01*
X96859801Y-99198178D01*
X96874587Y-99127086D01*
X96875556Y-99122805D01*
X96889462Y-99065980D01*
X96892811Y-99052292D01*
X96893500Y-99041186D01*
X96893534Y-99041188D01*
X96893777Y-99037130D01*
X96894137Y-99033094D01*
X96895628Y-99025927D01*
X96893546Y-98948968D01*
X96893500Y-98945561D01*
X96893500Y-94507356D01*
X98387700Y-94507356D01*
X98394402Y-94569048D01*
X98445129Y-94704364D01*
X98450509Y-94711543D01*
X98450511Y-94711546D01*
X98501205Y-94779187D01*
X98531796Y-94820004D01*
X98538976Y-94825385D01*
X98640254Y-94901289D01*
X98640257Y-94901291D01*
X98647436Y-94906671D01*
X98680930Y-94919227D01*
X98737694Y-94961869D01*
X98762394Y-95028430D01*
X98762700Y-95037209D01*
X98762700Y-95776653D01*
X98762701Y-95776658D01*
X98762701Y-96257666D01*
X98777466Y-96331901D01*
X98784361Y-96342220D01*
X98784362Y-96342222D01*
X98824716Y-96402615D01*
X98833716Y-96416084D01*
X98917899Y-96472334D01*
X98992133Y-96487100D01*
X99489510Y-96487100D01*
X99497311Y-96487342D01*
X99550969Y-96490671D01*
X99550973Y-96490671D01*
X99558280Y-96491124D01*
X99571111Y-96488919D01*
X99592451Y-96487099D01*
X100042266Y-96487099D01*
X100078018Y-96479988D01*
X100104326Y-96474756D01*
X100104328Y-96474755D01*
X100116501Y-96472334D01*
X100126821Y-96465439D01*
X100126822Y-96465438D01*
X100190368Y-96422977D01*
X100200684Y-96416084D01*
X100256934Y-96331901D01*
X100271700Y-96257667D01*
X100271700Y-95037209D01*
X100291702Y-94969088D01*
X100345358Y-94922595D01*
X100353470Y-94919227D01*
X100386964Y-94906671D01*
X100394143Y-94901291D01*
X100394146Y-94901289D01*
X100495424Y-94825385D01*
X100502604Y-94820004D01*
X100533195Y-94779187D01*
X100583889Y-94711546D01*
X100583891Y-94711543D01*
X100589271Y-94704364D01*
X100639998Y-94569048D01*
X100646700Y-94507356D01*
X100646700Y-93661844D01*
X100639998Y-93600152D01*
X100589271Y-93464836D01*
X100583891Y-93457657D01*
X100583889Y-93457654D01*
X100507985Y-93356376D01*
X100502604Y-93349196D01*
X100482177Y-93333887D01*
X100394146Y-93267911D01*
X100394143Y-93267909D01*
X100386964Y-93262529D01*
X100297246Y-93228896D01*
X100259043Y-93214574D01*
X100259041Y-93214574D01*
X100251648Y-93211802D01*
X100243798Y-93210949D01*
X100243797Y-93210949D01*
X100193353Y-93205469D01*
X100193352Y-93205469D01*
X100189956Y-93205100D01*
X98844444Y-93205100D01*
X98841048Y-93205469D01*
X98841047Y-93205469D01*
X98790603Y-93210949D01*
X98790602Y-93210949D01*
X98782752Y-93211802D01*
X98775359Y-93214574D01*
X98775357Y-93214574D01*
X98737154Y-93228896D01*
X98647436Y-93262529D01*
X98640257Y-93267909D01*
X98640254Y-93267911D01*
X98552223Y-93333887D01*
X98531796Y-93349196D01*
X98526415Y-93356376D01*
X98450511Y-93457654D01*
X98450509Y-93457657D01*
X98445129Y-93464836D01*
X98394402Y-93600152D01*
X98387700Y-93661844D01*
X98387700Y-94507356D01*
X96893500Y-94507356D01*
X96893500Y-92769916D01*
X96913502Y-92701795D01*
X96930404Y-92680821D01*
X97535219Y-92076005D01*
X97597532Y-92041980D01*
X97624315Y-92039100D01*
X98515301Y-92039100D01*
X98583422Y-92059102D01*
X98590866Y-92064274D01*
X98640254Y-92101289D01*
X98640257Y-92101291D01*
X98647436Y-92106671D01*
X98720052Y-92133893D01*
X98775357Y-92154626D01*
X98775359Y-92154626D01*
X98782752Y-92157398D01*
X98790602Y-92158251D01*
X98790603Y-92158251D01*
X98841047Y-92163731D01*
X98844444Y-92164100D01*
X100189956Y-92164100D01*
X100193353Y-92163731D01*
X100243797Y-92158251D01*
X100243798Y-92158251D01*
X100251648Y-92157398D01*
X100259041Y-92154626D01*
X100259043Y-92154626D01*
X100314348Y-92133893D01*
X100386964Y-92106671D01*
X100394143Y-92101291D01*
X100394146Y-92101289D01*
X100495424Y-92025385D01*
X100502604Y-92020004D01*
X100537997Y-91972779D01*
X100583889Y-91911546D01*
X100583891Y-91911543D01*
X100589271Y-91904364D01*
X100639998Y-91769048D01*
X100646700Y-91707356D01*
X100646700Y-90861844D01*
X100639998Y-90800152D01*
X100589271Y-90664836D01*
X100583891Y-90657657D01*
X100583889Y-90657654D01*
X100507985Y-90556376D01*
X100502604Y-90549196D01*
X100470888Y-90525426D01*
X100394146Y-90467911D01*
X100394143Y-90467909D01*
X100386964Y-90462529D01*
X100297246Y-90428896D01*
X100259043Y-90414574D01*
X100259041Y-90414574D01*
X100251648Y-90411802D01*
X100243798Y-90410949D01*
X100243797Y-90410949D01*
X100193353Y-90405469D01*
X100193352Y-90405469D01*
X100189956Y-90405100D01*
X98844444Y-90405100D01*
X98841048Y-90405469D01*
X98841047Y-90405469D01*
X98790603Y-90410949D01*
X98790602Y-90410949D01*
X98782752Y-90411802D01*
X98775359Y-90414574D01*
X98775357Y-90414574D01*
X98737154Y-90428896D01*
X98647436Y-90462529D01*
X98640257Y-90467909D01*
X98640254Y-90467911D01*
X98590866Y-90504926D01*
X98524360Y-90529774D01*
X98515301Y-90530100D01*
X97326365Y-90530100D01*
X97307415Y-90528667D01*
X97293345Y-90526526D01*
X97293341Y-90526526D01*
X97286111Y-90525426D01*
X97278820Y-90526019D01*
X97278817Y-90526019D01*
X97233752Y-90529685D01*
X97223537Y-90530100D01*
X97215547Y-90530100D01*
X97208298Y-90530945D01*
X97187487Y-90533371D01*
X97183113Y-90533804D01*
X97118051Y-90539096D01*
X97118048Y-90539097D01*
X97110753Y-90539690D01*
X97103791Y-90541945D01*
X97097923Y-90543118D01*
X97092117Y-90544490D01*
X97084846Y-90545338D01*
X97016568Y-90570122D01*
X97012446Y-90571536D01*
X96992633Y-90577955D01*
X96950345Y-90591654D01*
X96950342Y-90591655D01*
X96943379Y-90593911D01*
X96937120Y-90597709D01*
X96931673Y-90600203D01*
X96926346Y-90602871D01*
X96919466Y-90605368D01*
X96876847Y-90633310D01*
X96858752Y-90645174D01*
X96855032Y-90647521D01*
X96797770Y-90682268D01*
X96797766Y-90682271D01*
X96792967Y-90685183D01*
X96784627Y-90692549D01*
X96784604Y-90692523D01*
X96781561Y-90695223D01*
X96778457Y-90697818D01*
X96772332Y-90701834D01*
X96767298Y-90707148D01*
X96719367Y-90757745D01*
X96716989Y-90760187D01*
X95652700Y-91824476D01*
X95638287Y-91836863D01*
X95620929Y-91849637D01*
X95616186Y-91855220D01*
X95586911Y-91889679D01*
X95579981Y-91897195D01*
X95574338Y-91902838D01*
X95556806Y-91924998D01*
X95554039Y-91928373D01*
X95507018Y-91983720D01*
X95503689Y-91990240D01*
X95500369Y-91995218D01*
X95497236Y-92000291D01*
X95492693Y-92006033D01*
X95489593Y-92012666D01*
X95461947Y-92071817D01*
X95460016Y-92075767D01*
X95448594Y-92098137D01*
X95427007Y-92140412D01*
X95425267Y-92147522D01*
X95423177Y-92153142D01*
X95421297Y-92158793D01*
X95418199Y-92165422D01*
X95416709Y-92172586D01*
X95416708Y-92172589D01*
X95403415Y-92236503D01*
X95402449Y-92240773D01*
X95385189Y-92311308D01*
X95384842Y-92316905D01*
X95384841Y-92316910D01*
X95384500Y-92322412D01*
X95384500Y-92322414D01*
X95384466Y-92322412D01*
X95384223Y-92326471D01*
X95383863Y-92330505D01*
X95382372Y-92337673D01*
X95382570Y-92344990D01*
X95384454Y-92414615D01*
X95384500Y-92418023D01*
X95384500Y-98593686D01*
X95364498Y-98661807D01*
X95347595Y-98682781D01*
X92967781Y-101062595D01*
X92905469Y-101096621D01*
X92878686Y-101099500D01*
X92646345Y-101099500D01*
X92578224Y-101079498D01*
X92531731Y-101025842D01*
X92521627Y-100955568D01*
X92551121Y-100890988D01*
X92610847Y-100852604D01*
X92621766Y-100849921D01*
X92681926Y-100837956D01*
X92681928Y-100837955D01*
X92694101Y-100835534D01*
X92704421Y-100828639D01*
X92704422Y-100828638D01*
X92767968Y-100786177D01*
X92778284Y-100779284D01*
X92834534Y-100695101D01*
X92849300Y-100620867D01*
X92849299Y-98870734D01*
X92834534Y-98796499D01*
X92810582Y-98760652D01*
X92785177Y-98722632D01*
X92778284Y-98712316D01*
X92694101Y-98656066D01*
X92619867Y-98641300D01*
X91744942Y-98641300D01*
X90869734Y-98641301D01*
X90833982Y-98648412D01*
X90807674Y-98653644D01*
X90807672Y-98653645D01*
X90795499Y-98656066D01*
X90785179Y-98662961D01*
X90785178Y-98662962D01*
X90724785Y-98703316D01*
X90711316Y-98712316D01*
X90704423Y-98722632D01*
X90679019Y-98760652D01*
X90655066Y-98796499D01*
X90640300Y-98870733D01*
X90640301Y-100620866D01*
X90655066Y-100695101D01*
X90711316Y-100779284D01*
X90795499Y-100835534D01*
X90867828Y-100849921D01*
X90930738Y-100882828D01*
X90965870Y-100944523D01*
X90962070Y-101015418D01*
X90920545Y-101073004D01*
X90854478Y-101098998D01*
X90843247Y-101099500D01*
X89119165Y-101099500D01*
X89100215Y-101098067D01*
X89086145Y-101095926D01*
X89086141Y-101095926D01*
X89078911Y-101094826D01*
X89071620Y-101095419D01*
X89071617Y-101095419D01*
X89026552Y-101099085D01*
X89016337Y-101099500D01*
X89008347Y-101099500D01*
X89001098Y-101100345D01*
X88980287Y-101102771D01*
X88975913Y-101103204D01*
X88910851Y-101108496D01*
X88910848Y-101108497D01*
X88903553Y-101109090D01*
X88896591Y-101111345D01*
X88890723Y-101112518D01*
X88884916Y-101113890D01*
X88877646Y-101114738D01*
X88809340Y-101139532D01*
X88805237Y-101140940D01*
X88736178Y-101163312D01*
X88729921Y-101167109D01*
X88724474Y-101169602D01*
X88719146Y-101172270D01*
X88712266Y-101174768D01*
X88706144Y-101178782D01*
X88651561Y-101214568D01*
X88647841Y-101216915D01*
X88590562Y-101251673D01*
X88590560Y-101251675D01*
X88585767Y-101254583D01*
X88577426Y-101261949D01*
X88577404Y-101261924D01*
X88574359Y-101264624D01*
X88571254Y-101267220D01*
X88565132Y-101271234D01*
X88560099Y-101276547D01*
X88512185Y-101327126D01*
X88509807Y-101329568D01*
X84400500Y-105438876D01*
X84386087Y-105451263D01*
X84368729Y-105464037D01*
X84363986Y-105469620D01*
X84334711Y-105504079D01*
X84327781Y-105511595D01*
X84322138Y-105517238D01*
X84304606Y-105539398D01*
X84301839Y-105542773D01*
X84254818Y-105598120D01*
X84251489Y-105604640D01*
X84248169Y-105609618D01*
X84245036Y-105614691D01*
X84240493Y-105620433D01*
X84237393Y-105627066D01*
X84209747Y-105686217D01*
X84207816Y-105690167D01*
X84174807Y-105754812D01*
X84173067Y-105761922D01*
X84170977Y-105767542D01*
X84169097Y-105773193D01*
X84165999Y-105779822D01*
X84164509Y-105786986D01*
X84164508Y-105786989D01*
X84151215Y-105850903D01*
X84150249Y-105855173D01*
X84132989Y-105925708D01*
X84132300Y-105936814D01*
X84132266Y-105936812D01*
X84132023Y-105940871D01*
X84131663Y-105944905D01*
X84130172Y-105952073D01*
X84130370Y-105959390D01*
X84132254Y-106029015D01*
X84132300Y-106032423D01*
X84132300Y-115764085D01*
X84112298Y-115832206D01*
X84095395Y-115853180D01*
X82624981Y-117323595D01*
X82562669Y-117357620D01*
X82535886Y-117360500D01*
X82135353Y-117360500D01*
X82067232Y-117340498D01*
X82049824Y-117327025D01*
X81954498Y-117238906D01*
X81954495Y-117238904D01*
X81950258Y-117234987D01*
X81778581Y-117126667D01*
X81590039Y-117051446D01*
X81584379Y-117050320D01*
X81584375Y-117050319D01*
X81396613Y-117012971D01*
X81396610Y-117012971D01*
X81390946Y-117011844D01*
X81385171Y-117011768D01*
X81385167Y-117011768D01*
X81283793Y-117010441D01*
X81187971Y-117009187D01*
X81182274Y-117010166D01*
X81182273Y-117010166D01*
X80993607Y-117042585D01*
X80987910Y-117043564D01*
X80797463Y-117113824D01*
X80623010Y-117217612D01*
X80618670Y-117221418D01*
X80618666Y-117221421D01*
X80598723Y-117238911D01*
X80470392Y-117351455D01*
X80344720Y-117510869D01*
X80342031Y-117515980D01*
X80342029Y-117515983D01*
X80329073Y-117540609D01*
X80250203Y-117690515D01*
X80190007Y-117884378D01*
X80166148Y-118085964D01*
X79841564Y-118085964D01*
X79825658Y-117912859D01*
X79824090Y-117907299D01*
X79772125Y-117723046D01*
X79772124Y-117723044D01*
X79770557Y-117717487D01*
X79759978Y-117696033D01*
X79683331Y-117540609D01*
X79680776Y-117535428D01*
X79559320Y-117372779D01*
X79410258Y-117234987D01*
X79405375Y-117231906D01*
X79405371Y-117231903D01*
X79243464Y-117129748D01*
X79238581Y-117126667D01*
X79050039Y-117051446D01*
X79044379Y-117050320D01*
X79044375Y-117050319D01*
X78856613Y-117012971D01*
X78856610Y-117012971D01*
X78850946Y-117011844D01*
X78845171Y-117011768D01*
X78845167Y-117011768D01*
X78743793Y-117010441D01*
X78647971Y-117009187D01*
X78642274Y-117010166D01*
X78642273Y-117010166D01*
X78453607Y-117042585D01*
X78447910Y-117043564D01*
X78257463Y-117113824D01*
X78083010Y-117217612D01*
X78078670Y-117221418D01*
X78078666Y-117221421D01*
X78058723Y-117238911D01*
X77930392Y-117351455D01*
X77804720Y-117510869D01*
X77802031Y-117515980D01*
X77802029Y-117515983D01*
X77789073Y-117540609D01*
X77710203Y-117690515D01*
X77650007Y-117884378D01*
X77626148Y-118085964D01*
X76962500Y-118085964D01*
X76962500Y-114830891D01*
X76982502Y-114762770D01*
X77036158Y-114716277D01*
X77088000Y-114704892D01*
X79175891Y-114696607D01*
X83090686Y-114681072D01*
X83108800Y-114681000D01*
X83108800Y-95855964D01*
X88090948Y-95855964D01*
X88104224Y-96058522D01*
X88105645Y-96064118D01*
X88105646Y-96064123D01*
X88147727Y-96229812D01*
X88154192Y-96255269D01*
X88156609Y-96260512D01*
X88193810Y-96341208D01*
X88239177Y-96439616D01*
X88356333Y-96605389D01*
X88501738Y-96747035D01*
X88670520Y-96859812D01*
X88675823Y-96862090D01*
X88675826Y-96862092D01*
X88851721Y-96937662D01*
X88857028Y-96939942D01*
X88930044Y-96956464D01*
X89049379Y-96983467D01*
X89049384Y-96983468D01*
X89055016Y-96984742D01*
X89060787Y-96984969D01*
X89060789Y-96984969D01*
X89120556Y-96987317D01*
X89257853Y-96992712D01*
X89358299Y-96978148D01*
X89453031Y-96964413D01*
X89453036Y-96964412D01*
X89458745Y-96963584D01*
X89464209Y-96961729D01*
X89464214Y-96961728D01*
X89645493Y-96900192D01*
X89645498Y-96900190D01*
X89650965Y-96898334D01*
X89828076Y-96799147D01*
X89834477Y-96793824D01*
X89979713Y-96673031D01*
X89984145Y-96669345D01*
X90113947Y-96513276D01*
X90198267Y-96362712D01*
X90210310Y-96341208D01*
X90210311Y-96341206D01*
X90213134Y-96336165D01*
X90214990Y-96330698D01*
X90214992Y-96330693D01*
X90276528Y-96149414D01*
X90276529Y-96149409D01*
X90278384Y-96143945D01*
X90279212Y-96138236D01*
X90279213Y-96138231D01*
X90306979Y-95946727D01*
X90307512Y-95943053D01*
X90309032Y-95885000D01*
X90306364Y-95855964D01*
X90630948Y-95855964D01*
X90644224Y-96058522D01*
X90645645Y-96064118D01*
X90645646Y-96064123D01*
X90687727Y-96229812D01*
X90694192Y-96255269D01*
X90696609Y-96260512D01*
X90733810Y-96341208D01*
X90779177Y-96439616D01*
X90896333Y-96605389D01*
X91041738Y-96747035D01*
X91210520Y-96859812D01*
X91215823Y-96862090D01*
X91215826Y-96862092D01*
X91391721Y-96937662D01*
X91397028Y-96939942D01*
X91470044Y-96956464D01*
X91589379Y-96983467D01*
X91589384Y-96983468D01*
X91595016Y-96984742D01*
X91600787Y-96984969D01*
X91600789Y-96984969D01*
X91660556Y-96987317D01*
X91797853Y-96992712D01*
X91898299Y-96978148D01*
X91993031Y-96964413D01*
X91993036Y-96964412D01*
X91998745Y-96963584D01*
X92004209Y-96961729D01*
X92004214Y-96961728D01*
X92185493Y-96900192D01*
X92185498Y-96900190D01*
X92190965Y-96898334D01*
X92368076Y-96799147D01*
X92374477Y-96793824D01*
X92519713Y-96673031D01*
X92524145Y-96669345D01*
X92653947Y-96513276D01*
X92738267Y-96362712D01*
X92750310Y-96341208D01*
X92750311Y-96341206D01*
X92753134Y-96336165D01*
X92754990Y-96330698D01*
X92754992Y-96330693D01*
X92816528Y-96149414D01*
X92816529Y-96149409D01*
X92818384Y-96143945D01*
X92819212Y-96138236D01*
X92819213Y-96138231D01*
X92846979Y-95946727D01*
X92847512Y-95943053D01*
X92849032Y-95885000D01*
X92830458Y-95682859D01*
X92828890Y-95677299D01*
X92776925Y-95493046D01*
X92776924Y-95493044D01*
X92775357Y-95487487D01*
X92764778Y-95466033D01*
X92688131Y-95310609D01*
X92685576Y-95305428D01*
X92564120Y-95142779D01*
X92415058Y-95004987D01*
X92410175Y-95001906D01*
X92410171Y-95001903D01*
X92248264Y-94899748D01*
X92243381Y-94896667D01*
X92054839Y-94821446D01*
X92049179Y-94820320D01*
X92049175Y-94820319D01*
X91861413Y-94782971D01*
X91861410Y-94782971D01*
X91855746Y-94781844D01*
X91849971Y-94781768D01*
X91849967Y-94781768D01*
X91748593Y-94780441D01*
X91652771Y-94779187D01*
X91647074Y-94780166D01*
X91647073Y-94780166D01*
X91458407Y-94812585D01*
X91452710Y-94813564D01*
X91262263Y-94883824D01*
X91087810Y-94987612D01*
X91083470Y-94991418D01*
X91083466Y-94991421D01*
X91013410Y-95052859D01*
X90935192Y-95121455D01*
X90809520Y-95280869D01*
X90806831Y-95285980D01*
X90806829Y-95285983D01*
X90793873Y-95310609D01*
X90715003Y-95460515D01*
X90654807Y-95654378D01*
X90630948Y-95855964D01*
X90306364Y-95855964D01*
X90290458Y-95682859D01*
X90288890Y-95677299D01*
X90236925Y-95493046D01*
X90236924Y-95493044D01*
X90235357Y-95487487D01*
X90224778Y-95466033D01*
X90148131Y-95310609D01*
X90145576Y-95305428D01*
X90024120Y-95142779D01*
X89875058Y-95004987D01*
X89870175Y-95001906D01*
X89870171Y-95001903D01*
X89708264Y-94899748D01*
X89703381Y-94896667D01*
X89514839Y-94821446D01*
X89509179Y-94820320D01*
X89509175Y-94820319D01*
X89321413Y-94782971D01*
X89321410Y-94782971D01*
X89315746Y-94781844D01*
X89309971Y-94781768D01*
X89309967Y-94781768D01*
X89208593Y-94780441D01*
X89112771Y-94779187D01*
X89107074Y-94780166D01*
X89107073Y-94780166D01*
X88918407Y-94812585D01*
X88912710Y-94813564D01*
X88722263Y-94883824D01*
X88547810Y-94987612D01*
X88543470Y-94991418D01*
X88543466Y-94991421D01*
X88473410Y-95052859D01*
X88395192Y-95121455D01*
X88269520Y-95280869D01*
X88266831Y-95285980D01*
X88266829Y-95285983D01*
X88253873Y-95310609D01*
X88175003Y-95460515D01*
X88114807Y-95654378D01*
X88090948Y-95855964D01*
X83108800Y-95855964D01*
X83108800Y-92481400D01*
X87376000Y-92481400D01*
X93014800Y-92481400D01*
X93573600Y-91922600D01*
X93573600Y-81356200D01*
X87376000Y-81356200D01*
X87376000Y-92481400D01*
X83108800Y-92481400D01*
X83108800Y-81353700D01*
X83128802Y-81285579D01*
X83182458Y-81239086D01*
X83234800Y-81227700D01*
X84705880Y-81227700D01*
X84729828Y-81230249D01*
X84731493Y-81230328D01*
X84741676Y-81232520D01*
X84752017Y-81231296D01*
X84775023Y-81228573D01*
X84780954Y-81228223D01*
X84780946Y-81228128D01*
X84786124Y-81227700D01*
X84791324Y-81227700D01*
X84796453Y-81226846D01*
X84796456Y-81226846D01*
X84810365Y-81224531D01*
X84816243Y-81223694D01*
X84856801Y-81218894D01*
X84856802Y-81218894D01*
X84867141Y-81217670D01*
X84875393Y-81213707D01*
X84884426Y-81212204D01*
X84893595Y-81207257D01*
X84893597Y-81207256D01*
X84929532Y-81187866D01*
X84934825Y-81185169D01*
X84973882Y-81166415D01*
X84973886Y-81166412D01*
X84981032Y-81162981D01*
X84985308Y-81159386D01*
X84987231Y-81157463D01*
X84989163Y-81155691D01*
X84989242Y-81155648D01*
X84989355Y-81155772D01*
X84989895Y-81155296D01*
X84995614Y-81152210D01*
X85032217Y-81112613D01*
X85035646Y-81109048D01*
X87754222Y-78390472D01*
X87816055Y-78356708D01*
X87819998Y-78356780D01*
X87889710Y-78337774D01*
X87950763Y-78321130D01*
X87950765Y-78321129D01*
X87959422Y-78318769D01*
X88082572Y-78243154D01*
X88179551Y-78136014D01*
X88242560Y-78005962D01*
X88266536Y-77863453D01*
X88266688Y-77851000D01*
X88246201Y-77707948D01*
X88186388Y-77576395D01*
X88180530Y-77569596D01*
X88180527Y-77569592D01*
X88097916Y-77473718D01*
X88097913Y-77473716D01*
X88092056Y-77466918D01*
X87970790Y-77388317D01*
X87953921Y-77383272D01*
X87840938Y-77349482D01*
X87840936Y-77349482D01*
X87832337Y-77346910D01*
X87823363Y-77346855D01*
X87823361Y-77346855D01*
X87760082Y-77346469D01*
X87687827Y-77346028D01*
X87679196Y-77348495D01*
X87679194Y-77348495D01*
X87557509Y-77383272D01*
X87557505Y-77383274D01*
X87548879Y-77385739D01*
X87426661Y-77462853D01*
X87330999Y-77571170D01*
X87269583Y-77701982D01*
X87264606Y-77733945D01*
X87257515Y-77779487D01*
X87227270Y-77843719D01*
X87222110Y-77849196D01*
X84639511Y-80431795D01*
X84577199Y-80465821D01*
X84550416Y-80468700D01*
X83234800Y-80468700D01*
X83166679Y-80448698D01*
X83120186Y-80395042D01*
X83108800Y-80342700D01*
X83108800Y-60553600D01*
X82266265Y-60553600D01*
X82198144Y-60533598D01*
X82151651Y-60479942D01*
X82141547Y-60409668D01*
X82169391Y-60347031D01*
X82185449Y-60327724D01*
X82185456Y-60327714D01*
X82189147Y-60323276D01*
X82288334Y-60146165D01*
X82290190Y-60140698D01*
X82290192Y-60140693D01*
X82351728Y-59959414D01*
X82351729Y-59959409D01*
X82353584Y-59953945D01*
X82354412Y-59948236D01*
X82354413Y-59948231D01*
X82382179Y-59756727D01*
X82382712Y-59753053D01*
X82384232Y-59695000D01*
X82365658Y-59492859D01*
X82364090Y-59487299D01*
X82312125Y-59303046D01*
X82312124Y-59303044D01*
X82310557Y-59297487D01*
X82299978Y-59276033D01*
X82223331Y-59120609D01*
X82220776Y-59115428D01*
X82099320Y-58952779D01*
X81950258Y-58814987D01*
X81945375Y-58811906D01*
X81945371Y-58811903D01*
X81783464Y-58709748D01*
X81778581Y-58706667D01*
X81590039Y-58631446D01*
X81584379Y-58630320D01*
X81584375Y-58630319D01*
X81396613Y-58592971D01*
X81396610Y-58592971D01*
X81390946Y-58591844D01*
X81385171Y-58591768D01*
X81385167Y-58591768D01*
X81283793Y-58590441D01*
X81187971Y-58589187D01*
X81182274Y-58590166D01*
X81182273Y-58590166D01*
X80993607Y-58622585D01*
X80987910Y-58623564D01*
X80797463Y-58693824D01*
X80623010Y-58797612D01*
X80618670Y-58801418D01*
X80618666Y-58801421D01*
X80598723Y-58818911D01*
X80470392Y-58931455D01*
X80344720Y-59090869D01*
X80342031Y-59095980D01*
X80342029Y-59095983D01*
X80329073Y-59120609D01*
X80250203Y-59270515D01*
X80190007Y-59464378D01*
X80166148Y-59665964D01*
X80179424Y-59868522D01*
X80180845Y-59874118D01*
X80180846Y-59874123D01*
X80201119Y-59953945D01*
X80229392Y-60065269D01*
X80231809Y-60070512D01*
X80269010Y-60151208D01*
X80314377Y-60249616D01*
X80366435Y-60323276D01*
X80388770Y-60354880D01*
X80411751Y-60422054D01*
X80394767Y-60490989D01*
X80343209Y-60539799D01*
X80285873Y-60553600D01*
X79726265Y-60553600D01*
X79658144Y-60533598D01*
X79611651Y-60479942D01*
X79601547Y-60409668D01*
X79629391Y-60347031D01*
X79645449Y-60327724D01*
X79645456Y-60327714D01*
X79649147Y-60323276D01*
X79748334Y-60146165D01*
X79750190Y-60140698D01*
X79750192Y-60140693D01*
X79811728Y-59959414D01*
X79811729Y-59959409D01*
X79813584Y-59953945D01*
X79814412Y-59948236D01*
X79814413Y-59948231D01*
X79842179Y-59756727D01*
X79842712Y-59753053D01*
X79844232Y-59695000D01*
X79825658Y-59492859D01*
X79824090Y-59487299D01*
X79772125Y-59303046D01*
X79772124Y-59303044D01*
X79770557Y-59297487D01*
X79759978Y-59276033D01*
X79683331Y-59120609D01*
X79680776Y-59115428D01*
X79559320Y-58952779D01*
X79410258Y-58814987D01*
X79405375Y-58811906D01*
X79405371Y-58811903D01*
X79243464Y-58709748D01*
X79238581Y-58706667D01*
X79050039Y-58631446D01*
X79044379Y-58630320D01*
X79044375Y-58630319D01*
X78856613Y-58592971D01*
X78856610Y-58592971D01*
X78850946Y-58591844D01*
X78845171Y-58591768D01*
X78845167Y-58591768D01*
X78743793Y-58590441D01*
X78647971Y-58589187D01*
X78642274Y-58590166D01*
X78642273Y-58590166D01*
X78453607Y-58622585D01*
X78447910Y-58623564D01*
X78257463Y-58693824D01*
X78083010Y-58797612D01*
X78078670Y-58801418D01*
X78078666Y-58801421D01*
X78058723Y-58818911D01*
X77930392Y-58931455D01*
X77804720Y-59090869D01*
X77802031Y-59095980D01*
X77802029Y-59095983D01*
X77789073Y-59120609D01*
X77710203Y-59270515D01*
X77650007Y-59464378D01*
X77626148Y-59665964D01*
X77639424Y-59868522D01*
X77640845Y-59874118D01*
X77640846Y-59874123D01*
X77661119Y-59953945D01*
X77689392Y-60065269D01*
X77691809Y-60070512D01*
X77729010Y-60151208D01*
X77774377Y-60249616D01*
X77826435Y-60323276D01*
X77848770Y-60354880D01*
X77871751Y-60422054D01*
X77854767Y-60490989D01*
X77803209Y-60539799D01*
X77745873Y-60553600D01*
X77088500Y-60553600D01*
X77020379Y-60533598D01*
X76973886Y-60479942D01*
X76962500Y-60427600D01*
X76962500Y-55498500D01*
X76982502Y-55430379D01*
X77036158Y-55383886D01*
X77088500Y-55372500D01*
X93675700Y-55372500D01*
X93743821Y-55392502D01*
G37*
%TD.AperFunction*%
%TD*%
M02*
