%TF.GenerationSoftware,KiCad,Pcbnew,(6.0.4)*%
%TF.CreationDate,2023-05-23T13:29:09+09:00*%
%TF.ProjectId,BajieHeader,42616a69-6548-4656-9164-65722e6b6963,rev?*%
%TF.SameCoordinates,Original*%
%TF.FileFunction,Legend,Top*%
%TF.FilePolarity,Positive*%
%FSLAX46Y46*%
G04 Gerber Fmt 4.6, Leading zero omitted, Abs format (unit mm)*
G04 Created by KiCad (PCBNEW (6.0.4)) date 2023-05-23 13:29:09*
%MOMM*%
%LPD*%
G01*
G04 APERTURE LIST*
%ADD10C,0.120000*%
G04 APERTURE END LIST*
D10*
%TO.C,J1*%
X77405000Y-55825000D02*
X78735000Y-55825000D01*
X80005000Y-58425000D02*
X80005000Y-55825000D01*
X77405000Y-119445000D02*
X82605000Y-119445000D01*
X77405000Y-58425000D02*
X77405000Y-119445000D01*
X82605000Y-55825000D02*
X82605000Y-119445000D01*
X77405000Y-58425000D02*
X80005000Y-58425000D01*
X80005000Y-55825000D02*
X82605000Y-55825000D01*
X77405000Y-57155000D02*
X77405000Y-55825000D01*
%TO.C,R3*%
X94054960Y-104725200D02*
X94362242Y-104725200D01*
X94054960Y-105485200D02*
X94362242Y-105485200D01*
%TO.C,C6*%
X87380401Y-112479435D02*
X87380401Y-112263763D01*
X86660401Y-112479435D02*
X86660401Y-112263763D01*
%TO.C,U2*%
X98806000Y-112278600D02*
X99606000Y-112278600D01*
X98806000Y-109158600D02*
X99606000Y-109158600D01*
X98806000Y-109158600D02*
X97006000Y-109158600D01*
X98806000Y-112278600D02*
X98006000Y-112278600D01*
%TO.C,U1*%
X87721000Y-113514600D02*
X87721000Y-112714600D01*
X87721000Y-113514600D02*
X87721000Y-115314600D01*
X90841000Y-113514600D02*
X90841000Y-114314600D01*
X90841000Y-113514600D02*
X90841000Y-112714600D01*
%TO.C,C7*%
X99841164Y-108818000D02*
X100056836Y-108818000D01*
X99841164Y-108098000D02*
X100056836Y-108098000D01*
%TO.C,J7*%
X92185800Y-102657600D02*
X89525800Y-102657600D01*
X89525800Y-107797600D02*
X89525800Y-102657600D01*
X92185800Y-107797600D02*
X89525800Y-107797600D01*
X92185800Y-109067600D02*
X92185800Y-110397600D01*
X92185800Y-107797600D02*
X92185800Y-102657600D01*
X92185800Y-110397600D02*
X90855800Y-110397600D01*
%TO.C,C4*%
X91285600Y-113727620D02*
X91285600Y-114008780D01*
X92305600Y-113727620D02*
X92305600Y-114008780D01*
%TO.C,J6*%
X99824730Y-100237600D02*
X100627200Y-100237600D01*
X98407200Y-94972600D02*
X99517200Y-94972600D01*
X98407200Y-96492600D02*
X98407200Y-100237600D01*
X100627200Y-96492600D02*
X100627200Y-100237600D01*
X98407200Y-96492600D02*
X98953729Y-96492600D01*
X98407200Y-100237600D02*
X99209670Y-100237600D01*
X100080671Y-96492600D02*
X100627200Y-96492600D01*
X98407200Y-95732600D02*
X98407200Y-94972600D01*
%TO.C,R4*%
X95936800Y-105484959D02*
X95936800Y-105792241D01*
X96696800Y-105484959D02*
X96696800Y-105792241D01*
%TO.C,J3*%
X93069800Y-81855000D02*
X93069800Y-97215000D01*
X87869800Y-97215000D02*
X93069800Y-97215000D01*
X87869800Y-84455000D02*
X87869800Y-97215000D01*
X87869800Y-83185000D02*
X87869800Y-81855000D01*
X90469800Y-84455000D02*
X90469800Y-81855000D01*
X87869800Y-81855000D02*
X89199800Y-81855000D01*
X87869800Y-84455000D02*
X90469800Y-84455000D01*
X90469800Y-81855000D02*
X93069800Y-81855000D01*
%TO.C,C11*%
X84453001Y-117895219D02*
X84453001Y-118176379D01*
X85473001Y-117895219D02*
X85473001Y-118176379D01*
%TO.C,R2*%
X84936359Y-116381800D02*
X85243641Y-116381800D01*
X84936359Y-115621800D02*
X85243641Y-115621800D01*
%TO.C,C8*%
X99716000Y-89363436D02*
X99716000Y-89147764D01*
X100436000Y-89363436D02*
X100436000Y-89147764D01*
%TO.C,C14*%
X84232636Y-59050600D02*
X84016964Y-59050600D01*
X84232636Y-59770600D02*
X84016964Y-59770600D01*
%TO.C,J5*%
X90474800Y-98415800D02*
X87874800Y-98415800D01*
X93074800Y-98415800D02*
X93074800Y-99745800D01*
X87874800Y-98415800D02*
X87874800Y-101075800D01*
X91744800Y-98415800D02*
X93074800Y-98415800D01*
X90474800Y-98415800D02*
X90474800Y-101075800D01*
X90474800Y-101075800D02*
X87874800Y-101075800D01*
%TO.C,C5*%
X98768780Y-112748600D02*
X98487620Y-112748600D01*
X98768780Y-113768600D02*
X98487620Y-113768600D01*
%TO.C,L1*%
X87381000Y-119731000D02*
X87381000Y-115731000D01*
X87381000Y-115731000D02*
X90381000Y-115731000D01*
X91181000Y-119731000D02*
X87381000Y-119731000D01*
X91181000Y-116531000D02*
X91181000Y-119731000D01*
X90381000Y-115731000D02*
X91181000Y-116531000D01*
%TO.C,C12*%
X94425381Y-105890599D02*
X94144221Y-105890599D01*
X94425381Y-106910599D02*
X94144221Y-106910599D01*
%TO.C,C10*%
X94425381Y-108460000D02*
X94144221Y-108460000D01*
X94425381Y-107440000D02*
X94144221Y-107440000D01*
%TO.C,R1*%
X83287600Y-118265640D02*
X83287600Y-117958358D01*
X84047600Y-118265640D02*
X84047600Y-117958358D01*
%TO.C,C9*%
X86002400Y-117895219D02*
X86002400Y-118176379D01*
X87022400Y-117895219D02*
X87022400Y-118176379D01*
%TO.C,J4*%
X93132600Y-116281200D02*
X95792600Y-116281200D01*
X93132600Y-118881200D02*
X95792600Y-118881200D01*
X93132600Y-115011200D02*
X93132600Y-113681200D01*
X95792600Y-116281200D02*
X95792600Y-118881200D01*
X93132600Y-116281200D02*
X93132600Y-118881200D01*
X93132600Y-113681200D02*
X94462600Y-113681200D01*
%TO.C,L2*%
X95789600Y-112618600D02*
X92589600Y-112618600D01*
X96589600Y-111818600D02*
X95789600Y-112618600D01*
X92589600Y-112618600D02*
X92589600Y-108818600D01*
X92589600Y-108818600D02*
X96589600Y-108818600D01*
X96589600Y-108818600D02*
X96589600Y-111818600D01*
%TO.C,U3*%
X99384800Y-90754200D02*
X99384800Y-92704200D01*
X99384800Y-90754200D02*
X99384800Y-87304200D01*
X94264800Y-90754200D02*
X94264800Y-92704200D01*
X94264800Y-90754200D02*
X94264800Y-88804200D01*
%TO.C,J2*%
X89639000Y-77410000D02*
X89239000Y-77210000D01*
X91829000Y-66835000D02*
X92429000Y-66835000D01*
X89239000Y-77610000D02*
X89639000Y-77410000D01*
X91829000Y-80485000D02*
X92429000Y-80485000D01*
X91829000Y-80375000D02*
X91829000Y-80485000D01*
X91829000Y-66945000D02*
X91829000Y-66835000D01*
X89239000Y-77210000D02*
X89239000Y-77610000D01*
%TD*%
M02*
