%TF.GenerationSoftware,KiCad,Pcbnew,(6.0.4)*%
%TF.CreationDate,2023-05-23T13:29:09+09:00*%
%TF.ProjectId,BajieHeader,42616a69-6548-4656-9164-65722e6b6963,rev?*%
%TF.SameCoordinates,Original*%
%TF.FileFunction,Soldermask,Top*%
%TF.FilePolarity,Negative*%
%FSLAX46Y46*%
G04 Gerber Fmt 4.6, Leading zero omitted, Abs format (unit mm)*
G04 Created by KiCad (PCBNEW (6.0.4)) date 2023-05-23 13:29:09*
%MOMM*%
%LPD*%
G01*
G04 APERTURE LIST*
G04 Aperture macros list*
%AMRoundRect*
0 Rectangle with rounded corners*
0 $1 Rounding radius*
0 $2 $3 $4 $5 $6 $7 $8 $9 X,Y pos of 4 corners*
0 Add a 4 corners polygon primitive as box body*
4,1,4,$2,$3,$4,$5,$6,$7,$8,$9,$2,$3,0*
0 Add four circle primitives for the rounded corners*
1,1,$1+$1,$2,$3*
1,1,$1+$1,$4,$5*
1,1,$1+$1,$6,$7*
1,1,$1+$1,$8,$9*
0 Add four rect primitives between the rounded corners*
20,1,$1+$1,$2,$3,$4,$5,0*
20,1,$1+$1,$4,$5,$6,$7,0*
20,1,$1+$1,$6,$7,$8,$9,0*
20,1,$1+$1,$8,$9,$2,$3,0*%
G04 Aperture macros list end*
%ADD10R,1.700000X1.700000*%
%ADD11O,1.700000X1.700000*%
%ADD12RoundRect,0.135000X-0.135000X-0.185000X0.135000X-0.185000X0.135000X0.185000X-0.135000X0.185000X0*%
%ADD13RoundRect,0.140000X0.170000X-0.140000X0.170000X0.140000X-0.170000X0.140000X-0.170000X-0.140000X0*%
%ADD14RoundRect,0.150000X-0.512500X-0.150000X0.512500X-0.150000X0.512500X0.150000X-0.512500X0.150000X0*%
%ADD15RoundRect,0.150000X0.150000X-0.512500X0.150000X0.512500X-0.150000X0.512500X-0.150000X-0.512500X0*%
%ADD16RoundRect,0.140000X-0.140000X-0.170000X0.140000X-0.170000X0.140000X0.170000X-0.140000X0.170000X0*%
%ADD17RoundRect,0.225000X-0.250000X0.225000X-0.250000X-0.225000X0.250000X-0.225000X0.250000X0.225000X0*%
%ADD18R,1.000000X1.000000*%
%ADD19O,1.000000X1.000000*%
%ADD20C,3.500000*%
%ADD21C,2.600000*%
%ADD22RoundRect,0.135000X-0.185000X0.135000X-0.185000X-0.135000X0.185000X-0.135000X0.185000X0.135000X0*%
%ADD23RoundRect,0.140000X0.140000X0.170000X-0.140000X0.170000X-0.140000X-0.170000X0.140000X-0.170000X0*%
%ADD24RoundRect,0.225000X0.225000X0.250000X-0.225000X0.250000X-0.225000X-0.250000X0.225000X-0.250000X0*%
%ADD25R,2.800000X1.175000*%
%ADD26RoundRect,0.135000X0.185000X-0.135000X0.185000X0.135000X-0.185000X0.135000X-0.185000X-0.135000X0*%
%ADD27R,1.175000X2.800000*%
%ADD28RoundRect,0.150000X-0.150000X0.825000X-0.150000X-0.825000X0.150000X-0.825000X0.150000X0.825000X0*%
%ADD29R,1.100000X0.300000*%
%ADD30R,3.100000X2.300000*%
G04 APERTURE END LIST*
D10*
%TO.C,J1*%
X78735000Y-57155000D03*
D11*
X81275000Y-57155000D03*
X78735000Y-59695000D03*
X81275000Y-59695000D03*
X78735000Y-62235000D03*
X81275000Y-62235000D03*
X78735000Y-64775000D03*
X81275000Y-64775000D03*
X78735000Y-67315000D03*
X81275000Y-67315000D03*
X78735000Y-69855000D03*
X81275000Y-69855000D03*
X78735000Y-72395000D03*
X81275000Y-72395000D03*
X78735000Y-74935000D03*
X81275000Y-74935000D03*
X78735000Y-77475000D03*
X81275000Y-77475000D03*
X78735000Y-80015000D03*
X81275000Y-80015000D03*
X78735000Y-82555000D03*
X81275000Y-82555000D03*
X78735000Y-85095000D03*
X81275000Y-85095000D03*
X78735000Y-87635000D03*
X81275000Y-87635000D03*
X78735000Y-90175000D03*
X81275000Y-90175000D03*
X78735000Y-92715000D03*
X81275000Y-92715000D03*
X78735000Y-95255000D03*
X81275000Y-95255000D03*
X78735000Y-97795000D03*
X81275000Y-97795000D03*
X78735000Y-100335000D03*
X81275000Y-100335000D03*
X78735000Y-102875000D03*
X81275000Y-102875000D03*
X78735000Y-105415000D03*
X81275000Y-105415000D03*
X78735000Y-107955000D03*
X81275000Y-107955000D03*
X78735000Y-110495000D03*
X81275000Y-110495000D03*
X78735000Y-113035000D03*
X81275000Y-113035000D03*
X78735000Y-115575000D03*
X81275000Y-115575000D03*
X78735000Y-118115000D03*
X81275000Y-118115000D03*
%TD*%
D12*
%TO.C,R3*%
X93698601Y-105105200D03*
X94718601Y-105105200D03*
%TD*%
D13*
%TO.C,C6*%
X87020401Y-112851599D03*
X87020401Y-111891599D03*
%TD*%
D14*
%TO.C,U2*%
X97668500Y-109768600D03*
X97668500Y-110718600D03*
X97668500Y-111668600D03*
X99943500Y-111668600D03*
X99943500Y-110718600D03*
X99943500Y-109768600D03*
%TD*%
D15*
%TO.C,U1*%
X88331000Y-114652100D03*
X89281000Y-114652100D03*
X90231000Y-114652100D03*
X90231000Y-112377100D03*
X89281000Y-112377100D03*
X88331000Y-112377100D03*
%TD*%
D16*
%TO.C,C7*%
X99469000Y-108458000D03*
X100429000Y-108458000D03*
%TD*%
D10*
%TO.C,J7*%
X90855800Y-109067600D03*
D11*
X90855800Y-106527600D03*
X90855800Y-103987600D03*
%TD*%
D17*
%TO.C,C4*%
X91795600Y-113093200D03*
X91795600Y-114643200D03*
%TD*%
D18*
%TO.C,J6*%
X99517200Y-95732600D03*
D19*
X99517200Y-97002600D03*
X99517200Y-98272600D03*
X99517200Y-99542600D03*
%TD*%
D20*
%TO.C,H2*%
X99771200Y-117221000D03*
D21*
X99771200Y-117221000D03*
%TD*%
D22*
%TO.C,R4*%
X96316800Y-105128600D03*
X96316800Y-106148600D03*
%TD*%
D10*
%TO.C,J3*%
X89199800Y-83185000D03*
D11*
X91739800Y-83185000D03*
X89199800Y-85725000D03*
X91739800Y-85725000D03*
X89199800Y-88265000D03*
X91739800Y-88265000D03*
X89199800Y-90805000D03*
X91739800Y-90805000D03*
X89199800Y-93345000D03*
X91739800Y-93345000D03*
X89199800Y-95885000D03*
X91739800Y-95885000D03*
%TD*%
D17*
%TO.C,C11*%
X84963001Y-117260799D03*
X84963001Y-118810799D03*
%TD*%
D12*
%TO.C,R2*%
X84580000Y-116001800D03*
X85600000Y-116001800D03*
%TD*%
D13*
%TO.C,C8*%
X100076000Y-89735600D03*
X100076000Y-88775600D03*
%TD*%
D20*
%TO.C,H1*%
X89433400Y-58902600D03*
D21*
X89433400Y-58902600D03*
%TD*%
D23*
%TO.C,C14*%
X83644800Y-59410600D03*
X84604800Y-59410600D03*
%TD*%
D10*
%TO.C,J5*%
X91744800Y-99745800D03*
D11*
X89204800Y-99745800D03*
%TD*%
D24*
%TO.C,C5*%
X99403200Y-113258600D03*
X97853200Y-113258600D03*
%TD*%
D25*
%TO.C,L1*%
X89281000Y-116643500D03*
X89281000Y-118818500D03*
%TD*%
D24*
%TO.C,C12*%
X95059801Y-106400599D03*
X93509801Y-106400599D03*
%TD*%
%TO.C,C10*%
X95059801Y-107950000D03*
X93509801Y-107950000D03*
%TD*%
D26*
%TO.C,R1*%
X83667600Y-118621999D03*
X83667600Y-117601999D03*
%TD*%
D17*
%TO.C,C9*%
X86512400Y-117260799D03*
X86512400Y-118810799D03*
%TD*%
D10*
%TO.C,J4*%
X94462600Y-115011200D03*
D11*
X94462600Y-117551200D03*
%TD*%
D27*
%TO.C,L2*%
X95677100Y-110718600D03*
X93502100Y-110718600D03*
%TD*%
D28*
%TO.C,U3*%
X98729800Y-88279200D03*
X97459800Y-88279200D03*
X96189800Y-88279200D03*
X94919800Y-88279200D03*
X94919800Y-93229200D03*
X96189800Y-93229200D03*
X97459800Y-93229200D03*
X98729800Y-93229200D03*
%TD*%
D29*
%TO.C,J2*%
X88439000Y-77410000D03*
X88439000Y-76910000D03*
X88439000Y-76410000D03*
X88439000Y-75910000D03*
X88439000Y-75410000D03*
X88439000Y-74910000D03*
X88439000Y-74410000D03*
X88439000Y-73910000D03*
X88439000Y-73410000D03*
X88439000Y-72910000D03*
X88439000Y-72410000D03*
X88439000Y-71910000D03*
X88439000Y-71410000D03*
X88439000Y-70910000D03*
X88439000Y-70410000D03*
X88439000Y-69910000D03*
D30*
X90139000Y-79080000D03*
X90139000Y-68240000D03*
%TD*%
M02*
