%TF.GenerationSoftware,KiCad,Pcbnew,(6.0.4)*%
%TF.CreationDate,2023-05-23T13:29:10+09:00*%
%TF.ProjectId,BajieHeader,42616a69-6548-4656-9164-65722e6b6963,rev?*%
%TF.SameCoordinates,Original*%
%TF.FileFunction,Soldermask,Bot*%
%TF.FilePolarity,Negative*%
%FSLAX46Y46*%
G04 Gerber Fmt 4.6, Leading zero omitted, Abs format (unit mm)*
G04 Created by KiCad (PCBNEW (6.0.4)) date 2023-05-23 13:29:10*
%MOMM*%
%LPD*%
G01*
G04 APERTURE LIST*
G04 Aperture macros list*
%AMRoundRect*
0 Rectangle with rounded corners*
0 $1 Rounding radius*
0 $2 $3 $4 $5 $6 $7 $8 $9 X,Y pos of 4 corners*
0 Add a 4 corners polygon primitive as box body*
4,1,4,$2,$3,$4,$5,$6,$7,$8,$9,$2,$3,0*
0 Add four circle primitives for the rounded corners*
1,1,$1+$1,$2,$3*
1,1,$1+$1,$4,$5*
1,1,$1+$1,$6,$7*
1,1,$1+$1,$8,$9*
0 Add four rect primitives between the rounded corners*
20,1,$1+$1,$2,$3,$4,$5,0*
20,1,$1+$1,$4,$5,$6,$7,0*
20,1,$1+$1,$6,$7,$8,$9,0*
20,1,$1+$1,$8,$9,$2,$3,0*%
G04 Aperture macros list end*
%ADD10R,1.700000X1.700000*%
%ADD11O,1.700000X1.700000*%
%ADD12R,1.000000X1.000000*%
%ADD13O,1.000000X1.000000*%
%ADD14C,2.600000*%
%ADD15C,3.500000*%
%ADD16RoundRect,0.250000X-0.625000X0.375000X-0.625000X-0.375000X0.625000X-0.375000X0.625000X0.375000X0*%
%ADD17RoundRect,0.140000X0.219203X0.021213X0.021213X0.219203X-0.219203X-0.021213X-0.021213X-0.219203X0*%
%ADD18RoundRect,0.225000X0.250000X-0.225000X0.250000X0.225000X-0.250000X0.225000X-0.250000X-0.225000X0*%
%ADD19RoundRect,0.140000X-0.170000X0.140000X-0.170000X-0.140000X0.170000X-0.140000X0.170000X0.140000X0*%
G04 APERTURE END LIST*
D10*
%TO.C,J1*%
X78735000Y-57155000D03*
D11*
X81275000Y-57155000D03*
X78735000Y-59695000D03*
X81275000Y-59695000D03*
X78735000Y-62235000D03*
X81275000Y-62235000D03*
X78735000Y-64775000D03*
X81275000Y-64775000D03*
X78735000Y-67315000D03*
X81275000Y-67315000D03*
X78735000Y-69855000D03*
X81275000Y-69855000D03*
X78735000Y-72395000D03*
X81275000Y-72395000D03*
X78735000Y-74935000D03*
X81275000Y-74935000D03*
X78735000Y-77475000D03*
X81275000Y-77475000D03*
X78735000Y-80015000D03*
X81275000Y-80015000D03*
X78735000Y-82555000D03*
X81275000Y-82555000D03*
X78735000Y-85095000D03*
X81275000Y-85095000D03*
X78735000Y-87635000D03*
X81275000Y-87635000D03*
X78735000Y-90175000D03*
X81275000Y-90175000D03*
X78735000Y-92715000D03*
X81275000Y-92715000D03*
X78735000Y-95255000D03*
X81275000Y-95255000D03*
X78735000Y-97795000D03*
X81275000Y-97795000D03*
X78735000Y-100335000D03*
X81275000Y-100335000D03*
X78735000Y-102875000D03*
X81275000Y-102875000D03*
X78735000Y-105415000D03*
X81275000Y-105415000D03*
X78735000Y-107955000D03*
X81275000Y-107955000D03*
X78735000Y-110495000D03*
X81275000Y-110495000D03*
X78735000Y-113035000D03*
X81275000Y-113035000D03*
X78735000Y-115575000D03*
X81275000Y-115575000D03*
X78735000Y-118115000D03*
X81275000Y-118115000D03*
%TD*%
D10*
%TO.C,J7*%
X90855800Y-109067600D03*
D11*
X90855800Y-106527600D03*
X90855800Y-103987600D03*
%TD*%
D12*
%TO.C,J6*%
X99517200Y-95732600D03*
D13*
X99517200Y-97002600D03*
X99517200Y-98272600D03*
X99517200Y-99542600D03*
%TD*%
D14*
%TO.C,H2*%
X99771200Y-117221000D03*
D15*
X99771200Y-117221000D03*
%TD*%
D10*
%TO.C,J3*%
X89199800Y-83185000D03*
D11*
X91739800Y-83185000D03*
X89199800Y-85725000D03*
X91739800Y-85725000D03*
X89199800Y-88265000D03*
X91739800Y-88265000D03*
X89199800Y-90805000D03*
X91739800Y-90805000D03*
X89199800Y-93345000D03*
X91739800Y-93345000D03*
X89199800Y-95885000D03*
X91739800Y-95885000D03*
%TD*%
D15*
%TO.C,H1*%
X89433400Y-58902600D03*
D14*
X89433400Y-58902600D03*
%TD*%
D10*
%TO.C,J5*%
X91744800Y-99745800D03*
D11*
X89204800Y-99745800D03*
%TD*%
D10*
%TO.C,J4*%
X94462600Y-115011200D03*
D11*
X94462600Y-117551200D03*
%TD*%
D16*
%TO.C,F1*%
X99517200Y-91284600D03*
X99517200Y-94084600D03*
%TD*%
D17*
%TO.C,C1*%
X84057811Y-116671411D03*
X83378989Y-115992589D03*
%TD*%
D18*
%TO.C,C2*%
X92329000Y-116929200D03*
X92329000Y-115379200D03*
%TD*%
D19*
%TO.C,C13*%
X97840800Y-91493400D03*
X97840800Y-92453400D03*
%TD*%
M02*
