%TF.GenerationSoftware,KiCad,Pcbnew,(6.0.4)*%
%TF.CreationDate,2023-05-30T00:17:29+09:00*%
%TF.ProjectId,RFB,5246422e-6b69-4636-9164-5f7063625858,rev?*%
%TF.SameCoordinates,Original*%
%TF.FileFunction,Paste,Top*%
%TF.FilePolarity,Positive*%
%FSLAX46Y46*%
G04 Gerber Fmt 4.6, Leading zero omitted, Abs format (unit mm)*
G04 Created by KiCad (PCBNEW (6.0.4)) date 2023-05-30 00:17:29*
%MOMM*%
%LPD*%
G01*
G04 APERTURE LIST*
G04 Aperture macros list*
%AMRoundRect*
0 Rectangle with rounded corners*
0 $1 Rounding radius*
0 $2 $3 $4 $5 $6 $7 $8 $9 X,Y pos of 4 corners*
0 Add a 4 corners polygon primitive as box body*
4,1,4,$2,$3,$4,$5,$6,$7,$8,$9,$2,$3,0*
0 Add four circle primitives for the rounded corners*
1,1,$1+$1,$2,$3*
1,1,$1+$1,$4,$5*
1,1,$1+$1,$6,$7*
1,1,$1+$1,$8,$9*
0 Add four rect primitives between the rounded corners*
20,1,$1+$1,$2,$3,$4,$5,0*
20,1,$1+$1,$4,$5,$6,$7,0*
20,1,$1+$1,$6,$7,$8,$9,0*
20,1,$1+$1,$8,$9,$2,$3,0*%
%AMRotRect*
0 Rectangle, with rotation*
0 The origin of the aperture is its center*
0 $1 length*
0 $2 width*
0 $3 Rotation angle, in degrees counterclockwise*
0 Add horizontal line*
21,1,$1,$2,0,0,$3*%
G04 Aperture macros list end*
%ADD10RotRect,1.050000X0.650000X225.000000*%
%ADD11RotRect,1.050000X0.650000X45.000000*%
%ADD12RoundRect,0.140000X-0.170000X0.140000X-0.170000X-0.140000X0.170000X-0.140000X0.170000X0.140000X0*%
%ADD13RoundRect,0.075000X0.415425X-0.521491X0.521491X-0.415425X-0.415425X0.521491X-0.521491X0.415425X0*%
%ADD14RoundRect,0.075000X-0.415425X-0.521491X0.521491X0.415425X0.415425X0.521491X-0.521491X-0.415425X0*%
%ADD15R,0.600000X0.750000*%
%ADD16RoundRect,0.135000X0.135000X0.185000X-0.135000X0.185000X-0.135000X-0.185000X0.135000X-0.185000X0*%
%ADD17RoundRect,0.140000X-0.140000X-0.170000X0.140000X-0.170000X0.140000X0.170000X-0.140000X0.170000X0*%
%ADD18RoundRect,0.140000X-0.021213X0.219203X-0.219203X0.021213X0.021213X-0.219203X0.219203X-0.021213X0*%
%ADD19RoundRect,0.140000X0.140000X0.170000X-0.140000X0.170000X-0.140000X-0.170000X0.140000X-0.170000X0*%
%ADD20RoundRect,0.135000X-0.185000X0.135000X-0.185000X-0.135000X0.185000X-0.135000X0.185000X0.135000X0*%
%ADD21RoundRect,0.135000X-0.226274X-0.035355X-0.035355X-0.226274X0.226274X0.035355X0.035355X0.226274X0*%
%ADD22RoundRect,0.135000X0.185000X-0.135000X0.185000X0.135000X-0.185000X0.135000X-0.185000X-0.135000X0*%
%ADD23RoundRect,0.135000X-0.035355X0.226274X-0.226274X0.035355X0.035355X-0.226274X0.226274X-0.035355X0*%
%ADD24RoundRect,0.135000X0.035355X-0.226274X0.226274X-0.035355X-0.035355X0.226274X-0.226274X0.035355X0*%
%ADD25RoundRect,0.135000X0.226274X0.035355X0.035355X0.226274X-0.226274X-0.035355X-0.035355X-0.226274X0*%
%ADD26RoundRect,0.140000X-0.140000X-0.180000X0.140000X-0.180000X0.140000X0.180000X-0.140000X0.180000X0*%
%ADD27RoundRect,0.087500X-0.175000X-0.087500X0.175000X-0.087500X0.175000X0.087500X-0.175000X0.087500X0*%
%ADD28RoundRect,0.225000X0.225000X0.250000X-0.225000X0.250000X-0.225000X-0.250000X0.225000X-0.250000X0*%
%ADD29RoundRect,0.135000X-0.135000X-0.185000X0.135000X-0.185000X0.135000X0.185000X-0.135000X0.185000X0*%
%ADD30R,0.650000X0.400000*%
%ADD31RoundRect,0.140000X0.170000X-0.140000X0.170000X0.140000X-0.170000X0.140000X-0.170000X-0.140000X0*%
%ADD32RoundRect,0.140000X0.219203X0.021213X0.021213X0.219203X-0.219203X-0.021213X-0.021213X-0.219203X0*%
%ADD33RoundRect,0.140000X-0.219203X-0.021213X-0.021213X-0.219203X0.219203X0.021213X0.021213X0.219203X0*%
%ADD34RoundRect,0.140000X0.021213X-0.219203X0.219203X-0.021213X-0.021213X0.219203X-0.219203X0.021213X0*%
%ADD35RoundRect,0.160000X-0.245000X-0.160000X0.245000X-0.160000X0.245000X0.160000X-0.245000X0.160000X0*%
%ADD36RoundRect,0.093750X-0.093750X-0.106250X0.093750X-0.106250X0.093750X0.106250X-0.093750X0.106250X0*%
%ADD37RoundRect,0.218750X0.256250X-0.218750X0.256250X0.218750X-0.256250X0.218750X-0.256250X-0.218750X0*%
%ADD38RotRect,0.350000X0.700000X135.000000*%
%ADD39RoundRect,0.225000X0.250000X-0.225000X0.250000X0.225000X-0.250000X0.225000X-0.250000X-0.225000X0*%
%ADD40RoundRect,0.249999X0.290001X0.290001X-0.290001X0.290001X-0.290001X-0.290001X0.290001X-0.290001X0*%
%ADD41RoundRect,0.062500X0.375000X0.062500X-0.375000X0.062500X-0.375000X-0.062500X0.375000X-0.062500X0*%
%ADD42RoundRect,0.062500X0.062500X0.375000X-0.062500X0.375000X-0.062500X-0.375000X0.062500X-0.375000X0*%
%ADD43RoundRect,0.249999X0.290001X-0.290001X0.290001X0.290001X-0.290001X0.290001X-0.290001X-0.290001X0*%
%ADD44RoundRect,0.062500X0.062500X-0.375000X0.062500X0.375000X-0.062500X0.375000X-0.062500X-0.375000X0*%
%ADD45RoundRect,0.062500X0.375000X-0.062500X0.375000X0.062500X-0.375000X0.062500X-0.375000X-0.062500X0*%
%ADD46RoundRect,0.147500X0.226274X0.017678X0.017678X0.226274X-0.226274X-0.017678X-0.017678X-0.226274X0*%
%ADD47R,0.400000X0.650000*%
%ADD48RoundRect,0.250000X-0.292217X-0.292217X0.292217X-0.292217X0.292217X0.292217X-0.292217X0.292217X0*%
%ADD49RoundRect,0.062500X-0.375000X-0.062500X0.375000X-0.062500X0.375000X0.062500X-0.375000X0.062500X0*%
%ADD50RoundRect,0.062500X-0.062500X-0.375000X0.062500X-0.375000X0.062500X0.375000X-0.062500X0.375000X0*%
%ADD51RotRect,0.350000X0.700000X45.000000*%
%ADD52R,2.300000X3.100000*%
%ADD53R,0.300000X1.100000*%
G04 APERTURE END LIST*
D10*
%TO.C,SW2*%
X38629307Y-63939614D03*
X35694814Y-66874107D03*
X37215093Y-68394386D03*
X40149586Y-65459893D03*
%TD*%
D11*
%TO.C,SW1*%
X41105014Y-66874107D03*
X44039507Y-63939614D03*
X45559786Y-65459893D03*
X42625293Y-68394386D03*
%TD*%
D12*
%TO.C,C129*%
X48691800Y-87424200D03*
X48691800Y-86464200D03*
%TD*%
D13*
%TO.C,U11*%
X45200924Y-70578412D03*
X45554478Y-70224858D03*
X45908031Y-69871305D03*
X46261585Y-69517751D03*
X46615138Y-69164198D03*
X46968691Y-68810645D03*
X47322245Y-68457091D03*
X47675798Y-68103538D03*
X48029351Y-67749985D03*
X48382905Y-67396431D03*
X48736458Y-67042878D03*
X49090012Y-66689324D03*
D14*
X51087588Y-66689324D03*
X51441142Y-67042878D03*
X51794695Y-67396431D03*
X52148249Y-67749985D03*
X52501802Y-68103538D03*
X52855355Y-68457091D03*
X53208909Y-68810645D03*
X53562462Y-69164198D03*
X53916015Y-69517751D03*
X54269569Y-69871305D03*
X54623122Y-70224858D03*
X54976676Y-70578412D03*
D13*
X54976676Y-72575988D03*
X54623122Y-72929542D03*
X54269569Y-73283095D03*
X53916015Y-73636649D03*
X53562462Y-73990202D03*
X53208909Y-74343755D03*
X52855355Y-74697309D03*
X52501802Y-75050862D03*
X52148249Y-75404415D03*
X51794695Y-75757969D03*
X51441142Y-76111522D03*
X51087588Y-76465076D03*
D14*
X49090012Y-76465076D03*
X48736458Y-76111522D03*
X48382905Y-75757969D03*
X48029351Y-75404415D03*
X47675798Y-75050862D03*
X47322245Y-74697309D03*
X46968691Y-74343755D03*
X46615138Y-73990202D03*
X46261585Y-73636649D03*
X45908031Y-73283095D03*
X45554478Y-72929542D03*
X45200924Y-72575988D03*
%TD*%
D15*
%TO.C,U1*%
X34442400Y-78028800D03*
X36092400Y-78028800D03*
X36092400Y-79158800D03*
X34442400Y-79158800D03*
%TD*%
D16*
%TO.C,R9*%
X42797000Y-74168000D03*
X43817000Y-74168000D03*
%TD*%
D17*
%TO.C,C74*%
X62227400Y-93700600D03*
X61267400Y-93700600D03*
%TD*%
D18*
%TO.C,C31*%
X43898178Y-80019211D03*
X44577000Y-79340389D03*
%TD*%
D19*
%TO.C,C65*%
X67785100Y-88188800D03*
X68745100Y-88188800D03*
%TD*%
D12*
%TO.C,C12*%
X72374700Y-65527400D03*
X72374700Y-64567400D03*
%TD*%
%TO.C,C57*%
X60579000Y-80921800D03*
X60579000Y-79961800D03*
%TD*%
D20*
%TO.C,R6*%
X45034200Y-78183200D03*
X45034200Y-77163200D03*
%TD*%
D12*
%TO.C,C35*%
X59055000Y-63980000D03*
X59055000Y-63020000D03*
%TD*%
%TO.C,C36*%
X59055000Y-65885000D03*
X59055000Y-64925000D03*
%TD*%
D18*
%TO.C,C61*%
X62906589Y-95411611D03*
X63585411Y-94732789D03*
%TD*%
D12*
%TO.C,C72*%
X60528200Y-89024400D03*
X60528200Y-88064400D03*
%TD*%
D21*
%TO.C,R53*%
X48341224Y-79303824D03*
X47619976Y-78582576D03*
%TD*%
D22*
%TO.C,R71*%
X72374700Y-66465800D03*
X72374700Y-67485800D03*
%TD*%
D23*
%TO.C,R62*%
X39085576Y-77754424D03*
X39806824Y-77033176D03*
%TD*%
D24*
%TO.C,R12*%
X60838024Y-83306976D03*
X60116776Y-84028224D03*
%TD*%
D12*
%TO.C,C15*%
X42341800Y-84096800D03*
X42341800Y-83136800D03*
%TD*%
D25*
%TO.C,R11*%
X61424876Y-73350176D03*
X62146124Y-74071424D03*
%TD*%
D26*
%TO.C,U22*%
X46679600Y-87674400D03*
X46679600Y-86874400D03*
X45979600Y-86874400D03*
X45979600Y-87674400D03*
D27*
X45042100Y-86524400D03*
X45042100Y-87024400D03*
X45042100Y-87524400D03*
X45042100Y-88024400D03*
X47617100Y-88024400D03*
X47617100Y-87524400D03*
X47617100Y-87024400D03*
X47617100Y-86524400D03*
%TD*%
D28*
%TO.C,C33*%
X74815400Y-58216800D03*
X76365400Y-58216800D03*
%TD*%
D29*
%TO.C,R39*%
X55196200Y-76809600D03*
X54176200Y-76809600D03*
%TD*%
D16*
%TO.C,R25*%
X61085000Y-86410800D03*
X62105000Y-86410800D03*
%TD*%
D18*
%TO.C,C40*%
X62614489Y-73059611D03*
X63293311Y-72380789D03*
%TD*%
D30*
%TO.C,U12*%
X50149800Y-83881200D03*
X50149800Y-85181200D03*
X48249800Y-85181200D03*
X48249800Y-84531200D03*
X48249800Y-83881200D03*
%TD*%
D31*
%TO.C,C44*%
X68409800Y-67170900D03*
X68409800Y-68130900D03*
%TD*%
D17*
%TO.C,C56*%
X62964000Y-82296000D03*
X62004000Y-82296000D03*
%TD*%
%TO.C,C143*%
X45996800Y-85471000D03*
X45036800Y-85471000D03*
%TD*%
D32*
%TO.C,C54*%
X69739189Y-83886989D03*
X70418011Y-84565811D03*
%TD*%
D33*
%TO.C,C6*%
X41265789Y-72736389D03*
X41944611Y-73415211D03*
%TD*%
D12*
%TO.C,C45*%
X68409800Y-64320900D03*
X68409800Y-63360900D03*
%TD*%
D25*
%TO.C,R14*%
X68346376Y-82494176D03*
X69067624Y-83215424D03*
%TD*%
D33*
%TO.C,C101*%
X46999211Y-76539411D03*
X46320389Y-75860589D03*
%TD*%
D24*
%TO.C,R40*%
X52964024Y-76931576D03*
X52242776Y-77652824D03*
%TD*%
D18*
%TO.C,C41*%
X63274889Y-73821611D03*
X63953711Y-73142789D03*
%TD*%
D22*
%TO.C,R70*%
X71358700Y-65504600D03*
X71358700Y-66524600D03*
%TD*%
D17*
%TO.C,C2*%
X42141200Y-71653400D03*
X43101200Y-71653400D03*
%TD*%
D34*
%TO.C,C58*%
X67725611Y-80305589D03*
X67046789Y-80984411D03*
%TD*%
D19*
%TO.C,C50*%
X58270200Y-86741000D03*
X59230200Y-86741000D03*
%TD*%
D17*
%TO.C,C47*%
X64310200Y-75971400D03*
X63350200Y-75971400D03*
%TD*%
D31*
%TO.C,C16*%
X42849800Y-79397800D03*
X42849800Y-78437800D03*
%TD*%
D17*
%TO.C,C75*%
X65453200Y-82296000D03*
X64493200Y-82296000D03*
%TD*%
D35*
%TO.C,IC9*%
X74255800Y-66656200D03*
X74255800Y-65856200D03*
D36*
X73368300Y-65606200D03*
X73368300Y-66256200D03*
X73368300Y-66906200D03*
X75143300Y-66906200D03*
X75143300Y-66256200D03*
X75143300Y-65606200D03*
%TD*%
D18*
%TO.C,C10*%
X59477589Y-91550811D03*
X60156411Y-90871989D03*
%TD*%
D12*
%TO.C,C66*%
X62433200Y-90377200D03*
X62433200Y-89417200D03*
%TD*%
D19*
%TO.C,C71*%
X69725600Y-92735400D03*
X70685600Y-92735400D03*
%TD*%
D37*
%TO.C,L3*%
X72745600Y-87655300D03*
X72745600Y-89230300D03*
%TD*%
%TO.C,L2*%
X57708800Y-88163300D03*
X57708800Y-89738300D03*
%TD*%
D32*
%TO.C,C55*%
X69104189Y-84750589D03*
X69783011Y-85429411D03*
%TD*%
D38*
%TO.C,FL2*%
X68724678Y-98031161D03*
X68265058Y-97571542D03*
X67805439Y-97111922D03*
X68689322Y-96228039D03*
X69148942Y-96687658D03*
X69608561Y-97147278D03*
%TD*%
D33*
%TO.C,C64*%
X64978679Y-87967421D03*
X64299857Y-87288599D03*
%TD*%
D20*
%TO.C,R28*%
X69773800Y-90959400D03*
X69773800Y-89939400D03*
%TD*%
D32*
%TO.C,C63*%
X65018278Y-86570178D03*
X65697100Y-87249000D03*
%TD*%
D37*
%TO.C,L1*%
X59258200Y-88036300D03*
X59258200Y-89611300D03*
%TD*%
D39*
%TO.C,C120*%
X76377800Y-63614000D03*
X76377800Y-65164000D03*
%TD*%
D33*
%TO.C,C95*%
X56406422Y-72662422D03*
X55727600Y-71983600D03*
%TD*%
D29*
%TO.C,R19*%
X65559400Y-83312000D03*
X64539400Y-83312000D03*
%TD*%
D32*
%TO.C,C60*%
X67275389Y-94783589D03*
X67954211Y-95462411D03*
%TD*%
D34*
%TO.C,C62*%
X64474411Y-95621789D03*
X63795589Y-96300611D03*
%TD*%
D40*
%TO.C,U8*%
X66219100Y-91967400D03*
X64969100Y-91967400D03*
X64969100Y-90717400D03*
X66219100Y-90717400D03*
D41*
X67531600Y-92592400D03*
X67531600Y-92092400D03*
X67531600Y-91592400D03*
X67531600Y-91092400D03*
X67531600Y-90592400D03*
X67531600Y-90092400D03*
D42*
X66844100Y-89404900D03*
X66344100Y-89404900D03*
X65844100Y-89404900D03*
X65344100Y-89404900D03*
X64844100Y-89404900D03*
X64344100Y-89404900D03*
D41*
X63656600Y-90092400D03*
X63656600Y-90592400D03*
X63656600Y-91092400D03*
X63656600Y-91592400D03*
X63656600Y-92092400D03*
X63656600Y-92592400D03*
D42*
X64344100Y-93279900D03*
X64844100Y-93279900D03*
X65344100Y-93279900D03*
X65844100Y-93279900D03*
X66344100Y-93279900D03*
X66844100Y-93279900D03*
%TD*%
D23*
%TO.C,R8*%
X40050776Y-78922824D03*
X40772024Y-78201576D03*
%TD*%
D29*
%TO.C,R24*%
X62689200Y-87426800D03*
X61669200Y-87426800D03*
%TD*%
D43*
%TO.C,U3*%
X64353600Y-78521400D03*
X64353600Y-79771400D03*
X63103600Y-78521400D03*
X63103600Y-79771400D03*
D44*
X62478600Y-81083900D03*
X62978600Y-81083900D03*
X63478600Y-81083900D03*
X63978600Y-81083900D03*
X64478600Y-81083900D03*
X64978600Y-81083900D03*
D45*
X65666100Y-80396400D03*
X65666100Y-79896400D03*
X65666100Y-79396400D03*
X65666100Y-78896400D03*
X65666100Y-78396400D03*
X65666100Y-77896400D03*
D44*
X64978600Y-77208900D03*
X64478600Y-77208900D03*
X63978600Y-77208900D03*
X63478600Y-77208900D03*
X62978600Y-77208900D03*
X62478600Y-77208900D03*
D45*
X61791100Y-77896400D03*
X61791100Y-78396400D03*
X61791100Y-78896400D03*
X61791100Y-79396400D03*
X61791100Y-79896400D03*
X61791100Y-80396400D03*
%TD*%
D34*
%TO.C,C14*%
X45847000Y-79527400D03*
X45168178Y-80206222D03*
%TD*%
D46*
%TO.C,D1*%
X46240653Y-77203253D03*
X46926547Y-77889147D03*
%TD*%
D34*
%TO.C,C94*%
X44500800Y-68884800D03*
X43821978Y-69563622D03*
%TD*%
D22*
%TO.C,R13*%
X58293000Y-82344800D03*
X58293000Y-83364800D03*
%TD*%
D32*
%TO.C,C18*%
X39783378Y-80143978D03*
X40462200Y-80822800D03*
%TD*%
D18*
%TO.C,C51*%
X70704389Y-86242211D03*
X71383211Y-85563389D03*
%TD*%
D37*
%TO.C,L4*%
X71196200Y-87655300D03*
X71196200Y-89230300D03*
%TD*%
D17*
%TO.C,C130*%
X70368100Y-66446400D03*
X69408100Y-66446400D03*
%TD*%
D20*
%TO.C,R17*%
X59563000Y-80951800D03*
X59563000Y-79931800D03*
%TD*%
D32*
%TO.C,C100*%
X49850989Y-65268789D03*
X50529811Y-65947611D03*
%TD*%
D31*
%TO.C,C53*%
X58293000Y-84305200D03*
X58293000Y-85265200D03*
%TD*%
D47*
%TO.C,U5*%
X43728400Y-77277000D03*
X42428400Y-77277000D03*
X42428400Y-75377000D03*
X43078400Y-75377000D03*
X43728400Y-75377000D03*
%TD*%
D12*
%TO.C,C37*%
X59055000Y-67790000D03*
X59055000Y-66830000D03*
%TD*%
D31*
%TO.C,C80*%
X37947600Y-78996600D03*
X37947600Y-79956600D03*
%TD*%
D19*
%TO.C,C67*%
X61496000Y-88442800D03*
X62456000Y-88442800D03*
%TD*%
D39*
%TO.C,C139*%
X69684900Y-63614000D03*
X69684900Y-65164000D03*
%TD*%
D48*
%TO.C,IC3*%
X65648700Y-65230400D03*
X63098700Y-69055400D03*
X61823700Y-67780400D03*
X61823700Y-65230400D03*
X63098700Y-65230400D03*
X64373700Y-69055400D03*
X64373700Y-66505400D03*
X63098700Y-66505400D03*
X65648700Y-69055400D03*
X64373700Y-65230400D03*
X65648700Y-66505400D03*
X65648700Y-67780400D03*
X61823700Y-69055400D03*
X64373700Y-67780400D03*
X63098700Y-67780400D03*
X61823700Y-66505400D03*
D49*
X60298700Y-64392900D03*
X60298700Y-64892900D03*
X60298700Y-65392900D03*
X60298700Y-65892900D03*
X60298700Y-66392900D03*
X60298700Y-66892900D03*
X60298700Y-67392900D03*
X60298700Y-67892900D03*
X60298700Y-68392900D03*
X60298700Y-68892900D03*
X60298700Y-69392900D03*
X60298700Y-69892900D03*
D50*
X60986200Y-70580400D03*
X61486200Y-70580400D03*
X61986200Y-70580400D03*
X62486200Y-70580400D03*
X62986200Y-70580400D03*
X63486200Y-70580400D03*
X63986200Y-70580400D03*
X64486200Y-70580400D03*
X64986200Y-70580400D03*
X65486200Y-70580400D03*
X65986200Y-70580400D03*
X66486200Y-70580400D03*
D49*
X67173700Y-69892900D03*
X67173700Y-69392900D03*
X67173700Y-68892900D03*
X67173700Y-68392900D03*
X67173700Y-67892900D03*
X67173700Y-67392900D03*
X67173700Y-66892900D03*
X67173700Y-66392900D03*
X67173700Y-65892900D03*
X67173700Y-65392900D03*
X67173700Y-64892900D03*
X67173700Y-64392900D03*
D50*
X66486200Y-63705400D03*
X65986200Y-63705400D03*
X65486200Y-63705400D03*
X64986200Y-63705400D03*
X64486200Y-63705400D03*
X63986200Y-63705400D03*
X63486200Y-63705400D03*
X62986200Y-63705400D03*
X62486200Y-63705400D03*
X61986200Y-63705400D03*
X61486200Y-63705400D03*
X60986200Y-63705400D03*
%TD*%
D33*
%TO.C,C91*%
X54771611Y-63941011D03*
X54092789Y-63262189D03*
%TD*%
D19*
%TO.C,C92*%
X53698200Y-60274200D03*
X54658200Y-60274200D03*
%TD*%
D20*
%TO.C,R27*%
X62407800Y-92737400D03*
X62407800Y-91717400D03*
%TD*%
D12*
%TO.C,C46*%
X68409800Y-66223300D03*
X68409800Y-65263300D03*
%TD*%
D20*
%TO.C,R29*%
X61391800Y-90959400D03*
X61391800Y-89939400D03*
%TD*%
D31*
%TO.C,C52*%
X59309000Y-84813200D03*
X59309000Y-85773200D03*
%TD*%
D33*
%TO.C,C59*%
X67065211Y-96351411D03*
X66386389Y-95672589D03*
%TD*%
D12*
%TO.C,C73*%
X69748400Y-88999000D03*
X69748400Y-88039000D03*
%TD*%
D20*
%TO.C,R10*%
X41097200Y-76936600D03*
X41097200Y-75916600D03*
%TD*%
D29*
%TO.C,R16*%
X62968600Y-83312000D03*
X61948600Y-83312000D03*
%TD*%
D18*
%TO.C,C93*%
X43771178Y-72637022D03*
X44450000Y-71958200D03*
%TD*%
D51*
%TO.C,FL3*%
X61252239Y-97071078D03*
X61711858Y-96611458D03*
X62171478Y-96151839D03*
X63055361Y-97035722D03*
X62595742Y-97495342D03*
X62136122Y-97954961D03*
%TD*%
D12*
%TO.C,C68*%
X68743700Y-90377200D03*
X68743700Y-89417200D03*
%TD*%
D32*
%TO.C,C48*%
X70932989Y-90617989D03*
X71611811Y-91296811D03*
%TD*%
D24*
%TO.C,R18*%
X68458024Y-80995576D03*
X67736776Y-81716824D03*
%TD*%
D20*
%TO.C,R26*%
X68757800Y-92737400D03*
X68757800Y-91717400D03*
%TD*%
D52*
%TO.C,J4*%
X69148600Y-59695600D03*
X58308600Y-59695600D03*
D53*
X59978600Y-61395600D03*
X60478600Y-61395600D03*
X60978600Y-61395600D03*
X61478600Y-61395600D03*
X61978600Y-61395600D03*
X62478600Y-61395600D03*
X62978600Y-61395600D03*
X63478600Y-61395600D03*
X63978600Y-61395600D03*
X64478600Y-61395600D03*
X64978600Y-61395600D03*
X65478600Y-61395600D03*
X65978600Y-61395600D03*
X66478600Y-61395600D03*
X66978600Y-61395600D03*
X67478600Y-61395600D03*
%TD*%
D25*
%TO.C,R15*%
X66542976Y-84043576D03*
X67264224Y-84764824D03*
%TD*%
D33*
%TO.C,C13*%
X44456978Y-83522178D03*
X45135800Y-84201000D03*
%TD*%
D18*
%TO.C,C17*%
X46269589Y-80959011D03*
X46948411Y-80280189D03*
%TD*%
D31*
%TO.C,C76*%
X66903600Y-78110200D03*
X66903600Y-79070200D03*
%TD*%
M02*
