%TF.GenerationSoftware,KiCad,Pcbnew,(6.0.4)*%
%TF.CreationDate,2023-05-30T00:17:30+09:00*%
%TF.ProjectId,RFB,5246422e-6b69-4636-9164-5f7063625858,rev?*%
%TF.SameCoordinates,Original*%
%TF.FileFunction,Legend,Top*%
%TF.FilePolarity,Positive*%
%FSLAX46Y46*%
G04 Gerber Fmt 4.6, Leading zero omitted, Abs format (unit mm)*
G04 Created by KiCad (PCBNEW (6.0.4)) date 2023-05-30 00:17:30*
%MOMM*%
%LPD*%
G01*
G04 APERTURE LIST*
G04 Aperture macros list*
%AMRoundRect*
0 Rectangle with rounded corners*
0 $1 Rounding radius*
0 $2 $3 $4 $5 $6 $7 $8 $9 X,Y pos of 4 corners*
0 Add a 4 corners polygon primitive as box body*
4,1,4,$2,$3,$4,$5,$6,$7,$8,$9,$2,$3,0*
0 Add four circle primitives for the rounded corners*
1,1,$1+$1,$2,$3*
1,1,$1+$1,$4,$5*
1,1,$1+$1,$6,$7*
1,1,$1+$1,$8,$9*
0 Add four rect primitives between the rounded corners*
20,1,$1+$1,$2,$3,$4,$5,0*
20,1,$1+$1,$4,$5,$6,$7,0*
20,1,$1+$1,$6,$7,$8,$9,0*
20,1,$1+$1,$8,$9,$2,$3,0*%
%AMRotRect*
0 Rectangle, with rotation*
0 The origin of the aperture is its center*
0 $1 length*
0 $2 width*
0 $3 Rotation angle, in degrees counterclockwise*
0 Add horizontal line*
21,1,$1,$2,0,0,$3*%
G04 Aperture macros list end*
%ADD10C,0.150000*%
%ADD11C,0.160000*%
%ADD12C,0.120000*%
%ADD13C,0.100000*%
%ADD14C,0.000000*%
%ADD15C,2.000000*%
%ADD16C,1.999999*%
%ADD17R,1.700000X1.700000*%
%ADD18RotRect,1.050000X0.650000X225.000000*%
%ADD19RotRect,1.050000X0.650000X45.000000*%
%ADD20RoundRect,0.140000X-0.170000X0.140000X-0.170000X-0.140000X0.170000X-0.140000X0.170000X0.140000X0*%
%ADD21RoundRect,0.075000X0.415425X-0.521491X0.521491X-0.415425X-0.415425X0.521491X-0.521491X0.415425X0*%
%ADD22RoundRect,0.075000X-0.415425X-0.521491X0.521491X0.415425X0.415425X0.521491X-0.521491X-0.415425X0*%
%ADD23O,1.700000X1.700000*%
%ADD24C,2.250000*%
%ADD25C,2.050000*%
%ADD26R,0.600000X0.750000*%
%ADD27RoundRect,0.135000X0.135000X0.185000X-0.135000X0.185000X-0.135000X-0.185000X0.135000X-0.185000X0*%
%ADD28RoundRect,0.140000X-0.140000X-0.170000X0.140000X-0.170000X0.140000X0.170000X-0.140000X0.170000X0*%
%ADD29RoundRect,0.140000X-0.021213X0.219203X-0.219203X0.021213X0.021213X-0.219203X0.219203X-0.021213X0*%
%ADD30C,3.800000*%
%ADD31C,2.600000*%
%ADD32RoundRect,0.140000X0.140000X0.170000X-0.140000X0.170000X-0.140000X-0.170000X0.140000X-0.170000X0*%
%ADD33RoundRect,0.135000X-0.185000X0.135000X-0.185000X-0.135000X0.185000X-0.135000X0.185000X0.135000X0*%
%ADD34RoundRect,0.135000X-0.226274X-0.035355X-0.035355X-0.226274X0.226274X0.035355X0.035355X0.226274X0*%
%ADD35RoundRect,0.135000X0.185000X-0.135000X0.185000X0.135000X-0.185000X0.135000X-0.185000X-0.135000X0*%
%ADD36RoundRect,0.135000X-0.035355X0.226274X-0.226274X0.035355X0.035355X-0.226274X0.226274X-0.035355X0*%
%ADD37RoundRect,0.135000X0.035355X-0.226274X0.226274X-0.035355X-0.035355X0.226274X-0.226274X0.035355X0*%
%ADD38RoundRect,0.135000X0.226274X0.035355X0.035355X0.226274X-0.226274X-0.035355X-0.035355X-0.226274X0*%
%ADD39RoundRect,0.087500X-0.175000X-0.087500X0.175000X-0.087500X0.175000X0.087500X-0.175000X0.087500X0*%
%ADD40R,1.400000X1.600000*%
%ADD41RoundRect,0.225000X0.225000X0.250000X-0.225000X0.250000X-0.225000X-0.250000X0.225000X-0.250000X0*%
%ADD42RoundRect,0.135000X-0.135000X-0.185000X0.135000X-0.185000X0.135000X0.185000X-0.135000X0.185000X0*%
%ADD43R,0.650000X0.400000*%
%ADD44RoundRect,0.140000X0.170000X-0.140000X0.170000X0.140000X-0.170000X0.140000X-0.170000X-0.140000X0*%
%ADD45RoundRect,0.140000X0.219203X0.021213X0.021213X0.219203X-0.219203X-0.021213X-0.021213X-0.219203X0*%
%ADD46RoundRect,0.140000X-0.219203X-0.021213X-0.021213X-0.219203X0.219203X0.021213X0.021213X0.219203X0*%
%ADD47RoundRect,0.140000X0.021213X-0.219203X0.219203X-0.021213X-0.021213X0.219203X-0.219203X0.021213X0*%
%ADD48RoundRect,0.093750X-0.093750X-0.106250X0.093750X-0.106250X0.093750X0.106250X-0.093750X0.106250X0*%
%ADD49R,1.000000X1.600000*%
%ADD50RoundRect,0.218750X0.256250X-0.218750X0.256250X0.218750X-0.256250X0.218750X-0.256250X-0.218750X0*%
%ADD51RotRect,0.350000X0.700000X135.000000*%
%ADD52RoundRect,0.225000X0.250000X-0.225000X0.250000X0.225000X-0.250000X0.225000X-0.250000X-0.225000X0*%
%ADD53RoundRect,0.062500X0.375000X0.062500X-0.375000X0.062500X-0.375000X-0.062500X0.375000X-0.062500X0*%
%ADD54RoundRect,0.062500X0.062500X0.375000X-0.062500X0.375000X-0.062500X-0.375000X0.062500X-0.375000X0*%
%ADD55R,2.500000X2.500000*%
%ADD56RoundRect,0.062500X0.062500X-0.375000X0.062500X0.375000X-0.062500X0.375000X-0.062500X-0.375000X0*%
%ADD57RoundRect,0.062500X0.375000X-0.062500X0.375000X0.062500X-0.375000X0.062500X-0.375000X-0.062500X0*%
%ADD58RoundRect,0.147500X0.226274X0.017678X0.017678X0.226274X-0.226274X-0.017678X-0.017678X-0.226274X0*%
%ADD59C,1.620000*%
%ADD60R,0.400000X0.650000*%
%ADD61RoundRect,0.062500X-0.375000X-0.062500X0.375000X-0.062500X0.375000X0.062500X-0.375000X0.062500X0*%
%ADD62RoundRect,0.062500X-0.062500X-0.375000X0.062500X-0.375000X0.062500X0.375000X-0.062500X0.375000X0*%
%ADD63R,5.600000X5.600000*%
%ADD64RotRect,0.350000X0.700000X45.000000*%
%ADD65O,1.000000X1.000000*%
%ADD66R,1.000000X1.000000*%
%ADD67R,2.300000X3.100000*%
%ADD68R,0.300000X1.100000*%
%ADD69C,0.500000*%
G04 APERTURE END LIST*
D10*
X50538983Y-79312419D02*
X49831876Y-80019526D01*
X49562502Y-79750152D01*
X49528830Y-79649137D01*
X49528830Y-79581793D01*
X49562502Y-79480778D01*
X49663517Y-79379763D01*
X49764532Y-79346091D01*
X49831876Y-79346091D01*
X49932891Y-79379763D01*
X50202265Y-79649137D01*
X49831876Y-78605312D02*
X49124769Y-79312419D01*
X49461487Y-78975702D02*
X49057425Y-78571641D01*
X49427815Y-78201251D02*
X48720708Y-78908358D01*
X48485006Y-78537969D02*
X48417662Y-78537969D01*
X48316647Y-78504297D01*
X48148288Y-78335938D01*
X48114616Y-78234923D01*
X48114616Y-78167580D01*
X48148288Y-78066564D01*
X48215632Y-77999221D01*
X48350319Y-77931877D01*
X49158441Y-77931877D01*
X48720708Y-77494145D01*
X41769380Y-64966183D02*
X41062273Y-64259076D01*
X41331647Y-63989702D01*
X41432662Y-63956030D01*
X41500006Y-63956030D01*
X41601021Y-63989702D01*
X41702036Y-64090717D01*
X41735708Y-64191732D01*
X41735708Y-64259076D01*
X41702036Y-64360091D01*
X41432662Y-64629465D01*
X42476487Y-64259076D02*
X41769380Y-63551969D01*
X42106097Y-63888687D02*
X42510158Y-63484625D01*
X42880548Y-63855015D02*
X42173441Y-63147908D01*
X42442815Y-62878534D02*
X42880548Y-62440801D01*
X42914219Y-62945877D01*
X43015235Y-62844862D01*
X43116250Y-62811190D01*
X43183593Y-62811190D01*
X43284609Y-62844862D01*
X43452967Y-63013221D01*
X43486639Y-63114236D01*
X43486639Y-63181580D01*
X43452967Y-63282595D01*
X43250937Y-63484625D01*
X43149922Y-63518297D01*
X43082578Y-63518297D01*
X36940456Y-64384906D02*
X36368036Y-64283891D01*
X36536395Y-64788967D02*
X35829288Y-64081861D01*
X36098662Y-63812487D01*
X36199677Y-63778815D01*
X36267021Y-63778815D01*
X36368036Y-63812487D01*
X36469051Y-63913502D01*
X36502723Y-64014517D01*
X36502723Y-64081861D01*
X36469051Y-64182876D01*
X36199677Y-64452250D01*
X37176158Y-64081861D02*
X37310845Y-64014517D01*
X37479204Y-63846158D01*
X37512876Y-63745143D01*
X37512876Y-63677800D01*
X37479204Y-63576784D01*
X37411861Y-63509441D01*
X37310845Y-63475769D01*
X37243502Y-63475769D01*
X37142487Y-63509441D01*
X36974128Y-63610456D01*
X36873112Y-63644128D01*
X36805769Y-63644128D01*
X36704754Y-63610456D01*
X36637410Y-63543112D01*
X36603738Y-63442097D01*
X36603738Y-63374754D01*
X36637410Y-63273738D01*
X36805769Y-63105380D01*
X36940456Y-63038036D01*
X37108815Y-62802334D02*
X37512876Y-62398273D01*
X38017952Y-63307410D02*
X37310845Y-62600303D01*
D11*
X44858914Y-63673695D02*
X45525580Y-63673695D01*
X44477961Y-63911790D02*
X45192247Y-64149885D01*
X45192247Y-63530838D01*
X44858914Y-62721314D02*
X45525580Y-62721314D01*
X44477961Y-62959409D02*
X45192247Y-63197504D01*
X45192247Y-62578457D01*
X46230819Y-64197504D02*
X46183200Y-64149885D01*
X46135580Y-64054647D01*
X46135580Y-63816552D01*
X46183200Y-63721314D01*
X46230819Y-63673695D01*
X46326057Y-63626076D01*
X46421295Y-63626076D01*
X46564152Y-63673695D01*
X47135580Y-64245123D01*
X47135580Y-63626076D01*
X47135580Y-62626076D02*
X46659390Y-62959409D01*
X47135580Y-63197504D02*
X46135580Y-63197504D01*
X46135580Y-62816552D01*
X46183200Y-62721314D01*
X46230819Y-62673695D01*
X46326057Y-62626076D01*
X46468914Y-62626076D01*
X46564152Y-62673695D01*
X46611771Y-62721314D01*
X46659390Y-62816552D01*
X46659390Y-63197504D01*
X47745580Y-63673695D02*
X47745580Y-63864171D01*
X47793200Y-63959409D01*
X47840819Y-64007028D01*
X47983676Y-64102266D01*
X48174152Y-64149885D01*
X48555104Y-64149885D01*
X48650342Y-64102266D01*
X48697961Y-64054647D01*
X48745580Y-63959409D01*
X48745580Y-63768933D01*
X48697961Y-63673695D01*
X48650342Y-63626076D01*
X48555104Y-63578457D01*
X48317009Y-63578457D01*
X48221771Y-63626076D01*
X48174152Y-63673695D01*
X48126533Y-63768933D01*
X48126533Y-63959409D01*
X48174152Y-64054647D01*
X48221771Y-64102266D01*
X48317009Y-64149885D01*
X47745580Y-62721314D02*
X47745580Y-62911790D01*
X47793200Y-63007028D01*
X47840819Y-63054647D01*
X47983676Y-63149885D01*
X48174152Y-63197504D01*
X48555104Y-63197504D01*
X48650342Y-63149885D01*
X48697961Y-63102266D01*
X48745580Y-63007028D01*
X48745580Y-62816552D01*
X48697961Y-62721314D01*
X48650342Y-62673695D01*
X48555104Y-62626076D01*
X48317009Y-62626076D01*
X48221771Y-62673695D01*
X48174152Y-62721314D01*
X48126533Y-62816552D01*
X48126533Y-63007028D01*
X48174152Y-63102266D01*
X48221771Y-63149885D01*
X48317009Y-63197504D01*
X49403200Y-63673695D02*
X49355580Y-63768933D01*
X49355580Y-63911790D01*
X49403200Y-64054647D01*
X49498438Y-64149885D01*
X49593676Y-64197504D01*
X49784152Y-64245123D01*
X49927009Y-64245123D01*
X50117485Y-64197504D01*
X50212723Y-64149885D01*
X50307961Y-64054647D01*
X50355580Y-63911790D01*
X50355580Y-63816552D01*
X50307961Y-63673695D01*
X50260342Y-63626076D01*
X49927009Y-63626076D01*
X49927009Y-63816552D01*
X49403200Y-62673695D02*
X49355580Y-62768933D01*
X49355580Y-62911790D01*
X49403200Y-63054647D01*
X49498438Y-63149885D01*
X49593676Y-63197504D01*
X49784152Y-63245123D01*
X49927009Y-63245123D01*
X50117485Y-63197504D01*
X50212723Y-63149885D01*
X50307961Y-63054647D01*
X50355580Y-62911790D01*
X50355580Y-62816552D01*
X50307961Y-62673695D01*
X50260342Y-62626076D01*
X49927009Y-62626076D01*
X49927009Y-62816552D01*
X51965580Y-64197504D02*
X50965580Y-64197504D01*
X50965580Y-63959409D01*
X51013200Y-63816552D01*
X51108438Y-63721314D01*
X51203676Y-63673695D01*
X51394152Y-63626076D01*
X51537009Y-63626076D01*
X51727485Y-63673695D01*
X51822723Y-63721314D01*
X51917961Y-63816552D01*
X51965580Y-63959409D01*
X51965580Y-64197504D01*
X51870342Y-62626076D02*
X51917961Y-62673695D01*
X51965580Y-62816552D01*
X51965580Y-62911790D01*
X51917961Y-63054647D01*
X51822723Y-63149885D01*
X51727485Y-63197504D01*
X51537009Y-63245123D01*
X51394152Y-63245123D01*
X51203676Y-63197504D01*
X51108438Y-63149885D01*
X51013200Y-63054647D01*
X50965580Y-62911790D01*
X50965580Y-62816552D01*
X51013200Y-62673695D01*
X51060819Y-62626076D01*
X53527961Y-64149885D02*
X53575580Y-64007028D01*
X53575580Y-63768933D01*
X53527961Y-63673695D01*
X53480342Y-63626076D01*
X53385104Y-63578457D01*
X53289866Y-63578457D01*
X53194628Y-63626076D01*
X53147009Y-63673695D01*
X53099390Y-63768933D01*
X53051771Y-63959409D01*
X53004152Y-64054647D01*
X52956533Y-64102266D01*
X52861295Y-64149885D01*
X52766057Y-64149885D01*
X52670819Y-64102266D01*
X52623200Y-64054647D01*
X52575580Y-63959409D01*
X52575580Y-63721314D01*
X52623200Y-63578457D01*
X53527961Y-63197504D02*
X53575580Y-63054647D01*
X53575580Y-62816552D01*
X53527961Y-62721314D01*
X53480342Y-62673695D01*
X53385104Y-62626076D01*
X53289866Y-62626076D01*
X53194628Y-62673695D01*
X53147009Y-62721314D01*
X53099390Y-62816552D01*
X53051771Y-63007028D01*
X53004152Y-63102266D01*
X52956533Y-63149885D01*
X52861295Y-63197504D01*
X52766057Y-63197504D01*
X52670819Y-63149885D01*
X52623200Y-63102266D01*
X52575580Y-63007028D01*
X52575580Y-62768933D01*
X52623200Y-62626076D01*
X77254904Y-60231400D02*
X77159666Y-60183780D01*
X77016809Y-60183780D01*
X76873952Y-60231400D01*
X76778714Y-60326638D01*
X76731095Y-60421876D01*
X76683476Y-60612352D01*
X76683476Y-60755209D01*
X76731095Y-60945685D01*
X76778714Y-61040923D01*
X76873952Y-61136161D01*
X77016809Y-61183780D01*
X77112047Y-61183780D01*
X77254904Y-61136161D01*
X77302523Y-61088542D01*
X77302523Y-60755209D01*
X77112047Y-60755209D01*
X76350142Y-62168114D02*
X76350142Y-62834780D01*
X76112047Y-61787161D02*
X75873952Y-62501447D01*
X76493000Y-62501447D01*
X76731095Y-61834780D02*
X77064428Y-62834780D01*
X77397761Y-61834780D01*
X76350142Y-56602380D02*
X76159666Y-56602380D01*
X76064428Y-56650000D01*
X76016809Y-56697619D01*
X75921571Y-56840476D01*
X75873952Y-57030952D01*
X75873952Y-57411904D01*
X75921571Y-57507142D01*
X75969190Y-57554761D01*
X76064428Y-57602380D01*
X76254904Y-57602380D01*
X76350142Y-57554761D01*
X76397761Y-57507142D01*
X76445380Y-57411904D01*
X76445380Y-57173809D01*
X76397761Y-57078571D01*
X76350142Y-57030952D01*
X76254904Y-56983333D01*
X76064428Y-56983333D01*
X75969190Y-57030952D01*
X75921571Y-57078571D01*
X75873952Y-57173809D01*
X76731095Y-56602380D02*
X77064428Y-57602380D01*
X77397761Y-56602380D01*
X37026057Y-82688180D02*
X37645104Y-82688180D01*
X37311771Y-83069133D01*
X37454628Y-83069133D01*
X37549866Y-83116752D01*
X37597485Y-83164371D01*
X37645104Y-83259609D01*
X37645104Y-83497704D01*
X37597485Y-83592942D01*
X37549866Y-83640561D01*
X37454628Y-83688180D01*
X37168914Y-83688180D01*
X37073676Y-83640561D01*
X37026057Y-83592942D01*
X54479866Y-60564780D02*
X54813200Y-61564780D01*
X55146533Y-60564780D01*
X51287323Y-61056780D02*
X50811133Y-61056780D01*
X50811133Y-60056780D01*
X79132180Y-92680847D02*
X79846466Y-92680847D01*
X79989323Y-92728466D01*
X80084561Y-92823704D01*
X80132180Y-92966561D01*
X80132180Y-93061800D01*
X80132180Y-91728466D02*
X80132180Y-92204657D01*
X79132180Y-92204657D01*
X80036942Y-90823704D02*
X80084561Y-90871323D01*
X80132180Y-91014180D01*
X80132180Y-91109419D01*
X80084561Y-91252276D01*
X79989323Y-91347514D01*
X79894085Y-91395133D01*
X79703609Y-91442752D01*
X79560752Y-91442752D01*
X79370276Y-91395133D01*
X79275038Y-91347514D01*
X79179800Y-91252276D01*
X79132180Y-91109419D01*
X79132180Y-91014180D01*
X79179800Y-90871323D01*
X79227419Y-90823704D01*
X79132180Y-90109419D02*
X79846466Y-90109419D01*
X79989323Y-90157038D01*
X80084561Y-90252276D01*
X80132180Y-90395133D01*
X80132180Y-90490371D01*
X80132180Y-89157038D02*
X80132180Y-89633228D01*
X79132180Y-89633228D01*
X80036942Y-88252276D02*
X80084561Y-88299895D01*
X80132180Y-88442752D01*
X80132180Y-88537990D01*
X80084561Y-88680847D01*
X79989323Y-88776085D01*
X79894085Y-88823704D01*
X79703609Y-88871323D01*
X79560752Y-88871323D01*
X79370276Y-88823704D01*
X79275038Y-88776085D01*
X79179800Y-88680847D01*
X79132180Y-88537990D01*
X79132180Y-88442752D01*
X79179800Y-88299895D01*
X79227419Y-88252276D01*
X79132180Y-87537990D02*
X79846466Y-87537990D01*
X79989323Y-87585609D01*
X80084561Y-87680847D01*
X80132180Y-87823704D01*
X80132180Y-87918942D01*
X80132180Y-86585609D02*
X80132180Y-87061800D01*
X79132180Y-87061800D01*
X80036942Y-85680847D02*
X80084561Y-85728466D01*
X80132180Y-85871323D01*
X80132180Y-85966561D01*
X80084561Y-86109419D01*
X79989323Y-86204657D01*
X79894085Y-86252276D01*
X79703609Y-86299895D01*
X79560752Y-86299895D01*
X79370276Y-86252276D01*
X79275038Y-86204657D01*
X79179800Y-86109419D01*
X79132180Y-85966561D01*
X79132180Y-85871323D01*
X79179800Y-85728466D01*
X79227419Y-85680847D01*
X79132180Y-84966561D02*
X79846466Y-84966561D01*
X79989323Y-85014180D01*
X80084561Y-85109419D01*
X80132180Y-85252276D01*
X80132180Y-85347514D01*
X80132180Y-84014180D02*
X80132180Y-84490371D01*
X79132180Y-84490371D01*
X80036942Y-83109419D02*
X80084561Y-83157038D01*
X80132180Y-83299895D01*
X80132180Y-83395133D01*
X80084561Y-83537990D01*
X79989323Y-83633228D01*
X79894085Y-83680847D01*
X79703609Y-83728466D01*
X79560752Y-83728466D01*
X79370276Y-83680847D01*
X79275038Y-83633228D01*
X79179800Y-83537990D01*
X79132180Y-83395133D01*
X79132180Y-83299895D01*
X79179800Y-83157038D01*
X79227419Y-83109419D01*
X51987485Y-61056780D02*
X51987485Y-60056780D01*
X51987485Y-60532971D02*
X52558914Y-60532971D01*
X52558914Y-61056780D02*
X52558914Y-60056780D01*
X53805104Y-60612400D02*
X53709866Y-60564780D01*
X53567009Y-60564780D01*
X53424152Y-60612400D01*
X53328914Y-60707638D01*
X53281295Y-60802876D01*
X53233676Y-60993352D01*
X53233676Y-61136209D01*
X53281295Y-61326685D01*
X53328914Y-61421923D01*
X53424152Y-61517161D01*
X53567009Y-61564780D01*
X53662247Y-61564780D01*
X53805104Y-61517161D01*
X53852723Y-61469542D01*
X53852723Y-61136209D01*
X53662247Y-61136209D01*
X37645104Y-85275800D02*
X37549866Y-85228180D01*
X37407009Y-85228180D01*
X37264152Y-85275800D01*
X37168914Y-85371038D01*
X37121295Y-85466276D01*
X37073676Y-85656752D01*
X37073676Y-85799609D01*
X37121295Y-85990085D01*
X37168914Y-86085323D01*
X37264152Y-86180561D01*
X37407009Y-86228180D01*
X37502247Y-86228180D01*
X37645104Y-86180561D01*
X37692723Y-86132942D01*
X37692723Y-85799609D01*
X37502247Y-85799609D01*
D12*
%TO.C,SW2*%
X39880886Y-65014416D02*
X39074784Y-64208314D01*
X40679916Y-65813447D02*
X40595064Y-65728594D01*
X35164484Y-66520553D02*
X35249336Y-66605406D01*
X35963514Y-67319584D02*
X36769616Y-68125686D01*
X37568647Y-68924716D02*
X40679916Y-65813447D01*
X38275753Y-63409284D02*
X35164484Y-66520553D01*
X37483794Y-68839864D02*
X37568647Y-68924716D01*
X38360606Y-63494136D02*
X38275753Y-63409284D01*
%TO.C,SW1*%
X42893994Y-68839864D02*
X42978847Y-68924716D01*
X43770806Y-63494136D02*
X43685953Y-63409284D01*
X42978847Y-68924716D02*
X46090116Y-65813447D01*
X43685953Y-63409284D02*
X40574684Y-66520553D01*
X45291086Y-65014416D02*
X44484984Y-64208314D01*
X46090116Y-65813447D02*
X46005264Y-65728594D01*
X40574684Y-66520553D02*
X40659536Y-66605406D01*
X41373714Y-67319584D02*
X42179816Y-68125686D01*
%TO.C,C129*%
X48331800Y-86836364D02*
X48331800Y-87052036D01*
X49051800Y-86836364D02*
X49051800Y-87052036D01*
%TO.C,U11*%
X50088800Y-76682511D02*
X49770602Y-76364313D01*
X45301687Y-71259002D02*
X44983489Y-71577200D01*
X50406998Y-76364313D02*
X50088800Y-76682511D01*
X44983489Y-71577200D02*
X45301687Y-71895398D01*
X54875913Y-71895398D02*
X55194111Y-71577200D01*
X50088800Y-66471889D02*
X50406998Y-66790087D01*
X45301687Y-71895398D02*
X44389519Y-72807566D01*
X55194111Y-71577200D02*
X54875913Y-71259002D01*
X49770602Y-66790087D02*
X50088800Y-66471889D01*
%TO.C,J7*%
X49158200Y-62239200D02*
X49158200Y-57039200D01*
X36398200Y-57039200D02*
X49158200Y-57039200D01*
X33798200Y-62239200D02*
X33798200Y-59639200D01*
X33798200Y-58369200D02*
X33798200Y-57039200D01*
X36398200Y-59639200D02*
X36398200Y-57039200D01*
X33798200Y-57039200D02*
X35128200Y-57039200D01*
X33798200Y-59639200D02*
X36398200Y-59639200D01*
X33798200Y-62239200D02*
X49158200Y-62239200D01*
D13*
%TO.C,U1*%
X33767400Y-79158800D02*
G75*
G03*
X33667400Y-79158800I-50000J0D01*
G01*
X33667400Y-79158800D02*
G75*
G03*
X33767400Y-79158800I50000J0D01*
G01*
X33767400Y-79158800D02*
X33767400Y-79158800D01*
X33667400Y-79158800D02*
X33667400Y-79158800D01*
D12*
%TO.C,R9*%
X43460641Y-73788000D02*
X43153359Y-73788000D01*
X43460641Y-74548000D02*
X43153359Y-74548000D01*
%TO.C,C74*%
X61639564Y-94060600D02*
X61855236Y-94060600D01*
X61639564Y-93340600D02*
X61855236Y-93340600D01*
%TO.C,C31*%
X44568399Y-79858107D02*
X44415896Y-80010610D01*
X44059282Y-79348990D02*
X43906779Y-79501493D01*
%TO.C,C65*%
X68372936Y-87828800D02*
X68157264Y-87828800D01*
X68372936Y-88548800D02*
X68157264Y-88548800D01*
%TO.C,C12*%
X72734700Y-64939564D02*
X72734700Y-65155236D01*
X72014700Y-64939564D02*
X72014700Y-65155236D01*
%TO.C,C57*%
X60939000Y-80333964D02*
X60939000Y-80549636D01*
X60219000Y-80333964D02*
X60219000Y-80549636D01*
%TO.C,R6*%
X45414200Y-77519559D02*
X45414200Y-77826841D01*
X44654200Y-77519559D02*
X44654200Y-77826841D01*
%TO.C,C35*%
X59415000Y-63392164D02*
X59415000Y-63607836D01*
X58695000Y-63392164D02*
X58695000Y-63607836D01*
%TO.C,C36*%
X59415000Y-65297164D02*
X59415000Y-65512836D01*
X58695000Y-65297164D02*
X58695000Y-65512836D01*
%TO.C,C61*%
X63576810Y-95250507D02*
X63424307Y-95403010D01*
X63067693Y-94741390D02*
X62915190Y-94893893D01*
%TO.C,C72*%
X60168200Y-88436564D02*
X60168200Y-88652236D01*
X60888200Y-88436564D02*
X60888200Y-88652236D01*
%TO.C,R53*%
X47603259Y-79103260D02*
X47820540Y-79320541D01*
X48140660Y-78565859D02*
X48357941Y-78783140D01*
%TO.C,R71*%
X71994700Y-67129441D02*
X71994700Y-66822159D01*
X72754700Y-67129441D02*
X72754700Y-66822159D01*
%TO.C,R62*%
X39823541Y-77553860D02*
X39606260Y-77771141D01*
X39286140Y-77016459D02*
X39068859Y-77233740D01*
%TO.C,J9*%
X33798200Y-84500800D02*
X36458200Y-84500800D01*
X36458200Y-84500800D02*
X36458200Y-87100800D01*
X33798200Y-81900800D02*
X35128200Y-81900800D01*
X33798200Y-84500800D02*
X33798200Y-87100800D01*
X33798200Y-87100800D02*
X36458200Y-87100800D01*
X33798200Y-83230800D02*
X33798200Y-81900800D01*
%TO.C,R12*%
X60100059Y-83507540D02*
X60317340Y-83290259D01*
X60637460Y-84044941D02*
X60854741Y-83827660D01*
%TO.C,C15*%
X42701800Y-83508964D02*
X42701800Y-83724636D01*
X41981800Y-83508964D02*
X41981800Y-83724636D01*
%TO.C,R11*%
X62162841Y-73550740D02*
X61945560Y-73333459D01*
X61625440Y-74088141D02*
X61408159Y-73870860D01*
%TO.C,U22*%
X46329600Y-86164400D02*
X47829600Y-86164400D01*
X44829600Y-88384400D02*
X47829600Y-88384400D01*
%TO.C,C33*%
X75730980Y-58726800D02*
X75449820Y-58726800D01*
X75730980Y-57706800D02*
X75449820Y-57706800D01*
%TO.C,R39*%
X54532559Y-76429600D02*
X54839841Y-76429600D01*
X54532559Y-77189600D02*
X54839841Y-77189600D01*
%TO.C,R25*%
X61748641Y-86790800D02*
X61441359Y-86790800D01*
X61748641Y-86030800D02*
X61441359Y-86030800D01*
%TO.C,C40*%
X62775593Y-72389390D02*
X62623090Y-72541893D01*
X63284710Y-72898507D02*
X63132207Y-73051010D01*
%TO.C,U12*%
X48499800Y-85691200D02*
X49899800Y-85691200D01*
X49899800Y-83371200D02*
X47999800Y-83371200D01*
%TO.C,C44*%
X68769800Y-67758736D02*
X68769800Y-67543064D01*
X68049800Y-67758736D02*
X68049800Y-67543064D01*
%TO.C,C56*%
X62376164Y-81936000D02*
X62591836Y-81936000D01*
X62376164Y-82656000D02*
X62591836Y-82656000D01*
%TO.C,C143*%
X45408964Y-85831000D02*
X45624636Y-85831000D01*
X45408964Y-85111000D02*
X45624636Y-85111000D01*
%TO.C,C54*%
X70409410Y-84048093D02*
X70256907Y-83895590D01*
X69900293Y-84557210D02*
X69747790Y-84404707D01*
%TO.C,C6*%
X41274390Y-73254107D02*
X41426893Y-73406610D01*
X41783507Y-72744990D02*
X41936010Y-72897493D01*
%TO.C,C45*%
X68769800Y-63733064D02*
X68769800Y-63948736D01*
X68049800Y-63733064D02*
X68049800Y-63948736D01*
%TO.C,R14*%
X68546940Y-83232141D02*
X68329659Y-83014860D01*
X69084341Y-82694740D02*
X68867060Y-82477459D01*
%TO.C,C101*%
X46838107Y-75869190D02*
X46990610Y-76021693D01*
X46328990Y-76378307D02*
X46481493Y-76530810D01*
%TO.C,R40*%
X52226059Y-77132140D02*
X52443340Y-76914859D01*
X52763460Y-77669541D02*
X52980741Y-77452260D01*
%TO.C,C41*%
X63435993Y-73151390D02*
X63283490Y-73303893D01*
X63945110Y-73660507D02*
X63792607Y-73813010D01*
%TO.C,R70*%
X70978700Y-66168241D02*
X70978700Y-65860959D01*
X71738700Y-66168241D02*
X71738700Y-65860959D01*
%TO.C,C2*%
X42513364Y-72013400D02*
X42729036Y-72013400D01*
X42513364Y-71293400D02*
X42729036Y-71293400D01*
%TO.C,C58*%
X67564507Y-80975810D02*
X67717010Y-80823307D01*
X67055390Y-80466693D02*
X67207893Y-80314190D01*
%TO.C,C50*%
X58858036Y-87101000D02*
X58642364Y-87101000D01*
X58858036Y-86381000D02*
X58642364Y-86381000D01*
%TO.C,C47*%
X63722364Y-76331400D02*
X63938036Y-76331400D01*
X63722364Y-75611400D02*
X63938036Y-75611400D01*
%TO.C,C16*%
X43209800Y-79025636D02*
X43209800Y-78809964D01*
X42489800Y-79025636D02*
X42489800Y-78809964D01*
%TO.C,C75*%
X64865364Y-82656000D02*
X65081036Y-82656000D01*
X64865364Y-81936000D02*
X65081036Y-81936000D01*
%TO.C,IC9*%
X73255800Y-67366200D02*
X75255800Y-67366200D01*
X74255800Y-65146200D02*
X75255800Y-65146200D01*
%TO.C,C10*%
X60147810Y-91389707D02*
X59995307Y-91542210D01*
X59638693Y-90880590D02*
X59486190Y-91033093D01*
%TO.C,C66*%
X62793200Y-89789364D02*
X62793200Y-90005036D01*
X62073200Y-89789364D02*
X62073200Y-90005036D01*
%TO.C,C71*%
X70313436Y-92375400D02*
X70097764Y-92375400D01*
X70313436Y-93095400D02*
X70097764Y-93095400D01*
%TO.C,L3*%
X73255600Y-88605579D02*
X73255600Y-88280021D01*
X72235600Y-88605579D02*
X72235600Y-88280021D01*
%TO.C,L2*%
X57198800Y-89113579D02*
X57198800Y-88788021D01*
X58218800Y-89113579D02*
X58218800Y-88788021D01*
%TO.C,C55*%
X69265293Y-85420810D02*
X69112790Y-85268307D01*
X69774410Y-84911693D02*
X69621907Y-84759190D01*
%TO.C,FL2*%
X70121214Y-97589219D02*
X68600934Y-99109499D01*
X70121214Y-96457849D02*
X70121214Y-97589219D01*
X68600934Y-99109499D02*
X66727101Y-97235666D01*
X68813066Y-95149701D02*
X70121214Y-96457849D01*
X66727101Y-97235666D02*
X68813066Y-95149701D01*
%TO.C,C64*%
X64817575Y-87297200D02*
X64970078Y-87449703D01*
X64308458Y-87806317D02*
X64460961Y-87958820D01*
%TO.C,R28*%
X69393800Y-90295759D02*
X69393800Y-90603041D01*
X70153800Y-90295759D02*
X70153800Y-90603041D01*
%TO.C,C63*%
X65179382Y-87240399D02*
X65026879Y-87087896D01*
X65688499Y-86731282D02*
X65535996Y-86578779D01*
%TO.C,L1*%
X58748200Y-88986579D02*
X58748200Y-88661021D01*
X59768200Y-88986579D02*
X59768200Y-88661021D01*
%TO.C,C120*%
X76887800Y-64529580D02*
X76887800Y-64248420D01*
X75867800Y-64529580D02*
X75867800Y-64248420D01*
%TO.C,C95*%
X56245318Y-71992201D02*
X56397821Y-72144704D01*
X55736201Y-72501318D02*
X55888704Y-72653821D01*
%TO.C,R19*%
X64895759Y-83692000D02*
X65203041Y-83692000D01*
X64895759Y-82932000D02*
X65203041Y-82932000D01*
%TO.C,C60*%
X67436493Y-95453810D02*
X67283990Y-95301307D01*
X67945610Y-94944693D02*
X67793107Y-94792190D01*
%TO.C,C62*%
X64313307Y-96292010D02*
X64465810Y-96139507D01*
X63804190Y-95782893D02*
X63956693Y-95630390D01*
%TO.C,U8*%
X63959100Y-89232400D02*
X63484100Y-89232400D01*
X67229100Y-93452400D02*
X67704100Y-93452400D01*
X63484100Y-89232400D02*
X63484100Y-89707400D01*
X67704100Y-89232400D02*
X67704100Y-89707400D01*
X67229100Y-89232400D02*
X67704100Y-89232400D01*
X63959100Y-93452400D02*
X63484100Y-93452400D01*
X63484100Y-93452400D02*
X63484100Y-92977400D01*
%TO.C,R8*%
X40788741Y-78722260D02*
X40571460Y-78939541D01*
X40251340Y-78184859D02*
X40034059Y-78402140D01*
%TO.C,R24*%
X62025559Y-87046800D02*
X62332841Y-87046800D01*
X62025559Y-87806800D02*
X62332841Y-87806800D01*
%TO.C,U3*%
X61618600Y-77511400D02*
X61618600Y-77036400D01*
X61618600Y-77036400D02*
X62093600Y-77036400D01*
X61618600Y-80781400D02*
X61618600Y-81256400D01*
X65838600Y-80781400D02*
X65838600Y-81256400D01*
X65838600Y-77511400D02*
X65838600Y-77036400D01*
X65838600Y-81256400D02*
X65363600Y-81256400D01*
X65838600Y-77036400D02*
X65363600Y-77036400D01*
%TO.C,J6*%
X77664000Y-64626800D02*
X80324000Y-64626800D01*
X77664000Y-56886800D02*
X78994000Y-56886800D01*
X77664000Y-58216800D02*
X77664000Y-56886800D01*
X80324000Y-59486800D02*
X80324000Y-64626800D01*
X77664000Y-59486800D02*
X77664000Y-64626800D01*
X77664000Y-59486800D02*
X80324000Y-59486800D01*
%TO.C,C14*%
X45176779Y-79688504D02*
X45329282Y-79536001D01*
X45685896Y-80197621D02*
X45838399Y-80045118D01*
D13*
%TO.C,D1*%
X47404346Y-78316946D02*
G75*
G03*
X47404346Y-78316946I-50000J0D01*
G01*
D12*
%TO.C,C94*%
X44339696Y-69555021D02*
X44492199Y-69402518D01*
X43830579Y-69045904D02*
X43983082Y-68893401D01*
%TO.C,J3*%
X42492000Y-104500400D02*
X45392000Y-104500400D01*
X40587000Y-99695400D02*
X40587000Y-102595400D01*
X42492000Y-97790400D02*
X45392000Y-97790400D01*
X47297000Y-99695400D02*
X47297000Y-102595400D01*
%TO.C,R13*%
X57913000Y-83008441D02*
X57913000Y-82701159D01*
X58673000Y-83008441D02*
X58673000Y-82701159D01*
%TO.C,RV1*%
X55176800Y-105194600D02*
X48636800Y-105194600D01*
X53026800Y-105194600D02*
X50786800Y-105194600D01*
X53026800Y-101453600D02*
X53026800Y-105194600D01*
X53026800Y-101453600D02*
X50786800Y-101453600D01*
X55176800Y-102499600D02*
X55176800Y-105194600D01*
X48636800Y-102499600D02*
X48636800Y-105194600D01*
X53340800Y-101453600D02*
X50471800Y-101453600D01*
X50786800Y-101453600D02*
X50786800Y-105194600D01*
%TO.C,C18*%
X39944482Y-80814199D02*
X39791979Y-80661696D01*
X40453599Y-80305082D02*
X40301096Y-80152579D01*
%TO.C,C51*%
X71374610Y-86081107D02*
X71222107Y-86233610D01*
X70865493Y-85571990D02*
X70712990Y-85724493D01*
%TO.C,L4*%
X70686200Y-88605579D02*
X70686200Y-88280021D01*
X71706200Y-88605579D02*
X71706200Y-88280021D01*
%TO.C,C130*%
X69780264Y-66086400D02*
X69995936Y-66086400D01*
X69780264Y-66806400D02*
X69995936Y-66806400D01*
%TO.C,R17*%
X59183000Y-80288159D02*
X59183000Y-80595441D01*
X59943000Y-80288159D02*
X59943000Y-80595441D01*
%TO.C,C100*%
X50521210Y-65429893D02*
X50368707Y-65277390D01*
X50012093Y-65939010D02*
X49859590Y-65786507D01*
%TO.C,C53*%
X57933000Y-84893036D02*
X57933000Y-84677364D01*
X58653000Y-84893036D02*
X58653000Y-84677364D01*
%TO.C,U5*%
X44238400Y-77027000D02*
X44238400Y-75127000D01*
X41918400Y-75627000D02*
X41918400Y-77027000D01*
%TO.C,C37*%
X59415000Y-67202164D02*
X59415000Y-67417836D01*
X58695000Y-67202164D02*
X58695000Y-67417836D01*
%TO.C,C80*%
X37587600Y-79584436D02*
X37587600Y-79368764D01*
X38307600Y-79584436D02*
X38307600Y-79368764D01*
%TO.C,C67*%
X62083836Y-88802800D02*
X61868164Y-88802800D01*
X62083836Y-88082800D02*
X61868164Y-88082800D01*
%TO.C,C139*%
X70194900Y-64529580D02*
X70194900Y-64248420D01*
X69174900Y-64529580D02*
X69174900Y-64248420D01*
%TO.C,IC3*%
X66871200Y-63532900D02*
X67346200Y-63532900D01*
X67346200Y-63532900D02*
X67346200Y-64007900D01*
X66871200Y-70752900D02*
X67346200Y-70752900D01*
X67346200Y-70752900D02*
X67346200Y-70277900D01*
X60601200Y-70752900D02*
X60126200Y-70752900D01*
X60601200Y-63532900D02*
X60126200Y-63532900D01*
X60126200Y-70752900D02*
X60126200Y-70277900D01*
%TO.C,C91*%
X54610507Y-63270790D02*
X54763010Y-63423293D01*
X54101390Y-63779907D02*
X54253893Y-63932410D01*
%TO.C,C92*%
X54286036Y-60634200D02*
X54070364Y-60634200D01*
X54286036Y-59914200D02*
X54070364Y-59914200D01*
%TO.C,R27*%
X62787800Y-92073759D02*
X62787800Y-92381041D01*
X62027800Y-92073759D02*
X62027800Y-92381041D01*
%TO.C,C46*%
X68049800Y-65635464D02*
X68049800Y-65851136D01*
X68769800Y-65635464D02*
X68769800Y-65851136D01*
%TO.C,R29*%
X61011800Y-90295759D02*
X61011800Y-90603041D01*
X61771800Y-90295759D02*
X61771800Y-90603041D01*
%TO.C,C52*%
X58949000Y-85401036D02*
X58949000Y-85185364D01*
X59669000Y-85401036D02*
X59669000Y-85185364D01*
%TO.C,C59*%
X66904107Y-95681190D02*
X67056610Y-95833693D01*
X66394990Y-96190307D02*
X66547493Y-96342810D01*
%TO.C,C73*%
X70108400Y-88411164D02*
X70108400Y-88626836D01*
X69388400Y-88411164D02*
X69388400Y-88626836D01*
%TO.C,R10*%
X40717200Y-76272959D02*
X40717200Y-76580241D01*
X41477200Y-76272959D02*
X41477200Y-76580241D01*
%TO.C,R16*%
X62304959Y-82932000D02*
X62612241Y-82932000D01*
X62304959Y-83692000D02*
X62612241Y-83692000D01*
%TO.C,C93*%
X44441399Y-72475918D02*
X44288896Y-72628421D01*
X43932282Y-71966801D02*
X43779779Y-72119304D01*
%TO.C,FL3*%
X64133699Y-97159466D02*
X62825551Y-98467614D01*
X61694181Y-98467614D02*
X60173901Y-96947334D01*
X62047734Y-95073501D02*
X64133699Y-97159466D01*
X60173901Y-96947334D02*
X62047734Y-95073501D01*
X62825551Y-98467614D02*
X61694181Y-98467614D01*
%TO.C,C68*%
X69103700Y-89789364D02*
X69103700Y-90005036D01*
X68383700Y-89789364D02*
X68383700Y-90005036D01*
%TO.C,C48*%
X71094093Y-91288210D02*
X70941590Y-91135707D01*
X71603210Y-90779093D02*
X71450707Y-90626590D01*
%TO.C,R18*%
X67720059Y-81196140D02*
X67937340Y-80978859D01*
X68257460Y-81733541D02*
X68474741Y-81516260D01*
%TO.C,J5*%
X54053200Y-58729471D02*
X54053200Y-59276000D01*
X50308200Y-57056000D02*
X50308200Y-57858470D01*
X54053200Y-57056000D02*
X50308200Y-57056000D01*
X54813200Y-57056000D02*
X55573200Y-57056000D01*
X50308200Y-58473530D02*
X50308200Y-59276000D01*
X54053200Y-57056000D02*
X54053200Y-57602529D01*
X55573200Y-57056000D02*
X55573200Y-58166000D01*
X54053200Y-59276000D02*
X50308200Y-59276000D01*
%TO.C,R26*%
X68377800Y-92073759D02*
X68377800Y-92381041D01*
X69137800Y-92073759D02*
X69137800Y-92381041D01*
%TO.C,J4*%
X70443600Y-58005600D02*
X70553600Y-58005600D01*
X67478600Y-60195600D02*
X67278600Y-60595600D01*
X67678600Y-60595600D02*
X67478600Y-60195600D01*
X56903600Y-58005600D02*
X56903600Y-57405600D01*
X57013600Y-58005600D02*
X56903600Y-58005600D01*
X70553600Y-58005600D02*
X70553600Y-57405600D01*
X67278600Y-60595600D02*
X67678600Y-60595600D01*
%TO.C,R15*%
X66743540Y-84781541D02*
X66526259Y-84564260D01*
X67280941Y-84244140D02*
X67063660Y-84026859D01*
%TO.C,C13*%
X44974696Y-83530779D02*
X45127199Y-83683282D01*
X44465579Y-84039896D02*
X44618082Y-84192399D01*
%TO.C,C17*%
X46939810Y-80797907D02*
X46787307Y-80950410D01*
X46430693Y-80288790D02*
X46278190Y-80441293D01*
%TO.C,C76*%
X66543600Y-78698036D02*
X66543600Y-78482364D01*
X67263600Y-78698036D02*
X67263600Y-78482364D01*
%TD*%
%LPC*%
D14*
G36*
X73177400Y-98831400D02*
G01*
X69824600Y-98831400D01*
X69189600Y-98196400D01*
X70358000Y-97028000D01*
X69596000Y-96266000D01*
X70104000Y-95732600D01*
X73177400Y-95732600D01*
X73177400Y-98831400D01*
G37*
G36*
X62255400Y-98729800D02*
G01*
X63042800Y-97942400D01*
X63627000Y-98526600D01*
X63627000Y-101142800D01*
X60528200Y-101142800D01*
X60528200Y-98069400D01*
X61061600Y-97536000D01*
X62255400Y-98729800D01*
G37*
D15*
X74177400Y-97282000D02*
G75*
G03*
X74177400Y-97282000I-1000000J0D01*
G01*
X63077600Y-101142800D02*
G75*
G03*
X63077600Y-101142800I-1000000J0D01*
G01*
G36*
X33324800Y-94361000D02*
G01*
X39370000Y-94361000D01*
X39370000Y-100406200D01*
X33324800Y-100406200D01*
X33324800Y-94361000D01*
G37*
D14*
G36*
X65532000Y-96189800D02*
G01*
X64389000Y-97332800D01*
X63982600Y-97332800D01*
X61849000Y-95199200D01*
X61849000Y-94843600D01*
X62712600Y-93980000D01*
X65532000Y-93980000D01*
X65532000Y-96189800D01*
G37*
G36*
X42697400Y-92938600D02*
G01*
X45186600Y-92938600D01*
X45186600Y-95427800D01*
X42697400Y-95427800D01*
X42697400Y-92938600D01*
G37*
G36*
X66725800Y-87045800D02*
G01*
X66725800Y-88696800D01*
X64465200Y-88696800D01*
X63220600Y-87452200D01*
X63220600Y-87198200D01*
X64922400Y-85496400D01*
X65176400Y-85496400D01*
X66725800Y-87045800D01*
G37*
G36*
X50825400Y-96621600D02*
G01*
X52603400Y-96621600D01*
X52603400Y-98399600D01*
X50825400Y-98399600D01*
X50825400Y-96621600D01*
G37*
D16*
X44941999Y-101142800D02*
G75*
G03*
X44941999Y-101142800I-999999J0D01*
G01*
D14*
G36*
X68986400Y-94894400D02*
G01*
X68986400Y-95300800D01*
X66852800Y-97434400D01*
X66497200Y-97434400D01*
X65176400Y-96164400D01*
X65176400Y-93980000D01*
X68072000Y-93980000D01*
X68986400Y-94894400D01*
G37*
D17*
%TO.C,J8*%
X35077400Y-64592200D03*
%TD*%
D18*
%TO.C,SW2*%
X38629307Y-63939614D03*
X35694814Y-66874107D03*
X37215093Y-68394386D03*
X40149586Y-65459893D03*
%TD*%
D19*
%TO.C,SW1*%
X41105014Y-66874107D03*
X44039507Y-63939614D03*
X45559786Y-65459893D03*
X42625293Y-68394386D03*
%TD*%
D20*
%TO.C,C129*%
X48691800Y-87424200D03*
X48691800Y-86464200D03*
%TD*%
D21*
%TO.C,U11*%
X45200924Y-70578412D03*
X45554478Y-70224858D03*
X45908031Y-69871305D03*
X46261585Y-69517751D03*
X46615138Y-69164198D03*
X46968691Y-68810645D03*
X47322245Y-68457091D03*
X47675798Y-68103538D03*
X48029351Y-67749985D03*
X48382905Y-67396431D03*
X48736458Y-67042878D03*
X49090012Y-66689324D03*
D22*
X51087588Y-66689324D03*
X51441142Y-67042878D03*
X51794695Y-67396431D03*
X52148249Y-67749985D03*
X52501802Y-68103538D03*
X52855355Y-68457091D03*
X53208909Y-68810645D03*
X53562462Y-69164198D03*
X53916015Y-69517751D03*
X54269569Y-69871305D03*
X54623122Y-70224858D03*
X54976676Y-70578412D03*
D21*
X54976676Y-72575988D03*
X54623122Y-72929542D03*
X54269569Y-73283095D03*
X53916015Y-73636649D03*
X53562462Y-73990202D03*
X53208909Y-74343755D03*
X52855355Y-74697309D03*
X52501802Y-75050862D03*
X52148249Y-75404415D03*
X51794695Y-75757969D03*
X51441142Y-76111522D03*
X51087588Y-76465076D03*
D22*
X49090012Y-76465076D03*
X48736458Y-76111522D03*
X48382905Y-75757969D03*
X48029351Y-75404415D03*
X47675798Y-75050862D03*
X47322245Y-74697309D03*
X46968691Y-74343755D03*
X46615138Y-73990202D03*
X46261585Y-73636649D03*
X45908031Y-73283095D03*
X45554478Y-72929542D03*
X45200924Y-72575988D03*
%TD*%
D23*
%TO.C,J7*%
X47828200Y-60909200D03*
X47828200Y-58369200D03*
X45288200Y-60909200D03*
X45288200Y-58369200D03*
X42748200Y-60909200D03*
X42748200Y-58369200D03*
X40208200Y-60909200D03*
X40208200Y-58369200D03*
X37668200Y-60909200D03*
X37668200Y-58369200D03*
X35128200Y-60909200D03*
D17*
X35128200Y-58369200D03*
%TD*%
D24*
%TO.C,J1*%
X70637400Y-99822000D03*
X75717400Y-94742000D03*
X75717400Y-99822000D03*
X70637400Y-94742000D03*
D25*
X73177400Y-97282000D03*
%TD*%
D26*
%TO.C,U1*%
X34442400Y-78028800D03*
X36092400Y-78028800D03*
X36092400Y-79158800D03*
X34442400Y-79158800D03*
%TD*%
D27*
%TO.C,R9*%
X42797000Y-74168000D03*
X43817000Y-74168000D03*
%TD*%
D28*
%TO.C,C74*%
X62227400Y-93700600D03*
X61267400Y-93700600D03*
%TD*%
D29*
%TO.C,C31*%
X43898178Y-80019211D03*
X44577000Y-79340389D03*
%TD*%
D30*
%TO.C,H1*%
X78663800Y-103759000D03*
D31*
X78663800Y-103759000D03*
%TD*%
D32*
%TO.C,C65*%
X67785100Y-88188800D03*
X68745100Y-88188800D03*
%TD*%
D20*
%TO.C,C12*%
X72374700Y-65527400D03*
X72374700Y-64567400D03*
%TD*%
%TO.C,C57*%
X60579000Y-80921800D03*
X60579000Y-79961800D03*
%TD*%
D33*
%TO.C,R6*%
X45034200Y-78183200D03*
X45034200Y-77163200D03*
%TD*%
D20*
%TO.C,C35*%
X59055000Y-63980000D03*
X59055000Y-63020000D03*
%TD*%
%TO.C,C36*%
X59055000Y-65885000D03*
X59055000Y-64925000D03*
%TD*%
D29*
%TO.C,C61*%
X62906589Y-95411611D03*
X63585411Y-94732789D03*
%TD*%
D20*
%TO.C,C72*%
X60528200Y-89024400D03*
X60528200Y-88064400D03*
%TD*%
D34*
%TO.C,R53*%
X48341224Y-79303824D03*
X47619976Y-78582576D03*
%TD*%
D35*
%TO.C,R71*%
X72374700Y-66465800D03*
X72374700Y-67485800D03*
%TD*%
D36*
%TO.C,R62*%
X39085576Y-77754424D03*
X39806824Y-77033176D03*
%TD*%
D23*
%TO.C,J9*%
X35128200Y-85770800D03*
D17*
X35128200Y-83230800D03*
%TD*%
D37*
%TO.C,R12*%
X60838024Y-83306976D03*
X60116776Y-84028224D03*
%TD*%
D20*
%TO.C,C15*%
X42341800Y-84096800D03*
X42341800Y-83136800D03*
%TD*%
D30*
%TO.C,H2*%
X73329800Y-61290200D03*
D31*
X73329800Y-61290200D03*
%TD*%
D38*
%TO.C,R11*%
X61424876Y-73350176D03*
X62146124Y-74071424D03*
%TD*%
D39*
%TO.C,U22*%
X45042100Y-86524400D03*
X45042100Y-87024400D03*
X45042100Y-87524400D03*
X45042100Y-88024400D03*
X47617100Y-88024400D03*
X47617100Y-87524400D03*
X47617100Y-87024400D03*
X47617100Y-86524400D03*
D40*
X46329600Y-87274400D03*
%TD*%
D41*
%TO.C,C33*%
X74815400Y-58216800D03*
X76365400Y-58216800D03*
%TD*%
D42*
%TO.C,R39*%
X55196200Y-76809600D03*
X54176200Y-76809600D03*
%TD*%
D27*
%TO.C,R25*%
X61085000Y-86410800D03*
X62105000Y-86410800D03*
%TD*%
D29*
%TO.C,C40*%
X62614489Y-73059611D03*
X63293311Y-72380789D03*
%TD*%
D43*
%TO.C,U12*%
X50149800Y-83881200D03*
X50149800Y-85181200D03*
X48249800Y-85181200D03*
X48249800Y-84531200D03*
X48249800Y-83881200D03*
%TD*%
D44*
%TO.C,C44*%
X68409800Y-67170900D03*
X68409800Y-68130900D03*
%TD*%
D28*
%TO.C,C56*%
X62964000Y-82296000D03*
X62004000Y-82296000D03*
%TD*%
%TO.C,C143*%
X45996800Y-85471000D03*
X45036800Y-85471000D03*
%TD*%
D45*
%TO.C,C54*%
X69739189Y-83886989D03*
X70418011Y-84565811D03*
%TD*%
D46*
%TO.C,C6*%
X41265789Y-72736389D03*
X41944611Y-73415211D03*
%TD*%
D20*
%TO.C,C45*%
X68409800Y-64320900D03*
X68409800Y-63360900D03*
%TD*%
D38*
%TO.C,R14*%
X68346376Y-82494176D03*
X69067624Y-83215424D03*
%TD*%
D46*
%TO.C,C101*%
X46999211Y-76539411D03*
X46320389Y-75860589D03*
%TD*%
D37*
%TO.C,R40*%
X52964024Y-76931576D03*
X52242776Y-77652824D03*
%TD*%
D29*
%TO.C,C41*%
X63274889Y-73821611D03*
X63953711Y-73142789D03*
%TD*%
D35*
%TO.C,R70*%
X71358700Y-65504600D03*
X71358700Y-66524600D03*
%TD*%
D28*
%TO.C,C2*%
X42141200Y-71653400D03*
X43101200Y-71653400D03*
%TD*%
D47*
%TO.C,C58*%
X67725611Y-80305589D03*
X67046789Y-80984411D03*
%TD*%
D32*
%TO.C,C50*%
X58270200Y-86741000D03*
X59230200Y-86741000D03*
%TD*%
D28*
%TO.C,C47*%
X64310200Y-75971400D03*
X63350200Y-75971400D03*
%TD*%
D44*
%TO.C,C16*%
X42849800Y-79397800D03*
X42849800Y-78437800D03*
%TD*%
D28*
%TO.C,C75*%
X65453200Y-82296000D03*
X64493200Y-82296000D03*
%TD*%
D48*
%TO.C,IC9*%
X73368300Y-65606200D03*
X73368300Y-66256200D03*
X73368300Y-66906200D03*
X75143300Y-66906200D03*
X75143300Y-66256200D03*
X75143300Y-65606200D03*
D49*
X74255800Y-66256200D03*
%TD*%
D29*
%TO.C,C10*%
X59477589Y-91550811D03*
X60156411Y-90871989D03*
%TD*%
D20*
%TO.C,C66*%
X62433200Y-90377200D03*
X62433200Y-89417200D03*
%TD*%
D32*
%TO.C,C71*%
X69725600Y-92735400D03*
X70685600Y-92735400D03*
%TD*%
D50*
%TO.C,L3*%
X72745600Y-87655300D03*
X72745600Y-89230300D03*
%TD*%
%TO.C,L2*%
X57708800Y-88163300D03*
X57708800Y-89738300D03*
%TD*%
D45*
%TO.C,C55*%
X69104189Y-84750589D03*
X69783011Y-85429411D03*
%TD*%
D51*
%TO.C,FL2*%
X68724678Y-98031161D03*
X68265058Y-97571542D03*
X67805439Y-97111922D03*
X68689322Y-96228039D03*
X69148942Y-96687658D03*
X69608561Y-97147278D03*
%TD*%
D46*
%TO.C,C64*%
X64978679Y-87967421D03*
X64299857Y-87288599D03*
%TD*%
D33*
%TO.C,R28*%
X69773800Y-90959400D03*
X69773800Y-89939400D03*
%TD*%
D45*
%TO.C,C63*%
X65018278Y-86570178D03*
X65697100Y-87249000D03*
%TD*%
D50*
%TO.C,L1*%
X59258200Y-88036300D03*
X59258200Y-89611300D03*
%TD*%
D52*
%TO.C,C120*%
X76377800Y-63614000D03*
X76377800Y-65164000D03*
%TD*%
D46*
%TO.C,C95*%
X56406422Y-72662422D03*
X55727600Y-71983600D03*
%TD*%
D42*
%TO.C,R19*%
X65559400Y-83312000D03*
X64539400Y-83312000D03*
%TD*%
D45*
%TO.C,C60*%
X67275389Y-94783589D03*
X67954211Y-95462411D03*
%TD*%
D47*
%TO.C,C62*%
X64474411Y-95621789D03*
X63795589Y-96300611D03*
%TD*%
D53*
%TO.C,U8*%
X67531600Y-92592400D03*
X67531600Y-92092400D03*
X67531600Y-91592400D03*
X67531600Y-91092400D03*
X67531600Y-90592400D03*
X67531600Y-90092400D03*
D54*
X66844100Y-89404900D03*
X66344100Y-89404900D03*
X65844100Y-89404900D03*
X65344100Y-89404900D03*
X64844100Y-89404900D03*
X64344100Y-89404900D03*
D53*
X63656600Y-90092400D03*
X63656600Y-90592400D03*
X63656600Y-91092400D03*
X63656600Y-91592400D03*
X63656600Y-92092400D03*
X63656600Y-92592400D03*
D54*
X64344100Y-93279900D03*
X64844100Y-93279900D03*
X65344100Y-93279900D03*
X65844100Y-93279900D03*
X66344100Y-93279900D03*
X66844100Y-93279900D03*
D55*
X65594100Y-91342400D03*
%TD*%
D36*
%TO.C,R8*%
X40050776Y-78922824D03*
X40772024Y-78201576D03*
%TD*%
D42*
%TO.C,R24*%
X62689200Y-87426800D03*
X61669200Y-87426800D03*
%TD*%
D56*
%TO.C,U3*%
X62478600Y-81083900D03*
X62978600Y-81083900D03*
X63478600Y-81083900D03*
X63978600Y-81083900D03*
X64478600Y-81083900D03*
X64978600Y-81083900D03*
D57*
X65666100Y-80396400D03*
X65666100Y-79896400D03*
X65666100Y-79396400D03*
X65666100Y-78896400D03*
X65666100Y-78396400D03*
X65666100Y-77896400D03*
D56*
X64978600Y-77208900D03*
X64478600Y-77208900D03*
X63978600Y-77208900D03*
X63478600Y-77208900D03*
X62978600Y-77208900D03*
X62478600Y-77208900D03*
D57*
X61791100Y-77896400D03*
X61791100Y-78396400D03*
X61791100Y-78896400D03*
X61791100Y-79396400D03*
X61791100Y-79896400D03*
X61791100Y-80396400D03*
D55*
X63728600Y-79146400D03*
%TD*%
D23*
%TO.C,J6*%
X78994000Y-63296800D03*
X78994000Y-60756800D03*
D17*
X78994000Y-58216800D03*
%TD*%
D47*
%TO.C,C14*%
X45847000Y-79527400D03*
X45168178Y-80206222D03*
%TD*%
D58*
%TO.C,D1*%
X46240653Y-77203253D03*
X46926547Y-77889147D03*
%TD*%
D47*
%TO.C,C94*%
X44500800Y-68884800D03*
X43821978Y-69563622D03*
%TD*%
D24*
%TO.C,J3*%
X41402000Y-98605400D03*
X46482000Y-103685400D03*
X46482000Y-98605400D03*
X41402000Y-103685400D03*
D25*
X43942000Y-101145400D03*
%TD*%
D35*
%TO.C,R13*%
X58293000Y-82344800D03*
X58293000Y-83364800D03*
%TD*%
D59*
%TO.C,RV1*%
X54406800Y-101574600D03*
X51906800Y-104074600D03*
X49406800Y-101574600D03*
%TD*%
D45*
%TO.C,C18*%
X39783378Y-80143978D03*
X40462200Y-80822800D03*
%TD*%
D29*
%TO.C,C51*%
X70704389Y-86242211D03*
X71383211Y-85563389D03*
%TD*%
D50*
%TO.C,L4*%
X71196200Y-87655300D03*
X71196200Y-89230300D03*
%TD*%
D28*
%TO.C,C130*%
X70368100Y-66446400D03*
X69408100Y-66446400D03*
%TD*%
D33*
%TO.C,R17*%
X59563000Y-80951800D03*
X59563000Y-79931800D03*
%TD*%
D45*
%TO.C,C100*%
X49850989Y-65268789D03*
X50529811Y-65947611D03*
%TD*%
D44*
%TO.C,C53*%
X58293000Y-84305200D03*
X58293000Y-85265200D03*
%TD*%
D60*
%TO.C,U5*%
X43728400Y-77277000D03*
X42428400Y-77277000D03*
X42428400Y-75377000D03*
X43078400Y-75377000D03*
X43728400Y-75377000D03*
%TD*%
D20*
%TO.C,C37*%
X59055000Y-67790000D03*
X59055000Y-66830000D03*
%TD*%
D44*
%TO.C,C80*%
X37947600Y-78996600D03*
X37947600Y-79956600D03*
%TD*%
D32*
%TO.C,C67*%
X61496000Y-88442800D03*
X62456000Y-88442800D03*
%TD*%
D52*
%TO.C,C139*%
X69684900Y-63614000D03*
X69684900Y-65164000D03*
%TD*%
D61*
%TO.C,IC3*%
X60298700Y-64392900D03*
X60298700Y-64892900D03*
X60298700Y-65392900D03*
X60298700Y-65892900D03*
X60298700Y-66392900D03*
X60298700Y-66892900D03*
X60298700Y-67392900D03*
X60298700Y-67892900D03*
X60298700Y-68392900D03*
X60298700Y-68892900D03*
X60298700Y-69392900D03*
X60298700Y-69892900D03*
D62*
X60986200Y-70580400D03*
X61486200Y-70580400D03*
X61986200Y-70580400D03*
X62486200Y-70580400D03*
X62986200Y-70580400D03*
X63486200Y-70580400D03*
X63986200Y-70580400D03*
X64486200Y-70580400D03*
X64986200Y-70580400D03*
X65486200Y-70580400D03*
X65986200Y-70580400D03*
X66486200Y-70580400D03*
D61*
X67173700Y-69892900D03*
X67173700Y-69392900D03*
X67173700Y-68892900D03*
X67173700Y-68392900D03*
X67173700Y-67892900D03*
X67173700Y-67392900D03*
X67173700Y-66892900D03*
X67173700Y-66392900D03*
X67173700Y-65892900D03*
X67173700Y-65392900D03*
X67173700Y-64892900D03*
X67173700Y-64392900D03*
D62*
X66486200Y-63705400D03*
X65986200Y-63705400D03*
X65486200Y-63705400D03*
X64986200Y-63705400D03*
X64486200Y-63705400D03*
X63986200Y-63705400D03*
X63486200Y-63705400D03*
X62986200Y-63705400D03*
X62486200Y-63705400D03*
X61986200Y-63705400D03*
X61486200Y-63705400D03*
X60986200Y-63705400D03*
D63*
X63736200Y-67142900D03*
%TD*%
D46*
%TO.C,C91*%
X54771611Y-63941011D03*
X54092789Y-63262189D03*
%TD*%
D32*
%TO.C,C92*%
X53698200Y-60274200D03*
X54658200Y-60274200D03*
%TD*%
D33*
%TO.C,R27*%
X62407800Y-92737400D03*
X62407800Y-91717400D03*
%TD*%
D20*
%TO.C,C46*%
X68409800Y-66223300D03*
X68409800Y-65263300D03*
%TD*%
D33*
%TO.C,R29*%
X61391800Y-90959400D03*
X61391800Y-89939400D03*
%TD*%
D44*
%TO.C,C52*%
X59309000Y-84813200D03*
X59309000Y-85773200D03*
%TD*%
D46*
%TO.C,C59*%
X67065211Y-96351411D03*
X66386389Y-95672589D03*
%TD*%
D20*
%TO.C,C73*%
X69748400Y-88999000D03*
X69748400Y-88039000D03*
%TD*%
D33*
%TO.C,R10*%
X41097200Y-76936600D03*
X41097200Y-75916600D03*
%TD*%
D42*
%TO.C,R16*%
X62968600Y-83312000D03*
X61948600Y-83312000D03*
%TD*%
D29*
%TO.C,C93*%
X43771178Y-72637022D03*
X44450000Y-71958200D03*
%TD*%
D64*
%TO.C,FL3*%
X61252239Y-97071078D03*
X61711858Y-96611458D03*
X62171478Y-96151839D03*
X63055361Y-97035722D03*
X62595742Y-97495342D03*
X62136122Y-97954961D03*
%TD*%
D20*
%TO.C,C68*%
X68743700Y-90377200D03*
X68743700Y-89417200D03*
%TD*%
D31*
%TO.C,H3*%
X35306000Y-103733600D03*
D30*
X35306000Y-103733600D03*
%TD*%
D45*
%TO.C,C48*%
X70932989Y-90617989D03*
X71611811Y-91296811D03*
%TD*%
D37*
%TO.C,R18*%
X68458024Y-80995576D03*
X67736776Y-81716824D03*
%TD*%
D65*
%TO.C,J5*%
X51003200Y-58166000D03*
X52273200Y-58166000D03*
X53543200Y-58166000D03*
D66*
X54813200Y-58166000D03*
%TD*%
D33*
%TO.C,R26*%
X68757800Y-92737400D03*
X68757800Y-91717400D03*
%TD*%
D67*
%TO.C,J4*%
X69148600Y-59695600D03*
X58308600Y-59695600D03*
D68*
X59978600Y-61395600D03*
X60478600Y-61395600D03*
X60978600Y-61395600D03*
X61478600Y-61395600D03*
X61978600Y-61395600D03*
X62478600Y-61395600D03*
X62978600Y-61395600D03*
X63478600Y-61395600D03*
X63978600Y-61395600D03*
X64478600Y-61395600D03*
X64978600Y-61395600D03*
X65478600Y-61395600D03*
X65978600Y-61395600D03*
X66478600Y-61395600D03*
X66978600Y-61395600D03*
X67478600Y-61395600D03*
%TD*%
D38*
%TO.C,R15*%
X66542976Y-84043576D03*
X67264224Y-84764824D03*
%TD*%
D24*
%TO.C,J2*%
X64617600Y-98602800D03*
X59537600Y-98602800D03*
X59537600Y-103682800D03*
X64617600Y-103682800D03*
D25*
X62077600Y-101142800D03*
%TD*%
D46*
%TO.C,C13*%
X44456978Y-83522178D03*
X45135800Y-84201000D03*
%TD*%
D29*
%TO.C,C17*%
X46269589Y-80959011D03*
X46948411Y-80280189D03*
%TD*%
D69*
%TO.C,U4*%
X40722800Y-81933800D03*
X41992800Y-79203800D03*
X44722800Y-80473800D03*
X41992800Y-81933800D03*
X43452800Y-81933800D03*
X44722800Y-81933800D03*
X41992800Y-80473800D03*
X43452800Y-80473800D03*
X41992800Y-83203800D03*
X40722800Y-80473800D03*
X43452800Y-79203800D03*
X43422800Y-83203800D03*
%TD*%
D44*
%TO.C,C76*%
X66903600Y-78110200D03*
X66903600Y-79070200D03*
%TD*%
M02*
