%FSLAX45Y45*%
G04 Gerber Fmt 4.5, Leading zero omitted, Abs format (unit mm)*
G04 Created by KiCad (PCBNEW (6.0.4)) date 2023-05-09 11:01:37*
%MOMM*%
%LPD*%
G01*
G04 APERTURE LIST*
%TA.AperFunction,Profile*%
%ADD10C,0.100000*%
%TD*%
%ADD11C,0.200000*%
%ADD12C,0.030000*%
%ADD13C,0.220000*%
G04 APERTURE END LIST*
D10*
X13650000Y-14100000D02*
X11150000Y-14100000D01*
X11150000Y-14100000D02*
X11150000Y-4300000D01*
X11150000Y-4300000D02*
X13650000Y-4300000D01*
X13650000Y-4300000D02*
X13650000Y-14100000D01*
D11*
D12*
X12315000Y-5370000D02*
X12345000Y-5400000D01*
X12345000Y-5370000D02*
X12315000Y-5400000D01*
X12315000Y-7905000D02*
X12345000Y-7935000D01*
X12345000Y-7905000D02*
X12315000Y-7935000D01*
X12315000Y-10450000D02*
X12345000Y-10480000D01*
X12345000Y-10450000D02*
X12315000Y-10480000D01*
X12315000Y-12985000D02*
X12345000Y-13015000D01*
X12345000Y-12985000D02*
X12315000Y-13015000D01*
X12945000Y-9252500D02*
X12975000Y-9282500D01*
X12975000Y-9252500D02*
X12945000Y-9282500D01*
X12945000Y-9517500D02*
X12975000Y-9547500D01*
X12975000Y-9517500D02*
X12945000Y-9547500D01*
X12945000Y-9787500D02*
X12975000Y-9817500D01*
X12975000Y-9787500D02*
X12945000Y-9817500D01*
X12945000Y-10005000D02*
X12975000Y-10035000D01*
X12975000Y-10005000D02*
X12945000Y-10035000D01*
X12945000Y-10250000D02*
X12975000Y-10280000D01*
X12975000Y-10250000D02*
X12945000Y-10280000D01*
X12945000Y-10415000D02*
X12975000Y-10445000D01*
X12975000Y-10415000D02*
X12945000Y-10445000D01*
X12947500Y-9085000D02*
X12977500Y-9115000D01*
X12977500Y-9085000D02*
X12947500Y-9115000D01*
X12992500Y-11422500D02*
X13022500Y-11452500D01*
X13022500Y-11422500D02*
X12992500Y-11452500D01*
X13005000Y-10767500D02*
X13035000Y-10797500D01*
X13035000Y-10767500D02*
X13005000Y-10797500D01*
X13030000Y-10522500D02*
X13060000Y-10552500D01*
X13060000Y-10522500D02*
X13030000Y-10552500D01*
X13045000Y-11202500D02*
X13075000Y-11232500D01*
X13075000Y-11202500D02*
X13045000Y-11232500D01*
X13085000Y-9145000D02*
X13115000Y-9175000D01*
X13115000Y-9145000D02*
X13085000Y-9175000D01*
X13092500Y-10415000D02*
X13122500Y-10445000D01*
X13122500Y-10415000D02*
X13092500Y-10445000D01*
X13095000Y-10862500D02*
X13125000Y-10892500D01*
X13125000Y-10862500D02*
X13095000Y-10892500D01*
X13110000Y-9400000D02*
X13140000Y-9430000D01*
X13140000Y-9400000D02*
X13110000Y-9430000D01*
X13110000Y-9670000D02*
X13140000Y-9700000D01*
X13140000Y-9670000D02*
X13110000Y-9700000D01*
X13110000Y-10085000D02*
X13140000Y-10115000D01*
X13140000Y-10085000D02*
X13110000Y-10115000D01*
X13112500Y-11015000D02*
X13142500Y-11045000D01*
X13142500Y-11015000D02*
X13112500Y-11045000D01*
X13117500Y-8410000D02*
X13147500Y-8440000D01*
X13147500Y-8410000D02*
X13117500Y-8440000D01*
X13120000Y-11460000D02*
X13150000Y-11490000D01*
X13150000Y-11460000D02*
X13120000Y-11490000D01*
X13170000Y-7175000D02*
X13200000Y-7205000D01*
X13200000Y-7175000D02*
X13170000Y-7205000D01*
X13170000Y-7277500D02*
X13200000Y-7307500D01*
X13200000Y-7277500D02*
X13170000Y-7307500D01*
X13170140Y-7682840D02*
X13200140Y-7712840D01*
X13200140Y-7682840D02*
X13170140Y-7712840D01*
X13170140Y-7785340D02*
X13200140Y-7815340D01*
X13200140Y-7785340D02*
X13170140Y-7815340D01*
X13190000Y-9515000D02*
X13220000Y-9545000D01*
X13220000Y-9515000D02*
X13190000Y-9545000D01*
X13242500Y-10415000D02*
X13272500Y-10445000D01*
X13272500Y-10415000D02*
X13242500Y-10445000D01*
X13260000Y-9275000D02*
X13290000Y-9305000D01*
X13290000Y-9275000D02*
X13260000Y-9305000D01*
X13265000Y-11460000D02*
X13295000Y-11490000D01*
X13295000Y-11460000D02*
X13265000Y-11490000D01*
X13272500Y-11015000D02*
X13302500Y-11045000D01*
X13302500Y-11015000D02*
X13272500Y-11045000D01*
X13290000Y-10862500D02*
X13320000Y-10892500D01*
X13320000Y-10862500D02*
X13290000Y-10892500D01*
X13295000Y-9515000D02*
X13325000Y-9545000D01*
X13325000Y-9515000D02*
X13295000Y-9545000D01*
X13307500Y-10572500D02*
X13337500Y-10602500D01*
X13337500Y-10572500D02*
X13307500Y-10602500D01*
X13324250Y-9940750D02*
X13354250Y-9970750D01*
X13354250Y-9940750D02*
X13324250Y-9970750D01*
X13328000Y-10417000D02*
X13358000Y-10447000D01*
X13358000Y-10417000D02*
X13328000Y-10447000D01*
X13340000Y-11202500D02*
X13370000Y-11232500D01*
X13370000Y-11202500D02*
X13340000Y-11232500D01*
X13392500Y-11422500D02*
X13422500Y-11452500D01*
X13422500Y-11422500D02*
X13392500Y-11452500D01*
X13402500Y-8827500D02*
X13432500Y-8857500D01*
X13432500Y-8827500D02*
X13402500Y-8857500D01*
X13412500Y-10085000D02*
X13442500Y-10115000D01*
X13442500Y-10085000D02*
X13412500Y-10115000D01*
X13417500Y-9807500D02*
X13447500Y-9837500D01*
X13447500Y-9807500D02*
X13417500Y-9837500D01*
X13432500Y-9645000D02*
X13462500Y-9675000D01*
X13462500Y-9645000D02*
X13432500Y-9675000D01*
X13437500Y-9467500D02*
X13467500Y-9497500D01*
X13467500Y-9467500D02*
X13437500Y-9497500D01*
X13477500Y-8465000D02*
X13507500Y-8495000D01*
X13507500Y-8465000D02*
X13477500Y-8495000D01*
X13477500Y-10415000D02*
X13507500Y-10445000D01*
X13507500Y-10415000D02*
X13477500Y-10445000D01*
X13567500Y-10085000D02*
X13597500Y-10115000D01*
X13597500Y-10085000D02*
X13567500Y-10115000D01*
D13*
X13517500Y-5385000D02*
G75*
G03*
X13517500Y-5385000I-110000J0D01*
G01*
X13517500Y-13000000D02*
G75*
G03*
X13517500Y-13000000I-110000J0D01*
G01*
D11*
X11402619Y-14415476D02*
X11402619Y-14215476D01*
X11450238Y-14215476D01*
X11478809Y-14225000D01*
X11497857Y-14244048D01*
X11507381Y-14263095D01*
X11516905Y-14301190D01*
X11516905Y-14329762D01*
X11507381Y-14367857D01*
X11497857Y-14386905D01*
X11478809Y-14405952D01*
X11450238Y-14415476D01*
X11402619Y-14415476D01*
X11602619Y-14415476D02*
X11602619Y-14282143D01*
X11602619Y-14320238D02*
X11612143Y-14301190D01*
X11621667Y-14291667D01*
X11640714Y-14282143D01*
X11659762Y-14282143D01*
X11726428Y-14415476D02*
X11726428Y-14282143D01*
X11726428Y-14215476D02*
X11716905Y-14225000D01*
X11726428Y-14234524D01*
X11735952Y-14225000D01*
X11726428Y-14215476D01*
X11726428Y-14234524D01*
X11850238Y-14415476D02*
X11831190Y-14405952D01*
X11821667Y-14386905D01*
X11821667Y-14215476D01*
X11955000Y-14415476D02*
X11935952Y-14405952D01*
X11926428Y-14386905D01*
X11926428Y-14215476D01*
X12183571Y-14415476D02*
X12183571Y-14215476D01*
X12250238Y-14358333D01*
X12316905Y-14215476D01*
X12316905Y-14415476D01*
X12497857Y-14415476D02*
X12497857Y-14310714D01*
X12488333Y-14291667D01*
X12469286Y-14282143D01*
X12431190Y-14282143D01*
X12412143Y-14291667D01*
X12497857Y-14405952D02*
X12478809Y-14415476D01*
X12431190Y-14415476D01*
X12412143Y-14405952D01*
X12402619Y-14386905D01*
X12402619Y-14367857D01*
X12412143Y-14348809D01*
X12431190Y-14339286D01*
X12478809Y-14339286D01*
X12497857Y-14329762D01*
X12593095Y-14282143D02*
X12593095Y-14482143D01*
X12593095Y-14291667D02*
X12612143Y-14282143D01*
X12650238Y-14282143D01*
X12669286Y-14291667D01*
X12678809Y-14301190D01*
X12688333Y-14320238D01*
X12688333Y-14377381D01*
X12678809Y-14396428D01*
X12669286Y-14405952D01*
X12650238Y-14415476D01*
X12612143Y-14415476D01*
X12593095Y-14405952D01*
X12774048Y-14396428D02*
X12783571Y-14405952D01*
X12774048Y-14415476D01*
X12764524Y-14405952D01*
X12774048Y-14396428D01*
X12774048Y-14415476D01*
X12774048Y-14291667D02*
X12783571Y-14301190D01*
X12774048Y-14310714D01*
X12764524Y-14301190D01*
X12774048Y-14291667D01*
X12774048Y-14310714D01*
D12*
X11115000Y-14730000D02*
X11145000Y-14760000D01*
X11145000Y-14730000D02*
X11115000Y-14760000D01*
D11*
X11440714Y-14635476D02*
X11459762Y-14635476D01*
X11478809Y-14645000D01*
X11488333Y-14654524D01*
X11497857Y-14673571D01*
X11507381Y-14711667D01*
X11507381Y-14759286D01*
X11497857Y-14797381D01*
X11488333Y-14816428D01*
X11478809Y-14825952D01*
X11459762Y-14835476D01*
X11440714Y-14835476D01*
X11421667Y-14825952D01*
X11412143Y-14816428D01*
X11402619Y-14797381D01*
X11393095Y-14759286D01*
X11393095Y-14711667D01*
X11402619Y-14673571D01*
X11412143Y-14654524D01*
X11421667Y-14645000D01*
X11440714Y-14635476D01*
X11593095Y-14816428D02*
X11602619Y-14825952D01*
X11593095Y-14835476D01*
X11583571Y-14825952D01*
X11593095Y-14816428D01*
X11593095Y-14835476D01*
X11669286Y-14635476D02*
X11793095Y-14635476D01*
X11726428Y-14711667D01*
X11755000Y-14711667D01*
X11774048Y-14721190D01*
X11783571Y-14730714D01*
X11793095Y-14749762D01*
X11793095Y-14797381D01*
X11783571Y-14816428D01*
X11774048Y-14825952D01*
X11755000Y-14835476D01*
X11697857Y-14835476D01*
X11678809Y-14825952D01*
X11669286Y-14816428D01*
X11916905Y-14635476D02*
X11935952Y-14635476D01*
X11955000Y-14645000D01*
X11964524Y-14654524D01*
X11974048Y-14673571D01*
X11983571Y-14711667D01*
X11983571Y-14759286D01*
X11974048Y-14797381D01*
X11964524Y-14816428D01*
X11955000Y-14825952D01*
X11935952Y-14835476D01*
X11916905Y-14835476D01*
X11897857Y-14825952D01*
X11888333Y-14816428D01*
X11878809Y-14797381D01*
X11869286Y-14759286D01*
X11869286Y-14711667D01*
X11878809Y-14673571D01*
X11888333Y-14654524D01*
X11897857Y-14645000D01*
X11916905Y-14635476D01*
X12107381Y-14635476D02*
X12126428Y-14635476D01*
X12145476Y-14645000D01*
X12155000Y-14654524D01*
X12164524Y-14673571D01*
X12174048Y-14711667D01*
X12174048Y-14759286D01*
X12164524Y-14797381D01*
X12155000Y-14816428D01*
X12145476Y-14825952D01*
X12126428Y-14835476D01*
X12107381Y-14835476D01*
X12088333Y-14825952D01*
X12078809Y-14816428D01*
X12069286Y-14797381D01*
X12059762Y-14759286D01*
X12059762Y-14711667D01*
X12069286Y-14673571D01*
X12078809Y-14654524D01*
X12088333Y-14645000D01*
X12107381Y-14635476D01*
X12259762Y-14835476D02*
X12259762Y-14702143D01*
X12259762Y-14721190D02*
X12269286Y-14711667D01*
X12288333Y-14702143D01*
X12316905Y-14702143D01*
X12335952Y-14711667D01*
X12345476Y-14730714D01*
X12345476Y-14835476D01*
X12345476Y-14730714D02*
X12355000Y-14711667D01*
X12374048Y-14702143D01*
X12402619Y-14702143D01*
X12421667Y-14711667D01*
X12431190Y-14730714D01*
X12431190Y-14835476D01*
X12526428Y-14835476D02*
X12526428Y-14702143D01*
X12526428Y-14721190D02*
X12535952Y-14711667D01*
X12555000Y-14702143D01*
X12583571Y-14702143D01*
X12602619Y-14711667D01*
X12612143Y-14730714D01*
X12612143Y-14835476D01*
X12612143Y-14730714D02*
X12621667Y-14711667D01*
X12640714Y-14702143D01*
X12669286Y-14702143D01*
X12688333Y-14711667D01*
X12697857Y-14730714D01*
X12697857Y-14835476D01*
X13088333Y-14625952D02*
X12916905Y-14883095D01*
X13345476Y-14635476D02*
X13364524Y-14635476D01*
X13383571Y-14645000D01*
X13393095Y-14654524D01*
X13402619Y-14673571D01*
X13412143Y-14711667D01*
X13412143Y-14759286D01*
X13402619Y-14797381D01*
X13393095Y-14816428D01*
X13383571Y-14825952D01*
X13364524Y-14835476D01*
X13345476Y-14835476D01*
X13326428Y-14825952D01*
X13316905Y-14816428D01*
X13307381Y-14797381D01*
X13297857Y-14759286D01*
X13297857Y-14711667D01*
X13307381Y-14673571D01*
X13316905Y-14654524D01*
X13326428Y-14645000D01*
X13345476Y-14635476D01*
X13497857Y-14816428D02*
X13507381Y-14825952D01*
X13497857Y-14835476D01*
X13488333Y-14825952D01*
X13497857Y-14816428D01*
X13497857Y-14835476D01*
X13631190Y-14635476D02*
X13650238Y-14635476D01*
X13669286Y-14645000D01*
X13678809Y-14654524D01*
X13688333Y-14673571D01*
X13697857Y-14711667D01*
X13697857Y-14759286D01*
X13688333Y-14797381D01*
X13678809Y-14816428D01*
X13669286Y-14825952D01*
X13650238Y-14835476D01*
X13631190Y-14835476D01*
X13612143Y-14825952D01*
X13602619Y-14816428D01*
X13593095Y-14797381D01*
X13583571Y-14759286D01*
X13583571Y-14711667D01*
X13593095Y-14673571D01*
X13602619Y-14654524D01*
X13612143Y-14645000D01*
X13631190Y-14635476D01*
X13888333Y-14835476D02*
X13774048Y-14835476D01*
X13831190Y-14835476D02*
X13831190Y-14635476D01*
X13812143Y-14664048D01*
X13793095Y-14683095D01*
X13774048Y-14692619D01*
X14078809Y-14835476D02*
X13964524Y-14835476D01*
X14021667Y-14835476D02*
X14021667Y-14635476D01*
X14002619Y-14664048D01*
X13983571Y-14683095D01*
X13964524Y-14692619D01*
X14193095Y-14721190D02*
X14174048Y-14711667D01*
X14164524Y-14702143D01*
X14155000Y-14683095D01*
X14155000Y-14673571D01*
X14164524Y-14654524D01*
X14174048Y-14645000D01*
X14193095Y-14635476D01*
X14231190Y-14635476D01*
X14250238Y-14645000D01*
X14259762Y-14654524D01*
X14269286Y-14673571D01*
X14269286Y-14683095D01*
X14259762Y-14702143D01*
X14250238Y-14711667D01*
X14231190Y-14721190D01*
X14193095Y-14721190D01*
X14174048Y-14730714D01*
X14164524Y-14740238D01*
X14155000Y-14759286D01*
X14155000Y-14797381D01*
X14164524Y-14816428D01*
X14174048Y-14825952D01*
X14193095Y-14835476D01*
X14231190Y-14835476D01*
X14250238Y-14825952D01*
X14259762Y-14816428D01*
X14269286Y-14797381D01*
X14269286Y-14759286D01*
X14259762Y-14740238D01*
X14250238Y-14730714D01*
X14231190Y-14721190D01*
X14345476Y-14635476D02*
X14345476Y-14673571D01*
X14421667Y-14635476D02*
X14421667Y-14673571D01*
X14716905Y-14911667D02*
X14707381Y-14902143D01*
X14688333Y-14873571D01*
X14678809Y-14854524D01*
X14669286Y-14825952D01*
X14659762Y-14778333D01*
X14659762Y-14740238D01*
X14669286Y-14692619D01*
X14678809Y-14664048D01*
X14688333Y-14645000D01*
X14707381Y-14616428D01*
X14716905Y-14606905D01*
X14878809Y-14702143D02*
X14878809Y-14835476D01*
X14831190Y-14625952D02*
X14783571Y-14768809D01*
X14907381Y-14768809D01*
X15012143Y-14721190D02*
X14993095Y-14711667D01*
X14983571Y-14702143D01*
X14974048Y-14683095D01*
X14974048Y-14673571D01*
X14983571Y-14654524D01*
X14993095Y-14645000D01*
X15012143Y-14635476D01*
X15050238Y-14635476D01*
X15069286Y-14645000D01*
X15078809Y-14654524D01*
X15088333Y-14673571D01*
X15088333Y-14683095D01*
X15078809Y-14702143D01*
X15069286Y-14711667D01*
X15050238Y-14721190D01*
X15012143Y-14721190D01*
X14993095Y-14730714D01*
X14983571Y-14740238D01*
X14974048Y-14759286D01*
X14974048Y-14797381D01*
X14983571Y-14816428D01*
X14993095Y-14825952D01*
X15012143Y-14835476D01*
X15050238Y-14835476D01*
X15069286Y-14825952D01*
X15078809Y-14816428D01*
X15088333Y-14797381D01*
X15088333Y-14759286D01*
X15078809Y-14740238D01*
X15069286Y-14730714D01*
X15050238Y-14721190D01*
X15326428Y-14835476D02*
X15326428Y-14635476D01*
X15412143Y-14835476D02*
X15412143Y-14730714D01*
X15402619Y-14711667D01*
X15383571Y-14702143D01*
X15355000Y-14702143D01*
X15335952Y-14711667D01*
X15326428Y-14721190D01*
X15535952Y-14835476D02*
X15516905Y-14825952D01*
X15507381Y-14816428D01*
X15497857Y-14797381D01*
X15497857Y-14740238D01*
X15507381Y-14721190D01*
X15516905Y-14711667D01*
X15535952Y-14702143D01*
X15564524Y-14702143D01*
X15583571Y-14711667D01*
X15593095Y-14721190D01*
X15602619Y-14740238D01*
X15602619Y-14797381D01*
X15593095Y-14816428D01*
X15583571Y-14825952D01*
X15564524Y-14835476D01*
X15535952Y-14835476D01*
X15716905Y-14835476D02*
X15697857Y-14825952D01*
X15688333Y-14806905D01*
X15688333Y-14635476D01*
X15869286Y-14825952D02*
X15850238Y-14835476D01*
X15812143Y-14835476D01*
X15793095Y-14825952D01*
X15783571Y-14806905D01*
X15783571Y-14730714D01*
X15793095Y-14711667D01*
X15812143Y-14702143D01*
X15850238Y-14702143D01*
X15869286Y-14711667D01*
X15878809Y-14730714D01*
X15878809Y-14749762D01*
X15783571Y-14768809D01*
X15955000Y-14825952D02*
X15974048Y-14835476D01*
X16012143Y-14835476D01*
X16031190Y-14825952D01*
X16040714Y-14806905D01*
X16040714Y-14797381D01*
X16031190Y-14778333D01*
X16012143Y-14768809D01*
X15983571Y-14768809D01*
X15964524Y-14759286D01*
X15955000Y-14740238D01*
X15955000Y-14730714D01*
X15964524Y-14711667D01*
X15983571Y-14702143D01*
X16012143Y-14702143D01*
X16031190Y-14711667D01*
X16107381Y-14911667D02*
X16116905Y-14902143D01*
X16135952Y-14873571D01*
X16145476Y-14854524D01*
X16155000Y-14825952D01*
X16164524Y-14778333D01*
X16164524Y-14740238D01*
X16155000Y-14692619D01*
X16145476Y-14664048D01*
X16135952Y-14645000D01*
X16116905Y-14616428D01*
X16107381Y-14606905D01*
X11145000Y-15009000D02*
G75*
G03*
X11145000Y-15009000I-100000J0D01*
G01*
X11393095Y-14918524D02*
X11402619Y-14909000D01*
X11421667Y-14899476D01*
X11469286Y-14899476D01*
X11488333Y-14909000D01*
X11497857Y-14918524D01*
X11507381Y-14937571D01*
X11507381Y-14956619D01*
X11497857Y-14985190D01*
X11383571Y-15099476D01*
X11507381Y-15099476D01*
X11593095Y-15080428D02*
X11602619Y-15089952D01*
X11593095Y-15099476D01*
X11583571Y-15089952D01*
X11593095Y-15080428D01*
X11593095Y-15099476D01*
X11678809Y-14918524D02*
X11688333Y-14909000D01*
X11707381Y-14899476D01*
X11755000Y-14899476D01*
X11774048Y-14909000D01*
X11783571Y-14918524D01*
X11793095Y-14937571D01*
X11793095Y-14956619D01*
X11783571Y-14985190D01*
X11669286Y-15099476D01*
X11793095Y-15099476D01*
X11916905Y-14899476D02*
X11935952Y-14899476D01*
X11955000Y-14909000D01*
X11964524Y-14918524D01*
X11974048Y-14937571D01*
X11983571Y-14975667D01*
X11983571Y-15023286D01*
X11974048Y-15061381D01*
X11964524Y-15080428D01*
X11955000Y-15089952D01*
X11935952Y-15099476D01*
X11916905Y-15099476D01*
X11897857Y-15089952D01*
X11888333Y-15080428D01*
X11878809Y-15061381D01*
X11869286Y-15023286D01*
X11869286Y-14975667D01*
X11878809Y-14937571D01*
X11888333Y-14918524D01*
X11897857Y-14909000D01*
X11916905Y-14899476D01*
X12107381Y-14899476D02*
X12126428Y-14899476D01*
X12145476Y-14909000D01*
X12155000Y-14918524D01*
X12164524Y-14937571D01*
X12174048Y-14975667D01*
X12174048Y-15023286D01*
X12164524Y-15061381D01*
X12155000Y-15080428D01*
X12145476Y-15089952D01*
X12126428Y-15099476D01*
X12107381Y-15099476D01*
X12088333Y-15089952D01*
X12078809Y-15080428D01*
X12069286Y-15061381D01*
X12059762Y-15023286D01*
X12059762Y-14975667D01*
X12069286Y-14937571D01*
X12078809Y-14918524D01*
X12088333Y-14909000D01*
X12107381Y-14899476D01*
X12259762Y-15099476D02*
X12259762Y-14966143D01*
X12259762Y-14985190D02*
X12269286Y-14975667D01*
X12288333Y-14966143D01*
X12316905Y-14966143D01*
X12335952Y-14975667D01*
X12345476Y-14994714D01*
X12345476Y-15099476D01*
X12345476Y-14994714D02*
X12355000Y-14975667D01*
X12374048Y-14966143D01*
X12402619Y-14966143D01*
X12421667Y-14975667D01*
X12431190Y-14994714D01*
X12431190Y-15099476D01*
X12526428Y-15099476D02*
X12526428Y-14966143D01*
X12526428Y-14985190D02*
X12535952Y-14975667D01*
X12555000Y-14966143D01*
X12583571Y-14966143D01*
X12602619Y-14975667D01*
X12612143Y-14994714D01*
X12612143Y-15099476D01*
X12612143Y-14994714D02*
X12621667Y-14975667D01*
X12640714Y-14966143D01*
X12669286Y-14966143D01*
X12688333Y-14975667D01*
X12697857Y-14994714D01*
X12697857Y-15099476D01*
X13088333Y-14889952D02*
X12916905Y-15147095D01*
X13345476Y-14899476D02*
X13364524Y-14899476D01*
X13383571Y-14909000D01*
X13393095Y-14918524D01*
X13402619Y-14937571D01*
X13412143Y-14975667D01*
X13412143Y-15023286D01*
X13402619Y-15061381D01*
X13393095Y-15080428D01*
X13383571Y-15089952D01*
X13364524Y-15099476D01*
X13345476Y-15099476D01*
X13326428Y-15089952D01*
X13316905Y-15080428D01*
X13307381Y-15061381D01*
X13297857Y-15023286D01*
X13297857Y-14975667D01*
X13307381Y-14937571D01*
X13316905Y-14918524D01*
X13326428Y-14909000D01*
X13345476Y-14899476D01*
X13497857Y-15080428D02*
X13507381Y-15089952D01*
X13497857Y-15099476D01*
X13488333Y-15089952D01*
X13497857Y-15080428D01*
X13497857Y-15099476D01*
X13631190Y-14899476D02*
X13650238Y-14899476D01*
X13669286Y-14909000D01*
X13678809Y-14918524D01*
X13688333Y-14937571D01*
X13697857Y-14975667D01*
X13697857Y-15023286D01*
X13688333Y-15061381D01*
X13678809Y-15080428D01*
X13669286Y-15089952D01*
X13650238Y-15099476D01*
X13631190Y-15099476D01*
X13612143Y-15089952D01*
X13602619Y-15080428D01*
X13593095Y-15061381D01*
X13583571Y-15023286D01*
X13583571Y-14975667D01*
X13593095Y-14937571D01*
X13602619Y-14918524D01*
X13612143Y-14909000D01*
X13631190Y-14899476D01*
X13812143Y-14985190D02*
X13793095Y-14975667D01*
X13783571Y-14966143D01*
X13774048Y-14947095D01*
X13774048Y-14937571D01*
X13783571Y-14918524D01*
X13793095Y-14909000D01*
X13812143Y-14899476D01*
X13850238Y-14899476D01*
X13869286Y-14909000D01*
X13878809Y-14918524D01*
X13888333Y-14937571D01*
X13888333Y-14947095D01*
X13878809Y-14966143D01*
X13869286Y-14975667D01*
X13850238Y-14985190D01*
X13812143Y-14985190D01*
X13793095Y-14994714D01*
X13783571Y-15004238D01*
X13774048Y-15023286D01*
X13774048Y-15061381D01*
X13783571Y-15080428D01*
X13793095Y-15089952D01*
X13812143Y-15099476D01*
X13850238Y-15099476D01*
X13869286Y-15089952D01*
X13878809Y-15080428D01*
X13888333Y-15061381D01*
X13888333Y-15023286D01*
X13878809Y-15004238D01*
X13869286Y-14994714D01*
X13850238Y-14985190D01*
X14059762Y-14899476D02*
X14021667Y-14899476D01*
X14002619Y-14909000D01*
X13993095Y-14918524D01*
X13974048Y-14947095D01*
X13964524Y-14985190D01*
X13964524Y-15061381D01*
X13974048Y-15080428D01*
X13983571Y-15089952D01*
X14002619Y-15099476D01*
X14040714Y-15099476D01*
X14059762Y-15089952D01*
X14069286Y-15080428D01*
X14078809Y-15061381D01*
X14078809Y-15013762D01*
X14069286Y-14994714D01*
X14059762Y-14985190D01*
X14040714Y-14975667D01*
X14002619Y-14975667D01*
X13983571Y-14985190D01*
X13974048Y-14994714D01*
X13964524Y-15013762D01*
X14250238Y-14899476D02*
X14212143Y-14899476D01*
X14193095Y-14909000D01*
X14183571Y-14918524D01*
X14164524Y-14947095D01*
X14155000Y-14985190D01*
X14155000Y-15061381D01*
X14164524Y-15080428D01*
X14174048Y-15089952D01*
X14193095Y-15099476D01*
X14231190Y-15099476D01*
X14250238Y-15089952D01*
X14259762Y-15080428D01*
X14269286Y-15061381D01*
X14269286Y-15013762D01*
X14259762Y-14994714D01*
X14250238Y-14985190D01*
X14231190Y-14975667D01*
X14193095Y-14975667D01*
X14174048Y-14985190D01*
X14164524Y-14994714D01*
X14155000Y-15013762D01*
X14345476Y-14899476D02*
X14345476Y-14937571D01*
X14421667Y-14899476D02*
X14421667Y-14937571D01*
X14716905Y-15175667D02*
X14707381Y-15166143D01*
X14688333Y-15137571D01*
X14678809Y-15118524D01*
X14669286Y-15089952D01*
X14659762Y-15042333D01*
X14659762Y-15004238D01*
X14669286Y-14956619D01*
X14678809Y-14928048D01*
X14688333Y-14909000D01*
X14707381Y-14880428D01*
X14716905Y-14870905D01*
X14783571Y-14918524D02*
X14793095Y-14909000D01*
X14812143Y-14899476D01*
X14859762Y-14899476D01*
X14878809Y-14909000D01*
X14888333Y-14918524D01*
X14897857Y-14937571D01*
X14897857Y-14956619D01*
X14888333Y-14985190D01*
X14774048Y-15099476D01*
X14897857Y-15099476D01*
X15135952Y-15099476D02*
X15135952Y-14899476D01*
X15221667Y-15099476D02*
X15221667Y-14994714D01*
X15212143Y-14975667D01*
X15193095Y-14966143D01*
X15164524Y-14966143D01*
X15145476Y-14975667D01*
X15135952Y-14985190D01*
X15345476Y-15099476D02*
X15326428Y-15089952D01*
X15316905Y-15080428D01*
X15307381Y-15061381D01*
X15307381Y-15004238D01*
X15316905Y-14985190D01*
X15326428Y-14975667D01*
X15345476Y-14966143D01*
X15374048Y-14966143D01*
X15393095Y-14975667D01*
X15402619Y-14985190D01*
X15412143Y-15004238D01*
X15412143Y-15061381D01*
X15402619Y-15080428D01*
X15393095Y-15089952D01*
X15374048Y-15099476D01*
X15345476Y-15099476D01*
X15526428Y-15099476D02*
X15507381Y-15089952D01*
X15497857Y-15070905D01*
X15497857Y-14899476D01*
X15678809Y-15089952D02*
X15659762Y-15099476D01*
X15621667Y-15099476D01*
X15602619Y-15089952D01*
X15593095Y-15070905D01*
X15593095Y-14994714D01*
X15602619Y-14975667D01*
X15621667Y-14966143D01*
X15659762Y-14966143D01*
X15678809Y-14975667D01*
X15688333Y-14994714D01*
X15688333Y-15013762D01*
X15593095Y-15032809D01*
X15764524Y-15089952D02*
X15783571Y-15099476D01*
X15821667Y-15099476D01*
X15840714Y-15089952D01*
X15850238Y-15070905D01*
X15850238Y-15061381D01*
X15840714Y-15042333D01*
X15821667Y-15032809D01*
X15793095Y-15032809D01*
X15774048Y-15023286D01*
X15764524Y-15004238D01*
X15764524Y-14994714D01*
X15774048Y-14975667D01*
X15793095Y-14966143D01*
X15821667Y-14966143D01*
X15840714Y-14975667D01*
X15916905Y-15175667D02*
X15926428Y-15166143D01*
X15945476Y-15137571D01*
X15955000Y-15118524D01*
X15964524Y-15089952D01*
X15974048Y-15042333D01*
X15974048Y-15004238D01*
X15964524Y-14956619D01*
X15955000Y-14928048D01*
X15945476Y-14909000D01*
X15926428Y-14880428D01*
X15916905Y-14870905D01*
M02*
