%TF.GenerationSoftware,KiCad,Pcbnew,(6.0.4)*%
%TF.CreationDate,2023-05-09T11:07:54+09:00*%
%TF.ProjectId,Antenna,416e7465-6e6e-4612-9e6b-696361645f70,rev?*%
%TF.SameCoordinates,Original*%
%TF.FileFunction,Copper,L1,Top*%
%TF.FilePolarity,Positive*%
%FSLAX46Y46*%
G04 Gerber Fmt 4.6, Leading zero omitted, Abs format (unit mm)*
G04 Created by KiCad (PCBNEW (6.0.4)) date 2023-05-09 11:07:54*
%MOMM*%
%LPD*%
G01*
G04 APERTURE LIST*
G04 Aperture macros list*
%AMRoundRect*
0 Rectangle with rounded corners*
0 $1 Rounding radius*
0 $2 $3 $4 $5 $6 $7 $8 $9 X,Y pos of 4 corners*
0 Add a 4 corners polygon primitive as box body*
4,1,4,$2,$3,$4,$5,$6,$7,$8,$9,$2,$3,0*
0 Add four circle primitives for the rounded corners*
1,1,$1+$1,$2,$3*
1,1,$1+$1,$4,$5*
1,1,$1+$1,$6,$7*
1,1,$1+$1,$8,$9*
0 Add four rect primitives between the rounded corners*
20,1,$1+$1,$2,$3,$4,$5,0*
20,1,$1+$1,$4,$5,$6,$7,0*
20,1,$1+$1,$6,$7,$8,$9,0*
20,1,$1+$1,$8,$9,$2,$3,0*%
%AMRotRect*
0 Rectangle, with rotation*
0 The origin of the aperture is its center*
0 $1 length*
0 $2 width*
0 $3 Rotation angle, in degrees counterclockwise*
0 Add horizontal line*
21,1,$1,$2,0,0,$3*%
%AMFreePoly0*
4,1,108,0.040185,0.175457,0.112298,0.140674,0.162194,0.078059,0.180000,0.000000,0.179999,-0.000628,0.161920,-0.078624,0.111807,-0.141065,0.109064,-0.142376,0.104394,-0.149573,0.087662,-0.159754,-0.459636,-0.719648,-0.992184,-1.319793,-1.495179,-1.944916,-1.967451,-2.593562,-2.407901,-3.264223,-2.815505,-3.955340,-3.189315,-4.665303,-3.528461,-5.392464,-3.832155,-6.135129,-4.099691,-6.891573,
-4.330445,-7.660036,-4.523883,-8.438730,-4.679553,-9.225844,-4.797093,-10.019549,-4.876231,-10.817997,-4.916782,-11.619332,-4.918652,-12.421690,-4.881837,-13.223206,-4.806421,-14.022014,-4.692582,-14.816258,-4.540582,-15.604089,-4.350777,-16.383677,-4.123606,-17.153206,-3.859599,-17.910889,-3.559370,-18.654962,-3.223617,-19.383695,-2.853121,-20.095394,-2.448743,-20.788402,-2.011423,-21.461109,-1.542180,-22.111950,
-1.042105,-22.739410,-0.512359,-23.342031,0.045824,-23.918412,0.631146,-24.467211,1.242246,-24.987152,1.877703,-25.477026,2.536039,-25.935694,3.215723,-26.362089,3.915173,-26.755219,4.632764,-27.114170,5.349333,-27.430388,5.368970,-27.433737,5.434248,-27.480095,5.472966,-27.550173,5.477464,-27.630111,5.446851,-27.704091,5.387184,-27.757477,5.310268,-27.779707,5.231321,-27.766382,5.230740,-27.766142,
5.230681,-27.766100,4.499252,-27.443826,3.783175,-27.087173,3.084677,-26.697213,2.405307,-26.274811,1.746571,-25.820902,1.109927,-25.336493,0.496788,-24.822656,-0.091489,-24.280532,-0.653598,-23.711322,-1.188294,-23.116287,-1.694393,-22.496745,-2.170772,-21.854071,-2.616376,-21.189688,-3.030217,-20.505069,-3.411378,-19.801731,-3.759013,-19.081234,-4.072354,-18.345173,-4.350704,-17.595181,-4.593448,-16.832919,
-4.800047,-16.060077,-4.970043,-15.278368,-5.103060,-14.489525,-5.198802,-13.695295,-5.257058,-12.897440,-5.277698,-12.097726,-5.260678,-11.297928,-5.206033,-10.499816,-5.113886,-9.705162,-4.984441,-8.915724,-4.817984,-8.133254,-4.614885,-7.359485,-4.375593,-6.596133,-4.100640,-5.844888,-3.790634,-5.107417,-3.446262,-4.385354,-3.068288,-3.680298,-2.657550,-2.993813,-2.214958,-2.327421,-1.741492,-1.682597,
-1.238202,-1.060772,-0.706204,-0.463322,-0.146677,0.108426,-0.146226,0.108864,-0.129579,0.118954,-0.112053,0.140869,-0.039879,0.175527,0.040185,0.175457,0.040185,0.175457,$1*%
%AMFreePoly1*
4,1,107,0.040185,0.175457,0.112298,0.140674,0.129761,0.118759,0.146677,0.108426,0.147126,0.107987,0.147165,0.107927,0.706204,-0.463322,1.238202,-1.060772,1.741492,-1.682597,2.214958,-2.327421,2.657550,-2.993813,3.068288,-3.680298,3.446262,-4.385354,3.790634,-5.107417,4.100640,-5.844888,4.375593,-6.596133,4.614885,-7.359485,4.817984,-8.133254,4.984441,-8.915724,5.113886,-9.705162,
5.206033,-10.499816,5.260678,-11.297928,5.277698,-12.097726,5.257058,-12.897440,5.198802,-13.695295,5.103060,-14.489525,4.970043,-15.278368,4.800047,-16.060077,4.593448,-16.832919,4.350704,-17.595181,4.072354,-18.345173,3.759013,-19.081234,3.411378,-19.801731,3.030217,-20.505069,2.616376,-21.189688,2.170772,-21.854071,1.694393,-22.496745,1.188294,-23.116287,0.653598,-23.711322,0.091489,-24.280532,
-0.496788,-24.822656,-1.109927,-25.336493,-1.746571,-25.820902,-2.405307,-26.274811,-3.084677,-26.697213,-3.783175,-27.087173,-4.499252,-27.443826,-5.231321,-27.766382,-5.231901,-27.766621,-5.310895,-27.779669,-5.387733,-27.757172,-5.447213,-27.703577,-5.477568,-27.629492,-5.472791,-27.549570,-5.433829,-27.479626,-5.368389,-27.433498,-5.349072,-27.430272,-4.632764,-27.114170,-3.915173,-26.755219,-3.215723,-26.362089,
-2.536039,-25.935694,-1.877703,-25.477026,-1.242246,-24.987152,-0.631146,-24.467211,-0.045824,-23.918412,0.512359,-23.342031,1.042105,-22.739410,1.542180,-22.111950,2.011423,-21.461109,2.448743,-20.788402,2.853121,-20.095394,3.223617,-19.383695,3.559370,-18.654962,3.859599,-17.910889,4.123606,-17.153206,4.350777,-16.383677,4.540582,-15.604089,4.692582,-14.816258,4.806421,-14.022014,4.881837,-13.223206,
4.918652,-12.421690,4.916782,-11.619332,4.876231,-10.817997,4.797093,-10.019549,4.679553,-9.225844,4.523883,-8.438730,4.330445,-7.660036,4.099691,-6.891573,3.832155,-6.135129,3.528461,-5.392464,3.189315,-4.665303,2.815505,-3.955340,2.407901,-3.264223,1.967451,-2.593562,1.495179,-1.944916,0.992184,-1.319793,0.459636,-0.719648,-0.087863,-0.159549,-0.104843,-0.149135,-0.109454,-0.141974,
-0.112544,-0.140477,-0.162330,-0.077775,-0.180000,0.000314,-0.162057,0.078342,-0.112053,0.140869,-0.039879,0.175527,0.040185,0.175457,0.040185,0.175457,$1*%
G04 Aperture macros list end*
%TA.AperFunction,SMDPad,CuDef*%
%ADD10R,1.100000X0.600000*%
%TD*%
%TA.AperFunction,SMDPad,CuDef*%
%ADD11R,0.200000X0.400000*%
%TD*%
%TA.AperFunction,SMDPad,CuDef*%
%ADD12RoundRect,0.225000X-0.250000X0.225000X-0.250000X-0.225000X0.250000X-0.225000X0.250000X0.225000X0*%
%TD*%
%TA.AperFunction,SMDPad,CuDef*%
%ADD13R,0.250000X0.500000*%
%TD*%
%TA.AperFunction,SMDPad,CuDef*%
%ADD14R,1.600000X0.900000*%
%TD*%
%TA.AperFunction,SMDPad,CuDef*%
%ADD15RoundRect,0.140000X0.140000X0.170000X-0.140000X0.170000X-0.140000X-0.170000X0.140000X-0.170000X0*%
%TD*%
%TA.AperFunction,SMDPad,CuDef*%
%ADD16RoundRect,0.225000X0.225000X0.250000X-0.225000X0.250000X-0.225000X-0.250000X0.225000X-0.250000X0*%
%TD*%
%TA.AperFunction,SMDPad,CuDef*%
%ADD17R,1.900000X1.000000*%
%TD*%
%TA.AperFunction,SMDPad,CuDef*%
%ADD18R,1.050000X2.200000*%
%TD*%
%TA.AperFunction,SMDPad,CuDef*%
%ADD19R,1.000000X1.000000*%
%TD*%
%TA.AperFunction,ConnectorPad*%
%ADD20C,3.800000*%
%TD*%
%TA.AperFunction,ComponentPad*%
%ADD21C,2.600000*%
%TD*%
%TA.AperFunction,SMDPad,CuDef*%
%ADD22FreePoly0,0.000000*%
%TD*%
%TA.AperFunction,SMDPad,CuDef*%
%ADD23C,0.450000*%
%TD*%
%TA.AperFunction,SMDPad,CuDef*%
%ADD24R,0.160000X7.500000*%
%TD*%
%TA.AperFunction,SMDPad,CuDef*%
%ADD25RotRect,0.160000X7.500000X314.000000*%
%TD*%
%TA.AperFunction,SMDPad,CuDef*%
%ADD26FreePoly1,180.000000*%
%TD*%
%TA.AperFunction,SMDPad,CuDef*%
%ADD27R,1.050000X0.360000*%
%TD*%
%TA.AperFunction,SMDPad,CuDef*%
%ADD28RotRect,0.160000X7.500000X315.000000*%
%TD*%
%TA.AperFunction,SMDPad,CuDef*%
%ADD29RotRect,0.160000X7.500000X226.000000*%
%TD*%
%TA.AperFunction,SMDPad,CuDef*%
%ADD30RotRect,0.160000X7.500000X225.000000*%
%TD*%
%TA.AperFunction,SMDPad,CuDef*%
%ADD31RoundRect,0.135000X-0.185000X0.135000X-0.185000X-0.135000X0.185000X-0.135000X0.185000X0.135000X0*%
%TD*%
%TA.AperFunction,SMDPad,CuDef*%
%ADD32RoundRect,0.140000X-0.170000X0.140000X-0.170000X-0.140000X0.170000X-0.140000X0.170000X0.140000X0*%
%TD*%
%TA.AperFunction,SMDPad,CuDef*%
%ADD33RoundRect,0.147500X0.147500X0.172500X-0.147500X0.172500X-0.147500X-0.172500X0.147500X-0.172500X0*%
%TD*%
%TA.AperFunction,SMDPad,CuDef*%
%ADD34RoundRect,0.147500X-0.172500X0.147500X-0.172500X-0.147500X0.172500X-0.147500X0.172500X0.147500X0*%
%TD*%
%TA.AperFunction,SMDPad,CuDef*%
%ADD35RoundRect,0.135000X0.135000X0.185000X-0.135000X0.185000X-0.135000X-0.185000X0.135000X-0.185000X0*%
%TD*%
%TA.AperFunction,SMDPad,CuDef*%
%ADD36RoundRect,0.150000X0.587500X0.150000X-0.587500X0.150000X-0.587500X-0.150000X0.587500X-0.150000X0*%
%TD*%
%TA.AperFunction,SMDPad,CuDef*%
%ADD37RoundRect,0.140000X-0.219203X-0.021213X-0.021213X-0.219203X0.219203X0.021213X0.021213X0.219203X0*%
%TD*%
%TA.AperFunction,SMDPad,CuDef*%
%ADD38RoundRect,0.147500X-0.147500X-0.172500X0.147500X-0.172500X0.147500X0.172500X-0.147500X0.172500X0*%
%TD*%
%TA.AperFunction,ViaPad*%
%ADD39C,0.450000*%
%TD*%
%TA.AperFunction,Conductor*%
%ADD40C,0.500000*%
%TD*%
%TA.AperFunction,Conductor*%
%ADD41C,0.360000*%
%TD*%
%TA.AperFunction,Conductor*%
%ADD42C,0.250000*%
%TD*%
G04 APERTURE END LIST*
D10*
%TO.P,U3,7,EP*%
%TO.N,GND*%
X132575000Y-95300000D03*
D11*
%TO.P,U3,6,VCC*%
%TO.N,/3V3A*%
X133075000Y-96050000D03*
%TO.P,U3,5,GND*%
%TO.N,GND*%
X132575000Y-96050000D03*
%TO.P,U3,4,RFOUT*%
%TO.N,Net-(C8-Pad1)*%
X132075000Y-96050000D03*
%TO.P,U3,3,RFIN*%
%TO.N,Net-(C5-Pad2)*%
X132075000Y-94550000D03*
%TO.P,U3,2,GND*%
%TO.N,GND*%
X132575000Y-94550000D03*
%TO.P,U3,1,VENABLE*%
%TO.N,Net-(R2-Pad2)*%
X133075000Y-94550000D03*
%TD*%
D12*
%TO.P,C12,2*%
%TO.N,/5VA*%
X134275000Y-103300000D03*
%TO.P,C12,1*%
%TO.N,GND*%
X134275000Y-101750000D03*
%TD*%
D13*
%TO.P,IC2,1,N/C_1*%
%TO.N,unconnected-(IC2-Pad1)*%
X132575000Y-103350000D03*
%TO.P,IC2,2,RFIN*%
%TO.N,Net-(IC2-Pad2)*%
X132075000Y-103350000D03*
%TO.P,IC2,3,VBIAS*%
%TO.N,Net-(IC2-Pad3)*%
X131575000Y-103350000D03*
%TO.P,IC2,4,RSET*%
%TO.N,Net-(IC2-Pad4)*%
X131075000Y-103350000D03*
%TO.P,IC2,5,~EN*%
%TO.N,/~EN1*%
X131075000Y-105250000D03*
%TO.P,IC2,6,VDD*%
%TO.N,Net-(IC2-Pad6)*%
X131575000Y-105250000D03*
%TO.P,IC2,7,RFOUT*%
%TO.N,Net-(C11-Pad1)*%
X132075000Y-105250000D03*
%TO.P,IC2,8,N/C_2*%
%TO.N,unconnected-(IC2-Pad8)*%
X132575000Y-105250000D03*
D14*
%TO.P,IC2,9,EP*%
%TO.N,GND*%
X131825000Y-104300000D03*
%TD*%
D15*
%TO.P,C2,2*%
%TO.N,GND*%
X134195000Y-100500000D03*
%TO.P,C2,1*%
%TO.N,/5VA*%
X135155000Y-100500000D03*
%TD*%
D16*
%TO.P,C41,2*%
%TO.N,GND*%
X131875000Y-84250000D03*
%TO.P,C41,1*%
%TO.N,/3V3A*%
X133425000Y-84250000D03*
%TD*%
D12*
%TO.P,C42,2*%
%TO.N,GND*%
X134925000Y-84275000D03*
%TO.P,C42,1*%
%TO.N,/5VA*%
X134925000Y-82725000D03*
%TD*%
D15*
%TO.P,C9,2*%
%TO.N,Net-(C8-Pad2)*%
X132075000Y-99200000D03*
%TO.P,C9,1*%
%TO.N,GND*%
X133035000Y-99200000D03*
%TD*%
D17*
%TO.P,J2,5,Pin_5*%
%TO.N,/~EN1*%
X134200000Y-69870000D03*
%TO.P,J2,4,Pin_4*%
%TO.N,GND*%
X130900000Y-72410000D03*
%TO.P,J2,3,Pin_3*%
%TO.N,/5VA*%
X134200000Y-74950000D03*
%TO.P,J2,2,Pin_2*%
%TO.N,GND*%
X130900000Y-77490000D03*
%TO.P,J2,1,Pin_1*%
%TO.N,/3V3A*%
X134200000Y-80030000D03*
%TD*%
D18*
%TO.P,J1,2,Ext*%
%TO.N,GND*%
X130600000Y-113275000D03*
D19*
X132075000Y-114775000D03*
D18*
X133550000Y-113275000D03*
D19*
%TO.P,J1,1,In*%
%TO.N,/receiver/RF_OUT*%
X132075000Y-111775000D03*
%TD*%
D20*
%TO.P,H2,1,1*%
%TO.N,GND*%
X134075000Y-53850000D03*
D21*
X134075000Y-53850000D03*
%TD*%
D20*
%TO.P,H1,1,1*%
%TO.N,GND*%
X134075000Y-130000000D03*
D21*
X134075000Y-130000000D03*
%TD*%
D22*
%TO.P,AE1,1,A*%
%TO.N,/receiver/RX*%
X117950000Y-102400000D03*
D23*
X123301651Y-104650000D03*
D24*
X123301651Y-100800000D03*
D25*
X125901651Y-94500000D03*
D26*
X117950000Y-81450000D03*
D27*
X129001651Y-91950000D03*
D28*
X120601651Y-99700000D03*
D29*
X125901651Y-89350000D03*
D23*
X123301651Y-53850000D03*
D30*
X120601651Y-84150000D03*
D24*
X123301651Y-83050000D03*
D23*
X123301651Y-79200000D03*
X123301651Y-130000000D03*
%TD*%
D31*
%TO.P,R2,2*%
%TO.N,Net-(R2-Pad2)*%
X133875000Y-93600000D03*
%TO.P,R2,1*%
%TO.N,Net-(Q1-Pad3)*%
X133875000Y-92580000D03*
%TD*%
D32*
%TO.P,C6,2*%
%TO.N,GND*%
X134825000Y-98225000D03*
%TO.P,C6,1*%
%TO.N,/3V3A*%
X134825000Y-97265000D03*
%TD*%
%TO.P,C11,2*%
%TO.N,/receiver/RF_OUT*%
X132075000Y-108385000D03*
%TO.P,C11,1*%
%TO.N,Net-(C11-Pad1)*%
X132075000Y-107425000D03*
%TD*%
D33*
%TO.P,L2,2,2*%
%TO.N,Net-(IC2-Pad3)*%
X131105000Y-102150000D03*
%TO.P,L2,1,1*%
%TO.N,Net-(IC2-Pad2)*%
X132075000Y-102150000D03*
%TD*%
D32*
%TO.P,C10,2*%
%TO.N,/5VA*%
X133625000Y-105475000D03*
%TO.P,C10,1*%
%TO.N,GND*%
X133625000Y-104515000D03*
%TD*%
%TO.P,C4,2*%
%TO.N,/receiver/RX*%
X129850000Y-91955000D03*
%TO.P,C4,1*%
%TO.N,GND*%
X129850000Y-90995000D03*
%TD*%
%TO.P,C7,2*%
%TO.N,GND*%
X133825000Y-98225000D03*
%TO.P,C7,1*%
%TO.N,/3V3A*%
X133825000Y-97265000D03*
%TD*%
D34*
%TO.P,L1,2,2*%
%TO.N,Net-(IC2-Pad2)*%
X132075000Y-101145000D03*
%TO.P,L1,1,1*%
%TO.N,Net-(C8-Pad2)*%
X132075000Y-100175000D03*
%TD*%
D32*
%TO.P,C8,2*%
%TO.N,Net-(C8-Pad2)*%
X132075000Y-98230000D03*
%TO.P,C8,1*%
%TO.N,Net-(C8-Pad1)*%
X132075000Y-97270000D03*
%TD*%
D31*
%TO.P,R4,2*%
%TO.N,/5VA*%
X130200000Y-107435000D03*
%TO.P,R4,1*%
%TO.N,Net-(IC2-Pad6)*%
X130200000Y-106415000D03*
%TD*%
D15*
%TO.P,C1,2*%
%TO.N,GND*%
X134175000Y-95300000D03*
%TO.P,C1,1*%
%TO.N,/3V3A*%
X135135000Y-95300000D03*
%TD*%
D35*
%TO.P,R1,2*%
%TO.N,/~EN1*%
X134199999Y-89050000D03*
%TO.P,R1,1*%
%TO.N,/3V3A*%
X135219999Y-89050000D03*
%TD*%
D36*
%TO.P,Q1,3,D*%
%TO.N,Net-(Q1-Pad3)*%
X132262500Y-86750000D03*
%TO.P,Q1,2,S*%
%TO.N,/3V3A*%
X134137500Y-85800000D03*
%TO.P,Q1,1,G*%
%TO.N,/~EN1*%
X134137500Y-87700000D03*
%TD*%
D37*
%TO.P,C5,2*%
%TO.N,Net-(C5-Pad2)*%
X131603822Y-93178822D03*
%TO.P,C5,1*%
%TO.N,/receiver/RX*%
X130925000Y-92500000D03*
%TD*%
D38*
%TO.P,L3,2,2*%
%TO.N,/5VA*%
X133045000Y-106450000D03*
%TO.P,L3,1,1*%
%TO.N,Net-(C11-Pad1)*%
X132075000Y-106450000D03*
%TD*%
D31*
%TO.P,R3,2*%
%TO.N,GND*%
X130025000Y-104300000D03*
%TO.P,R3,1*%
%TO.N,Net-(IC2-Pad4)*%
X130025000Y-103280000D03*
%TD*%
D39*
%TO.N,GND*%
X131851400Y-76978400D03*
X131851400Y-78003400D03*
X129600000Y-100200000D03*
X130075000Y-114375000D03*
X133550000Y-112175000D03*
X134475000Y-96600000D03*
X131075000Y-104300000D03*
X129600000Y-102650000D03*
X134925000Y-84800000D03*
X133392500Y-99557500D03*
X133100000Y-95300000D03*
X134325000Y-98225000D03*
X131350000Y-114750000D03*
X133430000Y-104320000D03*
X129600000Y-98025000D03*
X131850000Y-72925000D03*
X131275000Y-110300000D03*
X131000000Y-91600000D03*
X135825000Y-101000000D03*
X132575000Y-104300000D03*
X129600000Y-104300000D03*
X131325000Y-84250000D03*
X132050000Y-95300000D03*
X129600000Y-95325000D03*
X132800000Y-114750000D03*
X130600000Y-112175000D03*
X131250000Y-101000000D03*
X131100000Y-108775000D03*
X134525000Y-94825000D03*
X134925000Y-104300000D03*
X131850000Y-71900000D03*
X132875000Y-110300000D03*
X134275000Y-101000000D03*
X129600000Y-92675000D03*
X131250000Y-94150000D03*
X133050000Y-108775000D03*
X134075000Y-114375000D03*
X129625000Y-91000000D03*
X132750000Y-92900000D03*
X131250000Y-96850000D03*
%TO.N,/receiver/RX*%
X123300000Y-104650000D03*
X123300000Y-79200000D03*
X123300000Y-130000000D03*
X123300000Y-53850000D03*
%TO.N,/5VA*%
X130200000Y-107825000D03*
X133225000Y-105875000D03*
%TO.N,/~EN1*%
X130450000Y-105375000D03*
X134175000Y-88425000D03*
%TD*%
D40*
%TO.N,GND*%
X131336400Y-77488400D02*
X131851400Y-78003400D01*
X130901400Y-77488400D02*
X131336400Y-77488400D01*
X131341400Y-77488400D02*
X131851400Y-76978400D01*
X130901400Y-77488400D02*
X131341400Y-77488400D01*
X130900000Y-77490000D02*
X131340000Y-77490000D01*
D41*
X130875000Y-114375000D02*
X131250000Y-114750000D01*
D42*
X133825000Y-98225000D02*
X133825000Y-98410000D01*
D40*
X130900000Y-72410000D02*
X131335000Y-72410000D01*
D41*
X130600000Y-113850000D02*
X130075000Y-114375000D01*
D40*
X134825000Y-98225000D02*
X134325000Y-98225000D01*
D41*
X131275000Y-110300000D02*
X131275000Y-108950000D01*
X132875000Y-108950000D02*
X133050000Y-108775000D01*
X130600000Y-110975000D02*
X131275000Y-110300000D01*
X131250000Y-114750000D02*
X131350000Y-114750000D01*
D42*
X133392500Y-99557500D02*
X133035000Y-99200000D01*
D41*
X130600000Y-112175000D02*
X130600000Y-113850000D01*
X133550000Y-113850000D02*
X134075000Y-114375000D01*
X130150000Y-92675000D02*
X129600000Y-92675000D01*
X132900000Y-114750000D02*
X132800000Y-114750000D01*
D42*
X131825000Y-104300000D02*
X132575000Y-104300000D01*
D41*
X132075000Y-114750000D02*
X132800000Y-114750000D01*
D42*
X134175000Y-95175000D02*
X134525000Y-94825000D01*
X133430000Y-104320000D02*
X133625000Y-104515000D01*
D41*
X133550000Y-112175000D02*
X133550000Y-110975000D01*
X130725000Y-91325000D02*
X130180000Y-91325000D01*
D42*
X134275000Y-101750000D02*
X134275000Y-101000000D01*
D40*
X134325000Y-98225000D02*
X133825000Y-98225000D01*
D42*
X132575000Y-94550000D02*
X132575000Y-95300000D01*
D41*
X131275000Y-108950000D02*
X131100000Y-108775000D01*
X130075000Y-114375000D02*
X130875000Y-114375000D01*
D40*
X130900000Y-72410000D02*
X131340000Y-72410000D01*
D42*
X132575000Y-104300000D02*
X133410000Y-104300000D01*
D40*
X131335000Y-72410000D02*
X131850000Y-72925000D01*
D41*
X132075000Y-114775000D02*
X132075000Y-114750000D01*
X133550000Y-110975000D02*
X132875000Y-110300000D01*
X130600000Y-112175000D02*
X130600000Y-110975000D01*
D42*
X133100000Y-95300000D02*
X134175000Y-95300000D01*
X134195000Y-100360000D02*
X133392500Y-99557500D01*
D41*
X131250000Y-93775000D02*
X130150000Y-92675000D01*
D42*
X133250000Y-97205154D02*
X133250000Y-97650000D01*
D40*
X131340000Y-72410000D02*
X131850000Y-71900000D01*
D41*
X132075000Y-114750000D02*
X131350000Y-114750000D01*
X134075000Y-114375000D02*
X133275000Y-114375000D01*
D42*
X133100000Y-95300000D02*
X132575000Y-95300000D01*
X133825000Y-98410000D02*
X133035000Y-99200000D01*
D40*
X134925000Y-84275000D02*
X134925000Y-84800000D01*
D41*
X132875000Y-110300000D02*
X132875000Y-108950000D01*
D42*
X132575000Y-96050000D02*
X132575000Y-96530154D01*
D41*
X130180000Y-91325000D02*
X129850000Y-90995000D01*
X131250000Y-94150000D02*
X131250000Y-93775000D01*
D42*
X134275000Y-101000000D02*
X134275000Y-100580000D01*
D40*
X129625000Y-91000000D02*
X129845000Y-91000000D01*
D42*
X134175000Y-95300000D02*
X134175000Y-95175000D01*
D40*
X130900000Y-77490000D02*
X131335000Y-77490000D01*
D41*
X131000000Y-91600000D02*
X130725000Y-91325000D01*
X131100000Y-91600000D02*
X132400000Y-92900000D01*
D42*
X132575000Y-96050000D02*
X132575000Y-95300000D01*
X133410000Y-104300000D02*
X133430000Y-104320000D01*
X131075000Y-104300000D02*
X131825000Y-104300000D01*
D40*
X131875000Y-84250000D02*
X131325000Y-84250000D01*
D42*
X133250000Y-97650000D02*
X133825000Y-98225000D01*
D41*
X132400000Y-92900000D02*
X132750000Y-92900000D01*
X133550000Y-112175000D02*
X133550000Y-113850000D01*
D42*
X134275000Y-100580000D02*
X134195000Y-100500000D01*
D41*
X131000000Y-91600000D02*
X131100000Y-91600000D01*
D42*
X134195000Y-100500000D02*
X134195000Y-100360000D01*
X132575000Y-96530154D02*
X133250000Y-97205154D01*
X130025000Y-104300000D02*
X131075000Y-104300000D01*
D41*
X133275000Y-114375000D02*
X132900000Y-114750000D01*
D40*
X129845000Y-91000000D02*
X129850000Y-90995000D01*
D41*
%TO.N,/receiver/RX*%
X130380000Y-91955000D02*
X130925000Y-92500000D01*
X129001651Y-91950000D02*
X129845000Y-91950000D01*
X129845000Y-91950000D02*
X129850000Y-91955000D01*
X129850000Y-91955000D02*
X130380000Y-91955000D01*
%TO.N,Net-(C5-Pad2)*%
X132075000Y-93650000D02*
X131603822Y-93178822D01*
X132075000Y-94550000D02*
X132075000Y-93650000D01*
%TO.N,Net-(C8-Pad1)*%
X132075000Y-96050000D02*
X132075000Y-97270000D01*
%TO.N,Net-(C8-Pad2)*%
X132075000Y-98230000D02*
X132075000Y-99200000D01*
X132075000Y-100175000D02*
X132075000Y-99200000D01*
%TO.N,Net-(C11-Pad1)*%
X132075000Y-107425000D02*
X132075000Y-106450000D01*
X132075000Y-105250000D02*
X132075000Y-106450000D01*
%TO.N,/receiver/RF_OUT*%
X132075000Y-108385000D02*
X132075000Y-111775000D01*
D40*
%TO.N,/5VA*%
X133625000Y-105475000D02*
X134075000Y-105475000D01*
X134350000Y-74950000D02*
X135625000Y-76225000D01*
X133225000Y-105875000D02*
X133625000Y-105475000D01*
X134925000Y-82725000D02*
X135925000Y-83725000D01*
X135155000Y-102420000D02*
X134275000Y-103300000D01*
X135155000Y-100500000D02*
X135155000Y-102420000D01*
X135925000Y-83725000D02*
X135925000Y-99730000D01*
X135925000Y-99730000D02*
X135155000Y-100500000D01*
X135625000Y-82025000D02*
X134925000Y-82725000D01*
X134200000Y-74950000D02*
X134350000Y-74950000D01*
X135625000Y-76225000D02*
X135625000Y-82025000D01*
X133045000Y-106450000D02*
X133045000Y-106055000D01*
X134275000Y-105275000D02*
X134275000Y-103300000D01*
X133045000Y-106055000D02*
X133225000Y-105875000D01*
X134075000Y-105475000D02*
X134275000Y-105275000D01*
X130200000Y-107435000D02*
X130200000Y-107825000D01*
D41*
%TO.N,Net-(IC2-Pad2)*%
X132075000Y-102150000D02*
X132075000Y-103350000D01*
X132075000Y-101145000D02*
X132075000Y-102150000D01*
%TO.N,Net-(IC2-Pad3)*%
X131575000Y-102620000D02*
X131105000Y-102150000D01*
X131575000Y-103350000D02*
X131575000Y-102620000D01*
D42*
%TO.N,Net-(IC2-Pad4)*%
X130095000Y-103350000D02*
X130025000Y-103280000D01*
X131075000Y-103350000D02*
X130095000Y-103350000D01*
%TO.N,/~EN1*%
X130450000Y-105375000D02*
X130950000Y-105375000D01*
X134175000Y-88425000D02*
X134175000Y-87737500D01*
X132650000Y-71420000D02*
X134200000Y-69870000D01*
X134199999Y-89050000D02*
X134199999Y-88449999D01*
X134137500Y-87700000D02*
X134137500Y-87187500D01*
X134137500Y-87187500D02*
X132650000Y-85700000D01*
X134175000Y-87737500D02*
X134137500Y-87700000D01*
X134199999Y-88449999D02*
X134175000Y-88425000D01*
X130950000Y-105375000D02*
X131075000Y-105250000D01*
X132650000Y-85700000D02*
X132650000Y-71420000D01*
%TO.N,Net-(IC2-Pad6)*%
X130200000Y-106415000D02*
X130910000Y-106415000D01*
X130910000Y-106415000D02*
X131575000Y-105750000D01*
X131575000Y-105750000D02*
X131575000Y-105250000D01*
%TO.N,Net-(Q1-Pad3)*%
X132675000Y-86750000D02*
X132262500Y-86750000D01*
X132925000Y-87000000D02*
X132675000Y-86750000D01*
X132925000Y-91630000D02*
X132925000Y-87000000D01*
X133875000Y-92580000D02*
X132925000Y-91630000D01*
%TO.N,Net-(R2-Pad2)*%
X133075000Y-94400000D02*
X133875000Y-93600000D01*
X133075000Y-94550000D02*
X133075000Y-94400000D01*
D40*
%TO.N,/3V3A*%
X135219999Y-86469999D02*
X134550000Y-85800000D01*
X133825000Y-97265000D02*
X134825000Y-97265000D01*
D42*
X133825000Y-97265000D02*
X133790000Y-97265000D01*
D40*
X133625000Y-84050000D02*
X133425000Y-84250000D01*
X133625000Y-80605000D02*
X133625000Y-84050000D01*
X135219999Y-89050000D02*
X135219999Y-86469999D01*
X135135000Y-96955000D02*
X134825000Y-97265000D01*
X134137500Y-85800000D02*
X134150000Y-85787500D01*
X134137500Y-85800000D02*
X133925000Y-85800000D01*
D42*
X133790000Y-97265000D02*
X133075000Y-96550000D01*
D40*
X134550000Y-85800000D02*
X134137500Y-85800000D01*
X134375000Y-85800000D02*
X134137500Y-85800000D01*
X133625000Y-84450000D02*
X133425000Y-84250000D01*
X135200000Y-89069999D02*
X135219999Y-89050000D01*
X135135000Y-95300000D02*
X135135000Y-96955000D01*
X133925000Y-85800000D02*
X133625000Y-85500000D01*
X135200000Y-95235000D02*
X135200000Y-89069999D01*
X133625000Y-85500000D02*
X133625000Y-84450000D01*
X134200000Y-80030000D02*
X133625000Y-80605000D01*
X135135000Y-95300000D02*
X135200000Y-95235000D01*
D42*
X133075000Y-96550000D02*
X133075000Y-96050000D01*
%TD*%
%TA.AperFunction,Conductor*%
%TO.N,GND*%
G36*
X136241866Y-51567313D02*
G01*
X136267176Y-51611150D01*
X136268300Y-51624000D01*
X136268300Y-83280829D01*
X136250987Y-83328395D01*
X136207150Y-83353705D01*
X136157300Y-83344915D01*
X136141974Y-83333155D01*
X135602174Y-82793355D01*
X135580782Y-82747479D01*
X135580500Y-82741029D01*
X135580500Y-82708971D01*
X135597813Y-82661405D01*
X135602174Y-82656645D01*
X135908229Y-82350590D01*
X135914742Y-82344803D01*
X135938022Y-82326451D01*
X135938024Y-82326449D01*
X135942366Y-82323026D01*
X135974677Y-82276276D01*
X135976006Y-82274416D01*
X135987628Y-82258682D01*
X136009758Y-82228720D01*
X136011471Y-82223843D01*
X136011727Y-82223321D01*
X136012774Y-82221268D01*
X136013031Y-82220783D01*
X136015968Y-82216533D01*
X136030062Y-82171970D01*
X136033104Y-82162350D01*
X136033840Y-82160145D01*
X136050818Y-82111799D01*
X136050818Y-82111798D01*
X136052651Y-82106579D01*
X136052854Y-82101420D01*
X136053035Y-82100702D01*
X136053731Y-82097127D01*
X136055003Y-82093106D01*
X136055500Y-82086791D01*
X136055500Y-82035532D01*
X136055557Y-82032626D01*
X136057517Y-81982754D01*
X136057517Y-81982752D01*
X136057734Y-81977226D01*
X136056316Y-81971879D01*
X136055947Y-81968536D01*
X136055500Y-81960415D01*
X136055500Y-76254958D01*
X136056013Y-76246260D01*
X136059497Y-76216821D01*
X136060148Y-76211324D01*
X136059154Y-76205882D01*
X136059154Y-76205878D01*
X136049947Y-76155465D01*
X136049566Y-76153174D01*
X136041941Y-76102461D01*
X136041939Y-76102456D01*
X136041117Y-76096986D01*
X136038876Y-76092321D01*
X136038703Y-76091815D01*
X136037989Y-76089618D01*
X136037818Y-76089063D01*
X136036890Y-76083978D01*
X136010702Y-76033564D01*
X136009663Y-76031485D01*
X135987474Y-75985276D01*
X135985080Y-75980290D01*
X135981574Y-75976497D01*
X135981198Y-75975868D01*
X135979161Y-75972845D01*
X135977216Y-75969100D01*
X135974479Y-75965895D01*
X135974476Y-75965891D01*
X135973102Y-75964283D01*
X135936857Y-75928038D01*
X135934843Y-75925943D01*
X135900963Y-75889291D01*
X135900962Y-75889290D01*
X135897208Y-75885229D01*
X135892426Y-75882452D01*
X135889792Y-75880341D01*
X135883735Y-75874916D01*
X135352174Y-75343355D01*
X135330782Y-75297479D01*
X135330500Y-75291029D01*
X135330499Y-74435865D01*
X135330499Y-74432224D01*
X135320027Y-74379572D01*
X135280133Y-74319867D01*
X135220428Y-74279973D01*
X135213283Y-74278552D01*
X135213281Y-74278551D01*
X135171347Y-74270210D01*
X135171346Y-74270210D01*
X135167777Y-74269500D01*
X134200133Y-74269500D01*
X133232224Y-74269501D01*
X133179572Y-74279973D01*
X133119867Y-74319867D01*
X133115817Y-74325928D01*
X133091029Y-74363026D01*
X133050207Y-74392958D01*
X132999697Y-74389647D01*
X132963131Y-74354643D01*
X132955500Y-74321914D01*
X132955500Y-71577194D01*
X132972813Y-71529628D01*
X132977174Y-71524868D01*
X133929868Y-70572174D01*
X133975744Y-70550782D01*
X133982194Y-70550500D01*
X135038644Y-70550499D01*
X135167776Y-70550499D01*
X135220428Y-70540027D01*
X135280133Y-70500133D01*
X135320027Y-70440428D01*
X135321450Y-70433278D01*
X135329790Y-70391347D01*
X135329790Y-70391346D01*
X135330500Y-70387777D01*
X135330499Y-69352224D01*
X135320027Y-69299572D01*
X135280133Y-69239867D01*
X135220428Y-69199973D01*
X135213283Y-69198552D01*
X135213281Y-69198551D01*
X135171347Y-69190210D01*
X135171346Y-69190210D01*
X135167777Y-69189500D01*
X134200133Y-69189500D01*
X133232224Y-69189501D01*
X133179572Y-69199973D01*
X133119867Y-69239867D01*
X133079973Y-69299572D01*
X133078552Y-69306717D01*
X133078551Y-69306719D01*
X133070210Y-69348653D01*
X133069500Y-69352223D01*
X133069501Y-70387776D01*
X133079973Y-70440428D01*
X133084021Y-70446486D01*
X133084022Y-70446488D01*
X133093320Y-70460403D01*
X133105351Y-70509571D01*
X133084117Y-70553841D01*
X132473245Y-71164713D01*
X132468970Y-71168402D01*
X132464698Y-71170491D01*
X132460053Y-71175498D01*
X132460052Y-71175499D01*
X132430152Y-71207732D01*
X132428226Y-71209732D01*
X132413887Y-71224071D01*
X132411964Y-71226874D01*
X132409780Y-71229502D01*
X132409641Y-71229386D01*
X132407048Y-71232639D01*
X132387299Y-71253928D01*
X132381864Y-71267552D01*
X132374154Y-71281992D01*
X132365858Y-71294085D01*
X132364280Y-71300736D01*
X132359155Y-71322330D01*
X132355888Y-71332662D01*
X132345127Y-71359634D01*
X132344500Y-71366029D01*
X132344500Y-71375423D01*
X132342500Y-71392509D01*
X132339579Y-71404818D01*
X132340501Y-71411591D01*
X132343824Y-71436010D01*
X132344500Y-71445989D01*
X132344500Y-85644467D01*
X132344086Y-85650101D01*
X132342542Y-85654599D01*
X132342798Y-85661423D01*
X132342798Y-85661424D01*
X132344448Y-85705364D01*
X132344500Y-85708140D01*
X132344500Y-85728414D01*
X132345125Y-85731767D01*
X132345438Y-85735159D01*
X132345258Y-85735176D01*
X132345723Y-85739310D01*
X132346812Y-85768327D01*
X132349509Y-85774604D01*
X132352602Y-85781803D01*
X132357361Y-85797467D01*
X132360046Y-85811884D01*
X132363632Y-85817701D01*
X132363632Y-85817702D01*
X132375280Y-85836598D01*
X132380272Y-85846207D01*
X132391737Y-85872893D01*
X132395816Y-85877858D01*
X132402458Y-85884500D01*
X132413125Y-85897995D01*
X132419764Y-85908765D01*
X132425203Y-85912901D01*
X132444822Y-85927820D01*
X132452356Y-85934398D01*
X132661132Y-86143174D01*
X132682524Y-86189050D01*
X132669423Y-86237945D01*
X132627959Y-86266979D01*
X132608806Y-86269500D01*
X131636276Y-86269500D01*
X131588141Y-86275837D01*
X131482509Y-86325094D01*
X131400094Y-86407509D01*
X131350837Y-86513141D01*
X131344500Y-86561276D01*
X131344500Y-86938724D01*
X131350837Y-86986859D01*
X131400094Y-87092491D01*
X131482509Y-87174906D01*
X131588141Y-87224163D01*
X131636276Y-87230500D01*
X132545500Y-87230500D01*
X132593066Y-87247813D01*
X132618376Y-87291650D01*
X132619500Y-87304500D01*
X132619500Y-91574467D01*
X132619086Y-91580101D01*
X132617542Y-91584599D01*
X132617798Y-91591423D01*
X132617798Y-91591424D01*
X132619448Y-91635364D01*
X132619500Y-91638140D01*
X132619500Y-91658414D01*
X132620125Y-91661767D01*
X132620438Y-91665159D01*
X132620258Y-91665176D01*
X132620723Y-91669310D01*
X132621812Y-91698327D01*
X132626408Y-91709024D01*
X132627602Y-91711803D01*
X132632361Y-91727467D01*
X132635046Y-91741884D01*
X132638632Y-91747701D01*
X132638632Y-91747702D01*
X132650280Y-91766598D01*
X132655272Y-91776207D01*
X132666737Y-91802893D01*
X132670816Y-91807858D01*
X132677458Y-91814500D01*
X132688125Y-91827995D01*
X132694764Y-91838765D01*
X132700203Y-91842901D01*
X132719822Y-91857820D01*
X132727356Y-91864398D01*
X133352826Y-92489868D01*
X133374218Y-92535744D01*
X133374500Y-92542194D01*
X133374501Y-92675840D01*
X133374501Y-92751968D01*
X133380549Y-92797917D01*
X133382940Y-92803044D01*
X133382940Y-92803045D01*
X133399337Y-92838208D01*
X133427571Y-92898755D01*
X133506245Y-92977429D01*
X133603828Y-93022933D01*
X133639621Y-93058726D01*
X133644032Y-93109153D01*
X133614999Y-93150617D01*
X133603829Y-93157066D01*
X133506245Y-93202571D01*
X133427571Y-93281245D01*
X133380549Y-93382083D01*
X133374500Y-93428031D01*
X133374501Y-93548033D01*
X133374501Y-93637805D01*
X133357189Y-93685371D01*
X133352827Y-93690131D01*
X132898245Y-94144713D01*
X132893970Y-94148402D01*
X132889698Y-94150491D01*
X132885053Y-94155498D01*
X132885052Y-94155499D01*
X132855152Y-94187732D01*
X132853226Y-94189732D01*
X132838887Y-94204071D01*
X132836964Y-94206874D01*
X132834780Y-94209502D01*
X132834641Y-94209386D01*
X132832048Y-94212639D01*
X132812299Y-94233928D01*
X132806864Y-94247552D01*
X132799154Y-94261992D01*
X132790858Y-94274085D01*
X132789280Y-94280736D01*
X132784155Y-94302330D01*
X132780888Y-94312662D01*
X132770127Y-94339634D01*
X132769500Y-94346029D01*
X132769500Y-94355423D01*
X132767500Y-94372509D01*
X132764579Y-94384818D01*
X132765501Y-94391591D01*
X132768824Y-94416010D01*
X132769500Y-94425989D01*
X132769500Y-94578414D01*
X132770125Y-94581770D01*
X132774929Y-94607561D01*
X132785046Y-94661884D01*
X132788630Y-94667698D01*
X132789539Y-94670054D01*
X132794501Y-94696694D01*
X132794501Y-94767776D01*
X132804973Y-94820428D01*
X132844867Y-94880133D01*
X132904572Y-94920027D01*
X132911717Y-94921448D01*
X132911719Y-94921449D01*
X132953653Y-94929790D01*
X132953654Y-94929790D01*
X132957223Y-94930500D01*
X133074983Y-94930500D01*
X133192776Y-94930499D01*
X133245428Y-94920027D01*
X133272041Y-94902245D01*
X133299072Y-94884183D01*
X133305133Y-94880133D01*
X133345027Y-94820428D01*
X133346450Y-94813278D01*
X133354790Y-94771347D01*
X133354790Y-94771346D01*
X133355500Y-94767777D01*
X133355500Y-94685675D01*
X133360768Y-94658254D01*
X133377938Y-94615216D01*
X133379873Y-94610366D01*
X133380500Y-94603971D01*
X133380500Y-94557194D01*
X133397813Y-94509628D01*
X133402174Y-94504868D01*
X133834868Y-94072174D01*
X133880744Y-94050782D01*
X133887194Y-94050500D01*
X134079308Y-94050499D01*
X134096968Y-94050499D01*
X134099375Y-94050182D01*
X134099378Y-94050182D01*
X134137305Y-94045190D01*
X134137307Y-94045189D01*
X134142917Y-94044451D01*
X134148044Y-94042060D01*
X134148045Y-94042060D01*
X134183208Y-94025663D01*
X134243755Y-93997429D01*
X134322429Y-93918755D01*
X134369451Y-93817917D01*
X134375500Y-93771969D01*
X134375499Y-93428032D01*
X134371824Y-93400108D01*
X134370190Y-93387695D01*
X134370189Y-93387693D01*
X134369451Y-93382083D01*
X134367059Y-93376952D01*
X134325164Y-93287111D01*
X134322429Y-93281245D01*
X134243755Y-93202571D01*
X134146172Y-93157067D01*
X134110379Y-93121274D01*
X134105968Y-93070847D01*
X134135001Y-93029383D01*
X134146172Y-93022933D01*
X134243755Y-92977429D01*
X134322429Y-92898755D01*
X134369451Y-92797917D01*
X134375500Y-92751969D01*
X134375499Y-92408032D01*
X134369451Y-92362083D01*
X134322429Y-92261245D01*
X134243755Y-92182571D01*
X134142917Y-92135549D01*
X134096969Y-92129500D01*
X134079322Y-92129500D01*
X133887195Y-92129501D01*
X133839629Y-92112189D01*
X133834869Y-92107827D01*
X133252174Y-91525132D01*
X133230782Y-91479256D01*
X133230500Y-91472806D01*
X133230500Y-88176549D01*
X133247813Y-88128983D01*
X133291650Y-88103673D01*
X133341500Y-88112463D01*
X133347377Y-88116973D01*
X133347628Y-88116615D01*
X133352931Y-88120328D01*
X133357509Y-88124906D01*
X133463141Y-88174163D01*
X133511276Y-88180500D01*
X133702394Y-88180500D01*
X133749960Y-88197813D01*
X133775270Y-88241650D01*
X133769386Y-88281036D01*
X133770688Y-88281459D01*
X133768889Y-88286996D01*
X133766244Y-88292187D01*
X133745209Y-88425000D01*
X133746120Y-88430752D01*
X133765332Y-88552058D01*
X133765333Y-88552060D01*
X133766244Y-88557813D01*
X133798879Y-88621863D01*
X133805048Y-88672103D01*
X133800013Y-88686729D01*
X133755548Y-88782083D01*
X133749499Y-88828031D01*
X133749500Y-89271968D01*
X133755548Y-89317917D01*
X133802570Y-89418755D01*
X133881244Y-89497429D01*
X133982082Y-89544451D01*
X134028030Y-89550500D01*
X134199928Y-89550500D01*
X134371967Y-89550499D01*
X134374374Y-89550182D01*
X134374377Y-89550182D01*
X134412304Y-89545190D01*
X134412306Y-89545189D01*
X134417916Y-89544451D01*
X134423043Y-89542060D01*
X134423044Y-89542060D01*
X134458207Y-89525663D01*
X134518754Y-89497429D01*
X134597428Y-89418755D01*
X134628433Y-89352265D01*
X134664226Y-89316472D01*
X134714653Y-89312061D01*
X134756117Y-89341094D01*
X134769500Y-89383539D01*
X134769500Y-94871593D01*
X134752187Y-94919159D01*
X134747826Y-94923919D01*
X134728412Y-94943333D01*
X134680645Y-95045769D01*
X134674500Y-95092446D01*
X134674500Y-95507554D01*
X134680645Y-95554231D01*
X134683038Y-95559362D01*
X134697567Y-95590520D01*
X134704500Y-95621794D01*
X134704500Y-96730500D01*
X134687187Y-96778066D01*
X134643350Y-96803376D01*
X134630500Y-96804500D01*
X134617446Y-96804500D01*
X134570769Y-96810645D01*
X134534480Y-96827567D01*
X134503206Y-96834500D01*
X134146794Y-96834500D01*
X134115520Y-96827567D01*
X134079231Y-96810645D01*
X134032554Y-96804500D01*
X133792195Y-96804500D01*
X133744629Y-96787187D01*
X133739869Y-96782826D01*
X133402174Y-96445132D01*
X133380782Y-96399256D01*
X133380500Y-96392806D01*
X133380500Y-96021586D01*
X133375488Y-95994677D01*
X133366205Y-95944831D01*
X133366204Y-95944829D01*
X133364954Y-95938116D01*
X133361370Y-95932302D01*
X133360461Y-95929946D01*
X133355499Y-95903306D01*
X133355499Y-95832224D01*
X133345027Y-95779572D01*
X133305133Y-95719867D01*
X133245428Y-95679973D01*
X133238283Y-95678552D01*
X133238281Y-95678551D01*
X133196347Y-95670210D01*
X133196346Y-95670210D01*
X133192777Y-95669500D01*
X133075017Y-95669500D01*
X132957224Y-95669501D01*
X132904572Y-95679973D01*
X132844867Y-95719867D01*
X132804973Y-95779572D01*
X132803552Y-95786717D01*
X132803551Y-95786719D01*
X132795210Y-95828653D01*
X132794500Y-95832223D01*
X132794500Y-95914325D01*
X132789232Y-95941745D01*
X132770127Y-95989634D01*
X132769500Y-95996029D01*
X132769500Y-96494467D01*
X132769086Y-96500101D01*
X132767542Y-96504599D01*
X132767798Y-96511423D01*
X132767798Y-96511424D01*
X132769448Y-96555364D01*
X132769500Y-96558140D01*
X132769500Y-96578414D01*
X132770125Y-96581767D01*
X132770438Y-96585159D01*
X132770258Y-96585176D01*
X132770723Y-96589310D01*
X132771812Y-96618327D01*
X132774509Y-96624604D01*
X132777602Y-96631803D01*
X132782361Y-96647467D01*
X132785046Y-96661884D01*
X132788632Y-96667701D01*
X132788632Y-96667702D01*
X132800280Y-96686598D01*
X132805272Y-96696207D01*
X132816737Y-96722893D01*
X132820816Y-96727858D01*
X132827458Y-96734500D01*
X132838125Y-96747995D01*
X132844764Y-96758765D01*
X132850203Y-96762901D01*
X132869822Y-96777820D01*
X132877356Y-96784398D01*
X133312826Y-97219868D01*
X133334218Y-97265744D01*
X133334500Y-97272194D01*
X133334500Y-97442554D01*
X133340645Y-97489231D01*
X133388412Y-97591667D01*
X133468333Y-97671588D01*
X133570769Y-97719355D01*
X133617446Y-97725500D01*
X134032554Y-97725500D01*
X134079231Y-97719355D01*
X134115520Y-97702433D01*
X134146794Y-97695500D01*
X134503206Y-97695500D01*
X134534480Y-97702433D01*
X134570769Y-97719355D01*
X134617446Y-97725500D01*
X135032554Y-97725500D01*
X135079231Y-97719355D01*
X135181667Y-97671588D01*
X135261588Y-97591667D01*
X135309355Y-97489231D01*
X135315500Y-97442554D01*
X135315500Y-97413971D01*
X135332813Y-97366405D01*
X135337174Y-97361645D01*
X135368174Y-97330645D01*
X135414050Y-97309253D01*
X135462945Y-97322354D01*
X135491979Y-97363818D01*
X135494500Y-97382971D01*
X135494500Y-99521029D01*
X135477187Y-99568595D01*
X135472826Y-99573355D01*
X135058355Y-99987826D01*
X135012479Y-100009218D01*
X135006029Y-100009500D01*
X134977446Y-100009500D01*
X134930769Y-100015645D01*
X134828333Y-100063412D01*
X134748412Y-100143333D01*
X134700645Y-100245769D01*
X134694500Y-100292446D01*
X134694500Y-100707554D01*
X134700645Y-100754231D01*
X134703038Y-100759362D01*
X134717567Y-100790520D01*
X134724500Y-100821794D01*
X134724500Y-102211029D01*
X134707187Y-102258595D01*
X134702826Y-102263355D01*
X134318355Y-102647826D01*
X134272479Y-102669218D01*
X134266029Y-102669500D01*
X133993084Y-102669500D01*
X133898132Y-102684539D01*
X133892944Y-102687182D01*
X133892942Y-102687183D01*
X133788868Y-102740211D01*
X133788865Y-102740213D01*
X133783682Y-102742854D01*
X133692854Y-102833682D01*
X133690213Y-102838865D01*
X133690211Y-102838868D01*
X133641728Y-102934022D01*
X133634539Y-102948132D01*
X133619500Y-103043084D01*
X133619500Y-103556916D01*
X133634539Y-103651868D01*
X133637182Y-103657056D01*
X133637183Y-103657058D01*
X133690211Y-103761132D01*
X133690213Y-103761135D01*
X133692854Y-103766318D01*
X133783682Y-103857146D01*
X133788868Y-103859788D01*
X133788873Y-103859792D01*
X133804095Y-103867548D01*
X133838617Y-103904568D01*
X133844500Y-103933482D01*
X133844500Y-104940500D01*
X133827187Y-104988066D01*
X133783350Y-105013376D01*
X133770500Y-105014500D01*
X133417446Y-105014500D01*
X133370769Y-105020645D01*
X133268333Y-105068412D01*
X133188412Y-105148333D01*
X133140645Y-105250769D01*
X133134500Y-105297446D01*
X133134500Y-105326029D01*
X133117187Y-105373595D01*
X133112826Y-105378355D01*
X133006826Y-105484355D01*
X132960950Y-105505747D01*
X132912055Y-105492646D01*
X132883021Y-105451182D01*
X132880500Y-105432029D01*
X132880499Y-104985865D01*
X132880499Y-104982224D01*
X132870027Y-104929572D01*
X132830133Y-104869867D01*
X132770428Y-104829973D01*
X132763283Y-104828552D01*
X132763281Y-104828551D01*
X132721347Y-104820210D01*
X132721346Y-104820210D01*
X132717777Y-104819500D01*
X132575020Y-104819500D01*
X132432224Y-104819501D01*
X132379572Y-104829973D01*
X132373514Y-104834021D01*
X132373511Y-104834022D01*
X132366113Y-104838966D01*
X132316945Y-104850998D01*
X132283887Y-104838966D01*
X132276487Y-104834021D01*
X132276485Y-104834020D01*
X132270428Y-104829973D01*
X132263283Y-104828552D01*
X132263281Y-104828551D01*
X132221347Y-104820210D01*
X132221346Y-104820210D01*
X132217777Y-104819500D01*
X132075020Y-104819500D01*
X131932224Y-104819501D01*
X131879572Y-104829973D01*
X131873514Y-104834021D01*
X131873511Y-104834022D01*
X131866113Y-104838966D01*
X131816945Y-104850998D01*
X131783887Y-104838966D01*
X131776487Y-104834021D01*
X131776485Y-104834020D01*
X131770428Y-104829973D01*
X131763283Y-104828552D01*
X131763281Y-104828551D01*
X131721347Y-104820210D01*
X131721346Y-104820210D01*
X131717777Y-104819500D01*
X131575020Y-104819500D01*
X131432224Y-104819501D01*
X131379572Y-104829973D01*
X131373514Y-104834021D01*
X131373511Y-104834022D01*
X131366113Y-104838966D01*
X131316945Y-104850998D01*
X131283887Y-104838966D01*
X131276487Y-104834021D01*
X131276485Y-104834020D01*
X131270428Y-104829973D01*
X131263283Y-104828552D01*
X131263281Y-104828551D01*
X131221347Y-104820210D01*
X131221346Y-104820210D01*
X131217777Y-104819500D01*
X131075020Y-104819500D01*
X130932224Y-104819501D01*
X130879572Y-104829973D01*
X130819867Y-104869867D01*
X130779973Y-104929572D01*
X130776863Y-104945209D01*
X130774277Y-104958206D01*
X130748016Y-105001480D01*
X130700083Y-105017750D01*
X130668103Y-105009702D01*
X130582813Y-104966244D01*
X130450000Y-104945209D01*
X130317187Y-104966244D01*
X130197375Y-105027292D01*
X130102292Y-105122375D01*
X130041244Y-105242187D01*
X130020209Y-105375000D01*
X130041244Y-105507813D01*
X130102292Y-105627625D01*
X130197375Y-105722708D01*
X130317187Y-105783756D01*
X130450000Y-105804791D01*
X130582813Y-105783756D01*
X130702625Y-105722708D01*
X130723159Y-105702174D01*
X130769035Y-105680782D01*
X130775485Y-105680500D01*
X130894467Y-105680500D01*
X130900101Y-105680914D01*
X130904599Y-105682458D01*
X130911423Y-105682202D01*
X130911424Y-105682202D01*
X130955364Y-105680552D01*
X130958140Y-105680500D01*
X131033806Y-105680500D01*
X131081372Y-105697813D01*
X131106682Y-105741650D01*
X131097892Y-105791500D01*
X131086132Y-105806826D01*
X130805132Y-106087826D01*
X130759256Y-106109218D01*
X130752806Y-106109500D01*
X130691336Y-106109500D01*
X130643770Y-106092187D01*
X130639010Y-106087826D01*
X130568755Y-106017571D01*
X130467917Y-105970549D01*
X130421969Y-105964500D01*
X130200092Y-105964500D01*
X129978032Y-105964501D01*
X129975625Y-105964818D01*
X129975622Y-105964818D01*
X129937695Y-105969810D01*
X129937693Y-105969811D01*
X129932083Y-105970549D01*
X129926956Y-105972940D01*
X129926955Y-105972940D01*
X129913306Y-105979305D01*
X129831245Y-106017571D01*
X129752571Y-106096245D01*
X129705549Y-106197083D01*
X129699500Y-106243031D01*
X129699501Y-106586968D01*
X129699818Y-106589375D01*
X129699818Y-106589378D01*
X129702881Y-106612644D01*
X129705549Y-106632917D01*
X129707940Y-106638044D01*
X129707940Y-106638045D01*
X129719736Y-106663340D01*
X129752571Y-106733755D01*
X129831245Y-106812429D01*
X129925643Y-106856448D01*
X129928828Y-106857933D01*
X129964621Y-106893726D01*
X129969032Y-106944153D01*
X129939999Y-106985617D01*
X129928829Y-106992066D01*
X129831245Y-107037571D01*
X129752571Y-107116245D01*
X129705549Y-107217083D01*
X129699500Y-107263031D01*
X129699501Y-107606968D01*
X129705549Y-107652917D01*
X129707940Y-107658044D01*
X129707940Y-107658045D01*
X129748862Y-107745801D01*
X129752571Y-107753755D01*
X129756321Y-107757505D01*
X129769500Y-107799305D01*
X129769500Y-107857346D01*
X129769909Y-107860065D01*
X129769909Y-107860068D01*
X129773733Y-107885500D01*
X129783883Y-107953014D01*
X129839920Y-108069710D01*
X129843676Y-108073773D01*
X129919350Y-108155638D01*
X129927792Y-108164771D01*
X130039732Y-108229790D01*
X130045119Y-108231039D01*
X130045120Y-108231039D01*
X130160453Y-108257772D01*
X130165842Y-108259021D01*
X130257291Y-108252546D01*
X130289450Y-108250269D01*
X130289451Y-108250269D01*
X130294971Y-108249878D01*
X130415704Y-108203170D01*
X130464413Y-108164771D01*
X130513022Y-108126451D01*
X130513024Y-108126449D01*
X130517366Y-108123026D01*
X130590968Y-108016533D01*
X130630003Y-107893106D01*
X130630500Y-107886791D01*
X130630500Y-107799305D01*
X130643679Y-107757505D01*
X130647429Y-107753755D01*
X130694451Y-107652917D01*
X130700500Y-107606969D01*
X130700499Y-107263032D01*
X130694451Y-107217083D01*
X130692059Y-107211952D01*
X130650164Y-107122111D01*
X130647429Y-107116245D01*
X130568755Y-107037571D01*
X130471172Y-106992067D01*
X130435379Y-106956274D01*
X130430968Y-106905847D01*
X130460001Y-106864383D01*
X130471172Y-106857933D01*
X130474357Y-106856448D01*
X130568755Y-106812429D01*
X130639010Y-106742174D01*
X130684886Y-106720782D01*
X130691336Y-106720500D01*
X130854467Y-106720500D01*
X130860101Y-106720914D01*
X130864599Y-106722458D01*
X130871423Y-106722202D01*
X130871424Y-106722202D01*
X130915364Y-106720552D01*
X130918140Y-106720500D01*
X130938414Y-106720500D01*
X130941767Y-106719875D01*
X130945159Y-106719562D01*
X130945176Y-106719742D01*
X130949310Y-106719277D01*
X130978327Y-106718188D01*
X130991804Y-106712398D01*
X131007467Y-106707639D01*
X131021884Y-106704954D01*
X131046601Y-106689719D01*
X131056207Y-106684728D01*
X131082893Y-106673263D01*
X131087858Y-106669184D01*
X131094500Y-106662542D01*
X131107996Y-106651874D01*
X131112949Y-106648821D01*
X131118765Y-106645236D01*
X131137820Y-106620178D01*
X131144398Y-106612644D01*
X131473174Y-106283868D01*
X131519050Y-106262476D01*
X131567945Y-106275577D01*
X131596979Y-106317041D01*
X131599500Y-106336194D01*
X131599500Y-106660934D01*
X131605789Y-106708702D01*
X131654673Y-106813535D01*
X131692826Y-106851688D01*
X131714218Y-106897564D01*
X131714500Y-106904014D01*
X131714500Y-106991593D01*
X131697187Y-107039159D01*
X131692826Y-107043919D01*
X131638412Y-107098333D01*
X131590645Y-107200769D01*
X131584500Y-107247446D01*
X131584500Y-107602554D01*
X131590645Y-107649231D01*
X131638412Y-107751667D01*
X131718333Y-107831588D01*
X131731940Y-107837933D01*
X131767733Y-107873726D01*
X131772145Y-107924152D01*
X131743111Y-107965617D01*
X131731941Y-107972067D01*
X131718333Y-107978412D01*
X131638412Y-108058333D01*
X131590645Y-108160769D01*
X131584500Y-108207446D01*
X131584500Y-108562554D01*
X131590645Y-108609231D01*
X131638412Y-108711667D01*
X131692826Y-108766081D01*
X131714218Y-108811957D01*
X131714500Y-108818407D01*
X131714500Y-111020501D01*
X131697187Y-111068067D01*
X131653350Y-111093377D01*
X131640500Y-111094501D01*
X131557224Y-111094501D01*
X131504572Y-111104973D01*
X131444867Y-111144867D01*
X131404973Y-111204572D01*
X131403552Y-111211717D01*
X131403551Y-111211719D01*
X131395210Y-111253653D01*
X131394500Y-111257223D01*
X131394501Y-112292776D01*
X131404973Y-112345428D01*
X131444867Y-112405133D01*
X131504572Y-112445027D01*
X131511717Y-112446448D01*
X131511719Y-112446449D01*
X131553653Y-112454790D01*
X131553654Y-112454790D01*
X131557223Y-112455500D01*
X132074928Y-112455500D01*
X132592776Y-112455499D01*
X132645428Y-112445027D01*
X132705133Y-112405133D01*
X132745027Y-112345428D01*
X132746450Y-112338278D01*
X132754790Y-112296347D01*
X132754790Y-112296346D01*
X132755500Y-112292777D01*
X132755499Y-111257224D01*
X132745027Y-111204572D01*
X132705133Y-111144867D01*
X132645428Y-111104973D01*
X132638283Y-111103552D01*
X132638281Y-111103551D01*
X132596347Y-111095210D01*
X132596346Y-111095210D01*
X132592777Y-111094500D01*
X132509500Y-111094500D01*
X132461934Y-111077187D01*
X132436624Y-111033350D01*
X132435500Y-111020500D01*
X132435500Y-108818407D01*
X132452813Y-108770841D01*
X132457174Y-108766081D01*
X132511588Y-108711667D01*
X132559355Y-108609231D01*
X132565500Y-108562554D01*
X132565500Y-108207446D01*
X132559355Y-108160769D01*
X132511588Y-108058333D01*
X132431667Y-107978412D01*
X132418060Y-107972067D01*
X132382267Y-107936274D01*
X132377855Y-107885848D01*
X132406889Y-107844383D01*
X132418060Y-107837933D01*
X132431667Y-107831588D01*
X132511588Y-107751667D01*
X132559355Y-107649231D01*
X132565500Y-107602554D01*
X132565500Y-107247446D01*
X132559355Y-107200769D01*
X132511588Y-107098333D01*
X132457174Y-107043919D01*
X132435782Y-106998043D01*
X132435500Y-106991593D01*
X132435500Y-106904014D01*
X132452813Y-106856448D01*
X132457174Y-106851688D01*
X132495327Y-106813535D01*
X132498062Y-106807669D01*
X132499383Y-106805783D01*
X132540848Y-106776749D01*
X132591274Y-106781162D01*
X132620617Y-106805783D01*
X132621938Y-106807669D01*
X132624673Y-106813535D01*
X132706465Y-106895327D01*
X132811298Y-106944211D01*
X132859066Y-106950500D01*
X133230934Y-106950500D01*
X133278702Y-106944211D01*
X133383535Y-106895327D01*
X133465327Y-106813535D01*
X133514211Y-106708702D01*
X133520500Y-106660934D01*
X133520500Y-106239066D01*
X133520182Y-106236649D01*
X133519360Y-106230399D01*
X133530318Y-106180980D01*
X133540401Y-106168418D01*
X133751645Y-105957174D01*
X133797521Y-105935782D01*
X133803971Y-105935500D01*
X133832554Y-105935500D01*
X133879231Y-105929355D01*
X133915520Y-105912433D01*
X133946794Y-105905500D01*
X134045041Y-105905500D01*
X134053739Y-105906013D01*
X134088675Y-105910148D01*
X134094117Y-105909154D01*
X134094120Y-105909154D01*
X134144530Y-105899947D01*
X134146823Y-105899565D01*
X134197541Y-105891940D01*
X134197542Y-105891940D01*
X134203014Y-105891117D01*
X134207678Y-105888877D01*
X134208175Y-105888707D01*
X134210389Y-105887988D01*
X134210943Y-105887817D01*
X134216022Y-105886890D01*
X134266436Y-105860702D01*
X134268495Y-105859673D01*
X134319710Y-105835080D01*
X134323503Y-105831574D01*
X134324132Y-105831198D01*
X134327155Y-105829161D01*
X134330900Y-105827216D01*
X134334105Y-105824479D01*
X134334109Y-105824476D01*
X134335717Y-105823102D01*
X134371962Y-105786857D01*
X134374057Y-105784843D01*
X134410709Y-105750963D01*
X134410710Y-105750962D01*
X134414771Y-105747208D01*
X134417548Y-105742426D01*
X134419659Y-105739792D01*
X134425084Y-105733735D01*
X134558229Y-105600590D01*
X134564742Y-105594803D01*
X134588022Y-105576451D01*
X134588024Y-105576449D01*
X134592366Y-105573026D01*
X134624672Y-105526283D01*
X134626002Y-105524422D01*
X134634437Y-105513003D01*
X134642519Y-105502060D01*
X134656475Y-105483166D01*
X134656476Y-105483163D01*
X134659759Y-105478719D01*
X134661471Y-105473844D01*
X134661714Y-105473347D01*
X134662770Y-105471273D01*
X134663025Y-105470791D01*
X134665968Y-105466533D01*
X134683097Y-105412373D01*
X134683831Y-105410173D01*
X134696182Y-105375000D01*
X134702651Y-105356579D01*
X134702854Y-105351422D01*
X134703036Y-105350701D01*
X134703733Y-105347121D01*
X134705003Y-105343106D01*
X134705500Y-105336791D01*
X134705500Y-105285547D01*
X134705557Y-105282641D01*
X134707518Y-105232753D01*
X134707518Y-105232751D01*
X134707735Y-105227226D01*
X134706317Y-105221879D01*
X134705947Y-105218527D01*
X134705500Y-105210406D01*
X134705500Y-103933482D01*
X134722813Y-103885916D01*
X134745905Y-103867548D01*
X134761127Y-103859792D01*
X134761132Y-103859788D01*
X134766318Y-103857146D01*
X134857146Y-103766318D01*
X134859787Y-103761135D01*
X134859789Y-103761132D01*
X134912817Y-103657058D01*
X134912818Y-103657056D01*
X134915461Y-103651868D01*
X134930500Y-103556916D01*
X134930500Y-103283971D01*
X134947813Y-103236405D01*
X134952174Y-103231645D01*
X135438229Y-102745590D01*
X135444742Y-102739803D01*
X135468022Y-102721451D01*
X135468024Y-102721449D01*
X135472366Y-102718026D01*
X135504668Y-102671289D01*
X135505999Y-102669428D01*
X135536473Y-102628170D01*
X135536475Y-102628166D01*
X135539759Y-102623720D01*
X135541472Y-102618843D01*
X135541716Y-102618344D01*
X135542781Y-102616254D01*
X135543032Y-102615781D01*
X135545968Y-102611533D01*
X135550229Y-102598062D01*
X135563100Y-102557363D01*
X135563836Y-102555159D01*
X135580817Y-102506804D01*
X135580818Y-102506799D01*
X135582651Y-102501579D01*
X135582854Y-102496419D01*
X135583037Y-102495695D01*
X135583733Y-102492122D01*
X135585003Y-102488106D01*
X135585500Y-102481791D01*
X135585500Y-102430547D01*
X135585557Y-102427641D01*
X135587518Y-102377753D01*
X135587518Y-102377751D01*
X135587735Y-102372226D01*
X135586317Y-102366879D01*
X135585947Y-102363527D01*
X135585500Y-102355406D01*
X135585500Y-100821794D01*
X135592433Y-100790520D01*
X135606962Y-100759362D01*
X135609355Y-100754231D01*
X135615500Y-100707554D01*
X135615500Y-100678971D01*
X135632813Y-100631405D01*
X135637174Y-100626645D01*
X136141974Y-100121845D01*
X136187850Y-100100453D01*
X136236745Y-100113554D01*
X136265779Y-100155018D01*
X136268300Y-100174171D01*
X136268300Y-132201000D01*
X136250987Y-132248566D01*
X136207150Y-132273876D01*
X136194300Y-132275000D01*
X129449000Y-132275000D01*
X129401434Y-132257687D01*
X129376124Y-132213850D01*
X129375000Y-132201000D01*
X129375000Y-103108031D01*
X129524500Y-103108031D01*
X129524501Y-103451968D01*
X129530549Y-103497917D01*
X129577571Y-103598755D01*
X129656245Y-103677429D01*
X129757083Y-103724451D01*
X129803031Y-103730500D01*
X130024908Y-103730500D01*
X130246968Y-103730499D01*
X130249375Y-103730182D01*
X130249378Y-103730182D01*
X130287305Y-103725190D01*
X130287307Y-103725189D01*
X130292917Y-103724451D01*
X130298044Y-103722060D01*
X130298045Y-103722060D01*
X130333208Y-103705663D01*
X130393755Y-103677429D01*
X130398333Y-103672851D01*
X130403636Y-103669138D01*
X130405509Y-103671812D01*
X130439886Y-103655782D01*
X130446336Y-103655500D01*
X130730445Y-103655500D01*
X130778011Y-103672813D01*
X130791972Y-103688386D01*
X130819867Y-103730133D01*
X130879572Y-103770027D01*
X130886717Y-103771448D01*
X130886719Y-103771449D01*
X130928653Y-103779790D01*
X130928654Y-103779790D01*
X130932223Y-103780500D01*
X131074980Y-103780500D01*
X131217776Y-103780499D01*
X131270428Y-103770027D01*
X131276486Y-103765979D01*
X131276489Y-103765978D01*
X131283887Y-103761034D01*
X131333055Y-103749002D01*
X131366113Y-103761034D01*
X131373513Y-103765979D01*
X131373515Y-103765980D01*
X131379572Y-103770027D01*
X131386717Y-103771448D01*
X131386719Y-103771449D01*
X131428653Y-103779790D01*
X131428654Y-103779790D01*
X131432223Y-103780500D01*
X131574980Y-103780500D01*
X131717776Y-103780499D01*
X131770428Y-103770027D01*
X131776486Y-103765979D01*
X131776489Y-103765978D01*
X131783887Y-103761034D01*
X131833055Y-103749002D01*
X131866113Y-103761034D01*
X131873513Y-103765979D01*
X131873515Y-103765980D01*
X131879572Y-103770027D01*
X131886717Y-103771448D01*
X131886719Y-103771449D01*
X131928653Y-103779790D01*
X131928654Y-103779790D01*
X131932223Y-103780500D01*
X132074980Y-103780500D01*
X132217776Y-103780499D01*
X132270428Y-103770027D01*
X132276486Y-103765979D01*
X132276489Y-103765978D01*
X132283887Y-103761034D01*
X132333055Y-103749002D01*
X132366113Y-103761034D01*
X132373513Y-103765979D01*
X132373515Y-103765980D01*
X132379572Y-103770027D01*
X132386717Y-103771448D01*
X132386719Y-103771449D01*
X132428653Y-103779790D01*
X132428654Y-103779790D01*
X132432223Y-103780500D01*
X132574980Y-103780500D01*
X132717776Y-103780499D01*
X132770428Y-103770027D01*
X132830133Y-103730133D01*
X132870027Y-103670428D01*
X132872687Y-103657058D01*
X132879790Y-103621347D01*
X132879790Y-103621346D01*
X132880500Y-103617777D01*
X132880499Y-103082224D01*
X132870027Y-103029572D01*
X132858027Y-103011612D01*
X132834183Y-102975928D01*
X132834182Y-102975927D01*
X132830133Y-102969867D01*
X132817230Y-102961245D01*
X132789837Y-102942942D01*
X132770428Y-102929973D01*
X132763283Y-102928552D01*
X132763281Y-102928551D01*
X132721347Y-102920210D01*
X132721346Y-102920210D01*
X132717777Y-102919500D01*
X132704546Y-102919500D01*
X132509499Y-102919501D01*
X132461934Y-102902189D01*
X132436624Y-102858351D01*
X132435500Y-102845501D01*
X132435500Y-102604014D01*
X132452813Y-102556448D01*
X132457174Y-102551688D01*
X132495327Y-102513535D01*
X132544211Y-102408702D01*
X132550500Y-102360934D01*
X132550500Y-101939066D01*
X132544211Y-101891298D01*
X132495327Y-101786465D01*
X132457174Y-101748312D01*
X132435782Y-101702436D01*
X132435500Y-101695986D01*
X132435500Y-101599014D01*
X132452813Y-101551448D01*
X132457174Y-101546688D01*
X132520327Y-101483535D01*
X132569211Y-101378702D01*
X132575500Y-101330934D01*
X132575500Y-100959066D01*
X132569211Y-100911298D01*
X132520327Y-100806465D01*
X132438535Y-100724673D01*
X132432669Y-100721938D01*
X132430783Y-100720617D01*
X132401749Y-100679152D01*
X132406162Y-100628726D01*
X132430783Y-100599383D01*
X132432669Y-100598062D01*
X132438535Y-100595327D01*
X132520327Y-100513535D01*
X132569211Y-100408702D01*
X132575500Y-100360934D01*
X132575500Y-99989066D01*
X132569211Y-99941298D01*
X132520327Y-99836465D01*
X132457174Y-99773312D01*
X132435782Y-99727436D01*
X132435500Y-99720986D01*
X132435500Y-99633407D01*
X132452813Y-99585841D01*
X132457174Y-99581081D01*
X132481588Y-99556667D01*
X132529355Y-99454231D01*
X132535500Y-99407554D01*
X132535500Y-98992446D01*
X132529355Y-98945769D01*
X132481588Y-98843333D01*
X132457174Y-98818919D01*
X132435782Y-98773043D01*
X132435500Y-98766593D01*
X132435500Y-98663407D01*
X132452813Y-98615841D01*
X132457174Y-98611081D01*
X132511588Y-98556667D01*
X132559355Y-98454231D01*
X132565500Y-98407554D01*
X132565500Y-98052446D01*
X132559355Y-98005769D01*
X132511588Y-97903333D01*
X132431667Y-97823412D01*
X132418060Y-97817067D01*
X132382267Y-97781274D01*
X132377855Y-97730848D01*
X132406889Y-97689383D01*
X132418060Y-97682933D01*
X132431667Y-97676588D01*
X132511588Y-97596667D01*
X132559355Y-97494231D01*
X132565500Y-97447554D01*
X132565500Y-97092446D01*
X132559355Y-97045769D01*
X132511588Y-96943333D01*
X132457174Y-96888919D01*
X132435782Y-96843043D01*
X132435500Y-96836593D01*
X132435500Y-96020050D01*
X132422467Y-95941746D01*
X132421784Y-95937643D01*
X132421783Y-95937641D01*
X132420780Y-95931613D01*
X132387062Y-95869122D01*
X132366694Y-95831373D01*
X132366692Y-95831371D01*
X132363790Y-95825992D01*
X132361302Y-95823692D01*
X132348006Y-95794549D01*
X132346449Y-95786722D01*
X132345027Y-95779572D01*
X132305133Y-95719867D01*
X132245428Y-95679973D01*
X132238283Y-95678552D01*
X132238281Y-95678551D01*
X132196347Y-95670210D01*
X132196346Y-95670210D01*
X132192777Y-95669500D01*
X132075017Y-95669500D01*
X131957224Y-95669501D01*
X131904572Y-95679973D01*
X131844867Y-95719867D01*
X131804973Y-95779572D01*
X131803552Y-95786717D01*
X131803551Y-95786719D01*
X131800295Y-95803090D01*
X131785830Y-95834467D01*
X131754723Y-95873926D01*
X131752697Y-95879695D01*
X131752696Y-95879697D01*
X131729823Y-95944831D01*
X131714957Y-95987162D01*
X131714500Y-95992439D01*
X131714500Y-96836593D01*
X131697187Y-96884159D01*
X131692826Y-96888919D01*
X131638412Y-96943333D01*
X131590645Y-97045769D01*
X131584500Y-97092446D01*
X131584500Y-97447554D01*
X131590645Y-97494231D01*
X131638412Y-97596667D01*
X131718333Y-97676588D01*
X131731940Y-97682933D01*
X131767733Y-97718726D01*
X131772145Y-97769152D01*
X131743111Y-97810617D01*
X131731941Y-97817067D01*
X131718333Y-97823412D01*
X131638412Y-97903333D01*
X131590645Y-98005769D01*
X131584500Y-98052446D01*
X131584500Y-98407554D01*
X131590645Y-98454231D01*
X131638412Y-98556667D01*
X131692826Y-98611081D01*
X131714218Y-98656957D01*
X131714500Y-98663407D01*
X131714500Y-98766593D01*
X131697187Y-98814159D01*
X131692826Y-98818919D01*
X131668412Y-98843333D01*
X131620645Y-98945769D01*
X131614500Y-98992446D01*
X131614500Y-99407554D01*
X131620645Y-99454231D01*
X131668412Y-99556667D01*
X131692826Y-99581081D01*
X131714218Y-99626957D01*
X131714500Y-99633407D01*
X131714500Y-99720986D01*
X131697187Y-99768552D01*
X131692826Y-99773312D01*
X131629673Y-99836465D01*
X131580789Y-99941298D01*
X131574500Y-99989066D01*
X131574500Y-100360934D01*
X131580789Y-100408702D01*
X131629673Y-100513535D01*
X131711465Y-100595327D01*
X131717331Y-100598062D01*
X131719217Y-100599383D01*
X131748251Y-100640848D01*
X131743838Y-100691274D01*
X131719217Y-100720617D01*
X131717331Y-100721938D01*
X131711465Y-100724673D01*
X131629673Y-100806465D01*
X131580789Y-100911298D01*
X131574500Y-100959066D01*
X131574500Y-101330934D01*
X131580789Y-101378702D01*
X131629673Y-101483535D01*
X131692826Y-101546688D01*
X131714218Y-101592564D01*
X131714500Y-101599014D01*
X131714500Y-101695986D01*
X131697187Y-101743552D01*
X131692826Y-101748312D01*
X131654673Y-101786465D01*
X131651938Y-101792331D01*
X131650617Y-101794217D01*
X131609152Y-101823251D01*
X131558726Y-101818838D01*
X131529383Y-101794217D01*
X131528062Y-101792331D01*
X131525327Y-101786465D01*
X131443535Y-101704673D01*
X131338702Y-101655789D01*
X131290934Y-101649500D01*
X130919066Y-101649500D01*
X130871298Y-101655789D01*
X130766465Y-101704673D01*
X130684673Y-101786465D01*
X130635789Y-101891298D01*
X130629500Y-101939066D01*
X130629500Y-102360934D01*
X130635789Y-102408702D01*
X130684673Y-102513535D01*
X130766465Y-102595327D01*
X130871298Y-102644211D01*
X130919066Y-102650500D01*
X131065024Y-102650500D01*
X131112590Y-102667813D01*
X131117350Y-102672174D01*
X131192826Y-102747650D01*
X131214218Y-102793526D01*
X131214500Y-102799976D01*
X131214500Y-102845500D01*
X131197187Y-102893066D01*
X131153350Y-102918376D01*
X131140500Y-102919500D01*
X130945461Y-102919501D01*
X130932224Y-102919501D01*
X130879572Y-102929973D01*
X130873514Y-102934021D01*
X130873512Y-102934022D01*
X130825928Y-102965817D01*
X130819867Y-102969867D01*
X130798548Y-103001774D01*
X130791974Y-103011612D01*
X130751152Y-103041544D01*
X130730445Y-103044500D01*
X130558395Y-103044500D01*
X130510829Y-103027187D01*
X130491328Y-103001774D01*
X130479275Y-102975927D01*
X130472429Y-102961245D01*
X130393755Y-102882571D01*
X130292917Y-102835549D01*
X130246969Y-102829500D01*
X130025092Y-102829500D01*
X129803032Y-102829501D01*
X129800625Y-102829818D01*
X129800622Y-102829818D01*
X129762695Y-102834810D01*
X129762693Y-102834811D01*
X129757083Y-102835549D01*
X129751956Y-102837940D01*
X129751955Y-102837940D01*
X129751951Y-102837942D01*
X129656245Y-102882571D01*
X129577571Y-102961245D01*
X129530549Y-103062083D01*
X129524500Y-103108031D01*
X129375000Y-103108031D01*
X129375000Y-92454500D01*
X129392313Y-92406934D01*
X129436150Y-92381624D01*
X129449000Y-92380500D01*
X129517484Y-92380500D01*
X129548758Y-92387433D01*
X129590638Y-92406963D01*
X129590642Y-92406964D01*
X129595769Y-92409355D01*
X129601382Y-92410094D01*
X129613049Y-92411630D01*
X129642446Y-92415500D01*
X130057554Y-92415500D01*
X130086951Y-92411630D01*
X130098618Y-92410094D01*
X130104231Y-92409355D01*
X130206667Y-92361588D01*
X130207970Y-92364383D01*
X130245102Y-92354425D01*
X130290995Y-92375819D01*
X130363623Y-92448447D01*
X130385015Y-92494323D01*
X130385297Y-92500773D01*
X130385297Y-92577726D01*
X130423954Y-92683935D01*
X130452614Y-92721286D01*
X130703714Y-92972386D01*
X130741065Y-93001046D01*
X130746384Y-93002982D01*
X130840708Y-93037313D01*
X130847274Y-93039703D01*
X130960299Y-93039703D01*
X130974410Y-93034567D01*
X131025028Y-93034568D01*
X131063803Y-93067106D01*
X131072593Y-93116956D01*
X131069256Y-93129409D01*
X131064119Y-93143523D01*
X131064119Y-93256548D01*
X131102776Y-93362757D01*
X131131436Y-93400108D01*
X131382536Y-93651208D01*
X131419887Y-93679868D01*
X131425206Y-93681804D01*
X131465196Y-93696359D01*
X131526096Y-93718525D01*
X131603049Y-93718525D01*
X131650615Y-93735838D01*
X131655375Y-93740199D01*
X131692826Y-93777650D01*
X131714218Y-93823526D01*
X131714500Y-93829976D01*
X131714500Y-94579950D01*
X131719096Y-94607561D01*
X131728138Y-94661884D01*
X131729220Y-94668387D01*
X131732123Y-94673767D01*
X131783306Y-94768627D01*
X131783308Y-94768629D01*
X131786210Y-94774008D01*
X131788698Y-94776308D01*
X131801994Y-94805451D01*
X131804973Y-94820428D01*
X131844867Y-94880133D01*
X131904572Y-94920027D01*
X131911717Y-94921448D01*
X131911719Y-94921449D01*
X131953653Y-94929790D01*
X131953654Y-94929790D01*
X131957223Y-94930500D01*
X132074983Y-94930500D01*
X132192776Y-94930499D01*
X132245428Y-94920027D01*
X132272041Y-94902245D01*
X132299072Y-94884183D01*
X132305133Y-94880133D01*
X132345027Y-94820428D01*
X132346450Y-94813278D01*
X132349705Y-94796910D01*
X132364170Y-94765533D01*
X132366814Y-94762179D01*
X132395277Y-94726074D01*
X132405595Y-94696694D01*
X132433500Y-94617233D01*
X132433501Y-94617230D01*
X132435043Y-94612838D01*
X132435500Y-94607561D01*
X132435500Y-93696359D01*
X132437156Y-93680792D01*
X132440079Y-93667216D01*
X132436013Y-93632862D01*
X132435500Y-93624164D01*
X132435500Y-93620050D01*
X132434999Y-93617037D01*
X132434998Y-93617031D01*
X132432312Y-93600897D01*
X132431820Y-93597441D01*
X132426692Y-93554109D01*
X132425973Y-93548033D01*
X132423324Y-93542517D01*
X132422834Y-93540829D01*
X132422672Y-93540117D01*
X132422633Y-93539993D01*
X132422356Y-93539318D01*
X132421785Y-93537650D01*
X132420780Y-93531613D01*
X132397147Y-93487814D01*
X132395567Y-93484712D01*
X132376035Y-93444037D01*
X132374022Y-93439844D01*
X132370614Y-93435790D01*
X132369737Y-93434913D01*
X132366593Y-93431188D01*
X132363790Y-93425992D01*
X132359300Y-93421842D01*
X132359299Y-93421840D01*
X132325525Y-93390620D01*
X132323430Y-93388606D01*
X132165199Y-93230375D01*
X132143807Y-93184499D01*
X132143525Y-93178049D01*
X132143525Y-93101096D01*
X132115629Y-93024451D01*
X132106804Y-93000206D01*
X132104868Y-92994887D01*
X132076208Y-92957536D01*
X131825108Y-92706436D01*
X131787757Y-92677776D01*
X131695659Y-92644255D01*
X131687634Y-92641334D01*
X131687633Y-92641334D01*
X131681548Y-92639119D01*
X131568523Y-92639119D01*
X131554412Y-92644255D01*
X131503794Y-92644254D01*
X131465019Y-92611716D01*
X131456229Y-92561866D01*
X131459567Y-92549409D01*
X131462193Y-92542194D01*
X131464703Y-92535299D01*
X131464703Y-92422274D01*
X131462238Y-92415500D01*
X131427982Y-92321384D01*
X131426046Y-92316065D01*
X131397386Y-92278714D01*
X131146286Y-92027614D01*
X131108935Y-91998954D01*
X131002726Y-91960297D01*
X130925773Y-91960297D01*
X130878207Y-91942984D01*
X130873447Y-91938623D01*
X130667695Y-91732871D01*
X130657854Y-91720685D01*
X130653644Y-91714165D01*
X130653642Y-91714163D01*
X130650324Y-91709024D01*
X130623158Y-91687608D01*
X130616645Y-91681821D01*
X130613734Y-91678910D01*
X130611252Y-91677136D01*
X130611248Y-91677133D01*
X130597936Y-91667620D01*
X130595147Y-91665526D01*
X130594703Y-91665176D01*
X130556074Y-91634723D01*
X130550301Y-91632695D01*
X130548756Y-91631846D01*
X130548139Y-91631457D01*
X130548027Y-91631400D01*
X130547355Y-91631118D01*
X130545769Y-91630341D01*
X130540791Y-91626784D01*
X130493120Y-91612527D01*
X130489804Y-91611450D01*
X130482136Y-91608757D01*
X130442838Y-91594957D01*
X130437561Y-91594500D01*
X130436323Y-91594500D01*
X130431464Y-91594089D01*
X130425808Y-91592397D01*
X130419698Y-91592637D01*
X130373736Y-91594443D01*
X130370831Y-91594500D01*
X130283407Y-91594500D01*
X130235841Y-91577187D01*
X130231081Y-91572826D01*
X130206667Y-91548412D01*
X130104231Y-91500645D01*
X130057554Y-91494500D01*
X129642446Y-91494500D01*
X129595769Y-91500645D01*
X129589737Y-91503458D01*
X129570202Y-91512567D01*
X129538928Y-91519500D01*
X129449000Y-91519500D01*
X129401434Y-91502187D01*
X129376124Y-91458350D01*
X129375000Y-91445500D01*
X129375000Y-51624000D01*
X129392313Y-51576434D01*
X129436150Y-51551124D01*
X129449000Y-51550000D01*
X136194300Y-51550000D01*
X136241866Y-51567313D01*
G37*
%TD.AperFunction*%
%TA.AperFunction,Conductor*%
G36*
X135168066Y-80727812D02*
G01*
X135193376Y-80771649D01*
X135194500Y-80784499D01*
X135194500Y-81816029D01*
X135177187Y-81863595D01*
X135172826Y-81868355D01*
X134968355Y-82072826D01*
X134922479Y-82094218D01*
X134916029Y-82094500D01*
X134643084Y-82094500D01*
X134548132Y-82109539D01*
X134542944Y-82112182D01*
X134542942Y-82112183D01*
X134438868Y-82165211D01*
X134438865Y-82165213D01*
X134433682Y-82167854D01*
X134342854Y-82258682D01*
X134340213Y-82263865D01*
X134340211Y-82263868D01*
X134287183Y-82367942D01*
X134284539Y-82373132D01*
X134269500Y-82468084D01*
X134269500Y-82981916D01*
X134284539Y-83076868D01*
X134287182Y-83082056D01*
X134287183Y-83082058D01*
X134340211Y-83186132D01*
X134340213Y-83186135D01*
X134342854Y-83191318D01*
X134433682Y-83282146D01*
X134438865Y-83284787D01*
X134438868Y-83284789D01*
X134542942Y-83337817D01*
X134542944Y-83337818D01*
X134548132Y-83340461D01*
X134643084Y-83355500D01*
X134916029Y-83355500D01*
X134963595Y-83372813D01*
X134968355Y-83377174D01*
X135472826Y-83881645D01*
X135494218Y-83927521D01*
X135494500Y-83933971D01*
X135494500Y-85957029D01*
X135477187Y-86004595D01*
X135433350Y-86029905D01*
X135383500Y-86021115D01*
X135368174Y-86009355D01*
X135077174Y-85718355D01*
X135055782Y-85672479D01*
X135055500Y-85666029D01*
X135055500Y-85611276D01*
X135049163Y-85563141D01*
X134999906Y-85457509D01*
X134917491Y-85375094D01*
X134811859Y-85325837D01*
X134763724Y-85319500D01*
X134129500Y-85319500D01*
X134081934Y-85302187D01*
X134056624Y-85258350D01*
X134055500Y-85245500D01*
X134055500Y-84479960D01*
X134056013Y-84471263D01*
X134059498Y-84441815D01*
X134060148Y-84436325D01*
X134056704Y-84417465D01*
X134055500Y-84404173D01*
X134055500Y-84060547D01*
X134055557Y-84057641D01*
X134057518Y-84007753D01*
X134057518Y-84007751D01*
X134057735Y-84002226D01*
X134056317Y-83996879D01*
X134055947Y-83993527D01*
X134055500Y-83985406D01*
X134055500Y-80813971D01*
X134072813Y-80766405D01*
X134077174Y-80761645D01*
X134106645Y-80732174D01*
X134152521Y-80710782D01*
X134158971Y-80710500D01*
X134537176Y-80710500D01*
X135120500Y-80710499D01*
X135168066Y-80727812D01*
G37*
%TD.AperFunction*%
%TD*%
M02*
