%TF.GenerationSoftware,KiCad,Pcbnew,(6.0.4)*%
%TF.CreationDate,2023-05-09T11:07:54+09:00*%
%TF.ProjectId,Antenna,416e7465-6e6e-4612-9e6b-696361645f70,rev?*%
%TF.SameCoordinates,Original*%
%TF.FileFunction,Paste,Top*%
%TF.FilePolarity,Positive*%
%FSLAX46Y46*%
G04 Gerber Fmt 4.6, Leading zero omitted, Abs format (unit mm)*
G04 Created by KiCad (PCBNEW (6.0.4)) date 2023-05-09 11:07:54*
%MOMM*%
%LPD*%
G01*
G04 APERTURE LIST*
G04 Aperture macros list*
%AMRoundRect*
0 Rectangle with rounded corners*
0 $1 Rounding radius*
0 $2 $3 $4 $5 $6 $7 $8 $9 X,Y pos of 4 corners*
0 Add a 4 corners polygon primitive as box body*
4,1,4,$2,$3,$4,$5,$6,$7,$8,$9,$2,$3,0*
0 Add four circle primitives for the rounded corners*
1,1,$1+$1,$2,$3*
1,1,$1+$1,$4,$5*
1,1,$1+$1,$6,$7*
1,1,$1+$1,$8,$9*
0 Add four rect primitives between the rounded corners*
20,1,$1+$1,$2,$3,$4,$5,0*
20,1,$1+$1,$4,$5,$6,$7,0*
20,1,$1+$1,$6,$7,$8,$9,0*
20,1,$1+$1,$8,$9,$2,$3,0*%
G04 Aperture macros list end*
%ADD10R,1.100000X0.600000*%
%ADD11R,0.200000X0.400000*%
%ADD12RoundRect,0.225000X-0.250000X0.225000X-0.250000X-0.225000X0.250000X-0.225000X0.250000X0.225000X0*%
%ADD13R,0.650000X0.750000*%
%ADD14R,0.250000X0.500000*%
%ADD15RoundRect,0.140000X0.140000X0.170000X-0.140000X0.170000X-0.140000X-0.170000X0.140000X-0.170000X0*%
%ADD16RoundRect,0.225000X0.225000X0.250000X-0.225000X0.250000X-0.225000X-0.250000X0.225000X-0.250000X0*%
%ADD17R,1.900000X1.000000*%
%ADD18R,1.050000X2.200000*%
%ADD19R,1.000000X1.000000*%
%ADD20RoundRect,0.135000X-0.185000X0.135000X-0.185000X-0.135000X0.185000X-0.135000X0.185000X0.135000X0*%
%ADD21RoundRect,0.140000X-0.170000X0.140000X-0.170000X-0.140000X0.170000X-0.140000X0.170000X0.140000X0*%
%ADD22RoundRect,0.147500X0.147500X0.172500X-0.147500X0.172500X-0.147500X-0.172500X0.147500X-0.172500X0*%
%ADD23RoundRect,0.147500X-0.172500X0.147500X-0.172500X-0.147500X0.172500X-0.147500X0.172500X0.147500X0*%
%ADD24RoundRect,0.135000X0.135000X0.185000X-0.135000X0.185000X-0.135000X-0.185000X0.135000X-0.185000X0*%
%ADD25RoundRect,0.150000X0.587500X0.150000X-0.587500X0.150000X-0.587500X-0.150000X0.587500X-0.150000X0*%
%ADD26RoundRect,0.140000X-0.219203X-0.021213X-0.021213X-0.219203X0.219203X0.021213X0.021213X0.219203X0*%
%ADD27RoundRect,0.147500X-0.147500X-0.172500X0.147500X-0.172500X0.147500X0.172500X-0.147500X0.172500X0*%
G04 APERTURE END LIST*
D10*
%TO.C,U3*%
X132575000Y-95300000D03*
D11*
X133075000Y-96050000D03*
X132575000Y-96050000D03*
X132075000Y-96050000D03*
X132075000Y-94550000D03*
X132575000Y-94550000D03*
X133075000Y-94550000D03*
%TD*%
D12*
%TO.C,C12*%
X134275000Y-103300000D03*
X134275000Y-101750000D03*
%TD*%
D13*
%TO.C,IC2*%
X132225000Y-104300000D03*
X131425000Y-104300000D03*
D14*
X132575000Y-103350000D03*
X132075000Y-103350000D03*
X131575000Y-103350000D03*
X131075000Y-103350000D03*
X131075000Y-105250000D03*
X131575000Y-105250000D03*
X132075000Y-105250000D03*
X132575000Y-105250000D03*
%TD*%
D15*
%TO.C,C2*%
X134195000Y-100500000D03*
X135155000Y-100500000D03*
%TD*%
D16*
%TO.C,C41*%
X131875000Y-84250000D03*
X133425000Y-84250000D03*
%TD*%
D12*
%TO.C,C42*%
X134925000Y-84275000D03*
X134925000Y-82725000D03*
%TD*%
D15*
%TO.C,C9*%
X132075000Y-99200000D03*
X133035000Y-99200000D03*
%TD*%
D17*
%TO.C,J2*%
X134200000Y-69870000D03*
X130900000Y-72410000D03*
X134200000Y-74950000D03*
X130900000Y-77490000D03*
X134200000Y-80030000D03*
%TD*%
D18*
%TO.C,J1*%
X130600000Y-113275000D03*
D19*
X132075000Y-114775000D03*
D18*
X133550000Y-113275000D03*
D19*
X132075000Y-111775000D03*
%TD*%
D20*
%TO.C,R2*%
X133875000Y-93600000D03*
X133875000Y-92580000D03*
%TD*%
D21*
%TO.C,C6*%
X134825000Y-98225000D03*
X134825000Y-97265000D03*
%TD*%
%TO.C,C11*%
X132075000Y-108385000D03*
X132075000Y-107425000D03*
%TD*%
D22*
%TO.C,L2*%
X131105000Y-102150000D03*
X132075000Y-102150000D03*
%TD*%
D21*
%TO.C,C10*%
X133625000Y-105475000D03*
X133625000Y-104515000D03*
%TD*%
%TO.C,C4*%
X129850000Y-91955000D03*
X129850000Y-90995000D03*
%TD*%
%TO.C,C7*%
X133825000Y-98225000D03*
X133825000Y-97265000D03*
%TD*%
D23*
%TO.C,L1*%
X132075000Y-101145000D03*
X132075000Y-100175000D03*
%TD*%
D21*
%TO.C,C8*%
X132075000Y-98230000D03*
X132075000Y-97270000D03*
%TD*%
D20*
%TO.C,R4*%
X130200000Y-107435000D03*
X130200000Y-106415000D03*
%TD*%
D15*
%TO.C,C1*%
X134175000Y-95300000D03*
X135135000Y-95300000D03*
%TD*%
D24*
%TO.C,R1*%
X134199999Y-89050000D03*
X135219999Y-89050000D03*
%TD*%
D25*
%TO.C,Q1*%
X132262500Y-86750000D03*
X134137500Y-85800000D03*
X134137500Y-87700000D03*
%TD*%
D26*
%TO.C,C5*%
X131603822Y-93178822D03*
X130925000Y-92500000D03*
%TD*%
D27*
%TO.C,L3*%
X133045000Y-106450000D03*
X132075000Y-106450000D03*
%TD*%
D20*
%TO.C,R3*%
X130025000Y-104300000D03*
X130025000Y-103280000D03*
%TD*%
M02*
