%TF.GenerationSoftware,KiCad,Pcbnew,(6.0.4)*%
%TF.CreationDate,2023-05-09T11:07:54+09:00*%
%TF.ProjectId,Antenna,416e7465-6e6e-4612-9e6b-696361645f70,rev?*%
%TF.SameCoordinates,Original*%
%TF.FileFunction,Legend,Top*%
%TF.FilePolarity,Positive*%
%FSLAX46Y46*%
G04 Gerber Fmt 4.6, Leading zero omitted, Abs format (unit mm)*
G04 Created by KiCad (PCBNEW (6.0.4)) date 2023-05-09 11:07:54*
%MOMM*%
%LPD*%
G01*
G04 APERTURE LIST*
%ADD10C,0.150000*%
%ADD11C,0.120000*%
G04 APERTURE END LIST*
D10*
%TO.C,C12*%
X135942342Y-105316257D02*
X135989961Y-105363876D01*
X136037580Y-105506733D01*
X136037580Y-105601971D01*
X135989961Y-105744828D01*
X135894723Y-105840066D01*
X135799485Y-105887685D01*
X135609009Y-105935304D01*
X135466152Y-105935304D01*
X135275676Y-105887685D01*
X135180438Y-105840066D01*
X135085200Y-105744828D01*
X135037580Y-105601971D01*
X135037580Y-105506733D01*
X135085200Y-105363876D01*
X135132819Y-105316257D01*
X136037580Y-104363876D02*
X136037580Y-104935304D01*
X136037580Y-104649590D02*
X135037580Y-104649590D01*
X135180438Y-104744828D01*
X135275676Y-104840066D01*
X135323295Y-104935304D01*
X135132819Y-103982923D02*
X135085200Y-103935304D01*
X135037580Y-103840066D01*
X135037580Y-103601971D01*
X135085200Y-103506733D01*
X135132819Y-103459114D01*
X135228057Y-103411495D01*
X135323295Y-103411495D01*
X135466152Y-103459114D01*
X136037580Y-104030542D01*
X136037580Y-103411495D01*
%TO.C,C2*%
X135866142Y-102020666D02*
X135913761Y-102068285D01*
X135961380Y-102211142D01*
X135961380Y-102306380D01*
X135913761Y-102449238D01*
X135818523Y-102544476D01*
X135723285Y-102592095D01*
X135532809Y-102639714D01*
X135389952Y-102639714D01*
X135199476Y-102592095D01*
X135104238Y-102544476D01*
X135009000Y-102449238D01*
X134961380Y-102306380D01*
X134961380Y-102211142D01*
X135009000Y-102068285D01*
X135056619Y-102020666D01*
X135056619Y-101639714D02*
X135009000Y-101592095D01*
X134961380Y-101496857D01*
X134961380Y-101258761D01*
X135009000Y-101163523D01*
X135056619Y-101115904D01*
X135151857Y-101068285D01*
X135247095Y-101068285D01*
X135389952Y-101115904D01*
X135961380Y-101687333D01*
X135961380Y-101068285D01*
%TO.C,C41*%
X131843542Y-83237342D02*
X131795923Y-83284961D01*
X131653066Y-83332580D01*
X131557828Y-83332580D01*
X131414971Y-83284961D01*
X131319733Y-83189723D01*
X131272114Y-83094485D01*
X131224495Y-82904009D01*
X131224495Y-82761152D01*
X131272114Y-82570676D01*
X131319733Y-82475438D01*
X131414971Y-82380200D01*
X131557828Y-82332580D01*
X131653066Y-82332580D01*
X131795923Y-82380200D01*
X131843542Y-82427819D01*
X132700685Y-82665914D02*
X132700685Y-83332580D01*
X132462590Y-82284961D02*
X132224495Y-82999247D01*
X132843542Y-82999247D01*
X133748304Y-83332580D02*
X133176876Y-83332580D01*
X133462590Y-83332580D02*
X133462590Y-82332580D01*
X133367352Y-82475438D01*
X133272114Y-82570676D01*
X133176876Y-82618295D01*
%TO.C,C42*%
X136182142Y-86967857D02*
X136229761Y-87015476D01*
X136277380Y-87158333D01*
X136277380Y-87253571D01*
X136229761Y-87396428D01*
X136134523Y-87491666D01*
X136039285Y-87539285D01*
X135848809Y-87586904D01*
X135705952Y-87586904D01*
X135515476Y-87539285D01*
X135420238Y-87491666D01*
X135325000Y-87396428D01*
X135277380Y-87253571D01*
X135277380Y-87158333D01*
X135325000Y-87015476D01*
X135372619Y-86967857D01*
X135610714Y-86110714D02*
X136277380Y-86110714D01*
X135229761Y-86348809D02*
X135944047Y-86586904D01*
X135944047Y-85967857D01*
X135372619Y-85634523D02*
X135325000Y-85586904D01*
X135277380Y-85491666D01*
X135277380Y-85253571D01*
X135325000Y-85158333D01*
X135372619Y-85110714D01*
X135467857Y-85063095D01*
X135563095Y-85063095D01*
X135705952Y-85110714D01*
X136277380Y-85682142D01*
X136277380Y-85063095D01*
%TO.C,C9*%
X130211533Y-97943942D02*
X130163914Y-97991561D01*
X130021057Y-98039180D01*
X129925819Y-98039180D01*
X129782961Y-97991561D01*
X129687723Y-97896323D01*
X129640104Y-97801085D01*
X129592485Y-97610609D01*
X129592485Y-97467752D01*
X129640104Y-97277276D01*
X129687723Y-97182038D01*
X129782961Y-97086800D01*
X129925819Y-97039180D01*
X130021057Y-97039180D01*
X130163914Y-97086800D01*
X130211533Y-97134419D01*
X130687723Y-98039180D02*
X130878200Y-98039180D01*
X130973438Y-97991561D01*
X131021057Y-97943942D01*
X131116295Y-97801085D01*
X131163914Y-97610609D01*
X131163914Y-97229657D01*
X131116295Y-97134419D01*
X131068676Y-97086800D01*
X130973438Y-97039180D01*
X130782961Y-97039180D01*
X130687723Y-97086800D01*
X130640104Y-97134419D01*
X130592485Y-97229657D01*
X130592485Y-97467752D01*
X130640104Y-97562990D01*
X130687723Y-97610609D01*
X130782961Y-97658228D01*
X130973438Y-97658228D01*
X131068676Y-97610609D01*
X131116295Y-97562990D01*
X131163914Y-97467752D01*
%TO.C,H2*%
X133313095Y-51402380D02*
X133313095Y-50402380D01*
X133313095Y-50878571D02*
X133884523Y-50878571D01*
X133884523Y-51402380D02*
X133884523Y-50402380D01*
X134313095Y-50497619D02*
X134360714Y-50450000D01*
X134455952Y-50402380D01*
X134694047Y-50402380D01*
X134789285Y-50450000D01*
X134836904Y-50497619D01*
X134884523Y-50592857D01*
X134884523Y-50688095D01*
X134836904Y-50830952D01*
X134265476Y-51402380D01*
X134884523Y-51402380D01*
%TO.C,H1*%
X133313095Y-127552380D02*
X133313095Y-126552380D01*
X133313095Y-127028571D02*
X133884523Y-127028571D01*
X133884523Y-127552380D02*
X133884523Y-126552380D01*
X134884523Y-127552380D02*
X134313095Y-127552380D01*
X134598809Y-127552380D02*
X134598809Y-126552380D01*
X134503571Y-126695238D01*
X134408333Y-126790476D01*
X134313095Y-126838095D01*
%TO.C,R2*%
X134727380Y-91441666D02*
X134251190Y-91775000D01*
X134727380Y-92013095D02*
X133727380Y-92013095D01*
X133727380Y-91632142D01*
X133775000Y-91536904D01*
X133822619Y-91489285D01*
X133917857Y-91441666D01*
X134060714Y-91441666D01*
X134155952Y-91489285D01*
X134203571Y-91536904D01*
X134251190Y-91632142D01*
X134251190Y-92013095D01*
X133822619Y-91060714D02*
X133775000Y-91013095D01*
X133727380Y-90917857D01*
X133727380Y-90679761D01*
X133775000Y-90584523D01*
X133822619Y-90536904D01*
X133917857Y-90489285D01*
X134013095Y-90489285D01*
X134155952Y-90536904D01*
X134727380Y-91108333D01*
X134727380Y-90489285D01*
%TO.C,C6*%
X136196342Y-97956666D02*
X136243961Y-98004285D01*
X136291580Y-98147142D01*
X136291580Y-98242380D01*
X136243961Y-98385238D01*
X136148723Y-98480476D01*
X136053485Y-98528095D01*
X135863009Y-98575714D01*
X135720152Y-98575714D01*
X135529676Y-98528095D01*
X135434438Y-98480476D01*
X135339200Y-98385238D01*
X135291580Y-98242380D01*
X135291580Y-98147142D01*
X135339200Y-98004285D01*
X135386819Y-97956666D01*
X135291580Y-97099523D02*
X135291580Y-97290000D01*
X135339200Y-97385238D01*
X135386819Y-97432857D01*
X135529676Y-97528095D01*
X135720152Y-97575714D01*
X136101104Y-97575714D01*
X136196342Y-97528095D01*
X136243961Y-97480476D01*
X136291580Y-97385238D01*
X136291580Y-97194761D01*
X136243961Y-97099523D01*
X136196342Y-97051904D01*
X136101104Y-97004285D01*
X135863009Y-97004285D01*
X135767771Y-97051904D01*
X135720152Y-97099523D01*
X135672533Y-97194761D01*
X135672533Y-97385238D01*
X135720152Y-97480476D01*
X135767771Y-97528095D01*
X135863009Y-97575714D01*
%TO.C,C11*%
X134231142Y-110135942D02*
X134183523Y-110183561D01*
X134040666Y-110231180D01*
X133945428Y-110231180D01*
X133802571Y-110183561D01*
X133707333Y-110088323D01*
X133659714Y-109993085D01*
X133612095Y-109802609D01*
X133612095Y-109659752D01*
X133659714Y-109469276D01*
X133707333Y-109374038D01*
X133802571Y-109278800D01*
X133945428Y-109231180D01*
X134040666Y-109231180D01*
X134183523Y-109278800D01*
X134231142Y-109326419D01*
X135183523Y-110231180D02*
X134612095Y-110231180D01*
X134897809Y-110231180D02*
X134897809Y-109231180D01*
X134802571Y-109374038D01*
X134707333Y-109469276D01*
X134612095Y-109516895D01*
X136135904Y-110231180D02*
X135564476Y-110231180D01*
X135850190Y-110231180D02*
X135850190Y-109231180D01*
X135754952Y-109374038D01*
X135659714Y-109469276D01*
X135564476Y-109516895D01*
%TO.C,L2*%
X130287733Y-100502980D02*
X129811542Y-100502980D01*
X129811542Y-99502980D01*
X130573447Y-99598219D02*
X130621066Y-99550600D01*
X130716304Y-99502980D01*
X130954400Y-99502980D01*
X131049638Y-99550600D01*
X131097257Y-99598219D01*
X131144876Y-99693457D01*
X131144876Y-99788695D01*
X131097257Y-99931552D01*
X130525828Y-100502980D01*
X131144876Y-100502980D01*
%TO.C,C10*%
X134256542Y-107545142D02*
X134208923Y-107592761D01*
X134066066Y-107640380D01*
X133970828Y-107640380D01*
X133827971Y-107592761D01*
X133732733Y-107497523D01*
X133685114Y-107402285D01*
X133637495Y-107211809D01*
X133637495Y-107068952D01*
X133685114Y-106878476D01*
X133732733Y-106783238D01*
X133827971Y-106688000D01*
X133970828Y-106640380D01*
X134066066Y-106640380D01*
X134208923Y-106688000D01*
X134256542Y-106735619D01*
X135208923Y-107640380D02*
X134637495Y-107640380D01*
X134923209Y-107640380D02*
X134923209Y-106640380D01*
X134827971Y-106783238D01*
X134732733Y-106878476D01*
X134637495Y-106926095D01*
X135827971Y-106640380D02*
X135923209Y-106640380D01*
X136018447Y-106688000D01*
X136066066Y-106735619D01*
X136113685Y-106830857D01*
X136161304Y-107021333D01*
X136161304Y-107259428D01*
X136113685Y-107449904D01*
X136066066Y-107545142D01*
X136018447Y-107592761D01*
X135923209Y-107640380D01*
X135827971Y-107640380D01*
X135732733Y-107592761D01*
X135685114Y-107545142D01*
X135637495Y-107449904D01*
X135589876Y-107259428D01*
X135589876Y-107021333D01*
X135637495Y-106830857D01*
X135685114Y-106735619D01*
X135732733Y-106688000D01*
X135827971Y-106640380D01*
%TO.C,C4*%
X130457142Y-89741666D02*
X130504761Y-89789285D01*
X130552380Y-89932142D01*
X130552380Y-90027380D01*
X130504761Y-90170238D01*
X130409523Y-90265476D01*
X130314285Y-90313095D01*
X130123809Y-90360714D01*
X129980952Y-90360714D01*
X129790476Y-90313095D01*
X129695238Y-90265476D01*
X129600000Y-90170238D01*
X129552380Y-90027380D01*
X129552380Y-89932142D01*
X129600000Y-89789285D01*
X129647619Y-89741666D01*
X129885714Y-88884523D02*
X130552380Y-88884523D01*
X129504761Y-89122619D02*
X130219047Y-89360714D01*
X130219047Y-88741666D01*
%TO.C,C7*%
X134377133Y-99772742D02*
X134329514Y-99820361D01*
X134186657Y-99867980D01*
X134091419Y-99867980D01*
X133948561Y-99820361D01*
X133853323Y-99725123D01*
X133805704Y-99629885D01*
X133758085Y-99439409D01*
X133758085Y-99296552D01*
X133805704Y-99106076D01*
X133853323Y-99010838D01*
X133948561Y-98915600D01*
X134091419Y-98867980D01*
X134186657Y-98867980D01*
X134329514Y-98915600D01*
X134377133Y-98963219D01*
X134710466Y-98867980D02*
X135377133Y-98867980D01*
X134948561Y-99867980D01*
%TO.C,L1*%
X130287733Y-99283780D02*
X129811542Y-99283780D01*
X129811542Y-98283780D01*
X131144876Y-99283780D02*
X130573447Y-99283780D01*
X130859161Y-99283780D02*
X130859161Y-98283780D01*
X130763923Y-98426638D01*
X130668685Y-98521876D01*
X130573447Y-98569495D01*
%TO.C,C8*%
X130211533Y-96724742D02*
X130163914Y-96772361D01*
X130021057Y-96819980D01*
X129925819Y-96819980D01*
X129782961Y-96772361D01*
X129687723Y-96677123D01*
X129640104Y-96581885D01*
X129592485Y-96391409D01*
X129592485Y-96248552D01*
X129640104Y-96058076D01*
X129687723Y-95962838D01*
X129782961Y-95867600D01*
X129925819Y-95819980D01*
X130021057Y-95819980D01*
X130163914Y-95867600D01*
X130211533Y-95915219D01*
X130782961Y-96248552D02*
X130687723Y-96200933D01*
X130640104Y-96153314D01*
X130592485Y-96058076D01*
X130592485Y-96010457D01*
X130640104Y-95915219D01*
X130687723Y-95867600D01*
X130782961Y-95819980D01*
X130973438Y-95819980D01*
X131068676Y-95867600D01*
X131116295Y-95915219D01*
X131163914Y-96010457D01*
X131163914Y-96058076D01*
X131116295Y-96153314D01*
X131068676Y-96200933D01*
X130973438Y-96248552D01*
X130782961Y-96248552D01*
X130687723Y-96296171D01*
X130640104Y-96343790D01*
X130592485Y-96439028D01*
X130592485Y-96629504D01*
X130640104Y-96724742D01*
X130687723Y-96772361D01*
X130782961Y-96819980D01*
X130973438Y-96819980D01*
X131068676Y-96772361D01*
X131116295Y-96724742D01*
X131163914Y-96629504D01*
X131163914Y-96439028D01*
X131116295Y-96343790D01*
X131068676Y-96296171D01*
X130973438Y-96248552D01*
%TO.C,R4*%
X130602380Y-109066666D02*
X130126190Y-109400000D01*
X130602380Y-109638095D02*
X129602380Y-109638095D01*
X129602380Y-109257142D01*
X129650000Y-109161904D01*
X129697619Y-109114285D01*
X129792857Y-109066666D01*
X129935714Y-109066666D01*
X130030952Y-109114285D01*
X130078571Y-109161904D01*
X130126190Y-109257142D01*
X130126190Y-109638095D01*
X129935714Y-108209523D02*
X130602380Y-108209523D01*
X129554761Y-108447619D02*
X130269047Y-108685714D01*
X130269047Y-108066666D01*
%TO.C,C1*%
X135433333Y-94607142D02*
X135385714Y-94654761D01*
X135242857Y-94702380D01*
X135147619Y-94702380D01*
X135004761Y-94654761D01*
X134909523Y-94559523D01*
X134861904Y-94464285D01*
X134814285Y-94273809D01*
X134814285Y-94130952D01*
X134861904Y-93940476D01*
X134909523Y-93845238D01*
X135004761Y-93750000D01*
X135147619Y-93702380D01*
X135242857Y-93702380D01*
X135385714Y-93750000D01*
X135433333Y-93797619D01*
X136385714Y-94702380D02*
X135814285Y-94702380D01*
X136100000Y-94702380D02*
X136100000Y-93702380D01*
X136004761Y-93845238D01*
X135909523Y-93940476D01*
X135814285Y-93988095D01*
%TO.C,R1*%
X136002380Y-90491666D02*
X135526190Y-90825000D01*
X136002380Y-91063095D02*
X135002380Y-91063095D01*
X135002380Y-90682142D01*
X135050000Y-90586904D01*
X135097619Y-90539285D01*
X135192857Y-90491666D01*
X135335714Y-90491666D01*
X135430952Y-90539285D01*
X135478571Y-90586904D01*
X135526190Y-90682142D01*
X135526190Y-91063095D01*
X136002380Y-89539285D02*
X136002380Y-90110714D01*
X136002380Y-89825000D02*
X135002380Y-89825000D01*
X135145238Y-89920238D01*
X135240476Y-90015476D01*
X135288095Y-90110714D01*
%TO.C,Q1*%
X133104761Y-89697619D02*
X133009523Y-89650000D01*
X132914285Y-89554761D01*
X132771428Y-89411904D01*
X132676190Y-89364285D01*
X132580952Y-89364285D01*
X132628571Y-89602380D02*
X132533333Y-89554761D01*
X132438095Y-89459523D01*
X132390476Y-89269047D01*
X132390476Y-88935714D01*
X132438095Y-88745238D01*
X132533333Y-88650000D01*
X132628571Y-88602380D01*
X132819047Y-88602380D01*
X132914285Y-88650000D01*
X133009523Y-88745238D01*
X133057142Y-88935714D01*
X133057142Y-89269047D01*
X133009523Y-89459523D01*
X132914285Y-89554761D01*
X132819047Y-89602380D01*
X132628571Y-89602380D01*
X134009523Y-89602380D02*
X133438095Y-89602380D01*
X133723809Y-89602380D02*
X133723809Y-88602380D01*
X133628571Y-88745238D01*
X133533333Y-88840476D01*
X133438095Y-88888095D01*
%TO.C,C5*%
X132320389Y-91440312D02*
X132387732Y-91440312D01*
X132522419Y-91507656D01*
X132589763Y-91575000D01*
X132657106Y-91709687D01*
X132657106Y-91844374D01*
X132623435Y-91945389D01*
X132522419Y-92113748D01*
X132421404Y-92214763D01*
X132253045Y-92315778D01*
X132152030Y-92349450D01*
X132017343Y-92349450D01*
X131882656Y-92282106D01*
X131815312Y-92214763D01*
X131747969Y-92080076D01*
X131747969Y-92012732D01*
X131040862Y-91440312D02*
X131377580Y-91777030D01*
X131747969Y-91473984D01*
X131680625Y-91473984D01*
X131579610Y-91440312D01*
X131411251Y-91271954D01*
X131377580Y-91170938D01*
X131377580Y-91103595D01*
X131411251Y-91002580D01*
X131579610Y-90834221D01*
X131680625Y-90800549D01*
X131747969Y-90800549D01*
X131848984Y-90834221D01*
X132017343Y-91002580D01*
X132051015Y-91103595D01*
X132051015Y-91170938D01*
%TO.C,L3*%
X134707333Y-108910380D02*
X134231142Y-108910380D01*
X134231142Y-107910380D01*
X134945428Y-107910380D02*
X135564476Y-107910380D01*
X135231142Y-108291333D01*
X135374000Y-108291333D01*
X135469238Y-108338952D01*
X135516857Y-108386571D01*
X135564476Y-108481809D01*
X135564476Y-108719904D01*
X135516857Y-108815142D01*
X135469238Y-108862761D01*
X135374000Y-108910380D01*
X135088285Y-108910380D01*
X134993047Y-108862761D01*
X134945428Y-108815142D01*
%TO.C,R3*%
X130500380Y-102096866D02*
X130024190Y-102430200D01*
X130500380Y-102668295D02*
X129500380Y-102668295D01*
X129500380Y-102287342D01*
X129548000Y-102192104D01*
X129595619Y-102144485D01*
X129690857Y-102096866D01*
X129833714Y-102096866D01*
X129928952Y-102144485D01*
X129976571Y-102192104D01*
X130024190Y-102287342D01*
X130024190Y-102668295D01*
X129500380Y-101763533D02*
X129500380Y-101144485D01*
X129881333Y-101477819D01*
X129881333Y-101334961D01*
X129928952Y-101239723D01*
X129976571Y-101192104D01*
X130071809Y-101144485D01*
X130309904Y-101144485D01*
X130405142Y-101192104D01*
X130452761Y-101239723D01*
X130500380Y-101334961D01*
X130500380Y-101620676D01*
X130452761Y-101715914D01*
X130405142Y-101763533D01*
D11*
%TO.C,U3*%
X133675000Y-94650000D02*
X133675000Y-96750000D01*
X132875000Y-93850000D02*
X133675000Y-94650000D01*
X131475000Y-93850000D02*
X132875000Y-93850000D01*
X133675000Y-96750000D02*
X131475000Y-96750000D01*
X131475000Y-96750000D02*
X131475000Y-93850000D01*
%TO.C,C12*%
X134785000Y-102384420D02*
X134785000Y-102665580D01*
X133765000Y-102384420D02*
X133765000Y-102665580D01*
%TO.C,IC2*%
X130705000Y-104800000D02*
X130705000Y-103800000D01*
X132945000Y-102800000D02*
X132945000Y-104800000D01*
%TO.C,C2*%
X134782836Y-100860000D02*
X134567164Y-100860000D01*
X134782836Y-100140000D02*
X134567164Y-100140000D01*
%TO.C,C41*%
X132790580Y-84760000D02*
X132509420Y-84760000D01*
X132790580Y-83740000D02*
X132509420Y-83740000D01*
%TO.C,C42*%
X135435000Y-83359420D02*
X135435000Y-83640580D01*
X134415000Y-83359420D02*
X134415000Y-83640580D01*
%TO.C,C9*%
X132662836Y-99560000D02*
X132447164Y-99560000D01*
X132662836Y-98840000D02*
X132447164Y-98840000D01*
%TO.C,J2*%
X133880000Y-81460000D02*
X131220000Y-81460000D01*
X133880000Y-69110000D02*
X133880000Y-68440000D01*
X133880000Y-81460000D02*
X133880000Y-80790000D01*
X135090000Y-80790000D02*
X133880000Y-80790000D01*
X131220000Y-76730000D02*
X131220000Y-73170000D01*
X133880000Y-68440000D02*
X131220000Y-68440000D01*
X133880000Y-79270000D02*
X133880000Y-75710000D01*
X131220000Y-81460000D02*
X131220000Y-78250000D01*
X133880000Y-74190000D02*
X133880000Y-70630000D01*
X131220000Y-71650000D02*
X131220000Y-68440000D01*
%TO.C,J1*%
X133575000Y-114775000D02*
X132775000Y-114775000D01*
X132775000Y-111775000D02*
X133375000Y-111775000D01*
X130575000Y-114775000D02*
X130575000Y-114575000D01*
X131375000Y-111775000D02*
X131375000Y-111275000D01*
X132775000Y-111775000D02*
X132775000Y-111275000D01*
X130575000Y-111975000D02*
X130575000Y-111775000D01*
X131375000Y-114775000D02*
X130575000Y-114775000D01*
X133575000Y-114575000D02*
X133575000Y-114775000D01*
X130575000Y-111775000D02*
X131375000Y-111775000D01*
X133375000Y-111775000D02*
X133575000Y-111975000D01*
%TO.C,R2*%
X134255000Y-92936359D02*
X134255000Y-93243641D01*
X133495000Y-92936359D02*
X133495000Y-93243641D01*
%TO.C,C6*%
X134465000Y-97637164D02*
X134465000Y-97852836D01*
X135185000Y-97637164D02*
X135185000Y-97852836D01*
%TO.C,C11*%
X132435000Y-107797164D02*
X132435000Y-108012836D01*
X131715000Y-107797164D02*
X131715000Y-108012836D01*
%TO.C,C10*%
X133265000Y-104887164D02*
X133265000Y-105102836D01*
X133985000Y-104887164D02*
X133985000Y-105102836D01*
%TO.C,C4*%
X129490000Y-91367164D02*
X129490000Y-91582836D01*
X130210000Y-91367164D02*
X130210000Y-91582836D01*
%TO.C,C7*%
X133465000Y-97637164D02*
X133465000Y-97852836D01*
X134185000Y-97637164D02*
X134185000Y-97852836D01*
%TO.C,C8*%
X132435000Y-97642164D02*
X132435000Y-97857836D01*
X131715000Y-97642164D02*
X131715000Y-97857836D01*
%TO.C,R4*%
X129820000Y-106771359D02*
X129820000Y-107078641D01*
X130580000Y-106771359D02*
X130580000Y-107078641D01*
%TO.C,C1*%
X134762836Y-95660000D02*
X134547164Y-95660000D01*
X134762836Y-94940000D02*
X134547164Y-94940000D01*
%TO.C,R1*%
X134863640Y-89430000D02*
X134556358Y-89430000D01*
X134863640Y-88670000D02*
X134556358Y-88670000D01*
%TO.C,Q1*%
X133200000Y-88310000D02*
X132550000Y-88310000D01*
X133200000Y-85190000D02*
X133850000Y-85190000D01*
X133200000Y-88310000D02*
X134875000Y-88310000D01*
X133200000Y-85190000D02*
X132550000Y-85190000D01*
%TO.C,C5*%
X131442718Y-92508601D02*
X131595221Y-92661104D01*
X130933601Y-93017718D02*
X131086104Y-93170221D01*
%TO.C,R3*%
X130405000Y-103636359D02*
X130405000Y-103943641D01*
X129645000Y-103636359D02*
X129645000Y-103943641D01*
%TD*%
M02*
