%TF.GenerationSoftware,KiCad,Pcbnew,(6.0.4)*%
%TF.CreationDate,2023-05-09T11:07:54+09:00*%
%TF.ProjectId,Antenna,416e7465-6e6e-4612-9e6b-696361645f70,rev?*%
%TF.SameCoordinates,Original*%
%TF.FileFunction,Soldermask,Top*%
%TF.FilePolarity,Negative*%
%FSLAX46Y46*%
G04 Gerber Fmt 4.6, Leading zero omitted, Abs format (unit mm)*
G04 Created by KiCad (PCBNEW (6.0.4)) date 2023-05-09 11:07:54*
%MOMM*%
%LPD*%
G01*
G04 APERTURE LIST*
G04 Aperture macros list*
%AMRoundRect*
0 Rectangle with rounded corners*
0 $1 Rounding radius*
0 $2 $3 $4 $5 $6 $7 $8 $9 X,Y pos of 4 corners*
0 Add a 4 corners polygon primitive as box body*
4,1,4,$2,$3,$4,$5,$6,$7,$8,$9,$2,$3,0*
0 Add four circle primitives for the rounded corners*
1,1,$1+$1,$2,$3*
1,1,$1+$1,$4,$5*
1,1,$1+$1,$6,$7*
1,1,$1+$1,$8,$9*
0 Add four rect primitives between the rounded corners*
20,1,$1+$1,$2,$3,$4,$5,0*
20,1,$1+$1,$4,$5,$6,$7,0*
20,1,$1+$1,$6,$7,$8,$9,0*
20,1,$1+$1,$8,$9,$2,$3,0*%
%AMFreePoly0*
4,1,210,0.042808,3.175456,0.391069,3.154866,0.734585,3.093986,1.068710,2.993637,1.343515,2.877554,1.415628,2.842771,1.720510,2.673193,2.003643,2.469367,2.261200,2.234050,2.458483,2.010278,2.508379,1.947663,2.709562,1.662646,2.876297,1.356200,3.006328,1.032469,3.087063,0.745249,3.104869,0.667190,3.162548,0.323123,3.179996,-0.004777,3.179995,-0.005405,3.159156,-0.353651,
3.102515,-0.678050,3.084436,-0.756046,2.986031,-1.090748,2.849435,-1.411764,2.676495,-1.714751,2.501595,-1.956367,2.451482,-2.018808,2.429507,-2.043143,2.414416,-2.063678,2.302738,-2.183527,2.217670,-2.277731,2.202824,-2.290751,2.176582,-2.318913,2.151108,-2.340559,1.736254,-2.764960,1.299779,-3.256838,0.887494,-3.769226,0.500407,-4.300874,0.139399,-4.850570,-0.194680,-5.417021,
-0.501075,-5.998945,-0.779043,-6.594936,-1.027968,-7.203666,-1.247247,-7.823666,-1.436377,-8.453512,-1.594924,-9.091750,-1.722520,-9.736915,-1.818857,-10.387444,-1.883722,-11.041887,-1.916959,-11.698677,-1.918491,-12.356335,-1.888318,-13.013254,-1.826503,-13.667997,-1.733195,-14.319002,-1.608614,-14.964714,-1.453045,-15.603688,-1.266843,-16.234434,-1.050464,-16.855429,-0.804374,-17.465326,-0.529189,-18.062599,
-0.225514,-18.645939,0.105920,-19.213938,0.464371,-19.765326,0.848976,-20.298774,1.258847,-20.813051,1.693049,-21.306985,2.150557,-21.779409,2.630301,-22.229218,3.131172,-22.655373,3.652009,-23.056886,4.191629,-23.432844,4.748696,-23.782316,5.321994,-24.104542,5.910151,-24.398748,6.482009,-24.651105,6.541730,-24.672463,6.854364,-24.827283,7.106000,-24.987776,7.171278,-25.034134,7.443492,-25.252330,
7.688534,-25.500652,7.903091,-25.775743,8.060120,-26.029304,8.098838,-26.099382,8.249510,-26.414037,8.362633,-26.744056,8.436679,-27.084977,8.468228,-27.381634,8.472726,-27.461572,8.472039,-27.810440,8.430856,-28.156870,8.349733,-28.496176,8.249507,-28.777185,8.218894,-28.851165,8.066983,-29.165224,7.879639,-29.459523,7.659397,-29.730083,7.447230,-29.939820,7.387563,-29.993206,7.114485,-30.210318,
6.818048,-30.394261,6.502261,-30.542545,6.220143,-30.639521,6.143227,-30.661751,5.803010,-30.738965,5.456129,-30.776159,5.107276,-30.772831,4.810978,-30.737867,4.732031,-30.724542,4.391985,-30.646576,4.085952,-30.539130,4.085371,-30.538890,4.022371,-30.508465,4.021065,-30.511429,3.289636,-30.189155,3.161769,-30.129183,2.445692,-29.772530,2.320789,-29.706605,1.622291,-29.316645,1.500629,-29.244916,
0.821259,-28.822514,0.703104,-28.745136,0.044368,-28.291227,-0.070009,-28.208377,-0.706653,-27.723968,-0.817010,-27.635822,-1.430149,-27.121985,-1.536227,-27.028749,-2.124504,-26.486625,-2.226082,-26.388496,-2.788191,-25.819286,-2.885038,-25.716485,-3.419734,-25.121450,-3.511634,-25.014205,-4.017733,-24.394663,-4.104483,-24.283213,-4.580862,-23.640539,-4.662271,-23.525128,-5.107875,-22.860745,-5.183762,-22.741631,
-5.597603,-22.057012,-5.667800,-21.934458,-6.048961,-21.231120,-6.113313,-21.105397,-6.460948,-20.384900,-6.519310,-20.256292,-6.832651,-19.520231,-6.884897,-19.389013,-7.163247,-18.639021,-7.209258,-18.505494,-7.452002,-17.743232,-7.491678,-17.607685,-7.698277,-16.834843,-7.731530,-16.697578,-7.901526,-15.915869,-7.928281,-15.777195,-8.061298,-14.988352,-8.081497,-14.848567,-8.177239,-14.054337,-8.190837,-13.913761,
-8.249093,-13.115906,-8.256059,-12.974842,-8.276699,-12.175128,-8.277019,-12.033899,-8.259999,-11.234101,-8.253671,-11.093004,-8.199026,-10.294892,-8.186065,-10.154256,-8.093918,-9.359602,-8.074352,-9.219731,-7.944907,-8.430293,-7.918779,-8.291494,-7.752322,-7.509024,-7.719691,-7.371614,-7.516592,-6.597845,-7.477529,-6.462117,-7.238237,-5.698765,-7.192832,-5.565034,-6.917879,-4.813789,-6.866227,-4.682336,
-6.556221,-3.944865,-6.498440,-3.815989,-6.154068,-3.093926,-6.090287,-2.967916,-5.712313,-2.262860,-5.642672,-2.139991,-5.231934,-1.453506,-5.156586,-1.334049,-4.713994,-0.667657,-4.633108,-0.551879,-4.159642,0.092945,-4.073396,0.204789,-3.570106,0.826614,-3.478695,0.934270,-2.946697,1.531720,-2.850316,1.634960,-2.290789,2.206708,-2.236753,2.260537,-2.236302,2.260975,-2.222492,2.272908,
-2.221608,2.273890,-1.959715,2.504372,-1.672836,2.702891,-1.410687,2.845226,-1.338513,2.879884,-1.015776,3.012361,-0.679841,3.106474,-0.335251,3.160951,-0.037256,3.175526,0.042808,3.175456,0.042808,3.175456,$1*%
%AMFreePoly1*
4,1,208,0.042808,3.175456,0.391069,3.154866,0.734585,3.093986,1.068710,2.993637,1.343515,2.877554,1.415628,2.842771,1.720510,2.673193,2.003643,2.469367,2.145212,2.340023,2.243976,2.253499,2.244425,2.253060,2.289054,2.204034,2.291276,2.206209,2.850315,1.634960,2.946697,1.531720,3.478695,0.934270,3.570106,0.826614,4.073396,0.204789,4.159642,0.092945,4.633108,-0.551879,
4.713994,-0.667657,5.156586,-1.334049,5.231934,-1.453506,5.642672,-2.139991,5.712313,-2.262860,6.090287,-2.967916,6.154068,-3.093926,6.498440,-3.815989,6.556221,-3.944865,6.866227,-4.682336,6.917879,-4.813789,7.192832,-5.565034,7.238237,-5.698765,7.477529,-6.462117,7.516592,-6.597845,7.719691,-7.371614,7.752322,-7.509024,7.918779,-8.291494,7.944907,-8.430293,8.074352,-9.219731,
8.093918,-9.359602,8.186065,-10.154256,8.199026,-10.294892,8.253671,-11.093004,8.259999,-11.234101,8.277019,-12.033899,8.276699,-12.175128,8.256059,-12.974842,8.249093,-13.115906,8.190837,-13.913761,8.177239,-14.054337,8.081497,-14.848567,8.061298,-14.988352,7.928281,-15.777195,7.901526,-15.915869,7.731530,-16.697578,7.698277,-16.834843,7.491678,-17.607685,7.452002,-17.743232,7.209258,-18.505494,
7.163247,-18.639021,6.884897,-19.389013,6.832651,-19.520231,6.519310,-20.256292,6.460948,-20.384900,6.113313,-21.105397,6.048961,-21.231120,5.667800,-21.934458,5.597603,-22.057012,5.183762,-22.741631,5.107875,-22.860745,4.662271,-23.525128,4.580862,-23.640539,4.104483,-24.283213,4.017733,-24.394663,3.511634,-25.014205,3.419734,-25.121450,2.885038,-25.716485,2.788191,-25.819286,2.226082,-26.388496,
2.124504,-26.486625,1.536227,-27.028749,1.430149,-27.121985,0.817010,-27.635822,0.706653,-27.723968,0.070009,-28.208377,-0.044368,-28.291227,-0.703104,-28.745136,-0.821259,-28.822514,-1.500629,-29.244916,-1.622291,-29.316645,-2.320789,-29.706605,-2.445692,-29.772530,-3.161769,-30.129183,-3.289636,-30.189155,-4.021705,-30.511711,-4.088350,-30.540119,-4.088930,-30.540358,-4.418670,-30.654294,-4.742994,-30.726515,
-4.821988,-30.739563,-5.168917,-30.776307,-5.517765,-30.772528,-5.863816,-30.728275,-6.153861,-30.658802,-6.230699,-30.636305,-6.559247,-30.518975,-6.871951,-30.364296,-7.164584,-30.174361,-7.395931,-29.985880,-7.455411,-29.932285,-7.700570,-29.684078,-7.915255,-29.409088,-8.096565,-29.111034,-8.223230,-28.841000,-8.253585,-28.766915,-8.366861,-28.436948,-8.441065,-28.096062,-8.475192,-27.748866,-8.472223,-27.450499,
-8.467446,-27.370577,-8.426418,-27.024129,-8.345447,-26.684787,-8.225628,-26.357139,-8.093603,-26.089658,-8.054641,-26.019714,-7.867435,-25.725328,-7.647318,-25.454665,-7.397268,-25.211387,-7.162254,-25.027577,-7.096814,-24.981449,-6.800462,-24.797370,-6.484743,-24.648942,-6.453089,-24.638343,-5.910156,-24.398750,-5.321994,-24.104542,-4.748696,-23.782316,-4.191629,-23.432844,-3.652009,-23.056886,-3.131172,-22.655373,
-2.630301,-22.229218,-2.150557,-21.779409,-1.693049,-21.306985,-1.258847,-20.813051,-0.848976,-20.298774,-0.464371,-19.765326,-0.105920,-19.213938,0.225514,-18.645939,0.529189,-18.062599,0.804374,-17.465326,1.050464,-16.855429,1.266843,-16.234434,1.453045,-15.603688,1.608614,-14.964714,1.733195,-14.319002,1.826503,-13.667997,1.888318,-13.013254,1.918491,-12.356335,1.916959,-11.698677,1.883722,-11.041887,
1.818857,-10.387444,1.722520,-9.736915,1.594924,-9.091750,1.436377,-8.453512,1.247247,-7.823666,1.027968,-7.203666,0.779043,-6.594936,0.501075,-5.998945,0.194680,-5.417021,-0.139399,-4.850570,-0.500407,-4.300874,-0.887494,-3.769226,-1.299779,-3.256838,-1.736244,-2.764971,-2.173247,-2.317911,-2.220771,-2.275834,-2.246082,-2.247537,-2.265050,-2.230147,-2.453101,-2.016097,-2.453358,-2.015810,
-2.453378,-2.015782,-2.462000,-2.005968,-2.511786,-1.943266,-2.712470,-1.657897,-2.878668,-1.351160,-3.008132,-1.027202,-3.088355,-0.739877,-3.106025,-0.661788,-3.163105,-0.317620,-3.179845,0.030847,-3.156016,0.378901,-3.103694,0.672635,-3.085751,0.750663,-2.987930,1.085537,-2.851894,1.406790,-2.679483,1.710079,-2.504985,1.952025,-2.454981,2.014552,-2.221618,2.273880,-1.959726,2.504363,
-1.672848,2.702884,-1.410687,2.845226,-1.338513,2.879884,-1.015776,3.012361,-0.679841,3.106474,-0.335251,3.160951,-0.037256,3.175526,0.042808,3.175456,0.042808,3.175456,$1*%
G04 Aperture macros list end*
%ADD10RoundRect,0.050000X0.550000X0.300000X-0.550000X0.300000X-0.550000X-0.300000X0.550000X-0.300000X0*%
%ADD11RoundRect,0.050000X0.100000X0.200000X-0.100000X0.200000X-0.100000X-0.200000X0.100000X-0.200000X0*%
%ADD12RoundRect,0.275000X-0.250000X0.225000X-0.250000X-0.225000X0.250000X-0.225000X0.250000X0.225000X0*%
%ADD13RoundRect,0.050000X-0.125000X0.250000X-0.125000X-0.250000X0.125000X-0.250000X0.125000X0.250000X0*%
%ADD14RoundRect,0.050000X-0.800000X0.450000X-0.800000X-0.450000X0.800000X-0.450000X0.800000X0.450000X0*%
%ADD15RoundRect,0.190000X0.140000X0.170000X-0.140000X0.170000X-0.140000X-0.170000X0.140000X-0.170000X0*%
%ADD16RoundRect,0.275000X0.225000X0.250000X-0.225000X0.250000X-0.225000X-0.250000X0.225000X-0.250000X0*%
%ADD17RoundRect,0.050000X0.950000X0.500000X-0.950000X0.500000X-0.950000X-0.500000X0.950000X-0.500000X0*%
%ADD18RoundRect,0.050000X0.525000X1.100000X-0.525000X1.100000X-0.525000X-1.100000X0.525000X-1.100000X0*%
%ADD19RoundRect,0.050000X0.500000X0.500000X-0.500000X0.500000X-0.500000X-0.500000X0.500000X-0.500000X0*%
%ADD20C,3.900000*%
%ADD21C,2.700000*%
%ADD22FreePoly0,0.000000*%
%ADD23C,6.450000*%
%ADD24RoundRect,3.000000X-0.080000X-3.750000X0.080000X-3.750000X0.080000X3.750000X-0.080000X3.750000X0*%
%ADD25RoundRect,0.700000X-2.753097X-2.547422X-2.641952X-2.662516X2.753097X2.547422X2.641952X2.662516X0*%
%ADD26FreePoly1,180.000000*%
%ADD27RoundRect,0.050000X-0.525000X0.180000X-0.525000X-0.180000X0.525000X-0.180000X0.525000X0.180000X0*%
%ADD28RoundRect,3.000000X-2.708219X-2.595082X-2.595082X-2.708219X2.708219X2.595082X2.595082X2.708219X0*%
%ADD29RoundRect,0.700000X-2.641952X2.662516X-2.753097X2.547422X2.641952X-2.662516X2.753097X-2.547422X0*%
%ADD30RoundRect,3.000000X-2.595082X2.708219X-2.708219X2.595082X2.595082X-2.708219X2.708219X-2.595082X0*%
%ADD31RoundRect,3.000000X0.080000X3.750000X-0.080000X3.750000X-0.080000X-3.750000X0.080000X-3.750000X0*%
%ADD32RoundRect,0.185000X-0.185000X0.135000X-0.185000X-0.135000X0.185000X-0.135000X0.185000X0.135000X0*%
%ADD33RoundRect,0.190000X-0.170000X0.140000X-0.170000X-0.140000X0.170000X-0.140000X0.170000X0.140000X0*%
%ADD34RoundRect,0.197500X0.147500X0.172500X-0.147500X0.172500X-0.147500X-0.172500X0.147500X-0.172500X0*%
%ADD35RoundRect,0.197500X-0.172500X0.147500X-0.172500X-0.147500X0.172500X-0.147500X0.172500X0.147500X0*%
%ADD36RoundRect,0.185000X0.135000X0.185000X-0.135000X0.185000X-0.135000X-0.185000X0.135000X-0.185000X0*%
%ADD37RoundRect,0.200000X0.587500X0.150000X-0.587500X0.150000X-0.587500X-0.150000X0.587500X-0.150000X0*%
%ADD38RoundRect,0.190000X-0.219203X-0.021213X-0.021213X-0.219203X0.219203X0.021213X0.021213X0.219203X0*%
%ADD39RoundRect,0.197500X-0.147500X-0.172500X0.147500X-0.172500X0.147500X0.172500X-0.147500X0.172500X0*%
G04 APERTURE END LIST*
D10*
%TO.C,U3*%
X132575000Y-95300000D03*
D11*
X133075000Y-96050000D03*
X132575000Y-96050000D03*
X132075000Y-96050000D03*
X132075000Y-94550000D03*
X132575000Y-94550000D03*
X133075000Y-94550000D03*
%TD*%
D12*
%TO.C,C12*%
X134275000Y-103300000D03*
X134275000Y-101750000D03*
%TD*%
D13*
%TO.C,IC2*%
X132575000Y-103350000D03*
X132075000Y-103350000D03*
X131575000Y-103350000D03*
X131075000Y-103350000D03*
X131075000Y-105250000D03*
X131575000Y-105250000D03*
X132075000Y-105250000D03*
X132575000Y-105250000D03*
D14*
X131825000Y-104300000D03*
%TD*%
D15*
%TO.C,C2*%
X134195000Y-100500000D03*
X135155000Y-100500000D03*
%TD*%
D16*
%TO.C,C41*%
X131875000Y-84250000D03*
X133425000Y-84250000D03*
%TD*%
D12*
%TO.C,C42*%
X134925000Y-84275000D03*
X134925000Y-82725000D03*
%TD*%
D15*
%TO.C,C9*%
X132075000Y-99200000D03*
X133035000Y-99200000D03*
%TD*%
D17*
%TO.C,J2*%
X134200000Y-69870000D03*
X130900000Y-72410000D03*
X134200000Y-74950000D03*
X130900000Y-77490000D03*
X134200000Y-80030000D03*
%TD*%
D18*
%TO.C,J1*%
X130600000Y-113275000D03*
D19*
X132075000Y-114775000D03*
D18*
X133550000Y-113275000D03*
D19*
X132075000Y-111775000D03*
%TD*%
D20*
%TO.C,H2*%
X134075000Y-53850000D03*
D21*
X134075000Y-53850000D03*
%TD*%
D20*
%TO.C,H1*%
X134075000Y-130000000D03*
D21*
X134075000Y-130000000D03*
%TD*%
D22*
%TO.C,AE1*%
X117950000Y-102400000D03*
D23*
X123301651Y-104650000D03*
D24*
X123301651Y-100800000D03*
D25*
X125901651Y-94500000D03*
D26*
X117950000Y-81450000D03*
D27*
X129001651Y-91950000D03*
D28*
X120601651Y-99700000D03*
D29*
X125901651Y-89350000D03*
D23*
X123301651Y-53850000D03*
D30*
X120601651Y-84150000D03*
D31*
X123301651Y-83050000D03*
D23*
X123301651Y-79200000D03*
X123301651Y-130000000D03*
%TD*%
D32*
%TO.C,R2*%
X133875000Y-93600000D03*
X133875000Y-92580000D03*
%TD*%
D33*
%TO.C,C6*%
X134825000Y-98225000D03*
X134825000Y-97265000D03*
%TD*%
%TO.C,C11*%
X132075000Y-108385000D03*
X132075000Y-107425000D03*
%TD*%
D34*
%TO.C,L2*%
X131105000Y-102150000D03*
X132075000Y-102150000D03*
%TD*%
D33*
%TO.C,C10*%
X133625000Y-105475000D03*
X133625000Y-104515000D03*
%TD*%
%TO.C,C4*%
X129850000Y-91955000D03*
X129850000Y-90995000D03*
%TD*%
%TO.C,C7*%
X133825000Y-98225000D03*
X133825000Y-97265000D03*
%TD*%
D35*
%TO.C,L1*%
X132075000Y-101145000D03*
X132075000Y-100175000D03*
%TD*%
D33*
%TO.C,C8*%
X132075000Y-98230000D03*
X132075000Y-97270000D03*
%TD*%
D32*
%TO.C,R4*%
X130200000Y-107435000D03*
X130200000Y-106415000D03*
%TD*%
D15*
%TO.C,C1*%
X134175000Y-95300000D03*
X135135000Y-95300000D03*
%TD*%
D36*
%TO.C,R1*%
X134199999Y-89050000D03*
X135219999Y-89050000D03*
%TD*%
D37*
%TO.C,Q1*%
X132262500Y-86750000D03*
X134137500Y-85800000D03*
X134137500Y-87700000D03*
%TD*%
D38*
%TO.C,C5*%
X131603822Y-93178822D03*
X130925000Y-92500000D03*
%TD*%
D39*
%TO.C,L3*%
X133045000Y-106450000D03*
X132075000Y-106450000D03*
%TD*%
D32*
%TO.C,R3*%
X130025000Y-104300000D03*
X130025000Y-103280000D03*
%TD*%
G36*
X132247523Y-104979752D02*
G01*
X132291119Y-105014120D01*
X132351574Y-105016493D01*
X132401977Y-104982815D01*
X132403973Y-104982684D01*
X132405084Y-104984347D01*
X132405050Y-104984868D01*
X132402000Y-105000199D01*
X132402000Y-105499801D01*
X132405677Y-105518287D01*
X132405034Y-105520181D01*
X132403072Y-105520571D01*
X132402477Y-105520248D01*
X132358882Y-105485881D01*
X132298427Y-105483507D01*
X132248023Y-105517186D01*
X132246027Y-105517317D01*
X132244916Y-105515654D01*
X132244950Y-105515133D01*
X132248000Y-105499801D01*
X132248000Y-105000199D01*
X132244323Y-104981713D01*
X132244966Y-104979819D01*
X132246928Y-104979429D01*
X132247523Y-104979752D01*
G37*
G36*
X131747523Y-104979751D02*
G01*
X131791118Y-105014119D01*
X131851573Y-105016494D01*
X131901976Y-104982815D01*
X131903972Y-104982684D01*
X131905083Y-104984347D01*
X131905049Y-104984868D01*
X131902000Y-105000199D01*
X131902000Y-105499801D01*
X131905677Y-105518287D01*
X131905034Y-105520181D01*
X131903072Y-105520571D01*
X131902477Y-105520248D01*
X131858882Y-105485881D01*
X131798427Y-105483507D01*
X131748023Y-105517186D01*
X131746027Y-105517317D01*
X131744916Y-105515654D01*
X131744950Y-105515133D01*
X131748000Y-105499801D01*
X131748000Y-105000199D01*
X131744323Y-104981712D01*
X131744966Y-104979818D01*
X131746928Y-104979428D01*
X131747523Y-104979751D01*
G37*
G36*
X131247523Y-104979751D02*
G01*
X131291118Y-105014119D01*
X131351573Y-105016494D01*
X131401976Y-104982815D01*
X131403972Y-104982684D01*
X131405083Y-104984347D01*
X131405049Y-104984868D01*
X131402000Y-105000199D01*
X131402000Y-105499801D01*
X131405677Y-105518287D01*
X131405034Y-105520181D01*
X131403072Y-105520571D01*
X131402477Y-105520248D01*
X131358882Y-105485881D01*
X131298427Y-105483507D01*
X131248023Y-105517186D01*
X131246027Y-105517317D01*
X131244916Y-105515654D01*
X131244950Y-105515133D01*
X131248000Y-105499801D01*
X131248000Y-105000199D01*
X131244323Y-104981712D01*
X131244966Y-104979818D01*
X131246928Y-104979428D01*
X131247523Y-104979751D01*
G37*
G36*
X120085612Y-104764788D02*
G01*
X120085684Y-104765244D01*
X120094036Y-104964511D01*
X120127635Y-105181545D01*
X120126912Y-105183410D01*
X120124936Y-105183716D01*
X120123684Y-105182167D01*
X120091915Y-104983823D01*
X120064204Y-104929669D01*
X120010245Y-104902294D01*
X119950341Y-104911889D01*
X119924907Y-104930623D01*
X119923271Y-104932297D01*
X119921345Y-104932837D01*
X119919915Y-104931438D01*
X119920411Y-104929501D01*
X120082256Y-104763930D01*
X120084182Y-104763390D01*
X120085612Y-104764788D01*
G37*
G36*
X131811846Y-104799000D02*
G01*
X131811846Y-104801000D01*
X131810732Y-104801902D01*
X131752573Y-104820801D01*
X131717011Y-104869751D01*
X131717013Y-104930445D01*
X131728709Y-104954556D01*
X131732844Y-104960745D01*
X131732975Y-104962741D01*
X131731312Y-104963852D01*
X131730070Y-104963519D01*
X131718355Y-104955691D01*
X131699801Y-104952000D01*
X131450199Y-104952000D01*
X131431645Y-104955691D01*
X131419930Y-104963519D01*
X131417934Y-104963650D01*
X131416823Y-104961987D01*
X131417156Y-104960745D01*
X131421190Y-104954708D01*
X131437704Y-104896155D01*
X131416763Y-104839392D01*
X131366298Y-104805672D01*
X131339609Y-104801981D01*
X131338030Y-104800753D01*
X131338304Y-104798772D01*
X131339883Y-104798000D01*
X131810114Y-104798000D01*
X131811846Y-104799000D01*
G37*
G36*
X130994931Y-104786482D02*
G01*
X131006645Y-104794309D01*
X131025199Y-104798000D01*
X131310117Y-104798000D01*
X131311849Y-104799000D01*
X131311849Y-104801000D01*
X131310735Y-104801902D01*
X131252576Y-104820799D01*
X131217012Y-104869748D01*
X131217012Y-104930441D01*
X131228709Y-104954556D01*
X131232844Y-104960745D01*
X131232975Y-104962741D01*
X131231312Y-104963852D01*
X131230070Y-104963519D01*
X131218355Y-104955691D01*
X131199801Y-104952000D01*
X130950199Y-104952000D01*
X130944393Y-104953155D01*
X130942499Y-104952512D01*
X130942109Y-104950550D01*
X130943026Y-104949448D01*
X130990956Y-104922606D01*
X131016287Y-104867663D01*
X131004466Y-104808239D01*
X130999346Y-104802715D01*
X130998902Y-104800765D01*
X130999401Y-104800096D01*
X130992157Y-104789256D01*
X130992026Y-104787260D01*
X130993689Y-104786149D01*
X130994931Y-104786482D01*
G37*
G36*
X132311845Y-104799000D02*
G01*
X132311845Y-104801000D01*
X132310731Y-104801902D01*
X132252575Y-104820798D01*
X132217011Y-104869747D01*
X132217011Y-104930440D01*
X132228708Y-104954556D01*
X132232843Y-104960744D01*
X132232974Y-104962739D01*
X132231311Y-104963851D01*
X132230069Y-104963518D01*
X132218355Y-104955691D01*
X132199801Y-104952000D01*
X131950199Y-104952000D01*
X131931645Y-104955691D01*
X131919930Y-104963519D01*
X131917934Y-104963650D01*
X131916823Y-104961987D01*
X131917156Y-104960745D01*
X131921191Y-104954706D01*
X131937704Y-104896152D01*
X131916762Y-104839390D01*
X131866296Y-104805671D01*
X131839613Y-104801981D01*
X131838034Y-104800753D01*
X131838308Y-104798772D01*
X131839887Y-104798000D01*
X132310113Y-104798000D01*
X132311845Y-104799000D01*
G37*
G36*
X132658176Y-104788014D02*
G01*
X132657843Y-104789256D01*
X132650693Y-104799956D01*
X132652818Y-104801376D01*
X132653703Y-104803170D01*
X132653278Y-104804276D01*
X132639064Y-104822332D01*
X132636730Y-104882793D01*
X132670425Y-104933145D01*
X132704773Y-104948966D01*
X132705928Y-104950599D01*
X132705091Y-104952416D01*
X132703546Y-104952745D01*
X132699801Y-104952000D01*
X132450199Y-104952000D01*
X132431645Y-104955691D01*
X132419931Y-104963518D01*
X132417935Y-104963649D01*
X132416824Y-104961986D01*
X132417157Y-104960744D01*
X132421191Y-104954708D01*
X132437705Y-104896155D01*
X132416765Y-104839392D01*
X132366300Y-104805672D01*
X132339617Y-104801981D01*
X132338038Y-104800753D01*
X132338312Y-104798772D01*
X132339891Y-104798000D01*
X132624801Y-104798000D01*
X132643355Y-104794309D01*
X132655069Y-104786482D01*
X132657065Y-104786351D01*
X132658176Y-104788014D01*
G37*
G36*
X132419930Y-103636481D02*
G01*
X132431645Y-103644309D01*
X132450199Y-103648000D01*
X132699801Y-103648000D01*
X132705607Y-103646845D01*
X132707501Y-103647488D01*
X132707891Y-103649450D01*
X132706974Y-103650552D01*
X132659044Y-103677394D01*
X132633713Y-103732337D01*
X132645534Y-103791761D01*
X132650654Y-103797285D01*
X132651098Y-103799235D01*
X132650599Y-103799904D01*
X132657843Y-103810744D01*
X132657974Y-103812740D01*
X132656311Y-103813851D01*
X132655069Y-103813518D01*
X132643355Y-103805691D01*
X132624801Y-103802000D01*
X132339883Y-103802000D01*
X132338151Y-103801000D01*
X132338151Y-103799000D01*
X132339265Y-103798098D01*
X132397424Y-103779201D01*
X132432988Y-103730252D01*
X132432988Y-103669559D01*
X132421291Y-103645444D01*
X132417156Y-103639255D01*
X132417025Y-103637259D01*
X132418688Y-103636148D01*
X132419930Y-103636481D01*
G37*
G36*
X131233176Y-103638014D02*
G01*
X131232843Y-103639256D01*
X131228809Y-103645292D01*
X131212295Y-103703845D01*
X131233235Y-103760608D01*
X131283700Y-103794328D01*
X131310383Y-103798019D01*
X131311962Y-103799247D01*
X131311688Y-103801228D01*
X131310109Y-103802000D01*
X131025199Y-103802000D01*
X131006645Y-103805691D01*
X130994931Y-103813518D01*
X130992935Y-103813649D01*
X130991824Y-103811986D01*
X130992157Y-103810744D01*
X130999307Y-103800044D01*
X130997182Y-103798624D01*
X130996297Y-103796830D01*
X130996722Y-103795724D01*
X131010936Y-103777668D01*
X131013270Y-103717207D01*
X130979575Y-103666855D01*
X130945227Y-103651034D01*
X130944072Y-103649401D01*
X130944909Y-103647584D01*
X130946454Y-103647255D01*
X130950199Y-103648000D01*
X131199801Y-103648000D01*
X131218355Y-103644309D01*
X131230069Y-103636482D01*
X131232065Y-103636351D01*
X131233176Y-103638014D01*
G37*
G36*
X131419931Y-103636482D02*
G01*
X131431645Y-103644309D01*
X131450199Y-103648000D01*
X131699801Y-103648000D01*
X131718355Y-103644309D01*
X131730070Y-103636481D01*
X131732066Y-103636350D01*
X131733177Y-103638013D01*
X131732844Y-103639255D01*
X131728809Y-103645294D01*
X131712296Y-103703848D01*
X131733238Y-103760610D01*
X131783704Y-103794329D01*
X131810387Y-103798019D01*
X131811966Y-103799247D01*
X131811692Y-103801228D01*
X131810113Y-103802000D01*
X131339887Y-103802000D01*
X131338155Y-103801000D01*
X131338155Y-103799000D01*
X131339269Y-103798098D01*
X131397425Y-103779202D01*
X131432989Y-103730253D01*
X131432989Y-103669560D01*
X131421292Y-103645444D01*
X131417157Y-103639256D01*
X131417026Y-103637261D01*
X131418689Y-103636149D01*
X131419931Y-103636482D01*
G37*
G36*
X131919930Y-103636481D02*
G01*
X131931645Y-103644309D01*
X131950199Y-103648000D01*
X132199801Y-103648000D01*
X132218355Y-103644309D01*
X132230070Y-103636481D01*
X132232066Y-103636350D01*
X132233177Y-103638013D01*
X132232844Y-103639255D01*
X132228810Y-103645292D01*
X132212296Y-103703845D01*
X132233237Y-103760608D01*
X132283702Y-103794328D01*
X132310391Y-103798019D01*
X132311970Y-103799247D01*
X132311696Y-103801228D01*
X132310117Y-103802000D01*
X131839886Y-103802000D01*
X131838154Y-103801000D01*
X131838154Y-103799000D01*
X131839268Y-103798098D01*
X131897427Y-103779199D01*
X131932989Y-103730249D01*
X131932987Y-103669555D01*
X131921291Y-103645444D01*
X131917156Y-103639255D01*
X131917025Y-103637259D01*
X131918688Y-103636148D01*
X131919930Y-103636481D01*
G37*
G36*
X132247523Y-103079752D02*
G01*
X132291118Y-103114119D01*
X132351573Y-103116493D01*
X132401977Y-103082814D01*
X132403973Y-103082683D01*
X132405084Y-103084346D01*
X132405050Y-103084867D01*
X132402000Y-103100199D01*
X132402000Y-103599801D01*
X132405677Y-103618288D01*
X132405034Y-103620182D01*
X132403072Y-103620572D01*
X132402477Y-103620249D01*
X132358882Y-103585881D01*
X132298427Y-103583506D01*
X132248024Y-103617185D01*
X132246028Y-103617316D01*
X132244917Y-103615653D01*
X132244951Y-103615132D01*
X132248000Y-103599801D01*
X132248000Y-103100199D01*
X132244323Y-103081713D01*
X132244966Y-103079819D01*
X132246928Y-103079429D01*
X132247523Y-103079752D01*
G37*
G36*
X131747523Y-103079752D02*
G01*
X131791118Y-103114119D01*
X131851573Y-103116493D01*
X131901977Y-103082814D01*
X131903973Y-103082683D01*
X131905084Y-103084346D01*
X131905050Y-103084867D01*
X131902000Y-103100199D01*
X131902000Y-103599801D01*
X131905677Y-103618288D01*
X131905034Y-103620182D01*
X131903072Y-103620572D01*
X131902477Y-103620249D01*
X131858882Y-103585881D01*
X131798427Y-103583506D01*
X131748024Y-103617185D01*
X131746028Y-103617316D01*
X131744917Y-103615653D01*
X131744951Y-103615132D01*
X131748000Y-103599801D01*
X131748000Y-103100199D01*
X131744323Y-103081713D01*
X131744966Y-103079819D01*
X131746928Y-103079429D01*
X131747523Y-103079752D01*
G37*
G36*
X131247523Y-103079752D02*
G01*
X131291118Y-103114119D01*
X131351573Y-103116493D01*
X131401977Y-103082814D01*
X131403973Y-103082683D01*
X131405084Y-103084346D01*
X131405050Y-103084867D01*
X131402000Y-103100199D01*
X131402000Y-103599801D01*
X131405677Y-103618287D01*
X131405034Y-103620181D01*
X131403072Y-103620571D01*
X131402477Y-103620248D01*
X131358881Y-103585880D01*
X131298426Y-103583507D01*
X131248023Y-103617185D01*
X131246027Y-103617316D01*
X131244916Y-103615653D01*
X131244950Y-103615132D01*
X131248000Y-103599801D01*
X131248000Y-103100199D01*
X131244323Y-103081713D01*
X131244966Y-103079819D01*
X131246928Y-103079429D01*
X131247523Y-103079752D01*
G37*
G36*
X131994931Y-95636482D02*
G01*
X132006645Y-95644309D01*
X132025199Y-95648000D01*
X132285117Y-95648000D01*
X132286849Y-95649000D01*
X132286849Y-95651000D01*
X132285735Y-95651902D01*
X132227576Y-95670799D01*
X132192012Y-95719748D01*
X132192012Y-95780441D01*
X132203709Y-95804557D01*
X132207843Y-95810744D01*
X132207974Y-95812740D01*
X132206311Y-95813851D01*
X132205069Y-95813518D01*
X132193355Y-95805691D01*
X132174801Y-95802000D01*
X131975199Y-95802000D01*
X131961181Y-95804788D01*
X131959287Y-95804145D01*
X131958897Y-95802183D01*
X131959680Y-95801163D01*
X131970381Y-95794013D01*
X131970201Y-95793744D01*
X131970070Y-95791748D01*
X131970887Y-95790888D01*
X131996689Y-95776439D01*
X132022021Y-95721496D01*
X132010201Y-95662070D01*
X132000202Y-95651253D01*
X132000008Y-95651006D01*
X131992157Y-95639256D01*
X131992026Y-95637260D01*
X131993689Y-95636149D01*
X131994931Y-95636482D01*
G37*
G36*
X132786845Y-95649000D02*
G01*
X132786845Y-95651000D01*
X132785731Y-95651902D01*
X132727575Y-95670798D01*
X132692011Y-95719747D01*
X132692011Y-95780440D01*
X132703708Y-95804556D01*
X132707843Y-95810744D01*
X132707974Y-95812739D01*
X132706311Y-95813851D01*
X132705069Y-95813518D01*
X132693355Y-95805691D01*
X132674801Y-95802000D01*
X132475199Y-95802000D01*
X132456645Y-95805691D01*
X132444931Y-95813518D01*
X132442935Y-95813649D01*
X132441824Y-95811986D01*
X132442157Y-95810744D01*
X132446190Y-95804709D01*
X132462704Y-95746155D01*
X132441763Y-95689393D01*
X132391298Y-95655673D01*
X132364609Y-95651981D01*
X132363030Y-95650753D01*
X132363304Y-95648772D01*
X132364883Y-95648000D01*
X132785113Y-95648000D01*
X132786845Y-95649000D01*
G37*
G36*
X133158176Y-95638014D02*
G01*
X133157843Y-95639256D01*
X133150693Y-95649956D01*
X133151036Y-95650185D01*
X133151921Y-95651979D01*
X133151496Y-95653086D01*
X133133350Y-95676105D01*
X133130977Y-95736560D01*
X133164639Y-95786938D01*
X133178657Y-95793401D01*
X133178931Y-95793554D01*
X133190319Y-95801163D01*
X133191204Y-95802957D01*
X133190093Y-95804620D01*
X133188818Y-95804788D01*
X133174801Y-95802000D01*
X132975199Y-95802000D01*
X132956645Y-95805691D01*
X132944931Y-95813518D01*
X132942935Y-95813649D01*
X132941824Y-95811986D01*
X132942157Y-95810744D01*
X132946191Y-95804708D01*
X132962705Y-95746155D01*
X132941765Y-95689392D01*
X132891300Y-95655672D01*
X132864617Y-95651981D01*
X132863038Y-95650753D01*
X132863312Y-95648772D01*
X132864891Y-95648000D01*
X133124801Y-95648000D01*
X133143355Y-95644309D01*
X133155069Y-95636482D01*
X133157065Y-95636351D01*
X133158176Y-95638014D01*
G37*
G36*
X132944931Y-94786482D02*
G01*
X132956645Y-94794309D01*
X132975199Y-94798000D01*
X133174801Y-94798000D01*
X133188819Y-94795212D01*
X133190713Y-94795855D01*
X133191103Y-94797817D01*
X133190320Y-94798837D01*
X133179619Y-94805987D01*
X133179799Y-94806256D01*
X133179930Y-94808252D01*
X133179113Y-94809112D01*
X133153311Y-94823561D01*
X133127979Y-94878504D01*
X133139799Y-94937930D01*
X133149798Y-94948747D01*
X133149992Y-94948994D01*
X133157843Y-94960744D01*
X133157974Y-94962740D01*
X133156311Y-94963851D01*
X133155069Y-94963518D01*
X133143355Y-94955691D01*
X133124801Y-94952000D01*
X132864883Y-94952000D01*
X132863151Y-94951000D01*
X132863151Y-94949000D01*
X132864265Y-94948098D01*
X132922424Y-94929201D01*
X132957988Y-94880252D01*
X132957988Y-94819559D01*
X132946291Y-94795443D01*
X132942157Y-94789256D01*
X132942026Y-94787260D01*
X132943689Y-94786149D01*
X132944931Y-94786482D01*
G37*
G36*
X132208176Y-94788014D02*
G01*
X132207843Y-94789256D01*
X132203809Y-94795292D01*
X132187295Y-94853845D01*
X132208235Y-94910608D01*
X132258700Y-94944328D01*
X132285383Y-94948019D01*
X132286962Y-94949247D01*
X132286688Y-94951228D01*
X132285109Y-94952000D01*
X132025199Y-94952000D01*
X132006645Y-94955691D01*
X131994931Y-94963518D01*
X131992935Y-94963649D01*
X131991824Y-94961986D01*
X131992157Y-94960744D01*
X131999307Y-94950044D01*
X131998964Y-94949815D01*
X131998079Y-94948021D01*
X131998504Y-94946914D01*
X132016650Y-94923895D01*
X132019023Y-94863440D01*
X131985361Y-94813062D01*
X131971343Y-94806599D01*
X131971069Y-94806446D01*
X131959681Y-94798837D01*
X131958796Y-94797043D01*
X131959907Y-94795380D01*
X131961182Y-94795212D01*
X131975199Y-94798000D01*
X132174801Y-94798000D01*
X132193355Y-94794309D01*
X132205069Y-94786482D01*
X132207065Y-94786351D01*
X132208176Y-94788014D01*
G37*
G36*
X132444931Y-94786482D02*
G01*
X132456645Y-94794309D01*
X132475199Y-94798000D01*
X132674801Y-94798000D01*
X132693355Y-94794309D01*
X132705069Y-94786482D01*
X132707065Y-94786351D01*
X132708176Y-94788014D01*
X132707843Y-94789256D01*
X132703810Y-94795291D01*
X132687296Y-94853845D01*
X132708237Y-94910607D01*
X132758702Y-94944327D01*
X132785391Y-94948019D01*
X132786970Y-94949247D01*
X132786696Y-94951228D01*
X132785117Y-94952000D01*
X132364887Y-94952000D01*
X132363155Y-94951000D01*
X132363155Y-94949000D01*
X132364269Y-94948098D01*
X132422425Y-94929202D01*
X132457989Y-94880253D01*
X132457989Y-94819560D01*
X132446292Y-94795444D01*
X132442157Y-94789256D01*
X132442026Y-94787261D01*
X132443689Y-94786149D01*
X132444931Y-94786482D01*
G37*
G36*
X120101702Y-78817868D02*
G01*
X120102425Y-78819551D01*
X120083996Y-79083088D01*
X120082878Y-79084746D01*
X120080883Y-79084606D01*
X120080571Y-79084346D01*
X119923130Y-78923281D01*
X119922634Y-78921343D01*
X119924064Y-78919945D01*
X119925488Y-78920111D01*
X119979657Y-78948492D01*
X120039519Y-78939707D01*
X120082865Y-78897338D01*
X120093918Y-78857413D01*
X120094898Y-78840420D01*
X120094922Y-78840205D01*
X120098457Y-78819081D01*
X120099730Y-78817538D01*
X120101702Y-78817868D01*
G37*
M02*
