%FSLAX45Y45*%
G04 Gerber Fmt 4.5, Leading zero omitted, Abs format (unit mm)*
G04 Created by KiCad (PCBNEW (6.0.4)) date 2023-05-09 11:01:37*
%MOMM*%
%LPD*%
G01*
G04 APERTURE LIST*
%TA.AperFunction,Profile*%
%ADD10C,0.100000*%
%TD*%
%ADD11C,0.200000*%
G04 APERTURE END LIST*
D10*
X13650000Y-14100000D02*
X11150000Y-14100000D01*
X11150000Y-14100000D02*
X11150000Y-4300000D01*
X11150000Y-4300000D02*
X13650000Y-4300000D01*
X13650000Y-4300000D02*
X13650000Y-14100000D01*
D11*
X11402619Y-14415476D02*
X11402619Y-14215476D01*
X11450238Y-14215476D01*
X11478809Y-14225000D01*
X11497857Y-14244048D01*
X11507381Y-14263095D01*
X11516905Y-14301190D01*
X11516905Y-14329762D01*
X11507381Y-14367857D01*
X11497857Y-14386905D01*
X11478809Y-14405952D01*
X11450238Y-14415476D01*
X11402619Y-14415476D01*
X11602619Y-14415476D02*
X11602619Y-14282143D01*
X11602619Y-14320238D02*
X11612143Y-14301190D01*
X11621667Y-14291667D01*
X11640714Y-14282143D01*
X11659762Y-14282143D01*
X11726428Y-14415476D02*
X11726428Y-14282143D01*
X11726428Y-14215476D02*
X11716905Y-14225000D01*
X11726428Y-14234524D01*
X11735952Y-14225000D01*
X11726428Y-14215476D01*
X11726428Y-14234524D01*
X11850238Y-14415476D02*
X11831190Y-14405952D01*
X11821667Y-14386905D01*
X11821667Y-14215476D01*
X11955000Y-14415476D02*
X11935952Y-14405952D01*
X11926428Y-14386905D01*
X11926428Y-14215476D01*
X12183571Y-14415476D02*
X12183571Y-14215476D01*
X12250238Y-14358333D01*
X12316905Y-14215476D01*
X12316905Y-14415476D01*
X12497857Y-14415476D02*
X12497857Y-14310714D01*
X12488333Y-14291667D01*
X12469286Y-14282143D01*
X12431190Y-14282143D01*
X12412143Y-14291667D01*
X12497857Y-14405952D02*
X12478809Y-14415476D01*
X12431190Y-14415476D01*
X12412143Y-14405952D01*
X12402619Y-14386905D01*
X12402619Y-14367857D01*
X12412143Y-14348809D01*
X12431190Y-14339286D01*
X12478809Y-14339286D01*
X12497857Y-14329762D01*
X12593095Y-14282143D02*
X12593095Y-14482143D01*
X12593095Y-14291667D02*
X12612143Y-14282143D01*
X12650238Y-14282143D01*
X12669286Y-14291667D01*
X12678809Y-14301190D01*
X12688333Y-14320238D01*
X12688333Y-14377381D01*
X12678809Y-14396428D01*
X12669286Y-14405952D01*
X12650238Y-14415476D01*
X12612143Y-14415476D01*
X12593095Y-14405952D01*
X12774048Y-14396428D02*
X12783571Y-14405952D01*
X12774048Y-14415476D01*
X12764524Y-14405952D01*
X12774048Y-14396428D01*
X12774048Y-14415476D01*
X12774048Y-14291667D02*
X12783571Y-14301190D01*
X12774048Y-14310714D01*
X12764524Y-14301190D01*
X12774048Y-14291667D01*
X12774048Y-14310714D01*
M02*
