M48
; DRILL file {KiCad (6.0.4)} date Tue May  9 11:08:01 2023
; FORMAT={-:-/ absolute / inch / decimal}
; #@! TF.CreationDate,2023-05-09T11:08:01+09:00
; #@! TF.GenerationSoftware,Kicad,Pcbnew,(6.0.4)
; #@! TF.FileFunction,Plated,1,4,PTH
FMAT,2
INCH
; #@! TA.AperFunction,Plated,PTH,ViaDrill
T1C0.0118
; #@! TA.AperFunction,Plated,PTH,ComponentDrill
T2C0.0866
%
G90
G05
T1
X4.8543Y-2.1201
X4.8543Y-3.1181
X4.8543Y-4.1201
X4.8543Y-5.1181
X5.1024Y-3.6486
X5.1024Y-3.753
X5.1024Y-3.8593
X5.1024Y-3.9449
X5.1024Y-4.0413
X5.1024Y-4.1063
X5.1033Y-3.5827
X5.1211Y-4.503
X5.126Y-4.2451
X5.1358Y-4.1486
X5.1417Y-4.4163
X5.1575Y-3.6063
X5.1604Y-4.1063
X5.1614Y-4.2825
X5.1673Y-3.7067
X5.1673Y-3.813
X5.1673Y-3.9764
X5.1683Y-4.3425
X5.1703Y-3.3169
X5.1713Y-4.5177
X5.1909Y-2.8307
X5.1909Y-2.8711
X5.191Y-3.0306
X5.191Y-3.071
X5.1988Y-3.752
X5.2195Y-4.1063
X5.2264Y-3.6575
X5.2283Y-4.5177
X5.2313Y-4.3425
X5.2382Y-4.2825
X5.2402Y-3.752
X5.2451Y-4.1683
X5.2517Y-3.9196
X5.2531Y-4.1071
X5.2579Y-4.4163
X5.2785Y-4.503
X5.2825Y-3.4813
X5.2864Y-3.9764
X5.2884Y-3.8671
X5.2943Y-3.8031
X5.2963Y-3.7333
X5.312Y-3.3386
X5.312Y-4.1063
X5.3474Y-3.9764
T2
X5.2785Y-2.1201
X5.2785Y-5.1181
T0
M30
