%TF.GenerationSoftware,KiCad,Pcbnew,(6.0.4)*%
%TF.CreationDate,2023-05-16T14:10:18+09:00*%
%TF.ProjectId,RFB,5246422e-6b69-4636-9164-5f7063625858,rev?*%
%TF.SameCoordinates,Original*%
%TF.FileFunction,Paste,Top*%
%TF.FilePolarity,Positive*%
%FSLAX46Y46*%
G04 Gerber Fmt 4.6, Leading zero omitted, Abs format (unit mm)*
G04 Created by KiCad (PCBNEW (6.0.4)) date 2023-05-16 14:10:18*
%MOMM*%
%LPD*%
G01*
G04 APERTURE LIST*
G04 Aperture macros list*
%AMRoundRect*
0 Rectangle with rounded corners*
0 $1 Rounding radius*
0 $2 $3 $4 $5 $6 $7 $8 $9 X,Y pos of 4 corners*
0 Add a 4 corners polygon primitive as box body*
4,1,4,$2,$3,$4,$5,$6,$7,$8,$9,$2,$3,0*
0 Add four circle primitives for the rounded corners*
1,1,$1+$1,$2,$3*
1,1,$1+$1,$4,$5*
1,1,$1+$1,$6,$7*
1,1,$1+$1,$8,$9*
0 Add four rect primitives between the rounded corners*
20,1,$1+$1,$2,$3,$4,$5,0*
20,1,$1+$1,$4,$5,$6,$7,0*
20,1,$1+$1,$6,$7,$8,$9,0*
20,1,$1+$1,$8,$9,$2,$3,0*%
%AMRotRect*
0 Rectangle, with rotation*
0 The origin of the aperture is its center*
0 $1 length*
0 $2 width*
0 $3 Rotation angle, in degrees counterclockwise*
0 Add horizontal line*
21,1,$1,$2,0,0,$3*%
G04 Aperture macros list end*
%ADD10RoundRect,0.160000X-0.245000X-0.160000X0.245000X-0.160000X0.245000X0.160000X-0.245000X0.160000X0*%
%ADD11RoundRect,0.093750X-0.093750X-0.106250X0.093750X-0.106250X0.093750X0.106250X-0.093750X0.106250X0*%
%ADD12RoundRect,0.140000X-0.170000X0.140000X-0.170000X-0.140000X0.170000X-0.140000X0.170000X0.140000X0*%
%ADD13RoundRect,0.135000X-0.135000X-0.185000X0.135000X-0.185000X0.135000X0.185000X-0.135000X0.185000X0*%
%ADD14RoundRect,0.135000X-0.226274X-0.035355X-0.035355X-0.226274X0.226274X0.035355X0.035355X0.226274X0*%
%ADD15R,1.780000X4.190000*%
%ADD16R,2.665000X4.190000*%
%ADD17RoundRect,0.135000X0.185000X-0.135000X0.185000X0.135000X-0.185000X0.135000X-0.185000X-0.135000X0*%
%ADD18R,1.000000X3.000000*%
%ADD19C,0.355600*%
%ADD20RotRect,0.350000X0.700000X45.000000*%
%ADD21R,1.050000X0.950000*%
%ADD22RoundRect,0.135000X0.135000X0.185000X-0.135000X0.185000X-0.135000X-0.185000X0.135000X-0.185000X0*%
%ADD23RoundRect,0.140000X0.021213X-0.219203X0.219203X-0.021213X-0.021213X0.219203X-0.219203X0.021213X0*%
%ADD24RoundRect,0.140000X-0.021213X0.219203X-0.219203X0.021213X0.021213X-0.219203X0.219203X-0.021213X0*%
%ADD25RoundRect,0.135000X0.226274X0.035355X0.035355X0.226274X-0.226274X-0.035355X-0.035355X-0.226274X0*%
%ADD26RoundRect,0.140000X0.140000X0.170000X-0.140000X0.170000X-0.140000X-0.170000X0.140000X-0.170000X0*%
%ADD27RoundRect,0.100000X0.637500X0.100000X-0.637500X0.100000X-0.637500X-0.100000X0.637500X-0.100000X0*%
%ADD28RoundRect,0.140000X0.226274X0.028284X0.028284X0.226274X-0.226274X-0.028284X-0.028284X-0.226274X0*%
%ADD29RoundRect,0.087500X0.185616X-0.061872X-0.061872X0.185616X-0.185616X0.061872X0.061872X-0.185616X0*%
%ADD30RoundRect,0.135000X-0.035355X0.226274X-0.226274X0.035355X0.035355X-0.226274X0.226274X-0.035355X0*%
%ADD31RoundRect,0.225000X0.017678X-0.335876X0.335876X-0.017678X-0.017678X0.335876X-0.335876X0.017678X0*%
%ADD32RoundRect,0.150000X-0.512500X-0.150000X0.512500X-0.150000X0.512500X0.150000X-0.512500X0.150000X0*%
%ADD33RoundRect,0.140000X0.170000X-0.140000X0.170000X0.140000X-0.170000X0.140000X-0.170000X-0.140000X0*%
%ADD34RoundRect,0.140000X-0.226274X-0.028284X-0.028284X-0.226274X0.226274X0.028284X0.028284X0.226274X0*%
%ADD35RoundRect,0.087500X-0.185616X0.061872X0.061872X-0.185616X0.185616X-0.061872X-0.061872X0.185616X0*%
%ADD36RoundRect,0.200000X-0.200000X-0.800000X0.200000X-0.800000X0.200000X0.800000X-0.200000X0.800000X0*%
%ADD37RoundRect,0.140000X-0.140000X-0.170000X0.140000X-0.170000X0.140000X0.170000X-0.140000X0.170000X0*%
%ADD38RoundRect,0.249999X0.290001X-0.290001X0.290001X0.290001X-0.290001X0.290001X-0.290001X-0.290001X0*%
%ADD39RoundRect,0.062500X0.062500X-0.375000X0.062500X0.375000X-0.062500X0.375000X-0.062500X-0.375000X0*%
%ADD40RoundRect,0.062500X0.375000X-0.062500X0.375000X0.062500X-0.375000X0.062500X-0.375000X-0.062500X0*%
%ADD41RoundRect,0.147500X0.017678X-0.226274X0.226274X-0.017678X-0.017678X0.226274X-0.226274X0.017678X0*%
%ADD42RoundRect,0.140000X-0.219203X-0.021213X-0.021213X-0.219203X0.219203X0.021213X0.021213X0.219203X0*%
%ADD43RoundRect,0.249999X0.410123X0.000000X0.000000X0.410123X-0.410123X0.000000X0.000000X-0.410123X0*%
%ADD44RoundRect,0.062500X0.309359X-0.220971X-0.220971X0.309359X-0.309359X0.220971X0.220971X-0.309359X0*%
%ADD45RoundRect,0.062500X0.309359X0.220971X0.220971X0.309359X-0.309359X-0.220971X-0.220971X-0.309359X0*%
%ADD46RoundRect,0.147500X0.226274X0.017678X0.017678X0.226274X-0.226274X-0.017678X-0.017678X-0.226274X0*%
%ADD47R,2.600000X0.280000*%
%ADD48RoundRect,0.225000X0.225000X0.250000X-0.225000X0.250000X-0.225000X-0.250000X0.225000X-0.250000X0*%
%ADD49RoundRect,0.135000X0.035355X-0.226274X0.226274X-0.035355X-0.035355X0.226274X-0.226274X0.035355X0*%
%ADD50RoundRect,0.135000X-0.185000X0.135000X-0.185000X-0.135000X0.185000X-0.135000X0.185000X0.135000X0*%
%ADD51RoundRect,0.250000X-0.325000X-1.100000X0.325000X-1.100000X0.325000X1.100000X-0.325000X1.100000X0*%
%ADD52RoundRect,0.140000X0.219203X0.021213X0.021213X0.219203X-0.219203X-0.021213X-0.021213X-0.219203X0*%
%ADD53RotRect,0.350000X0.700000X135.000000*%
%ADD54RoundRect,0.250000X-1.007627X-0.548008X-0.548008X-1.007627X1.007627X0.548008X0.548008X1.007627X0*%
%ADD55RoundRect,0.225000X0.250000X-0.225000X0.250000X0.225000X-0.250000X0.225000X-0.250000X-0.225000X0*%
%ADD56RoundRect,0.249999X0.290001X0.290001X-0.290001X0.290001X-0.290001X-0.290001X0.290001X-0.290001X0*%
%ADD57RoundRect,0.062500X0.375000X0.062500X-0.375000X0.062500X-0.375000X-0.062500X0.375000X-0.062500X0*%
%ADD58RoundRect,0.062500X0.062500X0.375000X-0.062500X0.375000X-0.062500X-0.375000X0.062500X-0.375000X0*%
%ADD59RoundRect,0.375000X-0.375000X-0.725000X0.375000X-0.725000X0.375000X0.725000X-0.375000X0.725000X0*%
%ADD60RotRect,1.750000X0.600000X135.000000*%
%ADD61RoundRect,0.200000X0.200000X0.800000X-0.200000X0.800000X-0.200000X-0.800000X0.200000X-0.800000X0*%
%ADD62RoundRect,0.150000X-0.150000X0.587500X-0.150000X-0.587500X0.150000X-0.587500X0.150000X0.587500X0*%
%ADD63RoundRect,0.225000X-0.225000X-0.250000X0.225000X-0.250000X0.225000X0.250000X-0.225000X0.250000X0*%
%ADD64R,0.400000X0.650000*%
%ADD65RoundRect,0.250000X-0.292217X-0.292217X0.292217X-0.292217X0.292217X0.292217X-0.292217X0.292217X0*%
%ADD66RoundRect,0.062500X-0.375000X-0.062500X0.375000X-0.062500X0.375000X0.062500X-0.375000X0.062500X0*%
%ADD67RoundRect,0.062500X-0.062500X-0.375000X0.062500X-0.375000X0.062500X0.375000X-0.062500X0.375000X0*%
%ADD68RoundRect,0.225000X-0.017678X0.335876X-0.335876X0.017678X0.017678X-0.335876X0.335876X-0.017678X0*%
%ADD69RoundRect,0.232500X-0.232500X0.232500X-0.232500X-0.232500X0.232500X-0.232500X0.232500X0.232500X0*%
%ADD70RoundRect,0.150000X-0.150000X0.825000X-0.150000X-0.825000X0.150000X-0.825000X0.150000X0.825000X0*%
G04 APERTURE END LIST*
D10*
%TO.C,IC9*%
X71096100Y-62784800D03*
X71096100Y-63584800D03*
D11*
X70208600Y-62534800D03*
X70208600Y-63184800D03*
X70208600Y-63834800D03*
X71983600Y-63834800D03*
X71983600Y-63184800D03*
X71983600Y-62534800D03*
%TD*%
D12*
%TO.C,C12*%
X69215000Y-62456000D03*
X69215000Y-61496000D03*
%TD*%
D13*
%TO.C,R57*%
X58394600Y-68884800D03*
X57374600Y-68884800D03*
%TD*%
D14*
%TO.C,R62*%
X38547152Y-76647152D03*
X39268400Y-77368400D03*
%TD*%
D15*
%TO.C,J1*%
X68757800Y-103962200D03*
D16*
X65265300Y-103962200D03*
X72250300Y-103962200D03*
%TD*%
D17*
%TO.C,R55*%
X48133000Y-79656400D03*
X48133000Y-78636400D03*
%TD*%
D18*
%TO.C,J7*%
X48996600Y-37775200D03*
X48996600Y-32735200D03*
X46456600Y-37775200D03*
X46456600Y-32735200D03*
X43916600Y-37775200D03*
X43916600Y-32735200D03*
X41376600Y-37775200D03*
X41376600Y-32735200D03*
X38836600Y-37775200D03*
X38836600Y-32735200D03*
X36296600Y-37775200D03*
X36296600Y-32735200D03*
%TD*%
D19*
%TO.C,U11*%
X61044611Y-39484310D03*
X61610296Y-40049996D03*
X62175981Y-40615681D03*
X62741667Y-41181366D03*
X63307352Y-41747051D03*
X63873037Y-42312737D03*
X64438723Y-42878422D03*
X65004408Y-43444108D03*
X65570094Y-44009793D03*
X66135779Y-44575479D03*
X66701465Y-45141164D03*
X67267150Y-45706849D03*
X67832835Y-46272535D03*
X68398520Y-46838220D03*
X68964206Y-47403905D03*
X60478926Y-40049996D03*
X61044611Y-40615681D03*
X61610296Y-41181366D03*
X62175981Y-41747051D03*
X62741667Y-42312737D03*
X63307352Y-42878422D03*
X63873037Y-43444108D03*
X64438723Y-44009793D03*
X65004408Y-44575479D03*
X65570094Y-45141164D03*
X66135779Y-45706849D03*
X66701465Y-46272535D03*
X67267150Y-46838220D03*
X67832835Y-47403905D03*
X68398520Y-47969590D03*
X59913241Y-40615681D03*
X60478926Y-41181366D03*
X61044611Y-41747051D03*
X61610296Y-42312736D03*
X62175982Y-42878422D03*
X62741667Y-43444107D03*
X63307353Y-44009792D03*
X63873038Y-44575478D03*
X64438724Y-45141163D03*
X65004409Y-45706849D03*
X65570094Y-46272534D03*
X66135780Y-46838220D03*
X66701465Y-47403905D03*
X67267150Y-47969590D03*
X67832835Y-48535275D03*
X59347555Y-41181366D03*
X59913241Y-41747051D03*
X60478926Y-42312736D03*
X61044611Y-42878422D03*
X61610296Y-43444107D03*
X62175982Y-44009792D03*
X62741667Y-44575478D03*
X63307353Y-45141163D03*
X63873038Y-45706849D03*
X64438724Y-46272534D03*
X65004409Y-46838220D03*
X65570094Y-47403905D03*
X66135780Y-47969590D03*
X66701465Y-48535275D03*
X67267150Y-49100961D03*
X58781870Y-41747051D03*
X59347555Y-42312737D03*
X59913240Y-42878422D03*
X60478926Y-43444107D03*
X61044611Y-44009792D03*
X61610296Y-44575478D03*
X62175982Y-45141163D03*
X62741667Y-45706849D03*
X63307353Y-46272534D03*
X63873038Y-46838220D03*
X64438724Y-47403905D03*
X65004409Y-47969590D03*
X65570094Y-48535276D03*
X66135779Y-49100961D03*
X66701465Y-49666646D03*
X58216185Y-42312737D03*
X58781870Y-42878422D03*
X59347555Y-43444107D03*
X59913240Y-44009792D03*
X60478926Y-44575478D03*
X61044611Y-45141163D03*
X61610296Y-45706849D03*
X62175982Y-46272534D03*
X62741667Y-46838220D03*
X63307353Y-47403905D03*
X63873038Y-47969590D03*
X64438724Y-48535276D03*
X65004409Y-49100961D03*
X65570094Y-49666646D03*
X66135779Y-50232331D03*
X57650499Y-42878422D03*
X58216185Y-43444108D03*
X58781869Y-44009792D03*
X59347555Y-44575478D03*
X59913240Y-45141163D03*
X60478926Y-45706849D03*
X61044611Y-46272534D03*
X61610296Y-46838220D03*
X62175982Y-47403905D03*
X62741667Y-47969590D03*
X63307353Y-48535276D03*
X63873038Y-49100961D03*
X64438724Y-49666647D03*
X65004408Y-50232331D03*
X65570094Y-50798017D03*
X57084814Y-43444108D03*
X57650499Y-44009793D03*
X58216184Y-44575478D03*
X58781869Y-45141163D03*
X59347555Y-45706849D03*
X59913240Y-46272534D03*
X60478926Y-46838220D03*
X61044611Y-47403905D03*
X61610296Y-47969590D03*
X62175982Y-48535276D03*
X62741667Y-49100961D03*
X63307353Y-49666647D03*
X63873038Y-50232332D03*
X64438723Y-50798017D03*
X65004408Y-51363702D03*
X56519128Y-44009793D03*
X57084814Y-44575479D03*
X57650498Y-45141163D03*
X58216184Y-45706849D03*
X58781869Y-46272534D03*
X59347555Y-46838220D03*
X59913240Y-47403905D03*
X60478926Y-47969590D03*
X61044611Y-48535276D03*
X61610296Y-49100961D03*
X62175982Y-49666647D03*
X62741667Y-50232332D03*
X63307353Y-50798018D03*
X63873037Y-51363702D03*
X64438723Y-51929388D03*
X55953443Y-44575479D03*
X56519128Y-45141164D03*
X57084813Y-45706849D03*
X57650498Y-46272534D03*
X58216184Y-46838220D03*
X58781869Y-47403905D03*
X59347555Y-47969590D03*
X59913240Y-48535276D03*
X60478926Y-49100961D03*
X61044611Y-49666647D03*
X61610296Y-50232332D03*
X62175982Y-50798018D03*
X62741667Y-51363703D03*
X63307352Y-51929388D03*
X63873037Y-52495073D03*
X55387757Y-45141164D03*
X55953443Y-45706849D03*
X56519128Y-46272534D03*
X57084813Y-46838220D03*
X57650498Y-47403905D03*
X58216184Y-47969590D03*
X58781869Y-48535276D03*
X59347555Y-49100961D03*
X59913240Y-49666647D03*
X60478926Y-50232332D03*
X61044611Y-50798018D03*
X61610296Y-51363703D03*
X62175982Y-51929388D03*
X62741667Y-52495073D03*
X63307352Y-53060759D03*
X54822072Y-45706849D03*
X55387757Y-46272535D03*
X55953442Y-46838220D03*
X56519128Y-47403905D03*
X57084813Y-47969590D03*
X57650498Y-48535276D03*
X58216184Y-49100961D03*
X58781869Y-49666647D03*
X59347555Y-50232332D03*
X59913240Y-50798018D03*
X60478926Y-51363703D03*
X61044611Y-51929388D03*
X61610296Y-52495074D03*
X62175981Y-53060759D03*
X62741667Y-53626444D03*
X54256387Y-46272535D03*
X54822072Y-46838220D03*
X55387757Y-47403905D03*
X55953442Y-47969590D03*
X56519128Y-48535276D03*
X57084813Y-49100961D03*
X57650498Y-49666647D03*
X58216184Y-50232332D03*
X58781869Y-50798018D03*
X59347555Y-51363703D03*
X59913240Y-51929388D03*
X60478926Y-52495074D03*
X61044611Y-53060759D03*
X61610296Y-53626444D03*
X62175981Y-54192129D03*
X53690702Y-46838220D03*
X54256387Y-47403905D03*
X54822072Y-47969590D03*
X55387757Y-48535275D03*
X55953443Y-49100961D03*
X56519128Y-49666646D03*
X57084814Y-50232331D03*
X57650499Y-50798017D03*
X58216185Y-51363702D03*
X58781870Y-51929388D03*
X59347555Y-52495073D03*
X59913241Y-53060759D03*
X60478926Y-53626444D03*
X61044611Y-54192129D03*
X61610296Y-54757814D03*
X53125016Y-47403905D03*
X53690702Y-47969590D03*
X54256387Y-48535275D03*
X54822072Y-49100961D03*
X55387757Y-49666646D03*
X55953443Y-50232331D03*
X56519128Y-50798017D03*
X57084814Y-51363702D03*
X57650499Y-51929388D03*
X58216185Y-52495073D03*
X58781870Y-53060759D03*
X59347555Y-53626444D03*
X59913241Y-54192129D03*
X60478926Y-54757814D03*
X61044611Y-55323500D03*
%TD*%
D17*
%TO.C,R7*%
X75488800Y-49252600D03*
X75488800Y-48232600D03*
%TD*%
D20*
%TO.C,FL3*%
X57576961Y-98607639D03*
X58036581Y-98148020D03*
X58496200Y-97688400D03*
X57612317Y-96804517D03*
X57152697Y-97264136D03*
X56693078Y-97723756D03*
%TD*%
D21*
%TO.C,U1*%
X42504800Y-67524800D03*
X40654800Y-67524800D03*
X40654800Y-68974800D03*
X42504800Y-68974800D03*
%TD*%
D22*
%TO.C,R9*%
X43129200Y-74269600D03*
X42109200Y-74269600D03*
%TD*%
D23*
%TO.C,C74*%
X57868178Y-93896822D03*
X58547000Y-93218000D03*
%TD*%
D24*
%TO.C,C31*%
X44577000Y-79298800D03*
X43898178Y-79977622D03*
%TD*%
D17*
%TO.C,R31*%
X69592000Y-82448400D03*
X69592000Y-81428400D03*
%TD*%
D13*
%TO.C,R21*%
X58511800Y-78329600D03*
X59531800Y-78329600D03*
%TD*%
D25*
%TO.C,R2*%
X62463624Y-38232024D03*
X61742376Y-37510776D03*
%TD*%
D12*
%TO.C,C55*%
X60497000Y-73503600D03*
X60497000Y-74463600D03*
%TD*%
D25*
%TO.C,R46*%
X39827200Y-96647000D03*
X39105952Y-95925752D03*
%TD*%
D26*
%TO.C,C65*%
X65049400Y-88188800D03*
X64089400Y-88188800D03*
%TD*%
D12*
%TO.C,C53*%
X52095400Y-77399000D03*
X52095400Y-78359000D03*
%TD*%
D23*
%TO.C,C153*%
X64227389Y-40065011D03*
X64906211Y-39386189D03*
%TD*%
D27*
%TO.C,IC7*%
X51833800Y-57091200D03*
X51833800Y-56441200D03*
X51833800Y-55791200D03*
X51833800Y-55141200D03*
X51833800Y-54491200D03*
X51833800Y-53841200D03*
X51833800Y-53191200D03*
X51833800Y-52541200D03*
X51833800Y-51891200D03*
X51833800Y-51241200D03*
X51833800Y-50591200D03*
X51833800Y-49941200D03*
X46108800Y-49941200D03*
X46108800Y-50591200D03*
X46108800Y-51241200D03*
X46108800Y-51891200D03*
X46108800Y-52541200D03*
X46108800Y-53191200D03*
X46108800Y-53841200D03*
X46108800Y-54491200D03*
X46108800Y-55141200D03*
X46108800Y-55791200D03*
X46108800Y-56441200D03*
X46108800Y-57091200D03*
%TD*%
D28*
%TO.C,U10*%
X36677600Y-96951800D03*
X36748310Y-95891140D03*
X37243285Y-96386115D03*
X36182625Y-96456825D03*
D29*
X37093025Y-97862200D03*
X37446578Y-97508647D03*
X37800132Y-97155093D03*
X38153685Y-96801540D03*
X36332885Y-94980740D03*
X35979332Y-95334293D03*
X35625778Y-95687847D03*
X35272225Y-96041400D03*
%TD*%
D30*
%TO.C,R6*%
X45745400Y-77698600D03*
X45024152Y-78419848D03*
%TD*%
D31*
%TO.C,C89*%
X38024072Y-98810218D03*
X39120088Y-97714202D03*
%TD*%
D12*
%TO.C,C35*%
X55902900Y-59857800D03*
X55902900Y-60817800D03*
%TD*%
%TO.C,C36*%
X55902900Y-61762800D03*
X55902900Y-62722800D03*
%TD*%
D32*
%TO.C,IC1*%
X39393700Y-70540998D03*
X39393700Y-71490998D03*
X39393700Y-72440998D03*
X41668700Y-72440998D03*
X41668700Y-71490998D03*
X41668700Y-70540998D03*
%TD*%
D24*
%TO.C,C61*%
X59272701Y-95348055D03*
X58593879Y-96026877D03*
%TD*%
D12*
%TO.C,C72*%
X56718200Y-88422600D03*
X56718200Y-89382600D03*
%TD*%
D26*
%TO.C,C101*%
X73479600Y-48260000D03*
X72519600Y-48260000D03*
%TD*%
D17*
%TO.C,R71*%
X69215000Y-64414400D03*
X69215000Y-63394400D03*
%TD*%
D33*
%TO.C,C79*%
X69592000Y-84322800D03*
X69592000Y-83362800D03*
%TD*%
D17*
%TO.C,R13*%
X53924200Y-82452400D03*
X53924200Y-81432400D03*
%TD*%
D12*
%TO.C,C15*%
X42697400Y-83489800D03*
X42697400Y-84449800D03*
%TD*%
D31*
%TO.C,C151*%
X63434592Y-39029008D03*
X64530608Y-37932992D03*
%TD*%
D34*
%TO.C,U22*%
X45964045Y-87220530D03*
X46529730Y-86654845D03*
X46034755Y-86159870D03*
X45469070Y-86725555D03*
D35*
X45619330Y-85249470D03*
X45265777Y-85603023D03*
X44912223Y-85956577D03*
X44558670Y-86310130D03*
X46379470Y-88130930D03*
X46733023Y-87777377D03*
X47086577Y-87423823D03*
X47440130Y-87070270D03*
%TD*%
D17*
%TO.C,R17*%
X58465000Y-76348400D03*
X58465000Y-75328400D03*
%TD*%
D36*
%TO.C,SW2*%
X55380200Y-32029400D03*
X59580200Y-32029400D03*
%TD*%
D13*
%TO.C,R15*%
X53873400Y-80467200D03*
X54893400Y-80467200D03*
%TD*%
D22*
%TO.C,R25*%
X58295000Y-86410800D03*
X57275000Y-86410800D03*
%TD*%
D37*
%TO.C,C82*%
X69926200Y-69926200D03*
X70886200Y-69926200D03*
%TD*%
D38*
%TO.C,U7*%
X55874000Y-76821000D03*
X55874000Y-75571000D03*
X54624000Y-75571000D03*
X54624000Y-76821000D03*
D39*
X53999000Y-78133500D03*
X54499000Y-78133500D03*
X54999000Y-78133500D03*
X55499000Y-78133500D03*
X55999000Y-78133500D03*
X56499000Y-78133500D03*
D40*
X57186500Y-77446000D03*
X57186500Y-76946000D03*
X57186500Y-76446000D03*
X57186500Y-75946000D03*
X57186500Y-75446000D03*
X57186500Y-74946000D03*
D39*
X56499000Y-74258500D03*
X55999000Y-74258500D03*
X55499000Y-74258500D03*
X54999000Y-74258500D03*
X54499000Y-74258500D03*
X53999000Y-74258500D03*
D40*
X53311500Y-74946000D03*
X53311500Y-75446000D03*
X53311500Y-75946000D03*
X53311500Y-76446000D03*
X53311500Y-76946000D03*
X53311500Y-77446000D03*
%TD*%
D33*
%TO.C,C44*%
X65250100Y-65059500D03*
X65250100Y-64099500D03*
%TD*%
D24*
%TO.C,C143*%
X44697022Y-84690578D03*
X44018200Y-85369400D03*
%TD*%
D33*
%TO.C,C51*%
X52908200Y-84322800D03*
X52908200Y-83362800D03*
%TD*%
D12*
%TO.C,C57*%
X59481000Y-75383200D03*
X59481000Y-76343200D03*
%TD*%
D13*
%TO.C,R20*%
X60442200Y-77313600D03*
X61462200Y-77313600D03*
%TD*%
D41*
%TO.C,L7*%
X67912764Y-90162638D03*
X68598658Y-89476744D03*
%TD*%
D12*
%TO.C,C45*%
X65250100Y-60289500D03*
X65250100Y-61249500D03*
%TD*%
D34*
%TO.C,U20*%
X65623645Y-77035130D03*
X65694355Y-75974470D03*
X66189330Y-76469445D03*
X65128670Y-76540155D03*
D35*
X65278930Y-75064070D03*
X64925377Y-75417623D03*
X64571823Y-75771177D03*
X64218270Y-76124730D03*
X66039070Y-77945530D03*
X66392623Y-77591977D03*
X66746177Y-77238423D03*
X67099730Y-76884870D03*
%TD*%
D42*
%TO.C,C86*%
X73134992Y-69466432D03*
X73813814Y-70145254D03*
%TD*%
D33*
%TO.C,C87*%
X43840400Y-68854200D03*
X43840400Y-67894200D03*
%TD*%
D17*
%TO.C,R70*%
X68199000Y-63453200D03*
X68199000Y-62433200D03*
%TD*%
D22*
%TO.C,R65*%
X72798400Y-47244000D03*
X71778400Y-47244000D03*
%TD*%
D42*
%TO.C,C81*%
X68926389Y-77282989D03*
X69605211Y-77961811D03*
%TD*%
D37*
%TO.C,C95*%
X45544800Y-58216800D03*
X46504800Y-58216800D03*
%TD*%
D26*
%TO.C,C100*%
X46507400Y-48793400D03*
X45547400Y-48793400D03*
%TD*%
D43*
%TO.C,U9*%
X71241883Y-74249317D03*
X70358000Y-73365434D03*
X69474117Y-74249317D03*
X70358000Y-75133200D03*
D44*
X70844136Y-76503220D03*
X71197689Y-76149666D03*
X71551243Y-75796113D03*
X71904796Y-75442560D03*
X72258349Y-75089006D03*
X72611903Y-74735453D03*
D45*
X72611903Y-73763181D03*
X72258349Y-73409628D03*
X71904796Y-73056074D03*
X71551243Y-72702521D03*
X71197689Y-72348968D03*
X70844136Y-71995414D03*
D44*
X69871864Y-71995414D03*
X69518311Y-72348968D03*
X69164757Y-72702521D03*
X68811204Y-73056074D03*
X68457651Y-73409628D03*
X68104097Y-73763181D03*
D45*
X68104097Y-74735453D03*
X68457651Y-75089006D03*
X68811204Y-75442560D03*
X69164757Y-75796113D03*
X69518311Y-76149666D03*
X69871864Y-76503220D03*
%TD*%
D24*
%TO.C,C47*%
X56565800Y-90881200D03*
X55886978Y-91560022D03*
%TD*%
D42*
%TO.C,C85*%
X72313800Y-70078600D03*
X72992622Y-70757422D03*
%TD*%
D13*
%TO.C,R16*%
X51407600Y-79349600D03*
X52427600Y-79349600D03*
%TD*%
D33*
%TO.C,C1*%
X37947600Y-72463600D03*
X37947600Y-71503600D03*
%TD*%
D46*
%TO.C,L4*%
X55883301Y-90162781D03*
X55197407Y-89476887D03*
%TD*%
D37*
%TO.C,C52*%
X53873400Y-79451200D03*
X54833400Y-79451200D03*
%TD*%
D47*
%TO.C,J4*%
X42672000Y-56554000D03*
X42672000Y-56054000D03*
X42672000Y-55554000D03*
X42672000Y-55054000D03*
X42672000Y-54554000D03*
X42672000Y-54054000D03*
X42672000Y-53554000D03*
X42672000Y-53054000D03*
X42672000Y-52554000D03*
X42672000Y-52054000D03*
X42672000Y-51554000D03*
X42672000Y-51054000D03*
X42672000Y-50554000D03*
X42672000Y-50054000D03*
X42672000Y-49554000D03*
X42672000Y-49054000D03*
X42672000Y-48554000D03*
X42672000Y-48054000D03*
X42672000Y-47554000D03*
%TD*%
D12*
%TO.C,C58*%
X60497000Y-75388400D03*
X60497000Y-76348400D03*
%TD*%
D48*
%TO.C,C109*%
X70269400Y-42875200D03*
X68719400Y-42875200D03*
%TD*%
D49*
%TO.C,R39*%
X72948800Y-76149200D03*
X73670048Y-75427952D03*
%TD*%
D33*
%TO.C,C16*%
X42773600Y-79496800D03*
X42773600Y-78536800D03*
%TD*%
D50*
%TO.C,R42*%
X54160200Y-72001000D03*
X54160200Y-73021000D03*
%TD*%
D24*
%TO.C,C123*%
X64550611Y-72837989D03*
X63871789Y-73516811D03*
%TD*%
D51*
%TO.C,C91*%
X71123600Y-59385200D03*
X68173600Y-59385200D03*
%TD*%
D52*
%TO.C,C77*%
X69997456Y-89478017D03*
X69318634Y-88799195D03*
%TD*%
%TO.C,C129*%
X48294668Y-86435076D03*
X47615846Y-85756254D03*
%TD*%
D37*
%TO.C,C83*%
X70182800Y-68935600D03*
X71142800Y-68935600D03*
%TD*%
D12*
%TO.C,C66*%
X58748800Y-89417200D03*
X58748800Y-90377200D03*
%TD*%
D52*
%TO.C,C71*%
X67252222Y-93820622D03*
X66573400Y-93141800D03*
%TD*%
D53*
%TO.C,FL2*%
X66545303Y-97782278D03*
X66085684Y-97322658D03*
X65626064Y-96863039D03*
X64742181Y-97746922D03*
X65201800Y-98206542D03*
X65661420Y-98666161D03*
%TD*%
D54*
%TO.C,C147*%
X65505017Y-35533017D03*
X67590983Y-37618983D03*
%TD*%
D42*
%TO.C,C64*%
X60604157Y-87288599D03*
X61282979Y-87967421D03*
%TD*%
D48*
%TO.C,C33*%
X78295800Y-48539400D03*
X76745800Y-48539400D03*
%TD*%
D17*
%TO.C,R60*%
X74472800Y-49252600D03*
X74472800Y-48232600D03*
%TD*%
D50*
%TO.C,R28*%
X66040000Y-89939400D03*
X66040000Y-90959400D03*
%TD*%
D52*
%TO.C,C63*%
X62001400Y-87249000D03*
X61322578Y-86570178D03*
%TD*%
D17*
%TO.C,R30*%
X70608000Y-82452400D03*
X70608000Y-81432400D03*
%TD*%
D24*
%TO.C,C133*%
X64661422Y-74174978D03*
X63982600Y-74853800D03*
%TD*%
D55*
%TO.C,C120*%
X73228200Y-62280800D03*
X73228200Y-60730800D03*
%TD*%
D54*
%TO.C,C9*%
X69061017Y-51179417D03*
X71146983Y-53265383D03*
%TD*%
D49*
%TO.C,R38*%
X73731176Y-72852224D03*
X74452424Y-72130976D03*
%TD*%
D31*
%TO.C,C148*%
X66761992Y-42204008D03*
X67858008Y-41107992D03*
%TD*%
D52*
%TO.C,C60*%
X64678897Y-96070916D03*
X64000075Y-95392094D03*
%TD*%
D23*
%TO.C,C62*%
X59315978Y-96741622D03*
X59994800Y-96062800D03*
%TD*%
D56*
%TO.C,U8*%
X62523400Y-91967400D03*
X61273400Y-91967400D03*
X61273400Y-90717400D03*
X62523400Y-90717400D03*
D57*
X63835900Y-92592400D03*
X63835900Y-92092400D03*
X63835900Y-91592400D03*
X63835900Y-91092400D03*
X63835900Y-90592400D03*
X63835900Y-90092400D03*
D58*
X63148400Y-89404900D03*
X62648400Y-89404900D03*
X62148400Y-89404900D03*
X61648400Y-89404900D03*
X61148400Y-89404900D03*
X60648400Y-89404900D03*
D57*
X59960900Y-90092400D03*
X59960900Y-90592400D03*
X59960900Y-91092400D03*
X59960900Y-91592400D03*
X59960900Y-92092400D03*
X59960900Y-92592400D03*
D58*
X60648400Y-93279900D03*
X61148400Y-93279900D03*
X61648400Y-93279900D03*
X62148400Y-93279900D03*
X62648400Y-93279900D03*
X63148400Y-93279900D03*
%TD*%
D30*
%TO.C,R8*%
X40264024Y-77744376D03*
X39542776Y-78465624D03*
%TD*%
D50*
%TO.C,R40*%
X68605400Y-68804600D03*
X68605400Y-69824600D03*
%TD*%
D30*
%TO.C,R49*%
X67746824Y-39415776D03*
X67025576Y-40137024D03*
%TD*%
D46*
%TO.C,L5*%
X55164881Y-90881200D03*
X54478987Y-90195306D03*
%TD*%
D13*
%TO.C,R24*%
X57781000Y-87426800D03*
X58801000Y-87426800D03*
%TD*%
D17*
%TO.C,R43*%
X53144200Y-73021000D03*
X53144200Y-72001000D03*
%TD*%
D22*
%TO.C,R22*%
X61464200Y-78329600D03*
X60444200Y-78329600D03*
%TD*%
D17*
%TO.C,R14*%
X52908200Y-82450400D03*
X52908200Y-81430400D03*
%TD*%
D23*
%TO.C,C14*%
X45168178Y-80206222D03*
X45847000Y-79527400D03*
%TD*%
D41*
%TO.C,D2*%
X65671653Y-41490947D03*
X66357547Y-40805053D03*
%TD*%
D17*
%TO.C,R45*%
X40081200Y-88544401D03*
X40081200Y-87524401D03*
%TD*%
D31*
%TO.C,C106*%
X73482200Y-52146200D03*
X74578216Y-51050184D03*
%TD*%
D33*
%TO.C,C78*%
X70608000Y-84322800D03*
X70608000Y-83362800D03*
%TD*%
D25*
%TO.C,R35*%
X74533648Y-69428248D03*
X73812400Y-68707000D03*
%TD*%
D41*
%TO.C,L6*%
X68632881Y-90879362D03*
X69318775Y-90193468D03*
%TD*%
D52*
%TO.C,C18*%
X40462200Y-80822800D03*
X39783378Y-80143978D03*
%TD*%
D59*
%TO.C,L8*%
X71399000Y-36474400D03*
X77699000Y-36474400D03*
%TD*%
D60*
%TO.C,J5*%
X54123398Y-40967039D03*
X53593068Y-39022495D03*
X55537612Y-39552825D03*
X55007282Y-37608282D03*
X56951825Y-38138612D03*
X56421495Y-36194068D03*
X58366039Y-36724398D03*
%TD*%
D61*
%TO.C,SW3*%
X65168200Y-32029400D03*
X60968200Y-32029400D03*
%TD*%
D49*
%TO.C,R37*%
X74472800Y-70866000D03*
X75194048Y-70144752D03*
%TD*%
D13*
%TO.C,R1*%
X39876000Y-73736200D03*
X40896000Y-73736200D03*
%TD*%
D22*
%TO.C,R19*%
X59533800Y-77313600D03*
X58513800Y-77313600D03*
%TD*%
D24*
%TO.C,C49*%
X54480542Y-88799619D03*
X53801720Y-89478441D03*
%TD*%
D14*
%TO.C,R4*%
X65648952Y-38699552D03*
X66370200Y-39420800D03*
%TD*%
D15*
%TO.C,J2*%
X56235600Y-103987600D03*
D16*
X59728100Y-103987600D03*
X52743100Y-103987600D03*
%TD*%
D12*
%TO.C,C130*%
X67208400Y-62461200D03*
X67208400Y-63421200D03*
%TD*%
D62*
%TO.C,Q1*%
X40066000Y-90045300D03*
X38166000Y-90045300D03*
X39116000Y-91920300D03*
%TD*%
D63*
%TO.C,C119*%
X45821600Y-60045600D03*
X47371600Y-60045600D03*
%TD*%
D30*
%TO.C,R36*%
X73736200Y-71424800D03*
X73014952Y-72146048D03*
%TD*%
D64*
%TO.C,U5*%
X43728397Y-75472400D03*
X43078397Y-75472400D03*
X42428397Y-75472400D03*
X42428397Y-77372400D03*
X43728397Y-77372400D03*
%TD*%
D23*
%TO.C,C80*%
X71094600Y-77978000D03*
X71773422Y-77299178D03*
%TD*%
D12*
%TO.C,C37*%
X55902900Y-63665100D03*
X55902900Y-64625100D03*
%TD*%
D26*
%TO.C,C67*%
X58648600Y-88442800D03*
X57688600Y-88442800D03*
%TD*%
D25*
%TO.C,R34*%
X72313800Y-71501000D03*
X71592552Y-70779752D03*
%TD*%
D49*
%TO.C,R32*%
X71094600Y-79400400D03*
X71815848Y-78679152D03*
%TD*%
D55*
%TO.C,C139*%
X66522600Y-61252400D03*
X66522600Y-59702400D03*
%TD*%
D12*
%TO.C,C93*%
X72720200Y-43817600D03*
X72720200Y-44777600D03*
%TD*%
D17*
%TO.C,R41*%
X67589400Y-69828600D03*
X67589400Y-68808600D03*
%TD*%
D65*
%TO.C,IC3*%
X62489000Y-62159000D03*
X59939000Y-65984000D03*
X58664000Y-64709000D03*
X58664000Y-62159000D03*
X59939000Y-62159000D03*
X61214000Y-65984000D03*
X61214000Y-63434000D03*
X59939000Y-63434000D03*
X62489000Y-65984000D03*
X61214000Y-62159000D03*
X62489000Y-63434000D03*
X62489000Y-64709000D03*
X58664000Y-65984000D03*
X61214000Y-64709000D03*
X59939000Y-64709000D03*
X58664000Y-63434000D03*
D66*
X57139000Y-61321500D03*
X57139000Y-61821500D03*
X57139000Y-62321500D03*
X57139000Y-62821500D03*
X57139000Y-63321500D03*
X57139000Y-63821500D03*
X57139000Y-64321500D03*
X57139000Y-64821500D03*
X57139000Y-65321500D03*
X57139000Y-65821500D03*
X57139000Y-66321500D03*
X57139000Y-66821500D03*
D67*
X57826500Y-67509000D03*
X58326500Y-67509000D03*
X58826500Y-67509000D03*
X59326500Y-67509000D03*
X59826500Y-67509000D03*
X60326500Y-67509000D03*
X60826500Y-67509000D03*
X61326500Y-67509000D03*
X61826500Y-67509000D03*
X62326500Y-67509000D03*
X62826500Y-67509000D03*
X63326500Y-67509000D03*
D66*
X64014000Y-66821500D03*
X64014000Y-66321500D03*
X64014000Y-65821500D03*
X64014000Y-65321500D03*
X64014000Y-64821500D03*
X64014000Y-64321500D03*
X64014000Y-63821500D03*
X64014000Y-63321500D03*
X64014000Y-62821500D03*
X64014000Y-62321500D03*
X64014000Y-61821500D03*
X64014000Y-61321500D03*
D67*
X63326500Y-60634000D03*
X62826500Y-60634000D03*
X62326500Y-60634000D03*
X61826500Y-60634000D03*
X61326500Y-60634000D03*
X60826500Y-60634000D03*
X60326500Y-60634000D03*
X59826500Y-60634000D03*
X59326500Y-60634000D03*
X58826500Y-60634000D03*
X58326500Y-60634000D03*
X57826500Y-60634000D03*
%TD*%
D14*
%TO.C,R33*%
X68874752Y-78653752D03*
X69596000Y-79375000D03*
%TD*%
D30*
%TO.C,R27*%
X58547000Y-91770200D03*
X57825752Y-92491448D03*
%TD*%
D12*
%TO.C,C46*%
X65250100Y-62191900D03*
X65250100Y-63151900D03*
%TD*%
D50*
%TO.C,R29*%
X57734200Y-89914000D03*
X57734200Y-90934000D03*
%TD*%
D68*
%TO.C,C149*%
X52364008Y-42758992D03*
X51267992Y-43855008D03*
%TD*%
D42*
%TO.C,C59*%
X63285332Y-96114191D03*
X63964154Y-96793013D03*
%TD*%
D12*
%TO.C,C73*%
X66040000Y-88064400D03*
X66040000Y-89024400D03*
%TD*%
D17*
%TO.C,R56*%
X72720200Y-42877200D03*
X72720200Y-41857200D03*
%TD*%
D50*
%TO.C,R10*%
X41122600Y-75916600D03*
X41122600Y-76936600D03*
%TD*%
D52*
%TO.C,C75*%
X67912622Y-91560022D03*
X67233800Y-90881200D03*
%TD*%
D17*
%TO.C,R18*%
X61513000Y-76348400D03*
X61513000Y-75328400D03*
%TD*%
D41*
%TO.C,D3*%
X64960453Y-40779747D03*
X65646347Y-40093853D03*
%TD*%
D69*
%TO.C,U6*%
X76571800Y-44593200D03*
X75421800Y-44593200D03*
X76571800Y-43443200D03*
X75421800Y-43443200D03*
D70*
X77901800Y-41543200D03*
X76631800Y-41543200D03*
X75361800Y-41543200D03*
X74091800Y-41543200D03*
X74091800Y-46493200D03*
X75361800Y-46493200D03*
X76631800Y-46493200D03*
X77901800Y-46493200D03*
%TD*%
D12*
%TO.C,C68*%
X65048000Y-89417200D03*
X65048000Y-90377200D03*
%TD*%
%TO.C,C90*%
X71704200Y-42852400D03*
X71704200Y-43812400D03*
%TD*%
D33*
%TO.C,C50*%
X53924200Y-84328000D03*
X53924200Y-83368000D03*
%TD*%
D31*
%TO.C,C88*%
X34884992Y-94553408D03*
X35981008Y-93457392D03*
%TD*%
D14*
%TO.C,R26*%
X66715752Y-91861752D03*
X67437000Y-92583000D03*
%TD*%
D25*
%TO.C,R3*%
X63200224Y-37495424D03*
X62478976Y-36774176D03*
%TD*%
D33*
%TO.C,C70*%
X65049400Y-93314400D03*
X65049400Y-92354400D03*
%TD*%
D12*
%TO.C,C54*%
X59481000Y-73503600D03*
X59481000Y-74463600D03*
%TD*%
D13*
%TO.C,R59*%
X72798400Y-46228000D03*
X71778400Y-46228000D03*
%TD*%
D22*
%TO.C,R53*%
X72923400Y-63830200D03*
X73943400Y-63830200D03*
%TD*%
D16*
%TO.C,J3*%
X39954200Y-103987600D03*
X46939200Y-103987600D03*
%TD*%
M02*
