%TF.GenerationSoftware,KiCad,Pcbnew,(6.0.4)*%
%TF.CreationDate,2023-05-16T14:10:18+09:00*%
%TF.ProjectId,RFB,5246422e-6b69-4636-9164-5f7063625858,rev?*%
%TF.SameCoordinates,Original*%
%TF.FileFunction,Legend,Bot*%
%TF.FilePolarity,Positive*%
%FSLAX46Y46*%
G04 Gerber Fmt 4.6, Leading zero omitted, Abs format (unit mm)*
G04 Created by KiCad (PCBNEW (6.0.4)) date 2023-05-16 14:10:18*
%MOMM*%
%LPD*%
G01*
G04 APERTURE LIST*
%ADD10C,0.150000*%
%ADD11C,0.120000*%
%ADD12C,0.200000*%
%ADD13C,0.152400*%
G04 APERTURE END LIST*
D10*
X58786880Y-37455644D02*
X59493987Y-36748537D01*
X59224613Y-36479163D01*
X59123598Y-36445491D01*
X59056254Y-36445491D01*
X58955239Y-36479163D01*
X58854224Y-36580178D01*
X58820552Y-36681193D01*
X58820552Y-36748537D01*
X58854224Y-36849552D01*
X59123598Y-37118926D01*
X58382819Y-35704712D02*
X58483835Y-35738384D01*
X58584850Y-35839400D01*
X58652193Y-35974087D01*
X58652193Y-36108774D01*
X58618522Y-36209789D01*
X58517506Y-36378148D01*
X58416491Y-36479163D01*
X58248132Y-36580178D01*
X58147117Y-36613850D01*
X58012430Y-36613850D01*
X57877743Y-36546506D01*
X57810400Y-36479163D01*
X57743056Y-36344476D01*
X57743056Y-36277132D01*
X57978758Y-36041430D01*
X58113445Y-36176117D01*
X57372667Y-36041430D02*
X58079774Y-35334323D01*
X57338995Y-35603697D01*
X57608369Y-34862919D01*
X56901262Y-35570025D01*
X56699232Y-34627216D02*
X56564545Y-34559873D01*
X56497201Y-34559873D01*
X56396186Y-34593545D01*
X56295171Y-34694560D01*
X56261499Y-34795575D01*
X56261499Y-34862919D01*
X56295171Y-34963934D01*
X56564545Y-35233308D01*
X57271651Y-34526201D01*
X57035949Y-34290499D01*
X56934934Y-34256827D01*
X56867590Y-34256827D01*
X56766575Y-34290499D01*
X56699232Y-34357842D01*
X56665560Y-34458858D01*
X56665560Y-34526201D01*
X56699232Y-34627216D01*
X56934934Y-34862919D01*
%TO.C,IC10*%
X72445380Y-67077180D02*
X72445380Y-66077180D01*
X71397761Y-66981942D02*
X71445380Y-67029561D01*
X71588238Y-67077180D01*
X71683476Y-67077180D01*
X71826333Y-67029561D01*
X71921571Y-66934323D01*
X71969190Y-66839085D01*
X72016809Y-66648609D01*
X72016809Y-66505752D01*
X71969190Y-66315276D01*
X71921571Y-66220038D01*
X71826333Y-66124800D01*
X71683476Y-66077180D01*
X71588238Y-66077180D01*
X71445380Y-66124800D01*
X71397761Y-66172419D01*
X70445380Y-67077180D02*
X71016809Y-67077180D01*
X70731095Y-67077180D02*
X70731095Y-66077180D01*
X70826333Y-66220038D01*
X70921571Y-66315276D01*
X71016809Y-66362895D01*
X69826333Y-66077180D02*
X69731095Y-66077180D01*
X69635857Y-66124800D01*
X69588238Y-66172419D01*
X69540619Y-66267657D01*
X69493000Y-66458133D01*
X69493000Y-66696228D01*
X69540619Y-66886704D01*
X69588238Y-66981942D01*
X69635857Y-67029561D01*
X69731095Y-67077180D01*
X69826333Y-67077180D01*
X69921571Y-67029561D01*
X69969190Y-66981942D01*
X70016809Y-66886704D01*
X70064428Y-66696228D01*
X70064428Y-66458133D01*
X70016809Y-66267657D01*
X69969190Y-66172419D01*
X69921571Y-66124800D01*
X69826333Y-66077180D01*
%TO.C,IC8*%
X45085980Y-62955609D02*
X44085980Y-62955609D01*
X44990742Y-64003228D02*
X45038361Y-63955609D01*
X45085980Y-63812752D01*
X45085980Y-63717514D01*
X45038361Y-63574657D01*
X44943123Y-63479419D01*
X44847885Y-63431800D01*
X44657409Y-63384180D01*
X44514552Y-63384180D01*
X44324076Y-63431800D01*
X44228838Y-63479419D01*
X44133600Y-63574657D01*
X44085980Y-63717514D01*
X44085980Y-63812752D01*
X44133600Y-63955609D01*
X44181219Y-64003228D01*
X44514552Y-64574657D02*
X44466933Y-64479419D01*
X44419314Y-64431800D01*
X44324076Y-64384180D01*
X44276457Y-64384180D01*
X44181219Y-64431800D01*
X44133600Y-64479419D01*
X44085980Y-64574657D01*
X44085980Y-64765133D01*
X44133600Y-64860371D01*
X44181219Y-64907990D01*
X44276457Y-64955609D01*
X44324076Y-64955609D01*
X44419314Y-64907990D01*
X44466933Y-64860371D01*
X44514552Y-64765133D01*
X44514552Y-64574657D01*
X44562171Y-64479419D01*
X44609790Y-64431800D01*
X44705028Y-64384180D01*
X44895504Y-64384180D01*
X44990742Y-64431800D01*
X45038361Y-64479419D01*
X45085980Y-64574657D01*
X45085980Y-64765133D01*
X45038361Y-64860371D01*
X44990742Y-64907990D01*
X44895504Y-64955609D01*
X44705028Y-64955609D01*
X44609790Y-64907990D01*
X44562171Y-64860371D01*
X44514552Y-64765133D01*
%TO.C,IC4*%
X69596980Y-52389209D02*
X68596980Y-52389209D01*
X69501742Y-53436828D02*
X69549361Y-53389209D01*
X69596980Y-53246352D01*
X69596980Y-53151114D01*
X69549361Y-53008257D01*
X69454123Y-52913019D01*
X69358885Y-52865400D01*
X69168409Y-52817780D01*
X69025552Y-52817780D01*
X68835076Y-52865400D01*
X68739838Y-52913019D01*
X68644600Y-53008257D01*
X68596980Y-53151114D01*
X68596980Y-53246352D01*
X68644600Y-53389209D01*
X68692219Y-53436828D01*
X68930314Y-54293971D02*
X69596980Y-54293971D01*
X68549361Y-54055876D02*
X69263647Y-53817780D01*
X69263647Y-54436828D01*
%TO.C,IC2*%
X67483580Y-80811809D02*
X66483580Y-80811809D01*
X67388342Y-81859428D02*
X67435961Y-81811809D01*
X67483580Y-81668952D01*
X67483580Y-81573714D01*
X67435961Y-81430857D01*
X67340723Y-81335619D01*
X67245485Y-81288000D01*
X67055009Y-81240380D01*
X66912152Y-81240380D01*
X66721676Y-81288000D01*
X66626438Y-81335619D01*
X66531200Y-81430857D01*
X66483580Y-81573714D01*
X66483580Y-81668952D01*
X66531200Y-81811809D01*
X66578819Y-81859428D01*
X66578819Y-82240380D02*
X66531200Y-82288000D01*
X66483580Y-82383238D01*
X66483580Y-82621333D01*
X66531200Y-82716571D01*
X66578819Y-82764190D01*
X66674057Y-82811809D01*
X66769295Y-82811809D01*
X66912152Y-82764190D01*
X67483580Y-82192761D01*
X67483580Y-82811809D01*
%TO.C,C34*%
X70630542Y-65242142D02*
X70678161Y-65194523D01*
X70725780Y-65051666D01*
X70725780Y-64956428D01*
X70678161Y-64813571D01*
X70582923Y-64718333D01*
X70487685Y-64670714D01*
X70297209Y-64623095D01*
X70154352Y-64623095D01*
X69963876Y-64670714D01*
X69868638Y-64718333D01*
X69773400Y-64813571D01*
X69725780Y-64956428D01*
X69725780Y-65051666D01*
X69773400Y-65194523D01*
X69821019Y-65242142D01*
X69725780Y-65575476D02*
X69725780Y-66194523D01*
X70106733Y-65861190D01*
X70106733Y-66004047D01*
X70154352Y-66099285D01*
X70201971Y-66146904D01*
X70297209Y-66194523D01*
X70535304Y-66194523D01*
X70630542Y-66146904D01*
X70678161Y-66099285D01*
X70725780Y-66004047D01*
X70725780Y-65718333D01*
X70678161Y-65623095D01*
X70630542Y-65575476D01*
X70059114Y-67051666D02*
X70725780Y-67051666D01*
X69678161Y-66813571D02*
X70392447Y-66575476D01*
X70392447Y-67194523D01*
%TO.C,C11*%
X45933657Y-63569342D02*
X45981276Y-63616961D01*
X46124133Y-63664580D01*
X46219371Y-63664580D01*
X46362228Y-63616961D01*
X46457466Y-63521723D01*
X46505085Y-63426485D01*
X46552704Y-63236009D01*
X46552704Y-63093152D01*
X46505085Y-62902676D01*
X46457466Y-62807438D01*
X46362228Y-62712200D01*
X46219371Y-62664580D01*
X46124133Y-62664580D01*
X45981276Y-62712200D01*
X45933657Y-62759819D01*
X44981276Y-63664580D02*
X45552704Y-63664580D01*
X45266990Y-63664580D02*
X45266990Y-62664580D01*
X45362228Y-62807438D01*
X45457466Y-62902676D01*
X45552704Y-62950295D01*
X44028895Y-63664580D02*
X44600323Y-63664580D01*
X44314609Y-63664580D02*
X44314609Y-62664580D01*
X44409847Y-62807438D01*
X44505085Y-62902676D01*
X44600323Y-62950295D01*
%TO.C,C8*%
X70044666Y-53028342D02*
X70092285Y-53075961D01*
X70235142Y-53123580D01*
X70330380Y-53123580D01*
X70473238Y-53075961D01*
X70568476Y-52980723D01*
X70616095Y-52885485D01*
X70663714Y-52695009D01*
X70663714Y-52552152D01*
X70616095Y-52361676D01*
X70568476Y-52266438D01*
X70473238Y-52171200D01*
X70330380Y-52123580D01*
X70235142Y-52123580D01*
X70092285Y-52171200D01*
X70044666Y-52218819D01*
X69473238Y-52552152D02*
X69568476Y-52504533D01*
X69616095Y-52456914D01*
X69663714Y-52361676D01*
X69663714Y-52314057D01*
X69616095Y-52218819D01*
X69568476Y-52171200D01*
X69473238Y-52123580D01*
X69282761Y-52123580D01*
X69187523Y-52171200D01*
X69139904Y-52218819D01*
X69092285Y-52314057D01*
X69092285Y-52361676D01*
X69139904Y-52456914D01*
X69187523Y-52504533D01*
X69282761Y-52552152D01*
X69473238Y-52552152D01*
X69568476Y-52599771D01*
X69616095Y-52647390D01*
X69663714Y-52742628D01*
X69663714Y-52933104D01*
X69616095Y-53028342D01*
X69568476Y-53075961D01*
X69473238Y-53123580D01*
X69282761Y-53123580D01*
X69187523Y-53075961D01*
X69139904Y-53028342D01*
X69092285Y-52933104D01*
X69092285Y-52742628D01*
X69139904Y-52647390D01*
X69187523Y-52599771D01*
X69282761Y-52552152D01*
%TO.C,C7*%
X66488666Y-82864742D02*
X66536285Y-82912361D01*
X66679142Y-82959980D01*
X66774380Y-82959980D01*
X66917238Y-82912361D01*
X67012476Y-82817123D01*
X67060095Y-82721885D01*
X67107714Y-82531409D01*
X67107714Y-82388552D01*
X67060095Y-82198076D01*
X67012476Y-82102838D01*
X66917238Y-82007600D01*
X66774380Y-81959980D01*
X66679142Y-81959980D01*
X66536285Y-82007600D01*
X66488666Y-82055219D01*
X66155333Y-81959980D02*
X65488666Y-81959980D01*
X65917238Y-82959980D01*
%TO.C,U3*%
X69006104Y-59358780D02*
X69006104Y-60168304D01*
X68958485Y-60263542D01*
X68910866Y-60311161D01*
X68815628Y-60358780D01*
X68625152Y-60358780D01*
X68529914Y-60311161D01*
X68482295Y-60263542D01*
X68434676Y-60168304D01*
X68434676Y-59358780D01*
X68053723Y-59358780D02*
X67434676Y-59358780D01*
X67768009Y-59739733D01*
X67625152Y-59739733D01*
X67529914Y-59787352D01*
X67482295Y-59834971D01*
X67434676Y-59930209D01*
X67434676Y-60168304D01*
X67482295Y-60263542D01*
X67529914Y-60311161D01*
X67625152Y-60358780D01*
X67910866Y-60358780D01*
X68006104Y-60311161D01*
X68053723Y-60263542D01*
%TO.C,C10*%
X65110142Y-58028542D02*
X65157761Y-57980923D01*
X65205380Y-57838066D01*
X65205380Y-57742828D01*
X65157761Y-57599971D01*
X65062523Y-57504733D01*
X64967285Y-57457114D01*
X64776809Y-57409495D01*
X64633952Y-57409495D01*
X64443476Y-57457114D01*
X64348238Y-57504733D01*
X64253000Y-57599971D01*
X64205380Y-57742828D01*
X64205380Y-57838066D01*
X64253000Y-57980923D01*
X64300619Y-58028542D01*
X65205380Y-58980923D02*
X65205380Y-58409495D01*
X65205380Y-58695209D02*
X64205380Y-58695209D01*
X64348238Y-58599971D01*
X64443476Y-58504733D01*
X64491095Y-58409495D01*
X64205380Y-59599971D02*
X64205380Y-59695209D01*
X64253000Y-59790447D01*
X64300619Y-59838066D01*
X64395857Y-59885685D01*
X64586333Y-59933304D01*
X64824428Y-59933304D01*
X65014904Y-59885685D01*
X65110142Y-59838066D01*
X65157761Y-59790447D01*
X65205380Y-59695209D01*
X65205380Y-59599971D01*
X65157761Y-59504733D01*
X65110142Y-59457114D01*
X65014904Y-59409495D01*
X64824428Y-59361876D01*
X64586333Y-59361876D01*
X64395857Y-59409495D01*
X64300619Y-59457114D01*
X64253000Y-59504733D01*
X64205380Y-59599971D01*
%TO.C,C5*%
X72103742Y-57796133D02*
X72151361Y-57748514D01*
X72198980Y-57605657D01*
X72198980Y-57510419D01*
X72151361Y-57367561D01*
X72056123Y-57272323D01*
X71960885Y-57224704D01*
X71770409Y-57177085D01*
X71627552Y-57177085D01*
X71437076Y-57224704D01*
X71341838Y-57272323D01*
X71246600Y-57367561D01*
X71198980Y-57510419D01*
X71198980Y-57605657D01*
X71246600Y-57748514D01*
X71294219Y-57796133D01*
X71198980Y-58700895D02*
X71198980Y-58224704D01*
X71675171Y-58177085D01*
X71627552Y-58224704D01*
X71579933Y-58319942D01*
X71579933Y-58558038D01*
X71627552Y-58653276D01*
X71675171Y-58700895D01*
X71770409Y-58748514D01*
X72008504Y-58748514D01*
X72103742Y-58700895D01*
X72151361Y-58653276D01*
X72198980Y-58558038D01*
X72198980Y-58319942D01*
X72151361Y-58224704D01*
X72103742Y-58177085D01*
%TO.C,R63*%
X63801580Y-67274743D02*
X63325390Y-66941410D01*
X63801580Y-66703315D02*
X62801580Y-66703315D01*
X62801580Y-67084267D01*
X62849200Y-67179505D01*
X62896819Y-67227124D01*
X62992057Y-67274743D01*
X63134914Y-67274743D01*
X63230152Y-67227124D01*
X63277771Y-67179505D01*
X63325390Y-67084267D01*
X63325390Y-66703315D01*
X62801580Y-68131886D02*
X62801580Y-67941410D01*
X62849200Y-67846172D01*
X62896819Y-67798553D01*
X63039676Y-67703315D01*
X63230152Y-67655696D01*
X63611104Y-67655696D01*
X63706342Y-67703315D01*
X63753961Y-67750934D01*
X63801580Y-67846172D01*
X63801580Y-68036648D01*
X63753961Y-68131886D01*
X63706342Y-68179505D01*
X63611104Y-68227124D01*
X63373009Y-68227124D01*
X63277771Y-68179505D01*
X63230152Y-68131886D01*
X63182533Y-68036648D01*
X63182533Y-67846172D01*
X63230152Y-67750934D01*
X63277771Y-67703315D01*
X63373009Y-67655696D01*
X62801580Y-68560458D02*
X62801580Y-69179505D01*
X63182533Y-68846172D01*
X63182533Y-68989029D01*
X63230152Y-69084267D01*
X63277771Y-69131886D01*
X63373009Y-69179505D01*
X63611104Y-69179505D01*
X63706342Y-69131886D01*
X63753961Y-69084267D01*
X63801580Y-68989029D01*
X63801580Y-68703315D01*
X63753961Y-68608077D01*
X63706342Y-68560458D01*
D11*
%TO.C,R44*%
X71021641Y-50849800D02*
X70714359Y-50849800D01*
X71021641Y-50089800D02*
X70714359Y-50089800D01*
%TO.C,IC10*%
X69993000Y-63564800D02*
X71993000Y-63564800D01*
X70993000Y-65784800D02*
X71993000Y-65784800D01*
%TO.C,IC8*%
X47693600Y-62931800D02*
X47693600Y-64931800D01*
X45473600Y-63931800D02*
X45473600Y-64931800D01*
%TO.C,IC4*%
X72204600Y-52365400D02*
X72204600Y-54365400D01*
X69984600Y-53365400D02*
X69984600Y-54365400D01*
%TO.C,IC2*%
X63971200Y-82788000D02*
X63971200Y-80788000D01*
X66191200Y-81788000D02*
X66191200Y-80788000D01*
%TO.C,R68*%
X46354241Y-61390800D02*
X46046959Y-61390800D01*
X46354241Y-60630800D02*
X46046959Y-60630800D01*
%TO.C,C34*%
X69473400Y-65992836D02*
X69473400Y-65777164D01*
X68753400Y-65992836D02*
X68753400Y-65777164D01*
%TO.C,C11*%
X45182964Y-62412200D02*
X45398636Y-62412200D01*
X45182964Y-61692200D02*
X45398636Y-61692200D01*
%TO.C,C8*%
X69770164Y-51871200D02*
X69985836Y-51871200D01*
X69770164Y-51151200D02*
X69985836Y-51151200D01*
%TO.C,C7*%
X66429836Y-83307600D02*
X66214164Y-83307600D01*
X66429836Y-84027600D02*
X66214164Y-84027600D01*
%TO.C,U3*%
X66744200Y-56846400D02*
X69744200Y-56846400D01*
X68244200Y-59066400D02*
X69744200Y-59066400D01*
%TO.C,C10*%
X66273000Y-58563564D02*
X66273000Y-58779236D01*
X65553000Y-58563564D02*
X65553000Y-58779236D01*
%TO.C,C5*%
X70226600Y-58070636D02*
X70226600Y-57854964D01*
X70946600Y-58070636D02*
X70946600Y-57854964D01*
%TO.C,R63*%
X62559200Y-68071242D02*
X62559200Y-67763960D01*
X61799200Y-68071242D02*
X61799200Y-67763960D01*
%TO.C,R61*%
X56939140Y-54258059D02*
X56721859Y-54475340D01*
X57476541Y-54795460D02*
X57259260Y-55012741D01*
%TO.C,R58*%
X57650340Y-54969259D02*
X57433059Y-55186540D01*
X58187741Y-55506660D02*
X57970460Y-55723941D01*
%TO.C,R11*%
X57453800Y-70742241D02*
X57453800Y-70434959D01*
X56693800Y-70742241D02*
X56693800Y-70434959D01*
%TO.C,C102*%
X45034780Y-65555400D02*
X44753620Y-65555400D01*
X45034780Y-66575400D02*
X44753620Y-66575400D01*
%TO.C,C116*%
X46097364Y-60354800D02*
X46313036Y-60354800D01*
X46097364Y-59634800D02*
X46313036Y-59634800D01*
%TO.C,R69*%
X47372241Y-61672200D02*
X47064959Y-61672200D01*
X47372241Y-62432200D02*
X47064959Y-62432200D01*
%TO.C,C92*%
X51654896Y-50200221D02*
X51807399Y-50047718D01*
X51145779Y-49691104D02*
X51298282Y-49538601D01*
%TO.C,C141*%
X65176980Y-86459600D02*
X64895820Y-86459600D01*
X65176980Y-87479600D02*
X64895820Y-87479600D01*
%TO.C,SW1*%
X60083600Y-30459400D02*
X55943600Y-30459400D01*
X55943600Y-30459400D02*
X55943600Y-30759400D01*
X55943600Y-33299400D02*
X55943600Y-33599400D01*
X60083600Y-30759400D02*
X60083600Y-30459400D01*
X55943600Y-33599400D02*
X60083600Y-33599400D01*
X60083600Y-33599400D02*
X60083600Y-33299400D01*
%TO.C,R12*%
X69714317Y-72402716D02*
X69497036Y-72185435D01*
X69176916Y-72940117D02*
X68959635Y-72722836D01*
%TO.C,C150*%
X68099400Y-52553180D02*
X68099400Y-52272020D01*
X67079400Y-52553180D02*
X67079400Y-52272020D01*
%TO.C,IC6*%
X61594738Y-36213799D02*
X60180524Y-37628012D01*
X59119864Y-45392045D02*
X60180524Y-46452705D01*
X62655398Y-37274459D02*
X61594738Y-36213799D01*
X61594738Y-36213799D02*
X60180524Y-37628012D01*
X65215125Y-41418105D02*
X64592871Y-42040359D01*
X65215125Y-39834186D02*
X65215125Y-41418105D01*
X62655398Y-37274459D02*
X61594738Y-36213799D01*
X55768178Y-42040359D02*
X57182391Y-40626145D01*
X64946424Y-39565485D02*
X65215125Y-39834186D01*
X61594738Y-36213799D02*
X60180524Y-37628012D01*
X62655398Y-37274459D02*
X61594738Y-36213799D01*
X60180524Y-46452705D02*
X61594738Y-45038492D01*
X56828838Y-43101019D02*
X55768178Y-42040359D01*
D12*
X65937378Y-40626145D02*
G75*
G03*
X65937378Y-40626145I-100000J0D01*
G01*
D11*
%TO.C,C69*%
X65159836Y-91257800D02*
X64944164Y-91257800D01*
X65159836Y-91977800D02*
X64944164Y-91977800D01*
%TO.C,R75*%
X64258759Y-83287600D02*
X64566041Y-83287600D01*
X64258759Y-84047600D02*
X64566041Y-84047600D01*
%TO.C,C122*%
X66647600Y-80111020D02*
X66647600Y-80392180D01*
X67667600Y-80111020D02*
X67667600Y-80392180D01*
%TO.C,R47*%
X41325041Y-93701600D02*
X41017759Y-93701600D01*
X41325041Y-94461600D02*
X41017759Y-94461600D01*
%TO.C,C56*%
X56617764Y-75870200D02*
X56833436Y-75870200D01*
X56617764Y-75150200D02*
X56833436Y-75150200D01*
%TO.C,C30*%
X38147164Y-82071800D02*
X38362836Y-82071800D01*
X38147164Y-81351800D02*
X38362836Y-81351800D01*
%TO.C,C145*%
X57362779Y-48212918D02*
X57147107Y-48212918D01*
X57362779Y-47492918D02*
X57147107Y-47492918D01*
%TO.C,C121*%
X72009580Y-67235800D02*
X71728420Y-67235800D01*
X72009580Y-66215800D02*
X71728420Y-66215800D01*
%TO.C,C144*%
X60201007Y-46841447D02*
X60353510Y-46993950D01*
X59691890Y-47350564D02*
X59844393Y-47503067D01*
%TO.C,C13*%
X46617836Y-83968000D02*
X46402164Y-83968000D01*
X46617836Y-84688000D02*
X46402164Y-84688000D01*
%TO.C,C40*%
X58645625Y-69755211D02*
X58429953Y-69755211D01*
X58645625Y-70475211D02*
X58429953Y-70475211D01*
%TO.C,R23*%
X55929800Y-74169241D02*
X55929800Y-73861959D01*
X55169800Y-74169241D02*
X55169800Y-73861959D01*
%TO.C,C39*%
X60329400Y-67138436D02*
X60329400Y-66922764D01*
X59609400Y-67138436D02*
X59609400Y-66922764D01*
%TO.C,U16*%
X49204901Y-46075600D02*
X49204901Y-44575600D01*
X46984901Y-47575600D02*
X46984901Y-44575600D01*
%TO.C,C27*%
X44374797Y-76621165D02*
X44374797Y-76836837D01*
X45094797Y-76621165D02*
X45094797Y-76836837D01*
%TO.C,R51*%
X57107883Y-38849284D02*
X57325164Y-39066565D01*
X57645284Y-38311883D02*
X57862565Y-38529164D01*
%TO.C,C48*%
X54893800Y-73907764D02*
X54893800Y-74123436D01*
X54173800Y-73907764D02*
X54173800Y-74123436D01*
%TO.C,C107*%
X63880547Y-45680699D02*
X64079358Y-45879510D01*
X64601796Y-44959450D02*
X64800607Y-45158261D01*
%TO.C,R54*%
X65708800Y-51080641D02*
X65708800Y-50773359D01*
X64948800Y-51080641D02*
X64948800Y-50773359D01*
%TO.C,C17*%
X48010400Y-80260364D02*
X48010400Y-80476036D01*
X47290400Y-80260364D02*
X47290400Y-80476036D01*
%TO.C,C41*%
X59035836Y-70736600D02*
X58820164Y-70736600D01*
X59035836Y-71456600D02*
X58820164Y-71456600D01*
%TO.C,C26*%
X44078797Y-76621165D02*
X44078797Y-76836837D01*
X43358797Y-76621165D02*
X43358797Y-76836837D01*
%TO.C,C42*%
X61523200Y-67138436D02*
X61523200Y-66922764D01*
X60803200Y-67138436D02*
X60803200Y-66922764D01*
%TO.C,C132*%
X65439236Y-86059600D02*
X65223564Y-86059600D01*
X65439236Y-85339600D02*
X65223564Y-85339600D01*
%TO.C,C97*%
X43226400Y-93539364D02*
X43226400Y-93755036D01*
X43946400Y-93539364D02*
X43946400Y-93755036D01*
%TO.C,Q2*%
X36590800Y-94894400D02*
X36590800Y-95544400D01*
X39710800Y-94894400D02*
X39710800Y-96569400D01*
X36590800Y-94894400D02*
X36590800Y-94244400D01*
X39710800Y-94894400D02*
X39710800Y-94244400D01*
%TO.C,C32*%
X46299800Y-79828564D02*
X46299800Y-80044236D01*
X47019800Y-79828564D02*
X47019800Y-80044236D01*
%TO.C,C155*%
X56392400Y-45980236D02*
X56392400Y-45764564D01*
X55672400Y-45980236D02*
X55672400Y-45764564D01*
D12*
%TO.C,U4*%
X39497798Y-84203799D02*
X39497798Y-84428800D01*
X39722798Y-84428800D02*
X39497798Y-84428800D01*
X40072798Y-77978800D02*
X39497798Y-77978800D01*
X45947797Y-77978800D02*
X45722797Y-77978800D01*
X39497798Y-77978800D02*
X39497798Y-78553800D01*
X45947797Y-77978800D02*
X45947797Y-78203801D01*
X45947797Y-84203799D02*
X45947797Y-84428800D01*
X45947797Y-84428800D02*
X45722797Y-84428800D01*
D11*
%TO.C,C24*%
X41042764Y-76805200D02*
X41258436Y-76805200D01*
X41042764Y-77525200D02*
X41258436Y-77525200D01*
%TO.C,U12*%
X66439332Y-56311800D02*
X66255484Y-56127952D01*
X60658734Y-54384934D02*
X58731868Y-56311800D01*
X64512466Y-58238666D02*
X66439332Y-56311800D01*
X58731868Y-56311800D02*
X58915716Y-56495648D01*
X60658734Y-54384934D02*
X62585600Y-52458068D01*
X62585600Y-60165532D02*
X62401752Y-59981684D01*
X62769448Y-52641916D02*
X63953852Y-51457512D01*
X62585600Y-52458068D02*
X62769448Y-52641916D01*
X64512466Y-58238666D02*
X62585600Y-60165532D01*
%TO.C,R48*%
X40109841Y-97761000D02*
X39802559Y-97761000D01*
X40109841Y-97001000D02*
X39802559Y-97001000D01*
%TO.C,C76*%
X68534629Y-73940852D02*
X68687132Y-74093355D01*
X69043746Y-73431735D02*
X69196249Y-73584238D01*
%TO.C,C113*%
X62391109Y-45763816D02*
X62238606Y-45916319D01*
X62900226Y-46272933D02*
X62747723Y-46425436D01*
%TO.C,C20*%
X38971562Y-85808589D02*
X39170373Y-85609778D01*
X39692811Y-86529838D02*
X39891622Y-86331027D01*
%TO.C,C154*%
X63963436Y-50059000D02*
X63747764Y-50059000D01*
X63963436Y-50779000D02*
X63747764Y-50779000D01*
%TO.C,C43*%
X64194636Y-65688800D02*
X63978964Y-65688800D01*
X64194636Y-64968800D02*
X63978964Y-64968800D01*
%TO.C,C38*%
X57506107Y-66802610D02*
X57658610Y-66650107D01*
X56996990Y-66293493D02*
X57149493Y-66140990D01*
%TO.C,R73*%
X69493400Y-63803559D02*
X69493400Y-64110841D01*
X68733400Y-63803559D02*
X68733400Y-64110841D01*
%TO.C,C96*%
X43946400Y-90598164D02*
X43946400Y-90813836D01*
X43226400Y-90598164D02*
X43226400Y-90813836D01*
%TO.C,C131*%
X67441400Y-65030236D02*
X67441400Y-64814564D01*
X66721400Y-65030236D02*
X66721400Y-64814564D01*
%TO.C,C152*%
X57543609Y-51775830D02*
X57391106Y-51623327D01*
X58052726Y-51266713D02*
X57900223Y-51114210D01*
%TO.C,C6*%
X70755564Y-49093800D02*
X70971236Y-49093800D01*
X70755564Y-49813800D02*
X70971236Y-49813800D01*
%TO.C,C84*%
X70856179Y-72144704D02*
X71008682Y-71992201D01*
X71365296Y-72653821D02*
X71517799Y-72501318D01*
%TO.C,R50*%
X55897740Y-37646459D02*
X55680459Y-37863740D01*
X56435141Y-38183860D02*
X56217860Y-38401141D01*
%TO.C,R5*%
X44380438Y-74875801D02*
X44073156Y-74875801D01*
X44380438Y-75635801D02*
X44073156Y-75635801D01*
D13*
%TO.C,U2*%
X45034311Y-74383900D02*
X41706689Y-74383900D01*
X41706689Y-69278500D02*
X45034311Y-69278500D01*
X43675300Y-74383900D02*
G75*
G03*
X43065700Y-74383900I-304800J0D01*
G01*
G36*
X47536100Y-70396699D02*
G01*
X47282100Y-70396699D01*
X47282100Y-70015699D01*
X47536100Y-70015699D01*
X47536100Y-70396699D01*
G37*
D11*
%TO.C,C28*%
X43363400Y-86003036D02*
X43363400Y-85787364D01*
X44083400Y-86003036D02*
X44083400Y-85787364D01*
%TO.C,C29*%
X45099400Y-85997836D02*
X45099400Y-85782164D01*
X44379400Y-85997836D02*
X44379400Y-85782164D01*
%TO.C,C99*%
X40796800Y-98746364D02*
X40796800Y-98962036D01*
X40076800Y-98746364D02*
X40076800Y-98962036D01*
%TO.C,R74*%
X65173159Y-85063600D02*
X65480441Y-85063600D01*
X65173159Y-84303600D02*
X65480441Y-84303600D01*
%TO.C,D1*%
X75515200Y-39856200D02*
X75515200Y-45256200D01*
X78815200Y-39856200D02*
X78815200Y-45256200D01*
X75515200Y-39856200D02*
X78815200Y-39856200D01*
%TO.C,C146*%
X66709004Y-40994066D02*
X67714866Y-39988204D01*
X68632334Y-42917396D02*
X69638196Y-41911534D01*
%TO.C,C115*%
X59163764Y-48768114D02*
X58948092Y-48768114D01*
X59163764Y-49488114D02*
X58948092Y-49488114D01*
%TO.C,C110*%
X56376180Y-48816800D02*
X56095020Y-48816800D01*
X56376180Y-49836800D02*
X56095020Y-49836800D01*
%TO.C,C2*%
X38476600Y-70465836D02*
X38476600Y-70250164D01*
X39196600Y-70465836D02*
X39196600Y-70250164D01*
%TO.C,J3*%
X43196700Y-101087600D02*
X43696700Y-101087600D01*
X43696700Y-101087600D02*
X43446700Y-101587600D01*
X43446700Y-101587600D02*
X43196700Y-101087600D01*
%TO.C,C3*%
X38476600Y-73516436D02*
X38476600Y-73300764D01*
X39196600Y-73516436D02*
X39196600Y-73300764D01*
%TO.C,C140*%
X66321400Y-66293420D02*
X66321400Y-66574580D01*
X65301400Y-66293420D02*
X65301400Y-66574580D01*
%TO.C,R72*%
X67717400Y-64741359D02*
X67717400Y-65048641D01*
X68477400Y-64741359D02*
X68477400Y-65048641D01*
%TO.C,FL1*%
X45706400Y-89778200D02*
X45706400Y-87128200D01*
X42756400Y-88978200D02*
X43556400Y-89778200D01*
X43556400Y-89778200D02*
X45706400Y-89778200D01*
X45706400Y-87128200D02*
X42756400Y-87128200D01*
X42756400Y-87128200D02*
X42756400Y-88978200D01*
%TO.C,IC5*%
X44686200Y-95126600D02*
X44211200Y-95126600D01*
X44686200Y-95601600D02*
X44686200Y-95126600D01*
X41466200Y-95601600D02*
X41466200Y-95126600D01*
X41466200Y-98346600D02*
X41941200Y-98346600D01*
X44686200Y-97871600D02*
X44686200Y-98346600D01*
X44686200Y-98346600D02*
X44211200Y-98346600D01*
X41466200Y-97871600D02*
X41466200Y-98346600D01*
%TO.C,C4*%
X69799780Y-54989000D02*
X69518620Y-54989000D01*
X69799780Y-56009000D02*
X69518620Y-56009000D01*
%TO.C,C112*%
X48209780Y-43969400D02*
X47928620Y-43969400D01*
X48209780Y-42949400D02*
X47928620Y-42949400D01*
%TO.C,C94*%
X64242161Y-48771153D02*
X64440972Y-48572342D01*
X63520912Y-48049904D02*
X63719723Y-47851093D01*
%TO.C,C25*%
X37540020Y-82598800D02*
X37821180Y-82598800D01*
X37540020Y-83618800D02*
X37821180Y-83618800D01*
%TO.C,C22*%
X46384036Y-78414200D02*
X46168364Y-78414200D01*
X46384036Y-77694200D02*
X46168364Y-77694200D01*
%TO.C,R52*%
X71961441Y-51865800D02*
X71654159Y-51865800D01*
X71961441Y-51105800D02*
X71654159Y-51105800D01*
%TO.C,C23*%
X39069600Y-78609364D02*
X39069600Y-78825036D01*
X38349600Y-78609364D02*
X38349600Y-78825036D01*
%TO.C,C19*%
X37540020Y-80951800D02*
X37821180Y-80951800D01*
X37540020Y-79931800D02*
X37821180Y-79931800D01*
%TO.C,C98*%
X39755400Y-98746364D02*
X39755400Y-98962036D01*
X39035400Y-98746364D02*
X39035400Y-98962036D01*
%TO.C,C118*%
X50687700Y-47778581D02*
X50687700Y-47497421D01*
X49667700Y-47778581D02*
X49667700Y-47497421D01*
%TO.C,C21*%
X41935907Y-85878010D02*
X42088410Y-85725507D01*
X41426790Y-85368893D02*
X41579293Y-85216390D01*
%TD*%
M02*
