M48
; DRILL file {KiCad (6.0.4)} date Tue May 16 14:10:22 2023
; FORMAT={-:-/ absolute / inch / decimal}
; #@! TF.CreationDate,2023-05-16T14:10:22+09:00
; #@! TF.GenerationSoftware,Kicad,Pcbnew,(6.0.4)
; #@! TF.FileFunction,Plated,1,6,PTH
FMAT,2
INCH
; #@! TA.AperFunction,Plated,PTH,ViaDrill
T1C0.0059
; #@! TA.AperFunction,Plated,PTH,ViaDrill
T2C0.0079
; #@! TA.AperFunction,Plated,PTH,ComponentDrill
T3C0.0079
; #@! TA.AperFunction,Plated,PTH,ViaDrill
T4C0.0118
; #@! TA.AperFunction,Plated,PTH,ComponentDrill
T5C0.0118
; #@! TA.AperFunction,Plated,PTH,ViaDrill
T6C0.0157
; #@! TA.AperFunction,Plated,PTH,ComponentDrill
T7C0.0181
; #@! TA.AperFunction,Plated,PTH,ComponentDrill
T8C0.0394
; #@! TA.AperFunction,Plated,PTH,ComponentDrill
T9C0.0756
; #@! TA.AperFunction,Plated,PTH,ComponentDrill
T10C0.0866
; #@! TA.AperFunction,Plated,PTH,ComponentDrill
T11C0.1047
%
G90
G05
T1
X1.415Y-3.14
X1.437Y-3.253
X1.472Y-3.14
X1.503Y-3.516
X1.506Y-2.883
X1.512Y-3.069
X1.516Y-4.011
X1.516Y-4.037
X1.516Y-4.063
X1.516Y-4.089
X1.516Y-4.115
X1.516Y-4.141
X1.516Y-4.167
X1.527Y-3.01
X1.537Y-3.207
X1.54Y-3.764
X1.542Y-4.011
X1.542Y-4.037
X1.542Y-4.063
X1.542Y-4.089
X1.542Y-4.115
X1.542Y-4.141
X1.542Y-4.167
X1.565Y-3.266
X1.568Y-4.011
X1.568Y-4.037
X1.568Y-4.063
X1.568Y-4.089
X1.568Y-4.115
X1.568Y-4.141
X1.568Y-4.167
X1.57Y-3.167
X1.5756Y-3.1084
X1.579Y-3.027
X1.592Y-3.001
X1.594Y-4.011
X1.594Y-4.037
X1.594Y-4.063
X1.594Y-4.089
X1.594Y-4.115
X1.594Y-4.141
X1.594Y-4.167
X1.596Y-2.972
X1.6015Y-3.7665
X1.62Y-4.011
X1.62Y-4.037
X1.62Y-4.063
X1.62Y-4.089
X1.62Y-4.115
X1.62Y-4.141
X1.62Y-4.167
X1.622Y-2.963
X1.626Y-3.677
X1.63Y-3.788
X1.63Y-3.84
X1.63Y-3.736
X1.63Y-3.762
X1.6394Y-3.9896
X1.648Y-2.963
X1.648Y-3.886
X1.656Y-3.514
X1.656Y-3.54
X1.656Y-3.566
X1.656Y-3.592
X1.656Y-3.618
X1.656Y-3.644
X1.656Y-3.67
X1.6578Y-3.9712
X1.6762Y-3.9528
X1.682Y-3.514
X1.682Y-3.54
X1.682Y-3.566
X1.682Y-3.592
X1.682Y-3.618
X1.682Y-3.644
X1.682Y-3.67
X1.682Y-3.696
X1.682Y-3.722
X1.686Y-3.378
X1.689Y-3.352
X1.69Y-2.886
X1.695Y-2.95
X1.695Y-2.976
X1.695Y-3.002
X1.695Y-3.028
X1.708Y-3.808
X1.712Y-3.43
X1.713Y-2.673
X1.716Y-1.218
X1.716Y-1.296
X1.716Y-1.322
X1.716Y-1.348
X1.716Y-1.428
X1.716Y-1.454
X1.716Y-1.48
X1.716Y-1.506
X1.716Y-2.884
X1.734Y-1.931
X1.734Y-1.989
X1.736Y-1.87
X1.742Y-1.218
X1.742Y-1.296
X1.742Y-1.322
X1.742Y-1.348
X1.742Y-1.428
X1.742Y-1.454
X1.742Y-1.48
X1.742Y-1.506
X1.742Y-2.884
X1.744Y-3.82
X1.749Y-3.535
X1.749Y-3.561
X1.749Y-3.587
X1.749Y-3.613
X1.749Y-3.639
X1.749Y-3.665
X1.749Y-3.691
X1.749Y-3.717
X1.749Y-3.743
X1.749Y-3.769
X1.749Y-3.769
X1.75Y-2.912
X1.75Y-3.795
X1.751Y-2.12
X1.753Y-1.954
X1.76Y-3.84
X1.76Y-3.84
X1.76Y-3.866
X1.76Y-3.892
X1.76Y-3.918
X1.76Y-3.944
X1.763Y-2.005
X1.763Y-3.97
X1.768Y-2.885
X1.771Y-2.729
X1.771Y-2.755
X1.771Y-2.781
X1.771Y-2.807
X1.771Y-3.43
X1.775Y-3.535
X1.775Y-3.561
X1.775Y-3.587
X1.775Y-3.613
X1.775Y-3.639
X1.775Y-3.665
X1.775Y-3.691
X1.775Y-3.717
X1.775Y-3.756
X1.775Y-3.782
X1.775Y-3.808
X1.7814Y-3.9884
X1.788Y-2.95
X1.788Y-2.976
X1.788Y-3.002
X1.788Y-3.395
X1.792Y-3.291
X1.7969Y-3.028
X1.799Y-3.419
X1.801Y-3.73
X1.801Y-3.756
X1.801Y-3.782
X1.801Y-3.808
X1.801Y-3.834
X1.801Y-3.86
X1.801Y-3.886
X1.801Y-4.011
X1.801Y-4.037
X1.801Y-4.063
X1.801Y-4.089
X1.801Y-4.115
X1.801Y-4.141
X1.801Y-4.167
X1.822Y-3.277
X1.827Y-3.73
X1.827Y-3.756
X1.827Y-3.782
X1.827Y-3.808
X1.827Y-3.834
X1.827Y-3.86
X1.827Y-3.886
X1.827Y-4.011
X1.827Y-4.037
X1.827Y-4.063
X1.827Y-4.089
X1.827Y-4.115
X1.827Y-4.141
X1.827Y-4.167
X1.828Y-3.051
X1.8464Y-3.0694
X1.848Y-3.235
X1.848Y-3.277
X1.848Y-3.277
X1.848Y-3.303
X1.848Y-3.329
X1.85Y-2.951
X1.853Y-3.756
X1.853Y-3.782
X1.853Y-3.834
X1.853Y-3.86
X1.853Y-4.037
X1.853Y-4.063
X1.853Y-4.089
X1.853Y-4.115
X1.853Y-4.141
X1.853Y-4.167
X1.853Y-3.73
X1.853Y-3.808
X1.853Y-3.886
X1.853Y-4.011
X1.859Y-2.577
X1.8648Y-3.0878
X1.865Y-3.14
X1.8695Y-2.2475
X1.871Y-1.907
X1.874Y-3.235
X1.874Y-3.277
X1.879Y-4.011
X1.879Y-4.037
X1.879Y-4.063
X1.879Y-4.089
X1.879Y-4.115
X1.879Y-4.141
X1.879Y-4.167
X1.8875Y-2.0875
X1.8878Y-2.2292
X1.8894Y-1.8886
X1.895Y-3.027
X1.9Y-3.235
X1.9Y-3.277
X1.905Y-4.011
X1.905Y-4.037
X1.905Y-4.063
X1.905Y-4.089
X1.905Y-4.115
X1.905Y-4.141
X1.905Y-4.167
X1.9062Y-2.2108
X1.908Y-2.269
X1.908Y-2.295
X1.908Y-2.321
X1.908Y-2.347
X1.908Y-2.373
X1.908Y-2.399
X1.92Y-2.786
X1.921Y-2.847
X1.9246Y-2.1924
X1.926Y-3.235
X1.926Y-3.277
X1.9356Y-1.8424
X1.943Y-2.174
X1.95Y-2.233
X1.95Y-2.259
X1.95Y-2.285
X1.95Y-2.311
X1.95Y-2.337
X1.95Y-2.363
X1.95Y-2.389
X1.95Y-2.499
X1.95Y-2.525
X1.95Y-2.551
X1.95Y-2.577
X1.95Y-2.603
X1.9614Y-2.1556
X1.978Y-3.235
X1.978Y-3.277
X1.9798Y-2.1372
X1.9956Y-1.7824
X1.998Y-2.084
X1.998Y-2.118
X2.003Y-1.882
X2.004Y-3.235
X2.004Y-3.277
X2.014Y-1.764
X2.019Y-4.011
X2.019Y-4.037
X2.019Y-4.063
X2.019Y-4.089
X2.019Y-4.115
X2.019Y-4.141
X2.019Y-4.167
X2.021Y-2.248
X2.025Y-2.017
X2.027Y-2.784
X2.03Y-3.235
X2.03Y-3.277
X2.034Y-2.068
X2.04Y-1.866
X2.045Y-4.011
X2.045Y-4.037
X2.045Y-4.063
X2.045Y-4.089
X2.045Y-4.115
X2.045Y-4.141
X2.045Y-4.167
X2.053Y-2.784
X2.053Y-2.043
X2.054Y-2.222
X2.056Y-3.235
X2.056Y-3.277
X2.065Y-1.805
X2.065Y-1.911
X2.0655Y-3.5105
X2.07Y-2.196
X2.071Y-4.011
X2.071Y-4.037
X2.071Y-4.063
X2.071Y-4.089
X2.071Y-4.115
X2.071Y-4.141
X2.071Y-4.167
X2.078Y-1.76
X2.079Y-2.784
X2.0838Y-3.5288
X2.088Y-2.134
X2.097Y-4.011
X2.097Y-4.037
X2.097Y-4.063
X2.097Y-4.089
X2.097Y-4.115
X2.097Y-4.141
X2.097Y-4.167
X2.1022Y-3.5472
X2.105Y-2.169
X2.107Y-1.805
X2.109Y-2.544
X2.1206Y-3.5656
X2.122Y-2.14
X2.123Y-4.011
X2.123Y-4.037
X2.123Y-4.063
X2.123Y-4.089
X2.123Y-4.115
X2.123Y-4.141
X2.123Y-4.167
X2.124Y-1.549
X2.133Y-2.522
X2.139Y-3.584
X2.14Y-1.962
X2.1414Y-3.9906
X2.144Y-1.843
X2.15Y-3.277
X2.1508Y-3.4618
X2.152Y-1.893
X2.157Y-2.784
X2.157Y-3.235
X2.1574Y-3.6024
X2.158Y-1.62
X2.1598Y-3.9722
X2.168Y-1.76
X2.1692Y-3.4802
X2.172Y-1.823
X2.173Y-3.923
X2.173Y-3.949
X2.175Y-1.87
X2.1758Y-3.6208
X2.176Y-3.277
X2.183Y-3.235
X2.1876Y-3.4986
X2.191Y-1.227
X2.191Y-1.295
X2.191Y-1.847
X2.1914Y-3.8996
X2.193Y-2.678
X2.201Y-1.572
X2.202Y-3.277
X2.2049Y-3.849
X2.206Y-3.517
X2.209Y-2.784
X2.209Y-3.235
X2.2098Y-3.8812
X2.213Y-2.81
X2.216Y-1.531
X2.228Y-3.622
X2.2283Y-3.2793
X2.236Y-3.235
X2.237Y-2.673
X2.238Y-2.825
X2.2467Y-3.2977
X2.2488Y-1.8342
X2.254Y-3.622
X2.257Y-2.085
X2.257Y-2.243
X2.257Y-3.069
X2.2573Y-3.2503
X2.261Y-1.86
X2.264Y-3.943
X2.265Y-1.813
X2.2651Y-3.3161
X2.266Y-2.824
X2.267Y-3.783
X2.2692Y-3.9732
X2.2757Y-3.2687
X2.276Y-2.69
X2.2835Y-3.3345
X2.285Y-3.921
X2.2854Y-3.7646
X2.2876Y-3.9916
X2.289Y-1.838
X2.292Y-2.825
X2.2941Y-3.2871
X2.3018Y-3.3528
X2.3038Y-3.7462
X2.305Y-4.011
X2.305Y-4.037
X2.305Y-4.063
X2.305Y-4.089
X2.305Y-4.115
X2.305Y-4.141
X2.305Y-4.167
X2.3093Y-1.8118
X2.311Y-1.518
X2.312Y-2.048
X2.3125Y-3.3055
X2.314Y-2.684
X2.317Y-1.606
X2.318Y-2.825
X2.3202Y-3.3712
X2.3222Y-3.7278
X2.3308Y-3.3238
X2.331Y-4.011
X2.331Y-4.037
X2.331Y-4.063
X2.331Y-4.089
X2.331Y-4.115
X2.331Y-4.141
X2.331Y-4.167
X2.332Y-3.849
X2.335Y-2.76
X2.3386Y-3.3896
X2.343Y-1.673
X2.343Y-2.069
X2.344Y-2.825
X2.346Y-1.602
X2.348Y-2.791
X2.3492Y-3.3422
X2.35Y-3.434
X2.3504Y-3.8306
X2.351Y-3.736
X2.357Y-4.011
X2.357Y-4.037
X2.357Y-4.063
X2.357Y-4.089
X2.357Y-4.115
X2.357Y-4.141
X2.357Y-4.167
X2.357Y-3.408
X2.3616Y-2.0452
X2.363Y-2.091
X2.364Y-1.736
X2.364Y-3.456
X2.365Y-1.695
X2.3676Y-3.3606
X2.3688Y-3.8122
X2.3694Y-3.7176
X2.3702Y-2.8108
X2.376Y-1.662
X2.381Y-3.765
X2.382Y-1.775
X2.383Y-3.474
X2.383Y-4.011
X2.383Y-4.037
X2.383Y-4.063
X2.383Y-4.089
X2.383Y-4.115
X2.383Y-4.141
X2.383Y-4.167
X2.384Y-2.011
X2.385Y-2.786
X2.386Y-3.379
X2.3872Y-3.7938
X2.399Y-3.746
X2.401Y-1.715
X2.402Y-1.622
X2.403Y-2.766
X2.407Y-1.68
X2.409Y-4.011
X2.409Y-4.037
X2.409Y-4.063
X2.409Y-4.089
X2.409Y-4.115
X2.409Y-4.141
X2.409Y-4.167
X2.4212Y-3.3772
X2.426Y-1.778
X2.427Y-3.698
X2.427Y-3.725
X2.428Y-2.077
X2.43Y-1.572
X2.441Y-3.395
X2.442Y-2.685
X2.446Y-1.621
X2.447Y-2.055
X2.4546Y-3.7476
X2.455Y-1.592
X2.46Y-3.464
X2.462Y-3.413
X2.4648Y-3.7948
X2.468Y-2.072
X2.4705Y-1.6874
X2.472Y-3.439
X2.473Y-3.766
X2.482Y-1.661
X2.4832Y-3.8132
X2.4836Y-3.7186
X2.5016Y-3.8316
X2.502Y-3.737
X2.504Y-2.88
X2.504Y-2.917
X2.504Y-2.954
X2.512Y-2.136
X2.512Y-2.199
X2.512Y-4.01
X2.512Y-4.036
X2.512Y-4.062
X2.512Y-4.088
X2.512Y-4.114
X2.512Y-4.14
X2.512Y-4.166
X2.52Y-3.85
X2.5308Y-3.7298
X2.537Y-1.711
X2.538Y-4.01
X2.538Y-4.036
X2.538Y-4.062
X2.538Y-4.088
X2.538Y-4.114
X2.538Y-4.14
X2.538Y-4.166
X2.5492Y-3.7482
X2.554Y-1.227
X2.554Y-1.295
X2.564Y-4.01
X2.564Y-4.036
X2.564Y-4.062
X2.564Y-4.088
X2.564Y-4.114
X2.564Y-4.14
X2.564Y-4.166
X2.5676Y-3.7666
X2.57Y-2.08
X2.586Y-3.785
X2.588Y-2.055
X2.59Y-4.01
X2.59Y-4.036
X2.59Y-4.062
X2.59Y-4.088
X2.59Y-4.114
X2.59Y-4.14
X2.59Y-4.166
X2.596Y-3.073
X2.606Y-2.076
X2.606Y-3.893
X2.616Y-4.01
X2.616Y-4.036
X2.616Y-4.062
X2.616Y-4.088
X2.616Y-4.114
X2.616Y-4.14
X2.616Y-4.166
X2.6242Y-3.9112
X2.6292Y-3.5548
X2.6344Y-3.9896
X2.6426Y-3.9296
X2.6476Y-3.5364
X2.65Y-3.821
X2.661Y-3.948
X2.666Y-3.518
X2.6684Y-3.8394
X2.6844Y-3.4996
X2.6868Y-3.8578
X2.6982Y-3.6198
X2.7028Y-3.4812
X2.7052Y-3.8762
X2.712Y-1.549
X2.7166Y-3.6014
X2.7212Y-3.4628
X2.7235Y-3.8945
X2.725Y-1.573
X2.735Y-3.583
X2.74Y-2.678
X2.7419Y-3.9129
X2.742Y-2.25
X2.748Y-3.95
X2.7534Y-3.5646
X2.7612Y-3.9722
X2.766Y-2.678
X2.7718Y-3.5462
X2.7796Y-3.9906
X2.7902Y-3.5278
X2.793Y-2.678
X2.798Y-4.01
X2.798Y-4.036
X2.798Y-4.062
X2.798Y-4.088
X2.798Y-4.114
X2.798Y-4.14
X2.798Y-4.166
X2.804Y-2.147
X2.805Y-1.761
X2.819Y-2.678
X2.824Y-4.01
X2.824Y-4.036
X2.824Y-4.062
X2.824Y-4.088
X2.824Y-4.114
X2.824Y-4.14
X2.824Y-4.166
X2.831Y-1.761
X2.831Y-1.787
X2.836Y-1.598
X2.845Y-1.955
X2.85Y-4.01
X2.85Y-4.036
X2.85Y-4.062
X2.85Y-4.088
X2.85Y-4.114
X2.85Y-4.14
X2.85Y-4.166
X2.861Y-1.927
X2.871Y-2.513
X2.876Y-4.01
X2.876Y-4.036
X2.876Y-4.062
X2.876Y-4.088
X2.876Y-4.114
X2.876Y-4.14
X2.876Y-4.166
X2.887Y-1.927
X2.902Y-4.01
X2.902Y-4.036
X2.902Y-4.062
X2.902Y-4.088
X2.902Y-4.114
X2.902Y-4.14
X2.902Y-4.166
X2.913Y-1.927
X2.967Y-1.651
T2
X1.566Y-2.764
X1.577Y-2.814
X1.593Y-3.325
X1.625Y-1.911
X1.625Y-2.03
X1.625Y-2.089
X1.625Y-2.148
X1.625Y-2.207
X1.635Y-2.785
X1.673Y-3.324
X1.712Y-3.069
X1.805Y-3.106
X1.814Y-3.379
X1.837Y-3.11
X1.84Y-1.992
X1.84Y-2.12
X1.853Y-1.763
X1.973Y-2.946
X1.99Y-2.97
X2.041Y-1.991
X2.0953Y-2.8218
X2.1293Y-2.8218
X2.1463Y-2.9038
X2.175Y-3.081
X2.18Y-1.681
X2.182Y-1.713
X2.185Y-1.914
X2.202Y-1.793
X2.2043Y-2.9038
X2.218Y-1.816
X2.2315Y-1.8925
X2.2323Y-2.9038
X2.235Y-2.639
X2.2523Y-2.9998
X2.2626Y-1.9929
X2.264Y-1.9108
X2.269Y-1.435
X2.2693Y-2.9708
X2.2703Y-2.9418
X2.2895Y-1.8925
X2.29Y-1.71
X2.291Y-1.627
X2.2923Y-2.0282
X2.3043Y-3.0438
X2.3072Y-1.8691
X2.3086Y-1.92
X2.314Y-3.678
X2.3333Y-1.7949
X2.336Y-1.7327
X2.3425Y-1.8875
X2.3446Y-1.85
X2.345Y-1.927
X2.349Y-3.069
X2.3554Y-2.653
X2.356Y-1.96
X2.3673Y-1.6238
X2.3673Y-1.8232
X2.37Y-1.58
X2.38Y-2.115
X2.3817Y-3.426
X2.3892Y-1.8012
X2.3892Y-1.8437
X2.3977Y-2.0431
X2.401Y-1.652
X2.403Y-2.184
X2.403Y-3.492
X2.405Y-3.4039
X2.4103Y-3.0438
X2.414Y-1.825
X2.414Y-2.653
X2.426Y-1.9257
X2.426Y-1.737
X2.4564Y-1.9108
X2.458Y-1.772
X2.467Y-3.491
X2.4783Y-1.7998
X2.4783Y-1.8889
X2.493Y-1.984
X2.493Y-2.799
X2.509Y-1.821
X2.511Y-1.867
X2.531Y-1.8444
X2.539Y-2.635
X2.558Y-1.733
X2.5589Y-1.912
X2.6119Y-1.8444
X2.663Y-2.697
X2.6823Y-2.8751
X2.699Y-2.697
X2.711Y-1.8663
X2.7233Y-2.8341
X2.7431Y-2.8143
X2.7969Y-2.8143
X2.8167Y-2.8341
X2.824Y-2.869
X2.824Y-2.977
X2.881Y-2.834
X2.953Y-2.762
T3
X1.6713Y-3.7839
X1.6713Y-3.8331
X1.7205Y-3.7839
X1.7205Y-3.8331
X2.1358Y-2.9605
X2.1358Y-2.9998
X2.1358Y-3.0392
X2.1752Y-2.9605
X2.1752Y-2.9998
X2.1752Y-3.0392
X2.2145Y-2.9605
X2.2145Y-2.9998
X2.2145Y-3.0392
X2.2845Y-2.4221
X2.2845Y-2.4723
X2.2845Y-2.5225
X2.2845Y-2.5727
X2.2845Y-2.6229
X2.3347Y-2.4221
X2.3347Y-2.4723
X2.3347Y-2.5225
X2.3347Y-2.5727
X2.3347Y-2.6229
X2.3849Y-2.4221
X2.3849Y-2.4723
X2.3849Y-2.5225
X2.3849Y-2.5727
X2.3849Y-2.6229
X2.3976Y-3.5568
X2.3976Y-3.5962
X2.3976Y-3.6355
X2.4351Y-2.4221
X2.4351Y-2.4723
X2.4351Y-2.5225
X2.4351Y-2.5727
X2.4351Y-2.6229
X2.4369Y-3.5568
X2.4369Y-3.5962
X2.4369Y-3.6355
X2.4763Y-3.5568
X2.4763Y-3.5962
X2.4763Y-3.6355
X2.4853Y-2.4221
X2.4853Y-2.4723
X2.4853Y-2.5225
X2.4853Y-2.5727
X2.4853Y-2.6229
X2.7143Y-2.9232
X2.7422Y-2.8954
X2.7422Y-2.951
X2.77Y-2.8675
X2.77Y-2.9232
X2.77Y-2.9789
X2.7978Y-2.8954
X2.7978Y-2.951
X2.8257Y-2.9232
T4
X1.382Y-3.715
X1.419Y-3.799
X1.429Y-1.39
X1.495Y-3.818
X1.516Y-2.815
X1.531Y-3.432
X1.55Y-1.547
X1.571Y-3.873
X1.5722Y-3.9108
X1.577Y-2.668
X1.616Y-2.632
X1.616Y-2.668
X1.629Y-1.263
X1.645Y-3.389
X1.6914Y-3.4824
X1.716Y-2.914
X1.738Y-2.711
X1.7414Y-3.4824
X1.7914Y-3.4824
X1.798Y-2.514
X1.803Y-2.627
X1.816Y-3.312
X1.837Y-3.41
X1.855Y-2.508
X1.857Y-1.799
X1.868Y-1.843
X1.869Y-3.18
X1.8935Y-1.7515
X1.9033Y-1.8007
X1.924Y-1.693
X1.997Y-1.714
X2.051Y-1.683
X2.174Y-2.447
X2.207Y-1.428
X2.218Y-2.339
X2.227Y-2.552
X2.232Y-3.811
X2.236Y-2.291
X2.2451Y-3.4018
X2.2675Y-3.8467
X2.271Y-3.705
X2.303Y-3.882
X2.329Y-3.636
X2.3655Y-1.5125
X2.376Y-1.894
X2.432Y-3.294
X2.513Y-1.582
X2.513Y-3.461
X2.518Y-2.018
X2.539Y-3.635
X2.541Y-1.504
X2.545Y-2.999
X2.549Y-3.884
X2.553Y-3.561
X2.565Y-3.674
X2.567Y-2.942
X2.568Y-2.721
X2.569Y-2.291
X2.579Y-2.657
X2.582Y-3.038
X2.5844Y-3.849
X2.587Y-2.986
X2.601Y-2.412
X2.612Y-3.009
X2.617Y-1.672
X2.62Y-3.814
X2.623Y-3.47
X2.63Y-2.35
X2.631Y-1.911
X2.639Y-1.519
X2.642Y-2.146
X2.644Y-3.129
X2.659Y-3.705
X2.699Y-1.459
X2.714Y-1.726
X2.736Y-1.973
X2.771Y-1.914
X2.874Y-2.62
X2.941Y-1.699
X2.941Y-1.767
X2.958Y-2.015
X2.962Y-1.939
X3.019Y-1.88
X3.02Y-1.699
X3.02Y-1.767
X3.073Y-1.768
T5
X1.6033Y-3.1683
X1.6033Y-3.2257
X1.6533Y-3.1183
X1.6533Y-3.1683
X1.6533Y-3.2257
X1.6533Y-3.2757
X1.7096Y-3.2757
X1.7107Y-3.1183
X1.7107Y-3.1683
X1.7107Y-3.2257
X1.7607Y-3.1683
X1.7607Y-3.2257
T6
X1.8Y-2.329
X1.946Y-2.723
X1.952Y-1.813
X2.253Y-3.482
X2.289Y-3.527
X2.55Y-2.56
X2.5806Y-3.5044
X2.706Y-1.618
X2.8197Y-2.3903
X2.906Y-2.191
X2.907Y-2.443
X3.068Y-1.591
T7
X1.573Y-3.9765
X1.848Y-3.9765
X2.0765Y-3.9765
X2.3515Y-3.9765
X2.5695Y-3.9755
X2.8445Y-3.9755
T8
X3.012Y-2.124
X3.012Y-2.224
X3.012Y-2.324
T9
X1.4154Y-1.7639
X1.4154Y-2.3348
T10
X1.413Y-4.077
X1.435Y-2.568
X2.686Y-1.287
X3.023Y-4.077
T11
X1.6501Y-1.7639
X1.6501Y-2.3348
T0
M30
