%TF.GenerationSoftware,KiCad,Pcbnew,(6.0.4)*%
%TF.CreationDate,2023-05-19T00:46:40+09:00*%
%TF.ProjectId,RFB,5246422e-6b69-4636-9164-5f7063625858,rev?*%
%TF.SameCoordinates,Original*%
%TF.FileFunction,Legend,Top*%
%TF.FilePolarity,Positive*%
%FSLAX46Y46*%
G04 Gerber Fmt 4.6, Leading zero omitted, Abs format (unit mm)*
G04 Created by KiCad (PCBNEW (6.0.4)) date 2023-05-19 00:46:40*
%MOMM*%
%LPD*%
G01*
G04 APERTURE LIST*
%ADD10C,0.160000*%
%ADD11C,0.120000*%
%ADD12C,0.100000*%
G04 APERTURE END LIST*
D10*
X79055980Y-92071247D02*
X79770266Y-92071247D01*
X79913123Y-92118866D01*
X80008361Y-92214104D01*
X80055980Y-92356961D01*
X80055980Y-92452200D01*
X80055980Y-91118866D02*
X80055980Y-91595057D01*
X79055980Y-91595057D01*
X79960742Y-90214104D02*
X80008361Y-90261723D01*
X80055980Y-90404580D01*
X80055980Y-90499819D01*
X80008361Y-90642676D01*
X79913123Y-90737914D01*
X79817885Y-90785533D01*
X79627409Y-90833152D01*
X79484552Y-90833152D01*
X79294076Y-90785533D01*
X79198838Y-90737914D01*
X79103600Y-90642676D01*
X79055980Y-90499819D01*
X79055980Y-90404580D01*
X79103600Y-90261723D01*
X79151219Y-90214104D01*
X79055980Y-89499819D02*
X79770266Y-89499819D01*
X79913123Y-89547438D01*
X80008361Y-89642676D01*
X80055980Y-89785533D01*
X80055980Y-89880771D01*
X80055980Y-88547438D02*
X80055980Y-89023628D01*
X79055980Y-89023628D01*
X79960742Y-87642676D02*
X80008361Y-87690295D01*
X80055980Y-87833152D01*
X80055980Y-87928390D01*
X80008361Y-88071247D01*
X79913123Y-88166485D01*
X79817885Y-88214104D01*
X79627409Y-88261723D01*
X79484552Y-88261723D01*
X79294076Y-88214104D01*
X79198838Y-88166485D01*
X79103600Y-88071247D01*
X79055980Y-87928390D01*
X79055980Y-87833152D01*
X79103600Y-87690295D01*
X79151219Y-87642676D01*
X79055980Y-86928390D02*
X79770266Y-86928390D01*
X79913123Y-86976009D01*
X80008361Y-87071247D01*
X80055980Y-87214104D01*
X80055980Y-87309342D01*
X80055980Y-85976009D02*
X80055980Y-86452200D01*
X79055980Y-86452200D01*
X79960742Y-85071247D02*
X80008361Y-85118866D01*
X80055980Y-85261723D01*
X80055980Y-85356961D01*
X80008361Y-85499819D01*
X79913123Y-85595057D01*
X79817885Y-85642676D01*
X79627409Y-85690295D01*
X79484552Y-85690295D01*
X79294076Y-85642676D01*
X79198838Y-85595057D01*
X79103600Y-85499819D01*
X79055980Y-85356961D01*
X79055980Y-85261723D01*
X79103600Y-85118866D01*
X79151219Y-85071247D01*
X79055980Y-84356961D02*
X79770266Y-84356961D01*
X79913123Y-84404580D01*
X80008361Y-84499819D01*
X80055980Y-84642676D01*
X80055980Y-84737914D01*
X80055980Y-83404580D02*
X80055980Y-83880771D01*
X79055980Y-83880771D01*
X79960742Y-82499819D02*
X80008361Y-82547438D01*
X80055980Y-82690295D01*
X80055980Y-82785533D01*
X80008361Y-82928390D01*
X79913123Y-83023628D01*
X79817885Y-83071247D01*
X79627409Y-83118866D01*
X79484552Y-83118866D01*
X79294076Y-83071247D01*
X79198838Y-83023628D01*
X79103600Y-82928390D01*
X79055980Y-82785533D01*
X79055980Y-82690295D01*
X79103600Y-82547438D01*
X79151219Y-82499819D01*
X34241504Y-92743400D02*
X34146266Y-92695780D01*
X34003409Y-92695780D01*
X33860552Y-92743400D01*
X33765314Y-92838638D01*
X33717695Y-92933876D01*
X33670076Y-93124352D01*
X33670076Y-93267209D01*
X33717695Y-93457685D01*
X33765314Y-93552923D01*
X33860552Y-93648161D01*
X34003409Y-93695780D01*
X34098647Y-93695780D01*
X34241504Y-93648161D01*
X34289123Y-93600542D01*
X34289123Y-93267209D01*
X34098647Y-93267209D01*
X54479866Y-60564780D02*
X54813200Y-61564780D01*
X55146533Y-60564780D01*
X53805104Y-60612400D02*
X53709866Y-60564780D01*
X53567009Y-60564780D01*
X53424152Y-60612400D01*
X53328914Y-60707638D01*
X53281295Y-60802876D01*
X53233676Y-60993352D01*
X53233676Y-61136209D01*
X53281295Y-61326685D01*
X53328914Y-61421923D01*
X53424152Y-61517161D01*
X53567009Y-61564780D01*
X53662247Y-61564780D01*
X53805104Y-61517161D01*
X53852723Y-61469542D01*
X53852723Y-61136209D01*
X53662247Y-61136209D01*
X51987485Y-61056780D02*
X51987485Y-60056780D01*
X51987485Y-60532971D02*
X52558914Y-60532971D01*
X52558914Y-61056780D02*
X52558914Y-60056780D01*
X76397952Y-62596780D02*
X77017000Y-62596780D01*
X76683666Y-62977733D01*
X76826523Y-62977733D01*
X76921761Y-63025352D01*
X76969380Y-63072971D01*
X77017000Y-63168209D01*
X77017000Y-63406304D01*
X76969380Y-63501542D01*
X76921761Y-63549161D01*
X76826523Y-63596780D01*
X76540809Y-63596780D01*
X76445571Y-63549161D01*
X76397952Y-63501542D01*
X77302714Y-62596780D02*
X77636047Y-63596780D01*
X77969380Y-62596780D01*
X78731285Y-62596780D02*
X78540809Y-62596780D01*
X78445571Y-62644400D01*
X78397952Y-62692019D01*
X78302714Y-62834876D01*
X78255095Y-63025352D01*
X78255095Y-63406304D01*
X78302714Y-63501542D01*
X78350333Y-63549161D01*
X78445571Y-63596780D01*
X78636047Y-63596780D01*
X78731285Y-63549161D01*
X78778904Y-63501542D01*
X78826523Y-63406304D01*
X78826523Y-63168209D01*
X78778904Y-63072971D01*
X78731285Y-63025352D01*
X78636047Y-62977733D01*
X78445571Y-62977733D01*
X78350333Y-63025352D01*
X78302714Y-63072971D01*
X78255095Y-63168209D01*
X78778904Y-60079000D02*
X78683666Y-60031380D01*
X78540809Y-60031380D01*
X78397952Y-60079000D01*
X78302714Y-60174238D01*
X78255095Y-60269476D01*
X78207476Y-60459952D01*
X78207476Y-60602809D01*
X78255095Y-60793285D01*
X78302714Y-60888523D01*
X78397952Y-60983761D01*
X78540809Y-61031380D01*
X78636047Y-61031380D01*
X78778904Y-60983761D01*
X78826523Y-60936142D01*
X78826523Y-60602809D01*
X78636047Y-60602809D01*
X36518057Y-87590380D02*
X37137104Y-87590380D01*
X36803771Y-87971333D01*
X36946628Y-87971333D01*
X37041866Y-88018952D01*
X37089485Y-88066571D01*
X37137104Y-88161809D01*
X37137104Y-88399904D01*
X37089485Y-88495142D01*
X37041866Y-88542761D01*
X36946628Y-88590380D01*
X36660914Y-88590380D01*
X36565676Y-88542761D01*
X36518057Y-88495142D01*
X37422819Y-87590380D02*
X37756152Y-88590380D01*
X38089485Y-87590380D01*
X38327580Y-87590380D02*
X38946628Y-87590380D01*
X38613295Y-87971333D01*
X38756152Y-87971333D01*
X38851390Y-88018952D01*
X38899009Y-88066571D01*
X38946628Y-88161809D01*
X38946628Y-88399904D01*
X38899009Y-88495142D01*
X38851390Y-88542761D01*
X38756152Y-88590380D01*
X38470438Y-88590380D01*
X38375200Y-88542761D01*
X38327580Y-88495142D01*
X37714180Y-85536019D02*
X37237990Y-85869352D01*
X37714180Y-86107447D02*
X36714180Y-86107447D01*
X36714180Y-85726495D01*
X36761800Y-85631257D01*
X36809419Y-85583638D01*
X36904657Y-85536019D01*
X37047514Y-85536019D01*
X37142752Y-85583638D01*
X37190371Y-85631257D01*
X37237990Y-85726495D01*
X37237990Y-86107447D01*
X37666561Y-85155066D02*
X37714180Y-85012209D01*
X37714180Y-84774114D01*
X37666561Y-84678876D01*
X37618942Y-84631257D01*
X37523704Y-84583638D01*
X37428466Y-84583638D01*
X37333228Y-84631257D01*
X37285609Y-84678876D01*
X37237990Y-84774114D01*
X37190371Y-84964590D01*
X37142752Y-85059828D01*
X37095133Y-85107447D01*
X36999895Y-85155066D01*
X36904657Y-85155066D01*
X36809419Y-85107447D01*
X36761800Y-85059828D01*
X36714180Y-84964590D01*
X36714180Y-84726495D01*
X36761800Y-84583638D01*
X36714180Y-84297923D02*
X36714180Y-83726495D01*
X37714180Y-84012209D02*
X36714180Y-84012209D01*
X77017000Y-58491380D02*
X76445571Y-58491380D01*
X76731285Y-58491380D02*
X76731285Y-57491380D01*
X76636047Y-57634238D01*
X76540809Y-57729476D01*
X76445571Y-57777095D01*
X77397952Y-57586619D02*
X77445571Y-57539000D01*
X77540809Y-57491380D01*
X77778904Y-57491380D01*
X77874142Y-57539000D01*
X77921761Y-57586619D01*
X77969380Y-57681857D01*
X77969380Y-57777095D01*
X77921761Y-57919952D01*
X77350333Y-58491380D01*
X77969380Y-58491380D01*
X78255095Y-57491380D02*
X78588428Y-58491380D01*
X78921761Y-57491380D01*
X51287323Y-61056780D02*
X50811133Y-61056780D01*
X50811133Y-60056780D01*
D11*
%TO.C,U11*%
X49770602Y-66790087D02*
X50088800Y-66471889D01*
X55194111Y-71577200D02*
X54875913Y-71259002D01*
X45301687Y-71895398D02*
X44389519Y-72807566D01*
X50088800Y-66471889D02*
X50406998Y-66790087D01*
X54875913Y-71895398D02*
X55194111Y-71577200D01*
X44983489Y-71577200D02*
X45301687Y-71895398D01*
X50406998Y-76364313D02*
X50088800Y-76682511D01*
X45301687Y-71259002D02*
X44983489Y-71577200D01*
X50088800Y-76682511D02*
X49770602Y-76364313D01*
D12*
%TO.C,U1*%
X33667400Y-79158800D02*
X33667400Y-79158800D01*
X33767400Y-79158800D02*
X33767400Y-79158800D01*
X33667400Y-79158800D02*
G75*
G03*
X33767400Y-79158800I50000J0D01*
G01*
X33767400Y-79158800D02*
G75*
G03*
X33667400Y-79158800I-50000J0D01*
G01*
D11*
%TO.C,R9*%
X43689241Y-74649600D02*
X43381959Y-74649600D01*
X43689241Y-73889600D02*
X43381959Y-73889600D01*
%TO.C,C74*%
X61572479Y-93379104D02*
X61724982Y-93226601D01*
X62081596Y-93888221D02*
X62234099Y-93735718D01*
%TO.C,C31*%
X44059282Y-79307401D02*
X43906779Y-79459904D01*
X44568399Y-79816518D02*
X44415896Y-79969021D01*
%TO.C,J1*%
X72203500Y-101138400D02*
X72453500Y-101638400D01*
X72453500Y-101638400D02*
X72703500Y-101138400D01*
X72703500Y-101138400D02*
X72203500Y-101138400D01*
%TO.C,R31*%
X72886300Y-85421441D02*
X72886300Y-85114159D01*
X73646300Y-85421441D02*
X73646300Y-85114159D01*
%TO.C,R21*%
X62563859Y-81297200D02*
X62871141Y-81297200D01*
X62563859Y-82057200D02*
X62871141Y-82057200D01*
%TO.C,C55*%
X63832700Y-77223364D02*
X63832700Y-77439036D01*
X64552700Y-77223364D02*
X64552700Y-77439036D01*
%TO.C,R46*%
X39843917Y-96126316D02*
X39626636Y-95909035D01*
X39306516Y-96663717D02*
X39089235Y-96446436D01*
%TO.C,C65*%
X68372936Y-88548800D02*
X68157264Y-88548800D01*
X68372936Y-87828800D02*
X68157264Y-87828800D01*
%TO.C,C53*%
X56138400Y-81146764D02*
X56138400Y-81362436D01*
X55418400Y-81146764D02*
X55418400Y-81362436D01*
%TO.C,J2*%
X60181300Y-101138400D02*
X59681300Y-101138400D01*
X59681300Y-101138400D02*
X59931300Y-101638400D01*
X59931300Y-101638400D02*
X60181300Y-101138400D01*
%TO.C,C12*%
X72014700Y-64939564D02*
X72014700Y-65155236D01*
X72734700Y-64939564D02*
X72734700Y-65155236D01*
%TO.C,U10*%
X38558504Y-96697242D02*
X36437183Y-94575921D01*
X35928066Y-97206359D02*
X34867406Y-96145698D01*
%TO.C,R6*%
X44654200Y-77519559D02*
X44654200Y-77826841D01*
X45414200Y-77519559D02*
X45414200Y-77826841D01*
%TO.C,C89*%
X38833299Y-98722240D02*
X39032110Y-98523429D01*
X38112050Y-98000991D02*
X38310861Y-97802180D01*
%TO.C,C35*%
X58695000Y-63392164D02*
X58695000Y-63607836D01*
X59415000Y-63392164D02*
X59415000Y-63607836D01*
%TO.C,C36*%
X58695000Y-65297164D02*
X58695000Y-65512836D01*
X59415000Y-65297164D02*
X59415000Y-65512836D01*
%TO.C,C61*%
X62450683Y-95356656D02*
X62298180Y-95509159D01*
X62959800Y-95865773D02*
X62807297Y-96018276D01*
%TO.C,C72*%
X60862800Y-88411164D02*
X60862800Y-88626836D01*
X60142800Y-88411164D02*
X60142800Y-88626836D01*
%TO.C,R71*%
X72754700Y-67129441D02*
X72754700Y-66822159D01*
X71994700Y-67129441D02*
X71994700Y-66822159D01*
%TO.C,C79*%
X73626300Y-87283236D02*
X73626300Y-87067564D01*
X72906300Y-87283236D02*
X72906300Y-87067564D01*
%TO.C,J8*%
X36233400Y-69554400D02*
X39763400Y-69554400D01*
X36233400Y-69489400D02*
X36233400Y-69554400D01*
X36233400Y-63084400D02*
X36233400Y-63149400D01*
X36233400Y-63084400D02*
X39763400Y-63084400D01*
X34908400Y-63149400D02*
X36233400Y-63149400D01*
X39763400Y-69489400D02*
X39763400Y-69554400D01*
X39763400Y-63084400D02*
X39763400Y-63149400D01*
%TO.C,R13*%
X57239900Y-85443641D02*
X57239900Y-85136359D01*
X57999900Y-85443641D02*
X57999900Y-85136359D01*
%TO.C,R62*%
X39463940Y-77372059D02*
X39246659Y-77589340D01*
X40001341Y-77909460D02*
X39784060Y-78126741D01*
%TO.C,J9*%
X33620400Y-88138000D02*
X33620400Y-86808000D01*
X33620400Y-92008000D02*
X36280400Y-92008000D01*
X33620400Y-89408000D02*
X33620400Y-92008000D01*
X33620400Y-86808000D02*
X34950400Y-86808000D01*
X36280400Y-89408000D02*
X36280400Y-92008000D01*
X33620400Y-89408000D02*
X36280400Y-89408000D01*
%TO.C,C15*%
X42337400Y-83861964D02*
X42337400Y-84077636D01*
X43057400Y-83861964D02*
X43057400Y-84077636D01*
%TO.C,R11*%
X61625440Y-74088141D02*
X61408159Y-73870860D01*
X62162841Y-73550740D02*
X61945560Y-73333459D01*
%TO.C,U22*%
X46784289Y-85905311D02*
X47844949Y-86965972D01*
X44153851Y-86414428D02*
X46275172Y-88535749D01*
%TO.C,R17*%
X62540700Y-79339641D02*
X62540700Y-79032359D01*
X61780700Y-79339641D02*
X61780700Y-79032359D01*
%TO.C,R15*%
X57885359Y-83389200D02*
X58192641Y-83389200D01*
X57885359Y-84149200D02*
X58192641Y-84149200D01*
%TO.C,R25*%
X61923959Y-86790800D02*
X62231241Y-86790800D01*
X61923959Y-86030800D02*
X62231241Y-86030800D01*
%TO.C,C40*%
X63284710Y-72898507D02*
X63132207Y-73051010D01*
X62775593Y-72389390D02*
X62623090Y-72541893D01*
%TO.C,C82*%
X73994064Y-74502600D02*
X74209736Y-74502600D01*
X73994064Y-73782600D02*
X74209736Y-73782600D01*
%TO.C,U7*%
X56834700Y-77433600D02*
X57309700Y-77433600D01*
X61054700Y-81178600D02*
X61054700Y-81653600D01*
X56834700Y-77908600D02*
X56834700Y-77433600D01*
X61054700Y-77433600D02*
X60579700Y-77433600D01*
X61054700Y-77908600D02*
X61054700Y-77433600D01*
X61054700Y-81653600D02*
X60579700Y-81653600D01*
X56834700Y-81178600D02*
X56834700Y-81653600D01*
%TO.C,U12*%
X49899800Y-83371200D02*
X47999800Y-83371200D01*
X48499800Y-85691200D02*
X49899800Y-85691200D01*
%TO.C,C44*%
X68049800Y-67758736D02*
X68049800Y-67543064D01*
X68769800Y-67758736D02*
X68769800Y-67543064D01*
%TO.C,C143*%
X44688421Y-85208296D02*
X44535918Y-85360799D01*
X44179304Y-84699179D02*
X44026801Y-84851682D01*
%TO.C,C51*%
X56963900Y-87298236D02*
X56963900Y-87082564D01*
X56243900Y-87298236D02*
X56243900Y-87082564D01*
%TO.C,C57*%
X63536700Y-79102964D02*
X63536700Y-79318636D01*
X62816700Y-79102964D02*
X62816700Y-79318636D01*
%TO.C,C6*%
X41274390Y-73254107D02*
X41426893Y-73406610D01*
X41783507Y-72744990D02*
X41936010Y-72897493D01*
%TO.C,R20*%
X64494259Y-81041200D02*
X64801541Y-81041200D01*
X64494259Y-80281200D02*
X64801541Y-80281200D01*
%TO.C,C45*%
X68049800Y-63733064D02*
X68049800Y-63948736D01*
X68769800Y-63733064D02*
X68769800Y-63948736D01*
%TO.C,C101*%
X46328990Y-76378307D02*
X46481493Y-76530810D01*
X46838107Y-75869190D02*
X46990610Y-76021693D01*
%TO.C,U20*%
X68971189Y-77830157D02*
X70031849Y-78890818D01*
X66340751Y-78339274D02*
X68462072Y-80460595D01*
%TO.C,C86*%
X77348410Y-73691433D02*
X77500913Y-73843936D01*
X76839293Y-74200550D02*
X76991796Y-74353053D01*
%TO.C,C41*%
X63945110Y-73660507D02*
X63792607Y-73813010D01*
X63435993Y-73151390D02*
X63283490Y-73303893D01*
%TO.C,R70*%
X71738700Y-66168241D02*
X71738700Y-65860959D01*
X70978700Y-66168241D02*
X70978700Y-65860959D01*
%TO.C,C81*%
X73139807Y-81507990D02*
X73292310Y-81660493D01*
X72630690Y-82017107D02*
X72783193Y-82169610D01*
%TO.C,SW1*%
X36093400Y-81419800D02*
X36393400Y-81419800D01*
X33253400Y-85559800D02*
X33253400Y-81419800D01*
X33553400Y-85559800D02*
X33253400Y-85559800D01*
X36393400Y-81419800D02*
X36393400Y-85559800D01*
X36393400Y-85559800D02*
X36093400Y-85559800D01*
X33253400Y-81419800D02*
X33553400Y-81419800D01*
%TO.C,U9*%
X71405585Y-78801593D02*
X71069709Y-78465717D01*
X76701815Y-78129841D02*
X77037691Y-78465717D01*
X77037691Y-78465717D02*
X76701815Y-78801593D01*
X74389576Y-75817602D02*
X74053700Y-75481726D01*
X71069709Y-78465717D02*
X71405585Y-78129841D01*
X73717824Y-81113832D02*
X74053700Y-81449708D01*
X74053700Y-75481726D02*
X73717824Y-75817602D01*
%TO.C,C47*%
X60252899Y-91398918D02*
X60100396Y-91551421D01*
X59743782Y-90889801D02*
X59591279Y-91042304D01*
%TO.C,C85*%
X76018101Y-74812718D02*
X76170604Y-74965221D01*
X76527218Y-74303601D02*
X76679721Y-74456104D01*
%TO.C,R54*%
X48543059Y-88333540D02*
X48760340Y-88116259D01*
X49080460Y-88870941D02*
X49297741Y-88653660D01*
%TO.C,C2*%
X42538764Y-71962600D02*
X42754436Y-71962600D01*
X42538764Y-71242600D02*
X42754436Y-71242600D01*
%TO.C,R16*%
X55802559Y-82347800D02*
X56109841Y-82347800D01*
X55802559Y-83107800D02*
X56109841Y-83107800D01*
%TO.C,C52*%
X57931164Y-82367800D02*
X58146836Y-82367800D01*
X57931164Y-83087800D02*
X58146836Y-83087800D01*
%TO.C,C58*%
X64552700Y-79108164D02*
X64552700Y-79323836D01*
X63832700Y-79108164D02*
X63832700Y-79323836D01*
%TO.C,R39*%
X77165184Y-80382317D02*
X77382465Y-80165036D01*
X76627783Y-79844916D02*
X76845064Y-79627635D01*
%TO.C,C16*%
X43133600Y-79124636D02*
X43133600Y-78908964D01*
X42413600Y-79124636D02*
X42413600Y-78908964D01*
%TO.C,R42*%
X57475900Y-75704959D02*
X57475900Y-76012241D01*
X58235900Y-75704959D02*
X58235900Y-76012241D01*
%TO.C,C123*%
X69828699Y-77180882D02*
X69676196Y-77028379D01*
X69319582Y-77689999D02*
X69167079Y-77537496D01*
%TO.C,C77*%
X73175438Y-89469416D02*
X73022935Y-89316913D01*
X73684555Y-88960299D02*
X73532052Y-88807796D01*
%TO.C,IC9*%
X73255800Y-67366200D02*
X75255800Y-67366200D01*
X74255800Y-65146200D02*
X75255800Y-65146200D01*
%TO.C,C129*%
X47929293Y-87553190D02*
X47776790Y-87705693D01*
X48438410Y-88062307D02*
X48285907Y-88214810D01*
%TO.C,C83*%
X74250664Y-73512000D02*
X74466336Y-73512000D01*
X74250664Y-72792000D02*
X74466336Y-72792000D01*
%TO.C,C66*%
X62084500Y-89789364D02*
X62084500Y-90005036D01*
X62804500Y-89789364D02*
X62804500Y-90005036D01*
%TO.C,C71*%
X70430204Y-93812021D02*
X70277701Y-93659518D01*
X70939321Y-93302904D02*
X70786818Y-93150401D01*
%TO.C,J7*%
X36220400Y-56836000D02*
X48980400Y-56836000D01*
X36220400Y-59436000D02*
X36220400Y-56836000D01*
X33620400Y-62036000D02*
X48980400Y-62036000D01*
X33620400Y-59436000D02*
X36220400Y-59436000D01*
X33620400Y-56836000D02*
X34950400Y-56836000D01*
X33620400Y-58166000D02*
X33620400Y-56836000D01*
X33620400Y-62036000D02*
X33620400Y-59436000D01*
X48980400Y-62036000D02*
X48980400Y-56836000D01*
%TO.C,FL2*%
X67359543Y-97870666D02*
X69445508Y-95784701D01*
X69233376Y-99744499D02*
X67359543Y-97870666D01*
X70753656Y-98224219D02*
X69233376Y-99744499D01*
X69445508Y-95784701D02*
X70753656Y-97092849D01*
X70753656Y-97092849D02*
X70753656Y-98224219D01*
%TO.C,C64*%
X64308458Y-87806317D02*
X64460961Y-87958820D01*
X64817575Y-87297200D02*
X64970078Y-87449703D01*
%TO.C,R28*%
X70115700Y-90295759D02*
X70115700Y-90603041D01*
X69355700Y-90295759D02*
X69355700Y-90603041D01*
%TO.C,C63*%
X65688499Y-86731282D02*
X65535996Y-86578779D01*
X65179382Y-87240399D02*
X65026879Y-87087896D01*
%TO.C,R30*%
X73902300Y-85421441D02*
X73902300Y-85114159D01*
X74662300Y-85421441D02*
X74662300Y-85114159D01*
%TO.C,C133*%
X67180121Y-76802942D02*
X67027618Y-76955445D01*
X66671004Y-76293825D02*
X66518501Y-76446328D01*
%TO.C,C120*%
X75893200Y-65215380D02*
X75893200Y-64934220D01*
X76913200Y-65215380D02*
X76913200Y-64934220D01*
%TO.C,R38*%
X77410159Y-76547940D02*
X77627440Y-76330659D01*
X77947560Y-77085341D02*
X78164841Y-76868060D01*
%TO.C,C60*%
X68365996Y-95553198D02*
X68213493Y-95400695D01*
X67856879Y-96062315D02*
X67704376Y-95909812D01*
%TO.C,C62*%
X63020279Y-96223904D02*
X63172782Y-96071401D01*
X63529396Y-96733021D02*
X63681899Y-96580518D01*
%TO.C,U8*%
X63959100Y-89232400D02*
X63484100Y-89232400D01*
X67229100Y-93452400D02*
X67704100Y-93452400D01*
X63484100Y-89232400D02*
X63484100Y-89707400D01*
X67704100Y-89232400D02*
X67704100Y-89707400D01*
X67229100Y-89232400D02*
X67704100Y-89232400D01*
X63959100Y-93452400D02*
X63484100Y-93452400D01*
X63484100Y-93452400D02*
X63484100Y-92977400D01*
%TO.C,R8*%
X40124340Y-78159459D02*
X39907059Y-78376740D01*
X40661741Y-78696860D02*
X40444460Y-78914141D01*
%TO.C,R40*%
X71921100Y-73379359D02*
X71921100Y-73686641D01*
X72681100Y-73379359D02*
X72681100Y-73686641D01*
%TO.C,R24*%
X61833059Y-87806800D02*
X62140341Y-87806800D01*
X61833059Y-87046800D02*
X62140341Y-87046800D01*
%TO.C,R43*%
X56459900Y-76012241D02*
X56459900Y-75704959D01*
X57219900Y-76012241D02*
X57219900Y-75704959D01*
%TO.C,R22*%
X64803541Y-81297200D02*
X64496259Y-81297200D01*
X64803541Y-82057200D02*
X64496259Y-82057200D01*
%TO.C,R14*%
X56223900Y-85441641D02*
X56223900Y-85134359D01*
X56983900Y-85441641D02*
X56983900Y-85134359D01*
%TO.C,J6*%
X77664000Y-59486800D02*
X80324000Y-59486800D01*
X77664000Y-59486800D02*
X77664000Y-64626800D01*
X80324000Y-59486800D02*
X80324000Y-64626800D01*
X77664000Y-58216800D02*
X77664000Y-56886800D01*
X77664000Y-56886800D02*
X78994000Y-56886800D01*
X77664000Y-64626800D02*
X80324000Y-64626800D01*
%TO.C,C14*%
X45685896Y-80197621D02*
X45838399Y-80045118D01*
X45176779Y-79688504D02*
X45329282Y-79536001D01*
%TO.C,C94*%
X43830579Y-69045904D02*
X43983082Y-68893401D01*
X44339696Y-69555021D02*
X44492199Y-69402518D01*
%TO.C,R45*%
X40461200Y-88188042D02*
X40461200Y-87880760D01*
X39701200Y-88188042D02*
X39701200Y-87880760D01*
%TO.C,C78*%
X73922300Y-87283236D02*
X73922300Y-87067564D01*
X74642300Y-87283236D02*
X74642300Y-87067564D01*
%TO.C,R35*%
X78246065Y-73123964D02*
X78028784Y-72906683D01*
X77708664Y-73661365D02*
X77491383Y-73444084D01*
%TO.C,C18*%
X40453599Y-80305082D02*
X40301096Y-80152579D01*
X39944482Y-80814199D02*
X39791979Y-80661696D01*
%TO.C,R37*%
X78151783Y-74561716D02*
X78369064Y-74344435D01*
X78689184Y-75099117D02*
X78906465Y-74881836D01*
%TO.C,R19*%
X62873141Y-80281200D02*
X62565859Y-80281200D01*
X62873141Y-81041200D02*
X62565859Y-81041200D01*
%TO.C,C49*%
X58167641Y-89317337D02*
X58015138Y-89469840D01*
X57658524Y-88808220D02*
X57506021Y-88960723D01*
%TO.C,C130*%
X69780264Y-66806400D02*
X69995936Y-66806400D01*
X69780264Y-66086400D02*
X69995936Y-66086400D01*
%TO.C,Q1*%
X40676000Y-90982800D02*
X40676000Y-89307800D01*
X40676000Y-90982800D02*
X40676000Y-91632800D01*
X37556000Y-90982800D02*
X37556000Y-91632800D01*
X37556000Y-90982800D02*
X37556000Y-90332800D01*
%TO.C,R36*%
X76911216Y-75624483D02*
X76693935Y-75841764D01*
X77448617Y-76161884D02*
X77231336Y-76379165D01*
%TO.C,U5*%
X41918397Y-75722400D02*
X41918397Y-77122400D01*
X44238397Y-77122400D02*
X44238397Y-75222400D01*
%TO.C,C80*%
X74798901Y-81676682D02*
X74951404Y-81524179D01*
X75308018Y-82185799D02*
X75460521Y-82033296D01*
%TO.C,C37*%
X58695000Y-67202164D02*
X58695000Y-67417836D01*
X59415000Y-67202164D02*
X59415000Y-67417836D01*
%TO.C,C67*%
X62083836Y-88082800D02*
X61868164Y-88082800D01*
X62083836Y-88802800D02*
X61868164Y-88802800D01*
%TO.C,R34*%
X76026217Y-75196716D02*
X75808936Y-74979435D01*
X75488816Y-75734117D02*
X75271535Y-75516836D01*
%TO.C,R32*%
X74773583Y-83096116D02*
X74990864Y-82878835D01*
X75310984Y-83633517D02*
X75528265Y-83416236D01*
%TO.C,C139*%
X69174900Y-64529580D02*
X69174900Y-64248420D01*
X70194900Y-64529580D02*
X70194900Y-64248420D01*
%TO.C,R41*%
X70883700Y-73686641D02*
X70883700Y-73379359D01*
X71643700Y-73686641D02*
X71643700Y-73379359D01*
%TO.C,IC3*%
X66871200Y-63532900D02*
X67346200Y-63532900D01*
X67346200Y-63532900D02*
X67346200Y-64007900D01*
X66871200Y-70752900D02*
X67346200Y-70752900D01*
X67346200Y-70752900D02*
X67346200Y-70277900D01*
X60601200Y-70752900D02*
X60126200Y-70752900D01*
X60601200Y-63532900D02*
X60126200Y-63532900D01*
X60126200Y-70752900D02*
X60126200Y-70277900D01*
%TO.C,R33*%
X73091136Y-82853435D02*
X73308417Y-83070716D01*
X72553735Y-83390836D02*
X72771016Y-83608117D01*
%TO.C,C92*%
X54311436Y-59609400D02*
X54095764Y-59609400D01*
X54311436Y-60329400D02*
X54095764Y-60329400D01*
%TO.C,R27*%
X61722016Y-91753483D02*
X61504735Y-91970764D01*
X62259417Y-92290884D02*
X62042136Y-92508165D01*
%TO.C,C46*%
X68769800Y-65635464D02*
X68769800Y-65851136D01*
X68049800Y-65635464D02*
X68049800Y-65851136D01*
%TO.C,R29*%
X61809900Y-90270359D02*
X61809900Y-90577641D01*
X61049900Y-90270359D02*
X61049900Y-90577641D01*
%TO.C,C59*%
X66989633Y-96631909D02*
X67142136Y-96784412D01*
X67498750Y-96122792D02*
X67651253Y-96275295D01*
%TO.C,C73*%
X69375700Y-88436564D02*
X69375700Y-88652236D01*
X70095700Y-88436564D02*
X70095700Y-88652236D01*
%TO.C,R10*%
X41502600Y-76272959D02*
X41502600Y-76580241D01*
X40742600Y-76272959D02*
X40742600Y-76580241D01*
%TO.C,C75*%
X71090604Y-91551421D02*
X70938101Y-91398918D01*
X71599721Y-91042304D02*
X71447218Y-90889801D01*
%TO.C,R18*%
X65588700Y-79339641D02*
X65588700Y-79032359D01*
X64828700Y-79339641D02*
X64828700Y-79032359D01*
%TO.C,FL3*%
X61184273Y-95726179D02*
X63270238Y-97812144D01*
X60830720Y-99120292D02*
X59310440Y-97600012D01*
X61962090Y-99120292D02*
X60830720Y-99120292D01*
X59310440Y-97600012D02*
X61184273Y-95726179D01*
X63270238Y-97812144D02*
X61962090Y-99120292D01*
%TO.C,C68*%
X68383700Y-89789364D02*
X68383700Y-90005036D01*
X69103700Y-89789364D02*
X69103700Y-90005036D01*
%TO.C,C50*%
X57979900Y-87303436D02*
X57979900Y-87087764D01*
X57259900Y-87303436D02*
X57259900Y-87087764D01*
%TO.C,C88*%
X35389419Y-94770230D02*
X35588230Y-94571419D01*
X34668170Y-94048981D02*
X34866981Y-93850170D01*
%TO.C,J5*%
X54053200Y-58996600D02*
X50308200Y-58996600D01*
X55573200Y-56776600D02*
X55573200Y-57886600D01*
X54053200Y-56776600D02*
X54053200Y-57323129D01*
X50308200Y-58194130D02*
X50308200Y-58996600D01*
X54813200Y-56776600D02*
X55573200Y-56776600D01*
X54053200Y-56776600D02*
X50308200Y-56776600D01*
X50308200Y-56776600D02*
X50308200Y-57579070D01*
X54053200Y-58450071D02*
X54053200Y-58996600D01*
%TO.C,R26*%
X70932136Y-91845035D02*
X71149417Y-92062316D01*
X70394735Y-92382436D02*
X70612016Y-92599717D01*
%TO.C,J4*%
X67278600Y-60595600D02*
X67678600Y-60595600D01*
X70553600Y-58005600D02*
X70553600Y-57405600D01*
X57013600Y-58005600D02*
X56903600Y-58005600D01*
X56903600Y-58005600D02*
X56903600Y-57405600D01*
X67678600Y-60595600D02*
X67478600Y-60195600D01*
X67478600Y-60195600D02*
X67278600Y-60595600D01*
X70443600Y-58005600D02*
X70553600Y-58005600D01*
%TO.C,C70*%
X68385100Y-92942236D02*
X68385100Y-92726564D01*
X69105100Y-92942236D02*
X69105100Y-92726564D01*
%TO.C,C54*%
X62816700Y-77223364D02*
X62816700Y-77439036D01*
X63536700Y-77223364D02*
X63536700Y-77439036D01*
%TO.C,R53*%
X48140660Y-78565859D02*
X48357941Y-78783140D01*
X47603259Y-79103260D02*
X47820540Y-79320541D01*
D12*
%TO.C,D1*%
X47404346Y-78316946D02*
G75*
G03*
X47404346Y-78316946I-50000J0D01*
G01*
D11*
%TO.C,C93*%
X43932282Y-71966801D02*
X43779779Y-72119304D01*
X44441399Y-72475918D02*
X44288896Y-72628421D01*
%TD*%
M02*
