%TF.GenerationSoftware,KiCad,Pcbnew,(6.0.4)*%
%TF.CreationDate,2023-05-19T00:46:40+09:00*%
%TF.ProjectId,RFB,5246422e-6b69-4636-9164-5f7063625858,rev?*%
%TF.SameCoordinates,Original*%
%TF.FileFunction,Soldermask,Top*%
%TF.FilePolarity,Negative*%
%FSLAX46Y46*%
G04 Gerber Fmt 4.6, Leading zero omitted, Abs format (unit mm)*
G04 Created by KiCad (PCBNEW (6.0.4)) date 2023-05-19 00:46:40*
%MOMM*%
%LPD*%
G01*
G04 APERTURE LIST*
G04 Aperture macros list*
%AMRoundRect*
0 Rectangle with rounded corners*
0 $1 Rounding radius*
0 $2 $3 $4 $5 $6 $7 $8 $9 X,Y pos of 4 corners*
0 Add a 4 corners polygon primitive as box body*
4,1,4,$2,$3,$4,$5,$6,$7,$8,$9,$2,$3,0*
0 Add four circle primitives for the rounded corners*
1,1,$1+$1,$2,$3*
1,1,$1+$1,$4,$5*
1,1,$1+$1,$6,$7*
1,1,$1+$1,$8,$9*
0 Add four rect primitives between the rounded corners*
20,1,$1+$1,$2,$3,$4,$5,0*
20,1,$1+$1,$4,$5,$6,$7,0*
20,1,$1+$1,$6,$7,$8,$9,0*
20,1,$1+$1,$8,$9,$2,$3,0*%
%AMRotRect*
0 Rectangle, with rotation*
0 The origin of the aperture is its center*
0 $1 length*
0 $2 width*
0 $3 Rotation angle, in degrees counterclockwise*
0 Add horizontal line*
21,1,$1,$2,0,0,$3*%
G04 Aperture macros list end*
%ADD10RoundRect,0.075000X-0.415425X-0.521491X0.521491X0.415425X0.415425X0.521491X-0.521491X-0.415425X0*%
%ADD11RoundRect,0.075000X0.415425X-0.521491X0.521491X-0.415425X-0.415425X0.521491X-0.521491X0.415425X0*%
%ADD12R,0.600000X0.750000*%
%ADD13RoundRect,0.135000X0.135000X0.185000X-0.135000X0.185000X-0.135000X-0.185000X0.135000X-0.185000X0*%
%ADD14RoundRect,0.140000X0.021213X-0.219203X0.219203X-0.021213X-0.021213X0.219203X-0.219203X0.021213X0*%
%ADD15RoundRect,0.140000X-0.021213X0.219203X-0.219203X0.021213X0.021213X-0.219203X0.219203X-0.021213X0*%
%ADD16R,1.780000X4.190000*%
%ADD17R,2.665000X4.190000*%
%ADD18RoundRect,0.135000X0.185000X-0.135000X0.185000X0.135000X-0.185000X0.135000X-0.185000X-0.135000X0*%
%ADD19RoundRect,0.135000X-0.135000X-0.185000X0.135000X-0.185000X0.135000X0.185000X-0.135000X0.185000X0*%
%ADD20C,2.600000*%
%ADD21C,3.800000*%
%ADD22RoundRect,0.140000X-0.170000X0.140000X-0.170000X-0.140000X0.170000X-0.140000X0.170000X0.140000X0*%
%ADD23RoundRect,0.135000X0.226274X0.035355X0.035355X0.226274X-0.226274X-0.035355X-0.035355X-0.226274X0*%
%ADD24RoundRect,0.140000X0.140000X0.170000X-0.140000X0.170000X-0.140000X-0.170000X0.140000X-0.170000X0*%
%ADD25RoundRect,0.087500X0.185616X-0.061872X-0.061872X0.185616X-0.185616X0.061872X0.061872X-0.185616X0*%
%ADD26RotRect,1.400000X1.600000X135.000000*%
%ADD27RoundRect,0.135000X-0.185000X0.135000X-0.185000X-0.135000X0.185000X-0.135000X0.185000X0.135000X0*%
%ADD28RoundRect,0.225000X0.017678X-0.335876X0.335876X-0.017678X-0.017678X0.335876X-0.335876X0.017678X0*%
%ADD29RoundRect,0.140000X0.170000X-0.140000X0.170000X0.140000X-0.170000X0.140000X-0.170000X-0.140000X0*%
%ADD30R,2.400000X0.740000*%
%ADD31RoundRect,0.135000X-0.035355X0.226274X-0.226274X0.035355X0.035355X-0.226274X0.226274X-0.035355X0*%
%ADD32R,1.700000X1.700000*%
%ADD33O,1.700000X1.700000*%
%ADD34RoundRect,0.087500X-0.185616X0.061872X0.061872X-0.185616X0.185616X-0.061872X-0.061872X0.185616X0*%
%ADD35RotRect,1.400000X1.600000X315.000000*%
%ADD36RoundRect,0.140000X-0.140000X-0.170000X0.140000X-0.170000X0.140000X0.170000X-0.140000X0.170000X0*%
%ADD37RoundRect,0.062500X0.062500X-0.375000X0.062500X0.375000X-0.062500X0.375000X-0.062500X-0.375000X0*%
%ADD38RoundRect,0.062500X0.375000X-0.062500X0.375000X0.062500X-0.375000X0.062500X-0.375000X-0.062500X0*%
%ADD39R,2.500000X2.500000*%
%ADD40R,0.650000X0.400000*%
%ADD41RoundRect,0.140000X-0.219203X-0.021213X-0.021213X-0.219203X0.219203X0.021213X0.021213X0.219203X0*%
%ADD42RoundRect,0.147500X0.017678X-0.226274X0.226274X-0.017678X-0.017678X0.226274X-0.226274X0.017678X0*%
%ADD43RoundRect,0.200000X0.800000X-0.200000X0.800000X0.200000X-0.800000X0.200000X-0.800000X-0.200000X0*%
%ADD44RoundRect,0.062500X0.309359X-0.220971X-0.220971X0.309359X-0.309359X0.220971X0.220971X-0.309359X0*%
%ADD45RoundRect,0.062500X0.309359X0.220971X0.220971X0.309359X-0.309359X-0.220971X-0.220971X-0.309359X0*%
%ADD46RotRect,2.500000X2.500000X135.000000*%
%ADD47RoundRect,0.135000X0.035355X-0.226274X0.226274X-0.035355X-0.035355X0.226274X-0.226274X0.035355X0*%
%ADD48RoundRect,0.147500X0.226274X0.017678X0.017678X0.226274X-0.226274X-0.017678X-0.017678X-0.226274X0*%
%ADD49RoundRect,0.140000X0.219203X0.021213X0.021213X0.219203X-0.219203X-0.021213X-0.021213X-0.219203X0*%
%ADD50RoundRect,0.093750X-0.093750X-0.106250X0.093750X-0.106250X0.093750X0.106250X-0.093750X0.106250X0*%
%ADD51R,1.000000X1.600000*%
%ADD52RotRect,0.350000X0.700000X135.000000*%
%ADD53RoundRect,0.225000X0.250000X-0.225000X0.250000X0.225000X-0.250000X0.225000X-0.250000X-0.225000X0*%
%ADD54RoundRect,0.062500X0.375000X0.062500X-0.375000X0.062500X-0.375000X-0.062500X0.375000X-0.062500X0*%
%ADD55RoundRect,0.062500X0.062500X0.375000X-0.062500X0.375000X-0.062500X-0.375000X0.062500X-0.375000X0*%
%ADD56RoundRect,0.150000X-0.150000X0.587500X-0.150000X-0.587500X0.150000X-0.587500X0.150000X0.587500X0*%
%ADD57R,0.400000X0.650000*%
%ADD58RoundRect,0.062500X-0.375000X-0.062500X0.375000X-0.062500X0.375000X0.062500X-0.375000X0.062500X0*%
%ADD59RoundRect,0.062500X-0.062500X-0.375000X0.062500X-0.375000X0.062500X0.375000X-0.062500X0.375000X0*%
%ADD60R,5.600000X5.600000*%
%ADD61RoundRect,0.135000X-0.226274X-0.035355X-0.035355X-0.226274X0.226274X0.035355X0.035355X0.226274X0*%
%ADD62RotRect,0.350000X0.700000X45.000000*%
%ADD63R,1.000000X1.000000*%
%ADD64O,1.000000X1.000000*%
%ADD65R,0.300000X1.100000*%
%ADD66R,2.300000X3.100000*%
%ADD67C,0.500000*%
G04 APERTURE END LIST*
D10*
%TO.C,U11*%
X45200924Y-72575988D03*
X45554478Y-72929542D03*
X45908031Y-73283095D03*
X46261585Y-73636649D03*
X46615138Y-73990202D03*
X46968691Y-74343755D03*
X47322245Y-74697309D03*
X47675798Y-75050862D03*
X48029351Y-75404415D03*
X48382905Y-75757969D03*
X48736458Y-76111522D03*
X49090012Y-76465076D03*
D11*
X51087588Y-76465076D03*
X51441142Y-76111522D03*
X51794695Y-75757969D03*
X52148249Y-75404415D03*
X52501802Y-75050862D03*
X52855355Y-74697309D03*
X53208909Y-74343755D03*
X53562462Y-73990202D03*
X53916015Y-73636649D03*
X54269569Y-73283095D03*
X54623122Y-72929542D03*
X54976676Y-72575988D03*
D10*
X54976676Y-70578412D03*
X54623122Y-70224858D03*
X54269569Y-69871305D03*
X53916015Y-69517751D03*
X53562462Y-69164198D03*
X53208909Y-68810645D03*
X52855355Y-68457091D03*
X52501802Y-68103538D03*
X52148249Y-67749985D03*
X51794695Y-67396431D03*
X51441142Y-67042878D03*
X51087588Y-66689324D03*
D11*
X49090012Y-66689324D03*
X48736458Y-67042878D03*
X48382905Y-67396431D03*
X48029351Y-67749985D03*
X47675798Y-68103538D03*
X47322245Y-68457091D03*
X46968691Y-68810645D03*
X46615138Y-69164198D03*
X46261585Y-69517751D03*
X45908031Y-69871305D03*
X45554478Y-70224858D03*
X45200924Y-70578412D03*
%TD*%
D12*
%TO.C,U1*%
X34442400Y-79158800D03*
X36092400Y-79158800D03*
X36092400Y-78028800D03*
X34442400Y-78028800D03*
%TD*%
D13*
%TO.C,R9*%
X44045600Y-74269600D03*
X43025600Y-74269600D03*
%TD*%
D14*
%TO.C,C74*%
X61563878Y-93896822D03*
X62242700Y-93218000D03*
%TD*%
D15*
%TO.C,C31*%
X44577000Y-79298800D03*
X43898178Y-79977622D03*
%TD*%
D16*
%TO.C,J1*%
X72453500Y-104038400D03*
D17*
X75946000Y-104038400D03*
X68961000Y-104038400D03*
%TD*%
D18*
%TO.C,R31*%
X73266300Y-85777800D03*
X73266300Y-84757800D03*
%TD*%
D19*
%TO.C,R21*%
X62207500Y-81677200D03*
X63227500Y-81677200D03*
%TD*%
D20*
%TO.C,H1*%
X77673200Y-95478600D03*
D21*
X77673200Y-95478600D03*
%TD*%
D22*
%TO.C,C55*%
X64192700Y-76851200D03*
X64192700Y-77811200D03*
%TD*%
D23*
%TO.C,R46*%
X39827200Y-96647000D03*
X39105952Y-95925752D03*
%TD*%
D24*
%TO.C,C65*%
X68745100Y-88188800D03*
X67785100Y-88188800D03*
%TD*%
D22*
%TO.C,C53*%
X55778400Y-80774600D03*
X55778400Y-81734600D03*
%TD*%
D16*
%TO.C,J2*%
X59931300Y-104038400D03*
D17*
X56438800Y-104038400D03*
X63423800Y-104038400D03*
%TD*%
D22*
%TO.C,C12*%
X72374700Y-64567400D03*
X72374700Y-65527400D03*
%TD*%
D25*
%TO.C,U10*%
X37093025Y-97862200D03*
X37446578Y-97508647D03*
X37800132Y-97155093D03*
X38153685Y-96801540D03*
X36332885Y-94980740D03*
X35979332Y-95334293D03*
X35625778Y-95687847D03*
X35272225Y-96041400D03*
D26*
X36712955Y-96421470D03*
%TD*%
D27*
%TO.C,R6*%
X45034200Y-77163200D03*
X45034200Y-78183200D03*
%TD*%
D28*
%TO.C,C89*%
X38024072Y-98810218D03*
X39120088Y-97714202D03*
%TD*%
D22*
%TO.C,C35*%
X59055000Y-63020000D03*
X59055000Y-63980000D03*
%TD*%
%TO.C,C36*%
X59055000Y-64925000D03*
X59055000Y-65885000D03*
%TD*%
D15*
%TO.C,C61*%
X62968401Y-95348055D03*
X62289579Y-96026877D03*
%TD*%
D22*
%TO.C,C72*%
X60502800Y-88039000D03*
X60502800Y-88999000D03*
%TD*%
D18*
%TO.C,R71*%
X72374700Y-67485800D03*
X72374700Y-66465800D03*
%TD*%
D29*
%TO.C,C79*%
X73266300Y-87655400D03*
X73266300Y-86695400D03*
%TD*%
D30*
%TO.C,J8*%
X36048400Y-63779400D03*
X39948400Y-63779400D03*
X36048400Y-65049400D03*
X39948400Y-65049400D03*
X36048400Y-66319400D03*
X39948400Y-66319400D03*
X36048400Y-67589400D03*
X39948400Y-67589400D03*
X36048400Y-68859400D03*
X39948400Y-68859400D03*
%TD*%
D18*
%TO.C,R13*%
X57619900Y-85800000D03*
X57619900Y-84780000D03*
%TD*%
D31*
%TO.C,R62*%
X39984624Y-77388776D03*
X39263376Y-78110024D03*
%TD*%
D32*
%TO.C,J9*%
X34950400Y-88138000D03*
D33*
X34950400Y-90678000D03*
%TD*%
D22*
%TO.C,C15*%
X42697400Y-83489800D03*
X42697400Y-84449800D03*
%TD*%
D20*
%TO.C,H2*%
X73126600Y-60452000D03*
D21*
X73126600Y-60452000D03*
%TD*%
D23*
%TO.C,R11*%
X62146124Y-74071424D03*
X61424876Y-73350176D03*
%TD*%
D34*
%TO.C,U22*%
X45619330Y-85249470D03*
X45265777Y-85603023D03*
X44912223Y-85956577D03*
X44558670Y-86310130D03*
X46379470Y-88130930D03*
X46733023Y-87777377D03*
X47086577Y-87423823D03*
X47440130Y-87070270D03*
D35*
X45999400Y-86690200D03*
%TD*%
D18*
%TO.C,R17*%
X62160700Y-79696000D03*
X62160700Y-78676000D03*
%TD*%
D19*
%TO.C,R15*%
X57529000Y-83769200D03*
X58549000Y-83769200D03*
%TD*%
%TO.C,R25*%
X61567600Y-86410800D03*
X62587600Y-86410800D03*
%TD*%
D15*
%TO.C,C40*%
X63293311Y-72380789D03*
X62614489Y-73059611D03*
%TD*%
D36*
%TO.C,C82*%
X73621900Y-74142600D03*
X74581900Y-74142600D03*
%TD*%
D37*
%TO.C,U7*%
X57694700Y-81481100D03*
X58194700Y-81481100D03*
X58694700Y-81481100D03*
X59194700Y-81481100D03*
X59694700Y-81481100D03*
X60194700Y-81481100D03*
D38*
X60882200Y-80793600D03*
X60882200Y-80293600D03*
X60882200Y-79793600D03*
X60882200Y-79293600D03*
X60882200Y-78793600D03*
X60882200Y-78293600D03*
D37*
X60194700Y-77606100D03*
X59694700Y-77606100D03*
X59194700Y-77606100D03*
X58694700Y-77606100D03*
X58194700Y-77606100D03*
X57694700Y-77606100D03*
D38*
X57007200Y-78293600D03*
X57007200Y-78793600D03*
X57007200Y-79293600D03*
X57007200Y-79793600D03*
X57007200Y-80293600D03*
X57007200Y-80793600D03*
D39*
X58944700Y-79543600D03*
%TD*%
D40*
%TO.C,U12*%
X48249800Y-83881200D03*
X48249800Y-84531200D03*
X48249800Y-85181200D03*
X50149800Y-85181200D03*
X50149800Y-83881200D03*
%TD*%
D29*
%TO.C,C44*%
X68409800Y-68130900D03*
X68409800Y-67170900D03*
%TD*%
D15*
%TO.C,C143*%
X44697022Y-84690578D03*
X44018200Y-85369400D03*
%TD*%
D29*
%TO.C,C51*%
X56603900Y-87670400D03*
X56603900Y-86710400D03*
%TD*%
D22*
%TO.C,C57*%
X63176700Y-78730800D03*
X63176700Y-79690800D03*
%TD*%
D41*
%TO.C,C6*%
X41265789Y-72736389D03*
X41944611Y-73415211D03*
%TD*%
D19*
%TO.C,R20*%
X64137900Y-80661200D03*
X65157900Y-80661200D03*
%TD*%
D42*
%TO.C,L7*%
X71608464Y-90162638D03*
X72294358Y-89476744D03*
%TD*%
D22*
%TO.C,C45*%
X68409800Y-63360900D03*
X68409800Y-64320900D03*
%TD*%
D41*
%TO.C,C101*%
X46320389Y-75860589D03*
X46999211Y-76539411D03*
%TD*%
D34*
%TO.C,U20*%
X67806230Y-77174316D03*
X67452677Y-77527869D03*
X67099123Y-77881423D03*
X66745570Y-78234976D03*
X68566370Y-80055776D03*
X68919923Y-79702223D03*
X69273477Y-79348669D03*
X69627030Y-78995116D03*
D35*
X68186300Y-78615046D03*
%TD*%
D41*
%TO.C,C86*%
X76830692Y-73682832D03*
X77509514Y-74361654D03*
%TD*%
D15*
%TO.C,C41*%
X63953711Y-73142789D03*
X63274889Y-73821611D03*
%TD*%
D18*
%TO.C,R70*%
X71358700Y-66524600D03*
X71358700Y-65504600D03*
%TD*%
D41*
%TO.C,C81*%
X72622089Y-81499389D03*
X73300911Y-82178211D03*
%TD*%
D43*
%TO.C,SW1*%
X34823400Y-85589800D03*
X34823400Y-81389800D03*
%TD*%
D44*
%TO.C,U9*%
X74539836Y-80719620D03*
X74893389Y-80366066D03*
X75246943Y-80012513D03*
X75600496Y-79658960D03*
X75954049Y-79305406D03*
X76307603Y-78951853D03*
D45*
X76307603Y-77979581D03*
X75954049Y-77626028D03*
X75600496Y-77272474D03*
X75246943Y-76918921D03*
X74893389Y-76565368D03*
X74539836Y-76211814D03*
D44*
X73567564Y-76211814D03*
X73214011Y-76565368D03*
X72860457Y-76918921D03*
X72506904Y-77272474D03*
X72153351Y-77626028D03*
X71799797Y-77979581D03*
D45*
X71799797Y-78951853D03*
X72153351Y-79305406D03*
X72506904Y-79658960D03*
X72860457Y-80012513D03*
X73214011Y-80366066D03*
X73567564Y-80719620D03*
D46*
X74053700Y-78465717D03*
%TD*%
D15*
%TO.C,C47*%
X60261500Y-90881200D03*
X59582678Y-91560022D03*
%TD*%
D41*
%TO.C,C85*%
X76009500Y-74295000D03*
X76688322Y-74973822D03*
%TD*%
D47*
%TO.C,R54*%
X48559776Y-88854224D03*
X49281024Y-88132976D03*
%TD*%
D36*
%TO.C,C2*%
X42166600Y-71602600D03*
X43126600Y-71602600D03*
%TD*%
D19*
%TO.C,R16*%
X55446200Y-82727800D03*
X56466200Y-82727800D03*
%TD*%
D48*
%TO.C,L4*%
X59579001Y-90162781D03*
X58893107Y-89476887D03*
%TD*%
D36*
%TO.C,C52*%
X57559000Y-82727800D03*
X58519000Y-82727800D03*
%TD*%
D22*
%TO.C,C58*%
X64192700Y-78736000D03*
X64192700Y-79696000D03*
%TD*%
D47*
%TO.C,R39*%
X76644500Y-80365600D03*
X77365748Y-79644352D03*
%TD*%
D29*
%TO.C,C16*%
X42773600Y-79496800D03*
X42773600Y-78536800D03*
%TD*%
D27*
%TO.C,R42*%
X57855900Y-75348600D03*
X57855900Y-76368600D03*
%TD*%
D49*
%TO.C,C123*%
X69837300Y-77698600D03*
X69158478Y-77019778D03*
%TD*%
%TO.C,C77*%
X73693156Y-89478017D03*
X73014334Y-88799195D03*
%TD*%
D50*
%TO.C,IC9*%
X73368300Y-65606200D03*
X73368300Y-66256200D03*
X73368300Y-66906200D03*
X75143300Y-66906200D03*
X75143300Y-66256200D03*
X75143300Y-65606200D03*
D51*
X74255800Y-66256200D03*
%TD*%
D15*
%TO.C,C129*%
X47768189Y-88223411D03*
X48447011Y-87544589D03*
%TD*%
D36*
%TO.C,C83*%
X73878500Y-73152000D03*
X74838500Y-73152000D03*
%TD*%
D22*
%TO.C,C66*%
X62444500Y-89417200D03*
X62444500Y-90377200D03*
%TD*%
D49*
%TO.C,C71*%
X70947922Y-93820622D03*
X70269100Y-93141800D03*
%TD*%
D32*
%TO.C,J7*%
X34950400Y-58166000D03*
D33*
X34950400Y-60706000D03*
X37490400Y-58166000D03*
X37490400Y-60706000D03*
X40030400Y-58166000D03*
X40030400Y-60706000D03*
X42570400Y-58166000D03*
X42570400Y-60706000D03*
X45110400Y-58166000D03*
X45110400Y-60706000D03*
X47650400Y-58166000D03*
X47650400Y-60706000D03*
%TD*%
D52*
%TO.C,FL2*%
X70241003Y-97782278D03*
X69781384Y-97322658D03*
X69321764Y-96863039D03*
X68437881Y-97746922D03*
X68897500Y-98206542D03*
X69357120Y-98666161D03*
%TD*%
D41*
%TO.C,C64*%
X64299857Y-87288599D03*
X64978679Y-87967421D03*
%TD*%
D27*
%TO.C,R28*%
X69735700Y-89939400D03*
X69735700Y-90959400D03*
%TD*%
D49*
%TO.C,C63*%
X65697100Y-87249000D03*
X65018278Y-86570178D03*
%TD*%
D18*
%TO.C,R30*%
X74282300Y-85777800D03*
X74282300Y-84757800D03*
%TD*%
D15*
%TO.C,C133*%
X67188722Y-76285224D03*
X66509900Y-76964046D03*
%TD*%
D53*
%TO.C,C120*%
X76403200Y-65849800D03*
X76403200Y-64299800D03*
%TD*%
D47*
%TO.C,R38*%
X77426876Y-77068624D03*
X78148124Y-76347376D03*
%TD*%
D49*
%TO.C,C60*%
X68374597Y-96070916D03*
X67695775Y-95392094D03*
%TD*%
D14*
%TO.C,C62*%
X63011678Y-96741622D03*
X63690500Y-96062800D03*
%TD*%
D54*
%TO.C,U8*%
X67531600Y-92592400D03*
X67531600Y-92092400D03*
X67531600Y-91592400D03*
X67531600Y-91092400D03*
X67531600Y-90592400D03*
X67531600Y-90092400D03*
D55*
X66844100Y-89404900D03*
X66344100Y-89404900D03*
X65844100Y-89404900D03*
X65344100Y-89404900D03*
X64844100Y-89404900D03*
X64344100Y-89404900D03*
D54*
X63656600Y-90092400D03*
X63656600Y-90592400D03*
X63656600Y-91092400D03*
X63656600Y-91592400D03*
X63656600Y-92092400D03*
X63656600Y-92592400D03*
D55*
X64344100Y-93279900D03*
X64844100Y-93279900D03*
X65344100Y-93279900D03*
X65844100Y-93279900D03*
X66344100Y-93279900D03*
X66844100Y-93279900D03*
D39*
X65594100Y-91342400D03*
%TD*%
D31*
%TO.C,R8*%
X40645024Y-78176176D03*
X39923776Y-78897424D03*
%TD*%
D27*
%TO.C,R40*%
X72301100Y-73023000D03*
X72301100Y-74043000D03*
%TD*%
D48*
%TO.C,L5*%
X58860581Y-90881200D03*
X58174687Y-90195306D03*
%TD*%
D19*
%TO.C,R24*%
X61476700Y-87426800D03*
X62496700Y-87426800D03*
%TD*%
D18*
%TO.C,R43*%
X56839900Y-76368600D03*
X56839900Y-75348600D03*
%TD*%
D13*
%TO.C,R22*%
X65159900Y-81677200D03*
X64139900Y-81677200D03*
%TD*%
D18*
%TO.C,R14*%
X56603900Y-85798000D03*
X56603900Y-84778000D03*
%TD*%
D32*
%TO.C,J6*%
X78994000Y-58216800D03*
D33*
X78994000Y-60756800D03*
X78994000Y-63296800D03*
%TD*%
D14*
%TO.C,C14*%
X45168178Y-80206222D03*
X45847000Y-79527400D03*
%TD*%
%TO.C,C94*%
X43821978Y-69563622D03*
X44500800Y-68884800D03*
%TD*%
D18*
%TO.C,R45*%
X40081200Y-88544401D03*
X40081200Y-87524401D03*
%TD*%
D29*
%TO.C,C78*%
X74282300Y-87655400D03*
X74282300Y-86695400D03*
%TD*%
D23*
%TO.C,R35*%
X78229348Y-73644648D03*
X77508100Y-72923400D03*
%TD*%
D42*
%TO.C,L6*%
X72328581Y-90879362D03*
X73014475Y-90193468D03*
%TD*%
D49*
%TO.C,C18*%
X40462200Y-80822800D03*
X39783378Y-80143978D03*
%TD*%
D47*
%TO.C,R37*%
X78168500Y-75082400D03*
X78889748Y-74361152D03*
%TD*%
D13*
%TO.C,R19*%
X63229500Y-80661200D03*
X62209500Y-80661200D03*
%TD*%
D15*
%TO.C,C49*%
X58176242Y-88799619D03*
X57497420Y-89478441D03*
%TD*%
D36*
%TO.C,C130*%
X69408100Y-66446400D03*
X70368100Y-66446400D03*
%TD*%
D56*
%TO.C,Q1*%
X40066000Y-90045300D03*
X38166000Y-90045300D03*
X39116000Y-91920300D03*
%TD*%
D31*
%TO.C,R36*%
X77431900Y-75641200D03*
X76710652Y-76362448D03*
%TD*%
D57*
%TO.C,U5*%
X43728397Y-75472400D03*
X43078397Y-75472400D03*
X42428397Y-75472400D03*
X42428397Y-77372400D03*
X43728397Y-77372400D03*
%TD*%
D14*
%TO.C,C80*%
X74790300Y-82194400D03*
X75469122Y-81515578D03*
%TD*%
D22*
%TO.C,C37*%
X59055000Y-66830000D03*
X59055000Y-67790000D03*
%TD*%
D24*
%TO.C,C67*%
X62456000Y-88442800D03*
X61496000Y-88442800D03*
%TD*%
D23*
%TO.C,R34*%
X76009500Y-75717400D03*
X75288252Y-74996152D03*
%TD*%
D47*
%TO.C,R32*%
X74790300Y-83616800D03*
X75511548Y-82895552D03*
%TD*%
D53*
%TO.C,C139*%
X69684900Y-65164000D03*
X69684900Y-63614000D03*
%TD*%
D18*
%TO.C,R41*%
X71263700Y-74043000D03*
X71263700Y-73023000D03*
%TD*%
D58*
%TO.C,IC3*%
X60298700Y-64392900D03*
X60298700Y-64892900D03*
X60298700Y-65392900D03*
X60298700Y-65892900D03*
X60298700Y-66392900D03*
X60298700Y-66892900D03*
X60298700Y-67392900D03*
X60298700Y-67892900D03*
X60298700Y-68392900D03*
X60298700Y-68892900D03*
X60298700Y-69392900D03*
X60298700Y-69892900D03*
D59*
X60986200Y-70580400D03*
X61486200Y-70580400D03*
X61986200Y-70580400D03*
X62486200Y-70580400D03*
X62986200Y-70580400D03*
X63486200Y-70580400D03*
X63986200Y-70580400D03*
X64486200Y-70580400D03*
X64986200Y-70580400D03*
X65486200Y-70580400D03*
X65986200Y-70580400D03*
X66486200Y-70580400D03*
D58*
X67173700Y-69892900D03*
X67173700Y-69392900D03*
X67173700Y-68892900D03*
X67173700Y-68392900D03*
X67173700Y-67892900D03*
X67173700Y-67392900D03*
X67173700Y-66892900D03*
X67173700Y-66392900D03*
X67173700Y-65892900D03*
X67173700Y-65392900D03*
X67173700Y-64892900D03*
X67173700Y-64392900D03*
D59*
X66486200Y-63705400D03*
X65986200Y-63705400D03*
X65486200Y-63705400D03*
X64986200Y-63705400D03*
X64486200Y-63705400D03*
X63986200Y-63705400D03*
X63486200Y-63705400D03*
X62986200Y-63705400D03*
X62486200Y-63705400D03*
X61986200Y-63705400D03*
X61486200Y-63705400D03*
X60986200Y-63705400D03*
D60*
X63736200Y-67142900D03*
%TD*%
D61*
%TO.C,R33*%
X72570452Y-82870152D03*
X73291700Y-83591400D03*
%TD*%
D24*
%TO.C,C92*%
X54683600Y-59969400D03*
X53723600Y-59969400D03*
%TD*%
D31*
%TO.C,R27*%
X62242700Y-91770200D03*
X61521452Y-92491448D03*
%TD*%
D22*
%TO.C,C46*%
X68409800Y-65263300D03*
X68409800Y-66223300D03*
%TD*%
D27*
%TO.C,R29*%
X61429900Y-89914000D03*
X61429900Y-90934000D03*
%TD*%
D41*
%TO.C,C59*%
X66981032Y-96114191D03*
X67659854Y-96793013D03*
%TD*%
D22*
%TO.C,C73*%
X69735700Y-88064400D03*
X69735700Y-89024400D03*
%TD*%
D27*
%TO.C,R10*%
X41122600Y-75916600D03*
X41122600Y-76936600D03*
%TD*%
D49*
%TO.C,C75*%
X71608322Y-91560022D03*
X70929500Y-90881200D03*
%TD*%
D18*
%TO.C,R18*%
X65208700Y-79696000D03*
X65208700Y-78676000D03*
%TD*%
D62*
%TO.C,FL3*%
X61272661Y-98607639D03*
X61732281Y-98148020D03*
X62191900Y-97688400D03*
X61308017Y-96804517D03*
X60848397Y-97264136D03*
X60388778Y-97723756D03*
%TD*%
D22*
%TO.C,C68*%
X68743700Y-89417200D03*
X68743700Y-90377200D03*
%TD*%
D29*
%TO.C,C50*%
X57619900Y-87675600D03*
X57619900Y-86715600D03*
%TD*%
D21*
%TO.C,H3*%
X51765200Y-98018600D03*
D20*
X51765200Y-98018600D03*
%TD*%
D28*
%TO.C,C88*%
X34580192Y-94858208D03*
X35676208Y-93762192D03*
%TD*%
D63*
%TO.C,J5*%
X54813200Y-57886600D03*
D64*
X53543200Y-57886600D03*
X52273200Y-57886600D03*
X51003200Y-57886600D03*
%TD*%
D61*
%TO.C,R26*%
X70411452Y-91861752D03*
X71132700Y-92583000D03*
%TD*%
D65*
%TO.C,J4*%
X67478600Y-61395600D03*
X66978600Y-61395600D03*
X66478600Y-61395600D03*
X65978600Y-61395600D03*
X65478600Y-61395600D03*
X64978600Y-61395600D03*
X64478600Y-61395600D03*
X63978600Y-61395600D03*
X63478600Y-61395600D03*
X62978600Y-61395600D03*
X62478600Y-61395600D03*
X61978600Y-61395600D03*
X61478600Y-61395600D03*
X60978600Y-61395600D03*
X60478600Y-61395600D03*
X59978600Y-61395600D03*
D66*
X58308600Y-59695600D03*
X69148600Y-59695600D03*
%TD*%
D29*
%TO.C,C70*%
X68745100Y-93314400D03*
X68745100Y-92354400D03*
%TD*%
D22*
%TO.C,C54*%
X63176700Y-76851200D03*
X63176700Y-77811200D03*
%TD*%
D61*
%TO.C,R53*%
X47619976Y-78582576D03*
X48341224Y-79303824D03*
%TD*%
D17*
%TO.C,J3*%
X46926500Y-104038400D03*
X39941500Y-104038400D03*
%TD*%
D67*
%TO.C,U4*%
X43422800Y-83203800D03*
X43452800Y-79203800D03*
X40722800Y-80473800D03*
X41992800Y-83203800D03*
X43452800Y-80473800D03*
X41992800Y-80473800D03*
X44722800Y-81933800D03*
X43452800Y-81933800D03*
X41992800Y-81933800D03*
X44722800Y-80473800D03*
X41992800Y-79203800D03*
X40722800Y-81933800D03*
%TD*%
D48*
%TO.C,D1*%
X46926547Y-77889147D03*
X46240653Y-77203253D03*
%TD*%
D15*
%TO.C,C93*%
X44450000Y-71958200D03*
X43771178Y-72637022D03*
%TD*%
M02*
