M48
; DRILL file {KiCad (6.0.4)} date Fri May 19 00:46:42 2023
; FORMAT={-:-/ absolute / inch / decimal}
; #@! TF.CreationDate,2023-05-19T00:46:42+09:00
; #@! TF.GenerationSoftware,Kicad,Pcbnew,(6.0.4)
; #@! TF.FileFunction,Plated,1,6,PTH
FMAT,2
INCH
; #@! TA.AperFunction,Plated,PTH,ViaDrill
T1C0.0079
; #@! TA.AperFunction,Plated,PTH,ComponentDrill
T2C0.0079
; #@! TA.AperFunction,Plated,PTH,ViaDrill
T3C0.0118
; #@! TA.AperFunction,Plated,PTH,ComponentDrill
T4C0.0118
; #@! TA.AperFunction,Plated,PTH,ViaDrill
T5C0.0157
; #@! TA.AperFunction,Plated,PTH,ComponentDrill
T6C0.0181
; #@! TA.AperFunction,Plated,PTH,ComponentDrill
T7C0.0256
; #@! TA.AperFunction,Plated,PTH,ComponentDrill
T8C0.0394
; #@! TA.AperFunction,Plated,PTH,ComponentDrill
T9C0.0866
%
G90
G05
T1
X1.323Y-3.137
X1.323Y-3.109
X1.334Y-3.383
X1.351Y-3.109
X1.351Y-3.137
X1.354Y-2.554
X1.364Y-2.716
X1.379Y-3.072
X1.407Y-3.109
X1.407Y-3.137
X1.408Y-3.383
X1.41Y-2.554
X1.42Y-2.716
X1.433Y-3.065
X1.435Y-3.109
X1.439Y-3.153
X1.439Y-3.181
X1.439Y-3.258
X1.439Y-3.286
X1.466Y-2.554
X1.467Y-3.181
X1.467Y-3.286
X1.467Y-3.153
X1.467Y-3.258
X1.469Y-2.939
X1.476Y-2.716
X1.487Y-3.217
X1.493Y-3.108
X1.503Y-3.516
X1.51Y-2.656
X1.522Y-2.905
X1.531Y-2.832
X1.536Y-3.208
X1.54Y-3.765
X1.548Y-2.869
X1.548Y-3.308
X1.57Y-3.167
X1.574Y-3.034
X1.578Y-3.435
X1.586Y-2.993
X1.589Y-3.311
X1.59Y-4.013
X1.59Y-4.041
X1.59Y-4.069
X1.59Y-4.097
X1.59Y-4.125
X1.59Y-4.153
X1.602Y-2.903
X1.607Y-2.756
X1.6072Y-2.7942
X1.6072Y-2.832
X1.6072Y-2.8698
X1.608Y-3.742
X1.608Y-3.77
X1.618Y-4.013
X1.618Y-4.041
X1.618Y-4.069
X1.618Y-4.097
X1.618Y-4.125
X1.618Y-4.153
X1.62Y-3.886
X1.625Y-2.959
X1.635Y-2.561
X1.6352Y-2.832
X1.636Y-3.742
X1.636Y-3.77
X1.636Y-3.798
X1.64Y-2.67
X1.6444Y-3.9816
X1.648Y-3.886
X1.656Y-2.5
X1.657Y-2.896
X1.657Y-3.525
X1.657Y-3.553
X1.657Y-3.581
X1.657Y-3.609
X1.657Y-3.637
X1.657Y-3.665
X1.6632Y-2.832
X1.6642Y-3.9618
X1.6722Y-3.3248
X1.6728Y-2.561
X1.673Y-2.78
X1.681Y-3.511
X1.681Y-3.539
X1.681Y-3.567
X1.681Y-3.595
X1.681Y-3.623
X1.681Y-3.651
X1.681Y-3.679
X1.681Y-3.707
X1.684Y-3.942
X1.691Y-3.35
X1.694Y-2.5
X1.694Y-2.726
X1.696Y-2.851
X1.699Y-2.809
X1.7108Y-2.625
X1.712Y-3.069
X1.723Y-2.933
X1.7318Y-2.5
X1.732Y-2.858
X1.748Y-2.691
X1.748Y-3.914
X1.748Y-3.942
X1.75Y-3.53
X1.75Y-3.558
X1.75Y-3.586
X1.75Y-3.614
X1.75Y-3.642
X1.75Y-3.67
X1.75Y-3.698
X1.75Y-3.726
X1.75Y-3.754
X1.75Y-3.782
X1.75Y-3.83
X1.75Y-3.858
X1.75Y-3.886
X1.767Y-3.965
X1.769Y-2.74
X1.778Y-3.542
X1.778Y-3.57
X1.778Y-3.598
X1.778Y-3.626
X1.778Y-3.654
X1.778Y-3.682
X1.778Y-3.71
X1.778Y-3.738
X1.778Y-3.766
X1.778Y-3.794
X1.778Y-3.822
X1.778Y-3.85
X1.778Y-3.878
X1.778Y-3.906
X1.778Y-3.934
X1.781Y-2.979
X1.785Y-3.987
X1.799Y-3.292
X1.802Y-4.013
X1.802Y-4.041
X1.802Y-4.069
X1.802Y-4.097
X1.802Y-4.125
X1.802Y-4.153
X1.805Y-3.106
X1.805Y-3.4
X1.806Y-2.666
X1.806Y-3.738
X1.806Y-3.766
X1.806Y-3.794
X1.806Y-3.822
X1.806Y-3.85
X1.806Y-3.878
X1.806Y-3.906
X1.806Y-3.934
X1.806Y-3.962
X1.82Y-2.985
X1.823Y-3.234
X1.823Y-3.278
X1.8252Y-3.3802
X1.829Y-2.772
X1.83Y-4.013
X1.83Y-4.041
X1.83Y-4.069
X1.83Y-4.097
X1.83Y-4.125
X1.83Y-4.153
X1.837Y-2.665
X1.837Y-3.113
X1.84Y-2.964
X1.84Y-3.451
X1.845Y-3.4
X1.845Y-3.3604
X1.851Y-3.234
X1.851Y-3.278
X1.86Y-3.491
X1.861Y-2.829
X1.861Y-3.332
X1.8648Y-3.3802
X1.866Y-3.149
X1.867Y-2.779
X1.869Y-2.645
X1.871Y-3.183
X1.879Y-3.234
X1.879Y-3.278
X1.895Y-3.519
X1.899Y-2.703
X1.899Y-2.933
X1.899Y-3.305
X1.9Y-3.121
X1.903Y-2.89
X1.907Y-3.234
X1.907Y-3.278
X1.914Y-3.354
X1.916Y-3.04
X1.917Y-3.493
X1.923Y-2.964
X1.927Y-2.933
X1.931Y-2.89
X1.937Y-2.759
X1.946Y-3.531
X1.946Y-3.503
X1.946Y-3.559
X1.955Y-2.933
X1.959Y-2.89
X1.961Y-2.978
X1.963Y-3.234
X1.963Y-3.278
X1.97Y-3.461
X1.97Y-3.489
X1.97Y-3.517
X1.97Y-3.545
X1.972Y-2.658
X1.983Y-2.933
X1.987Y-2.89
X1.989Y-2.96
X1.991Y-3.234
X1.991Y-3.278
X1.994Y-3.531
X1.994Y-3.559
X2.015Y-2.89
X2.018Y-3.545
X2.019Y-3.234
X2.019Y-3.278
X2.041Y-2.724
X2.041Y-2.76
X2.041Y-2.822
X2.042Y-3.531
X2.045Y-3.048
X2.047Y-3.11
X2.047Y-3.278
X2.047Y-3.234
X2.064Y-2.791
X2.075Y-3.278
X2.075Y-3.234
X2.077Y-2.598
X2.081Y-3.089
X2.089Y-2.622
X2.099Y-2.876
X2.099Y-3.067
X2.103Y-3.278
X2.103Y-3.234
X2.115Y-2.772
X2.121Y-2.975
X2.131Y-3.278
X2.131Y-3.234
X2.132Y-2.679
X2.144Y-2.716
X2.151Y-2.933
X2.157Y-2.967
X2.159Y-3.278
X2.179Y-2.933
X2.194Y-2.89
X2.196Y-2.611
X2.201Y-3.32
X2.201Y-3.348
X2.201Y-3.46
X2.201Y-3.488
X2.207Y-2.933
X2.2132Y-3.5132
X2.222Y-2.89
X2.233Y-3.533
X2.235Y-2.933
X2.239Y-4.013
X2.239Y-4.041
X2.239Y-4.069
X2.239Y-4.097
X2.239Y-4.125
X2.239Y-4.153
X2.243Y-2.961
X2.25Y-2.292
X2.25Y-2.32
X2.25Y-2.348
X2.25Y-2.376
X2.25Y-2.404
X2.2528Y-3.5528
X2.267Y-4.013
X2.267Y-4.041
X2.267Y-4.069
X2.267Y-4.097
X2.267Y-4.125
X2.267Y-4.153
X2.2726Y-3.5726
X2.273Y-2.961
X2.278Y-2.292
X2.278Y-2.32
X2.278Y-2.348
X2.278Y-2.376
X2.278Y-2.404
X2.28Y-2.89
X2.2868Y-3.9892
X2.2914Y-3.0379
X2.2924Y-3.5924
X2.296Y-3.458
X2.303Y-2.933
X2.306Y-2.292
X2.306Y-2.32
X2.306Y-2.348
X2.306Y-2.376
X2.306Y-2.404
X2.3066Y-3.9694
X2.308Y-2.89
X2.3122Y-3.6122
X2.3148Y-3.4798
X2.315Y-2.971
X2.317Y-2.631
X2.317Y-3.936
X2.3205Y-3.208
X2.323Y-2.835
X2.325Y-2.4811
X2.325Y-2.5561
X2.3264Y-3.9076
X2.331Y-2.933
X2.332Y-3.632
X2.334Y-2.292
X2.334Y-2.32
X2.334Y-2.348
X2.334Y-2.376
X2.334Y-2.404
X2.3346Y-3.4996
X2.336Y-2.89
X2.343Y-2.971
X2.3462Y-3.8878
X2.3498Y-3.0356
X2.3544Y-3.5194
X2.356Y-2.434
X2.358Y-2.795
X2.358Y-2.825
X2.359Y-2.933
X2.363Y-2.757
X2.364Y-2.89
X2.366Y-3.868
X2.371Y-2.971
X2.371Y-3.278
X2.3742Y-3.5392
X2.377Y-3.042
X2.38Y-2.454
X2.38Y-2.482
X2.38Y-2.51
X2.381Y-2.393
X2.384Y-2.868
X2.387Y-2.933
X2.3894Y-3.4564
X2.394Y-3.559
X2.3978Y-3.1316
X2.399Y-2.971
X2.4025Y-3.2008
X2.4035Y-2.888
X2.405Y-3.042
X2.406Y-3.1021
X2.4092Y-3.4762
X2.41Y-2.835
X2.412Y-3.782
X2.4124Y-3.9694
X2.415Y-2.933
X2.419Y-3.265
X2.4214Y-3.9326
X2.424Y-2.859
X2.425Y-3.017
X2.427Y-2.971
X2.429Y-3.496
X2.4318Y-3.7622
X2.4322Y-3.9892
X2.4375Y-2.916
X2.4412Y-3.9128
X2.449Y-2.944
X2.4516Y-3.7424
X2.452Y-4.013
X2.452Y-4.041
X2.452Y-4.069
X2.452Y-4.097
X2.452Y-4.125
X2.452Y-4.153
X2.453Y-2.85
X2.453Y-3.017
X2.453Y-3.169
X2.455Y-2.971
X2.459Y-3.265
X2.4595Y-3.678
X2.4702Y-3.3772
X2.4714Y-3.7226
X2.4728Y-2.8302
X2.473Y-2.926
X2.478Y-3.85
X2.4798Y-2.7739
X2.48Y-4.013
X2.48Y-4.041
X2.48Y-4.069
X2.48Y-4.097
X2.48Y-4.125
X2.48Y-4.153
X2.483Y-2.971
X2.487Y-3.265
X2.4898Y-3.3968
X2.4945Y-3.2008
X2.4946Y-3.4386
X2.4978Y-3.8302
X2.5012Y-3.7288
X2.5044Y-2.9316
X2.5144Y-3.4584
X2.515Y-3.265
X2.5176Y-3.8104
X2.518Y-3.364
X2.521Y-3.709
X2.5242Y-2.9118
X2.527Y-3.765
X2.5272Y-3.426
X2.5342Y-3.4782
X2.5374Y-3.7906
X2.538Y-2.83
X2.538Y-2.858
X2.5392Y-2.7748
X2.543Y-3.265
X2.544Y-2.892
X2.5468Y-3.7452
X2.5505Y-3.4039
X2.554Y-3.498
X2.5606Y-3.3706
X2.561Y-3.169
X2.562Y-2.809
X2.5718Y-3.2432
X2.5725Y-3.698
X2.573Y-3.726
X2.5804Y-3.3904
X2.5916Y-3.2234
X2.5972Y-3.7462
X2.5983Y-3.061
X2.6002Y-3.4102
X2.6056Y-3.7916
X2.606Y-3.168
X2.606Y-3.196
X2.607Y-3.464
X2.607Y-3.492
X2.617Y-3.766
X2.62Y-3.43
X2.624Y-3.704
X2.6254Y-3.8114
X2.635Y-3.1254
X2.637Y-2.3931
X2.638Y-2.454
X2.638Y-2.482
X2.638Y-2.51
X2.642Y-3.73
X2.6452Y-3.8312
X2.65Y-3.157
X2.652Y-3.704
X2.6548Y-3.1056
X2.662Y-2.434
X2.6637Y-2.7557
X2.665Y-3.851
X2.671Y-3.34
X2.671Y-3.368
X2.671Y-3.396
X2.671Y-3.424
X2.671Y-3.452
X2.671Y-3.48
X2.6726Y-3.7246
X2.6746Y-3.0858
X2.6746Y-3.1254
X2.684Y-2.292
X2.684Y-2.32
X2.684Y-2.348
X2.684Y-2.376
X2.684Y-2.404
X2.691Y-2.744
X2.6924Y-3.7444
X2.694Y-2.57
X2.6944Y-3.066
X2.6944Y-3.1056
X2.698Y-3.009
X2.706Y-2.643
X2.708Y-3.704
X2.712Y-2.292
X2.712Y-2.32
X2.712Y-2.348
X2.712Y-2.376
X2.712Y-2.404
X2.7122Y-3.7642
X2.713Y-2.761
X2.7142Y-3.0858
X2.732Y-3.784
X2.732Y-4.013
X2.732Y-4.041
X2.732Y-4.069
X2.732Y-4.097
X2.732Y-4.125
X2.732Y-4.153
X2.7328Y-2.7808
X2.734Y-2.663
X2.736Y-3.704
X2.74Y-2.292
X2.74Y-2.32
X2.74Y-2.348
X2.74Y-2.376
X2.74Y-2.404
X2.751Y-3.895
X2.7524Y-2.8004
X2.7556Y-2.7426
X2.76Y-4.013
X2.76Y-4.041
X2.76Y-4.069
X2.76Y-4.097
X2.76Y-4.125
X2.76Y-4.153
X2.764Y-3.282
X2.764Y-3.31
X2.764Y-3.338
X2.764Y-3.366
X2.764Y-3.394
X2.764Y-3.45
X2.764Y-3.478
X2.764Y-3.704
X2.768Y-2.292
X2.768Y-2.32
X2.768Y-2.348
X2.768Y-2.376
X2.768Y-2.404
X2.7686Y-3.5614
X2.7708Y-3.9148
X2.7722Y-2.8202
X2.777Y-3.256
X2.7798Y-3.9892
X2.784Y-2.553
X2.7884Y-3.5416
X2.7906Y-3.9346
X2.791Y-3.232
X2.791Y-3.69
X2.792Y-2.84
X2.793Y-2.722
X2.7978Y-3.8218
X2.7996Y-3.9694
X2.8082Y-3.5218
X2.811Y-2.872
X2.812Y-2.553
X2.815Y-2.802
X2.8176Y-3.8416
X2.824Y-3.195
X2.824Y-3.223
X2.824Y-3.251
X2.828Y-3.502
X2.8286Y-3.6364
X2.8318Y-3.0472
X2.833Y-2.852
X2.8348Y-2.8218
X2.8374Y-3.8614
X2.84Y-2.553
X2.8484Y-3.6166
X2.857Y-3.299
X2.857Y-3.327
X2.857Y-3.355
X2.857Y-3.383
X2.857Y-3.411
X2.857Y-3.439
X2.857Y-3.467
X2.8572Y-3.8812
X2.868Y-2.553
X2.8682Y-3.5968
X2.8685Y-3.001
X2.877Y-3.901
X2.888Y-3.577
X2.896Y-2.978
X2.8968Y-3.9208
X2.9054Y-3.9694
X2.907Y-2.661
X2.907Y-2.689
X2.9078Y-3.5572
X2.911Y-2.544
X2.911Y-2.572
X2.911Y-2.6
X2.911Y-2.628
X2.923Y-2.978
X2.9252Y-3.9892
X2.9276Y-3.5374
X2.931Y-2.647
X2.931Y-2.675
X2.931Y-2.703
X2.935Y-2.53
X2.935Y-2.558
X2.935Y-2.586
X2.935Y-2.614
X2.945Y-4.013
X2.945Y-4.041
X2.945Y-4.069
X2.945Y-4.097
X2.945Y-4.125
X2.945Y-4.153
X2.9474Y-3.5176
X2.952Y-3.321
X2.952Y-3.349
X2.952Y-3.377
X2.952Y-3.405
X2.952Y-3.433
X2.952Y-3.461
X2.952Y-3.489
X2.959Y-3.004
X2.959Y-2.638
X2.9691Y-3.0349
X2.973Y-4.013
X2.973Y-4.041
X2.973Y-4.069
X2.973Y-4.097
X2.973Y-4.125
X2.973Y-4.153
X2.994Y-2.518
X2.994Y-2.546
X2.997Y-3.195
X2.997Y-3.223
X2.997Y-3.251
X2.997Y-3.279
X3.02Y-3.004
X3.022Y-2.518
X3.022Y-2.546
X3.031Y-3.19
X3.048Y-3.483
X3.048Y-3.511
X3.048Y-3.539
X3.048Y-3.567
X3.048Y-3.595
X3.048Y-3.623
X3.048Y-3.651
X3.0598Y-3.1772
X3.076Y-3.483
X3.076Y-3.511
X3.076Y-3.539
X3.076Y-3.567
X3.076Y-3.595
X3.076Y-3.623
X3.076Y-3.651
X3.078Y-3.386
X3.078Y-3.414
X3.078Y-3.442
X3.0796Y-3.1574
X3.098Y-2.926
X3.0994Y-3.1376
X3.102Y-3.372
X3.102Y-3.4
X3.102Y-3.428
X3.104Y-3.483
X3.104Y-3.511
X3.104Y-3.539
X3.104Y-3.567
X3.104Y-3.595
X3.104Y-3.623
X3.104Y-3.651
X3.1192Y-3.1178
X3.126Y-3.414
X3.126Y-3.442
X3.126Y-3.386
X3.132Y-3.483
X3.132Y-3.511
X3.132Y-3.539
X3.132Y-3.567
X3.132Y-3.595
X3.132Y-3.623
X3.132Y-3.651
X3.139Y-3.098
X3.14Y-2.906
X3.151Y-2.933
X3.151Y-2.961
X3.151Y-2.989
X3.151Y-3.017
X3.151Y-3.045
X3.151Y-3.073
T2
X1.6713Y-3.7839
X1.6713Y-3.8331
X1.7205Y-3.7839
X1.7205Y-3.8331
X2.2813Y-3.0923
X2.2813Y-3.1316
X2.2813Y-3.171
X2.3207Y-3.0923
X2.3207Y-3.1316
X2.3207Y-3.171
X2.36Y-3.0923
X2.36Y-3.1316
X2.36Y-3.171
X2.4089Y-2.543
X2.4089Y-2.5932
X2.4089Y-2.6434
X2.4089Y-2.6936
X2.4089Y-2.7438
X2.4591Y-2.543
X2.4591Y-2.5932
X2.4591Y-2.6434
X2.4591Y-2.6936
X2.4591Y-2.7438
X2.5093Y-2.543
X2.5093Y-2.5932
X2.5093Y-2.6434
X2.5093Y-2.6936
X2.5093Y-2.7438
X2.5431Y-3.5568
X2.5431Y-3.5962
X2.5431Y-3.6355
X2.5595Y-2.543
X2.5595Y-2.5932
X2.5595Y-2.6434
X2.5595Y-2.6936
X2.5595Y-2.7438
X2.5824Y-3.5568
X2.5824Y-3.5962
X2.5824Y-3.6355
X2.6097Y-2.543
X2.6097Y-2.5932
X2.6097Y-2.6434
X2.6097Y-2.6936
X2.6097Y-2.7438
X2.6218Y-3.5568
X2.6218Y-3.5962
X2.6218Y-3.6355
X2.8598Y-3.0892
X2.8877Y-3.0614
X2.8877Y-3.117
X2.9155Y-3.0335
X2.9155Y-3.0892
X2.9155Y-3.1449
X2.9433Y-3.0614
X2.9433Y-3.117
X2.9712Y-3.0892
T3
X1.368Y-3.729
X1.419Y-3.799
X1.495Y-3.818
X1.503Y-2.743
X1.531Y-3.432
X1.56Y-2.96
X1.571Y-3.873
X1.5722Y-3.9108
X1.645Y-3.389
X1.6914Y-3.4824
X1.735Y-2.753
X1.7414Y-3.4824
X1.7694Y-2.828
X1.7914Y-3.4824
X1.801Y-3.338
X1.869Y-3.011
X1.909Y-3.394
X1.968Y-2.857
X2.01Y-2.623
X2.152Y-2.832
X2.158Y-2.571
X2.291Y-2.568
X2.346Y-2.673
X2.3775Y-3.811
X2.413Y-3.8467
X2.4165Y-3.705
X2.4485Y-3.882
X2.4745Y-3.636
X2.618Y-2.868
X2.6665Y-3.0251
X2.6845Y-3.635
X2.6945Y-3.884
X2.6985Y-3.561
X2.7105Y-3.674
X2.7299Y-3.849
X2.7415Y-2.568
X2.743Y-2.487
X2.75Y-3.053
X2.7655Y-3.814
X2.773Y-3.177
X2.976Y-3.15
X2.985Y-2.756
T4
X1.6033Y-3.1683
X1.6033Y-3.2257
X1.6533Y-3.1183
X1.6533Y-3.1683
X1.6533Y-3.2257
X1.6533Y-3.2757
X1.7096Y-3.2757
X1.7107Y-3.1183
X1.7107Y-3.1683
X1.7107Y-3.2257
X1.7607Y-3.1683
X1.7607Y-3.2257
T5
X1.476Y-2.511
X2.011Y-3.354
X2.4345Y-3.527
X2.664Y-2.671
X2.7261Y-3.5044
T6
X1.5725Y-3.9785
X1.8475Y-3.9785
X2.222Y-3.9785
X2.497Y-3.9785
X2.715Y-3.9785
X2.99Y-3.9785
T7
X2.008Y-2.279
X2.058Y-2.279
X2.108Y-2.279
X2.158Y-2.279
T8
X1.376Y-2.29
X1.376Y-2.39
X1.376Y-3.47
X1.376Y-3.57
X1.476Y-2.29
X1.476Y-2.39
X1.576Y-2.29
X1.576Y-2.39
X1.676Y-2.29
X1.676Y-2.39
X1.776Y-2.29
X1.776Y-2.39
X1.876Y-2.29
X1.876Y-2.39
X3.11Y-2.292
X3.11Y-2.392
X3.11Y-2.492
T9
X2.038Y-3.859
X2.879Y-2.38
X3.058Y-3.759
T0
M30
