%TF.GenerationSoftware,KiCad,Pcbnew,(6.0.4)*%
%TF.CreationDate,2023-05-30T00:11:29+09:00*%
%TF.ProjectId,BajieHeader,42616a69-6548-4656-9164-65722e6b6963,rev?*%
%TF.SameCoordinates,Original*%
%TF.FileFunction,Paste,Top*%
%TF.FilePolarity,Positive*%
%FSLAX46Y46*%
G04 Gerber Fmt 4.6, Leading zero omitted, Abs format (unit mm)*
G04 Created by KiCad (PCBNEW (6.0.4)) date 2023-05-30 00:11:29*
%MOMM*%
%LPD*%
G01*
G04 APERTURE LIST*
G04 Aperture macros list*
%AMRoundRect*
0 Rectangle with rounded corners*
0 $1 Rounding radius*
0 $2 $3 $4 $5 $6 $7 $8 $9 X,Y pos of 4 corners*
0 Add a 4 corners polygon primitive as box body*
4,1,4,$2,$3,$4,$5,$6,$7,$8,$9,$2,$3,0*
0 Add four circle primitives for the rounded corners*
1,1,$1+$1,$2,$3*
1,1,$1+$1,$4,$5*
1,1,$1+$1,$6,$7*
1,1,$1+$1,$8,$9*
0 Add four rect primitives between the rounded corners*
20,1,$1+$1,$2,$3,$4,$5,0*
20,1,$1+$1,$4,$5,$6,$7,0*
20,1,$1+$1,$6,$7,$8,$9,0*
20,1,$1+$1,$8,$9,$2,$3,0*%
G04 Aperture macros list end*
%ADD10RoundRect,0.140000X-0.140000X-0.170000X0.140000X-0.170000X0.140000X0.170000X-0.140000X0.170000X0*%
%ADD11RoundRect,0.135000X-0.135000X-0.185000X0.135000X-0.185000X0.135000X0.185000X-0.135000X0.185000X0*%
%ADD12RoundRect,0.225000X-0.250000X0.225000X-0.250000X-0.225000X0.250000X-0.225000X0.250000X0.225000X0*%
%ADD13RoundRect,0.140000X0.170000X-0.140000X0.170000X0.140000X-0.170000X0.140000X-0.170000X-0.140000X0*%
%ADD14RoundRect,0.150000X-0.512500X-0.150000X0.512500X-0.150000X0.512500X0.150000X-0.512500X0.150000X0*%
%ADD15RoundRect,0.150000X0.150000X-0.512500X0.150000X0.512500X-0.150000X0.512500X-0.150000X-0.512500X0*%
%ADD16RoundRect,0.225000X0.225000X0.250000X-0.225000X0.250000X-0.225000X-0.250000X0.225000X-0.250000X0*%
%ADD17RoundRect,0.135000X-0.185000X0.135000X-0.185000X-0.135000X0.185000X-0.135000X0.185000X0.135000X0*%
%ADD18RoundRect,0.140000X0.140000X0.170000X-0.140000X0.170000X-0.140000X-0.170000X0.140000X-0.170000X0*%
%ADD19R,2.800000X1.175000*%
%ADD20R,1.175000X2.800000*%
%ADD21RoundRect,0.135000X0.185000X-0.135000X0.185000X0.135000X-0.185000X0.135000X-0.185000X-0.135000X0*%
%ADD22RoundRect,0.150000X-0.150000X0.825000X-0.150000X-0.825000X0.150000X-0.825000X0.150000X0.825000X0*%
%ADD23R,1.100000X0.300000*%
%ADD24R,3.100000X2.300000*%
G04 APERTURE END LIST*
D10*
%TO.C,C15*%
X99926200Y-99898200D03*
X100886200Y-99898200D03*
%TD*%
D11*
%TO.C,R3*%
X94130400Y-105105200D03*
X95150400Y-105105200D03*
%TD*%
D12*
%TO.C,C16*%
X92786200Y-102222000D03*
X92786200Y-103772000D03*
%TD*%
D13*
%TO.C,C6*%
X87020401Y-112851599D03*
X87020401Y-111891599D03*
%TD*%
D14*
%TO.C,U2*%
X97668500Y-109768600D03*
X97668500Y-110718600D03*
X97668500Y-111668600D03*
X99943500Y-111668600D03*
X99943500Y-110718600D03*
X99943500Y-109768600D03*
%TD*%
D15*
%TO.C,U1*%
X88331000Y-114652100D03*
X89281000Y-114652100D03*
X90231000Y-114652100D03*
X90231000Y-112377100D03*
X89281000Y-112377100D03*
X88331000Y-112377100D03*
%TD*%
D10*
%TO.C,C7*%
X98961000Y-108458000D03*
X99921000Y-108458000D03*
%TD*%
D12*
%TO.C,C4*%
X91795600Y-113093200D03*
X91795600Y-114643200D03*
%TD*%
D16*
%TO.C,C17*%
X96304400Y-99669600D03*
X94754400Y-99669600D03*
%TD*%
D11*
%TO.C,R5*%
X94943200Y-98374200D03*
X95963200Y-98374200D03*
%TD*%
D17*
%TO.C,R6*%
X97586800Y-98956400D03*
X97586800Y-99976400D03*
%TD*%
D16*
%TO.C,C3*%
X100139800Y-104698800D03*
X98589800Y-104698800D03*
%TD*%
D17*
%TO.C,R4*%
X96316800Y-105382600D03*
X96316800Y-106402600D03*
%TD*%
D12*
%TO.C,C11*%
X84963001Y-117260799D03*
X84963001Y-118810799D03*
%TD*%
D11*
%TO.C,R2*%
X84580000Y-116001800D03*
X85600000Y-116001800D03*
%TD*%
D13*
%TO.C,C8*%
X100076000Y-89735600D03*
X100076000Y-88775600D03*
%TD*%
D14*
%TO.C,U4*%
X98608300Y-101208800D03*
X98608300Y-102158800D03*
X98608300Y-103108800D03*
X100883300Y-103108800D03*
X100883300Y-102158800D03*
X100883300Y-101208800D03*
%TD*%
D18*
%TO.C,C14*%
X84604800Y-59410600D03*
X83644800Y-59410600D03*
%TD*%
D16*
%TO.C,C5*%
X99403200Y-113258600D03*
X97853200Y-113258600D03*
%TD*%
D19*
%TO.C,L1*%
X89281000Y-116643500D03*
X89281000Y-118818500D03*
%TD*%
D16*
%TO.C,C12*%
X95059801Y-106400599D03*
X93509801Y-106400599D03*
%TD*%
D20*
%TO.C,L3*%
X96616900Y-102158800D03*
X94441900Y-102158800D03*
%TD*%
D16*
%TO.C,C10*%
X95059801Y-107950000D03*
X93509801Y-107950000D03*
%TD*%
D21*
%TO.C,R1*%
X83667600Y-118621999D03*
X83667600Y-117601999D03*
%TD*%
D12*
%TO.C,C9*%
X86512400Y-117260799D03*
X86512400Y-118810799D03*
%TD*%
D20*
%TO.C,L2*%
X95677100Y-110718600D03*
X93502100Y-110718600D03*
%TD*%
D22*
%TO.C,U3*%
X98729800Y-88279200D03*
X97459800Y-88279200D03*
X96189800Y-88279200D03*
X94919800Y-88279200D03*
X94919800Y-93229200D03*
X96189800Y-93229200D03*
X97459800Y-93229200D03*
X98729800Y-93229200D03*
%TD*%
D23*
%TO.C,J2*%
X88439000Y-77410000D03*
X88439000Y-76910000D03*
X88439000Y-76410000D03*
X88439000Y-75910000D03*
X88439000Y-75410000D03*
X88439000Y-74910000D03*
X88439000Y-74410000D03*
X88439000Y-73910000D03*
X88439000Y-73410000D03*
X88439000Y-72910000D03*
X88439000Y-72410000D03*
X88439000Y-71910000D03*
X88439000Y-71410000D03*
X88439000Y-70910000D03*
X88439000Y-70410000D03*
X88439000Y-69910000D03*
D24*
X90139000Y-79080000D03*
X90139000Y-68240000D03*
%TD*%
M02*
