%TF.GenerationSoftware,KiCad,Pcbnew,(6.0.4)*%
%TF.CreationDate,2023-05-30T00:11:29+09:00*%
%TF.ProjectId,BajieHeader,42616a69-6548-4656-9164-65722e6b6963,rev?*%
%TF.SameCoordinates,Original*%
%TF.FileFunction,Legend,Top*%
%TF.FilePolarity,Positive*%
%FSLAX46Y46*%
G04 Gerber Fmt 4.6, Leading zero omitted, Abs format (unit mm)*
G04 Created by KiCad (PCBNEW (6.0.4)) date 2023-05-30 00:11:29*
%MOMM*%
%LPD*%
G01*
G04 APERTURE LIST*
%ADD10C,0.120000*%
G04 APERTURE END LIST*
D10*
%TO.C,C15*%
X100298364Y-100258200D02*
X100514036Y-100258200D01*
X100298364Y-99538200D02*
X100514036Y-99538200D01*
%TO.C,R3*%
X94486759Y-104725200D02*
X94794041Y-104725200D01*
X94486759Y-105485200D02*
X94794041Y-105485200D01*
%TO.C,C16*%
X92276200Y-102856420D02*
X92276200Y-103137580D01*
X93296200Y-102856420D02*
X93296200Y-103137580D01*
%TO.C,C6*%
X87380401Y-112479435D02*
X87380401Y-112263763D01*
X86660401Y-112479435D02*
X86660401Y-112263763D01*
%TO.C,U2*%
X98806000Y-112278600D02*
X99606000Y-112278600D01*
X98806000Y-109158600D02*
X99606000Y-109158600D01*
X98806000Y-109158600D02*
X97006000Y-109158600D01*
X98806000Y-112278600D02*
X98006000Y-112278600D01*
%TO.C,U1*%
X87721000Y-113514600D02*
X87721000Y-112714600D01*
X87721000Y-113514600D02*
X87721000Y-115314600D01*
X90841000Y-113514600D02*
X90841000Y-114314600D01*
X90841000Y-113514600D02*
X90841000Y-112714600D01*
%TO.C,C7*%
X99333164Y-108818000D02*
X99548836Y-108818000D01*
X99333164Y-108098000D02*
X99548836Y-108098000D01*
%TO.C,J7*%
X88814600Y-110626200D02*
X91474600Y-110626200D01*
X91474600Y-105486200D02*
X91474600Y-110626200D01*
X88814600Y-105486200D02*
X91474600Y-105486200D01*
X88814600Y-104216200D02*
X88814600Y-102886200D01*
X88814600Y-105486200D02*
X88814600Y-110626200D01*
X88814600Y-102886200D02*
X90144600Y-102886200D01*
%TO.C,C4*%
X91285600Y-113727620D02*
X91285600Y-114008780D01*
X92305600Y-113727620D02*
X92305600Y-114008780D01*
%TO.C,J6*%
X102085330Y-98053200D02*
X102887800Y-98053200D01*
X100667800Y-92788200D02*
X101777800Y-92788200D01*
X100667800Y-94308200D02*
X100667800Y-98053200D01*
X102887800Y-94308200D02*
X102887800Y-98053200D01*
X100667800Y-94308200D02*
X101214329Y-94308200D01*
X100667800Y-98053200D02*
X101470270Y-98053200D01*
X102341271Y-94308200D02*
X102887800Y-94308200D01*
X100667800Y-93548200D02*
X100667800Y-92788200D01*
%TO.C,C17*%
X95669980Y-99159600D02*
X95388820Y-99159600D01*
X95669980Y-100179600D02*
X95388820Y-100179600D01*
%TO.C,R5*%
X95299559Y-97994200D02*
X95606841Y-97994200D01*
X95299559Y-98754200D02*
X95606841Y-98754200D01*
%TO.C,R6*%
X97206800Y-99312759D02*
X97206800Y-99620041D01*
X97966800Y-99312759D02*
X97966800Y-99620041D01*
%TO.C,C3*%
X99505380Y-105208800D02*
X99224220Y-105208800D01*
X99505380Y-104188800D02*
X99224220Y-104188800D01*
%TO.C,J1*%
X77405000Y-55825000D02*
X78735000Y-55825000D01*
X80005000Y-58425000D02*
X80005000Y-55825000D01*
X77405000Y-119445000D02*
X82605000Y-119445000D01*
X77405000Y-58425000D02*
X77405000Y-119445000D01*
X82605000Y-55825000D02*
X82605000Y-119445000D01*
X77405000Y-58425000D02*
X80005000Y-58425000D01*
X80005000Y-55825000D02*
X82605000Y-55825000D01*
X77405000Y-57155000D02*
X77405000Y-55825000D01*
%TO.C,R4*%
X95936800Y-105738959D02*
X95936800Y-106046241D01*
X96696800Y-105738959D02*
X96696800Y-106046241D01*
%TO.C,J3*%
X93069800Y-81855000D02*
X93069800Y-97215000D01*
X87869800Y-97215000D02*
X93069800Y-97215000D01*
X87869800Y-84455000D02*
X87869800Y-97215000D01*
X87869800Y-83185000D02*
X87869800Y-81855000D01*
X90469800Y-84455000D02*
X90469800Y-81855000D01*
X87869800Y-81855000D02*
X89199800Y-81855000D01*
X87869800Y-84455000D02*
X90469800Y-84455000D01*
X90469800Y-81855000D02*
X93069800Y-81855000D01*
%TO.C,C11*%
X84453001Y-117895219D02*
X84453001Y-118176379D01*
X85473001Y-117895219D02*
X85473001Y-118176379D01*
%TO.C,R2*%
X84936359Y-116381800D02*
X85243641Y-116381800D01*
X84936359Y-115621800D02*
X85243641Y-115621800D01*
%TO.C,C8*%
X99716000Y-89363436D02*
X99716000Y-89147764D01*
X100436000Y-89363436D02*
X100436000Y-89147764D01*
%TO.C,U4*%
X99745800Y-103718800D02*
X100545800Y-103718800D01*
X99745800Y-103718800D02*
X98945800Y-103718800D01*
X99745800Y-100598800D02*
X97945800Y-100598800D01*
X99745800Y-100598800D02*
X100545800Y-100598800D01*
%TO.C,C14*%
X84232636Y-59770600D02*
X84016964Y-59770600D01*
X84232636Y-59050600D02*
X84016964Y-59050600D01*
%TO.C,J5*%
X90474800Y-98288800D02*
X87874800Y-98288800D01*
X93074800Y-98288800D02*
X93074800Y-99618800D01*
X87874800Y-98288800D02*
X87874800Y-100948800D01*
X91744800Y-98288800D02*
X93074800Y-98288800D01*
X90474800Y-98288800D02*
X90474800Y-100948800D01*
X90474800Y-100948800D02*
X87874800Y-100948800D01*
%TO.C,C5*%
X98768780Y-112748600D02*
X98487620Y-112748600D01*
X98768780Y-113768600D02*
X98487620Y-113768600D01*
%TO.C,L1*%
X87381000Y-119731000D02*
X87381000Y-115731000D01*
X87381000Y-115731000D02*
X90381000Y-115731000D01*
X91181000Y-119731000D02*
X87381000Y-119731000D01*
X91181000Y-116531000D02*
X91181000Y-119731000D01*
X90381000Y-115731000D02*
X91181000Y-116531000D01*
%TO.C,C12*%
X94425381Y-105890599D02*
X94144221Y-105890599D01*
X94425381Y-106910599D02*
X94144221Y-106910599D01*
%TO.C,L3*%
X97529400Y-100258800D02*
X97529400Y-103258800D01*
X97529400Y-103258800D02*
X96729400Y-104058800D01*
X93529400Y-104058800D02*
X93529400Y-100258800D01*
X96729400Y-104058800D02*
X93529400Y-104058800D01*
X93529400Y-100258800D02*
X97529400Y-100258800D01*
%TO.C,C10*%
X94425381Y-108460000D02*
X94144221Y-108460000D01*
X94425381Y-107440000D02*
X94144221Y-107440000D01*
%TO.C,R1*%
X83287600Y-118265640D02*
X83287600Y-117958358D01*
X84047600Y-118265640D02*
X84047600Y-117958358D01*
%TO.C,C9*%
X86002400Y-117895219D02*
X86002400Y-118176379D01*
X87022400Y-117895219D02*
X87022400Y-118176379D01*
%TO.C,J4*%
X93132600Y-116281200D02*
X95792600Y-116281200D01*
X93132600Y-118881200D02*
X95792600Y-118881200D01*
X93132600Y-115011200D02*
X93132600Y-113681200D01*
X95792600Y-116281200D02*
X95792600Y-118881200D01*
X93132600Y-116281200D02*
X93132600Y-118881200D01*
X93132600Y-113681200D02*
X94462600Y-113681200D01*
%TO.C,L2*%
X95789600Y-112618600D02*
X92589600Y-112618600D01*
X96589600Y-111818600D02*
X95789600Y-112618600D01*
X92589600Y-112618600D02*
X92589600Y-108818600D01*
X92589600Y-108818600D02*
X96589600Y-108818600D01*
X96589600Y-108818600D02*
X96589600Y-111818600D01*
%TO.C,U3*%
X99384800Y-90754200D02*
X99384800Y-92704200D01*
X99384800Y-90754200D02*
X99384800Y-87304200D01*
X94264800Y-90754200D02*
X94264800Y-92704200D01*
X94264800Y-90754200D02*
X94264800Y-88804200D01*
%TO.C,J2*%
X89639000Y-77410000D02*
X89239000Y-77210000D01*
X91829000Y-66835000D02*
X92429000Y-66835000D01*
X89239000Y-77610000D02*
X89639000Y-77410000D01*
X91829000Y-80485000D02*
X92429000Y-80485000D01*
X91829000Y-80375000D02*
X91829000Y-80485000D01*
X91829000Y-66945000D02*
X91829000Y-66835000D01*
X89239000Y-77210000D02*
X89239000Y-77610000D01*
%TD*%
M02*
