M48
; DRILL file {KiCad (6.0.4)} date Tue May 30 00:11:33 2023
; FORMAT={-:-/ absolute / inch / decimal}
; #@! TF.CreationDate,2023-05-30T00:11:33+09:00
; #@! TF.GenerationSoftware,Kicad,Pcbnew,(6.0.4)
; #@! TF.FileFunction,Plated,1,2,PTH
FMAT,2
INCH
; #@! TA.AperFunction,Plated,PTH,ViaDrill
T1C0.0118
; #@! TA.AperFunction,Plated,PTH,ViaDrill
T2C0.0157
; #@! TA.AperFunction,Plated,PTH,ComponentDrill
T3C0.0256
; #@! TA.AperFunction,Plated,PTH,ComponentDrill
T4C0.0394
; #@! TA.AperFunction,Plated,PTH,ComponentDrill
T5C0.0866
%
G90
G05
T1
X3.282Y-3.208
X3.325Y-2.561
X3.327Y-3.158
X3.354Y-4.616
X3.382Y-4.344
X3.382Y-4.406
X3.382Y-4.567
X3.404Y-4.503
X3.406Y-4.616
X3.426Y-4.4431
X3.449Y-4.546
X3.455Y-3.065
X3.478Y-4.473
X3.488Y-2.641
X3.488Y-3.093
X3.488Y-3.153
X3.49Y-2.726
X3.515Y-4.407
X3.515Y-4.5699
X3.521Y-2.768
X3.521Y-3.032
X3.523Y-4.05
X3.593Y-4.561
X3.61Y-2.641
X3.61Y-2.732
X3.61Y-3.068
X3.61Y-3.153
X3.614Y-4.413
X3.616Y-4.05
X3.617Y-4.621
X3.683Y-2.767
X3.683Y-3.032
X3.725Y-3.455
X3.743Y-4.189
X3.743Y-4.256
X3.771Y-4.222
X3.789Y-4.359
X3.805Y-4.189
X3.806Y-3.934
X3.817Y-3.556
X3.817Y-4.288
X3.827Y-4.022
X3.836Y-3.716
X3.837Y-3.643
X3.856Y-3.937
X3.882Y-4.322
X3.886Y-4.27
X3.914Y-4.459
X3.915Y-3.988
X3.919Y-4.359
X3.934Y-3.933
X3.94Y-3.533
X3.942Y-4.489
X3.952Y-4.022
X3.958Y-4.115
T2
X3.851Y-4.427
X3.881Y-4.098
X3.887Y-3.598
T3
X4.007Y-3.683
X4.007Y-3.733
X4.007Y-3.783
X4.007Y-3.833
T4
X3.0998Y-2.2502
X3.0998Y-2.3502
X3.0998Y-2.4502
X3.0998Y-2.5502
X3.0998Y-2.6502
X3.0998Y-2.7502
X3.0998Y-2.8502
X3.0998Y-2.9502
X3.0998Y-3.0502
X3.0998Y-3.1502
X3.0998Y-3.2502
X3.0998Y-3.3502
X3.0998Y-3.4502
X3.0998Y-3.5502
X3.0998Y-3.6502
X3.0998Y-3.7502
X3.0998Y-3.8502
X3.0998Y-3.9502
X3.0998Y-4.0502
X3.0998Y-4.1502
X3.0998Y-4.2502
X3.0998Y-4.3502
X3.0998Y-4.4502
X3.0998Y-4.5502
X3.0998Y-4.6502
X3.1998Y-2.2502
X3.1998Y-2.3502
X3.1998Y-2.4502
X3.1998Y-2.5502
X3.1998Y-2.6502
X3.1998Y-2.7502
X3.1998Y-2.8502
X3.1998Y-2.9502
X3.1998Y-3.0502
X3.1998Y-3.1502
X3.1998Y-3.2502
X3.1998Y-3.3502
X3.1998Y-3.4502
X3.1998Y-3.5502
X3.1998Y-3.6502
X3.1998Y-3.7502
X3.1998Y-3.8502
X3.1998Y-3.9502
X3.1998Y-4.0502
X3.1998Y-4.1502
X3.1998Y-4.2502
X3.1998Y-4.3502
X3.1998Y-4.4502
X3.1998Y-4.5502
X3.1998Y-4.6502
X3.5118Y-3.275
X3.5118Y-3.375
X3.5118Y-3.475
X3.5118Y-3.575
X3.5118Y-3.675
X3.5118Y-3.775
X3.512Y-3.922
X3.549Y-4.103
X3.549Y-4.203
X3.549Y-4.303
X3.6118Y-3.275
X3.6118Y-3.375
X3.6118Y-3.475
X3.6118Y-3.575
X3.6118Y-3.675
X3.6118Y-3.775
X3.612Y-3.922
X3.719Y-4.528
X3.719Y-4.628
T5
X3.521Y-2.319
X3.928Y-4.615
T0
M30
