%TF.GenerationSoftware,KiCad,Pcbnew,(6.0.4)*%
%TF.CreationDate,2023-05-30T00:11:29+09:00*%
%TF.ProjectId,BajieHeader,42616a69-6548-4656-9164-65722e6b6963,rev?*%
%TF.SameCoordinates,Original*%
%TF.FileFunction,Copper,L1,Top*%
%TF.FilePolarity,Positive*%
%FSLAX46Y46*%
G04 Gerber Fmt 4.6, Leading zero omitted, Abs format (unit mm)*
G04 Created by KiCad (PCBNEW (6.0.4)) date 2023-05-30 00:11:29*
%MOMM*%
%LPD*%
G01*
G04 APERTURE LIST*
G04 Aperture macros list*
%AMRoundRect*
0 Rectangle with rounded corners*
0 $1 Rounding radius*
0 $2 $3 $4 $5 $6 $7 $8 $9 X,Y pos of 4 corners*
0 Add a 4 corners polygon primitive as box body*
4,1,4,$2,$3,$4,$5,$6,$7,$8,$9,$2,$3,0*
0 Add four circle primitives for the rounded corners*
1,1,$1+$1,$2,$3*
1,1,$1+$1,$4,$5*
1,1,$1+$1,$6,$7*
1,1,$1+$1,$8,$9*
0 Add four rect primitives between the rounded corners*
20,1,$1+$1,$2,$3,$4,$5,0*
20,1,$1+$1,$4,$5,$6,$7,0*
20,1,$1+$1,$6,$7,$8,$9,0*
20,1,$1+$1,$8,$9,$2,$3,0*%
G04 Aperture macros list end*
%TA.AperFunction,SMDPad,CuDef*%
%ADD10RoundRect,0.140000X-0.140000X-0.170000X0.140000X-0.170000X0.140000X0.170000X-0.140000X0.170000X0*%
%TD*%
%TA.AperFunction,SMDPad,CuDef*%
%ADD11RoundRect,0.135000X-0.135000X-0.185000X0.135000X-0.185000X0.135000X0.185000X-0.135000X0.185000X0*%
%TD*%
%TA.AperFunction,SMDPad,CuDef*%
%ADD12RoundRect,0.225000X-0.250000X0.225000X-0.250000X-0.225000X0.250000X-0.225000X0.250000X0.225000X0*%
%TD*%
%TA.AperFunction,SMDPad,CuDef*%
%ADD13RoundRect,0.140000X0.170000X-0.140000X0.170000X0.140000X-0.170000X0.140000X-0.170000X-0.140000X0*%
%TD*%
%TA.AperFunction,SMDPad,CuDef*%
%ADD14RoundRect,0.150000X-0.512500X-0.150000X0.512500X-0.150000X0.512500X0.150000X-0.512500X0.150000X0*%
%TD*%
%TA.AperFunction,SMDPad,CuDef*%
%ADD15RoundRect,0.150000X0.150000X-0.512500X0.150000X0.512500X-0.150000X0.512500X-0.150000X-0.512500X0*%
%TD*%
%TA.AperFunction,ComponentPad*%
%ADD16R,1.700000X1.700000*%
%TD*%
%TA.AperFunction,ComponentPad*%
%ADD17O,1.700000X1.700000*%
%TD*%
%TA.AperFunction,ComponentPad*%
%ADD18R,1.000000X1.000000*%
%TD*%
%TA.AperFunction,ComponentPad*%
%ADD19O,1.000000X1.000000*%
%TD*%
%TA.AperFunction,ConnectorPad*%
%ADD20C,3.500000*%
%TD*%
%TA.AperFunction,ComponentPad*%
%ADD21C,2.600000*%
%TD*%
%TA.AperFunction,SMDPad,CuDef*%
%ADD22RoundRect,0.225000X0.225000X0.250000X-0.225000X0.250000X-0.225000X-0.250000X0.225000X-0.250000X0*%
%TD*%
%TA.AperFunction,SMDPad,CuDef*%
%ADD23RoundRect,0.135000X-0.185000X0.135000X-0.185000X-0.135000X0.185000X-0.135000X0.185000X0.135000X0*%
%TD*%
%TA.AperFunction,SMDPad,CuDef*%
%ADD24RoundRect,0.140000X0.140000X0.170000X-0.140000X0.170000X-0.140000X-0.170000X0.140000X-0.170000X0*%
%TD*%
%TA.AperFunction,SMDPad,CuDef*%
%ADD25R,2.800000X1.175000*%
%TD*%
%TA.AperFunction,SMDPad,CuDef*%
%ADD26R,1.175000X2.800000*%
%TD*%
%TA.AperFunction,SMDPad,CuDef*%
%ADD27RoundRect,0.135000X0.185000X-0.135000X0.185000X0.135000X-0.185000X0.135000X-0.185000X-0.135000X0*%
%TD*%
%TA.AperFunction,SMDPad,CuDef*%
%ADD28RoundRect,0.150000X-0.150000X0.825000X-0.150000X-0.825000X0.150000X-0.825000X0.150000X0.825000X0*%
%TD*%
%TA.AperFunction,SMDPad,CuDef*%
%ADD29R,1.100000X0.300000*%
%TD*%
%TA.AperFunction,SMDPad,CuDef*%
%ADD30R,3.100000X2.300000*%
%TD*%
%TA.AperFunction,ViaPad*%
%ADD31C,0.500000*%
%TD*%
%TA.AperFunction,ViaPad*%
%ADD32C,0.800000*%
%TD*%
%TA.AperFunction,Conductor*%
%ADD33C,0.250000*%
%TD*%
%TA.AperFunction,Conductor*%
%ADD34C,1.000000*%
%TD*%
%TA.AperFunction,Conductor*%
%ADD35C,0.220000*%
%TD*%
%TA.AperFunction,Conductor*%
%ADD36C,0.500000*%
%TD*%
G04 APERTURE END LIST*
D10*
%TO.P,C15,1*%
%TO.N,Net-(C15-Pad1)*%
X99926200Y-99898200D03*
%TO.P,C15,2*%
%TO.N,Net-(C15-Pad2)*%
X100886200Y-99898200D03*
%TD*%
D11*
%TO.P,R3,1*%
%TO.N,+3V8*%
X94130400Y-105105200D03*
%TO.P,R3,2*%
%TO.N,Net-(R3-Pad2)*%
X95150400Y-105105200D03*
%TD*%
D12*
%TO.P,C16,1*%
%TO.N,GND*%
X92786200Y-102222000D03*
%TO.P,C16,2*%
%TO.N,+6V*%
X92786200Y-103772000D03*
%TD*%
D13*
%TO.P,C6,1*%
%TO.N,Net-(C6-Pad1)*%
X87020401Y-112851599D03*
%TO.P,C6,2*%
%TO.N,Net-(C6-Pad2)*%
X87020401Y-111891599D03*
%TD*%
D14*
%TO.P,U2,1,GND*%
%TO.N,GND*%
X97668500Y-109768600D03*
%TO.P,U2,2,SW*%
%TO.N,Net-(C7-Pad1)*%
X97668500Y-110718600D03*
%TO.P,U2,3,VIN*%
%TO.N,+12V*%
X97668500Y-111668600D03*
%TO.P,U2,4,FB*%
%TO.N,Net-(R3-Pad2)*%
X99943500Y-111668600D03*
%TO.P,U2,5,~{SHDN}*%
%TO.N,+12V*%
X99943500Y-110718600D03*
%TO.P,U2,6,CB*%
%TO.N,Net-(C7-Pad2)*%
X99943500Y-109768600D03*
%TD*%
D15*
%TO.P,U1,1,GND*%
%TO.N,GND*%
X88331000Y-114652100D03*
%TO.P,U1,2,SW*%
%TO.N,Net-(C6-Pad1)*%
X89281000Y-114652100D03*
%TO.P,U1,3,VIN*%
%TO.N,+12V*%
X90231000Y-114652100D03*
%TO.P,U1,4,FB*%
%TO.N,Net-(R1-Pad2)*%
X90231000Y-112377100D03*
%TO.P,U1,5,~{SHDN}*%
%TO.N,+12V*%
X89281000Y-112377100D03*
%TO.P,U1,6,CB*%
%TO.N,Net-(C6-Pad2)*%
X88331000Y-112377100D03*
%TD*%
D10*
%TO.P,C7,1*%
%TO.N,Net-(C7-Pad1)*%
X98961000Y-108458000D03*
%TO.P,C7,2*%
%TO.N,Net-(C7-Pad2)*%
X99921000Y-108458000D03*
%TD*%
D16*
%TO.P,J7,1,Pin_1*%
%TO.N,+6V*%
X90144600Y-104216200D03*
D17*
%TO.P,J7,2,Pin_2*%
%TO.N,GND*%
X90144600Y-106756200D03*
%TO.P,J7,3,Pin_3*%
%TO.N,+3V8*%
X90144600Y-109296200D03*
%TD*%
D12*
%TO.P,C4,1*%
%TO.N,GND*%
X91795600Y-113093200D03*
%TO.P,C4,2*%
%TO.N,+12V*%
X91795600Y-114643200D03*
%TD*%
D18*
%TO.P,J6,1,Pin_1*%
%TO.N,Net-(F1-Pad2)*%
X101777800Y-93548200D03*
D19*
%TO.P,J6,2,Pin_2*%
%TO.N,GND*%
X101777800Y-94818200D03*
%TO.P,J6,3,Pin_3*%
%TO.N,Net-(J6-Pad3)*%
X101777800Y-96088200D03*
%TO.P,J6,4,Pin_4*%
%TO.N,Net-(J6-Pad4)*%
X101777800Y-97358200D03*
%TD*%
D20*
%TO.P,H2,1,1*%
%TO.N,GND*%
X99771200Y-117221000D03*
D21*
X99771200Y-117221000D03*
%TD*%
D22*
%TO.P,C17,1*%
%TO.N,GND*%
X96304400Y-99669600D03*
%TO.P,C17,2*%
%TO.N,+6V*%
X94754400Y-99669600D03*
%TD*%
D11*
%TO.P,R5,1*%
%TO.N,+6V*%
X94943200Y-98374200D03*
%TO.P,R5,2*%
%TO.N,Net-(R5-Pad2)*%
X95963200Y-98374200D03*
%TD*%
D23*
%TO.P,R6,1*%
%TO.N,Net-(R5-Pad2)*%
X97586800Y-98956400D03*
%TO.P,R6,2*%
%TO.N,GND*%
X97586800Y-99976400D03*
%TD*%
D22*
%TO.P,C3,1*%
%TO.N,GND*%
X100139800Y-104698800D03*
%TO.P,C3,2*%
%TO.N,+12V*%
X98589800Y-104698800D03*
%TD*%
D16*
%TO.P,J1,1,Pin_1*%
%TO.N,GND*%
X78735000Y-57155000D03*
D17*
%TO.P,J1,2,Pin_2*%
X81275000Y-57155000D03*
%TO.P,J1,3,Pin_3*%
%TO.N,+2V5*%
X78735000Y-59695000D03*
%TO.P,J1,4,Pin_4*%
X81275000Y-59695000D03*
%TO.P,J1,5,Pin_5*%
%TO.N,/P20*%
X78735000Y-62235000D03*
%TO.P,J1,6,Pin_6*%
%TO.N,/N20*%
X81275000Y-62235000D03*
%TO.P,J1,7,Pin_7*%
%TO.N,/T19*%
X78735000Y-64775000D03*
%TO.P,J1,8,Pin_8*%
%TO.N,/R19*%
X81275000Y-64775000D03*
%TO.P,J1,9,Pin_9*%
%TO.N,/DB1N*%
X78735000Y-67315000D03*
%TO.P,J1,10,Pin_10*%
%TO.N,/DB1P*%
X81275000Y-67315000D03*
%TO.P,J1,11,Pin_11*%
%TO.N,/DB0N*%
X78735000Y-69855000D03*
%TO.P,J1,12,Pin_12*%
%TO.N,/DB0P*%
X81275000Y-69855000D03*
%TO.P,J1,13,Pin_13*%
%TO.N,/FCLKN*%
X78735000Y-72395000D03*
%TO.P,J1,14,Pin_14*%
%TO.N,/FCLKP*%
X81275000Y-72395000D03*
%TO.P,J1,15,Pin_15*%
%TO.N,/DCLKP*%
X78735000Y-74935000D03*
%TO.P,J1,16,Pin_16*%
%TO.N,/DCLKN*%
X81275000Y-74935000D03*
%TO.P,J1,17,Pin_17*%
%TO.N,/DA1P*%
X78735000Y-77475000D03*
%TO.P,J1,18,Pin_18*%
%TO.N,/DA1N*%
X81275000Y-77475000D03*
%TO.P,J1,19,Pin_19*%
%TO.N,/DA0P*%
X78735000Y-80015000D03*
%TO.P,J1,20,Pin_20*%
%TO.N,/DA0N*%
X81275000Y-80015000D03*
%TO.P,J1,21,Pin_21*%
%TO.N,/U18*%
X78735000Y-82555000D03*
%TO.P,J1,22,Pin_22*%
%TO.N,/U19*%
X81275000Y-82555000D03*
%TO.P,J1,23,Pin_23*%
%TO.N,/W18*%
X78735000Y-85095000D03*
%TO.P,J1,24,Pin_24*%
%TO.N,/W19*%
X81275000Y-85095000D03*
%TO.P,J1,25,Pin_25*%
%TO.N,/V17*%
X78735000Y-87635000D03*
%TO.P,J1,26,Pin_26*%
%TO.N,/V18*%
X81275000Y-87635000D03*
%TO.P,J1,27,Pin_27*%
%TO.N,/V16*%
X78735000Y-90175000D03*
%TO.P,J1,28,Pin_28*%
%TO.N,/W16*%
X81275000Y-90175000D03*
%TO.P,J1,29,Pin_29*%
%TO.N,/V15*%
X78735000Y-92715000D03*
%TO.P,J1,30,Pin_30*%
%TO.N,/W15*%
X81275000Y-92715000D03*
%TO.P,J1,31,Pin_31*%
%TO.N,/Y18*%
X78735000Y-95255000D03*
%TO.P,J1,32,Pin_32*%
%TO.N,/Y19*%
X81275000Y-95255000D03*
%TO.P,J1,33,Pin_33*%
%TO.N,/Y16*%
X78735000Y-97795000D03*
%TO.P,J1,34,Pin_34*%
%TO.N,/Y17*%
X81275000Y-97795000D03*
%TO.P,J1,35,Pin_35*%
%TO.N,/W14*%
X78735000Y-100335000D03*
%TO.P,J1,36,Pin_36*%
%TO.N,/Y14*%
X81275000Y-100335000D03*
%TO.P,J1,37,Pin_37*%
%TO.N,/T14*%
X78735000Y-102875000D03*
%TO.P,J1,38,Pin_38*%
%TO.N,/T15*%
X81275000Y-102875000D03*
%TO.P,J1,39,Pin_39*%
%TO.N,/P14*%
X78735000Y-105415000D03*
%TO.P,J1,40,Pin_40*%
%TO.N,/U14*%
X81275000Y-105415000D03*
%TO.P,J1,41,Pin_41*%
%TO.N,/V12*%
X78735000Y-107955000D03*
%TO.P,J1,42,Pin_42*%
%TO.N,/W13*%
X81275000Y-107955000D03*
%TO.P,J1,43,Pin_43*%
%TO.N,/T12*%
X78735000Y-110495000D03*
%TO.P,J1,44,Pin_44*%
%TO.N,/U12*%
X81275000Y-110495000D03*
%TO.P,J1,45,Pin_45*%
%TO.N,/T10*%
X78735000Y-113035000D03*
%TO.P,J1,46,Pin_46*%
%TO.N,/T11*%
X81275000Y-113035000D03*
%TO.P,J1,47,Pin_47*%
%TO.N,GND*%
X78735000Y-115575000D03*
%TO.P,J1,48,Pin_48*%
X81275000Y-115575000D03*
%TO.P,J1,49,Pin_49*%
%TO.N,+5V*%
X78735000Y-118115000D03*
%TO.P,J1,50,Pin_50*%
X81275000Y-118115000D03*
%TD*%
D23*
%TO.P,R4,1*%
%TO.N,Net-(R3-Pad2)*%
X96316800Y-105382600D03*
%TO.P,R4,2*%
%TO.N,GND*%
X96316800Y-106402600D03*
%TD*%
D16*
%TO.P,J3,1,Pin_1*%
%TO.N,/F19*%
X89199800Y-83185000D03*
D17*
%TO.P,J3,2,Pin_2*%
%TO.N,/F20*%
X91739800Y-83185000D03*
%TO.P,J3,3,Pin_3*%
%TO.N,/CAN_R*%
X89199800Y-85725000D03*
%TO.P,J3,4,Pin_4*%
%TO.N,/CAN_T*%
X91739800Y-85725000D03*
%TO.P,J3,5,Pin_5*%
%TO.N,/H18*%
X89199800Y-88265000D03*
%TO.P,J3,6,Pin_6*%
%TO.N,/H20*%
X91739800Y-88265000D03*
%TO.P,J3,7,Pin_7*%
%TO.N,/J19*%
X89199800Y-90805000D03*
%TO.P,J3,8,Pin_8*%
%TO.N,/J20*%
X91739800Y-90805000D03*
%TO.P,J3,9,Pin_9*%
%TO.N,GND*%
X89199800Y-93345000D03*
%TO.P,J3,10,Pin_10*%
X91739800Y-93345000D03*
%TO.P,J3,11,Pin_11*%
%TO.N,+3V3*%
X89199800Y-95885000D03*
%TO.P,J3,12,Pin_12*%
X91739800Y-95885000D03*
%TD*%
D12*
%TO.P,C11,1*%
%TO.N,GND*%
X84963001Y-117260799D03*
%TO.P,C11,2*%
%TO.N,+5V*%
X84963001Y-118810799D03*
%TD*%
D11*
%TO.P,R2,1*%
%TO.N,Net-(R1-Pad2)*%
X84580000Y-116001800D03*
%TO.P,R2,2*%
%TO.N,GND*%
X85600000Y-116001800D03*
%TD*%
D13*
%TO.P,C8,1*%
%TO.N,GND*%
X100076000Y-89735600D03*
%TO.P,C8,2*%
%TO.N,+3V3*%
X100076000Y-88775600D03*
%TD*%
D20*
%TO.P,H1,1,1*%
%TO.N,GND*%
X89433400Y-58902600D03*
D21*
X89433400Y-58902600D03*
%TD*%
D14*
%TO.P,U4,1,GND*%
%TO.N,GND*%
X98608300Y-101208800D03*
%TO.P,U4,2,SW*%
%TO.N,Net-(C15-Pad1)*%
X98608300Y-102158800D03*
%TO.P,U4,3,VIN*%
%TO.N,+12V*%
X98608300Y-103108800D03*
%TO.P,U4,4,FB*%
%TO.N,Net-(R5-Pad2)*%
X100883300Y-103108800D03*
%TO.P,U4,5,~{SHDN}*%
%TO.N,+12V*%
X100883300Y-102158800D03*
%TO.P,U4,6,CB*%
%TO.N,Net-(C15-Pad2)*%
X100883300Y-101208800D03*
%TD*%
D24*
%TO.P,C14,1*%
%TO.N,GND*%
X84604800Y-59410600D03*
%TO.P,C14,2*%
%TO.N,+2V5*%
X83644800Y-59410600D03*
%TD*%
D16*
%TO.P,J5,1,Pin_1*%
%TO.N,+3V3*%
X91744800Y-99618800D03*
D17*
%TO.P,J5,2,Pin_2*%
%TO.N,GND*%
X89204800Y-99618800D03*
%TD*%
D22*
%TO.P,C5,1*%
%TO.N,GND*%
X99403200Y-113258600D03*
%TO.P,C5,2*%
%TO.N,+12V*%
X97853200Y-113258600D03*
%TD*%
D25*
%TO.P,L1,1,1*%
%TO.N,Net-(C6-Pad1)*%
X89281000Y-116643500D03*
%TO.P,L1,2,2*%
%TO.N,+5V*%
X89281000Y-118818500D03*
%TD*%
D22*
%TO.P,C12,1*%
%TO.N,GND*%
X95059801Y-106400599D03*
%TO.P,C12,2*%
%TO.N,+3V8*%
X93509801Y-106400599D03*
%TD*%
D26*
%TO.P,L3,1,1*%
%TO.N,Net-(C15-Pad1)*%
X96616900Y-102158800D03*
%TO.P,L3,2,2*%
%TO.N,+6V*%
X94441900Y-102158800D03*
%TD*%
D22*
%TO.P,C10,1*%
%TO.N,GND*%
X95059801Y-107950000D03*
%TO.P,C10,2*%
%TO.N,+3V8*%
X93509801Y-107950000D03*
%TD*%
D27*
%TO.P,R1,1*%
%TO.N,+5V*%
X83667600Y-118621999D03*
%TO.P,R1,2*%
%TO.N,Net-(R1-Pad2)*%
X83667600Y-117601999D03*
%TD*%
D12*
%TO.P,C9,1*%
%TO.N,GND*%
X86512400Y-117260799D03*
%TO.P,C9,2*%
%TO.N,+5V*%
X86512400Y-118810799D03*
%TD*%
D16*
%TO.P,J4,1,Pin_1*%
%TO.N,+12V*%
X94462600Y-115011200D03*
D17*
%TO.P,J4,2,Pin_2*%
%TO.N,GND*%
X94462600Y-117551200D03*
%TD*%
D26*
%TO.P,L2,1,1*%
%TO.N,Net-(C7-Pad1)*%
X95677100Y-110718600D03*
%TO.P,L2,2,2*%
%TO.N,+3V8*%
X93502100Y-110718600D03*
%TD*%
D28*
%TO.P,U3,1,VCC1*%
%TO.N,+3V3*%
X98729800Y-88279200D03*
%TO.P,U3,2,RXD*%
%TO.N,/CAN_R*%
X97459800Y-88279200D03*
%TO.P,U3,3,TXD*%
%TO.N,/CAN_T*%
X96189800Y-88279200D03*
%TO.P,U3,4,GND1*%
%TO.N,GND*%
X94919800Y-88279200D03*
%TO.P,U3,5,CANL*%
%TO.N,Net-(J6-Pad4)*%
X94919800Y-93229200D03*
%TO.P,U3,6,CANH*%
%TO.N,Net-(J6-Pad3)*%
X96189800Y-93229200D03*
%TO.P,U3,7,GND2*%
%TO.N,GND*%
X97459800Y-93229200D03*
%TO.P,U3,8,VCC2*%
%TO.N,+5V*%
X98729800Y-93229200D03*
%TD*%
D29*
%TO.P,J2,1,Pin_1*%
%TO.N,/R19*%
X88439000Y-77410000D03*
%TO.P,J2,2,Pin_2*%
%TO.N,GND*%
X88439000Y-76910000D03*
%TO.P,J2,3,Pin_3*%
%TO.N,/DA0N*%
X88439000Y-76410000D03*
%TO.P,J2,4,Pin_4*%
%TO.N,/DA0P*%
X88439000Y-75910000D03*
%TO.P,J2,5,Pin_5*%
%TO.N,/DA1N*%
X88439000Y-75410000D03*
%TO.P,J2,6,Pin_6*%
%TO.N,/DA1P*%
X88439000Y-74910000D03*
%TO.P,J2,7,Pin_7*%
%TO.N,/DCLKN*%
X88439000Y-74410000D03*
%TO.P,J2,8,Pin_8*%
%TO.N,/DCLKP*%
X88439000Y-73910000D03*
%TO.P,J2,9,Pin_9*%
%TO.N,/FCLKN*%
X88439000Y-73410000D03*
%TO.P,J2,10,Pin_10*%
%TO.N,/FCLKP*%
X88439000Y-72910000D03*
%TO.P,J2,11,Pin_11*%
%TO.N,/DB0N*%
X88439000Y-72410000D03*
%TO.P,J2,12,Pin_12*%
%TO.N,/DB0P*%
X88439000Y-71910000D03*
%TO.P,J2,13,Pin_13*%
%TO.N,/DB1N*%
X88439000Y-71410000D03*
%TO.P,J2,14,Pin_14*%
%TO.N,/DB1P*%
X88439000Y-70910000D03*
%TO.P,J2,15,Pin_15*%
%TO.N,GND*%
X88439000Y-70410000D03*
%TO.P,J2,16,Pin_16*%
%TO.N,+2V5*%
X88439000Y-69910000D03*
D30*
%TO.P,J2,MP,MountPin*%
%TO.N,GND*%
X90139000Y-79080000D03*
X90139000Y-68240000D03*
%TD*%
D31*
%TO.N,GND*%
X97459800Y-92532200D03*
X93548200Y-70281800D03*
X83362800Y-81483200D03*
X85902800Y-110337600D03*
X91694000Y-69392800D03*
X91871800Y-117373400D03*
X89433400Y-70307200D03*
X85191600Y-117246400D03*
X95072200Y-106400600D03*
X100533200Y-104521000D03*
X91846400Y-102870000D03*
X96951800Y-90322400D03*
X91694000Y-80086200D03*
X84505800Y-80213200D03*
X95072200Y-108102400D03*
X88595200Y-67081400D03*
X85902800Y-111912400D03*
X86512400Y-117246400D03*
X84455000Y-65049400D03*
X85902800Y-116001800D03*
X96951800Y-108915200D03*
X87604600Y-115468400D03*
X100076000Y-89738200D03*
X91795600Y-112090200D03*
X89484200Y-102870000D03*
X99441000Y-101295200D03*
X91694000Y-67081400D03*
X89433400Y-77012800D03*
X95783400Y-107238800D03*
X96647000Y-106400600D03*
X96672400Y-99923600D03*
X88595200Y-78562200D03*
X99415600Y-113258600D03*
X91694000Y-77927200D03*
X94615000Y-87757000D03*
X97434400Y-94386400D03*
X88341200Y-113614200D03*
X93548200Y-77012800D03*
X88646000Y-69240400D03*
X100126800Y-114020600D03*
X98602800Y-109778800D03*
X97942400Y-99999800D03*
X86461600Y-114376200D03*
X91262200Y-115849400D03*
X88595200Y-80086200D03*
%TO.N,/R19*%
X87757000Y-77851000D03*
D32*
%TO.N,+5V*%
X98729800Y-91389200D03*
D31*
%TO.N,Net-(C6-Pad1)*%
X87020401Y-112854199D03*
X89281000Y-116075299D03*
%TO.N,Net-(C7-Pad1)*%
X96240600Y-110718600D03*
X98704400Y-108458000D03*
%TO.N,+12V*%
X89281000Y-111937800D03*
D32*
X98577400Y-104089200D03*
D31*
X99542600Y-110718600D03*
D32*
X97815400Y-112445800D03*
D31*
X100380800Y-102158800D03*
%TO.N,Net-(C15-Pad1)*%
X99923600Y-99898200D03*
X97205800Y-102158800D03*
%TD*%
D33*
%TO.N,GND*%
X89306400Y-76885800D02*
X88463200Y-76885800D01*
X89433400Y-77012800D02*
X89306400Y-76885800D01*
X88414800Y-76885800D02*
X88439000Y-76910000D01*
X83362800Y-81483200D02*
X83362800Y-81407000D01*
X89306400Y-70434200D02*
X88463200Y-70434200D01*
X88463200Y-70434200D02*
X88439000Y-70410000D01*
X83362800Y-81407000D02*
X87884000Y-76885800D01*
X87884000Y-76885800D02*
X88414800Y-76885800D01*
X88463200Y-76885800D02*
X88439000Y-76910000D01*
X89433400Y-70307200D02*
X89306400Y-70434200D01*
D34*
%TO.N,+2V5*%
X81275000Y-59695000D02*
X78735000Y-59695000D01*
D33*
%TO.N,/R19*%
X87757000Y-77851000D02*
X88198000Y-77410000D01*
X88198000Y-77410000D02*
X88439000Y-77410000D01*
D35*
%TO.N,/DB1N*%
X80824951Y-68768489D02*
X80506720Y-69086720D01*
X80506720Y-69086720D02*
X78735000Y-67315000D01*
X88439000Y-71410000D02*
X87613999Y-71410000D01*
X84972488Y-68768489D02*
X80824951Y-68768489D01*
X87613999Y-71410000D02*
X84972488Y-68768489D01*
%TO.N,/DB1P*%
X84270898Y-68421498D02*
X84320898Y-68421498D01*
X84070898Y-67859178D02*
X84070898Y-68221498D01*
X83670898Y-68221498D02*
X83670898Y-67859178D01*
X81275000Y-67315000D02*
X81275000Y-68421498D01*
X84320898Y-68421498D02*
X85125497Y-68421498D01*
X82870898Y-68221498D02*
X82870898Y-67859178D01*
X81275000Y-68421498D02*
X82670898Y-68421498D01*
X83270898Y-67859178D02*
X83270898Y-68221498D01*
X87613999Y-70910000D02*
X88439000Y-70910000D01*
X85125497Y-68421498D02*
X87613999Y-70910000D01*
X83470898Y-68421502D02*
G75*
G02*
X83270898Y-68221498I2J200002D01*
G01*
X84070922Y-67859178D02*
G75*
G03*
X83870898Y-67659178I-200022J-22D01*
G01*
X84270898Y-68421502D02*
G75*
G02*
X84070898Y-68221498I2J200002D01*
G01*
X83670898Y-68221498D02*
G75*
G02*
X83470898Y-68421498I-199998J-2D01*
G01*
X83270922Y-67859178D02*
G75*
G03*
X83070898Y-67659178I-200022J-22D01*
G01*
X83870898Y-67659198D02*
G75*
G03*
X83670898Y-67859178I2J-200002D01*
G01*
X82870898Y-68221498D02*
G75*
G02*
X82670898Y-68421498I-199998J-2D01*
G01*
X83070898Y-67659198D02*
G75*
G03*
X82870898Y-67859178I2J-200002D01*
G01*
%TO.N,/DB0N*%
X85444632Y-70911809D02*
X85444632Y-70738314D01*
X87613999Y-72410000D02*
X86512488Y-71308489D01*
X80506720Y-71626720D02*
X78735000Y-69855000D01*
X85394943Y-70688625D02*
X85147321Y-70688625D01*
X84453331Y-71308488D02*
X83819265Y-71308489D01*
X80824951Y-71308489D02*
X80506720Y-71626720D01*
X84700953Y-71308488D02*
X84453331Y-71308488D01*
X86512488Y-71308489D02*
X85841311Y-71308488D01*
X88439000Y-72410000D02*
X87613999Y-72410000D01*
X85097632Y-70738314D02*
X85097632Y-70911809D01*
X83819265Y-71308489D02*
X80824951Y-71308489D01*
X85394943Y-70688568D02*
G75*
G02*
X85444632Y-70738314I-43J-49732D01*
G01*
X85444612Y-70911809D02*
G75*
G03*
X85841311Y-71308488I396688J9D01*
G01*
X84700953Y-71308432D02*
G75*
G03*
X85097632Y-70911809I47J396632D01*
G01*
X85097625Y-70738314D02*
G75*
G02*
X85147321Y-70688625I49675J14D01*
G01*
%TO.N,/DB0P*%
X84346298Y-70961498D02*
X84700953Y-70961498D01*
X84750642Y-70911809D02*
X84750642Y-70848917D01*
X83296298Y-70399177D02*
X83296298Y-70761498D01*
X83696298Y-70761498D02*
X83696298Y-70399177D01*
X86665497Y-70961498D02*
X87613999Y-71910000D01*
X84750642Y-70848917D02*
X84750642Y-70738314D01*
X87613999Y-71910000D02*
X88439000Y-71910000D01*
X85791622Y-70738314D02*
X85791622Y-70911809D01*
X82896298Y-70761498D02*
X82896298Y-70399177D01*
X84296298Y-70961498D02*
X84346298Y-70961498D01*
X85147321Y-70341635D02*
X85394943Y-70341635D01*
X85841311Y-70961498D02*
X86665497Y-70961498D01*
X81275000Y-69855000D02*
X81275000Y-70961498D01*
X84096298Y-70399177D02*
X84096298Y-70761498D01*
X81275000Y-70961498D02*
X82696298Y-70961498D01*
X82896298Y-70761498D02*
G75*
G02*
X82696298Y-70961498I-199998J-2D01*
G01*
X83496298Y-70961502D02*
G75*
G02*
X83296298Y-70761498I2J200002D01*
G01*
X85147321Y-70341642D02*
G75*
G03*
X84750642Y-70738314I-21J-396658D01*
G01*
X84296298Y-70961502D02*
G75*
G02*
X84096298Y-70761498I2J200002D01*
G01*
X85791565Y-70738314D02*
G75*
G03*
X85394943Y-70341635I-396665J14D01*
G01*
X84096323Y-70399177D02*
G75*
G03*
X83896298Y-70199177I-200023J-23D01*
G01*
X83896298Y-70199198D02*
G75*
G03*
X83696298Y-70399177I2J-200002D01*
G01*
X84750698Y-70911809D02*
G75*
G02*
X84700953Y-70961498I-49698J9D01*
G01*
X85841311Y-70961478D02*
G75*
G02*
X85791622Y-70911809I-11J49678D01*
G01*
X83296323Y-70399177D02*
G75*
G03*
X83096298Y-70199177I-200023J-23D01*
G01*
X83696298Y-70761498D02*
G75*
G02*
X83496298Y-70961498I-199998J-2D01*
G01*
X83096298Y-70199198D02*
G75*
G03*
X82896298Y-70399177I2J-200002D01*
G01*
%TO.N,/FCLKN*%
X81725049Y-73481511D02*
X80824951Y-73481511D01*
X80824951Y-73481511D02*
X80085440Y-72742000D01*
X82464560Y-72742000D02*
X81725049Y-73481511D01*
X79082000Y-72742000D02*
X78735000Y-72395000D01*
X87519736Y-73296511D02*
X86965225Y-72742000D01*
X88439000Y-73410000D02*
X88325511Y-73296511D01*
X80085440Y-72742000D02*
X79082000Y-72742000D01*
X86965225Y-72742000D02*
X82464560Y-72742000D01*
X88325511Y-73296511D02*
X87519736Y-73296511D01*
%TO.N,/FCLKP*%
X85682000Y-71937058D02*
X85682000Y-72195000D01*
X81275000Y-72395000D02*
X82682000Y-72395000D01*
X82882000Y-72195000D02*
X82882000Y-72037058D01*
X86732000Y-72395000D02*
X87108945Y-72395000D01*
X84082000Y-72037058D02*
X84082000Y-72195000D01*
X83282000Y-72037058D02*
X83282000Y-72195000D01*
X87510456Y-72796511D02*
X88316244Y-72796511D01*
X83682000Y-72195000D02*
X83682000Y-72037058D01*
X85882000Y-72395000D02*
X86732000Y-72395000D01*
X84482000Y-72195000D02*
X84482000Y-72037058D01*
X85282000Y-72195000D02*
X85282000Y-71937058D01*
X88429733Y-72910000D02*
X88439000Y-72910000D01*
X88316244Y-72796511D02*
X88429733Y-72910000D01*
X84882000Y-72037058D02*
X84882000Y-72195000D01*
X87108945Y-72395000D02*
X87510456Y-72796511D01*
X85882000Y-72395000D02*
G75*
G02*
X85682000Y-72195000I0J200000D01*
G01*
X84882042Y-72037058D02*
G75*
G03*
X84682000Y-71837058I-200042J-42D01*
G01*
X85082000Y-72395000D02*
G75*
G02*
X84882000Y-72195000I0J200000D01*
G01*
X84082042Y-72037058D02*
G75*
G03*
X83882000Y-71837058I-200042J-42D01*
G01*
X83682000Y-72195000D02*
G75*
G02*
X83482000Y-72395000I-200000J0D01*
G01*
X82882000Y-72195000D02*
G75*
G02*
X82682000Y-72395000I-200000J0D01*
G01*
X83482000Y-72395000D02*
G75*
G02*
X83282000Y-72195000I0J200000D01*
G01*
X84282000Y-72395000D02*
G75*
G02*
X84082000Y-72195000I0J200000D01*
G01*
X85482000Y-71737100D02*
G75*
G03*
X85282000Y-71937058I0J-200000D01*
G01*
X85282000Y-72195000D02*
G75*
G02*
X85082000Y-72395000I-200000J0D01*
G01*
X83282042Y-72037058D02*
G75*
G03*
X83082000Y-71837058I-200042J-42D01*
G01*
X83882000Y-71837100D02*
G75*
G03*
X83682000Y-72037058I0J-200000D01*
G01*
X84482000Y-72195000D02*
G75*
G02*
X84282000Y-72395000I-200000J0D01*
G01*
X84682000Y-71837100D02*
G75*
G03*
X84482000Y-72037058I0J-200000D01*
G01*
X85682042Y-71937058D02*
G75*
G03*
X85482000Y-71737058I-200042J-42D01*
G01*
X83082000Y-71837100D02*
G75*
G03*
X82882000Y-72037058I0J-200000D01*
G01*
%TO.N,/DCLKN*%
X87510456Y-74523489D02*
X88316244Y-74523489D01*
X87098945Y-74935000D02*
X87510456Y-74523489D01*
X85256600Y-75135000D02*
X85256600Y-75392942D01*
X84856600Y-75292942D02*
X84856600Y-75135000D01*
X85856600Y-74935000D02*
X86706600Y-74935000D01*
X88316244Y-74523489D02*
X88429733Y-74410000D01*
X82856600Y-75135000D02*
X82856600Y-75292942D01*
X88429733Y-74410000D02*
X88439000Y-74410000D01*
X86706600Y-74935000D02*
X87098945Y-74935000D01*
X85656600Y-75392942D02*
X85656600Y-75135000D01*
X81275000Y-74935000D02*
X82656600Y-74935000D01*
X83256600Y-75292942D02*
X83256600Y-75135000D01*
X84456600Y-75135000D02*
X84456600Y-75292942D01*
X83656600Y-75135000D02*
X83656600Y-75292942D01*
X84056600Y-75292942D02*
X84056600Y-75135000D01*
X85656642Y-75392942D02*
G75*
G02*
X85456600Y-75592942I-200042J42D01*
G01*
X84656600Y-75492900D02*
G75*
G02*
X84456600Y-75292942I0J200000D01*
G01*
X82856600Y-75135000D02*
G75*
G03*
X82656600Y-74935000I-200000J0D01*
G01*
X84856642Y-75292942D02*
G75*
G02*
X84656600Y-75492942I-200042J42D01*
G01*
X85056600Y-74935000D02*
G75*
G03*
X84856600Y-75135000I0J-200000D01*
G01*
X85456600Y-75592900D02*
G75*
G02*
X85256600Y-75392942I0J200000D01*
G01*
X84456600Y-75135000D02*
G75*
G03*
X84256600Y-74935000I-200000J0D01*
G01*
X83856600Y-75492900D02*
G75*
G02*
X83656600Y-75292942I0J200000D01*
G01*
X83456600Y-74935000D02*
G75*
G03*
X83256600Y-75135000I0J-200000D01*
G01*
X84056642Y-75292942D02*
G75*
G02*
X83856600Y-75492942I-200042J42D01*
G01*
X85856600Y-74935000D02*
G75*
G03*
X85656600Y-75135000I0J-200000D01*
G01*
X83256642Y-75292942D02*
G75*
G02*
X83056600Y-75492942I-200042J42D01*
G01*
X85256600Y-75135000D02*
G75*
G03*
X85056600Y-74935000I-200000J0D01*
G01*
X84256600Y-74935000D02*
G75*
G03*
X84056600Y-75135000I0J-200000D01*
G01*
X83656600Y-75135000D02*
G75*
G03*
X83456600Y-74935000I-200000J0D01*
G01*
X83056600Y-75492900D02*
G75*
G02*
X82856600Y-75292942I0J200000D01*
G01*
%TO.N,/DCLKP*%
X88325511Y-74023489D02*
X87519736Y-74023489D01*
X81725049Y-73848489D02*
X80824951Y-73848489D01*
X88439000Y-73910000D02*
X88325511Y-74023489D01*
X80085440Y-74588000D02*
X79082000Y-74588000D01*
X87519736Y-74023489D02*
X86955225Y-74588000D01*
X79082000Y-74588000D02*
X78735000Y-74935000D01*
X82464560Y-74588000D02*
X81725049Y-73848489D01*
X86955225Y-74588000D02*
X82464560Y-74588000D01*
X80824951Y-73848489D02*
X80085440Y-74588000D01*
%TO.N,/DA1N*%
X81275000Y-76368502D02*
X82693102Y-76368502D01*
X81275000Y-77475000D02*
X81275000Y-76368502D01*
X84293099Y-76368498D02*
X84293100Y-76368501D01*
X84695455Y-76417164D02*
X84695455Y-76590660D01*
X84293098Y-76368498D02*
X84293099Y-76368498D01*
X85785098Y-76368501D02*
X86655497Y-76368502D01*
X85206677Y-76986313D02*
X85340782Y-76986313D01*
X85091108Y-76986313D02*
X85206677Y-76986313D01*
X85736435Y-76590660D02*
X85736435Y-76417164D01*
X83493100Y-76368498D02*
X83493101Y-76368502D01*
X87613999Y-75410000D02*
X88439000Y-75410000D01*
X83693100Y-76568501D02*
X83693101Y-76568501D01*
X84093100Y-76930823D02*
X84093099Y-76568499D01*
X83693101Y-76568501D02*
X83693101Y-76930824D01*
X83493099Y-76368498D02*
X83493100Y-76368498D01*
X84293100Y-76368501D02*
X84646792Y-76368501D01*
X86655497Y-76368502D02*
X87613999Y-75410000D01*
X82893102Y-76568501D02*
X82893102Y-76930824D01*
X82893101Y-76568501D02*
X82893102Y-76568501D01*
X83293101Y-76930823D02*
X83293100Y-76568499D01*
X83093102Y-77130798D02*
G75*
G02*
X82893102Y-76930824I-2J199998D01*
G01*
X83493099Y-76368500D02*
G75*
G03*
X83293100Y-76568499I1J-200000D01*
G01*
X84695499Y-76417164D02*
G75*
G03*
X84646792Y-76368501I-48699J-36D01*
G01*
X85736413Y-76590660D02*
G75*
G02*
X85340782Y-76986313I-395613J-40D01*
G01*
X83293124Y-76930823D02*
G75*
G02*
X83093102Y-77130824I-200024J23D01*
G01*
X85091108Y-76986345D02*
G75*
G02*
X84695455Y-76590660I-8J395645D01*
G01*
X84093124Y-76930823D02*
G75*
G02*
X83893101Y-77130824I-200024J23D01*
G01*
X84293098Y-76368499D02*
G75*
G03*
X84093099Y-76568499I2J-200001D01*
G01*
X82893098Y-76568501D02*
G75*
G03*
X82693102Y-76368502I-199998J1D01*
G01*
X83893101Y-77130799D02*
G75*
G02*
X83693101Y-76930824I-1J199999D01*
G01*
X83693098Y-76568501D02*
G75*
G03*
X83493101Y-76368502I-199998J1D01*
G01*
X85785098Y-76368535D02*
G75*
G03*
X85736435Y-76417164I2J-48665D01*
G01*
%TO.N,/DA1P*%
X85042445Y-76590660D02*
X85042445Y-76417164D01*
X85389445Y-76417164D02*
X85389445Y-76590660D01*
X85340782Y-76639323D02*
X85091108Y-76639323D01*
X88439000Y-74910000D02*
X87613999Y-74910000D01*
X87613999Y-74910000D02*
X86502488Y-76021511D01*
X84646792Y-76021511D02*
X84397118Y-76021511D01*
X86502488Y-76021511D02*
X85785098Y-76021511D01*
X84397118Y-76021511D02*
X80824951Y-76021511D01*
X80824951Y-76021511D02*
X80506720Y-75703280D01*
X80506720Y-75703280D02*
X78735000Y-77475000D01*
X85389411Y-76417164D02*
G75*
G02*
X85785098Y-76021511I395689J-36D01*
G01*
X85340782Y-76639345D02*
G75*
G03*
X85389445Y-76590660I18J48645D01*
G01*
X85042477Y-76590660D02*
G75*
G03*
X85091108Y-76639323I48623J-40D01*
G01*
X84646792Y-76021555D02*
G75*
G02*
X85042445Y-76417164I8J-395645D01*
G01*
%TO.N,/DA0N*%
X81275000Y-78908502D02*
X82667702Y-78908502D01*
X85115497Y-78908502D02*
X87613999Y-76410000D01*
X81275000Y-80015000D02*
X81275000Y-78908502D01*
X83667702Y-79108502D02*
X83667702Y-79470828D01*
X84067702Y-79470828D02*
X84067702Y-79108502D01*
X82867702Y-79108502D02*
X82867702Y-79470828D01*
X84317702Y-78908502D02*
X85115497Y-78908502D01*
X83267702Y-79470828D02*
X83267702Y-79108502D01*
X84267702Y-78908502D02*
X84317702Y-78908502D01*
X87613999Y-76410000D02*
X88439000Y-76410000D01*
X84267702Y-78908502D02*
G75*
G03*
X84067702Y-79108502I-2J-199998D01*
G01*
X83667698Y-79108502D02*
G75*
G03*
X83467702Y-78908502I-199998J2D01*
G01*
X83867702Y-79670798D02*
G75*
G02*
X83667702Y-79470828I-2J199998D01*
G01*
X84067728Y-79470828D02*
G75*
G02*
X83867702Y-79670828I-200028J28D01*
G01*
X82867698Y-79108502D02*
G75*
G03*
X82667702Y-78908502I-199998J2D01*
G01*
X83267728Y-79470828D02*
G75*
G02*
X83067702Y-79670828I-200028J28D01*
G01*
X83467702Y-78908502D02*
G75*
G03*
X83267702Y-79108502I-2J-199998D01*
G01*
X83067702Y-79670798D02*
G75*
G02*
X82867702Y-79470828I-2J199998D01*
G01*
%TO.N,/DA0P*%
X88439000Y-75910000D02*
X87613999Y-75910000D01*
X80824951Y-78561511D02*
X80506720Y-78243280D01*
X87613999Y-75910000D02*
X84962488Y-78561511D01*
X80506720Y-78243280D02*
X78735000Y-80015000D01*
X84962488Y-78561511D02*
X80824951Y-78561511D01*
D34*
%TO.N,+5V*%
X81275000Y-118115000D02*
X78735000Y-118115000D01*
D36*
X98729800Y-91389200D02*
X98729800Y-93229200D01*
%TO.N,Net-(C6-Pad1)*%
X89281000Y-116643499D02*
X89281000Y-116075299D01*
X89281000Y-114652100D02*
X89281000Y-116075299D01*
X87020401Y-112854199D02*
X87020401Y-112851599D01*
%TO.N,Net-(C6-Pad2)*%
X87020401Y-111891599D02*
X87845499Y-111891599D01*
X87845499Y-111891599D02*
X88331000Y-112377100D01*
%TO.N,Net-(C7-Pad1)*%
X95677101Y-110718600D02*
X96240600Y-110718600D01*
X98961000Y-108458000D02*
X98704400Y-108458000D01*
X97668500Y-110718600D02*
X96240600Y-110718600D01*
%TO.N,Net-(C7-Pad2)*%
X99943500Y-108480500D02*
X99943500Y-109768600D01*
X99921000Y-108458000D02*
X99943500Y-108480500D01*
D34*
%TO.N,+3V3*%
X91739800Y-99613800D02*
X91744800Y-99618800D01*
X91739800Y-95885000D02*
X91739800Y-99613800D01*
D36*
X99226200Y-88775600D02*
X98729800Y-88279200D01*
D34*
X88036400Y-81102200D02*
X92837000Y-81102200D01*
D36*
X100076000Y-88775600D02*
X99226200Y-88775600D01*
D34*
X98729800Y-86995000D02*
X98729800Y-88279200D01*
X89199800Y-95885000D02*
X87045800Y-93731000D01*
X92837000Y-81102200D02*
X98729800Y-86995000D01*
X91739800Y-95885000D02*
X89199800Y-95885000D01*
X87045800Y-82092800D02*
X88036400Y-81102200D01*
X87045800Y-93731000D02*
X87045800Y-82092800D01*
D36*
%TO.N,/CAN_R*%
X97459800Y-87426800D02*
X94531489Y-84498489D01*
X97459800Y-88279200D02*
X97459800Y-87426800D01*
X94531489Y-84498489D02*
X90426311Y-84498489D01*
X90426311Y-84498489D02*
X89199800Y-85725000D01*
%TO.N,/CAN_T*%
X94462600Y-85725000D02*
X91739800Y-85725000D01*
X96189800Y-87452200D02*
X94462600Y-85725000D01*
X96189800Y-88279200D02*
X96189800Y-87452200D01*
%TO.N,Net-(J6-Pad3)*%
X96189800Y-93229200D02*
X96189800Y-94513400D01*
X97764600Y-96088200D02*
X101777800Y-96088200D01*
X96189800Y-94513400D02*
X97764600Y-96088200D01*
%TO.N,Net-(J6-Pad4)*%
X94919800Y-95046800D02*
X97231200Y-97358200D01*
X97231200Y-97358200D02*
X101777800Y-97358200D01*
X94919800Y-93229200D02*
X94919800Y-95046800D01*
%TO.N,+3V8*%
X93509800Y-107950000D02*
X93509800Y-110710900D01*
X93509800Y-106400601D02*
X93509800Y-107950000D01*
X93509800Y-110710900D02*
X93502100Y-110718600D01*
%TO.N,Net-(R1-Pad2)*%
X84580000Y-116001800D02*
X84580000Y-112143000D01*
X85623400Y-111099600D02*
X89662000Y-111099600D01*
X90195400Y-111633000D02*
X90195400Y-112341500D01*
X90195400Y-112341500D02*
X90231000Y-112377100D01*
X83667600Y-117601999D02*
X83667600Y-116914200D01*
X83667600Y-116914200D02*
X84580000Y-116001800D01*
X89662000Y-111099600D02*
X90195400Y-111633000D01*
X84580000Y-112143000D02*
X85623400Y-111099600D01*
%TO.N,Net-(R3-Pad2)*%
X101142800Y-108232931D02*
X101142800Y-111099600D01*
X96039400Y-105105200D02*
X96316800Y-105382600D01*
X98907600Y-107315000D02*
X100224869Y-107315000D01*
X95150400Y-105105200D02*
X96039400Y-105105200D01*
X96975200Y-105382600D02*
X98907600Y-107315000D01*
X100224869Y-107315000D02*
X101142800Y-108232931D01*
X100573800Y-111668600D02*
X99943500Y-111668600D01*
X96316800Y-105382600D02*
X96975200Y-105382600D01*
X101142800Y-111099600D02*
X100573800Y-111668600D01*
%TO.N,+12V*%
X99542600Y-110718600D02*
X99943500Y-110718600D01*
X89281000Y-111937800D02*
X89281000Y-112371600D01*
X100883300Y-102158800D02*
X100380800Y-102158800D01*
%TO.N,Net-(C15-Pad1)*%
X97205800Y-102158800D02*
X98608300Y-102158800D01*
%TO.N,Net-(C15-Pad2)*%
X100883300Y-99901100D02*
X100886200Y-99898200D01*
X100883300Y-101208800D02*
X100883300Y-99901100D01*
%TO.N,Net-(R5-Pad2)*%
X96443800Y-98425000D02*
X96975200Y-98956400D01*
X96014000Y-98425000D02*
X96443800Y-98425000D01*
X96975200Y-98956400D02*
X97586800Y-98956400D01*
X102031800Y-102717600D02*
X101640600Y-103108800D01*
X101267800Y-98956400D02*
X102031800Y-99720400D01*
X95963200Y-98374200D02*
X96014000Y-98425000D01*
X97586800Y-98956400D02*
X101267800Y-98956400D01*
X102031800Y-99720400D02*
X102031800Y-102717600D01*
X101640600Y-103108800D02*
X100883300Y-103108800D01*
%TD*%
%TA.AperFunction,Conductor*%
%TO.N,GND*%
G36*
X93743821Y-76778802D02*
G01*
X93790314Y-76832458D01*
X93801700Y-76884800D01*
X93801700Y-80695686D01*
X93781698Y-80763807D01*
X93728042Y-80810300D01*
X93657768Y-80820404D01*
X93593188Y-80790910D01*
X93586605Y-80784781D01*
X93417724Y-80615900D01*
X93405337Y-80601487D01*
X93396904Y-80590028D01*
X93392563Y-80584129D01*
X93352521Y-80550111D01*
X93345005Y-80543181D01*
X93339362Y-80537538D01*
X93317202Y-80520006D01*
X93313816Y-80517230D01*
X93309665Y-80513703D01*
X93258480Y-80470218D01*
X93251960Y-80466889D01*
X93246982Y-80463569D01*
X93241909Y-80460436D01*
X93236167Y-80455893D01*
X93204604Y-80441141D01*
X93170383Y-80425147D01*
X93166433Y-80423216D01*
X93108307Y-80393536D01*
X93101788Y-80390207D01*
X93094678Y-80388467D01*
X93089058Y-80386377D01*
X93083407Y-80384497D01*
X93076778Y-80381399D01*
X93069614Y-80379909D01*
X93069611Y-80379908D01*
X93029505Y-80371567D01*
X93005686Y-80366613D01*
X93001427Y-80365649D01*
X92930892Y-80348389D01*
X92925295Y-80348042D01*
X92925290Y-80348041D01*
X92919786Y-80347700D01*
X92919788Y-80347666D01*
X92915729Y-80347423D01*
X92911695Y-80347063D01*
X92904527Y-80345572D01*
X92897210Y-80345770D01*
X92827585Y-80347654D01*
X92824177Y-80347700D01*
X88103165Y-80347700D01*
X88084215Y-80346267D01*
X88070145Y-80344126D01*
X88070141Y-80344126D01*
X88062911Y-80343026D01*
X88055620Y-80343619D01*
X88055617Y-80343619D01*
X88010552Y-80347285D01*
X88000337Y-80347700D01*
X87992347Y-80347700D01*
X87986438Y-80348389D01*
X87964287Y-80350971D01*
X87959913Y-80351404D01*
X87894851Y-80356696D01*
X87894848Y-80356697D01*
X87887553Y-80357290D01*
X87880593Y-80359545D01*
X87874716Y-80360719D01*
X87868913Y-80362091D01*
X87861646Y-80362938D01*
X87793363Y-80387724D01*
X87789276Y-80389127D01*
X87720178Y-80411511D01*
X87713917Y-80415310D01*
X87708468Y-80417805D01*
X87703142Y-80420472D01*
X87696266Y-80422968D01*
X87650776Y-80452793D01*
X87635545Y-80462779D01*
X87631824Y-80465126D01*
X87574570Y-80499868D01*
X87574566Y-80499871D01*
X87569767Y-80502783D01*
X87561427Y-80510149D01*
X87561404Y-80510123D01*
X87558361Y-80512823D01*
X87555257Y-80515418D01*
X87549132Y-80519434D01*
X87544098Y-80524748D01*
X87496167Y-80575345D01*
X87493789Y-80577787D01*
X86559500Y-81512076D01*
X86545087Y-81524463D01*
X86527729Y-81537237D01*
X86522986Y-81542820D01*
X86493711Y-81577279D01*
X86486781Y-81584795D01*
X86481138Y-81590438D01*
X86463606Y-81612598D01*
X86460839Y-81615973D01*
X86413818Y-81671320D01*
X86410489Y-81677840D01*
X86407169Y-81682818D01*
X86404036Y-81687891D01*
X86399493Y-81693633D01*
X86396393Y-81700266D01*
X86368747Y-81759417D01*
X86366816Y-81763367D01*
X86333807Y-81828012D01*
X86332067Y-81835122D01*
X86329977Y-81840742D01*
X86328097Y-81846393D01*
X86324999Y-81853022D01*
X86323509Y-81860186D01*
X86323508Y-81860189D01*
X86310215Y-81924103D01*
X86309249Y-81928373D01*
X86291989Y-81998908D01*
X86291300Y-82010014D01*
X86291266Y-82010012D01*
X86291023Y-82014071D01*
X86290663Y-82018105D01*
X86289172Y-82025273D01*
X86289370Y-82032590D01*
X86291254Y-82102215D01*
X86291300Y-82105623D01*
X86291300Y-93664235D01*
X86289867Y-93683184D01*
X86286626Y-93704489D01*
X86287219Y-93711780D01*
X86287219Y-93711783D01*
X86290885Y-93756848D01*
X86291300Y-93767063D01*
X86291300Y-93775053D01*
X86291725Y-93778697D01*
X86294571Y-93803113D01*
X86295004Y-93807487D01*
X86296243Y-93822712D01*
X86300890Y-93879847D01*
X86303145Y-93886809D01*
X86304318Y-93892677D01*
X86305690Y-93898484D01*
X86306538Y-93905754D01*
X86331332Y-93974060D01*
X86332740Y-93978163D01*
X86355112Y-94047222D01*
X86358909Y-94053479D01*
X86361402Y-94058926D01*
X86364070Y-94064254D01*
X86366568Y-94071134D01*
X86370582Y-94077256D01*
X86406368Y-94131839D01*
X86408715Y-94135559D01*
X86443473Y-94192838D01*
X86446383Y-94197633D01*
X86450095Y-94201836D01*
X86453749Y-94205974D01*
X86453724Y-94205996D01*
X86456424Y-94209041D01*
X86459020Y-94212146D01*
X86463034Y-94218268D01*
X86468347Y-94223301D01*
X86518926Y-94271215D01*
X86521368Y-94273593D01*
X87300635Y-95052859D01*
X88056517Y-95808741D01*
X88090542Y-95871053D01*
X88093152Y-95889595D01*
X88096413Y-95939344D01*
X88104224Y-96058522D01*
X88105645Y-96064118D01*
X88105646Y-96064123D01*
X88147727Y-96229812D01*
X88154192Y-96255269D01*
X88156609Y-96260512D01*
X88234132Y-96428673D01*
X88239177Y-96439616D01*
X88258799Y-96467380D01*
X88345353Y-96589852D01*
X88356333Y-96605389D01*
X88501738Y-96747035D01*
X88670520Y-96859812D01*
X88675823Y-96862090D01*
X88675826Y-96862092D01*
X88851721Y-96937662D01*
X88857028Y-96939942D01*
X88930044Y-96956464D01*
X89049379Y-96983467D01*
X89049384Y-96983468D01*
X89055016Y-96984742D01*
X89060787Y-96984969D01*
X89060789Y-96984969D01*
X89120556Y-96987317D01*
X89257853Y-96992712D01*
X89358299Y-96978148D01*
X89453031Y-96964413D01*
X89453036Y-96964412D01*
X89458745Y-96963584D01*
X89464209Y-96961729D01*
X89464214Y-96961728D01*
X89645493Y-96900192D01*
X89645498Y-96900190D01*
X89650965Y-96898334D01*
X89680882Y-96881580D01*
X89814648Y-96806667D01*
X89828076Y-96799147D01*
X89834477Y-96793824D01*
X89984145Y-96669345D01*
X89985745Y-96671269D01*
X90038651Y-96642379D01*
X90065434Y-96639500D01*
X90859300Y-96639500D01*
X90927421Y-96659502D01*
X90973914Y-96713158D01*
X90985300Y-96765500D01*
X90985300Y-98389329D01*
X90965298Y-98457450D01*
X90911642Y-98503943D01*
X90873211Y-98514301D01*
X90869734Y-98514301D01*
X90863668Y-98515508D01*
X90863663Y-98515508D01*
X90807674Y-98526644D01*
X90807672Y-98526645D01*
X90795499Y-98529066D01*
X90785179Y-98535961D01*
X90785178Y-98535962D01*
X90737460Y-98567847D01*
X90711316Y-98585316D01*
X90655066Y-98669499D01*
X90640300Y-98743733D01*
X90640301Y-100493866D01*
X90655066Y-100568101D01*
X90661961Y-100578420D01*
X90661962Y-100578422D01*
X90702316Y-100638815D01*
X90711316Y-100652284D01*
X90795499Y-100708534D01*
X90869733Y-100723300D01*
X91744658Y-100723300D01*
X92619866Y-100723299D01*
X92655618Y-100716188D01*
X92681926Y-100710956D01*
X92681928Y-100710955D01*
X92694101Y-100708534D01*
X92704421Y-100701639D01*
X92704422Y-100701638D01*
X92767968Y-100659177D01*
X92778284Y-100652284D01*
X92834534Y-100568101D01*
X92849300Y-100493867D01*
X92849299Y-98743734D01*
X92834534Y-98669499D01*
X92814590Y-98639650D01*
X92785177Y-98595632D01*
X92778284Y-98585316D01*
X92694101Y-98529066D01*
X92619867Y-98514300D01*
X92613679Y-98514300D01*
X92607952Y-98513736D01*
X92542119Y-98487155D01*
X92501108Y-98429201D01*
X92494300Y-98388343D01*
X92494300Y-96750634D01*
X92514302Y-96682513D01*
X92524605Y-96669728D01*
X92524145Y-96669345D01*
X92650253Y-96517718D01*
X92650255Y-96517715D01*
X92653947Y-96513276D01*
X92738267Y-96362712D01*
X92750310Y-96341208D01*
X92750311Y-96341206D01*
X92753134Y-96336165D01*
X92754990Y-96330698D01*
X92754992Y-96330693D01*
X92816528Y-96149414D01*
X92816529Y-96149409D01*
X92818384Y-96143945D01*
X92819212Y-96138236D01*
X92819213Y-96138231D01*
X92846979Y-95946727D01*
X92847512Y-95943053D01*
X92849032Y-95885000D01*
X92830458Y-95682859D01*
X92796851Y-95563698D01*
X92776925Y-95493046D01*
X92776924Y-95493044D01*
X92775357Y-95487487D01*
X92752679Y-95441499D01*
X92688131Y-95310609D01*
X92685576Y-95305428D01*
X92664824Y-95277637D01*
X92590225Y-95177738D01*
X92564120Y-95142779D01*
X92436035Y-95024378D01*
X92419303Y-95008911D01*
X92415058Y-95004987D01*
X92410175Y-95001906D01*
X92410171Y-95001903D01*
X92248264Y-94899748D01*
X92243381Y-94896667D01*
X92054839Y-94821446D01*
X92049179Y-94820320D01*
X92049175Y-94820319D01*
X91861413Y-94782971D01*
X91861410Y-94782971D01*
X91855746Y-94781844D01*
X91849971Y-94781768D01*
X91849967Y-94781768D01*
X91748593Y-94780441D01*
X91652771Y-94779187D01*
X91647074Y-94780166D01*
X91647073Y-94780166D01*
X91561886Y-94794804D01*
X91452710Y-94813564D01*
X91262263Y-94883824D01*
X91087810Y-94987612D01*
X91045887Y-95024378D01*
X90960532Y-95099232D01*
X90896128Y-95129109D01*
X90877454Y-95130500D01*
X90060153Y-95130500D01*
X89992032Y-95110498D01*
X89974624Y-95097025D01*
X89879298Y-95008906D01*
X89879295Y-95008904D01*
X89875058Y-95004987D01*
X89703381Y-94896667D01*
X89514839Y-94821446D01*
X89509179Y-94820320D01*
X89509175Y-94820319D01*
X89321413Y-94782971D01*
X89321410Y-94782971D01*
X89315746Y-94781844D01*
X89309971Y-94781768D01*
X89309967Y-94781768D01*
X89212873Y-94780497D01*
X89145020Y-94759605D01*
X89125428Y-94743603D01*
X88467858Y-94086034D01*
X94365300Y-94086034D01*
X94380302Y-94180755D01*
X94384803Y-94189588D01*
X94384803Y-94189589D01*
X94401567Y-94222490D01*
X94415300Y-94279693D01*
X94415300Y-94976176D01*
X94413959Y-94988181D01*
X94414455Y-94988221D01*
X94413735Y-94997168D01*
X94411754Y-95005924D01*
X94412310Y-95014884D01*
X94415058Y-95059182D01*
X94415300Y-95066984D01*
X94415300Y-95083026D01*
X94415935Y-95087457D01*
X94415935Y-95087462D01*
X94416765Y-95093253D01*
X94417796Y-95103314D01*
X94420702Y-95150159D01*
X94423749Y-95158599D01*
X94424430Y-95161889D01*
X94428382Y-95177738D01*
X94429327Y-95180968D01*
X94430599Y-95189852D01*
X94434314Y-95198023D01*
X94450018Y-95232563D01*
X94453830Y-95241928D01*
X94466722Y-95277637D01*
X94466724Y-95277640D01*
X94469772Y-95286084D01*
X94475068Y-95293333D01*
X94476640Y-95296290D01*
X94484893Y-95310414D01*
X94486698Y-95313237D01*
X94490412Y-95321405D01*
X94496269Y-95328202D01*
X94496270Y-95328204D01*
X94521043Y-95356953D01*
X94527325Y-95364864D01*
X94535273Y-95375744D01*
X94546135Y-95386606D01*
X94552493Y-95393452D01*
X94584744Y-95430882D01*
X94592279Y-95435766D01*
X94598851Y-95441499D01*
X94610255Y-95450726D01*
X96824523Y-97664994D01*
X96832065Y-97674434D01*
X96832445Y-97674111D01*
X96838263Y-97680947D01*
X96843053Y-97688539D01*
X96849781Y-97694481D01*
X96883059Y-97723871D01*
X96888746Y-97729217D01*
X96900080Y-97740551D01*
X96903663Y-97743236D01*
X96903665Y-97743238D01*
X96908355Y-97746753D01*
X96916198Y-97753138D01*
X96951370Y-97784201D01*
X96959492Y-97788014D01*
X96962293Y-97789854D01*
X96976288Y-97798263D01*
X96979251Y-97799885D01*
X96986436Y-97805270D01*
X96994846Y-97808423D01*
X96994848Y-97808424D01*
X97030382Y-97821746D01*
X97039695Y-97825670D01*
X97082182Y-97845617D01*
X97091056Y-97846999D01*
X97094283Y-97847985D01*
X97110046Y-97852120D01*
X97113340Y-97852844D01*
X97121752Y-97855998D01*
X97130710Y-97856664D01*
X97130711Y-97856664D01*
X97168550Y-97859476D01*
X97178574Y-97860626D01*
X97191897Y-97862700D01*
X97207262Y-97862700D01*
X97216599Y-97863046D01*
X97265866Y-97866707D01*
X97274641Y-97864834D01*
X97283337Y-97864241D01*
X97297937Y-97862700D01*
X101162569Y-97862700D01*
X101230690Y-97882702D01*
X101253206Y-97901173D01*
X101293821Y-97943231D01*
X101435460Y-98035917D01*
X101594115Y-98094920D01*
X101601096Y-98095851D01*
X101601098Y-98095852D01*
X101754918Y-98116376D01*
X101754922Y-98116376D01*
X101761899Y-98117307D01*
X101768910Y-98116669D01*
X101768914Y-98116669D01*
X101923452Y-98102605D01*
X101930473Y-98101966D01*
X102091459Y-98049658D01*
X102191100Y-97990260D01*
X102230804Y-97966592D01*
X102230806Y-97966591D01*
X102236856Y-97962984D01*
X102359438Y-97846252D01*
X102375720Y-97821746D01*
X102449210Y-97711135D01*
X102449211Y-97711133D01*
X102453111Y-97705263D01*
X102513220Y-97547024D01*
X102536778Y-97379400D01*
X102537074Y-97358200D01*
X102518206Y-97189984D01*
X102462538Y-97030129D01*
X102372838Y-96886579D01*
X102298601Y-96811821D01*
X102264794Y-96749391D01*
X102270106Y-96678594D01*
X102301115Y-96631792D01*
X102341802Y-96593046D01*
X102359438Y-96576252D01*
X102373109Y-96555676D01*
X102449210Y-96441135D01*
X102449211Y-96441133D01*
X102453111Y-96435263D01*
X102513220Y-96277024D01*
X102528381Y-96169147D01*
X102536227Y-96113323D01*
X102536227Y-96113318D01*
X102536778Y-96109400D01*
X102537074Y-96088200D01*
X102518206Y-95919984D01*
X102462538Y-95760129D01*
X102372838Y-95616579D01*
X102253564Y-95496469D01*
X102231249Y-95482307D01*
X102166666Y-95441322D01*
X102110644Y-95405769D01*
X102056828Y-95386606D01*
X101957816Y-95351349D01*
X101957811Y-95351348D01*
X101951181Y-95348987D01*
X101944195Y-95348154D01*
X101944191Y-95348153D01*
X101825087Y-95333951D01*
X101783101Y-95328945D01*
X101776098Y-95329681D01*
X101776097Y-95329681D01*
X101621765Y-95345901D01*
X101621761Y-95345902D01*
X101614757Y-95346638D01*
X101608086Y-95348909D01*
X101461187Y-95398917D01*
X101461184Y-95398918D01*
X101454517Y-95401188D01*
X101448519Y-95404878D01*
X101448517Y-95404879D01*
X101316343Y-95486193D01*
X101316341Y-95486195D01*
X101310344Y-95489884D01*
X101305311Y-95494813D01*
X101251281Y-95547723D01*
X101188616Y-95581094D01*
X101163123Y-95583700D01*
X98025761Y-95583700D01*
X97957640Y-95563698D01*
X97936666Y-95546795D01*
X96740472Y-94350601D01*
X96706446Y-94288289D01*
X96711511Y-94217474D01*
X96717300Y-94204304D01*
X96724796Y-94189592D01*
X96724797Y-94189588D01*
X96729298Y-94180755D01*
X96744300Y-94086034D01*
X96744300Y-92372366D01*
X96729298Y-92277645D01*
X96671126Y-92163477D01*
X96580523Y-92072874D01*
X96466355Y-92014702D01*
X96371634Y-91999700D01*
X96007966Y-91999700D01*
X95913245Y-92014702D01*
X95799077Y-92072874D01*
X95708474Y-92163477D01*
X95700714Y-92178707D01*
X95667067Y-92244742D01*
X95618318Y-92296357D01*
X95549403Y-92313423D01*
X95482202Y-92290522D01*
X95442533Y-92244742D01*
X95408886Y-92178707D01*
X95401126Y-92163477D01*
X95310523Y-92072874D01*
X95196355Y-92014702D01*
X95101634Y-91999700D01*
X94737966Y-91999700D01*
X94643245Y-92014702D01*
X94529077Y-92072874D01*
X94438474Y-92163477D01*
X94380302Y-92277645D01*
X94365300Y-92372366D01*
X94365300Y-94086034D01*
X88467858Y-94086034D01*
X87837205Y-93455381D01*
X87803180Y-93393069D01*
X87800300Y-93366286D01*
X87800300Y-92607400D01*
X87820302Y-92539279D01*
X87873958Y-92492786D01*
X87926300Y-92481400D01*
X93014800Y-92481400D01*
X93573600Y-91922600D01*
X93573600Y-91382296D01*
X98070529Y-91382296D01*
X98087913Y-91539753D01*
X98142353Y-91688519D01*
X98146589Y-91694822D01*
X98146589Y-91694823D01*
X98203882Y-91780084D01*
X98225300Y-91850360D01*
X98225300Y-92178707D01*
X98211567Y-92235910D01*
X98190302Y-92277645D01*
X98175300Y-92372366D01*
X98175300Y-94086034D01*
X98190302Y-94180755D01*
X98248474Y-94294923D01*
X98339077Y-94385526D01*
X98453245Y-94443698D01*
X98547966Y-94458700D01*
X98911634Y-94458700D01*
X99006355Y-94443698D01*
X99120523Y-94385526D01*
X99211126Y-94294923D01*
X99269298Y-94180755D01*
X99284300Y-94086034D01*
X99284300Y-93023133D01*
X101023300Y-93023133D01*
X101023301Y-94073266D01*
X101030412Y-94109018D01*
X101035319Y-94133688D01*
X101038066Y-94147501D01*
X101044961Y-94157820D01*
X101044962Y-94157822D01*
X101074372Y-94201836D01*
X101094316Y-94231684D01*
X101178499Y-94287934D01*
X101252733Y-94302700D01*
X101777715Y-94302700D01*
X102302866Y-94302699D01*
X102341962Y-94294923D01*
X102364926Y-94290356D01*
X102364928Y-94290355D01*
X102377101Y-94287934D01*
X102387421Y-94281039D01*
X102387422Y-94281038D01*
X102450968Y-94238577D01*
X102461284Y-94231684D01*
X102517534Y-94147501D01*
X102532300Y-94073267D01*
X102532299Y-93023134D01*
X102517534Y-92948899D01*
X102461284Y-92864716D01*
X102377101Y-92808466D01*
X102302867Y-92793700D01*
X101777885Y-92793700D01*
X101252734Y-92793701D01*
X101216982Y-92800812D01*
X101190674Y-92806044D01*
X101190672Y-92806045D01*
X101178499Y-92808466D01*
X101168179Y-92815361D01*
X101168178Y-92815362D01*
X101107785Y-92855716D01*
X101094316Y-92864716D01*
X101038066Y-92948899D01*
X101023300Y-93023133D01*
X99284300Y-93023133D01*
X99284300Y-92372366D01*
X99269298Y-92277645D01*
X99248033Y-92235910D01*
X99234300Y-92178707D01*
X99234300Y-91849344D01*
X99257976Y-91775820D01*
X99307555Y-91706824D01*
X99366642Y-91559841D01*
X99388962Y-91403007D01*
X99389107Y-91389200D01*
X99370076Y-91231933D01*
X99314080Y-91083746D01*
X99224353Y-90953192D01*
X99106075Y-90847811D01*
X99098689Y-90843900D01*
X98972788Y-90777239D01*
X98972789Y-90777239D01*
X98966074Y-90773684D01*
X98812433Y-90735092D01*
X98804834Y-90735052D01*
X98804833Y-90735052D01*
X98738981Y-90734707D01*
X98654021Y-90734262D01*
X98646641Y-90736034D01*
X98646639Y-90736034D01*
X98507363Y-90769471D01*
X98507360Y-90769472D01*
X98499984Y-90771243D01*
X98359214Y-90843900D01*
X98239839Y-90948038D01*
X98148750Y-91077644D01*
X98091206Y-91225237D01*
X98090214Y-91232770D01*
X98090214Y-91232771D01*
X98084689Y-91274742D01*
X98070529Y-91382296D01*
X93573600Y-91382296D01*
X93573600Y-86355500D01*
X93593602Y-86287379D01*
X93647258Y-86240886D01*
X93699600Y-86229500D01*
X94201439Y-86229500D01*
X94269560Y-86249502D01*
X94290534Y-86266405D01*
X95598395Y-87574265D01*
X95632420Y-87636577D01*
X95635300Y-87663360D01*
X95635300Y-89136034D01*
X95650302Y-89230755D01*
X95708474Y-89344923D01*
X95799077Y-89435526D01*
X95913245Y-89493698D01*
X96007966Y-89508700D01*
X96371634Y-89508700D01*
X96466355Y-89493698D01*
X96580523Y-89435526D01*
X96671126Y-89344923D01*
X96712533Y-89263658D01*
X96761282Y-89212043D01*
X96830197Y-89194977D01*
X96897398Y-89217878D01*
X96937067Y-89263658D01*
X96978474Y-89344923D01*
X97069077Y-89435526D01*
X97183245Y-89493698D01*
X97277966Y-89508700D01*
X97641634Y-89508700D01*
X97736355Y-89493698D01*
X97850523Y-89435526D01*
X97941126Y-89344923D01*
X97982533Y-89263658D01*
X98031282Y-89212043D01*
X98100197Y-89194977D01*
X98167398Y-89217878D01*
X98207067Y-89263658D01*
X98248474Y-89344923D01*
X98339077Y-89435526D01*
X98453245Y-89493698D01*
X98547966Y-89508700D01*
X98911634Y-89508700D01*
X99006355Y-89493698D01*
X99120523Y-89435526D01*
X99211126Y-89344923D01*
X99215627Y-89336089D01*
X99218572Y-89332036D01*
X99274796Y-89288684D01*
X99320506Y-89280100D01*
X99722161Y-89280100D01*
X99763608Y-89290050D01*
X99764306Y-89287902D01*
X99773741Y-89290968D01*
X99782573Y-89295468D01*
X99792363Y-89297019D01*
X99792364Y-89297019D01*
X99818101Y-89301095D01*
X99874955Y-89310100D01*
X100075959Y-89310100D01*
X100277044Y-89310099D01*
X100300208Y-89306430D01*
X100359629Y-89297020D01*
X100359631Y-89297019D01*
X100369427Y-89295468D01*
X100380061Y-89290050D01*
X100431857Y-89263658D01*
X100480771Y-89238735D01*
X100569135Y-89150371D01*
X100625868Y-89039027D01*
X100640500Y-88946645D01*
X100640499Y-88604556D01*
X100625868Y-88512173D01*
X100569135Y-88400829D01*
X100480771Y-88312465D01*
X100369427Y-88255732D01*
X100359637Y-88254181D01*
X100359636Y-88254181D01*
X100333899Y-88250105D01*
X100277045Y-88241100D01*
X100076041Y-88241100D01*
X99874956Y-88241101D01*
X99851792Y-88244770D01*
X99792371Y-88254180D01*
X99792369Y-88254181D01*
X99782573Y-88255732D01*
X99773736Y-88260235D01*
X99764305Y-88263299D01*
X99763607Y-88261150D01*
X99722161Y-88271100D01*
X99610300Y-88271100D01*
X99542179Y-88251098D01*
X99495686Y-88197442D01*
X99484300Y-88145100D01*
X99484300Y-87133653D01*
X99504302Y-87065532D01*
X99557958Y-87019039D01*
X99628232Y-87008935D01*
X99692812Y-87038429D01*
X99699508Y-87044671D01*
X103272902Y-90627544D01*
X103340713Y-90695535D01*
X103374656Y-90757892D01*
X103377500Y-90784512D01*
X103377500Y-119761500D01*
X103357498Y-119829621D01*
X103303842Y-119876114D01*
X103251500Y-119887500D01*
X90823743Y-119887500D01*
X90755622Y-119867498D01*
X90709129Y-119813842D01*
X90699025Y-119743568D01*
X90728519Y-119678988D01*
X90772476Y-119647290D01*
X90780301Y-119645734D01*
X90790621Y-119638839D01*
X90790622Y-119638838D01*
X90854168Y-119596377D01*
X90864484Y-119589484D01*
X90920734Y-119505301D01*
X90935500Y-119431067D01*
X90935500Y-119302324D01*
X90936782Y-119284393D01*
X90936861Y-119283846D01*
X90936861Y-119283844D01*
X90937500Y-119279400D01*
X90937500Y-118363000D01*
X90936221Y-118351103D01*
X90935499Y-118337635D01*
X90935499Y-118205934D01*
X90920734Y-118131699D01*
X90890175Y-118085964D01*
X90871377Y-118057832D01*
X90864484Y-118047516D01*
X90780301Y-117991266D01*
X90706067Y-117976500D01*
X89281576Y-117976500D01*
X87855934Y-117976501D01*
X87852589Y-117977166D01*
X87845788Y-117977500D01*
X84356391Y-117977500D01*
X84288270Y-117957498D01*
X84241777Y-117903842D01*
X84231942Y-117831790D01*
X84241325Y-117772545D01*
X84242100Y-117767652D01*
X84242099Y-117436347D01*
X84227654Y-117345137D01*
X84218426Y-117327025D01*
X84195048Y-117281144D01*
X84185833Y-117263058D01*
X84172100Y-117205856D01*
X84172100Y-117175361D01*
X84192102Y-117107240D01*
X84209005Y-117086266D01*
X84685001Y-116610270D01*
X84747313Y-116576244D01*
X84754386Y-116574916D01*
X84774401Y-116571746D01*
X84836862Y-116561854D01*
X84946796Y-116505840D01*
X85034040Y-116418596D01*
X85090054Y-116308662D01*
X85104500Y-116217453D01*
X85104500Y-116030933D01*
X87626500Y-116030933D01*
X87626501Y-117256066D01*
X87641266Y-117330301D01*
X87648161Y-117340620D01*
X87648162Y-117340622D01*
X87688516Y-117401015D01*
X87697516Y-117414484D01*
X87781699Y-117470734D01*
X87855933Y-117485500D01*
X89280769Y-117485500D01*
X90706066Y-117485499D01*
X90741818Y-117478388D01*
X90768126Y-117473156D01*
X90768128Y-117473155D01*
X90780301Y-117470734D01*
X90790621Y-117463839D01*
X90790622Y-117463838D01*
X90854168Y-117421377D01*
X90864484Y-117414484D01*
X90920734Y-117330301D01*
X90935500Y-117256067D01*
X90935499Y-116030934D01*
X90920734Y-115956699D01*
X90864484Y-115872516D01*
X90818169Y-115841569D01*
X90790619Y-115823160D01*
X90790618Y-115823159D01*
X90780301Y-115816266D01*
X90774460Y-115815104D01*
X90722659Y-115773361D01*
X90700238Y-115705998D01*
X90717796Y-115637207D01*
X90769757Y-115588828D01*
X90826158Y-115575500D01*
X92499522Y-115575500D01*
X92567643Y-115595502D01*
X92588617Y-115612405D01*
X93022589Y-116046377D01*
X93023889Y-116047540D01*
X93042750Y-116064416D01*
X93042759Y-116064424D01*
X93044047Y-116065576D01*
X93045401Y-116066659D01*
X93045410Y-116066666D01*
X93060978Y-116079111D01*
X93065858Y-116083012D01*
X93156747Y-116129875D01*
X93162762Y-116131590D01*
X93162765Y-116131591D01*
X93194412Y-116140613D01*
X93225023Y-116149340D01*
X93229472Y-116149944D01*
X93229477Y-116149945D01*
X93293756Y-116158671D01*
X93298213Y-116159276D01*
X93302708Y-116159241D01*
X93302714Y-116159241D01*
X96418013Y-116134711D01*
X96418022Y-116134711D01*
X96419635Y-116134698D01*
X96446341Y-116133109D01*
X96447939Y-116132931D01*
X96447949Y-116132930D01*
X96455907Y-116132043D01*
X96472132Y-116130234D01*
X96567751Y-116100087D01*
X96599021Y-116083012D01*
X96626115Y-116068217D01*
X96626117Y-116068216D01*
X96630063Y-116066061D01*
X96654804Y-116047540D01*
X96685587Y-116024496D01*
X96685591Y-116024492D01*
X96689189Y-116021799D01*
X98469989Y-114240999D01*
X98488547Y-114220340D01*
X98505450Y-114199366D01*
X98552387Y-114109640D01*
X98572389Y-114041519D01*
X98582900Y-113968410D01*
X98582900Y-111876767D01*
X98584451Y-111857056D01*
X98584725Y-111855326D01*
X98585500Y-111850434D01*
X98585500Y-111486766D01*
X98570498Y-111392045D01*
X98523806Y-111300407D01*
X98516827Y-111286710D01*
X98516826Y-111286709D01*
X98512326Y-111277877D01*
X98505315Y-111270866D01*
X98502987Y-111267662D01*
X98479128Y-111200795D01*
X98495207Y-111131643D01*
X98502987Y-111119538D01*
X98505315Y-111116334D01*
X98512326Y-111109323D01*
X98570498Y-110995155D01*
X98585500Y-110900434D01*
X98585500Y-110536766D01*
X98570498Y-110442045D01*
X98512326Y-110327877D01*
X98421723Y-110237274D01*
X98307555Y-110179102D01*
X98212834Y-110164100D01*
X97124166Y-110164100D01*
X97029445Y-110179102D01*
X97020612Y-110183603D01*
X97020611Y-110183603D01*
X96987710Y-110200367D01*
X96930507Y-110214100D01*
X96645099Y-110214100D01*
X96576978Y-110194098D01*
X96530485Y-110140442D01*
X96519099Y-110088100D01*
X96519099Y-109293534D01*
X96504334Y-109219299D01*
X96494906Y-109205188D01*
X96454977Y-109145432D01*
X96448084Y-109135116D01*
X96363901Y-109078866D01*
X96289667Y-109064100D01*
X95677200Y-109064100D01*
X95064534Y-109064101D01*
X95028782Y-109071212D01*
X95002474Y-109076444D01*
X95002472Y-109076445D01*
X94990299Y-109078866D01*
X94979979Y-109085761D01*
X94979978Y-109085762D01*
X94919585Y-109126116D01*
X94906116Y-109135116D01*
X94849866Y-109219299D01*
X94835100Y-109293533D01*
X94835101Y-112143666D01*
X94839139Y-112163967D01*
X94845339Y-112195138D01*
X94849866Y-112217901D01*
X94856761Y-112228220D01*
X94856762Y-112228222D01*
X94893033Y-112282504D01*
X94906116Y-112302084D01*
X94990299Y-112358334D01*
X95064533Y-112373100D01*
X95677001Y-112373100D01*
X96289666Y-112373099D01*
X96325418Y-112365988D01*
X96351726Y-112360756D01*
X96351728Y-112360755D01*
X96363901Y-112358334D01*
X96374221Y-112351439D01*
X96374222Y-112351438D01*
X96394710Y-112337748D01*
X96462463Y-112316533D01*
X96467810Y-112318000D01*
X96481371Y-112253329D01*
X96487638Y-112242888D01*
X96504334Y-112217901D01*
X96504876Y-112215176D01*
X96545240Y-112165088D01*
X96612603Y-112142667D01*
X96681394Y-112160225D01*
X96729773Y-112212187D01*
X96743100Y-112268587D01*
X96743100Y-112287816D01*
X96723098Y-112355937D01*
X96706863Y-112376239D01*
X96682172Y-112401304D01*
X96620117Y-112435797D01*
X96585741Y-112433598D01*
X96589730Y-112458215D01*
X96561394Y-112523312D01*
X96554475Y-112530936D01*
X95254583Y-113850523D01*
X95192528Y-113885016D01*
X95164820Y-113888100D01*
X93758678Y-113888100D01*
X93690557Y-113868098D01*
X93669583Y-113851195D01*
X93666999Y-113848611D01*
X93646340Y-113830053D01*
X93625366Y-113813150D01*
X93535640Y-113766213D01*
X93513196Y-113759623D01*
X93471842Y-113747480D01*
X93471838Y-113747479D01*
X93467519Y-113746211D01*
X93463071Y-113745571D01*
X93463064Y-113745570D01*
X93398858Y-113736339D01*
X93398851Y-113736339D01*
X93394410Y-113735700D01*
X90420460Y-113735700D01*
X90415357Y-113735500D01*
X90412834Y-113735100D01*
X90049166Y-113735100D01*
X90011712Y-113741032D01*
X89964236Y-113748551D01*
X89964234Y-113748552D01*
X89954445Y-113750102D01*
X89935691Y-113759657D01*
X89934844Y-113757994D01*
X89932683Y-113759623D01*
X89933107Y-113760367D01*
X89925501Y-113764698D01*
X89920378Y-113767460D01*
X89849110Y-113803773D01*
X89849108Y-113803774D01*
X89840277Y-113808274D01*
X89833266Y-113815285D01*
X89830062Y-113817613D01*
X89763195Y-113841472D01*
X89694043Y-113825393D01*
X89681938Y-113817613D01*
X89678734Y-113815285D01*
X89671723Y-113808274D01*
X89662891Y-113803774D01*
X89662890Y-113803773D01*
X89594803Y-113769081D01*
X89557555Y-113750102D01*
X89462834Y-113735100D01*
X89099166Y-113735100D01*
X89004445Y-113750102D01*
X88890277Y-113808274D01*
X88799674Y-113898877D01*
X88741502Y-114013045D01*
X88726500Y-114107766D01*
X88726500Y-115196434D01*
X88741502Y-115291155D01*
X88746003Y-115299988D01*
X88746003Y-115299989D01*
X88762767Y-115332890D01*
X88776500Y-115390093D01*
X88776500Y-115675501D01*
X88756498Y-115743622D01*
X88702842Y-115790115D01*
X88650500Y-115801501D01*
X87855934Y-115801501D01*
X87820182Y-115808612D01*
X87793874Y-115813844D01*
X87793872Y-115813845D01*
X87781699Y-115816266D01*
X87771379Y-115823161D01*
X87771378Y-115823162D01*
X87743831Y-115841569D01*
X87697516Y-115872516D01*
X87641266Y-115956699D01*
X87626500Y-116030933D01*
X85104500Y-116030933D01*
X85104499Y-115786148D01*
X85090054Y-115694938D01*
X85089356Y-115693568D01*
X85084500Y-115662909D01*
X85084500Y-112404161D01*
X85104502Y-112336040D01*
X85121405Y-112315066D01*
X85795466Y-111641005D01*
X85857778Y-111606979D01*
X85884561Y-111604100D01*
X86329901Y-111604100D01*
X86398022Y-111624102D01*
X86444515Y-111677758D01*
X86455901Y-111730100D01*
X86455902Y-112062643D01*
X86456677Y-112067536D01*
X86468576Y-112142667D01*
X86470533Y-112155026D01*
X86475036Y-112163863D01*
X86475036Y-112163864D01*
X86486736Y-112186826D01*
X86527266Y-112266370D01*
X86543400Y-112282504D01*
X86577426Y-112344816D01*
X86572361Y-112415631D01*
X86543400Y-112460694D01*
X86527266Y-112476828D01*
X86470533Y-112588172D01*
X86455901Y-112680554D01*
X86455902Y-113022643D01*
X86470533Y-113115026D01*
X86475034Y-113123859D01*
X86475036Y-113123864D01*
X86486736Y-113146826D01*
X86527266Y-113226370D01*
X86615630Y-113314734D01*
X86726974Y-113371467D01*
X86736764Y-113373018D01*
X86736765Y-113373018D01*
X86762502Y-113377094D01*
X86819356Y-113386099D01*
X87020360Y-113386099D01*
X87221445Y-113386098D01*
X87244609Y-113382429D01*
X87304030Y-113373019D01*
X87304032Y-113373018D01*
X87313828Y-113371467D01*
X87425172Y-113314734D01*
X87513536Y-113226370D01*
X87570269Y-113115026D01*
X87571819Y-113105237D01*
X87571822Y-113105229D01*
X87574015Y-113091382D01*
X87604428Y-113027229D01*
X87664696Y-112989703D01*
X87735686Y-112990718D01*
X87794857Y-113029951D01*
X87810728Y-113053889D01*
X87849674Y-113130323D01*
X87940277Y-113220926D01*
X88054445Y-113279098D01*
X88149166Y-113294100D01*
X88512834Y-113294100D01*
X88607555Y-113279098D01*
X88711039Y-113226370D01*
X88712890Y-113225427D01*
X88712891Y-113225426D01*
X88721723Y-113220926D01*
X88728734Y-113213915D01*
X88731938Y-113211587D01*
X88798805Y-113187728D01*
X88867957Y-113203807D01*
X88880062Y-113211587D01*
X88883266Y-113213915D01*
X88890277Y-113220926D01*
X88899109Y-113225426D01*
X88899110Y-113225427D01*
X88900961Y-113226370D01*
X89004445Y-113279098D01*
X89099166Y-113294100D01*
X89462834Y-113294100D01*
X89557555Y-113279098D01*
X89661039Y-113226370D01*
X89662890Y-113225427D01*
X89662891Y-113225426D01*
X89671723Y-113220926D01*
X89678734Y-113213915D01*
X89681938Y-113211587D01*
X89748805Y-113187728D01*
X89817957Y-113203807D01*
X89830062Y-113211587D01*
X89833266Y-113213915D01*
X89840277Y-113220926D01*
X89849109Y-113225426D01*
X89849110Y-113225427D01*
X89850961Y-113226370D01*
X89954445Y-113279098D01*
X90049166Y-113294100D01*
X90412834Y-113294100D01*
X90507555Y-113279098D01*
X90621723Y-113220926D01*
X90712326Y-113130323D01*
X90770498Y-113016155D01*
X90785500Y-112921434D01*
X90785500Y-111832766D01*
X90770498Y-111738045D01*
X90712326Y-111623877D01*
X90715208Y-111622408D01*
X90697135Y-111572138D01*
X90695054Y-111538601D01*
X90695054Y-111538600D01*
X90694498Y-111529642D01*
X90691450Y-111521199D01*
X90690771Y-111517920D01*
X90686816Y-111502055D01*
X90685873Y-111498831D01*
X90684601Y-111489948D01*
X90680887Y-111481779D01*
X90680885Y-111481773D01*
X90665175Y-111447221D01*
X90661361Y-111437852D01*
X90655761Y-111422340D01*
X90645428Y-111393716D01*
X90640131Y-111386466D01*
X90638554Y-111383499D01*
X90630307Y-111369386D01*
X90628502Y-111366563D01*
X90624788Y-111358395D01*
X90594153Y-111322842D01*
X90587875Y-111314936D01*
X90579927Y-111304056D01*
X90569065Y-111293194D01*
X90562707Y-111286347D01*
X90536315Y-111255718D01*
X90530456Y-111248918D01*
X90522921Y-111244034D01*
X90516349Y-111238301D01*
X90504945Y-111229074D01*
X90068677Y-110792806D01*
X90061135Y-110783366D01*
X90060755Y-110783689D01*
X90054937Y-110776853D01*
X90050147Y-110769261D01*
X90010140Y-110733928D01*
X90004454Y-110728583D01*
X89993120Y-110717249D01*
X89984845Y-110711047D01*
X89977000Y-110704660D01*
X89948557Y-110679540D01*
X89941830Y-110673599D01*
X89933708Y-110669786D01*
X89930907Y-110667946D01*
X89916912Y-110659537D01*
X89913949Y-110657915D01*
X89906764Y-110652530D01*
X89898354Y-110649377D01*
X89898352Y-110649376D01*
X89862818Y-110636054D01*
X89853502Y-110632129D01*
X89848599Y-110629827D01*
X89811018Y-110612183D01*
X89802144Y-110610801D01*
X89798917Y-110609815D01*
X89783134Y-110605675D01*
X89779856Y-110604954D01*
X89771448Y-110601802D01*
X89757691Y-110600780D01*
X89724643Y-110598324D01*
X89714596Y-110597170D01*
X89706114Y-110595849D01*
X89706111Y-110595849D01*
X89701303Y-110595100D01*
X89685938Y-110595100D01*
X89676601Y-110594754D01*
X89669048Y-110594193D01*
X89627333Y-110591093D01*
X89618558Y-110592966D01*
X89609862Y-110593559D01*
X89595262Y-110595100D01*
X85694024Y-110595100D01*
X85682019Y-110593759D01*
X85681979Y-110594255D01*
X85673032Y-110593535D01*
X85664276Y-110591554D01*
X85620738Y-110594255D01*
X85611018Y-110594858D01*
X85603216Y-110595100D01*
X85587174Y-110595100D01*
X85582743Y-110595735D01*
X85582738Y-110595735D01*
X85578713Y-110596312D01*
X85576943Y-110596565D01*
X85566886Y-110597596D01*
X85544424Y-110598989D01*
X85529000Y-110599946D01*
X85528998Y-110599946D01*
X85520041Y-110600502D01*
X85511601Y-110603549D01*
X85508311Y-110604230D01*
X85492454Y-110608184D01*
X85489229Y-110609127D01*
X85480348Y-110610399D01*
X85472183Y-110614112D01*
X85472181Y-110614112D01*
X85437618Y-110629827D01*
X85428275Y-110633631D01*
X85384115Y-110649573D01*
X85376867Y-110654868D01*
X85373886Y-110656453D01*
X85359787Y-110664693D01*
X85356967Y-110666497D01*
X85348795Y-110670212D01*
X85341997Y-110676069D01*
X85341996Y-110676070D01*
X85313238Y-110700849D01*
X85305326Y-110707131D01*
X85298393Y-110712196D01*
X85298380Y-110712207D01*
X85294456Y-110715074D01*
X85283602Y-110725928D01*
X85276755Y-110732286D01*
X85246118Y-110758684D01*
X85246116Y-110758687D01*
X85239318Y-110764544D01*
X85234436Y-110772077D01*
X85228706Y-110778645D01*
X85219474Y-110790056D01*
X84273204Y-111736325D01*
X84263766Y-111743866D01*
X84264089Y-111744245D01*
X84257253Y-111750063D01*
X84249661Y-111754853D01*
X84243719Y-111761581D01*
X84214329Y-111794859D01*
X84208983Y-111800546D01*
X84197649Y-111811880D01*
X84194964Y-111815463D01*
X84194962Y-111815465D01*
X84191447Y-111820155D01*
X84185062Y-111827998D01*
X84153999Y-111863170D01*
X84150186Y-111871292D01*
X84148346Y-111874093D01*
X84139937Y-111888088D01*
X84138315Y-111891051D01*
X84132930Y-111898236D01*
X84129777Y-111906646D01*
X84129776Y-111906648D01*
X84116454Y-111942182D01*
X84112530Y-111951495D01*
X84092583Y-111993982D01*
X84091201Y-112002856D01*
X84090215Y-112006083D01*
X84086075Y-112021866D01*
X84085354Y-112025144D01*
X84082202Y-112033552D01*
X84081537Y-112042503D01*
X84078724Y-112080357D01*
X84077570Y-112090404D01*
X84075500Y-112103697D01*
X84075500Y-112119062D01*
X84075154Y-112128399D01*
X84071493Y-112177667D01*
X84073366Y-112186442D01*
X84073959Y-112195138D01*
X84075500Y-112209738D01*
X84075500Y-115662908D01*
X84070643Y-115693570D01*
X84069946Y-115694938D01*
X84067290Y-115711706D01*
X84056883Y-115777415D01*
X84026471Y-115841569D01*
X84021529Y-115846801D01*
X83360804Y-116507525D01*
X83351366Y-116515066D01*
X83351689Y-116515445D01*
X83344853Y-116521263D01*
X83337261Y-116526053D01*
X83331319Y-116532781D01*
X83301929Y-116566059D01*
X83296583Y-116571746D01*
X83285249Y-116583080D01*
X83282564Y-116586663D01*
X83282562Y-116586665D01*
X83279047Y-116591355D01*
X83272662Y-116599198D01*
X83241599Y-116634370D01*
X83237786Y-116642492D01*
X83235946Y-116645293D01*
X83227537Y-116659288D01*
X83225915Y-116662251D01*
X83220530Y-116669436D01*
X83217377Y-116677846D01*
X83217376Y-116677848D01*
X83204054Y-116713382D01*
X83200130Y-116722695D01*
X83180183Y-116765182D01*
X83178801Y-116774056D01*
X83177815Y-116777283D01*
X83173675Y-116793066D01*
X83172954Y-116796344D01*
X83169802Y-116804752D01*
X83169137Y-116813703D01*
X83166324Y-116851557D01*
X83165170Y-116861604D01*
X83163100Y-116874897D01*
X83163100Y-116890262D01*
X83162754Y-116899599D01*
X83159093Y-116948867D01*
X83160966Y-116957642D01*
X83161559Y-116966338D01*
X83163100Y-116980938D01*
X83163100Y-117205856D01*
X83149367Y-117263058D01*
X83107546Y-117345137D01*
X83093100Y-117436346D01*
X83093100Y-117441299D01*
X83093101Y-117701129D01*
X83073099Y-117769249D01*
X83019444Y-117815742D01*
X82949170Y-117825847D01*
X82901975Y-117808993D01*
X82364191Y-117484293D01*
X82023739Y-117278737D01*
X81996657Y-117267433D01*
X81959662Y-117243680D01*
X81954504Y-117238912D01*
X81950258Y-117234987D01*
X81778581Y-117126667D01*
X81590039Y-117051446D01*
X81584379Y-117050320D01*
X81584375Y-117050319D01*
X81396613Y-117012971D01*
X81396610Y-117012971D01*
X81390946Y-117011844D01*
X81385171Y-117011768D01*
X81385167Y-117011768D01*
X81283793Y-117010441D01*
X81187971Y-117009187D01*
X81182274Y-117010166D01*
X81182273Y-117010166D01*
X80993607Y-117042585D01*
X80987910Y-117043564D01*
X80797463Y-117113824D01*
X80623010Y-117217612D01*
X80572239Y-117262137D01*
X80495732Y-117329232D01*
X80431328Y-117359109D01*
X80412654Y-117360500D01*
X79595353Y-117360500D01*
X79527232Y-117340498D01*
X79509824Y-117327025D01*
X79414498Y-117238906D01*
X79414495Y-117238904D01*
X79410258Y-117234987D01*
X79238581Y-117126667D01*
X79050039Y-117051446D01*
X79044379Y-117050320D01*
X79044375Y-117050319D01*
X78856613Y-117012971D01*
X78856610Y-117012971D01*
X78850946Y-117011844D01*
X78845171Y-117011768D01*
X78845167Y-117011768D01*
X78743793Y-117010441D01*
X78647971Y-117009187D01*
X78642274Y-117010166D01*
X78642273Y-117010166D01*
X78453607Y-117042585D01*
X78447910Y-117043564D01*
X78257463Y-117113824D01*
X78083010Y-117217612D01*
X78078670Y-117221418D01*
X78078666Y-117221421D01*
X78010566Y-117281144D01*
X77930392Y-117351455D01*
X77804720Y-117510869D01*
X77710203Y-117690515D01*
X77650007Y-117884378D01*
X77626148Y-118085964D01*
X77639424Y-118288522D01*
X77689392Y-118485269D01*
X77774377Y-118669616D01*
X77891533Y-118835389D01*
X78036938Y-118977035D01*
X78041742Y-118980245D01*
X78109400Y-119025453D01*
X78205720Y-119089812D01*
X78211023Y-119092090D01*
X78211026Y-119092092D01*
X78299707Y-119130192D01*
X78392228Y-119169942D01*
X78465244Y-119186464D01*
X78584579Y-119213467D01*
X78584584Y-119213468D01*
X78590216Y-119214742D01*
X78595987Y-119214969D01*
X78595989Y-119214969D01*
X78655756Y-119217317D01*
X78793053Y-119222712D01*
X78905803Y-119206364D01*
X78988231Y-119194413D01*
X78988236Y-119194412D01*
X78993945Y-119193584D01*
X78999409Y-119191729D01*
X78999414Y-119191728D01*
X79180693Y-119130192D01*
X79180698Y-119130190D01*
X79186165Y-119128334D01*
X79363276Y-119029147D01*
X79425934Y-118977035D01*
X79519345Y-118899345D01*
X79520945Y-118901269D01*
X79573851Y-118872379D01*
X79600634Y-118869500D01*
X80415322Y-118869500D01*
X80483443Y-118889502D01*
X80503243Y-118905246D01*
X80572793Y-118972998D01*
X80572798Y-118973002D01*
X80576938Y-118977035D01*
X80745720Y-119089812D01*
X80751023Y-119092090D01*
X80751026Y-119092092D01*
X80839707Y-119130192D01*
X80932228Y-119169942D01*
X80937863Y-119171217D01*
X80937866Y-119171218D01*
X80994770Y-119184094D01*
X81066183Y-119200253D01*
X81115153Y-119223240D01*
X81121990Y-119228494D01*
X81806294Y-119613415D01*
X81806298Y-119613417D01*
X81809811Y-119615393D01*
X81813556Y-119616907D01*
X81813555Y-119616907D01*
X81867535Y-119638737D01*
X81867544Y-119638740D01*
X81871278Y-119640250D01*
X81875178Y-119641271D01*
X81877094Y-119641907D01*
X81935453Y-119682338D01*
X81962690Y-119747902D01*
X81950156Y-119817784D01*
X81901831Y-119869796D01*
X81837426Y-119887500D01*
X77088500Y-119887500D01*
X77020379Y-119867498D01*
X76973886Y-119813842D01*
X76962500Y-119761500D01*
X76962500Y-114830891D01*
X76982502Y-114762770D01*
X77036158Y-114716277D01*
X77088000Y-114704892D01*
X79175891Y-114696607D01*
X83090686Y-114681072D01*
X83108800Y-114681000D01*
X83108800Y-109267164D01*
X89035748Y-109267164D01*
X89049024Y-109469722D01*
X89050445Y-109475318D01*
X89050446Y-109475323D01*
X89058407Y-109506667D01*
X89098992Y-109666469D01*
X89183977Y-109850816D01*
X89187310Y-109855532D01*
X89254380Y-109950434D01*
X89301133Y-110016589D01*
X89446538Y-110158235D01*
X89451342Y-110161445D01*
X89484504Y-110183603D01*
X89615320Y-110271012D01*
X89620623Y-110273290D01*
X89620626Y-110273292D01*
X89796521Y-110348862D01*
X89801828Y-110351142D01*
X89874844Y-110367664D01*
X89994179Y-110394667D01*
X89994184Y-110394668D01*
X89999816Y-110395942D01*
X90005587Y-110396169D01*
X90005589Y-110396169D01*
X90065356Y-110398517D01*
X90202653Y-110403912D01*
X90262710Y-110395204D01*
X90280791Y-110393900D01*
X90796261Y-110393900D01*
X90864382Y-110413902D01*
X90885929Y-110431381D01*
X92570153Y-112137477D01*
X92691526Y-112260426D01*
X92692816Y-112261596D01*
X92692817Y-112261597D01*
X92709869Y-112277063D01*
X92715195Y-112283240D01*
X92715445Y-112282990D01*
X92724223Y-112291768D01*
X92731116Y-112302084D01*
X92741432Y-112308977D01*
X92741434Y-112308979D01*
X92781934Y-112336040D01*
X92815299Y-112358334D01*
X92889533Y-112373100D01*
X92942943Y-112373100D01*
X92960874Y-112374382D01*
X92961420Y-112374461D01*
X92961427Y-112374461D01*
X92965868Y-112375100D01*
X93981000Y-112375100D01*
X93992897Y-112373821D01*
X94006365Y-112373099D01*
X94114666Y-112373099D01*
X94150418Y-112365988D01*
X94176726Y-112360756D01*
X94176728Y-112360755D01*
X94188901Y-112358334D01*
X94199221Y-112351439D01*
X94199222Y-112351438D01*
X94262768Y-112308977D01*
X94273084Y-112302084D01*
X94329334Y-112217901D01*
X94344100Y-112143667D01*
X94344100Y-112121315D01*
X94349204Y-112085817D01*
X94354720Y-112067032D01*
X94354721Y-112067028D01*
X94355989Y-112062709D01*
X94356955Y-112055995D01*
X94365861Y-111994048D01*
X94365861Y-111994041D01*
X94366500Y-111989600D01*
X94366500Y-105805950D01*
X94386502Y-105737829D01*
X94416900Y-105705150D01*
X94514862Y-105631679D01*
X94514869Y-105631673D01*
X94517100Y-105630000D01*
X94551406Y-105599143D01*
X94569466Y-105579728D01*
X94630506Y-105543475D01*
X94701458Y-105545977D01*
X94750816Y-105576452D01*
X94783604Y-105609240D01*
X94893538Y-105665254D01*
X94903327Y-105666804D01*
X94903329Y-105666805D01*
X94929821Y-105671001D01*
X94984747Y-105679700D01*
X95150366Y-105679700D01*
X95316052Y-105679699D01*
X95323642Y-105678497D01*
X95397464Y-105666806D01*
X95397466Y-105666805D01*
X95407262Y-105665254D01*
X95489341Y-105623433D01*
X95546543Y-105609700D01*
X95664368Y-105609700D01*
X95732489Y-105629702D01*
X95776635Y-105678497D01*
X95777248Y-105679700D01*
X95812760Y-105749396D01*
X95900004Y-105836640D01*
X96009938Y-105892654D01*
X96019727Y-105894204D01*
X96019729Y-105894205D01*
X96046221Y-105898401D01*
X96101147Y-105907100D01*
X96316756Y-105907100D01*
X96532452Y-105907099D01*
X96623662Y-105892654D01*
X96625032Y-105891956D01*
X96655691Y-105887100D01*
X96714039Y-105887100D01*
X96782160Y-105907102D01*
X96803134Y-105924005D01*
X98500923Y-107621794D01*
X98508465Y-107631234D01*
X98508845Y-107630911D01*
X98514663Y-107637747D01*
X98519453Y-107645339D01*
X98526181Y-107651281D01*
X98559459Y-107680671D01*
X98565146Y-107686017D01*
X98576480Y-107697351D01*
X98580066Y-107700038D01*
X98580071Y-107700043D01*
X98584759Y-107703557D01*
X98592597Y-107709938D01*
X98621928Y-107735841D01*
X98621930Y-107735844D01*
X98627770Y-107741001D01*
X98627026Y-107741844D01*
X98667501Y-107789506D01*
X98676903Y-107859877D01*
X98646768Y-107924161D01*
X98609574Y-107952970D01*
X98603853Y-107955885D01*
X98578531Y-107963905D01*
X98578853Y-107965006D01*
X98570233Y-107967527D01*
X98561348Y-107968799D01*
X98553177Y-107972514D01*
X98553174Y-107972515D01*
X98538235Y-107979308D01*
X98520706Y-107985758D01*
X98504907Y-107990273D01*
X98504906Y-107990274D01*
X98496279Y-107992739D01*
X98473196Y-108007304D01*
X98471523Y-108008359D01*
X98456440Y-108016497D01*
X98444713Y-108021830D01*
X98429795Y-108028612D01*
X98422991Y-108034475D01*
X98422989Y-108034476D01*
X98410553Y-108045191D01*
X98395542Y-108056299D01*
X98381655Y-108065061D01*
X98381653Y-108065063D01*
X98374061Y-108069853D01*
X98354686Y-108091792D01*
X98342493Y-108103837D01*
X98320318Y-108122944D01*
X98315435Y-108130478D01*
X98306504Y-108144256D01*
X98295216Y-108159128D01*
X98284357Y-108171424D01*
X98278399Y-108178170D01*
X98272663Y-108190387D01*
X98265959Y-108204665D01*
X98257638Y-108219644D01*
X98246600Y-108236674D01*
X98246596Y-108236682D01*
X98241717Y-108244210D01*
X98235545Y-108264847D01*
X98234438Y-108268549D01*
X98227779Y-108285987D01*
X98216983Y-108308982D01*
X98215603Y-108317848D01*
X98215602Y-108317850D01*
X98212481Y-108337897D01*
X98208698Y-108354615D01*
X98200310Y-108382663D01*
X98200255Y-108391636D01*
X98200255Y-108391638D01*
X98200155Y-108408064D01*
X98198657Y-108426680D01*
X98196131Y-108442900D01*
X98196131Y-108442904D01*
X98194750Y-108451773D01*
X98198545Y-108480798D01*
X98199607Y-108497893D01*
X98199428Y-108527173D01*
X98201895Y-108535804D01*
X98201895Y-108535806D01*
X98206408Y-108551597D01*
X98210195Y-108569883D01*
X98213488Y-108595065D01*
X98217102Y-108603279D01*
X98217104Y-108603285D01*
X98225274Y-108621852D01*
X98231094Y-108637974D01*
X98236671Y-108657489D01*
X98236674Y-108657496D01*
X98239139Y-108666121D01*
X98243927Y-108673709D01*
X98243928Y-108673712D01*
X98252691Y-108687600D01*
X98261459Y-108704089D01*
X98271689Y-108727339D01*
X98277463Y-108734209D01*
X98277465Y-108734211D01*
X98290528Y-108749752D01*
X98300636Y-108763587D01*
X98316253Y-108788339D01*
X98335288Y-108805150D01*
X98348326Y-108818510D01*
X98358903Y-108831093D01*
X98358906Y-108831095D01*
X98364676Y-108837960D01*
X98389050Y-108854185D01*
X98402625Y-108864620D01*
X98424570Y-108884001D01*
X98447565Y-108894797D01*
X98463831Y-108903963D01*
X98484974Y-108918037D01*
X98512152Y-108926528D01*
X98512916Y-108926767D01*
X98528882Y-108932976D01*
X98555382Y-108945417D01*
X98564251Y-108946798D01*
X98572837Y-108949423D01*
X98572772Y-108949637D01*
X98601574Y-108958954D01*
X98641351Y-108979221D01*
X98697573Y-109007868D01*
X98707363Y-109009419D01*
X98707364Y-109009419D01*
X98733101Y-109013495D01*
X98789955Y-109022500D01*
X98960965Y-109022500D01*
X99132044Y-109022499D01*
X99136938Y-109021724D01*
X99184845Y-109014137D01*
X99255256Y-109023237D01*
X99309570Y-109068960D01*
X99330541Y-109136789D01*
X99311513Y-109205188D01*
X99261757Y-109250853D01*
X99190277Y-109287274D01*
X99099674Y-109377877D01*
X99041502Y-109492045D01*
X99026500Y-109586766D01*
X99026500Y-109950434D01*
X99041502Y-110045155D01*
X99046003Y-110053988D01*
X99090054Y-110140442D01*
X99099674Y-110159323D01*
X99106685Y-110166334D01*
X99109013Y-110169538D01*
X99132872Y-110236405D01*
X99116793Y-110305557D01*
X99109013Y-110317662D01*
X99106685Y-110320866D01*
X99099674Y-110327877D01*
X99095174Y-110336709D01*
X99095173Y-110336710D01*
X99087820Y-110351142D01*
X99041502Y-110442045D01*
X99026500Y-110536766D01*
X99026500Y-110900434D01*
X99041502Y-110995155D01*
X99099674Y-111109323D01*
X99106685Y-111116334D01*
X99109013Y-111119538D01*
X99132872Y-111186405D01*
X99116793Y-111255557D01*
X99109013Y-111267662D01*
X99106685Y-111270866D01*
X99099674Y-111277877D01*
X99095174Y-111286709D01*
X99095173Y-111286710D01*
X99088194Y-111300407D01*
X99041502Y-111392045D01*
X99026500Y-111486766D01*
X99026500Y-111850434D01*
X99041502Y-111945155D01*
X99099674Y-112059323D01*
X99190277Y-112149926D01*
X99304445Y-112208098D01*
X99399166Y-112223100D01*
X100487834Y-112223100D01*
X100582555Y-112208098D01*
X100605439Y-112196438D01*
X100640576Y-112178535D01*
X100670206Y-112168129D01*
X100677159Y-112167698D01*
X100685602Y-112164650D01*
X100688901Y-112163967D01*
X100704738Y-112160018D01*
X100707968Y-112159073D01*
X100716852Y-112157801D01*
X100725023Y-112154086D01*
X100759563Y-112138382D01*
X100768928Y-112134570D01*
X100804637Y-112121678D01*
X100804640Y-112121676D01*
X100813084Y-112118628D01*
X100820333Y-112113332D01*
X100823290Y-112111760D01*
X100837414Y-112103507D01*
X100840237Y-112101702D01*
X100848405Y-112097988D01*
X100855202Y-112092131D01*
X100855204Y-112092130D01*
X100871714Y-112077904D01*
X100883958Y-112067353D01*
X100891864Y-112061075D01*
X100902744Y-112053127D01*
X100913605Y-112042266D01*
X100920452Y-112035908D01*
X100951081Y-112009517D01*
X100951084Y-112009514D01*
X100957882Y-112003656D01*
X100962766Y-111996120D01*
X100968502Y-111989544D01*
X100977728Y-111978142D01*
X101449592Y-111506278D01*
X101459035Y-111498733D01*
X101458712Y-111498354D01*
X101465545Y-111492538D01*
X101473139Y-111487747D01*
X101479083Y-111481017D01*
X101479085Y-111481015D01*
X101508478Y-111447734D01*
X101513824Y-111442046D01*
X101525151Y-111430719D01*
X101531350Y-111422448D01*
X101537737Y-111414603D01*
X101562857Y-111386160D01*
X101568801Y-111379430D01*
X101572616Y-111371303D01*
X101574469Y-111368483D01*
X101582867Y-111354506D01*
X101584486Y-111351549D01*
X101589871Y-111344364D01*
X101593025Y-111335952D01*
X101606351Y-111300407D01*
X101610276Y-111291091D01*
X101612503Y-111286347D01*
X101630217Y-111248618D01*
X101631598Y-111239746D01*
X101632586Y-111236516D01*
X101636724Y-111220745D01*
X101637447Y-111217456D01*
X101640599Y-111209048D01*
X101644077Y-111162241D01*
X101645231Y-111152193D01*
X101646550Y-111143720D01*
X101646550Y-111143719D01*
X101647300Y-111138903D01*
X101647300Y-111123551D01*
X101647646Y-111114214D01*
X101650643Y-111073881D01*
X101651308Y-111064933D01*
X101649434Y-111056156D01*
X101648842Y-111047467D01*
X101647300Y-111032858D01*
X101647300Y-108303555D01*
X101648641Y-108291550D01*
X101648145Y-108291510D01*
X101648865Y-108282563D01*
X101650846Y-108273807D01*
X101647542Y-108220549D01*
X101647300Y-108212747D01*
X101647300Y-108196705D01*
X101646536Y-108191366D01*
X101645835Y-108186478D01*
X101644803Y-108176408D01*
X101642454Y-108138531D01*
X101642454Y-108138529D01*
X101641898Y-108129572D01*
X101638851Y-108121132D01*
X101638170Y-108117842D01*
X101634216Y-108101985D01*
X101633273Y-108098760D01*
X101632001Y-108089879D01*
X101612573Y-108047149D01*
X101608769Y-108037806D01*
X101592827Y-107993646D01*
X101587532Y-107986398D01*
X101585947Y-107983417D01*
X101577707Y-107969318D01*
X101575903Y-107966498D01*
X101572188Y-107958326D01*
X101566330Y-107951527D01*
X101541551Y-107922769D01*
X101535269Y-107914857D01*
X101530204Y-107907924D01*
X101530193Y-107907911D01*
X101527326Y-107903987D01*
X101516472Y-107893133D01*
X101510114Y-107886286D01*
X101483716Y-107855649D01*
X101483713Y-107855647D01*
X101477856Y-107848849D01*
X101470323Y-107843967D01*
X101463755Y-107838237D01*
X101452344Y-107829005D01*
X100631544Y-107008204D01*
X100624003Y-106998766D01*
X100623624Y-106999089D01*
X100617806Y-106992253D01*
X100613016Y-106984661D01*
X100573009Y-106949328D01*
X100567323Y-106943983D01*
X100555989Y-106932649D01*
X100547714Y-106926447D01*
X100539869Y-106920060D01*
X100511426Y-106894940D01*
X100504699Y-106888999D01*
X100496577Y-106885186D01*
X100493776Y-106883346D01*
X100479781Y-106874937D01*
X100476818Y-106873315D01*
X100469633Y-106867930D01*
X100461223Y-106864777D01*
X100461221Y-106864776D01*
X100425687Y-106851454D01*
X100416371Y-106847529D01*
X100373887Y-106827583D01*
X100365013Y-106826201D01*
X100361786Y-106825215D01*
X100346003Y-106821075D01*
X100342725Y-106820354D01*
X100334317Y-106817202D01*
X100320560Y-106816180D01*
X100287512Y-106813724D01*
X100277465Y-106812570D01*
X100268983Y-106811249D01*
X100268980Y-106811249D01*
X100264172Y-106810500D01*
X100248807Y-106810500D01*
X100239470Y-106810154D01*
X100223388Y-106808959D01*
X100190202Y-106806493D01*
X100181427Y-106808366D01*
X100172731Y-106808959D01*
X100158131Y-106810500D01*
X99168761Y-106810500D01*
X99100640Y-106790498D01*
X99079666Y-106773595D01*
X97381877Y-105075806D01*
X97374335Y-105066366D01*
X97373955Y-105066689D01*
X97368137Y-105059853D01*
X97363347Y-105052261D01*
X97323340Y-105016928D01*
X97317654Y-105011583D01*
X97306320Y-105000249D01*
X97298045Y-104994047D01*
X97290200Y-104987660D01*
X97261757Y-104962540D01*
X97255030Y-104956599D01*
X97246908Y-104952786D01*
X97244107Y-104950946D01*
X97230112Y-104942537D01*
X97227149Y-104940915D01*
X97219964Y-104935530D01*
X97211554Y-104932377D01*
X97211552Y-104932376D01*
X97176018Y-104919054D01*
X97166702Y-104915129D01*
X97124218Y-104895183D01*
X97115344Y-104893801D01*
X97112117Y-104892815D01*
X97096334Y-104888675D01*
X97093056Y-104887954D01*
X97084648Y-104884802D01*
X97070891Y-104883780D01*
X97037843Y-104881324D01*
X97027796Y-104880170D01*
X97019314Y-104878849D01*
X97019311Y-104878849D01*
X97014503Y-104878100D01*
X96999138Y-104878100D01*
X96989801Y-104877754D01*
X96973719Y-104876559D01*
X96940533Y-104874093D01*
X96931758Y-104875966D01*
X96923062Y-104876559D01*
X96908462Y-104878100D01*
X96655692Y-104878100D01*
X96625030Y-104873243D01*
X96623662Y-104872546D01*
X96541185Y-104859483D01*
X96477031Y-104829071D01*
X96471800Y-104824129D01*
X96446077Y-104798406D01*
X96438535Y-104788966D01*
X96438155Y-104789289D01*
X96432337Y-104782453D01*
X96427547Y-104774861D01*
X96387540Y-104739528D01*
X96381854Y-104734183D01*
X96370520Y-104722849D01*
X96362245Y-104716647D01*
X96354400Y-104710260D01*
X96325957Y-104685140D01*
X96319230Y-104679199D01*
X96311108Y-104675386D01*
X96308307Y-104673546D01*
X96294312Y-104665137D01*
X96291349Y-104663515D01*
X96284164Y-104658130D01*
X96275754Y-104654977D01*
X96275752Y-104654976D01*
X96240218Y-104641654D01*
X96230902Y-104637729D01*
X96208467Y-104627196D01*
X96188418Y-104617783D01*
X96179544Y-104616401D01*
X96176317Y-104615415D01*
X96160534Y-104611275D01*
X96157256Y-104610554D01*
X96148848Y-104607402D01*
X96135091Y-104606380D01*
X96102043Y-104603924D01*
X96091996Y-104602770D01*
X96083514Y-104601449D01*
X96083511Y-104601449D01*
X96078703Y-104600700D01*
X96063338Y-104600700D01*
X96054001Y-104600354D01*
X96046448Y-104599793D01*
X96004733Y-104596693D01*
X95995958Y-104598566D01*
X95987262Y-104599159D01*
X95972662Y-104600700D01*
X95546543Y-104600700D01*
X95489340Y-104586967D01*
X95489099Y-104586844D01*
X95407262Y-104545146D01*
X95397473Y-104543596D01*
X95397471Y-104543595D01*
X95370979Y-104539399D01*
X95316053Y-104530700D01*
X95150434Y-104530700D01*
X94984748Y-104530701D01*
X94979855Y-104531476D01*
X94979854Y-104531476D01*
X94903336Y-104543594D01*
X94903334Y-104543595D01*
X94893538Y-104545146D01*
X94783604Y-104601160D01*
X94743066Y-104641698D01*
X94680754Y-104675724D01*
X94609939Y-104670659D01*
X94558749Y-104635118D01*
X94551884Y-104627196D01*
X94551880Y-104627192D01*
X94550038Y-104625066D01*
X94516749Y-104592944D01*
X94427030Y-104546013D01*
X94389479Y-104534987D01*
X94363232Y-104527280D01*
X94363228Y-104527279D01*
X94358909Y-104526011D01*
X94354461Y-104525371D01*
X94354454Y-104525370D01*
X94290248Y-104516139D01*
X94290241Y-104516139D01*
X94285800Y-104515500D01*
X93981390Y-104515500D01*
X93979735Y-104515589D01*
X93979723Y-104515589D01*
X93956222Y-104516848D01*
X93953655Y-104516986D01*
X93951978Y-104517166D01*
X93951969Y-104517167D01*
X93933030Y-104519203D01*
X93933029Y-104519203D01*
X93926872Y-104519865D01*
X93892266Y-104530701D01*
X93836143Y-104548274D01*
X93836140Y-104548275D01*
X93830239Y-104550123D01*
X93824815Y-104553085D01*
X93824810Y-104553087D01*
X93771875Y-104581993D01*
X93767927Y-104584149D01*
X93764327Y-104586844D01*
X93712403Y-104625714D01*
X93712399Y-104625718D01*
X93708801Y-104628411D01*
X92919011Y-105418201D01*
X92917883Y-105419457D01*
X92917878Y-105419462D01*
X92909940Y-105428299D01*
X92900453Y-105438860D01*
X92883550Y-105459834D01*
X92836613Y-105549560D01*
X92816611Y-105617681D01*
X92815971Y-105622129D01*
X92815970Y-105622136D01*
X92807694Y-105679700D01*
X92806100Y-105690790D01*
X92806100Y-106091031D01*
X92805701Y-106098408D01*
X92805854Y-106098416D01*
X92805670Y-106101813D01*
X92805301Y-106105210D01*
X92805302Y-106695987D01*
X92805671Y-106699387D01*
X92805855Y-106702778D01*
X92805701Y-106702786D01*
X92806100Y-106710155D01*
X92806100Y-107282322D01*
X92786098Y-107350443D01*
X92769195Y-107371417D01*
X91979017Y-108161595D01*
X91916705Y-108195621D01*
X91889922Y-108198500D01*
X90300386Y-108198500D01*
X90275805Y-108196079D01*
X90266214Y-108194171D01*
X90266209Y-108194171D01*
X90260546Y-108193044D01*
X90254771Y-108192968D01*
X90254767Y-108192968D01*
X90153393Y-108191641D01*
X90057571Y-108190387D01*
X90051874Y-108191366D01*
X90051873Y-108191366D01*
X89863207Y-108223785D01*
X89857510Y-108224764D01*
X89667063Y-108295024D01*
X89662102Y-108297976D01*
X89662101Y-108297976D01*
X89652724Y-108303555D01*
X89492610Y-108398812D01*
X89488270Y-108402618D01*
X89488266Y-108402621D01*
X89422068Y-108460676D01*
X89339992Y-108532655D01*
X89214320Y-108692069D01*
X89119803Y-108871715D01*
X89059607Y-109065578D01*
X89035748Y-109267164D01*
X83108800Y-109267164D01*
X83108800Y-103341133D01*
X89040100Y-103341133D01*
X89040101Y-105091266D01*
X89054866Y-105165501D01*
X89061761Y-105175821D01*
X89061762Y-105175822D01*
X89067479Y-105184378D01*
X89111116Y-105249684D01*
X89195299Y-105305934D01*
X89269533Y-105320700D01*
X90144458Y-105320700D01*
X91019666Y-105320699D01*
X91055418Y-105313588D01*
X91081726Y-105308356D01*
X91081728Y-105308355D01*
X91093901Y-105305934D01*
X91148383Y-105269530D01*
X91170406Y-105257789D01*
X91173350Y-105256577D01*
X92476072Y-104720162D01*
X93046466Y-104485294D01*
X93081678Y-104477328D01*
X93081588Y-104476499D01*
X93132366Y-104470984D01*
X93132370Y-104470983D01*
X93140224Y-104470130D01*
X93232865Y-104435401D01*
X93260430Y-104425068D01*
X93260431Y-104425067D01*
X93268835Y-104421917D01*
X93276014Y-104416537D01*
X93276017Y-104416535D01*
X93378744Y-104339544D01*
X93378882Y-104339728D01*
X93402065Y-104322758D01*
X93423114Y-104311844D01*
X93527300Y-104257822D01*
X93900794Y-104064158D01*
X93932572Y-104052774D01*
X94973959Y-103831202D01*
X94973970Y-103831199D01*
X94975626Y-103830847D01*
X94977253Y-103830407D01*
X94977260Y-103830405D01*
X94987863Y-103827535D01*
X95003006Y-103823437D01*
X95004627Y-103822902D01*
X95004649Y-103822895D01*
X95014455Y-103819656D01*
X95042241Y-103815186D01*
X95042115Y-103813906D01*
X95048276Y-103813299D01*
X95054466Y-103813299D01*
X95090218Y-103806188D01*
X95116526Y-103800956D01*
X95116528Y-103800955D01*
X95128701Y-103798534D01*
X95139021Y-103791639D01*
X95139022Y-103791638D01*
X95202568Y-103749177D01*
X95212884Y-103742284D01*
X95269134Y-103658101D01*
X95283900Y-103583867D01*
X95283899Y-100733734D01*
X95283899Y-100733733D01*
X95774900Y-100733733D01*
X95774901Y-103583866D01*
X95780973Y-103614395D01*
X95786821Y-103643796D01*
X95789666Y-103658101D01*
X95845916Y-103742284D01*
X95930099Y-103798534D01*
X96004333Y-103813300D01*
X96616801Y-103813300D01*
X97229466Y-103813299D01*
X97265218Y-103806188D01*
X97291526Y-103800956D01*
X97291528Y-103800955D01*
X97303701Y-103798534D01*
X97314021Y-103791639D01*
X97314022Y-103791638D01*
X97377568Y-103749177D01*
X97387884Y-103742284D01*
X97444134Y-103658101D01*
X97458900Y-103583867D01*
X97458900Y-103414442D01*
X97478902Y-103346321D01*
X97532558Y-103299828D01*
X97602832Y-103289724D01*
X97667412Y-103319218D01*
X97704733Y-103375505D01*
X97704750Y-103375559D01*
X97706302Y-103385355D01*
X97709890Y-103392397D01*
X97712987Y-103404765D01*
X97719614Y-103441924D01*
X97719617Y-103441938D01*
X97720101Y-103444651D01*
X97732069Y-103488798D01*
X97733025Y-103491394D01*
X97733027Y-103491399D01*
X97878331Y-103885794D01*
X97886100Y-103929353D01*
X97886100Y-104389223D01*
X97885700Y-104396609D01*
X97885853Y-104396617D01*
X97885669Y-104400014D01*
X97885300Y-104403411D01*
X97885301Y-104994188D01*
X97885670Y-104997588D01*
X97885854Y-105000979D01*
X97885701Y-105000987D01*
X97886100Y-105008365D01*
X97886100Y-105030000D01*
X97886460Y-105033346D01*
X97886460Y-105033351D01*
X97890010Y-105066366D01*
X97892030Y-105085159D01*
X97903416Y-105137501D01*
X97910766Y-105164291D01*
X97960869Y-105252278D01*
X97979717Y-105274030D01*
X97998822Y-105296078D01*
X98007362Y-105305934D01*
X98040651Y-105338056D01*
X98130370Y-105384987D01*
X98136306Y-105386730D01*
X98194165Y-105403719D01*
X98194168Y-105403720D01*
X98198491Y-105404989D01*
X98202953Y-105405631D01*
X98202955Y-105405631D01*
X98212706Y-105407033D01*
X98238999Y-105413767D01*
X98260776Y-105421930D01*
X98319411Y-105428300D01*
X98589720Y-105428300D01*
X98860188Y-105428299D01*
X98863582Y-105427930D01*
X98863588Y-105427930D01*
X98899659Y-105424012D01*
X98918824Y-105421930D01*
X98928771Y-105418201D01*
X98932069Y-105416965D01*
X98957166Y-105411008D01*
X98957079Y-105410469D01*
X98960401Y-105409931D01*
X98963759Y-105409570D01*
X99016101Y-105398184D01*
X99042891Y-105390834D01*
X99049742Y-105386933D01*
X99049744Y-105386932D01*
X99125499Y-105343794D01*
X99130878Y-105340731D01*
X99173486Y-105303811D01*
X99182411Y-105296078D01*
X99182416Y-105296073D01*
X99184534Y-105294238D01*
X99216656Y-105260949D01*
X99263587Y-105171230D01*
X99265330Y-105165294D01*
X99282320Y-105107432D01*
X99282321Y-105107428D01*
X99283589Y-105103109D01*
X99285696Y-105088460D01*
X99293461Y-105034448D01*
X99293461Y-105034441D01*
X99294100Y-105030000D01*
X99294100Y-104997882D01*
X99294167Y-104995417D01*
X99294300Y-104994189D01*
X99294299Y-104403412D01*
X99294166Y-104402189D01*
X99294100Y-104399738D01*
X99294100Y-103943343D01*
X99305198Y-103891637D01*
X99487380Y-103486788D01*
X99487381Y-103486785D01*
X99488746Y-103483752D01*
X99490256Y-103479153D01*
X99504781Y-103434894D01*
X99505823Y-103431720D01*
X99516921Y-103380014D01*
X99522700Y-103325556D01*
X99522700Y-103316967D01*
X99524251Y-103297256D01*
X99524525Y-103295526D01*
X99525300Y-103290634D01*
X99525300Y-102926966D01*
X99510298Y-102832245D01*
X99464080Y-102741538D01*
X99456627Y-102726910D01*
X99456626Y-102726909D01*
X99452126Y-102718077D01*
X99445115Y-102711066D01*
X99442787Y-102707862D01*
X99418928Y-102640995D01*
X99435007Y-102571843D01*
X99442787Y-102559738D01*
X99445115Y-102556534D01*
X99452126Y-102549523D01*
X99456628Y-102540689D01*
X99495504Y-102464389D01*
X99510298Y-102435355D01*
X99525300Y-102340634D01*
X99525300Y-101976966D01*
X99510298Y-101882245D01*
X99452126Y-101768077D01*
X99361523Y-101677474D01*
X99247355Y-101619302D01*
X99152634Y-101604300D01*
X98063966Y-101604300D01*
X97969245Y-101619302D01*
X97960412Y-101623803D01*
X97960411Y-101623803D01*
X97927510Y-101640567D01*
X97870307Y-101654300D01*
X97584899Y-101654300D01*
X97516778Y-101634298D01*
X97470285Y-101580642D01*
X97458899Y-101528300D01*
X97458899Y-100733734D01*
X97444134Y-100659499D01*
X97387884Y-100575316D01*
X97303701Y-100519066D01*
X97229467Y-100504300D01*
X96617000Y-100504300D01*
X96004334Y-100504301D01*
X95968582Y-100511412D01*
X95942274Y-100516644D01*
X95942272Y-100516645D01*
X95930099Y-100519066D01*
X95919779Y-100525961D01*
X95919778Y-100525962D01*
X95915709Y-100528681D01*
X95845916Y-100575316D01*
X95789666Y-100659499D01*
X95774900Y-100733733D01*
X95283899Y-100733733D01*
X95282692Y-100727664D01*
X95282085Y-100721505D01*
X95282400Y-100721474D01*
X95280900Y-100706248D01*
X95280900Y-100551153D01*
X95288669Y-100507594D01*
X95433966Y-100113217D01*
X95433968Y-100113212D01*
X95434931Y-100110597D01*
X95436683Y-100104137D01*
X95446172Y-100069134D01*
X95446174Y-100069126D01*
X95446899Y-100066451D01*
X95454668Y-100022892D01*
X95458700Y-99977328D01*
X95458700Y-99968682D01*
X95458767Y-99966217D01*
X95458900Y-99964989D01*
X95458899Y-99374212D01*
X95458766Y-99372989D01*
X95458700Y-99370538D01*
X95458700Y-99013690D01*
X95478702Y-98945569D01*
X95532358Y-98899076D01*
X95602632Y-98888972D01*
X95641902Y-98901423D01*
X95697502Y-98929752D01*
X95706338Y-98934254D01*
X95716127Y-98935804D01*
X95716129Y-98935805D01*
X95742621Y-98940001D01*
X95797547Y-98948700D01*
X95963166Y-98948700D01*
X96128852Y-98948699D01*
X96173506Y-98941627D01*
X96243917Y-98950727D01*
X96282310Y-98976981D01*
X96568523Y-99263194D01*
X96576065Y-99272634D01*
X96576445Y-99272311D01*
X96582263Y-99279147D01*
X96587053Y-99286739D01*
X96593781Y-99292681D01*
X96627059Y-99322071D01*
X96632746Y-99327417D01*
X96644080Y-99338751D01*
X96647663Y-99341436D01*
X96647665Y-99341438D01*
X96652355Y-99344953D01*
X96660198Y-99351338D01*
X96695370Y-99382401D01*
X96703492Y-99386214D01*
X96706293Y-99388054D01*
X96720288Y-99396463D01*
X96723251Y-99398085D01*
X96730436Y-99403470D01*
X96738846Y-99406623D01*
X96738848Y-99406624D01*
X96774382Y-99419946D01*
X96783695Y-99423870D01*
X96826182Y-99443817D01*
X96835056Y-99445199D01*
X96838283Y-99446185D01*
X96854066Y-99450325D01*
X96857344Y-99451046D01*
X96865752Y-99454198D01*
X96879509Y-99455220D01*
X96912557Y-99457676D01*
X96922604Y-99458830D01*
X96931086Y-99460151D01*
X96931089Y-99460151D01*
X96935897Y-99460900D01*
X96951262Y-99460900D01*
X96960600Y-99461246D01*
X97009867Y-99464907D01*
X97018642Y-99463034D01*
X97027338Y-99462441D01*
X97041938Y-99460900D01*
X97247908Y-99460900D01*
X97278570Y-99465757D01*
X97279938Y-99466454D01*
X97289729Y-99468005D01*
X97289730Y-99468005D01*
X97303305Y-99470155D01*
X97371147Y-99480900D01*
X97586756Y-99480900D01*
X97802452Y-99480899D01*
X97893662Y-99466454D01*
X97895032Y-99465756D01*
X97925691Y-99460900D01*
X99281592Y-99460900D01*
X99349713Y-99480902D01*
X99396206Y-99534558D01*
X99406041Y-99606611D01*
X99391700Y-99697155D01*
X99391701Y-100099244D01*
X99406332Y-100191627D01*
X99463065Y-100302971D01*
X99551429Y-100391335D01*
X99662773Y-100448068D01*
X99672563Y-100449619D01*
X99672564Y-100449619D01*
X99698301Y-100453695D01*
X99755155Y-100462700D01*
X99926165Y-100462700D01*
X100097244Y-100462699D01*
X100102143Y-100461923D01*
X100102145Y-100461923D01*
X100113193Y-100460174D01*
X100183604Y-100469275D01*
X100237916Y-100514999D01*
X100258886Y-100582828D01*
X100239856Y-100651227D01*
X100190101Y-100696890D01*
X100138912Y-100722972D01*
X100138911Y-100722973D01*
X100130077Y-100727474D01*
X100039474Y-100818077D01*
X99981302Y-100932245D01*
X99966300Y-101026966D01*
X99966300Y-101390634D01*
X99981302Y-101485355D01*
X99985803Y-101494188D01*
X100029854Y-101580642D01*
X100039474Y-101599523D01*
X100046485Y-101606534D01*
X100048813Y-101609738D01*
X100072672Y-101676605D01*
X100056593Y-101745757D01*
X100048814Y-101757862D01*
X100046489Y-101761062D01*
X100039474Y-101768077D01*
X100034970Y-101776917D01*
X100034969Y-101776918D01*
X100033620Y-101779565D01*
X100009085Y-101810829D01*
X100009419Y-101811120D01*
X100003812Y-101817548D01*
X100003610Y-101817805D01*
X100003519Y-101817883D01*
X100003516Y-101817886D01*
X99996718Y-101823744D01*
X99991836Y-101831275D01*
X99991835Y-101831277D01*
X99982904Y-101845056D01*
X99971616Y-101859928D01*
X99954799Y-101878970D01*
X99948065Y-101893313D01*
X99942359Y-101905465D01*
X99934038Y-101920444D01*
X99923000Y-101937474D01*
X99922996Y-101937482D01*
X99918117Y-101945010D01*
X99910838Y-101969349D01*
X99904179Y-101986787D01*
X99893383Y-102009782D01*
X99892003Y-102018648D01*
X99892002Y-102018650D01*
X99888881Y-102038697D01*
X99885098Y-102055415D01*
X99876710Y-102083463D01*
X99876655Y-102092436D01*
X99876655Y-102092438D01*
X99876555Y-102108864D01*
X99875057Y-102127480D01*
X99872531Y-102143700D01*
X99872531Y-102143704D01*
X99871150Y-102152573D01*
X99874945Y-102181598D01*
X99876007Y-102198693D01*
X99875828Y-102227973D01*
X99878295Y-102236604D01*
X99878295Y-102236606D01*
X99882808Y-102252397D01*
X99886595Y-102270683D01*
X99889888Y-102295865D01*
X99893502Y-102304079D01*
X99893504Y-102304085D01*
X99901674Y-102322652D01*
X99907494Y-102338774D01*
X99913071Y-102358289D01*
X99913074Y-102358296D01*
X99915539Y-102366921D01*
X99920327Y-102374509D01*
X99920328Y-102374512D01*
X99929091Y-102388400D01*
X99937859Y-102404889D01*
X99948089Y-102428139D01*
X99953863Y-102435009D01*
X99953865Y-102435011D01*
X99966928Y-102450552D01*
X99977036Y-102464387D01*
X99992653Y-102489139D01*
X100003869Y-102499045D01*
X100032729Y-102536284D01*
X100039474Y-102549523D01*
X100046486Y-102556535D01*
X100048813Y-102559738D01*
X100072672Y-102626605D01*
X100056593Y-102695757D01*
X100048813Y-102707862D01*
X100046485Y-102711066D01*
X100039474Y-102718077D01*
X100034974Y-102726909D01*
X100034973Y-102726910D01*
X100027520Y-102741538D01*
X99981302Y-102832245D01*
X99966300Y-102926966D01*
X99966300Y-103290634D01*
X99981302Y-103385355D01*
X100039474Y-103499523D01*
X100130077Y-103590126D01*
X100244245Y-103648298D01*
X100338966Y-103663300D01*
X101427634Y-103663300D01*
X101522355Y-103648298D01*
X101531188Y-103643797D01*
X101531192Y-103643796D01*
X101558616Y-103629823D01*
X101608015Y-103616332D01*
X101645515Y-103614005D01*
X101652983Y-103613542D01*
X101660784Y-103613300D01*
X101676826Y-103613300D01*
X101681257Y-103612665D01*
X101681262Y-103612665D01*
X101685287Y-103612088D01*
X101687057Y-103611835D01*
X101697114Y-103610804D01*
X101719576Y-103609411D01*
X101735000Y-103608454D01*
X101735002Y-103608454D01*
X101743959Y-103607898D01*
X101752399Y-103604851D01*
X101755689Y-103604170D01*
X101771538Y-103600218D01*
X101774768Y-103599273D01*
X101783652Y-103598001D01*
X101791823Y-103594286D01*
X101826363Y-103578582D01*
X101835728Y-103574770D01*
X101871437Y-103561878D01*
X101871440Y-103561876D01*
X101879884Y-103558828D01*
X101887133Y-103553532D01*
X101890090Y-103551960D01*
X101904214Y-103543707D01*
X101907037Y-103541902D01*
X101915205Y-103538188D01*
X101922002Y-103532331D01*
X101922004Y-103532330D01*
X101950753Y-103507557D01*
X101958664Y-103501275D01*
X101969544Y-103493327D01*
X101980406Y-103482465D01*
X101987253Y-103476107D01*
X102017882Y-103449715D01*
X102024682Y-103443856D01*
X102029566Y-103436321D01*
X102035299Y-103429749D01*
X102044526Y-103418345D01*
X102338594Y-103124277D01*
X102348034Y-103116735D01*
X102347711Y-103116355D01*
X102354547Y-103110537D01*
X102362139Y-103105747D01*
X102397472Y-103065740D01*
X102402817Y-103060054D01*
X102414151Y-103048720D01*
X102416838Y-103045134D01*
X102416843Y-103045129D01*
X102420357Y-103040441D01*
X102426738Y-103032603D01*
X102451860Y-103004157D01*
X102457801Y-102997430D01*
X102461615Y-102989307D01*
X102463461Y-102986496D01*
X102471872Y-102972497D01*
X102473486Y-102969548D01*
X102478870Y-102962365D01*
X102495342Y-102918426D01*
X102499269Y-102909106D01*
X102515402Y-102874744D01*
X102515402Y-102874743D01*
X102519217Y-102866618D01*
X102520598Y-102857747D01*
X102521583Y-102854525D01*
X102525720Y-102838754D01*
X102526444Y-102835460D01*
X102529598Y-102827048D01*
X102533076Y-102780250D01*
X102534226Y-102770226D01*
X102536300Y-102756903D01*
X102536300Y-102741538D01*
X102536646Y-102732201D01*
X102539642Y-102691882D01*
X102540307Y-102682934D01*
X102538434Y-102674159D01*
X102537841Y-102665463D01*
X102536300Y-102650863D01*
X102536300Y-99791024D01*
X102537641Y-99779019D01*
X102537145Y-99778979D01*
X102537865Y-99770032D01*
X102539846Y-99761276D01*
X102536542Y-99708018D01*
X102536300Y-99700216D01*
X102536300Y-99684174D01*
X102534835Y-99673943D01*
X102533803Y-99663877D01*
X102531454Y-99626000D01*
X102531454Y-99625998D01*
X102530898Y-99617041D01*
X102527851Y-99608601D01*
X102527170Y-99605311D01*
X102523218Y-99589462D01*
X102522273Y-99586232D01*
X102521001Y-99577348D01*
X102501574Y-99534618D01*
X102497764Y-99525260D01*
X102484875Y-99489558D01*
X102484874Y-99489557D01*
X102481827Y-99481116D01*
X102476531Y-99473867D01*
X102474946Y-99470886D01*
X102466710Y-99456792D01*
X102464904Y-99453968D01*
X102461188Y-99445795D01*
X102430557Y-99410246D01*
X102424265Y-99402323D01*
X102416327Y-99391456D01*
X102405465Y-99380594D01*
X102399107Y-99373747D01*
X102372715Y-99343118D01*
X102366856Y-99336318D01*
X102359321Y-99331434D01*
X102352749Y-99325701D01*
X102341345Y-99316474D01*
X101674477Y-98649606D01*
X101666935Y-98640166D01*
X101666555Y-98640489D01*
X101660737Y-98633653D01*
X101655947Y-98626061D01*
X101615940Y-98590728D01*
X101610254Y-98585383D01*
X101598920Y-98574049D01*
X101590645Y-98567847D01*
X101582800Y-98561460D01*
X101554357Y-98536340D01*
X101547630Y-98530399D01*
X101539508Y-98526586D01*
X101536707Y-98524746D01*
X101522712Y-98516337D01*
X101519749Y-98514715D01*
X101512564Y-98509330D01*
X101504154Y-98506177D01*
X101504152Y-98506176D01*
X101468618Y-98492854D01*
X101459302Y-98488929D01*
X101416818Y-98468983D01*
X101407944Y-98467601D01*
X101404717Y-98466615D01*
X101388934Y-98462475D01*
X101385656Y-98461754D01*
X101377248Y-98458602D01*
X101363491Y-98457580D01*
X101330443Y-98455124D01*
X101320396Y-98453970D01*
X101311914Y-98452649D01*
X101311911Y-98452649D01*
X101307103Y-98451900D01*
X101291738Y-98451900D01*
X101282401Y-98451554D01*
X101266319Y-98450359D01*
X101233133Y-98447893D01*
X101224358Y-98449766D01*
X101215662Y-98450359D01*
X101201062Y-98451900D01*
X97925692Y-98451900D01*
X97895030Y-98447043D01*
X97893662Y-98446346D01*
X97883871Y-98444795D01*
X97883870Y-98444795D01*
X97870295Y-98442645D01*
X97802453Y-98431900D01*
X97586844Y-98431900D01*
X97371148Y-98431901D01*
X97279938Y-98446346D01*
X97278568Y-98447044D01*
X97247909Y-98451900D01*
X97236361Y-98451900D01*
X97168240Y-98431898D01*
X97147266Y-98414995D01*
X96850477Y-98118206D01*
X96842935Y-98108766D01*
X96842555Y-98109089D01*
X96836737Y-98102253D01*
X96831947Y-98094661D01*
X96791940Y-98059328D01*
X96786254Y-98053983D01*
X96774920Y-98042649D01*
X96771335Y-98039962D01*
X96766645Y-98036447D01*
X96758800Y-98030060D01*
X96730357Y-98004940D01*
X96723630Y-97998999D01*
X96715508Y-97995186D01*
X96712707Y-97993346D01*
X96698712Y-97984937D01*
X96695749Y-97983315D01*
X96688564Y-97977930D01*
X96680154Y-97974777D01*
X96680152Y-97974776D01*
X96644618Y-97961454D01*
X96635302Y-97957529D01*
X96628305Y-97954244D01*
X96592818Y-97937583D01*
X96583944Y-97936201D01*
X96580717Y-97935215D01*
X96564934Y-97931075D01*
X96561656Y-97930354D01*
X96553248Y-97927202D01*
X96539491Y-97926180D01*
X96506443Y-97923724D01*
X96496396Y-97922570D01*
X96487914Y-97921249D01*
X96487911Y-97921249D01*
X96483103Y-97920500D01*
X96467738Y-97920500D01*
X96458400Y-97920153D01*
X96420361Y-97917326D01*
X96353910Y-97892331D01*
X96340604Y-97880768D01*
X96329996Y-97870160D01*
X96220062Y-97814146D01*
X96210273Y-97812596D01*
X96210271Y-97812595D01*
X96183779Y-97808399D01*
X96128853Y-97799700D01*
X95963234Y-97799700D01*
X95797548Y-97799701D01*
X95792655Y-97800476D01*
X95792654Y-97800476D01*
X95716136Y-97812594D01*
X95716134Y-97812595D01*
X95706338Y-97814146D01*
X95596404Y-97870160D01*
X95542295Y-97924269D01*
X95479983Y-97958295D01*
X95409168Y-97953230D01*
X95364105Y-97924269D01*
X95309996Y-97870160D01*
X95200062Y-97814146D01*
X95190273Y-97812596D01*
X95190271Y-97812595D01*
X95163779Y-97808399D01*
X95108853Y-97799700D01*
X94943234Y-97799700D01*
X94777548Y-97799701D01*
X94772655Y-97800476D01*
X94772654Y-97800476D01*
X94696136Y-97812594D01*
X94696134Y-97812595D01*
X94686338Y-97814146D01*
X94677501Y-97818649D01*
X94677500Y-97818649D01*
X94602891Y-97856664D01*
X94576404Y-97870160D01*
X94573873Y-97872691D01*
X94571887Y-97873922D01*
X94570791Y-97874712D01*
X94562800Y-97878887D01*
X94556314Y-97885140D01*
X94556311Y-97885142D01*
X94501314Y-97938163D01*
X94489906Y-97949161D01*
X94486375Y-97954241D01*
X94486373Y-97954244D01*
X94455270Y-97998999D01*
X94449389Y-98007461D01*
X94416299Y-98073494D01*
X94267679Y-98519353D01*
X94266739Y-98522228D01*
X94265845Y-98525018D01*
X94264943Y-98527889D01*
X94135701Y-98947925D01*
X94062175Y-99186885D01*
X94061994Y-99187476D01*
X93613001Y-100659177D01*
X93610278Y-100668101D01*
X93601823Y-100705544D01*
X93601479Y-100707852D01*
X93601478Y-100707856D01*
X93596696Y-100739920D01*
X93596339Y-100742312D01*
X93593500Y-100780593D01*
X93593500Y-101991281D01*
X93572338Y-102061173D01*
X93190587Y-102633800D01*
X93184572Y-102642822D01*
X93137360Y-102684980D01*
X92408049Y-103060054D01*
X92390862Y-103068893D01*
X92353950Y-103081129D01*
X92140010Y-103116786D01*
X92119296Y-103118500D01*
X91066263Y-103118500D01*
X91041682Y-103116079D01*
X91025735Y-103112907D01*
X91019667Y-103111700D01*
X90144742Y-103111700D01*
X89269534Y-103111701D01*
X89235350Y-103118500D01*
X89207474Y-103124044D01*
X89207472Y-103124045D01*
X89195299Y-103126466D01*
X89184979Y-103133361D01*
X89184978Y-103133362D01*
X89124585Y-103173716D01*
X89111116Y-103182716D01*
X89054866Y-103266899D01*
X89040100Y-103341133D01*
X83108800Y-103341133D01*
X83108800Y-81535390D01*
X83128802Y-81467269D01*
X83145705Y-81446295D01*
X87096321Y-77495679D01*
X87158633Y-77461653D01*
X87229448Y-77466718D01*
X87286284Y-77509265D01*
X87311095Y-77575785D01*
X87299471Y-77638322D01*
X87269583Y-77701982D01*
X87268203Y-77710846D01*
X87268202Y-77710849D01*
X87252064Y-77814500D01*
X87247350Y-77844773D01*
X87248514Y-77853675D01*
X87248514Y-77853678D01*
X87257993Y-77926165D01*
X87266088Y-77988065D01*
X87324289Y-78120339D01*
X87417276Y-78230960D01*
X87424747Y-78235933D01*
X87424748Y-78235934D01*
X87530101Y-78306063D01*
X87530103Y-78306064D01*
X87537574Y-78311037D01*
X87546138Y-78313713D01*
X87546141Y-78313714D01*
X87606542Y-78332585D01*
X87675510Y-78354132D01*
X87819998Y-78356780D01*
X87839530Y-78351455D01*
X87950763Y-78321130D01*
X87950765Y-78321129D01*
X87959422Y-78318769D01*
X88082572Y-78243154D01*
X88179551Y-78136014D01*
X88242560Y-78005962D01*
X88252274Y-77948225D01*
X88256881Y-77920843D01*
X88292040Y-77852654D01*
X88293289Y-77851405D01*
X88355601Y-77817379D01*
X88382384Y-77814500D01*
X88941566Y-77814499D01*
X89014066Y-77814499D01*
X89049818Y-77807388D01*
X89076126Y-77802156D01*
X89076128Y-77802155D01*
X89088301Y-77799734D01*
X89098621Y-77792839D01*
X89098622Y-77792838D01*
X89162168Y-77750377D01*
X89172484Y-77743484D01*
X89228734Y-77659301D01*
X89243500Y-77585067D01*
X89243499Y-77234934D01*
X89233070Y-77182499D01*
X89231156Y-77172874D01*
X89231155Y-77172872D01*
X89228734Y-77160699D01*
X89217332Y-77143634D01*
X89179377Y-77086832D01*
X89172484Y-77076516D01*
X89133571Y-77050515D01*
X89098619Y-77027160D01*
X89098618Y-77027159D01*
X89088301Y-77020266D01*
X89088609Y-77019805D01*
X89041524Y-76981862D01*
X89019102Y-76914499D01*
X89036660Y-76845707D01*
X89085422Y-76800307D01*
X89088301Y-76799734D01*
X89098623Y-76792837D01*
X89098625Y-76792836D01*
X89117782Y-76780036D01*
X89187785Y-76758800D01*
X93675700Y-76758800D01*
X93743821Y-76778802D01*
G37*
%TD.AperFunction*%
%TA.AperFunction,Conductor*%
G36*
X93743821Y-55392502D02*
G01*
X93790314Y-55446158D01*
X93801700Y-55498500D01*
X93801700Y-70435200D01*
X93781698Y-70503321D01*
X93728042Y-70549814D01*
X93675700Y-70561200D01*
X89187785Y-70561200D01*
X89117782Y-70539964D01*
X89098625Y-70527164D01*
X89098623Y-70527163D01*
X89093464Y-70523716D01*
X89093453Y-70523707D01*
X89088301Y-70520265D01*
X89088609Y-70519804D01*
X89041526Y-70481865D01*
X89019102Y-70414502D01*
X89036658Y-70345710D01*
X89085421Y-70300307D01*
X89088301Y-70299734D01*
X89098618Y-70292841D01*
X89098619Y-70292840D01*
X89162168Y-70250377D01*
X89172484Y-70243484D01*
X89228734Y-70159301D01*
X89243500Y-70085067D01*
X89243499Y-69734934D01*
X89228734Y-69660699D01*
X89172484Y-69576516D01*
X89088301Y-69520266D01*
X89014067Y-69505500D01*
X88593678Y-69505500D01*
X88525557Y-69485498D01*
X88504583Y-69468595D01*
X84243405Y-65207417D01*
X84209379Y-65145105D01*
X84206500Y-65118322D01*
X84206500Y-65063991D01*
X84206002Y-65048679D01*
X84206075Y-65039103D01*
X84206213Y-65037452D01*
X84206321Y-65028598D01*
X84206406Y-65025252D01*
X84206452Y-65024060D01*
X84206500Y-65022825D01*
X84206500Y-59208790D01*
X84205014Y-59181055D01*
X84202135Y-59154272D01*
X84182282Y-59090869D01*
X84173726Y-59063543D01*
X84173725Y-59063540D01*
X84171877Y-59057639D01*
X84168915Y-59052215D01*
X84168913Y-59052210D01*
X84140007Y-58999275D01*
X84140006Y-58999273D01*
X84137851Y-58995327D01*
X84133516Y-58989536D01*
X84096286Y-58939803D01*
X84096282Y-58939799D01*
X84093589Y-58936201D01*
X83862599Y-58705211D01*
X83841940Y-58686653D01*
X83820966Y-58669750D01*
X83731240Y-58622813D01*
X83709264Y-58616360D01*
X83667442Y-58604080D01*
X83667438Y-58604079D01*
X83663119Y-58602811D01*
X83658671Y-58602171D01*
X83658664Y-58602170D01*
X83594458Y-58592939D01*
X83594451Y-58592939D01*
X83590010Y-58592300D01*
X81396828Y-58592300D01*
X81391953Y-58592044D01*
X81390946Y-58591844D01*
X81187971Y-58589187D01*
X81182276Y-58590166D01*
X81182271Y-58590166D01*
X81180445Y-58590480D01*
X81159107Y-58592300D01*
X78866000Y-58592300D01*
X78865043Y-58592403D01*
X78852089Y-58592071D01*
X78850946Y-58591844D01*
X78845175Y-58591768D01*
X78845171Y-58591768D01*
X78737207Y-58590355D01*
X78647971Y-58589187D01*
X78642274Y-58590166D01*
X78642273Y-58590166D01*
X78561299Y-58604080D01*
X78447910Y-58623564D01*
X78257463Y-58693824D01*
X78083010Y-58797612D01*
X78078670Y-58801418D01*
X78078666Y-58801421D01*
X77934733Y-58927648D01*
X77930392Y-58931455D01*
X77926817Y-58935990D01*
X77926816Y-58935991D01*
X77923811Y-58939803D01*
X77804720Y-59090869D01*
X77802031Y-59095980D01*
X77802029Y-59095983D01*
X77756387Y-59182735D01*
X77710203Y-59270515D01*
X77650007Y-59464378D01*
X77626148Y-59665964D01*
X77639424Y-59868522D01*
X77689392Y-60065269D01*
X77774377Y-60249616D01*
X77777710Y-60254332D01*
X77848770Y-60354880D01*
X77871751Y-60422054D01*
X77854767Y-60490989D01*
X77803209Y-60539799D01*
X77745873Y-60553600D01*
X77088500Y-60553600D01*
X77020379Y-60533598D01*
X76973886Y-60479942D01*
X76962500Y-60427600D01*
X76962500Y-55498500D01*
X76982502Y-55430379D01*
X77036158Y-55383886D01*
X77088500Y-55372500D01*
X93675700Y-55372500D01*
X93743821Y-55392502D01*
G37*
%TD.AperFunction*%
%TD*%
%TA.AperFunction,Conductor*%
%TO.N,+6V*%
G36*
X95141321Y-98089402D02*
G01*
X95187814Y-98143058D01*
X95199200Y-98195400D01*
X95199200Y-99977328D01*
X95191431Y-100020887D01*
X95025255Y-100471935D01*
X95025255Y-100471938D01*
X95021400Y-100482400D01*
X95021400Y-103453788D01*
X95001398Y-103521909D01*
X94947742Y-103568402D01*
X94921622Y-103577029D01*
X93835889Y-103808036D01*
X93835886Y-103808037D01*
X93827600Y-103809800D01*
X93146699Y-104162860D01*
X93136686Y-104167506D01*
X91005850Y-105044909D01*
X90957876Y-105054400D01*
X89432400Y-105054400D01*
X89364279Y-105034398D01*
X89317786Y-104980742D01*
X89306400Y-104928400D01*
X89306400Y-103504000D01*
X89326402Y-103435879D01*
X89380058Y-103389386D01*
X89432400Y-103378000D01*
X92151200Y-103378000D01*
X92156327Y-103377145D01*
X92156333Y-103377145D01*
X92446355Y-103328808D01*
X92446358Y-103328807D01*
X92456000Y-103327200D01*
X93345000Y-102870000D01*
X93353922Y-102856617D01*
X93842652Y-102123523D01*
X93842653Y-102123521D01*
X93853000Y-102108000D01*
X93853000Y-100780593D01*
X93858484Y-100743825D01*
X94079041Y-100020887D01*
X94310200Y-99263200D01*
X94512968Y-98604204D01*
X94513862Y-98601414D01*
X94662482Y-98155555D01*
X94702999Y-98097255D01*
X94768604Y-98070116D01*
X94782016Y-98069400D01*
X95073200Y-98069400D01*
X95141321Y-98089402D01*
G37*
%TD.AperFunction*%
%TD*%
%TA.AperFunction,Conductor*%
%TO.N,+12V*%
G36*
X99205321Y-102839202D02*
G01*
X99251814Y-102892858D01*
X99263200Y-102945200D01*
X99263200Y-103325556D01*
X99252102Y-103377262D01*
X99034600Y-103860600D01*
X99034600Y-105030000D01*
X99014598Y-105098121D01*
X98960942Y-105144614D01*
X98908600Y-105156000D01*
X98271600Y-105156000D01*
X98203479Y-105135998D01*
X98156986Y-105082342D01*
X98145600Y-105030000D01*
X98145600Y-103860600D01*
X98141745Y-103850138D01*
X98141745Y-103850135D01*
X97975569Y-103399087D01*
X97967800Y-103355528D01*
X97967800Y-102945200D01*
X97987802Y-102877079D01*
X98041458Y-102830586D01*
X98093800Y-102819200D01*
X99137200Y-102819200D01*
X99205321Y-102839202D01*
G37*
%TD.AperFunction*%
%TD*%
%TA.AperFunction,Conductor*%
%TO.N,+12V*%
G36*
X98265521Y-111399002D02*
G01*
X98312014Y-111452658D01*
X98323400Y-111505000D01*
X98323400Y-113968410D01*
X98303398Y-114036531D01*
X98286495Y-114057505D01*
X96505695Y-115838305D01*
X96443383Y-115872331D01*
X96417592Y-115875206D01*
X93296170Y-115899784D01*
X93227894Y-115880319D01*
X93206083Y-115862883D01*
X92659200Y-115316000D01*
X90067400Y-115316000D01*
X89999279Y-115295998D01*
X89952786Y-115242342D01*
X89941400Y-115190000D01*
X89941400Y-114121200D01*
X89961402Y-114053079D01*
X90015058Y-114006586D01*
X90067400Y-113995200D01*
X93394410Y-113995200D01*
X93462531Y-114015202D01*
X93483505Y-114032105D01*
X93599000Y-114147600D01*
X95326200Y-114147600D01*
X97002600Y-112445800D01*
X97002600Y-111505000D01*
X97022602Y-111436879D01*
X97076258Y-111390386D01*
X97128600Y-111379000D01*
X98197400Y-111379000D01*
X98265521Y-111399002D01*
G37*
%TD.AperFunction*%
%TD*%
%TA.AperFunction,Conductor*%
%TO.N,+3V8*%
G36*
X94353921Y-104795002D02*
G01*
X94400414Y-104848658D01*
X94411800Y-104901000D01*
X94411800Y-105321600D01*
X94391798Y-105389721D01*
X94361400Y-105422400D01*
X94107000Y-105613200D01*
X94107000Y-111989600D01*
X94086998Y-112057721D01*
X94033342Y-112104214D01*
X93981000Y-112115600D01*
X92965868Y-112115600D01*
X92897747Y-112095598D01*
X92876200Y-112078119D01*
X92109627Y-111301591D01*
X90957400Y-110134400D01*
X90243306Y-110134400D01*
X90175185Y-110114398D01*
X90128692Y-110060742D01*
X90117320Y-110010309D01*
X90095738Y-108585909D01*
X90114706Y-108517493D01*
X90167651Y-108470193D01*
X90221724Y-108458000D01*
X92049600Y-108458000D01*
X93065600Y-107442000D01*
X93065600Y-105690790D01*
X93085602Y-105622669D01*
X93102505Y-105601695D01*
X93892295Y-104811905D01*
X93954607Y-104777879D01*
X93981390Y-104775000D01*
X94285800Y-104775000D01*
X94353921Y-104795002D01*
G37*
%TD.AperFunction*%
%TD*%
%TA.AperFunction,Conductor*%
%TO.N,+2V5*%
G36*
X83658131Y-58871802D02*
G01*
X83679105Y-58888705D01*
X83910095Y-59119695D01*
X83944121Y-59182007D01*
X83947000Y-59208790D01*
X83947000Y-65022825D01*
X83946806Y-65025326D01*
X83946841Y-65025326D01*
X83946732Y-65034300D01*
X83945350Y-65043173D01*
X83946515Y-65052080D01*
X83946469Y-65055832D01*
X83947000Y-65063991D01*
X83947000Y-65278000D01*
X88459405Y-69790405D01*
X88493431Y-69852717D01*
X88488366Y-69923532D01*
X88445819Y-69980368D01*
X88379299Y-70005179D01*
X88370310Y-70005500D01*
X87906195Y-70005501D01*
X87888491Y-70005501D01*
X87820370Y-69985499D01*
X87799396Y-69968596D01*
X83348905Y-65518105D01*
X83314879Y-65455793D01*
X83312000Y-65429010D01*
X83312000Y-61290200D01*
X82550000Y-60528200D01*
X78866000Y-60528200D01*
X78797879Y-60508198D01*
X78751386Y-60454542D01*
X78740000Y-60402200D01*
X78740000Y-58977800D01*
X78760002Y-58909679D01*
X78813658Y-58863186D01*
X78866000Y-58851800D01*
X83590010Y-58851800D01*
X83658131Y-58871802D01*
G37*
%TD.AperFunction*%
%TD*%
%TA.AperFunction,Conductor*%
%TO.N,+5V*%
G36*
X81889611Y-117500886D02*
G01*
X83108800Y-118237000D01*
X90552000Y-118237000D01*
X90620121Y-118257002D01*
X90666614Y-118310658D01*
X90678000Y-118363000D01*
X90678000Y-119279400D01*
X90657998Y-119347521D01*
X90604342Y-119394014D01*
X90552000Y-119405400D01*
X81998807Y-119405400D01*
X81937034Y-119389219D01*
X81249213Y-119002320D01*
X81199647Y-118951489D01*
X81185430Y-118881931D01*
X81193998Y-118845706D01*
X81707498Y-117561955D01*
X81751369Y-117506135D01*
X81818454Y-117482894D01*
X81889611Y-117500886D01*
G37*
%TD.AperFunction*%
%TD*%
M02*
