%TF.GenerationSoftware,KiCad,Pcbnew,(6.0.4)*%
%TF.CreationDate,2023-05-26T00:59:56+09:00*%
%TF.ProjectId,BajieHeader,42616a69-6548-4656-9164-65722e6b6963,rev?*%
%TF.SameCoordinates,Original*%
%TF.FileFunction,Copper,L2,Bot*%
%TF.FilePolarity,Positive*%
%FSLAX46Y46*%
G04 Gerber Fmt 4.6, Leading zero omitted, Abs format (unit mm)*
G04 Created by KiCad (PCBNEW (6.0.4)) date 2023-05-26 00:59:56*
%MOMM*%
%LPD*%
G01*
G04 APERTURE LIST*
G04 Aperture macros list*
%AMRoundRect*
0 Rectangle with rounded corners*
0 $1 Rounding radius*
0 $2 $3 $4 $5 $6 $7 $8 $9 X,Y pos of 4 corners*
0 Add a 4 corners polygon primitive as box body*
4,1,4,$2,$3,$4,$5,$6,$7,$8,$9,$2,$3,0*
0 Add four circle primitives for the rounded corners*
1,1,$1+$1,$2,$3*
1,1,$1+$1,$4,$5*
1,1,$1+$1,$6,$7*
1,1,$1+$1,$8,$9*
0 Add four rect primitives between the rounded corners*
20,1,$1+$1,$2,$3,$4,$5,0*
20,1,$1+$1,$4,$5,$6,$7,0*
20,1,$1+$1,$6,$7,$8,$9,0*
20,1,$1+$1,$8,$9,$2,$3,0*%
G04 Aperture macros list end*
%TA.AperFunction,ComponentPad*%
%ADD10R,1.700000X1.700000*%
%TD*%
%TA.AperFunction,ComponentPad*%
%ADD11O,1.700000X1.700000*%
%TD*%
%TA.AperFunction,ComponentPad*%
%ADD12R,1.000000X1.000000*%
%TD*%
%TA.AperFunction,ComponentPad*%
%ADD13O,1.000000X1.000000*%
%TD*%
%TA.AperFunction,ComponentPad*%
%ADD14C,2.600000*%
%TD*%
%TA.AperFunction,ConnectorPad*%
%ADD15C,3.500000*%
%TD*%
%TA.AperFunction,SMDPad,CuDef*%
%ADD16RoundRect,0.250000X-0.375000X-0.625000X0.375000X-0.625000X0.375000X0.625000X-0.375000X0.625000X0*%
%TD*%
%TA.AperFunction,SMDPad,CuDef*%
%ADD17RoundRect,0.140000X0.219203X0.021213X0.021213X0.219203X-0.219203X-0.021213X-0.021213X-0.219203X0*%
%TD*%
%TA.AperFunction,SMDPad,CuDef*%
%ADD18RoundRect,0.225000X0.250000X-0.225000X0.250000X0.225000X-0.250000X0.225000X-0.250000X-0.225000X0*%
%TD*%
%TA.AperFunction,SMDPad,CuDef*%
%ADD19RoundRect,0.140000X-0.170000X0.140000X-0.170000X-0.140000X0.170000X-0.140000X0.170000X0.140000X0*%
%TD*%
%TA.AperFunction,ViaPad*%
%ADD20C,0.500000*%
%TD*%
%TA.AperFunction,ViaPad*%
%ADD21C,0.800000*%
%TD*%
%TA.AperFunction,Conductor*%
%ADD22C,0.500000*%
%TD*%
%TA.AperFunction,Conductor*%
%ADD23C,0.840000*%
%TD*%
%TA.AperFunction,Conductor*%
%ADD24C,1.000000*%
%TD*%
%TA.AperFunction,Conductor*%
%ADD25C,0.250000*%
%TD*%
G04 APERTURE END LIST*
D10*
%TO.P,J7,1,Pin_1*%
%TO.N,+6V*%
X90144600Y-104216200D03*
D11*
%TO.P,J7,2,Pin_2*%
%TO.N,GND*%
X90144600Y-106756200D03*
%TO.P,J7,3,Pin_3*%
%TO.N,+3V8*%
X90144600Y-109296200D03*
%TD*%
D12*
%TO.P,J6,1,Pin_1*%
%TO.N,Net-(F1-Pad2)*%
X101777800Y-93548200D03*
D13*
%TO.P,J6,2,Pin_2*%
%TO.N,GND*%
X101777800Y-94818200D03*
%TO.P,J6,3,Pin_3*%
%TO.N,Net-(J6-Pad3)*%
X101777800Y-96088200D03*
%TO.P,J6,4,Pin_4*%
%TO.N,Net-(J6-Pad4)*%
X101777800Y-97358200D03*
%TD*%
D14*
%TO.P,H2,1,1*%
%TO.N,GND*%
X99771200Y-117221000D03*
D15*
X99771200Y-117221000D03*
%TD*%
D10*
%TO.P,J1,1,Pin_1*%
%TO.N,GND*%
X78735000Y-57155000D03*
D11*
%TO.P,J1,2,Pin_2*%
X81275000Y-57155000D03*
%TO.P,J1,3,Pin_3*%
%TO.N,+2V5*%
X78735000Y-59695000D03*
%TO.P,J1,4,Pin_4*%
X81275000Y-59695000D03*
%TO.P,J1,5,Pin_5*%
%TO.N,/P20*%
X78735000Y-62235000D03*
%TO.P,J1,6,Pin_6*%
%TO.N,/N20*%
X81275000Y-62235000D03*
%TO.P,J1,7,Pin_7*%
%TO.N,/T19*%
X78735000Y-64775000D03*
%TO.P,J1,8,Pin_8*%
%TO.N,/R19*%
X81275000Y-64775000D03*
%TO.P,J1,9,Pin_9*%
%TO.N,/DB1N*%
X78735000Y-67315000D03*
%TO.P,J1,10,Pin_10*%
%TO.N,/DB1P*%
X81275000Y-67315000D03*
%TO.P,J1,11,Pin_11*%
%TO.N,/DB0N*%
X78735000Y-69855000D03*
%TO.P,J1,12,Pin_12*%
%TO.N,/DB0P*%
X81275000Y-69855000D03*
%TO.P,J1,13,Pin_13*%
%TO.N,/FCLKN*%
X78735000Y-72395000D03*
%TO.P,J1,14,Pin_14*%
%TO.N,/FCLKP*%
X81275000Y-72395000D03*
%TO.P,J1,15,Pin_15*%
%TO.N,/DCLKP*%
X78735000Y-74935000D03*
%TO.P,J1,16,Pin_16*%
%TO.N,/DCLKN*%
X81275000Y-74935000D03*
%TO.P,J1,17,Pin_17*%
%TO.N,/DA1P*%
X78735000Y-77475000D03*
%TO.P,J1,18,Pin_18*%
%TO.N,/DA1N*%
X81275000Y-77475000D03*
%TO.P,J1,19,Pin_19*%
%TO.N,/DA0P*%
X78735000Y-80015000D03*
%TO.P,J1,20,Pin_20*%
%TO.N,/DA0N*%
X81275000Y-80015000D03*
%TO.P,J1,21,Pin_21*%
%TO.N,/U18*%
X78735000Y-82555000D03*
%TO.P,J1,22,Pin_22*%
%TO.N,/U19*%
X81275000Y-82555000D03*
%TO.P,J1,23,Pin_23*%
%TO.N,/W18*%
X78735000Y-85095000D03*
%TO.P,J1,24,Pin_24*%
%TO.N,/W19*%
X81275000Y-85095000D03*
%TO.P,J1,25,Pin_25*%
%TO.N,/V17*%
X78735000Y-87635000D03*
%TO.P,J1,26,Pin_26*%
%TO.N,/V18*%
X81275000Y-87635000D03*
%TO.P,J1,27,Pin_27*%
%TO.N,/V16*%
X78735000Y-90175000D03*
%TO.P,J1,28,Pin_28*%
%TO.N,/W16*%
X81275000Y-90175000D03*
%TO.P,J1,29,Pin_29*%
%TO.N,/V15*%
X78735000Y-92715000D03*
%TO.P,J1,30,Pin_30*%
%TO.N,/W15*%
X81275000Y-92715000D03*
%TO.P,J1,31,Pin_31*%
%TO.N,/Y18*%
X78735000Y-95255000D03*
%TO.P,J1,32,Pin_32*%
%TO.N,/Y19*%
X81275000Y-95255000D03*
%TO.P,J1,33,Pin_33*%
%TO.N,/Y16*%
X78735000Y-97795000D03*
%TO.P,J1,34,Pin_34*%
%TO.N,/Y17*%
X81275000Y-97795000D03*
%TO.P,J1,35,Pin_35*%
%TO.N,/W14*%
X78735000Y-100335000D03*
%TO.P,J1,36,Pin_36*%
%TO.N,/Y14*%
X81275000Y-100335000D03*
%TO.P,J1,37,Pin_37*%
%TO.N,/T14*%
X78735000Y-102875000D03*
%TO.P,J1,38,Pin_38*%
%TO.N,/T15*%
X81275000Y-102875000D03*
%TO.P,J1,39,Pin_39*%
%TO.N,/P14*%
X78735000Y-105415000D03*
%TO.P,J1,40,Pin_40*%
%TO.N,/U14*%
X81275000Y-105415000D03*
%TO.P,J1,41,Pin_41*%
%TO.N,/V12*%
X78735000Y-107955000D03*
%TO.P,J1,42,Pin_42*%
%TO.N,/W13*%
X81275000Y-107955000D03*
%TO.P,J1,43,Pin_43*%
%TO.N,/T12*%
X78735000Y-110495000D03*
%TO.P,J1,44,Pin_44*%
%TO.N,/U12*%
X81275000Y-110495000D03*
%TO.P,J1,45,Pin_45*%
%TO.N,/T10*%
X78735000Y-113035000D03*
%TO.P,J1,46,Pin_46*%
%TO.N,/T11*%
X81275000Y-113035000D03*
%TO.P,J1,47,Pin_47*%
%TO.N,GND*%
X78735000Y-115575000D03*
%TO.P,J1,48,Pin_48*%
X81275000Y-115575000D03*
%TO.P,J1,49,Pin_49*%
%TO.N,+5V*%
X78735000Y-118115000D03*
%TO.P,J1,50,Pin_50*%
X81275000Y-118115000D03*
%TD*%
D10*
%TO.P,J3,1,Pin_1*%
%TO.N,/F19*%
X89199800Y-83185000D03*
D11*
%TO.P,J3,2,Pin_2*%
%TO.N,/F20*%
X91739800Y-83185000D03*
%TO.P,J3,3,Pin_3*%
%TO.N,/CAN_R*%
X89199800Y-85725000D03*
%TO.P,J3,4,Pin_4*%
%TO.N,/CAN_T*%
X91739800Y-85725000D03*
%TO.P,J3,5,Pin_5*%
%TO.N,/H18*%
X89199800Y-88265000D03*
%TO.P,J3,6,Pin_6*%
%TO.N,/H20*%
X91739800Y-88265000D03*
%TO.P,J3,7,Pin_7*%
%TO.N,/J19*%
X89199800Y-90805000D03*
%TO.P,J3,8,Pin_8*%
%TO.N,/J20*%
X91739800Y-90805000D03*
%TO.P,J3,9,Pin_9*%
%TO.N,GND*%
X89199800Y-93345000D03*
%TO.P,J3,10,Pin_10*%
X91739800Y-93345000D03*
%TO.P,J3,11,Pin_11*%
%TO.N,+3V3*%
X89199800Y-95885000D03*
%TO.P,J3,12,Pin_12*%
X91739800Y-95885000D03*
%TD*%
D15*
%TO.P,H1,1,1*%
%TO.N,GND*%
X89433400Y-58902600D03*
D14*
X89433400Y-58902600D03*
%TD*%
D10*
%TO.P,J5,1,Pin_1*%
%TO.N,+3V3*%
X91744800Y-99618800D03*
D11*
%TO.P,J5,2,Pin_2*%
%TO.N,GND*%
X89204800Y-99618800D03*
%TD*%
D10*
%TO.P,J4,1,Pin_1*%
%TO.N,+12V*%
X94462600Y-115011200D03*
D11*
%TO.P,J4,2,Pin_2*%
%TO.N,GND*%
X94462600Y-117551200D03*
%TD*%
D16*
%TO.P,F1,1*%
%TO.N,+5V*%
X99133200Y-91643200D03*
%TO.P,F1,2*%
%TO.N,Net-(F1-Pad2)*%
X101933200Y-91643200D03*
%TD*%
D17*
%TO.P,C1,1*%
%TO.N,+5V*%
X84057811Y-116671411D03*
%TO.P,C1,2*%
%TO.N,GND*%
X83378989Y-115992589D03*
%TD*%
D18*
%TO.P,C2,1*%
%TO.N,GND*%
X92329000Y-116929200D03*
%TO.P,C2,2*%
%TO.N,+12V*%
X92329000Y-115379200D03*
%TD*%
D19*
%TO.P,C13,1*%
%TO.N,+5V*%
X97713800Y-91493400D03*
%TO.P,C13,2*%
%TO.N,GND*%
X97713800Y-92453400D03*
%TD*%
D20*
%TO.N,GND*%
X97942400Y-99999800D03*
X96672400Y-99923600D03*
X100533200Y-104521000D03*
X99441000Y-101295200D03*
D21*
%TO.N,+12V*%
X98577400Y-104089200D03*
X97815400Y-112445800D03*
D20*
X100380800Y-102158800D03*
%TO.N,Net-(C15-Pad1)*%
X99923600Y-99898200D03*
X97205800Y-102158800D03*
%TO.N,GND*%
X97459800Y-92532200D03*
X93548200Y-70281800D03*
X83362800Y-81483200D03*
X85902800Y-110337600D03*
X91694000Y-69392800D03*
X91871800Y-117373400D03*
X89433400Y-70307200D03*
X85191600Y-117246400D03*
X95072200Y-106400600D03*
X91846400Y-102870000D03*
X96951800Y-90322400D03*
X91694000Y-80086200D03*
X84505800Y-80213200D03*
X95072200Y-108102400D03*
X88595200Y-67081400D03*
X85902800Y-111912400D03*
X86512400Y-117246400D03*
X84455000Y-65049400D03*
X85902800Y-116001800D03*
X96951800Y-108915200D03*
X87604600Y-115468400D03*
X100076000Y-89738200D03*
X91795600Y-112090200D03*
X89484200Y-102870000D03*
X91694000Y-67081400D03*
X89433400Y-77012800D03*
X95783400Y-107238800D03*
X96647000Y-106400600D03*
X88595200Y-78562200D03*
X99415600Y-113258600D03*
X91694000Y-77927200D03*
X94615000Y-87757000D03*
X97434400Y-94386400D03*
X88341200Y-113614200D03*
X93548200Y-77012800D03*
X88646000Y-69240400D03*
X100126800Y-114020600D03*
X98602800Y-109778800D03*
X86461600Y-114376200D03*
X91262200Y-115849400D03*
X88595200Y-80086200D03*
%TO.N,/R19*%
X87757000Y-77851000D03*
D21*
%TO.N,+5V*%
X98729800Y-91389200D03*
D20*
%TO.N,Net-(C6-Pad1)*%
X87020401Y-112854199D03*
X89281000Y-116075299D03*
%TO.N,Net-(C7-Pad1)*%
X96240600Y-110718600D03*
X98704400Y-108458000D03*
%TO.N,+12V*%
X89281000Y-111937800D03*
X99542600Y-110718600D03*
%TD*%
D22*
%TO.N,+12V*%
X98577400Y-103962200D02*
X98577400Y-104089200D01*
X100380800Y-102158800D02*
X98577400Y-103962200D01*
%TO.N,Net-(C7-Pad1)*%
X98501200Y-108458000D02*
X96240600Y-110718600D01*
X98704400Y-108458000D02*
X98501200Y-108458000D01*
D23*
%TO.N,+12V*%
X97815400Y-112445800D02*
X99542600Y-110718600D01*
X100253800Y-110007400D02*
X99542600Y-110718600D01*
X100253800Y-105765600D02*
X100253800Y-110007400D01*
X98577400Y-104089200D02*
X100253800Y-105765600D01*
D22*
%TO.N,Net-(C15-Pad1)*%
X99923600Y-99898200D02*
X99466400Y-99898200D01*
X99466400Y-99898200D02*
X97205800Y-102158800D01*
D23*
%TO.N,+5V*%
X98879200Y-91389200D02*
X99133200Y-91643200D01*
X98729800Y-91389200D02*
X98879200Y-91389200D01*
%TO.N,Net-(F1-Pad2)*%
X101777800Y-93548200D02*
X101777800Y-91798600D01*
X101777800Y-91798600D02*
X101933200Y-91643200D01*
D24*
%TO.N,+5V*%
X97155000Y-91389200D02*
X98729800Y-91389200D01*
X96139000Y-92405200D02*
X97155000Y-91389200D01*
X93243400Y-101854000D02*
X96139000Y-98958400D01*
X84886800Y-106019600D02*
X89052400Y-101854000D01*
X84886800Y-116128800D02*
X84886800Y-106019600D01*
X89052400Y-101854000D02*
X93243400Y-101854000D01*
X82900600Y-118115000D02*
X84886800Y-116128800D01*
X96139000Y-98958400D02*
X96139000Y-92405200D01*
X81275000Y-118115000D02*
X82900600Y-118115000D01*
D25*
%TO.N,/R19*%
X77393800Y-66827400D02*
X78181200Y-66040000D01*
X82702400Y-80848200D02*
X82270600Y-81280000D01*
X77393800Y-80543400D02*
X77393800Y-66827400D01*
X80010000Y-66040000D02*
X81275000Y-64775000D01*
X82270600Y-81280000D02*
X78130400Y-81280000D01*
X87757000Y-77851000D02*
X84759800Y-80848200D01*
X78181200Y-66040000D02*
X80010000Y-66040000D01*
X78130400Y-81280000D02*
X77393800Y-80543400D01*
X84759800Y-80848200D02*
X82702400Y-80848200D01*
D22*
%TO.N,Net-(C6-Pad1)*%
X89281000Y-116075299D02*
X87020401Y-113814700D01*
X87020401Y-113814700D02*
X87020401Y-112854199D01*
D24*
%TO.N,+12V*%
X89458800Y-111937800D02*
X92532200Y-115011200D01*
X89281000Y-111937800D02*
X89458800Y-111937800D01*
X92532200Y-115011200D02*
X94462600Y-115011200D01*
%TD*%
%TA.AperFunction,Conductor*%
%TO.N,GND*%
G36*
X93743821Y-55392502D02*
G01*
X93790314Y-55446158D01*
X93801700Y-55498500D01*
X93801700Y-70435200D01*
X93781698Y-70503321D01*
X93728042Y-70549814D01*
X93675700Y-70561200D01*
X89281000Y-70561200D01*
X89281000Y-76758800D01*
X93675700Y-76758800D01*
X93743821Y-76778802D01*
X93790314Y-76832458D01*
X93801700Y-76884800D01*
X93801700Y-80988275D01*
X93799246Y-81013019D01*
X93796715Y-81025656D01*
X93801700Y-81050893D01*
X93801700Y-81051067D01*
X93801798Y-81051561D01*
X93801799Y-81051566D01*
X93806606Y-81075734D01*
X93806639Y-81075897D01*
X93813892Y-81112614D01*
X93816335Y-81124984D01*
X93816432Y-81125129D01*
X93816466Y-81125301D01*
X93823380Y-81135648D01*
X93823381Y-81135651D01*
X93844417Y-81167132D01*
X93844509Y-81167271D01*
X93858024Y-81187555D01*
X93858302Y-81187972D01*
X93858423Y-81188093D01*
X93872716Y-81209484D01*
X93883032Y-81216377D01*
X93883436Y-81216647D01*
X93902647Y-81232434D01*
X103310235Y-90664976D01*
X103340713Y-90695535D01*
X103374656Y-90757892D01*
X103377500Y-90784512D01*
X103377500Y-119761500D01*
X103357498Y-119829621D01*
X103303842Y-119876114D01*
X103251500Y-119887500D01*
X77088500Y-119887500D01*
X77020379Y-119867498D01*
X76973886Y-119813842D01*
X76962500Y-119761500D01*
X76962500Y-118085964D01*
X77626148Y-118085964D01*
X77639424Y-118288522D01*
X77640845Y-118294118D01*
X77640846Y-118294123D01*
X77661119Y-118373945D01*
X77689392Y-118485269D01*
X77691809Y-118490512D01*
X77729010Y-118571208D01*
X77774377Y-118669616D01*
X77794271Y-118697766D01*
X77887358Y-118829481D01*
X77891533Y-118835389D01*
X77895675Y-118839424D01*
X77931347Y-118874174D01*
X78036938Y-118977035D01*
X78205720Y-119089812D01*
X78211023Y-119092090D01*
X78211026Y-119092092D01*
X78299707Y-119130192D01*
X78392228Y-119169942D01*
X78465244Y-119186464D01*
X78584579Y-119213467D01*
X78584584Y-119213468D01*
X78590216Y-119214742D01*
X78595987Y-119214969D01*
X78595989Y-119214969D01*
X78655756Y-119217317D01*
X78793053Y-119222712D01*
X78893499Y-119208148D01*
X78988231Y-119194413D01*
X78988236Y-119194412D01*
X78993945Y-119193584D01*
X78999409Y-119191729D01*
X78999414Y-119191728D01*
X79180693Y-119130192D01*
X79180698Y-119130190D01*
X79186165Y-119128334D01*
X79363276Y-119029147D01*
X79425934Y-118977035D01*
X79514913Y-118903031D01*
X79519345Y-118899345D01*
X79602471Y-118799398D01*
X79645453Y-118747718D01*
X79645455Y-118747715D01*
X79649147Y-118743276D01*
X79748334Y-118566165D01*
X79750190Y-118560698D01*
X79750192Y-118560693D01*
X79811728Y-118379414D01*
X79811729Y-118379409D01*
X79813584Y-118373945D01*
X79814412Y-118368236D01*
X79814413Y-118368231D01*
X79842179Y-118176727D01*
X79842712Y-118173053D01*
X79844232Y-118115000D01*
X79841564Y-118085964D01*
X80166148Y-118085964D01*
X80179424Y-118288522D01*
X80180845Y-118294118D01*
X80180846Y-118294123D01*
X80201119Y-118373945D01*
X80229392Y-118485269D01*
X80231809Y-118490512D01*
X80269010Y-118571208D01*
X80314377Y-118669616D01*
X80334271Y-118697766D01*
X80427358Y-118829481D01*
X80431533Y-118835389D01*
X80435675Y-118839424D01*
X80471347Y-118874174D01*
X80576938Y-118977035D01*
X80745720Y-119089812D01*
X80751023Y-119092090D01*
X80751026Y-119092092D01*
X80839707Y-119130192D01*
X80932228Y-119169942D01*
X81005244Y-119186464D01*
X81124579Y-119213467D01*
X81124584Y-119213468D01*
X81130216Y-119214742D01*
X81135987Y-119214969D01*
X81135989Y-119214969D01*
X81195756Y-119217317D01*
X81333053Y-119222712D01*
X81433499Y-119208148D01*
X81528231Y-119194413D01*
X81528236Y-119194412D01*
X81533945Y-119193584D01*
X81539409Y-119191729D01*
X81539414Y-119191728D01*
X81720693Y-119130192D01*
X81720698Y-119130190D01*
X81726165Y-119128334D01*
X81903276Y-119029147D01*
X81965934Y-118977035D01*
X82059345Y-118899345D01*
X82060945Y-118901269D01*
X82113851Y-118872379D01*
X82140634Y-118869500D01*
X82833835Y-118869500D01*
X82852785Y-118870933D01*
X82866855Y-118873074D01*
X82866859Y-118873074D01*
X82874089Y-118874174D01*
X82881380Y-118873581D01*
X82881383Y-118873581D01*
X82926448Y-118869915D01*
X82936663Y-118869500D01*
X82944653Y-118869500D01*
X82951902Y-118868655D01*
X82972713Y-118866229D01*
X82977087Y-118865796D01*
X83042149Y-118860504D01*
X83042152Y-118860503D01*
X83049447Y-118859910D01*
X83056409Y-118857655D01*
X83062277Y-118856482D01*
X83068084Y-118855110D01*
X83075354Y-118854262D01*
X83143660Y-118829468D01*
X83147763Y-118828060D01*
X83216822Y-118805688D01*
X83223079Y-118801891D01*
X83228526Y-118799398D01*
X83233854Y-118796730D01*
X83240734Y-118794232D01*
X83301449Y-118754426D01*
X83305159Y-118752085D01*
X83362438Y-118717327D01*
X83362440Y-118717325D01*
X83367233Y-118714417D01*
X83375574Y-118707051D01*
X83375596Y-118707076D01*
X83378641Y-118704376D01*
X83381746Y-118701780D01*
X83387868Y-118697766D01*
X83440816Y-118641873D01*
X83443193Y-118639432D01*
X85373101Y-116709523D01*
X85387512Y-116697138D01*
X85404871Y-116684363D01*
X85438889Y-116644321D01*
X85445819Y-116636805D01*
X85451462Y-116631162D01*
X85468994Y-116609002D01*
X85471770Y-116605616D01*
X85490299Y-116583807D01*
X85518782Y-116550280D01*
X85522111Y-116543760D01*
X85525431Y-116538782D01*
X85528564Y-116533709D01*
X85533107Y-116527967D01*
X85563853Y-116462183D01*
X85565784Y-116458233D01*
X85595464Y-116400107D01*
X85598793Y-116393588D01*
X85600533Y-116386478D01*
X85602623Y-116380858D01*
X85604503Y-116375207D01*
X85607601Y-116368578D01*
X85622387Y-116297486D01*
X85623356Y-116293205D01*
X85630266Y-116264969D01*
X85640611Y-116222692D01*
X85641300Y-116211586D01*
X85641334Y-116211588D01*
X85641577Y-116207529D01*
X85641937Y-116203495D01*
X85643428Y-116196327D01*
X85641346Y-116119385D01*
X85641300Y-116115977D01*
X85641300Y-112847972D01*
X86510751Y-112847972D01*
X86511915Y-112856874D01*
X86511915Y-112856877D01*
X86514837Y-112879218D01*
X86515901Y-112895556D01*
X86515901Y-113744076D01*
X86514560Y-113756081D01*
X86515056Y-113756121D01*
X86514336Y-113765068D01*
X86512355Y-113773824D01*
X86512911Y-113782784D01*
X86515659Y-113827082D01*
X86515901Y-113834884D01*
X86515901Y-113850926D01*
X86516536Y-113855357D01*
X86516536Y-113855362D01*
X86517366Y-113861153D01*
X86518397Y-113871214D01*
X86521303Y-113918059D01*
X86524350Y-113926499D01*
X86525031Y-113929789D01*
X86528983Y-113945638D01*
X86529928Y-113948868D01*
X86531200Y-113957752D01*
X86534915Y-113965923D01*
X86550619Y-114000463D01*
X86554431Y-114009828D01*
X86567323Y-114045537D01*
X86567325Y-114045540D01*
X86570373Y-114053984D01*
X86575669Y-114061233D01*
X86577241Y-114064190D01*
X86585494Y-114078314D01*
X86587299Y-114081137D01*
X86591013Y-114089305D01*
X86611934Y-114113584D01*
X86621644Y-114124853D01*
X86627926Y-114132764D01*
X86635874Y-114143644D01*
X86646736Y-114154506D01*
X86653094Y-114161352D01*
X86685345Y-114198782D01*
X86692880Y-114203666D01*
X86699452Y-114209399D01*
X86710856Y-114218626D01*
X88904654Y-116412424D01*
X88912010Y-116420443D01*
X88935502Y-116448391D01*
X88935505Y-116448394D01*
X88941276Y-116455259D01*
X88948744Y-116460231D01*
X88948745Y-116460231D01*
X88986770Y-116485543D01*
X88992514Y-116489603D01*
X89036236Y-116522370D01*
X89044643Y-116525521D01*
X89049291Y-116528066D01*
X89054097Y-116530358D01*
X89061574Y-116535336D01*
X89113743Y-116551635D01*
X89120372Y-116553910D01*
X89171552Y-116573097D01*
X89180506Y-116573762D01*
X89185700Y-116574904D01*
X89190939Y-116575753D01*
X89199510Y-116578431D01*
X89208484Y-116578595D01*
X89208487Y-116578596D01*
X89233738Y-116579058D01*
X89254156Y-116579433D01*
X89261174Y-116579758D01*
X89306714Y-116583143D01*
X89306723Y-116583142D01*
X89315667Y-116583807D01*
X89324444Y-116581934D01*
X89329732Y-116581573D01*
X89335017Y-116580915D01*
X89343998Y-116581079D01*
X89352661Y-116578717D01*
X89352663Y-116578717D01*
X89396712Y-116566708D01*
X89403548Y-116565047D01*
X89406700Y-116564374D01*
X89456994Y-116553638D01*
X89464895Y-116549375D01*
X89469887Y-116547538D01*
X89474760Y-116545429D01*
X89483422Y-116543068D01*
X89507855Y-116528066D01*
X89529989Y-116514476D01*
X89536084Y-116510965D01*
X89576271Y-116489281D01*
X89576275Y-116489278D01*
X89584174Y-116485016D01*
X89590558Y-116478709D01*
X89594815Y-116475559D01*
X89598920Y-116472151D01*
X89606572Y-116467453D01*
X89612598Y-116460795D01*
X89612601Y-116460793D01*
X89643241Y-116426943D01*
X89648106Y-116421860D01*
X89680596Y-116389765D01*
X89680598Y-116389763D01*
X89686982Y-116383456D01*
X89691341Y-116375610D01*
X89694552Y-116371379D01*
X89697526Y-116366970D01*
X89703551Y-116360313D01*
X89727374Y-116311142D01*
X89730614Y-116304904D01*
X89752796Y-116264969D01*
X89757153Y-116257125D01*
X89759133Y-116248374D01*
X89761033Y-116243399D01*
X89762650Y-116238331D01*
X89766560Y-116230261D01*
X89775630Y-116176351D01*
X89776986Y-116169477D01*
X89789046Y-116116176D01*
X89788490Y-116107216D01*
X89789179Y-116098653D01*
X89789334Y-116097405D01*
X89789294Y-116097401D01*
X89789729Y-116092547D01*
X89790536Y-116087752D01*
X89790688Y-116075299D01*
X89787291Y-116051577D01*
X89784035Y-116028842D01*
X89783004Y-116018782D01*
X89780654Y-115980900D01*
X89780654Y-115980898D01*
X89780098Y-115971941D01*
X89777051Y-115963500D01*
X89776372Y-115960222D01*
X89772416Y-115944354D01*
X89771473Y-115941130D01*
X89770201Y-115932247D01*
X89766487Y-115924078D01*
X89766485Y-115924072D01*
X89750775Y-115889520D01*
X89746961Y-115880151D01*
X89738853Y-115857691D01*
X89731028Y-115836015D01*
X89725731Y-115828765D01*
X89724154Y-115825798D01*
X89715907Y-115811685D01*
X89714102Y-115808862D01*
X89710388Y-115800694D01*
X89679753Y-115765141D01*
X89673475Y-115757235D01*
X89665527Y-115746355D01*
X89654665Y-115735493D01*
X89648307Y-115728646D01*
X89621915Y-115698017D01*
X89616056Y-115691217D01*
X89608521Y-115686333D01*
X89601949Y-115680600D01*
X89590545Y-115671373D01*
X87561806Y-113642634D01*
X87527780Y-113580322D01*
X87524901Y-113553539D01*
X87524901Y-112907112D01*
X87526647Y-112886207D01*
X87529130Y-112871446D01*
X87529937Y-112866652D01*
X87530089Y-112854199D01*
X87509602Y-112711147D01*
X87449789Y-112579594D01*
X87443931Y-112572795D01*
X87443928Y-112572791D01*
X87361317Y-112476917D01*
X87361314Y-112476915D01*
X87355457Y-112470117D01*
X87294824Y-112430817D01*
X87241725Y-112396399D01*
X87241723Y-112396398D01*
X87234191Y-112391516D01*
X87217322Y-112386471D01*
X87104339Y-112352681D01*
X87104337Y-112352681D01*
X87095738Y-112350109D01*
X87086764Y-112350054D01*
X87086762Y-112350054D01*
X87023483Y-112349668D01*
X86951228Y-112349227D01*
X86942597Y-112351694D01*
X86942595Y-112351694D01*
X86820910Y-112386471D01*
X86820906Y-112386473D01*
X86812280Y-112388938D01*
X86804693Y-112393725D01*
X86804691Y-112393726D01*
X86697655Y-112461261D01*
X86690062Y-112466052D01*
X86594400Y-112574369D01*
X86590586Y-112582492D01*
X86590585Y-112582494D01*
X86564766Y-112637487D01*
X86532984Y-112705181D01*
X86531604Y-112714045D01*
X86531603Y-112714048D01*
X86517539Y-112804378D01*
X86510751Y-112847972D01*
X85641300Y-112847972D01*
X85641300Y-111978880D01*
X88522476Y-111978880D01*
X88523716Y-111986096D01*
X88523716Y-111986098D01*
X88549751Y-112137612D01*
X88552271Y-112152277D01*
X88621156Y-112314168D01*
X88725437Y-112455871D01*
X88859520Y-112569782D01*
X88903034Y-112592001D01*
X89009695Y-112646466D01*
X89009700Y-112646468D01*
X89016212Y-112649793D01*
X89023318Y-112651532D01*
X89023321Y-112651533D01*
X89074629Y-112664088D01*
X89097906Y-112669783D01*
X89157052Y-112703077D01*
X91549995Y-115096019D01*
X91584020Y-115158331D01*
X91586900Y-115185114D01*
X91586900Y-115723400D01*
X91587260Y-115726746D01*
X91587260Y-115726751D01*
X91590976Y-115761310D01*
X91592830Y-115778559D01*
X91604216Y-115830901D01*
X91604661Y-115832523D01*
X91604662Y-115832527D01*
X91609480Y-115850088D01*
X91611566Y-115857691D01*
X91615467Y-115864542D01*
X91615468Y-115864544D01*
X91649366Y-115924072D01*
X91661669Y-115945678D01*
X91708162Y-115999334D01*
X91741451Y-116031456D01*
X91831170Y-116078387D01*
X91837106Y-116080130D01*
X91894968Y-116097120D01*
X91894972Y-116097121D01*
X91899291Y-116098389D01*
X91903739Y-116099029D01*
X91903746Y-116099030D01*
X91967952Y-116108261D01*
X91967959Y-116108261D01*
X91972400Y-116108900D01*
X93540937Y-116108900D01*
X93565518Y-116111321D01*
X93587533Y-116115700D01*
X94462458Y-116115700D01*
X95337666Y-116115699D01*
X95375063Y-116108261D01*
X95399726Y-116103356D01*
X95399728Y-116103355D01*
X95411901Y-116100934D01*
X95422221Y-116094039D01*
X95422222Y-116094038D01*
X95485768Y-116051577D01*
X95496084Y-116044684D01*
X95552334Y-115960501D01*
X95567100Y-115886267D01*
X95567099Y-114136134D01*
X95552334Y-114061899D01*
X95496084Y-113977716D01*
X95453328Y-113949147D01*
X95422220Y-113928361D01*
X95411901Y-113921466D01*
X95337667Y-113906700D01*
X94462742Y-113906700D01*
X93587534Y-113906701D01*
X93568061Y-113910574D01*
X93565522Y-113911079D01*
X93540943Y-113913500D01*
X92553714Y-113913500D01*
X92485593Y-113893498D01*
X92464619Y-113876595D01*
X90991161Y-112403137D01*
X97137287Y-112403137D01*
X97146684Y-112566121D01*
X97148918Y-112573382D01*
X97148918Y-112573383D01*
X97164782Y-112624949D01*
X97194688Y-112722159D01*
X97278526Y-112862242D01*
X97283863Y-112867635D01*
X97283866Y-112867639D01*
X97337019Y-112921351D01*
X97393359Y-112978284D01*
X97532557Y-113063584D01*
X97615392Y-113090020D01*
X97680844Y-113110909D01*
X97680846Y-113110909D01*
X97688083Y-113113219D01*
X97695663Y-113113736D01*
X97695664Y-113113736D01*
X97843384Y-113123807D01*
X97843388Y-113123807D01*
X97850960Y-113124323D01*
X97858437Y-113123018D01*
X97858439Y-113123018D01*
X98004306Y-113097560D01*
X98011783Y-113096255D01*
X98018729Y-113093206D01*
X98018732Y-113093205D01*
X98095250Y-113059616D01*
X98161271Y-113030635D01*
X98260903Y-112954184D01*
X100711125Y-110503962D01*
X100717391Y-110498108D01*
X100753006Y-110467039D01*
X100758733Y-110462043D01*
X100793615Y-110412410D01*
X100797541Y-110407124D01*
X100830294Y-110365353D01*
X100830295Y-110365351D01*
X100834981Y-110359375D01*
X100838106Y-110352454D01*
X100841158Y-110347415D01*
X100845469Y-110339855D01*
X100848239Y-110334690D01*
X100852605Y-110328477D01*
X100855362Y-110321406D01*
X100855364Y-110321402D01*
X100874638Y-110271965D01*
X100877195Y-110265882D01*
X100899034Y-110217514D01*
X100902163Y-110210585D01*
X100903548Y-110203109D01*
X100905312Y-110197482D01*
X100907681Y-110189165D01*
X100909148Y-110183452D01*
X100911908Y-110176373D01*
X100913874Y-110161445D01*
X100919826Y-110116231D01*
X100920858Y-110109715D01*
X100923125Y-110097487D01*
X100931914Y-110050063D01*
X100930217Y-110020624D01*
X100928509Y-109991013D01*
X100928300Y-109983760D01*
X100928300Y-105793338D01*
X100928592Y-105784768D01*
X100931807Y-105737616D01*
X100931807Y-105737612D01*
X100932323Y-105730040D01*
X100921889Y-105670258D01*
X100920927Y-105663736D01*
X100913641Y-105603527D01*
X100910956Y-105596421D01*
X100909558Y-105590728D01*
X100907253Y-105582303D01*
X100905561Y-105576699D01*
X100904255Y-105569217D01*
X100879865Y-105513655D01*
X100877384Y-105507575D01*
X100858621Y-105457920D01*
X100858621Y-105457919D01*
X100855935Y-105450812D01*
X100851629Y-105444547D01*
X100848891Y-105439310D01*
X100844682Y-105431748D01*
X100841688Y-105426686D01*
X100838635Y-105419730D01*
X100834013Y-105413706D01*
X100834009Y-105413700D01*
X100801694Y-105371587D01*
X100797816Y-105366250D01*
X100767768Y-105322529D01*
X100763466Y-105316269D01*
X100757795Y-105311217D01*
X100757793Y-105311214D01*
X100719305Y-105276923D01*
X100714029Y-105271942D01*
X99436674Y-103994587D01*
X99402648Y-103932275D01*
X99407713Y-103861460D01*
X99436674Y-103816397D01*
X100686923Y-102566148D01*
X100695534Y-102558298D01*
X100698724Y-102555650D01*
X100706372Y-102550954D01*
X100744893Y-102508397D01*
X100749213Y-102503858D01*
X100763151Y-102489920D01*
X100765842Y-102486330D01*
X100767043Y-102484728D01*
X100774448Y-102475746D01*
X100796490Y-102451394D01*
X100803351Y-102443814D01*
X100807266Y-102435734D01*
X100808388Y-102433419D01*
X100820948Y-102412802D01*
X100822488Y-102410747D01*
X100822489Y-102410745D01*
X100827871Y-102403564D01*
X100842995Y-102363219D01*
X100847572Y-102352541D01*
X100866360Y-102313762D01*
X100868275Y-102302382D01*
X100874548Y-102279052D01*
X100875448Y-102276653D01*
X100875449Y-102276648D01*
X100878598Y-102268248D01*
X100881790Y-102225294D01*
X100883190Y-102213727D01*
X100885122Y-102202244D01*
X100890336Y-102171253D01*
X100890488Y-102158800D01*
X100889799Y-102153986D01*
X100889482Y-102149129D01*
X100889753Y-102149111D01*
X100889511Y-102142024D01*
X100889254Y-102142042D01*
X100888643Y-102133080D01*
X100889308Y-102124133D01*
X100883335Y-102096149D01*
X100878702Y-102074448D01*
X100877199Y-102066007D01*
X100871274Y-102024636D01*
X100871274Y-102024635D01*
X100870001Y-102015748D01*
X100866287Y-102007578D01*
X100863919Y-101999480D01*
X100861013Y-101991581D01*
X100859139Y-101982806D01*
X100835015Y-101938096D01*
X100831210Y-101930431D01*
X100810188Y-101884195D01*
X100804328Y-101877394D01*
X100799783Y-101870287D01*
X100794779Y-101863525D01*
X100790517Y-101855626D01*
X100754822Y-101819492D01*
X100749018Y-101813204D01*
X100715856Y-101774718D01*
X100708325Y-101769836D01*
X100701963Y-101764287D01*
X100695263Y-101759201D01*
X100688957Y-101752818D01*
X100644549Y-101728152D01*
X100637200Y-101723736D01*
X100602120Y-101700998D01*
X100594590Y-101696117D01*
X100585988Y-101693544D01*
X100578326Y-101690004D01*
X100570473Y-101687005D01*
X100562626Y-101682647D01*
X100513086Y-101671437D01*
X100504794Y-101669261D01*
X100464739Y-101657282D01*
X100464735Y-101657281D01*
X100456137Y-101654710D01*
X100447164Y-101654655D01*
X100438837Y-101653411D01*
X100430434Y-101652735D01*
X100421677Y-101650753D01*
X100370983Y-101653898D01*
X100362420Y-101654138D01*
X100311627Y-101653828D01*
X100302995Y-101656295D01*
X100294661Y-101657437D01*
X100286408Y-101659146D01*
X100277442Y-101659702D01*
X100229665Y-101676950D01*
X100221510Y-101679583D01*
X100181309Y-101691072D01*
X100181306Y-101691073D01*
X100172679Y-101693539D01*
X100165088Y-101698328D01*
X100157414Y-101701761D01*
X100149965Y-101705722D01*
X100141516Y-101708772D01*
X100134266Y-101714069D01*
X100134265Y-101714069D01*
X100100504Y-101738733D01*
X100093413Y-101743552D01*
X100067274Y-101760045D01*
X100050461Y-101770653D01*
X100021395Y-101803564D01*
X100015129Y-101810659D01*
X100009783Y-101816346D01*
X98404924Y-103421205D01*
X98352879Y-103452540D01*
X98308301Y-103466254D01*
X98308297Y-103466256D01*
X98301041Y-103468488D01*
X98160958Y-103552326D01*
X98155565Y-103557663D01*
X98155561Y-103557666D01*
X98101849Y-103610819D01*
X98044916Y-103667159D01*
X97959616Y-103806357D01*
X97957307Y-103813593D01*
X97912630Y-103953584D01*
X97909981Y-103961883D01*
X97898877Y-104124760D01*
X97926945Y-104285583D01*
X97929994Y-104292529D01*
X97929995Y-104292532D01*
X97952397Y-104343564D01*
X97992565Y-104435071D01*
X98069016Y-104534703D01*
X99542395Y-106008082D01*
X99576421Y-106070394D01*
X99579300Y-106097177D01*
X99579300Y-109675823D01*
X99559298Y-109743944D01*
X99542395Y-109764918D01*
X97309509Y-111997804D01*
X97307167Y-112000791D01*
X97307166Y-112000792D01*
X97271196Y-112046667D01*
X97234219Y-112093825D01*
X97231095Y-112100743D01*
X97231093Y-112100747D01*
X97207827Y-112152277D01*
X97167038Y-112242615D01*
X97165654Y-112250083D01*
X97165653Y-112250086D01*
X97155024Y-112307437D01*
X97137287Y-112403137D01*
X90991161Y-112403137D01*
X90039524Y-111451500D01*
X90027137Y-111437087D01*
X90018704Y-111425628D01*
X90014363Y-111419729D01*
X89974321Y-111385711D01*
X89966805Y-111378781D01*
X89961162Y-111373138D01*
X89939002Y-111355606D01*
X89935616Y-111352830D01*
X89885858Y-111310557D01*
X89885859Y-111310557D01*
X89880280Y-111305818D01*
X89873760Y-111302489D01*
X89868782Y-111299169D01*
X89863709Y-111296036D01*
X89857967Y-111291493D01*
X89792183Y-111260747D01*
X89788233Y-111258816D01*
X89730107Y-111229136D01*
X89723588Y-111225807D01*
X89716478Y-111224067D01*
X89710858Y-111221977D01*
X89705207Y-111220097D01*
X89698578Y-111216999D01*
X89691414Y-111215509D01*
X89691411Y-111215508D01*
X89641407Y-111205108D01*
X89627486Y-111202213D01*
X89623227Y-111201249D01*
X89552692Y-111183989D01*
X89547095Y-111183642D01*
X89547090Y-111183641D01*
X89541586Y-111183300D01*
X89541588Y-111183266D01*
X89537529Y-111183023D01*
X89533495Y-111182663D01*
X89526327Y-111181172D01*
X89519010Y-111181370D01*
X89449385Y-111183254D01*
X89445977Y-111183300D01*
X89236947Y-111183300D01*
X89145050Y-111194014D01*
X89113518Y-111197690D01*
X89113516Y-111197690D01*
X89106246Y-111198538D01*
X89099369Y-111201034D01*
X89099366Y-111201035D01*
X88947745Y-111256071D01*
X88940866Y-111258568D01*
X88934749Y-111262578D01*
X88934746Y-111262580D01*
X88890647Y-111291493D01*
X88793732Y-111355034D01*
X88672736Y-111482760D01*
X88584368Y-111634896D01*
X88533370Y-111803280D01*
X88522476Y-111978880D01*
X85641300Y-111978880D01*
X85641300Y-110712373D01*
X95730950Y-110712373D01*
X95732114Y-110721274D01*
X95732073Y-110724657D01*
X95732528Y-110740945D01*
X95732758Y-110744320D01*
X95732093Y-110753267D01*
X95733966Y-110762040D01*
X95733966Y-110762044D01*
X95741892Y-110799173D01*
X95743604Y-110809139D01*
X95749688Y-110855665D01*
X95753303Y-110863880D01*
X95754207Y-110867119D01*
X95759226Y-110882658D01*
X95760386Y-110885812D01*
X95762261Y-110894594D01*
X95784549Y-110935902D01*
X95788986Y-110944978D01*
X95807889Y-110987939D01*
X95813665Y-110994810D01*
X95815438Y-110997659D01*
X95824637Y-111011194D01*
X95826622Y-111013876D01*
X95830883Y-111021774D01*
X95837187Y-111028155D01*
X95837191Y-111028161D01*
X95863869Y-111055166D01*
X95870666Y-111062621D01*
X95900876Y-111098560D01*
X95908352Y-111103536D01*
X95910851Y-111105771D01*
X95923454Y-111116160D01*
X95926132Y-111118193D01*
X95932444Y-111124582D01*
X95972804Y-111147000D01*
X95973466Y-111147368D01*
X95982099Y-111152628D01*
X96013695Y-111173660D01*
X96013702Y-111173664D01*
X96021174Y-111178637D01*
X96029749Y-111181316D01*
X96032785Y-111182764D01*
X96047791Y-111189196D01*
X96050925Y-111190393D01*
X96058775Y-111194753D01*
X96067530Y-111196734D01*
X96104539Y-111205108D01*
X96114306Y-111207734D01*
X96126613Y-111211579D01*
X96159110Y-111221732D01*
X96168087Y-111221897D01*
X96171399Y-111222433D01*
X96187617Y-111224396D01*
X96190972Y-111224666D01*
X96199724Y-111226646D01*
X96225276Y-111225061D01*
X96246554Y-111223741D01*
X96256663Y-111223520D01*
X96294621Y-111224216D01*
X96294625Y-111224216D01*
X96303598Y-111224380D01*
X96312260Y-111222019D01*
X96315587Y-111221604D01*
X96331704Y-111218936D01*
X96334998Y-111218254D01*
X96343959Y-111217698D01*
X96388102Y-111201762D01*
X96397729Y-111198718D01*
X96434360Y-111188731D01*
X96434364Y-111188729D01*
X96443022Y-111186369D01*
X96450668Y-111181674D01*
X96453735Y-111180347D01*
X96468456Y-111173262D01*
X96471435Y-111171678D01*
X96479884Y-111168628D01*
X96517791Y-111140936D01*
X96526174Y-111135313D01*
X96545778Y-111123276D01*
X96566172Y-111110754D01*
X96604693Y-111068197D01*
X96609013Y-111063658D01*
X98672079Y-109000592D01*
X98734391Y-108966566D01*
X98749558Y-108965076D01*
X98749514Y-108964725D01*
X98758420Y-108963615D01*
X98767398Y-108963780D01*
X98799371Y-108955063D01*
X98814652Y-108951898D01*
X98847452Y-108947201D01*
X98855623Y-108943486D01*
X98855626Y-108943485D01*
X98867037Y-108938296D01*
X98886049Y-108931432D01*
X98891992Y-108929812D01*
X98906822Y-108925769D01*
X98935066Y-108908427D01*
X98948842Y-108901103D01*
X98970828Y-108891107D01*
X98970835Y-108891103D01*
X98979005Y-108887388D01*
X98995311Y-108873338D01*
X99011628Y-108861418D01*
X99022321Y-108854852D01*
X99022322Y-108854851D01*
X99029972Y-108850154D01*
X99052217Y-108825578D01*
X99063377Y-108814688D01*
X99081680Y-108798917D01*
X99088482Y-108793056D01*
X99093366Y-108785522D01*
X99093368Y-108785519D01*
X99100186Y-108775000D01*
X99112503Y-108758977D01*
X99120924Y-108749673D01*
X99120925Y-108749672D01*
X99126951Y-108743014D01*
X99130867Y-108734932D01*
X99141402Y-108713188D01*
X99149062Y-108699594D01*
X99162197Y-108679329D01*
X99162199Y-108679326D01*
X99167083Y-108671790D01*
X99173253Y-108651161D01*
X99180576Y-108632331D01*
X99186045Y-108621043D01*
X99186045Y-108621042D01*
X99189960Y-108612962D01*
X99195457Y-108580286D01*
X99198994Y-108565087D01*
X99208490Y-108533337D01*
X99208621Y-108511813D01*
X99210366Y-108491675D01*
X99213129Y-108475255D01*
X99213130Y-108475243D01*
X99213936Y-108470453D01*
X99214088Y-108458000D01*
X99210488Y-108432860D01*
X99209217Y-108414232D01*
X99209317Y-108397802D01*
X99209372Y-108388827D01*
X99206906Y-108380197D01*
X99206905Y-108380193D01*
X99201328Y-108360680D01*
X99197750Y-108343919D01*
X99194874Y-108323840D01*
X99193601Y-108314948D01*
X99184542Y-108295024D01*
X99183092Y-108291835D01*
X99176642Y-108274306D01*
X99172127Y-108258507D01*
X99172126Y-108258506D01*
X99169661Y-108249879D01*
X99154041Y-108225123D01*
X99145903Y-108210040D01*
X99137505Y-108191571D01*
X99133788Y-108183395D01*
X99127924Y-108176589D01*
X99117209Y-108164153D01*
X99106101Y-108149142D01*
X99097339Y-108135255D01*
X99097337Y-108135253D01*
X99092547Y-108127661D01*
X99070604Y-108108282D01*
X99058563Y-108096093D01*
X99039456Y-108073918D01*
X99018144Y-108060104D01*
X99003272Y-108048816D01*
X98990958Y-108037941D01*
X98984230Y-108031999D01*
X98969887Y-108025265D01*
X98957735Y-108019559D01*
X98942756Y-108011238D01*
X98925726Y-108000200D01*
X98925718Y-108000196D01*
X98918190Y-107995317D01*
X98893849Y-107988037D01*
X98876413Y-107981379D01*
X98853418Y-107970583D01*
X98844552Y-107969203D01*
X98844550Y-107969202D01*
X98824503Y-107966081D01*
X98807785Y-107962298D01*
X98788338Y-107956482D01*
X98788336Y-107956482D01*
X98779737Y-107953910D01*
X98770765Y-107953855D01*
X98770763Y-107953855D01*
X98760486Y-107953793D01*
X98745554Y-107953702D01*
X98744792Y-107953670D01*
X98743703Y-107953500D01*
X98713002Y-107953500D01*
X98712233Y-107953498D01*
X98635227Y-107953028D01*
X98633892Y-107953410D01*
X98632564Y-107953500D01*
X98571824Y-107953500D01*
X98559819Y-107952159D01*
X98559779Y-107952655D01*
X98550832Y-107951935D01*
X98542076Y-107949954D01*
X98488818Y-107953258D01*
X98481016Y-107953500D01*
X98464974Y-107953500D01*
X98460543Y-107954135D01*
X98460538Y-107954135D01*
X98456513Y-107954712D01*
X98454743Y-107954965D01*
X98444686Y-107955996D01*
X98422224Y-107957389D01*
X98406800Y-107958346D01*
X98406798Y-107958346D01*
X98397841Y-107958902D01*
X98389401Y-107961949D01*
X98386111Y-107962630D01*
X98370262Y-107966582D01*
X98367032Y-107967527D01*
X98358148Y-107968799D01*
X98321732Y-107985356D01*
X98315422Y-107988225D01*
X98306060Y-107992036D01*
X98270358Y-108004925D01*
X98270357Y-108004926D01*
X98261916Y-108007973D01*
X98254667Y-108013269D01*
X98251686Y-108014854D01*
X98237608Y-108023080D01*
X98234769Y-108024896D01*
X98226595Y-108028612D01*
X98203148Y-108048816D01*
X98191048Y-108059242D01*
X98183130Y-108065530D01*
X98172256Y-108073473D01*
X98161394Y-108084335D01*
X98154548Y-108090693D01*
X98117118Y-108122944D01*
X98112234Y-108130479D01*
X98106501Y-108137051D01*
X98097274Y-108148455D01*
X95933806Y-110311923D01*
X95924366Y-110319465D01*
X95924689Y-110319845D01*
X95917853Y-110325663D01*
X95910261Y-110330453D01*
X95904319Y-110337181D01*
X95874929Y-110370459D01*
X95869583Y-110376146D01*
X95858249Y-110387480D01*
X95855564Y-110391063D01*
X95855562Y-110391065D01*
X95852047Y-110395755D01*
X95845662Y-110403598D01*
X95814599Y-110438770D01*
X95810786Y-110446892D01*
X95808946Y-110449693D01*
X95800537Y-110463688D01*
X95798915Y-110466651D01*
X95793530Y-110473836D01*
X95790377Y-110482246D01*
X95790376Y-110482248D01*
X95777054Y-110517782D01*
X95773130Y-110527095D01*
X95753183Y-110569582D01*
X95751801Y-110578456D01*
X95750815Y-110581683D01*
X95746675Y-110597466D01*
X95745954Y-110600744D01*
X95742802Y-110609152D01*
X95742137Y-110618102D01*
X95739325Y-110655949D01*
X95738171Y-110665998D01*
X95730950Y-110712373D01*
X85641300Y-110712373D01*
X85641300Y-109267164D01*
X89035748Y-109267164D01*
X89049024Y-109469722D01*
X89050445Y-109475318D01*
X89050446Y-109475323D01*
X89070719Y-109555145D01*
X89098992Y-109666469D01*
X89101409Y-109671712D01*
X89138610Y-109752408D01*
X89183977Y-109850816D01*
X89301133Y-110016589D01*
X89446538Y-110158235D01*
X89615320Y-110271012D01*
X89620623Y-110273290D01*
X89620626Y-110273292D01*
X89753673Y-110330453D01*
X89801828Y-110351142D01*
X89838213Y-110359375D01*
X89994179Y-110394667D01*
X89994184Y-110394668D01*
X89999816Y-110395942D01*
X90005587Y-110396169D01*
X90005589Y-110396169D01*
X90065356Y-110398517D01*
X90202653Y-110403912D01*
X90303099Y-110389348D01*
X90397831Y-110375613D01*
X90397836Y-110375612D01*
X90403545Y-110374784D01*
X90409009Y-110372929D01*
X90409014Y-110372928D01*
X90590293Y-110311392D01*
X90590298Y-110311390D01*
X90595765Y-110309534D01*
X90625541Y-110292859D01*
X90760078Y-110217514D01*
X90772876Y-110210347D01*
X90788345Y-110197482D01*
X90924513Y-110084231D01*
X90928945Y-110080545D01*
X90986063Y-110011869D01*
X91055053Y-109928918D01*
X91055055Y-109928915D01*
X91058747Y-109924476D01*
X91157934Y-109747365D01*
X91159790Y-109741898D01*
X91159792Y-109741893D01*
X91221328Y-109560614D01*
X91221329Y-109560609D01*
X91223184Y-109555145D01*
X91224012Y-109549436D01*
X91224013Y-109549431D01*
X91242262Y-109423564D01*
X91252312Y-109354253D01*
X91253832Y-109296200D01*
X91235258Y-109094059D01*
X91233690Y-109088499D01*
X91181725Y-108904246D01*
X91181724Y-108904244D01*
X91180157Y-108898687D01*
X91171695Y-108881526D01*
X91092931Y-108721809D01*
X91090376Y-108716628D01*
X90968920Y-108553979D01*
X90819858Y-108416187D01*
X90814975Y-108413106D01*
X90814971Y-108413103D01*
X90653064Y-108310948D01*
X90648181Y-108307867D01*
X90459639Y-108232646D01*
X90453979Y-108231520D01*
X90453975Y-108231519D01*
X90266213Y-108194171D01*
X90266210Y-108194171D01*
X90260546Y-108193044D01*
X90254771Y-108192968D01*
X90254767Y-108192968D01*
X90153393Y-108191641D01*
X90057571Y-108190387D01*
X90051874Y-108191366D01*
X90051873Y-108191366D01*
X89943198Y-108210040D01*
X89857510Y-108224764D01*
X89667063Y-108295024D01*
X89492610Y-108398812D01*
X89488270Y-108402618D01*
X89488266Y-108402621D01*
X89375319Y-108501674D01*
X89339992Y-108532655D01*
X89214320Y-108692069D01*
X89211631Y-108697180D01*
X89211629Y-108697183D01*
X89189447Y-108739345D01*
X89119803Y-108871715D01*
X89059607Y-109065578D01*
X89035748Y-109267164D01*
X85641300Y-109267164D01*
X85641300Y-106384315D01*
X85661302Y-106316194D01*
X85678205Y-106295220D01*
X87162556Y-104810869D01*
X88857742Y-103115682D01*
X88920054Y-103081656D01*
X88990869Y-103086721D01*
X89047705Y-103129268D01*
X89072516Y-103195788D01*
X89063246Y-103252995D01*
X89061762Y-103256578D01*
X89054866Y-103266899D01*
X89040100Y-103341133D01*
X89040101Y-105091266D01*
X89054866Y-105165501D01*
X89111116Y-105249684D01*
X89195299Y-105305934D01*
X89269533Y-105320700D01*
X90144458Y-105320700D01*
X91019666Y-105320699D01*
X91055418Y-105313588D01*
X91081726Y-105308356D01*
X91081728Y-105308355D01*
X91093901Y-105305934D01*
X91104221Y-105299039D01*
X91104222Y-105299038D01*
X91167768Y-105256577D01*
X91178084Y-105249684D01*
X91234334Y-105165501D01*
X91249100Y-105091267D01*
X91249099Y-103341134D01*
X91234334Y-103266899D01*
X91178084Y-103182716D01*
X91093901Y-103126466D01*
X91019667Y-103111700D01*
X90144742Y-103111700D01*
X89269534Y-103111701D01*
X89233782Y-103118812D01*
X89207474Y-103124044D01*
X89207472Y-103124045D01*
X89195299Y-103126466D01*
X89184979Y-103133362D01*
X89181393Y-103134847D01*
X89110803Y-103142435D01*
X89047317Y-103110654D01*
X89011090Y-103049595D01*
X89013626Y-102978644D01*
X89044082Y-102929342D01*
X89328019Y-102645405D01*
X89390331Y-102611379D01*
X89417114Y-102608500D01*
X93176635Y-102608500D01*
X93195585Y-102609933D01*
X93209655Y-102612074D01*
X93209659Y-102612074D01*
X93216889Y-102613174D01*
X93224180Y-102612581D01*
X93224183Y-102612581D01*
X93269248Y-102608915D01*
X93279463Y-102608500D01*
X93287453Y-102608500D01*
X93294702Y-102607655D01*
X93315513Y-102605229D01*
X93319887Y-102604796D01*
X93384949Y-102599504D01*
X93384952Y-102599503D01*
X93392247Y-102598910D01*
X93399209Y-102596655D01*
X93405077Y-102595482D01*
X93410884Y-102594110D01*
X93418154Y-102593262D01*
X93486460Y-102568468D01*
X93490563Y-102567060D01*
X93559622Y-102544688D01*
X93565879Y-102540891D01*
X93571326Y-102538398D01*
X93576654Y-102535730D01*
X93583534Y-102533232D01*
X93644249Y-102493426D01*
X93647959Y-102491085D01*
X93705238Y-102456327D01*
X93705240Y-102456325D01*
X93710033Y-102453417D01*
X93718374Y-102446051D01*
X93718396Y-102446076D01*
X93721441Y-102443376D01*
X93724546Y-102440780D01*
X93730668Y-102436766D01*
X93783616Y-102380873D01*
X93785993Y-102378432D01*
X94011852Y-102152573D01*
X96696150Y-102152573D01*
X96697314Y-102161474D01*
X96697273Y-102164857D01*
X96697728Y-102181145D01*
X96697958Y-102184520D01*
X96697293Y-102193467D01*
X96699166Y-102202240D01*
X96699166Y-102202244D01*
X96707092Y-102239373D01*
X96708804Y-102249339D01*
X96713724Y-102286965D01*
X96714888Y-102295865D01*
X96718503Y-102304080D01*
X96719407Y-102307319D01*
X96724426Y-102322858D01*
X96725586Y-102326012D01*
X96727461Y-102334794D01*
X96749749Y-102376102D01*
X96754186Y-102385178D01*
X96773089Y-102428139D01*
X96778865Y-102435010D01*
X96780638Y-102437859D01*
X96789837Y-102451394D01*
X96791822Y-102454076D01*
X96796083Y-102461974D01*
X96802387Y-102468355D01*
X96802391Y-102468361D01*
X96829069Y-102495366D01*
X96835866Y-102502821D01*
X96866076Y-102538760D01*
X96873552Y-102543736D01*
X96876051Y-102545971D01*
X96888654Y-102556360D01*
X96891332Y-102558393D01*
X96897644Y-102564782D01*
X96938004Y-102587200D01*
X96938666Y-102587568D01*
X96947299Y-102592828D01*
X96978895Y-102613860D01*
X96978902Y-102613864D01*
X96986374Y-102618837D01*
X96994949Y-102621516D01*
X96997985Y-102622964D01*
X97012991Y-102629396D01*
X97016125Y-102630593D01*
X97023975Y-102634953D01*
X97032730Y-102636934D01*
X97069739Y-102645308D01*
X97079506Y-102647934D01*
X97091813Y-102651779D01*
X97124310Y-102661932D01*
X97133287Y-102662097D01*
X97136599Y-102662633D01*
X97152817Y-102664596D01*
X97156172Y-102664866D01*
X97164924Y-102666846D01*
X97190476Y-102665261D01*
X97211754Y-102663941D01*
X97221863Y-102663720D01*
X97259821Y-102664416D01*
X97259825Y-102664416D01*
X97268798Y-102664580D01*
X97277460Y-102662219D01*
X97280787Y-102661804D01*
X97296904Y-102659136D01*
X97300198Y-102658454D01*
X97309159Y-102657898D01*
X97353302Y-102641962D01*
X97362929Y-102638918D01*
X97399560Y-102628931D01*
X97399564Y-102628929D01*
X97408222Y-102626569D01*
X97415868Y-102621874D01*
X97418935Y-102620547D01*
X97433656Y-102613462D01*
X97436635Y-102611878D01*
X97445084Y-102608828D01*
X97482991Y-102581136D01*
X97491374Y-102575513D01*
X97501755Y-102569139D01*
X97531372Y-102550954D01*
X97569893Y-102508397D01*
X97574213Y-102503858D01*
X99638466Y-100439605D01*
X99700778Y-100405579D01*
X99727561Y-100402700D01*
X99915592Y-100402700D01*
X99917901Y-100402721D01*
X99986598Y-100403980D01*
X100018571Y-100395263D01*
X100033852Y-100392098D01*
X100066652Y-100387401D01*
X100074823Y-100383686D01*
X100074826Y-100383685D01*
X100086237Y-100378496D01*
X100105249Y-100371632D01*
X100117365Y-100368329D01*
X100126022Y-100365969D01*
X100154266Y-100348627D01*
X100168042Y-100341303D01*
X100190028Y-100331307D01*
X100190035Y-100331303D01*
X100198205Y-100327588D01*
X100214511Y-100313538D01*
X100230828Y-100301618D01*
X100241521Y-100295052D01*
X100241522Y-100295051D01*
X100249172Y-100290354D01*
X100271417Y-100265778D01*
X100282577Y-100254888D01*
X100300880Y-100239117D01*
X100307682Y-100233256D01*
X100312566Y-100225722D01*
X100312568Y-100225719D01*
X100319386Y-100215200D01*
X100331703Y-100199177D01*
X100340124Y-100189873D01*
X100340125Y-100189872D01*
X100346151Y-100183214D01*
X100350067Y-100175132D01*
X100360602Y-100153388D01*
X100368262Y-100139794D01*
X100381397Y-100119529D01*
X100381399Y-100119526D01*
X100386283Y-100111990D01*
X100392453Y-100091361D01*
X100399776Y-100072531D01*
X100405245Y-100061243D01*
X100405245Y-100061242D01*
X100409160Y-100053162D01*
X100414657Y-100020486D01*
X100418194Y-100005287D01*
X100427690Y-99973537D01*
X100427821Y-99952013D01*
X100429566Y-99931875D01*
X100432329Y-99915455D01*
X100432330Y-99915443D01*
X100433136Y-99910653D01*
X100433288Y-99898200D01*
X100429688Y-99873060D01*
X100428417Y-99854432D01*
X100428517Y-99838002D01*
X100428572Y-99829027D01*
X100426106Y-99820397D01*
X100426105Y-99820393D01*
X100420528Y-99800880D01*
X100416950Y-99784119D01*
X100414074Y-99764040D01*
X100412801Y-99755148D01*
X100402292Y-99732035D01*
X100395842Y-99714506D01*
X100391327Y-99698707D01*
X100391326Y-99698706D01*
X100388861Y-99690079D01*
X100373241Y-99665323D01*
X100365103Y-99650240D01*
X100356705Y-99631771D01*
X100352988Y-99623595D01*
X100347124Y-99616789D01*
X100336409Y-99604353D01*
X100325301Y-99589342D01*
X100316539Y-99575455D01*
X100316537Y-99575453D01*
X100311747Y-99567861D01*
X100289804Y-99548482D01*
X100277763Y-99536293D01*
X100258656Y-99514118D01*
X100237344Y-99500304D01*
X100222472Y-99489016D01*
X100210158Y-99478141D01*
X100203430Y-99472199D01*
X100184600Y-99463358D01*
X100176935Y-99459759D01*
X100161956Y-99451438D01*
X100144926Y-99440400D01*
X100144918Y-99440396D01*
X100137390Y-99435517D01*
X100113049Y-99428237D01*
X100095613Y-99421579D01*
X100072618Y-99410783D01*
X100063752Y-99409403D01*
X100063750Y-99409402D01*
X100043703Y-99406281D01*
X100026985Y-99402498D01*
X100007538Y-99396682D01*
X100007536Y-99396682D01*
X99998937Y-99394110D01*
X99989965Y-99394055D01*
X99989963Y-99394055D01*
X99979686Y-99393993D01*
X99964754Y-99393902D01*
X99963992Y-99393870D01*
X99962903Y-99393700D01*
X99932202Y-99393700D01*
X99931433Y-99393698D01*
X99854427Y-99393228D01*
X99853092Y-99393610D01*
X99851764Y-99393700D01*
X99537024Y-99393700D01*
X99525019Y-99392359D01*
X99524979Y-99392855D01*
X99516032Y-99392135D01*
X99507276Y-99390154D01*
X99454018Y-99393458D01*
X99446216Y-99393700D01*
X99430174Y-99393700D01*
X99425743Y-99394335D01*
X99425738Y-99394335D01*
X99421713Y-99394912D01*
X99419943Y-99395165D01*
X99409886Y-99396196D01*
X99387424Y-99397589D01*
X99372000Y-99398546D01*
X99371998Y-99398546D01*
X99363041Y-99399102D01*
X99354601Y-99402149D01*
X99351311Y-99402830D01*
X99335462Y-99406782D01*
X99332232Y-99407727D01*
X99323348Y-99408999D01*
X99286932Y-99425556D01*
X99280622Y-99428425D01*
X99271260Y-99432236D01*
X99235558Y-99445125D01*
X99235557Y-99445126D01*
X99227116Y-99448173D01*
X99219867Y-99453469D01*
X99216886Y-99455054D01*
X99202808Y-99463280D01*
X99199969Y-99465096D01*
X99191795Y-99468812D01*
X99168348Y-99489016D01*
X99156248Y-99499442D01*
X99148330Y-99505730D01*
X99137456Y-99513673D01*
X99126594Y-99524535D01*
X99119748Y-99530893D01*
X99082318Y-99563144D01*
X99077434Y-99570679D01*
X99071701Y-99577251D01*
X99062474Y-99588655D01*
X96899006Y-101752123D01*
X96889566Y-101759665D01*
X96889889Y-101760045D01*
X96883054Y-101765862D01*
X96875461Y-101770653D01*
X96869519Y-101777381D01*
X96840129Y-101810659D01*
X96834783Y-101816346D01*
X96823449Y-101827680D01*
X96820764Y-101831263D01*
X96820762Y-101831265D01*
X96817247Y-101835955D01*
X96810862Y-101843798D01*
X96800416Y-101855626D01*
X96787468Y-101870287D01*
X96779799Y-101878970D01*
X96775986Y-101887092D01*
X96774146Y-101889893D01*
X96765737Y-101903888D01*
X96764115Y-101906851D01*
X96758730Y-101914036D01*
X96755577Y-101922446D01*
X96755576Y-101922448D01*
X96742254Y-101957982D01*
X96738330Y-101967295D01*
X96718383Y-102009782D01*
X96717001Y-102018656D01*
X96716015Y-102021883D01*
X96711875Y-102037666D01*
X96711154Y-102040944D01*
X96708002Y-102049352D01*
X96707337Y-102058302D01*
X96704525Y-102096149D01*
X96703371Y-102106199D01*
X96697790Y-102142042D01*
X96696150Y-102152573D01*
X94011852Y-102152573D01*
X96625304Y-99539121D01*
X96639706Y-99526743D01*
X96657071Y-99513963D01*
X96691089Y-99473921D01*
X96698019Y-99466405D01*
X96703662Y-99460762D01*
X96721194Y-99438602D01*
X96723970Y-99435216D01*
X96727961Y-99430519D01*
X96770982Y-99379880D01*
X96774311Y-99373360D01*
X96777631Y-99368382D01*
X96780764Y-99363309D01*
X96785307Y-99357567D01*
X96816053Y-99291783D01*
X96817984Y-99287833D01*
X96847664Y-99229707D01*
X96850993Y-99223188D01*
X96852733Y-99216078D01*
X96854823Y-99210458D01*
X96856703Y-99204807D01*
X96859801Y-99198178D01*
X96874587Y-99127086D01*
X96875556Y-99122805D01*
X96891477Y-99057743D01*
X96892811Y-99052292D01*
X96893500Y-99041186D01*
X96893534Y-99041188D01*
X96893777Y-99037130D01*
X96894137Y-99033094D01*
X96895628Y-99025927D01*
X96893546Y-98948968D01*
X96893500Y-98945561D01*
X96893500Y-97347599D01*
X101018600Y-97347599D01*
X101035118Y-97516062D01*
X101088548Y-97676679D01*
X101176235Y-97821467D01*
X101181126Y-97826532D01*
X101181127Y-97826533D01*
X101204862Y-97851111D01*
X101293821Y-97943231D01*
X101435460Y-98035917D01*
X101594115Y-98094920D01*
X101601096Y-98095851D01*
X101601098Y-98095852D01*
X101754918Y-98116376D01*
X101754922Y-98116376D01*
X101761899Y-98117307D01*
X101768910Y-98116669D01*
X101768914Y-98116669D01*
X101923452Y-98102605D01*
X101930473Y-98101966D01*
X102091459Y-98049658D01*
X102236856Y-97962984D01*
X102359438Y-97846252D01*
X102363339Y-97840381D01*
X102449210Y-97711135D01*
X102449211Y-97711133D01*
X102453111Y-97705263D01*
X102513220Y-97547024D01*
X102536778Y-97379400D01*
X102537074Y-97358200D01*
X102518206Y-97189984D01*
X102462538Y-97030129D01*
X102372838Y-96886579D01*
X102298601Y-96811821D01*
X102264794Y-96749391D01*
X102270106Y-96678594D01*
X102301115Y-96631792D01*
X102354335Y-96581111D01*
X102359438Y-96576252D01*
X102363339Y-96570381D01*
X102449210Y-96441135D01*
X102449211Y-96441133D01*
X102453111Y-96435263D01*
X102513220Y-96277024D01*
X102528381Y-96169147D01*
X102536227Y-96113323D01*
X102536227Y-96113318D01*
X102536778Y-96109400D01*
X102537074Y-96088200D01*
X102518206Y-95919984D01*
X102462538Y-95760129D01*
X102372838Y-95616579D01*
X102253564Y-95496469D01*
X102231249Y-95482307D01*
X102188848Y-95455399D01*
X102110644Y-95405769D01*
X102083242Y-95396012D01*
X101957816Y-95351349D01*
X101957811Y-95351348D01*
X101951181Y-95348987D01*
X101944195Y-95348154D01*
X101944191Y-95348153D01*
X101825087Y-95333951D01*
X101783101Y-95328945D01*
X101776098Y-95329681D01*
X101776097Y-95329681D01*
X101621765Y-95345901D01*
X101621761Y-95345902D01*
X101614757Y-95346638D01*
X101608086Y-95348909D01*
X101461187Y-95398917D01*
X101461184Y-95398918D01*
X101454517Y-95401188D01*
X101448519Y-95404878D01*
X101448517Y-95404879D01*
X101316343Y-95486193D01*
X101316341Y-95486195D01*
X101310344Y-95489884D01*
X101189405Y-95608317D01*
X101185594Y-95614231D01*
X101185592Y-95614233D01*
X101137657Y-95688613D01*
X101097709Y-95750600D01*
X101095298Y-95757225D01*
X101042225Y-95903040D01*
X101042224Y-95903045D01*
X101039815Y-95909663D01*
X101018600Y-96077599D01*
X101035118Y-96246062D01*
X101088548Y-96406679D01*
X101092197Y-96412704D01*
X101153106Y-96513276D01*
X101176235Y-96551467D01*
X101181126Y-96556532D01*
X101181127Y-96556533D01*
X101257942Y-96636077D01*
X101290874Y-96698974D01*
X101284574Y-96769690D01*
X101255463Y-96813627D01*
X101224407Y-96844041D01*
X101189405Y-96878317D01*
X101185594Y-96884231D01*
X101185592Y-96884233D01*
X101151159Y-96937662D01*
X101097709Y-97020600D01*
X101095298Y-97027225D01*
X101042225Y-97173040D01*
X101042224Y-97173045D01*
X101039815Y-97179663D01*
X101018600Y-97347599D01*
X96893500Y-97347599D01*
X96893500Y-93023133D01*
X101023300Y-93023133D01*
X101023301Y-94073266D01*
X101038066Y-94147501D01*
X101094316Y-94231684D01*
X101178499Y-94287934D01*
X101252733Y-94302700D01*
X101777715Y-94302700D01*
X102302866Y-94302699D01*
X102338618Y-94295588D01*
X102364926Y-94290356D01*
X102364928Y-94290355D01*
X102377101Y-94287934D01*
X102387421Y-94281039D01*
X102387422Y-94281038D01*
X102450968Y-94238577D01*
X102461284Y-94231684D01*
X102517534Y-94147501D01*
X102532300Y-94073267D01*
X102532299Y-93023134D01*
X102517534Y-92948899D01*
X102488116Y-92904872D01*
X102466901Y-92837119D01*
X102485684Y-92768652D01*
X102536724Y-92722805D01*
X102536685Y-92722733D01*
X102536991Y-92722566D01*
X102538501Y-92721209D01*
X102542852Y-92719357D01*
X102544562Y-92718421D01*
X102552964Y-92715271D01*
X102560143Y-92709891D01*
X102560146Y-92709889D01*
X102661424Y-92633985D01*
X102668604Y-92628604D01*
X102683913Y-92608177D01*
X102749889Y-92520146D01*
X102749891Y-92520143D01*
X102755271Y-92512964D01*
X102805998Y-92377648D01*
X102812700Y-92315956D01*
X102812700Y-90970444D01*
X102805998Y-90908752D01*
X102755271Y-90773436D01*
X102749891Y-90766257D01*
X102749889Y-90766254D01*
X102673985Y-90664976D01*
X102668604Y-90657796D01*
X102642492Y-90638226D01*
X102560146Y-90576511D01*
X102560143Y-90576509D01*
X102552964Y-90571129D01*
X102437647Y-90527899D01*
X102425043Y-90523174D01*
X102425041Y-90523174D01*
X102417648Y-90520402D01*
X102409798Y-90519549D01*
X102409797Y-90519549D01*
X102359353Y-90514069D01*
X102359352Y-90514069D01*
X102355956Y-90513700D01*
X101510444Y-90513700D01*
X101507048Y-90514069D01*
X101507047Y-90514069D01*
X101456603Y-90519549D01*
X101456602Y-90519549D01*
X101448752Y-90520402D01*
X101441359Y-90523174D01*
X101441357Y-90523174D01*
X101428753Y-90527899D01*
X101313436Y-90571129D01*
X101306257Y-90576509D01*
X101306254Y-90576511D01*
X101223908Y-90638226D01*
X101197796Y-90657796D01*
X101192415Y-90664976D01*
X101116511Y-90766254D01*
X101116509Y-90766257D01*
X101111129Y-90773436D01*
X101060402Y-90908752D01*
X101053700Y-90970444D01*
X101053700Y-92315956D01*
X101060402Y-92377648D01*
X101063174Y-92385041D01*
X101063174Y-92385043D01*
X101095282Y-92470692D01*
X101103300Y-92514921D01*
X101103300Y-92813049D01*
X101082066Y-92883050D01*
X101038066Y-92948899D01*
X101023300Y-93023133D01*
X96893500Y-93023133D01*
X96893500Y-92769916D01*
X96913502Y-92701795D01*
X96930404Y-92680821D01*
X97430619Y-92180605D01*
X97492932Y-92146580D01*
X97519715Y-92143700D01*
X98127700Y-92143700D01*
X98195821Y-92163702D01*
X98242314Y-92217358D01*
X98253700Y-92269700D01*
X98253700Y-92315956D01*
X98260402Y-92377648D01*
X98311129Y-92512964D01*
X98316509Y-92520143D01*
X98316511Y-92520146D01*
X98382487Y-92608177D01*
X98397796Y-92628604D01*
X98404976Y-92633985D01*
X98506254Y-92709889D01*
X98506257Y-92709891D01*
X98513436Y-92715271D01*
X98603154Y-92748904D01*
X98641357Y-92763226D01*
X98641359Y-92763226D01*
X98648752Y-92765998D01*
X98656602Y-92766851D01*
X98656603Y-92766851D01*
X98684817Y-92769916D01*
X98710444Y-92772700D01*
X99555956Y-92772700D01*
X99581583Y-92769916D01*
X99609797Y-92766851D01*
X99609798Y-92766851D01*
X99617648Y-92765998D01*
X99625041Y-92763226D01*
X99625043Y-92763226D01*
X99663246Y-92748904D01*
X99752964Y-92715271D01*
X99760143Y-92709891D01*
X99760146Y-92709889D01*
X99861424Y-92633985D01*
X99868604Y-92628604D01*
X99883913Y-92608177D01*
X99949889Y-92520146D01*
X99949891Y-92520143D01*
X99955271Y-92512964D01*
X100005998Y-92377648D01*
X100012700Y-92315956D01*
X100012700Y-90970444D01*
X100005998Y-90908752D01*
X99955271Y-90773436D01*
X99949891Y-90766257D01*
X99949889Y-90766254D01*
X99873985Y-90664976D01*
X99868604Y-90657796D01*
X99842492Y-90638226D01*
X99760146Y-90576511D01*
X99760143Y-90576509D01*
X99752964Y-90571129D01*
X99637647Y-90527899D01*
X99625043Y-90523174D01*
X99625041Y-90523174D01*
X99617648Y-90520402D01*
X99609798Y-90519549D01*
X99609797Y-90519549D01*
X99559353Y-90514069D01*
X99559352Y-90514069D01*
X99555956Y-90513700D01*
X98710444Y-90513700D01*
X98707048Y-90514069D01*
X98707047Y-90514069D01*
X98656603Y-90519549D01*
X98656602Y-90519549D01*
X98648752Y-90520402D01*
X98641359Y-90523174D01*
X98641357Y-90523174D01*
X98628753Y-90527899D01*
X98513436Y-90571129D01*
X98506257Y-90576509D01*
X98506254Y-90576511D01*
X98462203Y-90609526D01*
X98395697Y-90634374D01*
X98386638Y-90634700D01*
X97221765Y-90634700D01*
X97202815Y-90633267D01*
X97188745Y-90631126D01*
X97188741Y-90631126D01*
X97181511Y-90630026D01*
X97174220Y-90630619D01*
X97174217Y-90630619D01*
X97129152Y-90634285D01*
X97118937Y-90634700D01*
X97110947Y-90634700D01*
X97103698Y-90635545D01*
X97082887Y-90637971D01*
X97078513Y-90638404D01*
X97013451Y-90643696D01*
X97013448Y-90643697D01*
X97006153Y-90644290D01*
X96999191Y-90646545D01*
X96993323Y-90647718D01*
X96987516Y-90649090D01*
X96980246Y-90649938D01*
X96911940Y-90674732D01*
X96907837Y-90676140D01*
X96838778Y-90698512D01*
X96832521Y-90702309D01*
X96827074Y-90704802D01*
X96821746Y-90707470D01*
X96814866Y-90709968D01*
X96808744Y-90713982D01*
X96754161Y-90749768D01*
X96750441Y-90752115D01*
X96693162Y-90786873D01*
X96693160Y-90786875D01*
X96688367Y-90789783D01*
X96680026Y-90797149D01*
X96680004Y-90797124D01*
X96676959Y-90799824D01*
X96673854Y-90802420D01*
X96667732Y-90806434D01*
X96662699Y-90811747D01*
X96614802Y-90862308D01*
X96612425Y-90864750D01*
X95652697Y-91824479D01*
X95638283Y-91836866D01*
X95620929Y-91849637D01*
X95616186Y-91855220D01*
X95586911Y-91889679D01*
X95579981Y-91897195D01*
X95574338Y-91902838D01*
X95556806Y-91924998D01*
X95554039Y-91928373D01*
X95507018Y-91983720D01*
X95503689Y-91990240D01*
X95500369Y-91995218D01*
X95497236Y-92000291D01*
X95492693Y-92006033D01*
X95489593Y-92012666D01*
X95461947Y-92071817D01*
X95460016Y-92075767D01*
X95427007Y-92140412D01*
X95425267Y-92147522D01*
X95423177Y-92153142D01*
X95421297Y-92158793D01*
X95418199Y-92165422D01*
X95416709Y-92172586D01*
X95416708Y-92172589D01*
X95403415Y-92236503D01*
X95402449Y-92240773D01*
X95385189Y-92311308D01*
X95384842Y-92316905D01*
X95384841Y-92316910D01*
X95384690Y-92319353D01*
X95384500Y-92322414D01*
X95384466Y-92322412D01*
X95384223Y-92326471D01*
X95383863Y-92330505D01*
X95382372Y-92337673D01*
X95382570Y-92344990D01*
X95384454Y-92414615D01*
X95384500Y-92418023D01*
X95384500Y-98593686D01*
X95364498Y-98661807D01*
X95347595Y-98682781D01*
X92967781Y-101062595D01*
X92905469Y-101096621D01*
X92878686Y-101099500D01*
X89119165Y-101099500D01*
X89100215Y-101098067D01*
X89086145Y-101095926D01*
X89086141Y-101095926D01*
X89078911Y-101094826D01*
X89071620Y-101095419D01*
X89071617Y-101095419D01*
X89026552Y-101099085D01*
X89016337Y-101099500D01*
X89008347Y-101099500D01*
X89001098Y-101100345D01*
X88980287Y-101102771D01*
X88975913Y-101103204D01*
X88910851Y-101108496D01*
X88910848Y-101108497D01*
X88903553Y-101109090D01*
X88896591Y-101111345D01*
X88890723Y-101112518D01*
X88884916Y-101113890D01*
X88877646Y-101114738D01*
X88809340Y-101139532D01*
X88805237Y-101140940D01*
X88736178Y-101163312D01*
X88729921Y-101167109D01*
X88724474Y-101169602D01*
X88719146Y-101172270D01*
X88712266Y-101174768D01*
X88706144Y-101178782D01*
X88651561Y-101214568D01*
X88647841Y-101216915D01*
X88590562Y-101251673D01*
X88590560Y-101251675D01*
X88585767Y-101254583D01*
X88577426Y-101261949D01*
X88577404Y-101261924D01*
X88574359Y-101264624D01*
X88571254Y-101267220D01*
X88565132Y-101271234D01*
X88560099Y-101276547D01*
X88512185Y-101327126D01*
X88509807Y-101329568D01*
X84400500Y-105438876D01*
X84386087Y-105451263D01*
X84368729Y-105464037D01*
X84363986Y-105469620D01*
X84334711Y-105504079D01*
X84327781Y-105511595D01*
X84322138Y-105517238D01*
X84304606Y-105539398D01*
X84301839Y-105542773D01*
X84254818Y-105598120D01*
X84251489Y-105604640D01*
X84248169Y-105609618D01*
X84245036Y-105614691D01*
X84240493Y-105620433D01*
X84237393Y-105627066D01*
X84209747Y-105686217D01*
X84207816Y-105690167D01*
X84174807Y-105754812D01*
X84173067Y-105761922D01*
X84170977Y-105767542D01*
X84169097Y-105773193D01*
X84165999Y-105779822D01*
X84164509Y-105786986D01*
X84164508Y-105786989D01*
X84151215Y-105850903D01*
X84150249Y-105855173D01*
X84132989Y-105925708D01*
X84132300Y-105936814D01*
X84132266Y-105936812D01*
X84132023Y-105940871D01*
X84131663Y-105944905D01*
X84130172Y-105952073D01*
X84130370Y-105959390D01*
X84132254Y-106029015D01*
X84132300Y-106032423D01*
X84132300Y-115764085D01*
X84112298Y-115832206D01*
X84095395Y-115853180D01*
X82624981Y-117323595D01*
X82562669Y-117357620D01*
X82535886Y-117360500D01*
X82135353Y-117360500D01*
X82067232Y-117340498D01*
X82049824Y-117327025D01*
X81954498Y-117238906D01*
X81954495Y-117238904D01*
X81950258Y-117234987D01*
X81778581Y-117126667D01*
X81590039Y-117051446D01*
X81584379Y-117050320D01*
X81584375Y-117050319D01*
X81396613Y-117012971D01*
X81396610Y-117012971D01*
X81390946Y-117011844D01*
X81385171Y-117011768D01*
X81385167Y-117011768D01*
X81283793Y-117010441D01*
X81187971Y-117009187D01*
X81182274Y-117010166D01*
X81182273Y-117010166D01*
X80993607Y-117042585D01*
X80987910Y-117043564D01*
X80797463Y-117113824D01*
X80623010Y-117217612D01*
X80618670Y-117221418D01*
X80618666Y-117221421D01*
X80598723Y-117238911D01*
X80470392Y-117351455D01*
X80344720Y-117510869D01*
X80342031Y-117515980D01*
X80342029Y-117515983D01*
X80329073Y-117540609D01*
X80250203Y-117690515D01*
X80190007Y-117884378D01*
X80166148Y-118085964D01*
X79841564Y-118085964D01*
X79825658Y-117912859D01*
X79824090Y-117907299D01*
X79772125Y-117723046D01*
X79772124Y-117723044D01*
X79770557Y-117717487D01*
X79759978Y-117696033D01*
X79683331Y-117540609D01*
X79680776Y-117535428D01*
X79559320Y-117372779D01*
X79410258Y-117234987D01*
X79405375Y-117231906D01*
X79405371Y-117231903D01*
X79243464Y-117129748D01*
X79238581Y-117126667D01*
X79050039Y-117051446D01*
X79044379Y-117050320D01*
X79044375Y-117050319D01*
X78856613Y-117012971D01*
X78856610Y-117012971D01*
X78850946Y-117011844D01*
X78845171Y-117011768D01*
X78845167Y-117011768D01*
X78743793Y-117010441D01*
X78647971Y-117009187D01*
X78642274Y-117010166D01*
X78642273Y-117010166D01*
X78453607Y-117042585D01*
X78447910Y-117043564D01*
X78257463Y-117113824D01*
X78083010Y-117217612D01*
X78078670Y-117221418D01*
X78078666Y-117221421D01*
X78058723Y-117238911D01*
X77930392Y-117351455D01*
X77804720Y-117510869D01*
X77802031Y-117515980D01*
X77802029Y-117515983D01*
X77789073Y-117540609D01*
X77710203Y-117690515D01*
X77650007Y-117884378D01*
X77626148Y-118085964D01*
X76962500Y-118085964D01*
X76962500Y-114830891D01*
X76982502Y-114762770D01*
X77036158Y-114716277D01*
X77088000Y-114704892D01*
X79175891Y-114696607D01*
X83090686Y-114681072D01*
X83108800Y-114681000D01*
X83108800Y-98743733D01*
X90640300Y-98743733D01*
X90640301Y-100493866D01*
X90655066Y-100568101D01*
X90661961Y-100578420D01*
X90661962Y-100578422D01*
X90702316Y-100638815D01*
X90711316Y-100652284D01*
X90795499Y-100708534D01*
X90869733Y-100723300D01*
X91744658Y-100723300D01*
X92619866Y-100723299D01*
X92655618Y-100716188D01*
X92681926Y-100710956D01*
X92681928Y-100710955D01*
X92694101Y-100708534D01*
X92704421Y-100701639D01*
X92704422Y-100701638D01*
X92767968Y-100659177D01*
X92778284Y-100652284D01*
X92834534Y-100568101D01*
X92849300Y-100493867D01*
X92849299Y-98743734D01*
X92834534Y-98669499D01*
X92818750Y-98645876D01*
X92785177Y-98595632D01*
X92778284Y-98585316D01*
X92694101Y-98529066D01*
X92619867Y-98514300D01*
X91744942Y-98514300D01*
X90869734Y-98514301D01*
X90833982Y-98521412D01*
X90807674Y-98526644D01*
X90807672Y-98526645D01*
X90795499Y-98529066D01*
X90785179Y-98535961D01*
X90785178Y-98535962D01*
X90724785Y-98576316D01*
X90711316Y-98585316D01*
X90655066Y-98669499D01*
X90640300Y-98743733D01*
X83108800Y-98743733D01*
X83108800Y-95855964D01*
X88090948Y-95855964D01*
X88104224Y-96058522D01*
X88105645Y-96064118D01*
X88105646Y-96064123D01*
X88147727Y-96229812D01*
X88154192Y-96255269D01*
X88156609Y-96260512D01*
X88193810Y-96341208D01*
X88239177Y-96439616D01*
X88356333Y-96605389D01*
X88501738Y-96747035D01*
X88670520Y-96859812D01*
X88675823Y-96862090D01*
X88675826Y-96862092D01*
X88851721Y-96937662D01*
X88857028Y-96939942D01*
X88930044Y-96956464D01*
X89049379Y-96983467D01*
X89049384Y-96983468D01*
X89055016Y-96984742D01*
X89060787Y-96984969D01*
X89060789Y-96984969D01*
X89120556Y-96987317D01*
X89257853Y-96992712D01*
X89358299Y-96978148D01*
X89453031Y-96964413D01*
X89453036Y-96964412D01*
X89458745Y-96963584D01*
X89464209Y-96961729D01*
X89464214Y-96961728D01*
X89645493Y-96900192D01*
X89645498Y-96900190D01*
X89650965Y-96898334D01*
X89680882Y-96881580D01*
X89814648Y-96806667D01*
X89828076Y-96799147D01*
X89834477Y-96793824D01*
X89979713Y-96673031D01*
X89984145Y-96669345D01*
X90066453Y-96570381D01*
X90110253Y-96517718D01*
X90110255Y-96517715D01*
X90113947Y-96513276D01*
X90198267Y-96362712D01*
X90210310Y-96341208D01*
X90210311Y-96341206D01*
X90213134Y-96336165D01*
X90214990Y-96330698D01*
X90214992Y-96330693D01*
X90276528Y-96149414D01*
X90276529Y-96149409D01*
X90278384Y-96143945D01*
X90279212Y-96138236D01*
X90279213Y-96138231D01*
X90306979Y-95946727D01*
X90307512Y-95943053D01*
X90309032Y-95885000D01*
X90306364Y-95855964D01*
X90630948Y-95855964D01*
X90644224Y-96058522D01*
X90645645Y-96064118D01*
X90645646Y-96064123D01*
X90687727Y-96229812D01*
X90694192Y-96255269D01*
X90696609Y-96260512D01*
X90733810Y-96341208D01*
X90779177Y-96439616D01*
X90896333Y-96605389D01*
X91041738Y-96747035D01*
X91210520Y-96859812D01*
X91215823Y-96862090D01*
X91215826Y-96862092D01*
X91391721Y-96937662D01*
X91397028Y-96939942D01*
X91470044Y-96956464D01*
X91589379Y-96983467D01*
X91589384Y-96983468D01*
X91595016Y-96984742D01*
X91600787Y-96984969D01*
X91600789Y-96984969D01*
X91660556Y-96987317D01*
X91797853Y-96992712D01*
X91898299Y-96978148D01*
X91993031Y-96964413D01*
X91993036Y-96964412D01*
X91998745Y-96963584D01*
X92004209Y-96961729D01*
X92004214Y-96961728D01*
X92185493Y-96900192D01*
X92185498Y-96900190D01*
X92190965Y-96898334D01*
X92220882Y-96881580D01*
X92354648Y-96806667D01*
X92368076Y-96799147D01*
X92374477Y-96793824D01*
X92519713Y-96673031D01*
X92524145Y-96669345D01*
X92606453Y-96570381D01*
X92650253Y-96517718D01*
X92650255Y-96517715D01*
X92653947Y-96513276D01*
X92738267Y-96362712D01*
X92750310Y-96341208D01*
X92750311Y-96341206D01*
X92753134Y-96336165D01*
X92754990Y-96330698D01*
X92754992Y-96330693D01*
X92816528Y-96149414D01*
X92816529Y-96149409D01*
X92818384Y-96143945D01*
X92819212Y-96138236D01*
X92819213Y-96138231D01*
X92846979Y-95946727D01*
X92847512Y-95943053D01*
X92849032Y-95885000D01*
X92837009Y-95754154D01*
X92830987Y-95688613D01*
X92830986Y-95688610D01*
X92830458Y-95682859D01*
X92828890Y-95677299D01*
X92776925Y-95493046D01*
X92776924Y-95493044D01*
X92775357Y-95487487D01*
X92764778Y-95466033D01*
X92688131Y-95310609D01*
X92685576Y-95305428D01*
X92564120Y-95142779D01*
X92415058Y-95004987D01*
X92410175Y-95001906D01*
X92410171Y-95001903D01*
X92248264Y-94899748D01*
X92243381Y-94896667D01*
X92054839Y-94821446D01*
X92049179Y-94820320D01*
X92049175Y-94820319D01*
X91861413Y-94782971D01*
X91861410Y-94782971D01*
X91855746Y-94781844D01*
X91849971Y-94781768D01*
X91849967Y-94781768D01*
X91748593Y-94780441D01*
X91652771Y-94779187D01*
X91647074Y-94780166D01*
X91647073Y-94780166D01*
X91458407Y-94812585D01*
X91452710Y-94813564D01*
X91262263Y-94883824D01*
X91087810Y-94987612D01*
X91083470Y-94991418D01*
X91083466Y-94991421D01*
X91013410Y-95052859D01*
X90935192Y-95121455D01*
X90809520Y-95280869D01*
X90806831Y-95285980D01*
X90806829Y-95285983D01*
X90783787Y-95329779D01*
X90715003Y-95460515D01*
X90654807Y-95654378D01*
X90630948Y-95855964D01*
X90306364Y-95855964D01*
X90297009Y-95754154D01*
X90290987Y-95688613D01*
X90290986Y-95688610D01*
X90290458Y-95682859D01*
X90288890Y-95677299D01*
X90236925Y-95493046D01*
X90236924Y-95493044D01*
X90235357Y-95487487D01*
X90224778Y-95466033D01*
X90148131Y-95310609D01*
X90145576Y-95305428D01*
X90024120Y-95142779D01*
X89875058Y-95004987D01*
X89870175Y-95001906D01*
X89870171Y-95001903D01*
X89708264Y-94899748D01*
X89703381Y-94896667D01*
X89514839Y-94821446D01*
X89509179Y-94820320D01*
X89509175Y-94820319D01*
X89321413Y-94782971D01*
X89321410Y-94782971D01*
X89315746Y-94781844D01*
X89309971Y-94781768D01*
X89309967Y-94781768D01*
X89208593Y-94780441D01*
X89112771Y-94779187D01*
X89107074Y-94780166D01*
X89107073Y-94780166D01*
X88918407Y-94812585D01*
X88912710Y-94813564D01*
X88722263Y-94883824D01*
X88547810Y-94987612D01*
X88543470Y-94991418D01*
X88543466Y-94991421D01*
X88473410Y-95052859D01*
X88395192Y-95121455D01*
X88269520Y-95280869D01*
X88266831Y-95285980D01*
X88266829Y-95285983D01*
X88243787Y-95329779D01*
X88175003Y-95460515D01*
X88114807Y-95654378D01*
X88090948Y-95855964D01*
X83108800Y-95855964D01*
X83108800Y-92481400D01*
X87376000Y-92481400D01*
X93014800Y-92481400D01*
X93573600Y-91922600D01*
X93573600Y-81356200D01*
X87376000Y-81356200D01*
X87376000Y-92481400D01*
X83108800Y-92481400D01*
X83108800Y-81353700D01*
X83128802Y-81285579D01*
X83182458Y-81239086D01*
X83234800Y-81227700D01*
X84705880Y-81227700D01*
X84729828Y-81230249D01*
X84731493Y-81230328D01*
X84741676Y-81232520D01*
X84752017Y-81231296D01*
X84775023Y-81228573D01*
X84780954Y-81228223D01*
X84780946Y-81228128D01*
X84786124Y-81227700D01*
X84791324Y-81227700D01*
X84796453Y-81226846D01*
X84796456Y-81226846D01*
X84810365Y-81224531D01*
X84816243Y-81223694D01*
X84856801Y-81218894D01*
X84856802Y-81218894D01*
X84867141Y-81217670D01*
X84875393Y-81213707D01*
X84884426Y-81212204D01*
X84893595Y-81207257D01*
X84893597Y-81207256D01*
X84929532Y-81187866D01*
X84934825Y-81185169D01*
X84973882Y-81166415D01*
X84973886Y-81166412D01*
X84981032Y-81162981D01*
X84985308Y-81159386D01*
X84987231Y-81157463D01*
X84989163Y-81155691D01*
X84989242Y-81155648D01*
X84989355Y-81155772D01*
X84989895Y-81155296D01*
X84995614Y-81152210D01*
X85032217Y-81112613D01*
X85035646Y-81109048D01*
X87754222Y-78390472D01*
X87816055Y-78356708D01*
X87819998Y-78356780D01*
X87889710Y-78337774D01*
X87950763Y-78321130D01*
X87950765Y-78321129D01*
X87959422Y-78318769D01*
X88082572Y-78243154D01*
X88179551Y-78136014D01*
X88242560Y-78005962D01*
X88266536Y-77863453D01*
X88266688Y-77851000D01*
X88246201Y-77707948D01*
X88186388Y-77576395D01*
X88180530Y-77569596D01*
X88180527Y-77569592D01*
X88097916Y-77473718D01*
X88097913Y-77473716D01*
X88092056Y-77466918D01*
X87970790Y-77388317D01*
X87953921Y-77383272D01*
X87840938Y-77349482D01*
X87840936Y-77349482D01*
X87832337Y-77346910D01*
X87823363Y-77346855D01*
X87823361Y-77346855D01*
X87760082Y-77346469D01*
X87687827Y-77346028D01*
X87679196Y-77348495D01*
X87679194Y-77348495D01*
X87557509Y-77383272D01*
X87557505Y-77383274D01*
X87548879Y-77385739D01*
X87426661Y-77462853D01*
X87330999Y-77571170D01*
X87269583Y-77701982D01*
X87264606Y-77733945D01*
X87257515Y-77779487D01*
X87227270Y-77843719D01*
X87222110Y-77849196D01*
X84639511Y-80431795D01*
X84577199Y-80465821D01*
X84550416Y-80468700D01*
X83234800Y-80468700D01*
X83166679Y-80448698D01*
X83120186Y-80395042D01*
X83108800Y-80342700D01*
X83108800Y-60553600D01*
X82266265Y-60553600D01*
X82198144Y-60533598D01*
X82151651Y-60479942D01*
X82141547Y-60409668D01*
X82169391Y-60347031D01*
X82185449Y-60327724D01*
X82185456Y-60327714D01*
X82189147Y-60323276D01*
X82288334Y-60146165D01*
X82290190Y-60140698D01*
X82290192Y-60140693D01*
X82351728Y-59959414D01*
X82351729Y-59959409D01*
X82353584Y-59953945D01*
X82354412Y-59948236D01*
X82354413Y-59948231D01*
X82382179Y-59756727D01*
X82382712Y-59753053D01*
X82384232Y-59695000D01*
X82365658Y-59492859D01*
X82364090Y-59487299D01*
X82312125Y-59303046D01*
X82312124Y-59303044D01*
X82310557Y-59297487D01*
X82299978Y-59276033D01*
X82223331Y-59120609D01*
X82220776Y-59115428D01*
X82099320Y-58952779D01*
X81950258Y-58814987D01*
X81945375Y-58811906D01*
X81945371Y-58811903D01*
X81783464Y-58709748D01*
X81778581Y-58706667D01*
X81590039Y-58631446D01*
X81584379Y-58630320D01*
X81584375Y-58630319D01*
X81396613Y-58592971D01*
X81396610Y-58592971D01*
X81390946Y-58591844D01*
X81385171Y-58591768D01*
X81385167Y-58591768D01*
X81283793Y-58590441D01*
X81187971Y-58589187D01*
X81182274Y-58590166D01*
X81182273Y-58590166D01*
X80993607Y-58622585D01*
X80987910Y-58623564D01*
X80797463Y-58693824D01*
X80623010Y-58797612D01*
X80618670Y-58801418D01*
X80618666Y-58801421D01*
X80598723Y-58818911D01*
X80470392Y-58931455D01*
X80344720Y-59090869D01*
X80342031Y-59095980D01*
X80342029Y-59095983D01*
X80329073Y-59120609D01*
X80250203Y-59270515D01*
X80190007Y-59464378D01*
X80166148Y-59665964D01*
X80179424Y-59868522D01*
X80180845Y-59874118D01*
X80180846Y-59874123D01*
X80201119Y-59953945D01*
X80229392Y-60065269D01*
X80231809Y-60070512D01*
X80269010Y-60151208D01*
X80314377Y-60249616D01*
X80366435Y-60323276D01*
X80388770Y-60354880D01*
X80411751Y-60422054D01*
X80394767Y-60490989D01*
X80343209Y-60539799D01*
X80285873Y-60553600D01*
X79726265Y-60553600D01*
X79658144Y-60533598D01*
X79611651Y-60479942D01*
X79601547Y-60409668D01*
X79629391Y-60347031D01*
X79645449Y-60327724D01*
X79645456Y-60327714D01*
X79649147Y-60323276D01*
X79748334Y-60146165D01*
X79750190Y-60140698D01*
X79750192Y-60140693D01*
X79811728Y-59959414D01*
X79811729Y-59959409D01*
X79813584Y-59953945D01*
X79814412Y-59948236D01*
X79814413Y-59948231D01*
X79842179Y-59756727D01*
X79842712Y-59753053D01*
X79844232Y-59695000D01*
X79825658Y-59492859D01*
X79824090Y-59487299D01*
X79772125Y-59303046D01*
X79772124Y-59303044D01*
X79770557Y-59297487D01*
X79759978Y-59276033D01*
X79683331Y-59120609D01*
X79680776Y-59115428D01*
X79559320Y-58952779D01*
X79410258Y-58814987D01*
X79405375Y-58811906D01*
X79405371Y-58811903D01*
X79243464Y-58709748D01*
X79238581Y-58706667D01*
X79050039Y-58631446D01*
X79044379Y-58630320D01*
X79044375Y-58630319D01*
X78856613Y-58592971D01*
X78856610Y-58592971D01*
X78850946Y-58591844D01*
X78845171Y-58591768D01*
X78845167Y-58591768D01*
X78743793Y-58590441D01*
X78647971Y-58589187D01*
X78642274Y-58590166D01*
X78642273Y-58590166D01*
X78453607Y-58622585D01*
X78447910Y-58623564D01*
X78257463Y-58693824D01*
X78083010Y-58797612D01*
X78078670Y-58801418D01*
X78078666Y-58801421D01*
X78058723Y-58818911D01*
X77930392Y-58931455D01*
X77804720Y-59090869D01*
X77802031Y-59095980D01*
X77802029Y-59095983D01*
X77789073Y-59120609D01*
X77710203Y-59270515D01*
X77650007Y-59464378D01*
X77626148Y-59665964D01*
X77639424Y-59868522D01*
X77640845Y-59874118D01*
X77640846Y-59874123D01*
X77661119Y-59953945D01*
X77689392Y-60065269D01*
X77691809Y-60070512D01*
X77729010Y-60151208D01*
X77774377Y-60249616D01*
X77826435Y-60323276D01*
X77848770Y-60354880D01*
X77871751Y-60422054D01*
X77854767Y-60490989D01*
X77803209Y-60539799D01*
X77745873Y-60553600D01*
X77088500Y-60553600D01*
X77020379Y-60533598D01*
X76973886Y-60479942D01*
X76962500Y-60427600D01*
X76962500Y-55498500D01*
X76982502Y-55430379D01*
X77036158Y-55383886D01*
X77088500Y-55372500D01*
X93675700Y-55372500D01*
X93743821Y-55392502D01*
G37*
%TD.AperFunction*%
%TD*%
%TA.AperFunction,Conductor*%
%TO.N,GND*%
G36*
X80902239Y-66060002D02*
G01*
X80948732Y-66113658D01*
X80958836Y-66183932D01*
X80929342Y-66248512D01*
X80877729Y-66284212D01*
X80797463Y-66313824D01*
X80623010Y-66417612D01*
X80618670Y-66421418D01*
X80618666Y-66421421D01*
X80598723Y-66438911D01*
X80470392Y-66551455D01*
X80344720Y-66710869D01*
X80342031Y-66715980D01*
X80342029Y-66715983D01*
X80312674Y-66771778D01*
X80250203Y-66890515D01*
X80190007Y-67084378D01*
X80166148Y-67285964D01*
X80179424Y-67488522D01*
X80180845Y-67494118D01*
X80180846Y-67494123D01*
X80201119Y-67573945D01*
X80229392Y-67685269D01*
X80231809Y-67690512D01*
X80269010Y-67771208D01*
X80314377Y-67869616D01*
X80431533Y-68035389D01*
X80576938Y-68177035D01*
X80745720Y-68289812D01*
X80751023Y-68292090D01*
X80751026Y-68292092D01*
X80839707Y-68330192D01*
X80932228Y-68369942D01*
X81005244Y-68386464D01*
X81124579Y-68413467D01*
X81124584Y-68413468D01*
X81130216Y-68414742D01*
X81135987Y-68414969D01*
X81135989Y-68414969D01*
X81195756Y-68417317D01*
X81333053Y-68422712D01*
X81433499Y-68408148D01*
X81528231Y-68394413D01*
X81528236Y-68394412D01*
X81533945Y-68393584D01*
X81539409Y-68391729D01*
X81539414Y-68391728D01*
X81720693Y-68330192D01*
X81720698Y-68330190D01*
X81726165Y-68328334D01*
X81903276Y-68229147D01*
X81915649Y-68218857D01*
X82054913Y-68103031D01*
X82059345Y-68099345D01*
X82189147Y-67943276D01*
X82288334Y-67766165D01*
X82290190Y-67760698D01*
X82290192Y-67760693D01*
X82351728Y-67579414D01*
X82351729Y-67579409D01*
X82353584Y-67573945D01*
X82354412Y-67568236D01*
X82354413Y-67568231D01*
X82382179Y-67376727D01*
X82382712Y-67373053D01*
X82384232Y-67315000D01*
X82365658Y-67112859D01*
X82364090Y-67107299D01*
X82312125Y-66923046D01*
X82312124Y-66923044D01*
X82310557Y-66917487D01*
X82299978Y-66896033D01*
X82223331Y-66740609D01*
X82220776Y-66735428D01*
X82099320Y-66572779D01*
X81950258Y-66434987D01*
X81945375Y-66431906D01*
X81945371Y-66431903D01*
X81783464Y-66329748D01*
X81778581Y-66326667D01*
X81669203Y-66283030D01*
X81613345Y-66239209D01*
X81590045Y-66172145D01*
X81606701Y-66103130D01*
X81658026Y-66054075D01*
X81715895Y-66040000D01*
X83108800Y-66040000D01*
X83108800Y-80468700D01*
X82756320Y-80468700D01*
X82732373Y-80466151D01*
X82730707Y-80466072D01*
X82720524Y-80463880D01*
X82710182Y-80465104D01*
X82710179Y-80465104D01*
X82687187Y-80467826D01*
X82681246Y-80468177D01*
X82681254Y-80468272D01*
X82676074Y-80468700D01*
X82670876Y-80468700D01*
X82665754Y-80469553D01*
X82665749Y-80469553D01*
X82651827Y-80471871D01*
X82645950Y-80472708D01*
X82639449Y-80473477D01*
X82605397Y-80477507D01*
X82605395Y-80477508D01*
X82595059Y-80478731D01*
X82586810Y-80482692D01*
X82577774Y-80484196D01*
X82568605Y-80489143D01*
X82568603Y-80489144D01*
X82532640Y-80508548D01*
X82527356Y-80511241D01*
X82493706Y-80527399D01*
X82423642Y-80538856D01*
X82358504Y-80510614D01*
X82318976Y-80451639D01*
X82317607Y-80380656D01*
X82319845Y-80373335D01*
X82353584Y-80273945D01*
X82354412Y-80268236D01*
X82354413Y-80268231D01*
X82382179Y-80076727D01*
X82382712Y-80073053D01*
X82384232Y-80015000D01*
X82365658Y-79812859D01*
X82364090Y-79807299D01*
X82312125Y-79623046D01*
X82312124Y-79623044D01*
X82310557Y-79617487D01*
X82299978Y-79596033D01*
X82223331Y-79440609D01*
X82220776Y-79435428D01*
X82099320Y-79272779D01*
X81950258Y-79134987D01*
X81945375Y-79131906D01*
X81945371Y-79131903D01*
X81783464Y-79029748D01*
X81778581Y-79026667D01*
X81590039Y-78951446D01*
X81584379Y-78950320D01*
X81584375Y-78950319D01*
X81396613Y-78912971D01*
X81396610Y-78912971D01*
X81390946Y-78911844D01*
X81385171Y-78911768D01*
X81385167Y-78911768D01*
X81283793Y-78910441D01*
X81187971Y-78909187D01*
X81182274Y-78910166D01*
X81182273Y-78910166D01*
X80993607Y-78942585D01*
X80987910Y-78943564D01*
X80797463Y-79013824D01*
X80623010Y-79117612D01*
X80618670Y-79121418D01*
X80618666Y-79121421D01*
X80598723Y-79138911D01*
X80470392Y-79251455D01*
X80344720Y-79410869D01*
X80342031Y-79415980D01*
X80342029Y-79415983D01*
X80329073Y-79440609D01*
X80250203Y-79590515D01*
X80190007Y-79784378D01*
X80166148Y-79985964D01*
X80179424Y-80188522D01*
X80180845Y-80194118D01*
X80180846Y-80194123D01*
X80201119Y-80273945D01*
X80229392Y-80385269D01*
X80231809Y-80390512D01*
X80302655Y-80544190D01*
X80314377Y-80569616D01*
X80366435Y-80643276D01*
X80407781Y-80701780D01*
X80430762Y-80768954D01*
X80413778Y-80837889D01*
X80362220Y-80886699D01*
X80304884Y-80900500D01*
X79703892Y-80900500D01*
X79635771Y-80880498D01*
X79589278Y-80826842D01*
X79579174Y-80756568D01*
X79607018Y-80693930D01*
X79645453Y-80647718D01*
X79645455Y-80647715D01*
X79649147Y-80643276D01*
X79738500Y-80483725D01*
X79745510Y-80471208D01*
X79745511Y-80471206D01*
X79748334Y-80466165D01*
X79750190Y-80460698D01*
X79750192Y-80460693D01*
X79811728Y-80279414D01*
X79811729Y-80279409D01*
X79813584Y-80273945D01*
X79814412Y-80268236D01*
X79814413Y-80268231D01*
X79842179Y-80076727D01*
X79842712Y-80073053D01*
X79844232Y-80015000D01*
X79825658Y-79812859D01*
X79824090Y-79807299D01*
X79772125Y-79623046D01*
X79772124Y-79623044D01*
X79770557Y-79617487D01*
X79759978Y-79596033D01*
X79683331Y-79440609D01*
X79680776Y-79435428D01*
X79559320Y-79272779D01*
X79410258Y-79134987D01*
X79405375Y-79131906D01*
X79405371Y-79131903D01*
X79243464Y-79029748D01*
X79238581Y-79026667D01*
X79050039Y-78951446D01*
X79044379Y-78950320D01*
X79044375Y-78950319D01*
X78856613Y-78912971D01*
X78856610Y-78912971D01*
X78850946Y-78911844D01*
X78845171Y-78911768D01*
X78845167Y-78911768D01*
X78743793Y-78910441D01*
X78647971Y-78909187D01*
X78642274Y-78910166D01*
X78642273Y-78910166D01*
X78453607Y-78942585D01*
X78447910Y-78943564D01*
X78257463Y-79013824D01*
X78083010Y-79117612D01*
X78023435Y-79169858D01*
X77982378Y-79205864D01*
X77917973Y-79235741D01*
X77847641Y-79226055D01*
X77793709Y-79179882D01*
X77773300Y-79111132D01*
X77773300Y-78378857D01*
X77793302Y-78310736D01*
X77846958Y-78264243D01*
X77917232Y-78254139D01*
X77981812Y-78283633D01*
X77987216Y-78288598D01*
X78036938Y-78337035D01*
X78205720Y-78449812D01*
X78211023Y-78452090D01*
X78211026Y-78452092D01*
X78299707Y-78490192D01*
X78392228Y-78529942D01*
X78465244Y-78546464D01*
X78584579Y-78573467D01*
X78584584Y-78573468D01*
X78590216Y-78574742D01*
X78595987Y-78574969D01*
X78595989Y-78574969D01*
X78655756Y-78577317D01*
X78793053Y-78582712D01*
X78893499Y-78568148D01*
X78988231Y-78554413D01*
X78988236Y-78554412D01*
X78993945Y-78553584D01*
X78999409Y-78551729D01*
X78999414Y-78551728D01*
X79180693Y-78490192D01*
X79180698Y-78490190D01*
X79186165Y-78488334D01*
X79363276Y-78389147D01*
X79375649Y-78378857D01*
X79514913Y-78263031D01*
X79519345Y-78259345D01*
X79649147Y-78103276D01*
X79748334Y-77926165D01*
X79750190Y-77920698D01*
X79750192Y-77920693D01*
X79811728Y-77739414D01*
X79811729Y-77739409D01*
X79813584Y-77733945D01*
X79814412Y-77728236D01*
X79814413Y-77728231D01*
X79842179Y-77536727D01*
X79842712Y-77533053D01*
X79844232Y-77475000D01*
X79841564Y-77445964D01*
X80166148Y-77445964D01*
X80179424Y-77648522D01*
X80180845Y-77654118D01*
X80180846Y-77654123D01*
X80201119Y-77733945D01*
X80229392Y-77845269D01*
X80231809Y-77850512D01*
X80269010Y-77931208D01*
X80314377Y-78029616D01*
X80431533Y-78195389D01*
X80576938Y-78337035D01*
X80745720Y-78449812D01*
X80751023Y-78452090D01*
X80751026Y-78452092D01*
X80839707Y-78490192D01*
X80932228Y-78529942D01*
X81005244Y-78546464D01*
X81124579Y-78573467D01*
X81124584Y-78573468D01*
X81130216Y-78574742D01*
X81135987Y-78574969D01*
X81135989Y-78574969D01*
X81195756Y-78577317D01*
X81333053Y-78582712D01*
X81433499Y-78568148D01*
X81528231Y-78554413D01*
X81528236Y-78554412D01*
X81533945Y-78553584D01*
X81539409Y-78551729D01*
X81539414Y-78551728D01*
X81720693Y-78490192D01*
X81720698Y-78490190D01*
X81726165Y-78488334D01*
X81903276Y-78389147D01*
X81915649Y-78378857D01*
X82054913Y-78263031D01*
X82059345Y-78259345D01*
X82189147Y-78103276D01*
X82288334Y-77926165D01*
X82290190Y-77920698D01*
X82290192Y-77920693D01*
X82351728Y-77739414D01*
X82351729Y-77739409D01*
X82353584Y-77733945D01*
X82354412Y-77728236D01*
X82354413Y-77728231D01*
X82382179Y-77536727D01*
X82382712Y-77533053D01*
X82384232Y-77475000D01*
X82365658Y-77272859D01*
X82364090Y-77267299D01*
X82312125Y-77083046D01*
X82312124Y-77083044D01*
X82310557Y-77077487D01*
X82299978Y-77056033D01*
X82223331Y-76900609D01*
X82220776Y-76895428D01*
X82099320Y-76732779D01*
X81950258Y-76594987D01*
X81945375Y-76591906D01*
X81945371Y-76591903D01*
X81783464Y-76489748D01*
X81778581Y-76486667D01*
X81590039Y-76411446D01*
X81584379Y-76410320D01*
X81584375Y-76410319D01*
X81396613Y-76372971D01*
X81396610Y-76372971D01*
X81390946Y-76371844D01*
X81385171Y-76371768D01*
X81385167Y-76371768D01*
X81283793Y-76370441D01*
X81187971Y-76369187D01*
X81182274Y-76370166D01*
X81182273Y-76370166D01*
X80993607Y-76402585D01*
X80987910Y-76403564D01*
X80797463Y-76473824D01*
X80623010Y-76577612D01*
X80618670Y-76581418D01*
X80618666Y-76581421D01*
X80598723Y-76598911D01*
X80470392Y-76711455D01*
X80344720Y-76870869D01*
X80342031Y-76875980D01*
X80342029Y-76875983D01*
X80329073Y-76900609D01*
X80250203Y-77050515D01*
X80190007Y-77244378D01*
X80166148Y-77445964D01*
X79841564Y-77445964D01*
X79825658Y-77272859D01*
X79824090Y-77267299D01*
X79772125Y-77083046D01*
X79772124Y-77083044D01*
X79770557Y-77077487D01*
X79759978Y-77056033D01*
X79683331Y-76900609D01*
X79680776Y-76895428D01*
X79559320Y-76732779D01*
X79410258Y-76594987D01*
X79405375Y-76591906D01*
X79405371Y-76591903D01*
X79243464Y-76489748D01*
X79238581Y-76486667D01*
X79050039Y-76411446D01*
X79044379Y-76410320D01*
X79044375Y-76410319D01*
X78856613Y-76372971D01*
X78856610Y-76372971D01*
X78850946Y-76371844D01*
X78845171Y-76371768D01*
X78845167Y-76371768D01*
X78743793Y-76370441D01*
X78647971Y-76369187D01*
X78642274Y-76370166D01*
X78642273Y-76370166D01*
X78453607Y-76402585D01*
X78447910Y-76403564D01*
X78257463Y-76473824D01*
X78083010Y-76577612D01*
X78023435Y-76629858D01*
X77982378Y-76665864D01*
X77917973Y-76695741D01*
X77847641Y-76686055D01*
X77793709Y-76639882D01*
X77773300Y-76571132D01*
X77773300Y-75838857D01*
X77793302Y-75770736D01*
X77846958Y-75724243D01*
X77917232Y-75714139D01*
X77981812Y-75743633D01*
X77987216Y-75748598D01*
X78036938Y-75797035D01*
X78205720Y-75909812D01*
X78211023Y-75912090D01*
X78211026Y-75912092D01*
X78299707Y-75950192D01*
X78392228Y-75989942D01*
X78465244Y-76006464D01*
X78584579Y-76033467D01*
X78584584Y-76033468D01*
X78590216Y-76034742D01*
X78595987Y-76034969D01*
X78595989Y-76034969D01*
X78655756Y-76037317D01*
X78793053Y-76042712D01*
X78893499Y-76028148D01*
X78988231Y-76014413D01*
X78988236Y-76014412D01*
X78993945Y-76013584D01*
X78999409Y-76011729D01*
X78999414Y-76011728D01*
X79180693Y-75950192D01*
X79180698Y-75950190D01*
X79186165Y-75948334D01*
X79363276Y-75849147D01*
X79375649Y-75838857D01*
X79514913Y-75723031D01*
X79519345Y-75719345D01*
X79649147Y-75563276D01*
X79748334Y-75386165D01*
X79750190Y-75380698D01*
X79750192Y-75380693D01*
X79811728Y-75199414D01*
X79811729Y-75199409D01*
X79813584Y-75193945D01*
X79814412Y-75188236D01*
X79814413Y-75188231D01*
X79842179Y-74996727D01*
X79842712Y-74993053D01*
X79844232Y-74935000D01*
X79841564Y-74905964D01*
X80166148Y-74905964D01*
X80179424Y-75108522D01*
X80180845Y-75114118D01*
X80180846Y-75114123D01*
X80201119Y-75193945D01*
X80229392Y-75305269D01*
X80231809Y-75310512D01*
X80269010Y-75391208D01*
X80314377Y-75489616D01*
X80431533Y-75655389D01*
X80576938Y-75797035D01*
X80745720Y-75909812D01*
X80751023Y-75912090D01*
X80751026Y-75912092D01*
X80839707Y-75950192D01*
X80932228Y-75989942D01*
X81005244Y-76006464D01*
X81124579Y-76033467D01*
X81124584Y-76033468D01*
X81130216Y-76034742D01*
X81135987Y-76034969D01*
X81135989Y-76034969D01*
X81195756Y-76037317D01*
X81333053Y-76042712D01*
X81433499Y-76028148D01*
X81528231Y-76014413D01*
X81528236Y-76014412D01*
X81533945Y-76013584D01*
X81539409Y-76011729D01*
X81539414Y-76011728D01*
X81720693Y-75950192D01*
X81720698Y-75950190D01*
X81726165Y-75948334D01*
X81903276Y-75849147D01*
X81915649Y-75838857D01*
X82054913Y-75723031D01*
X82059345Y-75719345D01*
X82189147Y-75563276D01*
X82288334Y-75386165D01*
X82290190Y-75380698D01*
X82290192Y-75380693D01*
X82351728Y-75199414D01*
X82351729Y-75199409D01*
X82353584Y-75193945D01*
X82354412Y-75188236D01*
X82354413Y-75188231D01*
X82382179Y-74996727D01*
X82382712Y-74993053D01*
X82384232Y-74935000D01*
X82365658Y-74732859D01*
X82364090Y-74727299D01*
X82312125Y-74543046D01*
X82312124Y-74543044D01*
X82310557Y-74537487D01*
X82299978Y-74516033D01*
X82223331Y-74360609D01*
X82220776Y-74355428D01*
X82099320Y-74192779D01*
X81950258Y-74054987D01*
X81945375Y-74051906D01*
X81945371Y-74051903D01*
X81783464Y-73949748D01*
X81778581Y-73946667D01*
X81590039Y-73871446D01*
X81584379Y-73870320D01*
X81584375Y-73870319D01*
X81396613Y-73832971D01*
X81396610Y-73832971D01*
X81390946Y-73831844D01*
X81385171Y-73831768D01*
X81385167Y-73831768D01*
X81283793Y-73830441D01*
X81187971Y-73829187D01*
X81182274Y-73830166D01*
X81182273Y-73830166D01*
X80993607Y-73862585D01*
X80987910Y-73863564D01*
X80797463Y-73933824D01*
X80623010Y-74037612D01*
X80618670Y-74041418D01*
X80618666Y-74041421D01*
X80598723Y-74058911D01*
X80470392Y-74171455D01*
X80344720Y-74330869D01*
X80342031Y-74335980D01*
X80342029Y-74335983D01*
X80329073Y-74360609D01*
X80250203Y-74510515D01*
X80190007Y-74704378D01*
X80166148Y-74905964D01*
X79841564Y-74905964D01*
X79825658Y-74732859D01*
X79824090Y-74727299D01*
X79772125Y-74543046D01*
X79772124Y-74543044D01*
X79770557Y-74537487D01*
X79759978Y-74516033D01*
X79683331Y-74360609D01*
X79680776Y-74355428D01*
X79559320Y-74192779D01*
X79410258Y-74054987D01*
X79405375Y-74051906D01*
X79405371Y-74051903D01*
X79243464Y-73949748D01*
X79238581Y-73946667D01*
X79050039Y-73871446D01*
X79044379Y-73870320D01*
X79044375Y-73870319D01*
X78856613Y-73832971D01*
X78856610Y-73832971D01*
X78850946Y-73831844D01*
X78845171Y-73831768D01*
X78845167Y-73831768D01*
X78743793Y-73830441D01*
X78647971Y-73829187D01*
X78642274Y-73830166D01*
X78642273Y-73830166D01*
X78453607Y-73862585D01*
X78447910Y-73863564D01*
X78257463Y-73933824D01*
X78083010Y-74037612D01*
X78023435Y-74089858D01*
X77982378Y-74125864D01*
X77917973Y-74155741D01*
X77847641Y-74146055D01*
X77793709Y-74099882D01*
X77773300Y-74031132D01*
X77773300Y-73298857D01*
X77793302Y-73230736D01*
X77846958Y-73184243D01*
X77917232Y-73174139D01*
X77981812Y-73203633D01*
X77987216Y-73208598D01*
X78036938Y-73257035D01*
X78205720Y-73369812D01*
X78211023Y-73372090D01*
X78211026Y-73372092D01*
X78299707Y-73410192D01*
X78392228Y-73449942D01*
X78465244Y-73466464D01*
X78584579Y-73493467D01*
X78584584Y-73493468D01*
X78590216Y-73494742D01*
X78595987Y-73494969D01*
X78595989Y-73494969D01*
X78655756Y-73497317D01*
X78793053Y-73502712D01*
X78893499Y-73488148D01*
X78988231Y-73474413D01*
X78988236Y-73474412D01*
X78993945Y-73473584D01*
X78999409Y-73471729D01*
X78999414Y-73471728D01*
X79180693Y-73410192D01*
X79180698Y-73410190D01*
X79186165Y-73408334D01*
X79363276Y-73309147D01*
X79375649Y-73298857D01*
X79514913Y-73183031D01*
X79519345Y-73179345D01*
X79649147Y-73023276D01*
X79748334Y-72846165D01*
X79750190Y-72840698D01*
X79750192Y-72840693D01*
X79811728Y-72659414D01*
X79811729Y-72659409D01*
X79813584Y-72653945D01*
X79814412Y-72648236D01*
X79814413Y-72648231D01*
X79842179Y-72456727D01*
X79842712Y-72453053D01*
X79844232Y-72395000D01*
X79841564Y-72365964D01*
X80166148Y-72365964D01*
X80179424Y-72568522D01*
X80180845Y-72574118D01*
X80180846Y-72574123D01*
X80201119Y-72653945D01*
X80229392Y-72765269D01*
X80231809Y-72770512D01*
X80269010Y-72851208D01*
X80314377Y-72949616D01*
X80431533Y-73115389D01*
X80576938Y-73257035D01*
X80745720Y-73369812D01*
X80751023Y-73372090D01*
X80751026Y-73372092D01*
X80839707Y-73410192D01*
X80932228Y-73449942D01*
X81005244Y-73466464D01*
X81124579Y-73493467D01*
X81124584Y-73493468D01*
X81130216Y-73494742D01*
X81135987Y-73494969D01*
X81135989Y-73494969D01*
X81195756Y-73497317D01*
X81333053Y-73502712D01*
X81433499Y-73488148D01*
X81528231Y-73474413D01*
X81528236Y-73474412D01*
X81533945Y-73473584D01*
X81539409Y-73471729D01*
X81539414Y-73471728D01*
X81720693Y-73410192D01*
X81720698Y-73410190D01*
X81726165Y-73408334D01*
X81903276Y-73309147D01*
X81915649Y-73298857D01*
X82054913Y-73183031D01*
X82059345Y-73179345D01*
X82189147Y-73023276D01*
X82288334Y-72846165D01*
X82290190Y-72840698D01*
X82290192Y-72840693D01*
X82351728Y-72659414D01*
X82351729Y-72659409D01*
X82353584Y-72653945D01*
X82354412Y-72648236D01*
X82354413Y-72648231D01*
X82382179Y-72456727D01*
X82382712Y-72453053D01*
X82384232Y-72395000D01*
X82365658Y-72192859D01*
X82364090Y-72187299D01*
X82312125Y-72003046D01*
X82312124Y-72003044D01*
X82310557Y-71997487D01*
X82299978Y-71976033D01*
X82223331Y-71820609D01*
X82220776Y-71815428D01*
X82099320Y-71652779D01*
X81950258Y-71514987D01*
X81945375Y-71511906D01*
X81945371Y-71511903D01*
X81783464Y-71409748D01*
X81778581Y-71406667D01*
X81590039Y-71331446D01*
X81584379Y-71330320D01*
X81584375Y-71330319D01*
X81396613Y-71292971D01*
X81396610Y-71292971D01*
X81390946Y-71291844D01*
X81385171Y-71291768D01*
X81385167Y-71291768D01*
X81283793Y-71290441D01*
X81187971Y-71289187D01*
X81182274Y-71290166D01*
X81182273Y-71290166D01*
X80993607Y-71322585D01*
X80987910Y-71323564D01*
X80797463Y-71393824D01*
X80623010Y-71497612D01*
X80618670Y-71501418D01*
X80618666Y-71501421D01*
X80598723Y-71518911D01*
X80470392Y-71631455D01*
X80344720Y-71790869D01*
X80342031Y-71795980D01*
X80342029Y-71795983D01*
X80329073Y-71820609D01*
X80250203Y-71970515D01*
X80190007Y-72164378D01*
X80166148Y-72365964D01*
X79841564Y-72365964D01*
X79825658Y-72192859D01*
X79824090Y-72187299D01*
X79772125Y-72003046D01*
X79772124Y-72003044D01*
X79770557Y-71997487D01*
X79759978Y-71976033D01*
X79683331Y-71820609D01*
X79680776Y-71815428D01*
X79559320Y-71652779D01*
X79410258Y-71514987D01*
X79405375Y-71511906D01*
X79405371Y-71511903D01*
X79243464Y-71409748D01*
X79238581Y-71406667D01*
X79050039Y-71331446D01*
X79044379Y-71330320D01*
X79044375Y-71330319D01*
X78856613Y-71292971D01*
X78856610Y-71292971D01*
X78850946Y-71291844D01*
X78845171Y-71291768D01*
X78845167Y-71291768D01*
X78743793Y-71290441D01*
X78647971Y-71289187D01*
X78642274Y-71290166D01*
X78642273Y-71290166D01*
X78453607Y-71322585D01*
X78447910Y-71323564D01*
X78257463Y-71393824D01*
X78083010Y-71497612D01*
X78023435Y-71549858D01*
X77982378Y-71585864D01*
X77917973Y-71615741D01*
X77847641Y-71606055D01*
X77793709Y-71559882D01*
X77773300Y-71491132D01*
X77773300Y-70758857D01*
X77793302Y-70690736D01*
X77846958Y-70644243D01*
X77917232Y-70634139D01*
X77981812Y-70663633D01*
X77987216Y-70668598D01*
X78036938Y-70717035D01*
X78205720Y-70829812D01*
X78211023Y-70832090D01*
X78211026Y-70832092D01*
X78299707Y-70870192D01*
X78392228Y-70909942D01*
X78465244Y-70926464D01*
X78584579Y-70953467D01*
X78584584Y-70953468D01*
X78590216Y-70954742D01*
X78595987Y-70954969D01*
X78595989Y-70954969D01*
X78655756Y-70957317D01*
X78793053Y-70962712D01*
X78893499Y-70948148D01*
X78988231Y-70934413D01*
X78988236Y-70934412D01*
X78993945Y-70933584D01*
X78999409Y-70931729D01*
X78999414Y-70931728D01*
X79180693Y-70870192D01*
X79180698Y-70870190D01*
X79186165Y-70868334D01*
X79363276Y-70769147D01*
X79375649Y-70758857D01*
X79514913Y-70643031D01*
X79519345Y-70639345D01*
X79649147Y-70483276D01*
X79748334Y-70306165D01*
X79750190Y-70300698D01*
X79750192Y-70300693D01*
X79811728Y-70119414D01*
X79811729Y-70119409D01*
X79813584Y-70113945D01*
X79814412Y-70108236D01*
X79814413Y-70108231D01*
X79842179Y-69916727D01*
X79842712Y-69913053D01*
X79844232Y-69855000D01*
X79841564Y-69825964D01*
X80166148Y-69825964D01*
X80179424Y-70028522D01*
X80180845Y-70034118D01*
X80180846Y-70034123D01*
X80201119Y-70113945D01*
X80229392Y-70225269D01*
X80231809Y-70230512D01*
X80269010Y-70311208D01*
X80314377Y-70409616D01*
X80431533Y-70575389D01*
X80576938Y-70717035D01*
X80745720Y-70829812D01*
X80751023Y-70832090D01*
X80751026Y-70832092D01*
X80839707Y-70870192D01*
X80932228Y-70909942D01*
X81005244Y-70926464D01*
X81124579Y-70953467D01*
X81124584Y-70953468D01*
X81130216Y-70954742D01*
X81135987Y-70954969D01*
X81135989Y-70954969D01*
X81195756Y-70957317D01*
X81333053Y-70962712D01*
X81433499Y-70948148D01*
X81528231Y-70934413D01*
X81528236Y-70934412D01*
X81533945Y-70933584D01*
X81539409Y-70931729D01*
X81539414Y-70931728D01*
X81720693Y-70870192D01*
X81720698Y-70870190D01*
X81726165Y-70868334D01*
X81903276Y-70769147D01*
X81915649Y-70758857D01*
X82054913Y-70643031D01*
X82059345Y-70639345D01*
X82189147Y-70483276D01*
X82288334Y-70306165D01*
X82290190Y-70300698D01*
X82290192Y-70300693D01*
X82351728Y-70119414D01*
X82351729Y-70119409D01*
X82353584Y-70113945D01*
X82354412Y-70108236D01*
X82354413Y-70108231D01*
X82382179Y-69916727D01*
X82382712Y-69913053D01*
X82384232Y-69855000D01*
X82365658Y-69652859D01*
X82364090Y-69647299D01*
X82312125Y-69463046D01*
X82312124Y-69463044D01*
X82310557Y-69457487D01*
X82299978Y-69436033D01*
X82223331Y-69280609D01*
X82220776Y-69275428D01*
X82099320Y-69112779D01*
X81950258Y-68974987D01*
X81945375Y-68971906D01*
X81945371Y-68971903D01*
X81783464Y-68869748D01*
X81778581Y-68866667D01*
X81590039Y-68791446D01*
X81584379Y-68790320D01*
X81584375Y-68790319D01*
X81396613Y-68752971D01*
X81396610Y-68752971D01*
X81390946Y-68751844D01*
X81385171Y-68751768D01*
X81385167Y-68751768D01*
X81283793Y-68750441D01*
X81187971Y-68749187D01*
X81182274Y-68750166D01*
X81182273Y-68750166D01*
X80993607Y-68782585D01*
X80987910Y-68783564D01*
X80797463Y-68853824D01*
X80623010Y-68957612D01*
X80618670Y-68961418D01*
X80618666Y-68961421D01*
X80598723Y-68978911D01*
X80470392Y-69091455D01*
X80344720Y-69250869D01*
X80342031Y-69255980D01*
X80342029Y-69255983D01*
X80329073Y-69280609D01*
X80250203Y-69430515D01*
X80190007Y-69624378D01*
X80166148Y-69825964D01*
X79841564Y-69825964D01*
X79825658Y-69652859D01*
X79824090Y-69647299D01*
X79772125Y-69463046D01*
X79772124Y-69463044D01*
X79770557Y-69457487D01*
X79759978Y-69436033D01*
X79683331Y-69280609D01*
X79680776Y-69275428D01*
X79559320Y-69112779D01*
X79410258Y-68974987D01*
X79405375Y-68971906D01*
X79405371Y-68971903D01*
X79243464Y-68869748D01*
X79238581Y-68866667D01*
X79050039Y-68791446D01*
X79044379Y-68790320D01*
X79044375Y-68790319D01*
X78856613Y-68752971D01*
X78856610Y-68752971D01*
X78850946Y-68751844D01*
X78845171Y-68751768D01*
X78845167Y-68751768D01*
X78743793Y-68750441D01*
X78647971Y-68749187D01*
X78642274Y-68750166D01*
X78642273Y-68750166D01*
X78453607Y-68782585D01*
X78447910Y-68783564D01*
X78257463Y-68853824D01*
X78083010Y-68957612D01*
X78023435Y-69009858D01*
X77982378Y-69045864D01*
X77917973Y-69075741D01*
X77847641Y-69066055D01*
X77793709Y-69019882D01*
X77773300Y-68951132D01*
X77773300Y-68218857D01*
X77793302Y-68150736D01*
X77846958Y-68104243D01*
X77917232Y-68094139D01*
X77981812Y-68123633D01*
X77987216Y-68128598D01*
X78036938Y-68177035D01*
X78205720Y-68289812D01*
X78211023Y-68292090D01*
X78211026Y-68292092D01*
X78299707Y-68330192D01*
X78392228Y-68369942D01*
X78465244Y-68386464D01*
X78584579Y-68413467D01*
X78584584Y-68413468D01*
X78590216Y-68414742D01*
X78595987Y-68414969D01*
X78595989Y-68414969D01*
X78655756Y-68417317D01*
X78793053Y-68422712D01*
X78893499Y-68408148D01*
X78988231Y-68394413D01*
X78988236Y-68394412D01*
X78993945Y-68393584D01*
X78999409Y-68391729D01*
X78999414Y-68391728D01*
X79180693Y-68330192D01*
X79180698Y-68330190D01*
X79186165Y-68328334D01*
X79363276Y-68229147D01*
X79375649Y-68218857D01*
X79514913Y-68103031D01*
X79519345Y-68099345D01*
X79649147Y-67943276D01*
X79748334Y-67766165D01*
X79750190Y-67760698D01*
X79750192Y-67760693D01*
X79811728Y-67579414D01*
X79811729Y-67579409D01*
X79813584Y-67573945D01*
X79814412Y-67568236D01*
X79814413Y-67568231D01*
X79842179Y-67376727D01*
X79842712Y-67373053D01*
X79844232Y-67315000D01*
X79825658Y-67112859D01*
X79824090Y-67107299D01*
X79772125Y-66923046D01*
X79772124Y-66923044D01*
X79770557Y-66917487D01*
X79759978Y-66896033D01*
X79683331Y-66740609D01*
X79680776Y-66735428D01*
X79623058Y-66658134D01*
X79595246Y-66620889D01*
X79570514Y-66554339D01*
X79585688Y-66484983D01*
X79635950Y-66434841D01*
X79696204Y-66419500D01*
X79956080Y-66419500D01*
X79980028Y-66422049D01*
X79981693Y-66422128D01*
X79991876Y-66424320D01*
X80002217Y-66423096D01*
X80025223Y-66420373D01*
X80031154Y-66420023D01*
X80031146Y-66419928D01*
X80036324Y-66419500D01*
X80041524Y-66419500D01*
X80046653Y-66418646D01*
X80046656Y-66418646D01*
X80060565Y-66416331D01*
X80066443Y-66415494D01*
X80107001Y-66410694D01*
X80107002Y-66410694D01*
X80117341Y-66409470D01*
X80125593Y-66405507D01*
X80134626Y-66404004D01*
X80143795Y-66399057D01*
X80143797Y-66399056D01*
X80179732Y-66379666D01*
X80185025Y-66376969D01*
X80224082Y-66358215D01*
X80224086Y-66358212D01*
X80231232Y-66354781D01*
X80235508Y-66351186D01*
X80237431Y-66349263D01*
X80239363Y-66347491D01*
X80239442Y-66347448D01*
X80239555Y-66347572D01*
X80240095Y-66347096D01*
X80245814Y-66344010D01*
X80282417Y-66304413D01*
X80285846Y-66300848D01*
X80509789Y-66076905D01*
X80572101Y-66042879D01*
X80598884Y-66040000D01*
X80834118Y-66040000D01*
X80902239Y-66060002D01*
G37*
%TD.AperFunction*%
%TD*%
%TA.AperFunction,Conductor*%
%TO.N,+12V*%
G36*
X95242921Y-114193002D02*
G01*
X95289414Y-114246658D01*
X95300800Y-114299000D01*
X95300800Y-115723400D01*
X95280798Y-115791521D01*
X95227142Y-115838014D01*
X95174800Y-115849400D01*
X91972400Y-115849400D01*
X91904279Y-115829398D01*
X91857786Y-115775742D01*
X91846400Y-115723400D01*
X91846400Y-114299000D01*
X91866402Y-114230879D01*
X91920058Y-114184386D01*
X91972400Y-114173000D01*
X95174800Y-114173000D01*
X95242921Y-114193002D01*
G37*
%TD.AperFunction*%
%TD*%
M02*
