%TF.GenerationSoftware,KiCad,Pcbnew,(6.0.4)*%
%TF.CreationDate,2023-05-22T00:35:00+09:00*%
%TF.ProjectId,Antenna,416e7465-6e6e-4612-9e6b-696361645f70,rev?*%
%TF.SameCoordinates,Original*%
%TF.FileFunction,Copper,L4,Bot*%
%TF.FilePolarity,Positive*%
%FSLAX46Y46*%
G04 Gerber Fmt 4.6, Leading zero omitted, Abs format (unit mm)*
G04 Created by KiCad (PCBNEW (6.0.4)) date 2023-05-22 00:35:00*
%MOMM*%
%LPD*%
G01*
G04 APERTURE LIST*
G04 Aperture macros list*
%AMFreePoly0*
4,1,5,2.875000,-5.850000,-2.875000,-5.850000,-2.875000,5.850000,2.875000,5.850000,2.875000,-5.850000,2.875000,-5.850000,$1*%
G04 Aperture macros list end*
%TA.AperFunction,ComponentPad*%
%ADD10C,2.600000*%
%TD*%
%TA.AperFunction,SMDPad,CuDef*%
%ADD11R,5.700000X0.900000*%
%TD*%
%TA.AperFunction,SMDPad,CuDef*%
%ADD12R,11.360000X2.200000*%
%TD*%
%TA.AperFunction,SMDPad,CuDef*%
%ADD13FreePoly0,90.000000*%
%TD*%
%TA.AperFunction,SMDPad,CuDef*%
%ADD14R,11.700000X5.750000*%
%TD*%
%TA.AperFunction,ViaPad*%
%ADD15C,0.450000*%
%TD*%
G04 APERTURE END LIST*
D10*
%TO.P,H2,1,1*%
%TO.N,GND*%
X134075000Y-65786000D03*
%TD*%
%TO.P,H1,1,1*%
%TO.N,GND*%
X134075000Y-116128800D03*
%TD*%
D11*
%TO.P,AE1,1,A*%
%TO.N,/receiver/RX*%
X123601651Y-77650000D03*
X123601651Y-80750000D03*
D12*
X120771651Y-53850000D03*
D13*
X120601651Y-125125000D03*
D12*
X120771651Y-104650000D03*
D14*
X120601651Y-84075000D03*
X120601651Y-74325000D03*
D12*
X120771651Y-130000000D03*
D13*
X120601651Y-58725000D03*
D12*
X120771651Y-79200000D03*
D11*
X123601651Y-52300000D03*
D14*
X120601651Y-109525000D03*
D11*
X123601651Y-128450000D03*
D14*
X120601651Y-134875000D03*
X120601651Y-48975000D03*
D11*
X123601651Y-106200000D03*
D14*
X120601651Y-99775000D03*
D11*
X123601651Y-131550000D03*
X123601651Y-55400000D03*
X123601651Y-103100000D03*
%TD*%
D15*
%TO.N,GND*%
X134010400Y-90678000D03*
X132689600Y-105410000D03*
X132689600Y-103378000D03*
X129600000Y-100200000D03*
X133680200Y-94488001D03*
X134467600Y-102133400D03*
X131851400Y-78003400D03*
X133476999Y-97053400D03*
X130911600Y-109423200D03*
X130911600Y-108610399D03*
X132918200Y-100939599D03*
X130657600Y-100025201D03*
X130911600Y-107797600D03*
X130403601Y-104521000D03*
X132257800Y-112649000D03*
X134467600Y-101320601D03*
X130657600Y-96774001D03*
X130352800Y-93294200D03*
X133248400Y-110439199D03*
X133248400Y-111251999D03*
X132918200Y-101752400D03*
X130708400Y-91059000D03*
X129600000Y-102650000D03*
X133248400Y-107188000D03*
X134924800Y-84277200D03*
X131597400Y-95300800D03*
X129589347Y-92885112D03*
X132029200Y-104521000D03*
X130657600Y-99212400D03*
X133477000Y-97866200D03*
X130657600Y-95961200D03*
X132064064Y-92313064D03*
X133248400Y-112064800D03*
X130657600Y-98399602D03*
X129600000Y-98025000D03*
X131850000Y-72925000D03*
X134035800Y-95300800D03*
X132918200Y-100126800D03*
X131851400Y-76978400D03*
X133248400Y-109626398D03*
X134289801Y-97866200D03*
X133654800Y-104521000D03*
X132689600Y-98526601D03*
X132842000Y-104521000D03*
X130835400Y-94005400D03*
X132562600Y-92964001D03*
X132410200Y-95300800D03*
X130911600Y-110235998D03*
X129600000Y-104300000D03*
X131325000Y-84250000D03*
X130657600Y-97586801D03*
X134289800Y-97053400D03*
X133248400Y-108000799D03*
X130911600Y-111048799D03*
X130657600Y-100838000D03*
X135102598Y-97053400D03*
X132918200Y-102565198D03*
X129600000Y-95325000D03*
X133222999Y-95300800D03*
X132664200Y-96901000D03*
X129590800Y-91059000D03*
X133248400Y-108813600D03*
X132562600Y-93776800D03*
X130835400Y-94843600D03*
X132689600Y-99339400D03*
X131850000Y-71900000D03*
X135102600Y-97866200D03*
X130911600Y-111861599D03*
X131216401Y-104521000D03*
X132689600Y-97713800D03*
X131489327Y-91738327D03*
X134467600Y-99695002D03*
X131445002Y-112649000D03*
X134467600Y-100507800D03*
%TO.N,/receiver/RX*%
X123300000Y-104650000D03*
X123300000Y-79200000D03*
X123300000Y-130000000D03*
X123300000Y-53850000D03*
%TO.N,/5VA*%
X130200000Y-107416600D03*
X133629400Y-105638600D03*
%TO.N,/~EN1*%
X130759200Y-105333800D03*
X135128000Y-70383400D03*
%TD*%
M02*
