%TF.GenerationSoftware,KiCad,Pcbnew,(6.0.4)*%
%TF.CreationDate,2023-05-22T00:35:00+09:00*%
%TF.ProjectId,Antenna,416e7465-6e6e-4612-9e6b-696361645f70,rev?*%
%TF.SameCoordinates,Original*%
%TF.FileFunction,Copper,L1,Top*%
%TF.FilePolarity,Positive*%
%FSLAX46Y46*%
G04 Gerber Fmt 4.6, Leading zero omitted, Abs format (unit mm)*
G04 Created by KiCad (PCBNEW (6.0.4)) date 2023-05-22 00:35:00*
%MOMM*%
%LPD*%
G01*
G04 APERTURE LIST*
G04 Aperture macros list*
%AMRoundRect*
0 Rectangle with rounded corners*
0 $1 Rounding radius*
0 $2 $3 $4 $5 $6 $7 $8 $9 X,Y pos of 4 corners*
0 Add a 4 corners polygon primitive as box body*
4,1,4,$2,$3,$4,$5,$6,$7,$8,$9,$2,$3,0*
0 Add four circle primitives for the rounded corners*
1,1,$1+$1,$2,$3*
1,1,$1+$1,$4,$5*
1,1,$1+$1,$6,$7*
1,1,$1+$1,$8,$9*
0 Add four rect primitives between the rounded corners*
20,1,$1+$1,$2,$3,$4,$5,0*
20,1,$1+$1,$4,$5,$6,$7,0*
20,1,$1+$1,$6,$7,$8,$9,0*
20,1,$1+$1,$8,$9,$2,$3,0*%
%AMRotRect*
0 Rectangle, with rotation*
0 The origin of the aperture is its center*
0 $1 length*
0 $2 width*
0 $3 Rotation angle, in degrees counterclockwise*
0 Add horizontal line*
21,1,$1,$2,0,0,$3*%
%AMFreePoly0*
4,1,107,0.040185,0.175457,0.112298,0.140674,0.129761,0.118759,0.146677,0.108426,0.147126,0.107987,0.147165,0.107927,0.706204,-0.463322,1.238202,-1.060772,1.741492,-1.682597,2.214958,-2.327421,2.657550,-2.993813,3.068288,-3.680298,3.446262,-4.385354,3.790634,-5.107417,4.100640,-5.844888,4.375593,-6.596133,4.614885,-7.359485,4.817984,-8.133254,4.984441,-8.915724,5.113886,-9.705162,
5.206033,-10.499816,5.260678,-11.297928,5.277698,-12.097726,5.257058,-12.897440,5.198802,-13.695295,5.103060,-14.489525,4.970043,-15.278368,4.800047,-16.060077,4.593448,-16.832919,4.350704,-17.595181,4.072354,-18.345173,3.759013,-19.081234,3.411378,-19.801731,3.030217,-20.505069,2.616376,-21.189688,2.170772,-21.854071,1.694393,-22.496745,1.188294,-23.116287,0.653598,-23.711322,0.091489,-24.280532,
-0.496788,-24.822656,-1.109927,-25.336493,-1.746571,-25.820902,-2.405307,-26.274811,-3.084677,-26.697213,-3.783175,-27.087173,-4.499252,-27.443826,-5.231321,-27.766382,-5.231901,-27.766621,-5.310895,-27.779669,-5.387733,-27.757172,-5.447213,-27.703577,-5.477568,-27.629492,-5.472791,-27.549570,-5.433829,-27.479626,-5.368389,-27.433498,-5.349072,-27.430272,-4.632764,-27.114170,-3.915173,-26.755219,-3.215723,-26.362089,
-2.536039,-25.935694,-1.877703,-25.477026,-1.242246,-24.987152,-0.631146,-24.467211,-0.045824,-23.918412,0.512359,-23.342031,1.042105,-22.739410,1.542180,-22.111950,2.011423,-21.461109,2.448743,-20.788402,2.853121,-20.095394,3.223617,-19.383695,3.559370,-18.654962,3.859599,-17.910889,4.123606,-17.153206,4.350777,-16.383677,4.540582,-15.604089,4.692582,-14.816258,4.806421,-14.022014,4.881837,-13.223206,
4.918652,-12.421690,4.916782,-11.619332,4.876231,-10.817997,4.797093,-10.019549,4.679553,-9.225844,4.523883,-8.438730,4.330445,-7.660036,4.099691,-6.891573,3.832155,-6.135129,3.528461,-5.392464,3.189315,-4.665303,2.815505,-3.955340,2.407901,-3.264223,1.967451,-2.593562,1.495179,-1.944916,0.992184,-1.319793,0.459636,-0.719648,-0.087863,-0.159549,-0.104843,-0.149135,-0.109454,-0.141974,
-0.112544,-0.140477,-0.162330,-0.077775,-0.180000,0.000314,-0.162057,0.078342,-0.112053,0.140869,-0.039879,0.175527,0.040185,0.175457,0.040185,0.175457,$1*%
%AMFreePoly1*
4,1,108,0.040185,0.175457,0.112298,0.140674,0.162194,0.078059,0.180000,0.000000,0.179999,-0.000628,0.161920,-0.078624,0.111807,-0.141065,0.109064,-0.142376,0.104394,-0.149573,0.087662,-0.159754,-0.459636,-0.719648,-0.992184,-1.319793,-1.495179,-1.944916,-1.967451,-2.593562,-2.407901,-3.264223,-2.815505,-3.955340,-3.189315,-4.665303,-3.528461,-5.392464,-3.832155,-6.135129,-4.099691,-6.891573,
-4.330445,-7.660036,-4.523883,-8.438730,-4.679553,-9.225844,-4.797093,-10.019549,-4.876231,-10.817997,-4.916782,-11.619332,-4.918652,-12.421690,-4.881837,-13.223206,-4.806421,-14.022014,-4.692582,-14.816258,-4.540582,-15.604089,-4.350777,-16.383677,-4.123606,-17.153206,-3.859599,-17.910889,-3.559370,-18.654962,-3.223617,-19.383695,-2.853121,-20.095394,-2.448743,-20.788402,-2.011423,-21.461109,-1.542180,-22.111950,
-1.042105,-22.739410,-0.512359,-23.342031,0.045824,-23.918412,0.631146,-24.467211,1.242246,-24.987152,1.877703,-25.477026,2.536039,-25.935694,3.215723,-26.362089,3.915173,-26.755219,4.632764,-27.114170,5.349333,-27.430388,5.368970,-27.433737,5.434248,-27.480095,5.472966,-27.550173,5.477464,-27.630111,5.446851,-27.704091,5.387184,-27.757477,5.310268,-27.779707,5.231321,-27.766382,5.230740,-27.766142,
5.230681,-27.766100,4.499252,-27.443826,3.783175,-27.087173,3.084677,-26.697213,2.405307,-26.274811,1.746571,-25.820902,1.109927,-25.336493,0.496788,-24.822656,-0.091489,-24.280532,-0.653598,-23.711322,-1.188294,-23.116287,-1.694393,-22.496745,-2.170772,-21.854071,-2.616376,-21.189688,-3.030217,-20.505069,-3.411378,-19.801731,-3.759013,-19.081234,-4.072354,-18.345173,-4.350704,-17.595181,-4.593448,-16.832919,
-4.800047,-16.060077,-4.970043,-15.278368,-5.103060,-14.489525,-5.198802,-13.695295,-5.257058,-12.897440,-5.277698,-12.097726,-5.260678,-11.297928,-5.206033,-10.499816,-5.113886,-9.705162,-4.984441,-8.915724,-4.817984,-8.133254,-4.614885,-7.359485,-4.375593,-6.596133,-4.100640,-5.844888,-3.790634,-5.107417,-3.446262,-4.385354,-3.068288,-3.680298,-2.657550,-2.993813,-2.214958,-2.327421,-1.741492,-1.682597,
-1.238202,-1.060772,-0.706204,-0.463322,-0.146677,0.108426,-0.146226,0.108864,-0.129579,0.118954,-0.112053,0.140869,-0.039879,0.175527,0.040185,0.175457,0.040185,0.175457,$1*%
G04 Aperture macros list end*
%TA.AperFunction,SMDPad,CuDef*%
%ADD10R,0.200000X0.400000*%
%TD*%
%TA.AperFunction,SMDPad,CuDef*%
%ADD11R,1.100000X0.600000*%
%TD*%
%TA.AperFunction,SMDPad,CuDef*%
%ADD12RoundRect,0.135000X-0.135000X-0.185000X0.135000X-0.185000X0.135000X0.185000X-0.135000X0.185000X0*%
%TD*%
%TA.AperFunction,SMDPad,CuDef*%
%ADD13RoundRect,0.225000X-0.250000X0.225000X-0.250000X-0.225000X0.250000X-0.225000X0.250000X0.225000X0*%
%TD*%
%TA.AperFunction,SMDPad,CuDef*%
%ADD14RoundRect,0.140000X0.140000X0.170000X-0.140000X0.170000X-0.140000X-0.170000X0.140000X-0.170000X0*%
%TD*%
%TA.AperFunction,SMDPad,CuDef*%
%ADD15RoundRect,0.140000X-0.170000X0.140000X-0.170000X-0.140000X0.170000X-0.140000X0.170000X0.140000X0*%
%TD*%
%TA.AperFunction,SMDPad,CuDef*%
%ADD16RoundRect,0.147500X0.147500X0.172500X-0.147500X0.172500X-0.147500X-0.172500X0.147500X-0.172500X0*%
%TD*%
%TA.AperFunction,SMDPad,CuDef*%
%ADD17RoundRect,0.225000X0.225000X0.250000X-0.225000X0.250000X-0.225000X-0.250000X0.225000X-0.250000X0*%
%TD*%
%TA.AperFunction,ConnectorPad*%
%ADD18C,3.800000*%
%TD*%
%TA.AperFunction,ComponentPad*%
%ADD19C,2.600000*%
%TD*%
%TA.AperFunction,SMDPad,CuDef*%
%ADD20RoundRect,0.147500X-0.172500X0.147500X-0.172500X-0.147500X0.172500X-0.147500X0.172500X0.147500X0*%
%TD*%
%TA.AperFunction,SMDPad,CuDef*%
%ADD21RoundRect,0.135000X-0.185000X0.135000X-0.185000X-0.135000X0.185000X-0.135000X0.185000X0.135000X0*%
%TD*%
%TA.AperFunction,SMDPad,CuDef*%
%ADD22R,1.900000X1.000000*%
%TD*%
%TA.AperFunction,SMDPad,CuDef*%
%ADD23R,1.000000X1.000000*%
%TD*%
%TA.AperFunction,SMDPad,CuDef*%
%ADD24R,1.050000X2.200000*%
%TD*%
%TA.AperFunction,SMDPad,CuDef*%
%ADD25RoundRect,0.140000X-0.219203X-0.021213X-0.021213X-0.219203X0.219203X0.021213X0.021213X0.219203X0*%
%TD*%
%TA.AperFunction,SMDPad,CuDef*%
%ADD26R,0.250000X0.500000*%
%TD*%
%TA.AperFunction,SMDPad,CuDef*%
%ADD27R,1.600000X0.900000*%
%TD*%
%TA.AperFunction,SMDPad,CuDef*%
%ADD28RoundRect,0.147500X-0.147500X-0.172500X0.147500X-0.172500X0.147500X0.172500X-0.147500X0.172500X0*%
%TD*%
%TA.AperFunction,SMDPad,CuDef*%
%ADD29RotRect,0.160000X7.500000X315.000000*%
%TD*%
%TA.AperFunction,SMDPad,CuDef*%
%ADD30RotRect,0.160000X7.500000X225.000000*%
%TD*%
%TA.AperFunction,SMDPad,CuDef*%
%ADD31R,0.160000X7.500000*%
%TD*%
%TA.AperFunction,SMDPad,CuDef*%
%ADD32RotRect,0.160000X7.500000X314.000000*%
%TD*%
%TA.AperFunction,SMDPad,CuDef*%
%ADD33RotRect,0.160000X7.500000X226.000000*%
%TD*%
%TA.AperFunction,SMDPad,CuDef*%
%ADD34FreePoly0,180.000000*%
%TD*%
%TA.AperFunction,SMDPad,CuDef*%
%ADD35C,0.450000*%
%TD*%
%TA.AperFunction,SMDPad,CuDef*%
%ADD36FreePoly1,0.000000*%
%TD*%
%TA.AperFunction,SMDPad,CuDef*%
%ADD37R,1.050000X0.360000*%
%TD*%
%TA.AperFunction,ViaPad*%
%ADD38C,0.450000*%
%TD*%
%TA.AperFunction,Conductor*%
%ADD39C,0.250000*%
%TD*%
%TA.AperFunction,Conductor*%
%ADD40C,0.360000*%
%TD*%
%TA.AperFunction,Conductor*%
%ADD41C,0.500000*%
%TD*%
G04 APERTURE END LIST*
D10*
%TO.P,U3,1,VENABLE*%
%TO.N,Net-(R2-Pad1)*%
X132554600Y-94550800D03*
%TO.P,U3,2,GND*%
%TO.N,GND*%
X132054600Y-94550800D03*
%TO.P,U3,3,RFIN*%
%TO.N,Net-(C5-Pad2)*%
X131554600Y-94550800D03*
%TO.P,U3,4,RFOUT*%
%TO.N,Net-(C8-Pad1)*%
X131554600Y-96050800D03*
%TO.P,U3,5,GND*%
%TO.N,GND*%
X132054600Y-96050800D03*
%TO.P,U3,6,VCC*%
%TO.N,/3V3A*%
X132554600Y-96050800D03*
D11*
%TO.P,U3,7,EP*%
%TO.N,GND*%
X132054600Y-95300800D03*
%TD*%
D12*
%TO.P,R2,1*%
%TO.N,Net-(R2-Pad1)*%
X134008400Y-93599000D03*
%TO.P,R2,2*%
%TO.N,/3V3A*%
X135028400Y-93599000D03*
%TD*%
D13*
%TO.P,C12,1*%
%TO.N,GND*%
X134275000Y-101750000D03*
%TO.P,C12,2*%
%TO.N,/5VA*%
X134275000Y-103300000D03*
%TD*%
D14*
%TO.P,C6,1*%
%TO.N,/3V3A*%
X134973000Y-94640400D03*
%TO.P,C6,2*%
%TO.N,GND*%
X134013000Y-94640400D03*
%TD*%
D15*
%TO.P,C11,1*%
%TO.N,Net-(C11-Pad1)*%
X132075000Y-107425000D03*
%TO.P,C11,2*%
%TO.N,/receiver/RF_OUT*%
X132075000Y-108385000D03*
%TD*%
D16*
%TO.P,L2,1,1*%
%TO.N,Net-(IC2-Pad2)*%
X132006200Y-102150000D03*
%TO.P,L2,2,2*%
%TO.N,Net-(IC2-Pad3)*%
X131036200Y-102150000D03*
%TD*%
D17*
%TO.P,C41,1*%
%TO.N,/3V3A*%
X133413800Y-84250000D03*
%TO.P,C41,2*%
%TO.N,GND*%
X131863800Y-84250000D03*
%TD*%
D15*
%TO.P,C10,1*%
%TO.N,GND*%
X133625000Y-104515000D03*
%TO.P,C10,2*%
%TO.N,/5VA*%
X133625000Y-105475000D03*
%TD*%
D13*
%TO.P,C42,1*%
%TO.N,/5VA*%
X134925000Y-82725000D03*
%TO.P,C42,2*%
%TO.N,GND*%
X134925000Y-84275000D03*
%TD*%
D15*
%TO.P,C4,1*%
%TO.N,GND*%
X129850000Y-90995000D03*
%TO.P,C4,2*%
%TO.N,/receiver/RX*%
X129850000Y-91955000D03*
%TD*%
D18*
%TO.P,H2,1,1*%
%TO.N,GND*%
X134075000Y-65786000D03*
D19*
X134075000Y-65786000D03*
%TD*%
D20*
%TO.P,L1,1,1*%
%TO.N,Net-(C8-Pad2)*%
X131902200Y-100149800D03*
%TO.P,L1,2,2*%
%TO.N,Net-(IC2-Pad2)*%
X131902200Y-101119800D03*
%TD*%
D15*
%TO.P,C8,1*%
%TO.N,Net-(C8-Pad1)*%
X131673600Y-97259200D03*
%TO.P,C8,2*%
%TO.N,Net-(C8-Pad2)*%
X131673600Y-98219200D03*
%TD*%
D21*
%TO.P,R4,1*%
%TO.N,Net-(IC2-Pad6)*%
X130124200Y-106398600D03*
%TO.P,R4,2*%
%TO.N,/5VA*%
X130124200Y-107418600D03*
%TD*%
D14*
%TO.P,C1,1*%
%TO.N,/3V3A*%
X134973000Y-90678000D03*
%TO.P,C1,2*%
%TO.N,GND*%
X134013000Y-90678000D03*
%TD*%
D19*
%TO.P,H1,1,1*%
%TO.N,GND*%
X134075000Y-116128800D03*
D18*
X134075000Y-116128800D03*
%TD*%
D22*
%TO.P,J2,1,Pin_1*%
%TO.N,/3V3A*%
X134200000Y-80030000D03*
%TO.P,J2,2,Pin_2*%
%TO.N,GND*%
X130900000Y-77490000D03*
%TO.P,J2,3,Pin_3*%
%TO.N,/5VA*%
X134200000Y-74950000D03*
%TO.P,J2,4,Pin_4*%
%TO.N,GND*%
X130900000Y-72410000D03*
%TO.P,J2,5,Pin_5*%
%TO.N,/~EN1*%
X134200000Y-69870000D03*
%TD*%
D23*
%TO.P,J1,1,In*%
%TO.N,/receiver/RF_OUT*%
X132075000Y-109929800D03*
D24*
%TO.P,J1,2,Ext*%
%TO.N,GND*%
X133550000Y-111429800D03*
D23*
X132075000Y-112929800D03*
D24*
X130600000Y-111429800D03*
%TD*%
D25*
%TO.P,C5,2*%
%TO.N,Net-(C5-Pad2)*%
X131603822Y-93178822D03*
%TO.P,C5,1*%
%TO.N,/receiver/RX*%
X130925000Y-92500000D03*
%TD*%
D26*
%TO.P,IC2,1,N/C*%
%TO.N,GND*%
X132575000Y-103350000D03*
%TO.P,IC2,2,RFIN*%
%TO.N,Net-(IC2-Pad2)*%
X132075000Y-103350000D03*
%TO.P,IC2,3,VBIAS*%
%TO.N,Net-(IC2-Pad3)*%
X131575000Y-103350000D03*
%TO.P,IC2,4,RSET*%
%TO.N,Net-(IC2-Pad4)*%
X131075000Y-103350000D03*
%TO.P,IC2,5,~EN*%
%TO.N,/~EN1*%
X131075000Y-105250000D03*
%TO.P,IC2,6,VDD*%
%TO.N,Net-(IC2-Pad6)*%
X131575000Y-105250000D03*
%TO.P,IC2,7,RFOUT*%
%TO.N,Net-(C11-Pad1)*%
X132075000Y-105250000D03*
%TO.P,IC2,8,N/C*%
%TO.N,GND*%
X132575000Y-105250000D03*
D27*
%TO.P,IC2,9,EP*%
X131825000Y-104300000D03*
%TD*%
D14*
%TO.P,C9,1*%
%TO.N,GND*%
X132737800Y-99187000D03*
%TO.P,C9,2*%
%TO.N,Net-(C8-Pad2)*%
X131777800Y-99187000D03*
%TD*%
%TO.P,C2,1*%
%TO.N,/5VA*%
X135155000Y-100500000D03*
%TO.P,C2,2*%
%TO.N,GND*%
X134195000Y-100500000D03*
%TD*%
D28*
%TO.P,L3,1,1*%
%TO.N,Net-(C11-Pad1)*%
X132075000Y-106450000D03*
%TO.P,L3,2,2*%
%TO.N,/5VA*%
X133045000Y-106450000D03*
%TD*%
D21*
%TO.P,R3,1*%
%TO.N,Net-(IC2-Pad4)*%
X130022600Y-103477600D03*
%TO.P,R3,2*%
%TO.N,GND*%
X130022600Y-104497600D03*
%TD*%
D29*
%TO.P,AE1,1,A*%
%TO.N,/receiver/RX*%
X120601651Y-99700000D03*
D30*
X120601651Y-84150000D03*
D31*
X123301651Y-83050000D03*
D32*
X125901651Y-94500000D03*
D33*
X125901651Y-89350000D03*
D34*
X117950000Y-81450000D03*
D31*
X123301651Y-100800000D03*
D35*
X123301651Y-79200000D03*
X123301651Y-130000000D03*
D36*
X117950000Y-102400000D03*
D35*
X123301651Y-104650000D03*
X123301651Y-53850000D03*
D37*
X129001651Y-91950000D03*
%TD*%
D38*
%TO.N,GND*%
X134010400Y-90678000D03*
X132689600Y-105410000D03*
X132689600Y-103378000D03*
X129600000Y-100200000D03*
X133680200Y-94488001D03*
X134467600Y-102133400D03*
X131851400Y-78003400D03*
X133476999Y-97053400D03*
X130911600Y-109423200D03*
X130911600Y-108610399D03*
X132918200Y-100939599D03*
X130657600Y-100025201D03*
X130911600Y-107797600D03*
X130403601Y-104521000D03*
X132257800Y-112649000D03*
X134467600Y-101320601D03*
X130657600Y-96774001D03*
X130352800Y-93294200D03*
X133248400Y-110439199D03*
X133248400Y-111251999D03*
X132918200Y-101752400D03*
X130708400Y-91059000D03*
X129600000Y-102650000D03*
X133248400Y-107188000D03*
X134924800Y-84277200D03*
X131597400Y-95300800D03*
X129589347Y-92885112D03*
X132029200Y-104521000D03*
X130657600Y-99212400D03*
X133477000Y-97866200D03*
X130657600Y-95961200D03*
X132064064Y-92313064D03*
X133248400Y-112064800D03*
X130657600Y-98399602D03*
X129600000Y-98025000D03*
X131850000Y-72925000D03*
X134035800Y-95300800D03*
X132918200Y-100126800D03*
X131851400Y-76978400D03*
X133248400Y-109626398D03*
X134289801Y-97866200D03*
X133654800Y-104521000D03*
X132689600Y-98526601D03*
X132842000Y-104521000D03*
X130835400Y-94005400D03*
X132562600Y-92964001D03*
X132410200Y-95300800D03*
X130911600Y-110235998D03*
X129600000Y-104300000D03*
X131325000Y-84250000D03*
X130657600Y-97586801D03*
X134289800Y-97053400D03*
X133248400Y-108000799D03*
X130911600Y-111048799D03*
X130657600Y-100838000D03*
X135102598Y-97053400D03*
X132918200Y-102565198D03*
X129600000Y-95325000D03*
X133222999Y-95300800D03*
X132664200Y-96901000D03*
X129590800Y-91059000D03*
X133248400Y-108813600D03*
X132562600Y-93776800D03*
X130835400Y-94843600D03*
X132689600Y-99339400D03*
X131850000Y-71900000D03*
X135102600Y-97866200D03*
X130911600Y-111861599D03*
X131216401Y-104521000D03*
X132689600Y-97713800D03*
X131489327Y-91738327D03*
X134467600Y-99695002D03*
X131445002Y-112649000D03*
X134467600Y-100507800D03*
%TO.N,/receiver/RX*%
X123300000Y-104650000D03*
X123300000Y-79200000D03*
X123300000Y-130000000D03*
X123300000Y-53850000D03*
%TO.N,/5VA*%
X130200000Y-107416600D03*
X133629400Y-105638600D03*
%TO.N,/~EN1*%
X130759200Y-105333800D03*
X135128000Y-70383400D03*
%TD*%
D39*
%TO.N,/~EN1*%
X130843000Y-105250000D02*
X131075000Y-105250000D01*
X130759200Y-105333800D02*
X130843000Y-105250000D01*
%TO.N,GND*%
X134459800Y-100500000D02*
X134467600Y-100507800D01*
X134195000Y-100500000D02*
X134459800Y-100500000D01*
D40*
%TO.N,Net-(IC2-Pad3)*%
X131036200Y-102486600D02*
X131036200Y-102150000D01*
X131575000Y-103025400D02*
X131036200Y-102486600D01*
X131575000Y-103350000D02*
X131575000Y-103025400D01*
%TO.N,Net-(C8-Pad1)*%
X131554600Y-97140200D02*
X131673600Y-97259200D01*
X131554600Y-96050800D02*
X131554600Y-97140200D01*
D41*
%TO.N,/3V3A*%
X135001000Y-85837200D02*
X133413800Y-84250000D01*
X135001000Y-90650000D02*
X135001000Y-85837200D01*
X134973000Y-90678000D02*
X135001000Y-90650000D01*
D39*
%TO.N,Net-(R2-Pad1)*%
X133830600Y-93776800D02*
X134008400Y-93599000D01*
X133343650Y-93776800D02*
X133830600Y-93776800D01*
X132554600Y-94550800D02*
X132569650Y-94550800D01*
X132569650Y-94550800D02*
X133343650Y-93776800D01*
D41*
%TO.N,/3V3A*%
X135028400Y-94585000D02*
X134973000Y-94640400D01*
X135028400Y-93599000D02*
X135028400Y-94585000D01*
X134973000Y-90678000D02*
X135001000Y-90706000D01*
X135001000Y-90706000D02*
X135001000Y-93571600D01*
X135001000Y-93571600D02*
X135028400Y-93599000D01*
%TO.N,GND*%
X134925000Y-84277000D02*
X134925000Y-84275000D01*
X130900000Y-77490000D02*
X131340000Y-77490000D01*
X130900000Y-72410000D02*
X131335000Y-72410000D01*
X130901400Y-77488400D02*
X131336400Y-77488400D01*
X134924800Y-84277200D02*
X134925000Y-84277000D01*
X130901400Y-77488400D02*
X131341400Y-77488400D01*
X130900000Y-72410000D02*
X131340000Y-72410000D01*
X131335000Y-72410000D02*
X131850000Y-72925000D01*
X131340000Y-72410000D02*
X131850000Y-71900000D01*
X131336400Y-77488400D02*
X131851400Y-78003400D01*
X131863800Y-84250000D02*
X131325000Y-84250000D01*
X131341400Y-77488400D02*
X131851400Y-76978400D01*
X130900000Y-77490000D02*
X131335000Y-77490000D01*
D39*
X134275000Y-100580000D02*
X134195000Y-100500000D01*
D41*
X129845000Y-91000000D02*
X129850000Y-90995000D01*
D40*
%TO.N,/receiver/RX*%
X130380000Y-91955000D02*
X130925000Y-92500000D01*
X129001651Y-91950000D02*
X129845000Y-91950000D01*
X129845000Y-91950000D02*
X129850000Y-91955000D01*
X129850000Y-91955000D02*
X130380000Y-91955000D01*
%TO.N,Net-(C5-Pad2)*%
X131554600Y-94550800D02*
X131554600Y-93228044D01*
X131554600Y-93228044D02*
X131603822Y-93178822D01*
%TO.N,Net-(C8-Pad2)*%
X131902200Y-100149800D02*
X131777800Y-100025400D01*
X131673600Y-98219200D02*
X131777800Y-98323400D01*
X131777800Y-98323400D02*
X131777800Y-99187000D01*
X131777800Y-100025400D02*
X131777800Y-99187000D01*
%TO.N,Net-(C11-Pad1)*%
X132075000Y-107425000D02*
X132075000Y-106450000D01*
X132075000Y-105250000D02*
X132075000Y-106450000D01*
%TO.N,/receiver/RF_OUT*%
X132075000Y-108385000D02*
X132075000Y-109929800D01*
D41*
%TO.N,/5VA*%
X135763000Y-83563000D02*
X135763000Y-99892000D01*
X134925000Y-82725000D02*
X135763000Y-83563000D01*
X130124200Y-107418600D02*
X130126200Y-107416600D01*
X135763000Y-99892000D02*
X135155000Y-100500000D01*
X133629400Y-105638600D02*
X133625000Y-105634200D01*
X134350000Y-74950000D02*
X135763000Y-76363000D01*
X135155000Y-102420000D02*
X134275000Y-103300000D01*
X133045000Y-106223000D02*
X133045000Y-106450000D01*
X135155000Y-100500000D02*
X135155000Y-102420000D01*
X134340600Y-103365600D02*
X134275000Y-103300000D01*
X133625000Y-105634200D02*
X133625000Y-105475000D01*
X134200000Y-74950000D02*
X134350000Y-74950000D01*
X130126200Y-107416600D02*
X130200000Y-107416600D01*
X134340600Y-104902000D02*
X134340600Y-103365600D01*
X135763000Y-81887000D02*
X134925000Y-82725000D01*
X135763000Y-76363000D02*
X135763000Y-81887000D01*
X133767600Y-105475000D02*
X134340600Y-104902000D01*
X133625000Y-105475000D02*
X133767600Y-105475000D01*
X133629400Y-105638600D02*
X133045000Y-106223000D01*
D40*
%TO.N,Net-(IC2-Pad2)*%
X132006200Y-102150000D02*
X132075000Y-102218800D01*
X131902200Y-101119800D02*
X132006200Y-101223800D01*
X132075000Y-102218800D02*
X132075000Y-103350000D01*
X132006200Y-101223800D02*
X132006200Y-102150000D01*
D39*
%TO.N,Net-(IC2-Pad4)*%
X130150200Y-103350000D02*
X130022600Y-103477600D01*
X131075000Y-103350000D02*
X130150200Y-103350000D01*
%TO.N,/~EN1*%
X135128000Y-70383400D02*
X134614600Y-69870000D01*
X134614600Y-69870000D02*
X134200000Y-69870000D01*
%TO.N,Net-(IC2-Pad6)*%
X130634200Y-106398600D02*
X131575000Y-105457800D01*
X130124200Y-106398600D02*
X130634200Y-106398600D01*
X131575000Y-105457800D02*
X131575000Y-105250000D01*
D41*
%TO.N,/3V3A*%
X134973000Y-94640400D02*
X135001000Y-94668400D01*
X133425000Y-84250000D02*
X133413800Y-84250000D01*
X134200000Y-80030000D02*
X133965000Y-80030000D01*
X133965000Y-80030000D02*
X133604000Y-80391000D01*
X133604000Y-80391000D02*
X133604000Y-84059800D01*
X135001000Y-94668400D02*
X135001000Y-96164400D01*
X133604000Y-84059800D02*
X133413800Y-84250000D01*
%TD*%
%TA.AperFunction,Conductor*%
%TO.N,/3V3A*%
G36*
X135197121Y-95879602D02*
G01*
X135243614Y-95933258D01*
X135255000Y-95985600D01*
X135255000Y-96292400D01*
X135234998Y-96360521D01*
X135181342Y-96407014D01*
X135129000Y-96418400D01*
X132587000Y-96418400D01*
X132518879Y-96398398D01*
X132472386Y-96344742D01*
X132461000Y-96292400D01*
X132461000Y-95985600D01*
X132481002Y-95917479D01*
X132534658Y-95870986D01*
X132587000Y-95859600D01*
X135129000Y-95859600D01*
X135197121Y-95879602D01*
G37*
%TD.AperFunction*%
%TD*%
%TA.AperFunction,Conductor*%
%TO.N,GND*%
G36*
X136241866Y-63898313D02*
G01*
X136267176Y-63942150D01*
X136268300Y-63955000D01*
X136268300Y-76095655D01*
X136250987Y-76143221D01*
X136207150Y-76168531D01*
X136157300Y-76159741D01*
X136127593Y-76127688D01*
X136125476Y-76123279D01*
X136125475Y-76123278D01*
X136123080Y-76118290D01*
X136119574Y-76114497D01*
X136119202Y-76113874D01*
X136117163Y-76110849D01*
X136115216Y-76107100D01*
X136111102Y-76102284D01*
X136074869Y-76066051D01*
X136072855Y-76063956D01*
X136038961Y-76027289D01*
X136035208Y-76023229D01*
X136030427Y-76020452D01*
X136027793Y-76018342D01*
X136021734Y-76012916D01*
X135352174Y-75343355D01*
X135330782Y-75297478D01*
X135330500Y-75291029D01*
X135330499Y-74435865D01*
X135330499Y-74432224D01*
X135320027Y-74379572D01*
X135280133Y-74319867D01*
X135220428Y-74279973D01*
X135213283Y-74278552D01*
X135213281Y-74278551D01*
X135171347Y-74270210D01*
X135171346Y-74270210D01*
X135167777Y-74269500D01*
X134200133Y-74269500D01*
X133232224Y-74269501D01*
X133179572Y-74279973D01*
X133119867Y-74319867D01*
X133079973Y-74379572D01*
X133078552Y-74386717D01*
X133078551Y-74386719D01*
X133070210Y-74428653D01*
X133069500Y-74432223D01*
X133069501Y-75467776D01*
X133079973Y-75520428D01*
X133119867Y-75580133D01*
X133179572Y-75620027D01*
X133186717Y-75621448D01*
X133186719Y-75621449D01*
X133228653Y-75629790D01*
X133228654Y-75629790D01*
X133232223Y-75630500D01*
X133358481Y-75630500D01*
X134391028Y-75630499D01*
X134438594Y-75647812D01*
X134443354Y-75652173D01*
X135310826Y-76519645D01*
X135332218Y-76565521D01*
X135332500Y-76571971D01*
X135332500Y-79297185D01*
X135315187Y-79344751D01*
X135271350Y-79370061D01*
X135230181Y-79365552D01*
X135226488Y-79364023D01*
X135220428Y-79359973D01*
X135204255Y-79356756D01*
X135171347Y-79350210D01*
X135171346Y-79350210D01*
X135167777Y-79349500D01*
X134200133Y-79349500D01*
X133232224Y-79349501D01*
X133179572Y-79359973D01*
X133173513Y-79364022D01*
X133173512Y-79364022D01*
X133164474Y-79370061D01*
X133119867Y-79399867D01*
X133079973Y-79459572D01*
X133069500Y-79512223D01*
X133069501Y-80547776D01*
X133079973Y-80600428D01*
X133119867Y-80660133D01*
X133140613Y-80673995D01*
X133170544Y-80714816D01*
X133173500Y-80735523D01*
X133173500Y-83528666D01*
X133156187Y-83576232D01*
X133111077Y-83601755D01*
X133091618Y-83604837D01*
X133061932Y-83609539D01*
X133056744Y-83612182D01*
X133056742Y-83612183D01*
X132952668Y-83665211D01*
X132952665Y-83665213D01*
X132947482Y-83667854D01*
X132856654Y-83758682D01*
X132854013Y-83763865D01*
X132854011Y-83763868D01*
X132800983Y-83867942D01*
X132798339Y-83873132D01*
X132783300Y-83968084D01*
X132783300Y-84531916D01*
X132798339Y-84626868D01*
X132800982Y-84632056D01*
X132800983Y-84632058D01*
X132854011Y-84736132D01*
X132854013Y-84736135D01*
X132856654Y-84741318D01*
X132947482Y-84832146D01*
X132952665Y-84834787D01*
X132952668Y-84834789D01*
X133056742Y-84887817D01*
X133056744Y-84887818D01*
X133061932Y-84890461D01*
X133156884Y-84905500D01*
X133429829Y-84905500D01*
X133477395Y-84922813D01*
X133482155Y-84927174D01*
X134548826Y-85993845D01*
X134570218Y-86039721D01*
X134570500Y-86046171D01*
X134570500Y-90296160D01*
X134563567Y-90327434D01*
X134518645Y-90423769D01*
X134512500Y-90470446D01*
X134512500Y-90885554D01*
X134518645Y-90932231D01*
X134521038Y-90937362D01*
X134563567Y-91028566D01*
X134570500Y-91059840D01*
X134570500Y-93249589D01*
X134553187Y-93297155D01*
X134509350Y-93322465D01*
X134459500Y-93313675D01*
X134429433Y-93280863D01*
X134408565Y-93236111D01*
X134408563Y-93236108D01*
X134405829Y-93230245D01*
X134327155Y-93151571D01*
X134226317Y-93104549D01*
X134180369Y-93098500D01*
X134008471Y-93098500D01*
X133836432Y-93098501D01*
X133834025Y-93098818D01*
X133834022Y-93098818D01*
X133796095Y-93103810D01*
X133796093Y-93103811D01*
X133790483Y-93104549D01*
X133785356Y-93106940D01*
X133785355Y-93106940D01*
X133785351Y-93106942D01*
X133689645Y-93151571D01*
X133610971Y-93230245D01*
X133563949Y-93331083D01*
X133557900Y-93377031D01*
X133557900Y-93397300D01*
X133540587Y-93444866D01*
X133496750Y-93470176D01*
X133483900Y-93471300D01*
X133399183Y-93471300D01*
X133393549Y-93470886D01*
X133389051Y-93469342D01*
X133382227Y-93469598D01*
X133382226Y-93469598D01*
X133338286Y-93471248D01*
X133335510Y-93471300D01*
X133315236Y-93471300D01*
X133311883Y-93471925D01*
X133308491Y-93472238D01*
X133308474Y-93472058D01*
X133304340Y-93472523D01*
X133275323Y-93473612D01*
X133269045Y-93476309D01*
X133269046Y-93476309D01*
X133261847Y-93479402D01*
X133246183Y-93484161D01*
X133231766Y-93486846D01*
X133225949Y-93490432D01*
X133225948Y-93490432D01*
X133207052Y-93502080D01*
X133197443Y-93507072D01*
X133170757Y-93518537D01*
X133165792Y-93522616D01*
X133159150Y-93529258D01*
X133145655Y-93539925D01*
X133134885Y-93546564D01*
X133130749Y-93552003D01*
X133115830Y-93571622D01*
X133109252Y-93579156D01*
X132539781Y-94148627D01*
X132493905Y-94170019D01*
X132487455Y-94170301D01*
X132436824Y-94170301D01*
X132384172Y-94180773D01*
X132324467Y-94220667D01*
X132284573Y-94280372D01*
X132283152Y-94287517D01*
X132283151Y-94287519D01*
X132277339Y-94316740D01*
X132274100Y-94333023D01*
X132274100Y-94410487D01*
X132271180Y-94431069D01*
X132245291Y-94520472D01*
X132255111Y-94633856D01*
X132266584Y-94657326D01*
X132274101Y-94689822D01*
X132274101Y-94768576D01*
X132284573Y-94821228D01*
X132288621Y-94827286D01*
X132288622Y-94827288D01*
X132302431Y-94847954D01*
X132324467Y-94880933D01*
X132384172Y-94920827D01*
X132391317Y-94922248D01*
X132391319Y-94922249D01*
X132433253Y-94930590D01*
X132433254Y-94930590D01*
X132436823Y-94931300D01*
X132554583Y-94931300D01*
X132672376Y-94931299D01*
X132725028Y-94920827D01*
X132784733Y-94880933D01*
X132824627Y-94821228D01*
X132826050Y-94814078D01*
X132834390Y-94772147D01*
X132834390Y-94772146D01*
X132835100Y-94768577D01*
X132835100Y-94748044D01*
X132852413Y-94700478D01*
X132856774Y-94695718D01*
X133448519Y-94103974D01*
X133494396Y-94082582D01*
X133500845Y-94082300D01*
X133750164Y-94082300D01*
X133781439Y-94089234D01*
X133785350Y-94091058D01*
X133785353Y-94091059D01*
X133790483Y-94093451D01*
X133836431Y-94099500D01*
X134008329Y-94099500D01*
X134180368Y-94099499D01*
X134182775Y-94099182D01*
X134182778Y-94099182D01*
X134220705Y-94094190D01*
X134220707Y-94094189D01*
X134226317Y-94093451D01*
X134231444Y-94091060D01*
X134231445Y-94091060D01*
X134266608Y-94074663D01*
X134327155Y-94046429D01*
X134405829Y-93967755D01*
X134451333Y-93870172D01*
X134487126Y-93834379D01*
X134537553Y-93829968D01*
X134579017Y-93859001D01*
X134585467Y-93870173D01*
X134590967Y-93881968D01*
X134597900Y-93913241D01*
X134597900Y-94221593D01*
X134580587Y-94269159D01*
X134576226Y-94273919D01*
X134566412Y-94283733D01*
X134518645Y-94386169D01*
X134512500Y-94432846D01*
X134512500Y-94847954D01*
X134518645Y-94894631D01*
X134531524Y-94922249D01*
X134563567Y-94990966D01*
X134570500Y-95022240D01*
X134570500Y-95600100D01*
X134553187Y-95647666D01*
X134509350Y-95672976D01*
X134496500Y-95674100D01*
X132698769Y-95674100D01*
X132684332Y-95672678D01*
X132675947Y-95671010D01*
X132675946Y-95671010D01*
X132672377Y-95670300D01*
X132554617Y-95670300D01*
X132436824Y-95670301D01*
X132384172Y-95680773D01*
X132324467Y-95720667D01*
X132284573Y-95780372D01*
X132274100Y-95833023D01*
X132274101Y-96268576D01*
X132274811Y-96272148D01*
X132275144Y-96275524D01*
X132275500Y-96282778D01*
X132275500Y-96292400D01*
X132279739Y-96331830D01*
X132291125Y-96384172D01*
X132332194Y-96466218D01*
X132378687Y-96519874D01*
X132389890Y-96531710D01*
X132394467Y-96534375D01*
X132457615Y-96571142D01*
X132466618Y-96576384D01*
X132470911Y-96577644D01*
X132470912Y-96577645D01*
X132528704Y-96594614D01*
X132534739Y-96596386D01*
X132587000Y-96603900D01*
X132692048Y-96603900D01*
X132739614Y-96621213D01*
X132744374Y-96625574D01*
X132943600Y-96824800D01*
X135255000Y-96824800D01*
X135255000Y-96827989D01*
X135283808Y-96827988D01*
X135322585Y-96860524D01*
X135332500Y-96897526D01*
X135332500Y-99683029D01*
X135315187Y-99730595D01*
X135310826Y-99735355D01*
X135058355Y-99987826D01*
X135012479Y-100009218D01*
X135006029Y-100009500D01*
X134977446Y-100009500D01*
X134930769Y-100015645D01*
X134828333Y-100063412D01*
X134748412Y-100143333D01*
X134700645Y-100245769D01*
X134694500Y-100292446D01*
X134694500Y-100707554D01*
X134700645Y-100754231D01*
X134703038Y-100759362D01*
X134717567Y-100790520D01*
X134724500Y-100821794D01*
X134724500Y-102211029D01*
X134707187Y-102258595D01*
X134702826Y-102263355D01*
X134318355Y-102647826D01*
X134272479Y-102669218D01*
X134266029Y-102669500D01*
X133993084Y-102669500D01*
X133898132Y-102684539D01*
X133892944Y-102687182D01*
X133892942Y-102687183D01*
X133788868Y-102740211D01*
X133788865Y-102740213D01*
X133783682Y-102742854D01*
X133692854Y-102833682D01*
X133690213Y-102838865D01*
X133690211Y-102838868D01*
X133674349Y-102870000D01*
X133634539Y-102948132D01*
X133619500Y-103043084D01*
X133619500Y-103556916D01*
X133634539Y-103651868D01*
X133637182Y-103657056D01*
X133637183Y-103657058D01*
X133690211Y-103761132D01*
X133690213Y-103761135D01*
X133692854Y-103766318D01*
X133783682Y-103857146D01*
X133788868Y-103859788D01*
X133788873Y-103859792D01*
X133869695Y-103900973D01*
X133904217Y-103937993D01*
X133910100Y-103966907D01*
X133910100Y-104693029D01*
X133892787Y-104740595D01*
X133888426Y-104745355D01*
X133640955Y-104992826D01*
X133595079Y-105014218D01*
X133588629Y-105014500D01*
X133417446Y-105014500D01*
X133370769Y-105020645D01*
X133268333Y-105068412D01*
X133188412Y-105148333D01*
X133140645Y-105250769D01*
X133134500Y-105297446D01*
X133134500Y-105494029D01*
X133117187Y-105541595D01*
X133112826Y-105546355D01*
X132761771Y-105897410D01*
X132755259Y-105903196D01*
X132753383Y-105904675D01*
X132705311Y-105920529D01*
X132658295Y-105901773D01*
X132640298Y-105877395D01*
X132467729Y-105500881D01*
X132461000Y-105470049D01*
X132461000Y-105003600D01*
X132381086Y-104859754D01*
X132340337Y-104786406D01*
X132340336Y-104786405D01*
X132334000Y-104775000D01*
X131622800Y-104775000D01*
X131619449Y-104783994D01*
X131616498Y-104788175D01*
X131574924Y-104817051D01*
X131556044Y-104819500D01*
X131443996Y-104819501D01*
X131432224Y-104819501D01*
X131379572Y-104829973D01*
X131373514Y-104834021D01*
X131373511Y-104834022D01*
X131366113Y-104838966D01*
X131316945Y-104850998D01*
X131283887Y-104838966D01*
X131276487Y-104834021D01*
X131276485Y-104834020D01*
X131270428Y-104829973D01*
X131263283Y-104828552D01*
X131263281Y-104828551D01*
X131221347Y-104820210D01*
X131221346Y-104820210D01*
X131217777Y-104819500D01*
X131075020Y-104819500D01*
X130932224Y-104819501D01*
X130879572Y-104829973D01*
X130873514Y-104834021D01*
X130873512Y-104834022D01*
X130855884Y-104845801D01*
X130819867Y-104869867D01*
X130815817Y-104875928D01*
X130810664Y-104881081D01*
X130808726Y-104879143D01*
X130777589Y-104901966D01*
X130761131Y-104904315D01*
X130759200Y-104904009D01*
X130626387Y-104925044D01*
X130506575Y-104986092D01*
X130411492Y-105081175D01*
X130350444Y-105200987D01*
X130329409Y-105333800D01*
X130350444Y-105466613D01*
X130411492Y-105586425D01*
X130506575Y-105681508D01*
X130626387Y-105742556D01*
X130679462Y-105750962D01*
X130683061Y-105751532D01*
X130727333Y-105776072D01*
X130745474Y-105823329D01*
X130728994Y-105871190D01*
X130723811Y-105876947D01*
X130598597Y-106002161D01*
X130552721Y-106023553D01*
X130503826Y-106010452D01*
X130501689Y-106008659D01*
X130497532Y-106005748D01*
X130492955Y-106001171D01*
X130392117Y-105954149D01*
X130346169Y-105948100D01*
X130124292Y-105948100D01*
X129902232Y-105948101D01*
X129899825Y-105948418D01*
X129899822Y-105948418D01*
X129861895Y-105953410D01*
X129861893Y-105953411D01*
X129856283Y-105954149D01*
X129851156Y-105956540D01*
X129851155Y-105956540D01*
X129851151Y-105956542D01*
X129755445Y-106001171D01*
X129676771Y-106079845D01*
X129629749Y-106180683D01*
X129623700Y-106226631D01*
X129623701Y-106570568D01*
X129624018Y-106572975D01*
X129624018Y-106572978D01*
X129627081Y-106596244D01*
X129629749Y-106616517D01*
X129632140Y-106621644D01*
X129632140Y-106621645D01*
X129646069Y-106651516D01*
X129676771Y-106717355D01*
X129755445Y-106796029D01*
X129802802Y-106818112D01*
X129853028Y-106841533D01*
X129888821Y-106877326D01*
X129893232Y-106927753D01*
X129864199Y-106969217D01*
X129853029Y-106975666D01*
X129755445Y-107021171D01*
X129676771Y-107099845D01*
X129629749Y-107200683D01*
X129623700Y-107246631D01*
X129623701Y-107590568D01*
X129629749Y-107636517D01*
X129632140Y-107641644D01*
X129632140Y-107641645D01*
X129648537Y-107676808D01*
X129676771Y-107737355D01*
X129755445Y-107816029D01*
X129856283Y-107863051D01*
X129902231Y-107869100D01*
X130124108Y-107869100D01*
X130346168Y-107869099D01*
X130348575Y-107868782D01*
X130348578Y-107868782D01*
X130386505Y-107863790D01*
X130386507Y-107863789D01*
X130392117Y-107863051D01*
X130397244Y-107860660D01*
X130397245Y-107860660D01*
X130432408Y-107844263D01*
X130492955Y-107816029D01*
X130571629Y-107737355D01*
X130618651Y-107636517D01*
X130624700Y-107590569D01*
X130624700Y-107499436D01*
X130626611Y-107482727D01*
X130632772Y-107456147D01*
X130632772Y-107456146D01*
X130634021Y-107450758D01*
X130624884Y-107321712D01*
X130624699Y-107316488D01*
X130624699Y-107246632D01*
X130618651Y-107200683D01*
X130616259Y-107195552D01*
X130574364Y-107105711D01*
X130571629Y-107099845D01*
X130492955Y-107021171D01*
X130395372Y-106975667D01*
X130359579Y-106939874D01*
X130355168Y-106889447D01*
X130384201Y-106847983D01*
X130395372Y-106841533D01*
X130445598Y-106818112D01*
X130492955Y-106796029D01*
X130562164Y-106726820D01*
X130611713Y-106705198D01*
X130636586Y-106704264D01*
X130639565Y-106704152D01*
X130642340Y-106704100D01*
X130662614Y-106704100D01*
X130665967Y-106703475D01*
X130669359Y-106703162D01*
X130669376Y-106703342D01*
X130673510Y-106702877D01*
X130702527Y-106701788D01*
X130716004Y-106695998D01*
X130731667Y-106691239D01*
X130746084Y-106688554D01*
X130770801Y-106673319D01*
X130780407Y-106668328D01*
X130807093Y-106656863D01*
X130812058Y-106652784D01*
X130818700Y-106646142D01*
X130832196Y-106635474D01*
X130837149Y-106632421D01*
X130842965Y-106628836D01*
X130862020Y-106603778D01*
X130868598Y-106596244D01*
X131013874Y-106450968D01*
X131059750Y-106429576D01*
X131108645Y-106442677D01*
X131137679Y-106484141D01*
X131140200Y-106503294D01*
X131140200Y-112420400D01*
X133019800Y-112420400D01*
X133019800Y-107024500D01*
X133037113Y-106976934D01*
X133080950Y-106951624D01*
X133093800Y-106950500D01*
X133230934Y-106950500D01*
X133278702Y-106944211D01*
X133383535Y-106895327D01*
X133465327Y-106813535D01*
X133514211Y-106708702D01*
X133520500Y-106660934D01*
X133520500Y-106386971D01*
X133537813Y-106339405D01*
X133542174Y-106334645D01*
X133892931Y-105983888D01*
X133906097Y-105973425D01*
X133912146Y-105969653D01*
X133915771Y-105965475D01*
X133915775Y-105965472D01*
X133943110Y-105933971D01*
X133946675Y-105930144D01*
X133954723Y-105922097D01*
X133954729Y-105922090D01*
X133956681Y-105920138D01*
X133963926Y-105910328D01*
X133967549Y-105905807D01*
X133993360Y-105876063D01*
X133993362Y-105876059D01*
X133996989Y-105871880D01*
X133999227Y-105866818D01*
X133999696Y-105866079D01*
X134009851Y-105853404D01*
X134061588Y-105801667D01*
X134065386Y-105793522D01*
X134082222Y-105770455D01*
X134107371Y-105747208D01*
X134110149Y-105742426D01*
X134112259Y-105739792D01*
X134117684Y-105733735D01*
X134623829Y-105227590D01*
X134630342Y-105221803D01*
X134653622Y-105203451D01*
X134653624Y-105203449D01*
X134657966Y-105200026D01*
X134690277Y-105153276D01*
X134691606Y-105151416D01*
X134693884Y-105148333D01*
X134725358Y-105105720D01*
X134727071Y-105100843D01*
X134727327Y-105100321D01*
X134728374Y-105098268D01*
X134728631Y-105097783D01*
X134731568Y-105093533D01*
X134735477Y-105081175D01*
X134748704Y-105039350D01*
X134749440Y-105037145D01*
X134766418Y-104988799D01*
X134766418Y-104988798D01*
X134768251Y-104983579D01*
X134768454Y-104978420D01*
X134768635Y-104977702D01*
X134769331Y-104974127D01*
X134770603Y-104970106D01*
X134771100Y-104963791D01*
X134771100Y-104912532D01*
X134771157Y-104909626D01*
X134773117Y-104859754D01*
X134773117Y-104859752D01*
X134773334Y-104854226D01*
X134771916Y-104848879D01*
X134771547Y-104845536D01*
X134771100Y-104837415D01*
X134771100Y-103883016D01*
X134788413Y-103835450D01*
X134792774Y-103830690D01*
X134857146Y-103766318D01*
X134859787Y-103761135D01*
X134859789Y-103761132D01*
X134912817Y-103657058D01*
X134912818Y-103657056D01*
X134915461Y-103651868D01*
X134930500Y-103556916D01*
X134930500Y-103283971D01*
X134947813Y-103236405D01*
X134952174Y-103231645D01*
X135438229Y-102745590D01*
X135444742Y-102739803D01*
X135468022Y-102721451D01*
X135468024Y-102721449D01*
X135472366Y-102718026D01*
X135504668Y-102671289D01*
X135505999Y-102669428D01*
X135536473Y-102628170D01*
X135536475Y-102628166D01*
X135539759Y-102623720D01*
X135541472Y-102618843D01*
X135541716Y-102618344D01*
X135542781Y-102616254D01*
X135543032Y-102615781D01*
X135545968Y-102611533D01*
X135563100Y-102557363D01*
X135563836Y-102555159D01*
X135580817Y-102506804D01*
X135580818Y-102506799D01*
X135582651Y-102501579D01*
X135582854Y-102496419D01*
X135583037Y-102495695D01*
X135583733Y-102492122D01*
X135585003Y-102488106D01*
X135585500Y-102481791D01*
X135585500Y-102430547D01*
X135585557Y-102427641D01*
X135587518Y-102377753D01*
X135587518Y-102377751D01*
X135587735Y-102372226D01*
X135586317Y-102366879D01*
X135585947Y-102363527D01*
X135585500Y-102355406D01*
X135585500Y-100821794D01*
X135592433Y-100790520D01*
X135606962Y-100759362D01*
X135609355Y-100754231D01*
X135615500Y-100707554D01*
X135615500Y-100678971D01*
X135632813Y-100631405D01*
X135637174Y-100626645D01*
X136046229Y-100217590D01*
X136052742Y-100211803D01*
X136076022Y-100193451D01*
X136076024Y-100193449D01*
X136080366Y-100190026D01*
X136112672Y-100143283D01*
X136114003Y-100141421D01*
X136115972Y-100138756D01*
X136124141Y-100127696D01*
X136134777Y-100113296D01*
X136176963Y-100085322D01*
X136227262Y-100091008D01*
X136262137Y-100127696D01*
X136268300Y-100157262D01*
X136268300Y-117959800D01*
X136250987Y-118007366D01*
X136207150Y-118032676D01*
X136194300Y-118033800D01*
X133058466Y-118033800D01*
X133010900Y-118016487D01*
X132997719Y-118002059D01*
X132968322Y-117959800D01*
X129375453Y-112795051D01*
X129362200Y-112752792D01*
X129362200Y-103305631D01*
X129522100Y-103305631D01*
X129522101Y-103649568D01*
X129522418Y-103651975D01*
X129522418Y-103651978D01*
X129527211Y-103688388D01*
X129528149Y-103695517D01*
X129575171Y-103796355D01*
X129653845Y-103875029D01*
X129754683Y-103922051D01*
X129800631Y-103928100D01*
X130022508Y-103928100D01*
X130244568Y-103928099D01*
X130246975Y-103927782D01*
X130246978Y-103927782D01*
X130284905Y-103922790D01*
X130284907Y-103922789D01*
X130290517Y-103922051D01*
X130295644Y-103919660D01*
X130295645Y-103919660D01*
X130335718Y-103900973D01*
X130391355Y-103875029D01*
X130470029Y-103796355D01*
X130472763Y-103790492D01*
X130472765Y-103790489D01*
X130515788Y-103698226D01*
X130551582Y-103662433D01*
X130582855Y-103655500D01*
X130730445Y-103655500D01*
X130778011Y-103672813D01*
X130791972Y-103688386D01*
X130819867Y-103730133D01*
X130879572Y-103770027D01*
X130886717Y-103771448D01*
X130886719Y-103771449D01*
X130928653Y-103779790D01*
X130928654Y-103779790D01*
X130932223Y-103780500D01*
X130945559Y-103780500D01*
X131124026Y-103780499D01*
X131171591Y-103797811D01*
X131191000Y-103825530D01*
X131191000Y-103835200D01*
X132384800Y-103835200D01*
X132461000Y-103759000D01*
X132461000Y-103129252D01*
X132478313Y-103081686D01*
X132482674Y-103076926D01*
X132689600Y-102870000D01*
X132689600Y-99669600D01*
X132482674Y-99462674D01*
X132461282Y-99416798D01*
X132461000Y-99410348D01*
X132461000Y-97028000D01*
X131974674Y-96541674D01*
X131953282Y-96495798D01*
X131953000Y-96489348D01*
X131953000Y-95605600D01*
X131064000Y-95605600D01*
X130886200Y-95783400D01*
X130886200Y-100908948D01*
X130868887Y-100956514D01*
X130864526Y-100961274D01*
X130276600Y-101549200D01*
X130276600Y-102463600D01*
X130534326Y-102721326D01*
X130555718Y-102767202D01*
X130556000Y-102773652D01*
X130556000Y-102970500D01*
X130538687Y-103018066D01*
X130494850Y-103043376D01*
X130482000Y-103044500D01*
X130331265Y-103044500D01*
X130299990Y-103037566D01*
X130295650Y-103035542D01*
X130295647Y-103035541D01*
X130290517Y-103033149D01*
X130244569Y-103027100D01*
X130022692Y-103027100D01*
X129800632Y-103027101D01*
X129798225Y-103027418D01*
X129798222Y-103027418D01*
X129760295Y-103032410D01*
X129760293Y-103032411D01*
X129754683Y-103033149D01*
X129749556Y-103035540D01*
X129749555Y-103035540D01*
X129732751Y-103043376D01*
X129653845Y-103080171D01*
X129575171Y-103158845D01*
X129528149Y-103259683D01*
X129522100Y-103305631D01*
X129362200Y-103305631D01*
X129362200Y-92733200D01*
X129379513Y-92685634D01*
X129423350Y-92660324D01*
X129436200Y-92659200D01*
X130017348Y-92659200D01*
X130064914Y-92676513D01*
X130069674Y-92680874D01*
X131042326Y-93653526D01*
X131063718Y-93699402D01*
X131064000Y-93705852D01*
X131064000Y-94818200D01*
X131241800Y-94996000D01*
X131775200Y-94996000D01*
X131953000Y-94818200D01*
X131953000Y-94358427D01*
X131965859Y-94316740D01*
X131984364Y-94289599D01*
X132334000Y-93776800D01*
X132334000Y-92913200D01*
X130708400Y-91287600D01*
X129436200Y-91287600D01*
X129388634Y-91270287D01*
X129363324Y-91226450D01*
X129362200Y-91213600D01*
X129362200Y-90579547D01*
X129362467Y-90573266D01*
X129946267Y-83719961D01*
X129946400Y-83718400D01*
X129946400Y-71919865D01*
X129950445Y-71895735D01*
X130424499Y-70521403D01*
X130827789Y-69352223D01*
X133069500Y-69352223D01*
X133069501Y-70387776D01*
X133079973Y-70440428D01*
X133119867Y-70500133D01*
X133179572Y-70540027D01*
X133186717Y-70541448D01*
X133186719Y-70541449D01*
X133228653Y-70549790D01*
X133228654Y-70549790D01*
X133232223Y-70550500D01*
X133344017Y-70550500D01*
X134691368Y-70550499D01*
X134738934Y-70567812D01*
X134757299Y-70590899D01*
X134780292Y-70636025D01*
X134875375Y-70731108D01*
X134995187Y-70792156D01*
X135128000Y-70813191D01*
X135260813Y-70792156D01*
X135380625Y-70731108D01*
X135475708Y-70636025D01*
X135478352Y-70630837D01*
X135483977Y-70619796D01*
X135536756Y-70516213D01*
X135557791Y-70383400D01*
X135536756Y-70250587D01*
X135475708Y-70130775D01*
X135380625Y-70035692D01*
X135370902Y-70030738D01*
X135336382Y-69993717D01*
X135330500Y-69964805D01*
X135330499Y-69355865D01*
X135330499Y-69352224D01*
X135320027Y-69299572D01*
X135280133Y-69239867D01*
X135220428Y-69199973D01*
X135213283Y-69198552D01*
X135213281Y-69198551D01*
X135171347Y-69190210D01*
X135171346Y-69190210D01*
X135167777Y-69189500D01*
X134200133Y-69189500D01*
X133232224Y-69189501D01*
X133179572Y-69199973D01*
X133119867Y-69239867D01*
X133079973Y-69299572D01*
X133078552Y-69306717D01*
X133078551Y-69306719D01*
X133070210Y-69348653D01*
X133069500Y-69352223D01*
X130827789Y-69352223D01*
X132697798Y-63930870D01*
X132729675Y-63891549D01*
X132767753Y-63881000D01*
X136194300Y-63881000D01*
X136241866Y-63898313D01*
G37*
%TD.AperFunction*%
%TA.AperFunction,Conductor*%
G36*
X135320912Y-80723057D02*
G01*
X135332500Y-80762815D01*
X135332500Y-81678029D01*
X135315187Y-81725595D01*
X135310826Y-81730355D01*
X134968355Y-82072826D01*
X134922479Y-82094218D01*
X134916029Y-82094500D01*
X134643084Y-82094500D01*
X134548132Y-82109539D01*
X134542944Y-82112182D01*
X134542942Y-82112183D01*
X134438868Y-82165211D01*
X134438865Y-82165213D01*
X134433682Y-82167854D01*
X134342854Y-82258682D01*
X134340213Y-82263865D01*
X134340211Y-82263868D01*
X134287183Y-82367942D01*
X134284539Y-82373132D01*
X134269500Y-82468084D01*
X134269500Y-82981916D01*
X134284539Y-83076868D01*
X134287182Y-83082056D01*
X134287183Y-83082058D01*
X134340211Y-83186132D01*
X134340213Y-83186135D01*
X134342854Y-83191318D01*
X134433682Y-83282146D01*
X134438865Y-83284787D01*
X134438868Y-83284789D01*
X134542942Y-83337817D01*
X134542944Y-83337818D01*
X134548132Y-83340461D01*
X134643084Y-83355500D01*
X134916029Y-83355500D01*
X134963595Y-83372813D01*
X134968355Y-83377174D01*
X135310826Y-83719645D01*
X135332218Y-83765521D01*
X135332500Y-83771971D01*
X135332500Y-85381230D01*
X135315187Y-85428796D01*
X135271350Y-85454106D01*
X135221500Y-85445316D01*
X135206174Y-85433556D01*
X134065974Y-84293355D01*
X134044582Y-84247478D01*
X134044300Y-84241029D01*
X134044300Y-83968084D01*
X134035411Y-83911962D01*
X134034500Y-83900386D01*
X134034500Y-80784500D01*
X134051813Y-80736934D01*
X134095650Y-80711624D01*
X134108500Y-80710500D01*
X135114631Y-80710499D01*
X135167776Y-80710499D01*
X135220428Y-80700027D01*
X135226490Y-80695976D01*
X135230183Y-80694447D01*
X135280754Y-80692241D01*
X135320912Y-80723057D01*
G37*
%TD.AperFunction*%
%TD*%
M02*
