%TF.GenerationSoftware,KiCad,Pcbnew,(6.0.4)*%
%TF.CreationDate,2023-05-22T00:35:00+09:00*%
%TF.ProjectId,Antenna,416e7465-6e6e-4612-9e6b-696361645f70,rev?*%
%TF.SameCoordinates,Original*%
%TF.FileFunction,Legend,Top*%
%TF.FilePolarity,Positive*%
%FSLAX46Y46*%
G04 Gerber Fmt 4.6, Leading zero omitted, Abs format (unit mm)*
G04 Created by KiCad (PCBNEW (6.0.4)) date 2023-05-22 00:35:00*
%MOMM*%
%LPD*%
G01*
G04 APERTURE LIST*
%ADD10C,0.160000*%
%ADD11C,0.120000*%
G04 APERTURE END LIST*
D10*
X134454923Y-97794819D02*
X134645400Y-97651961D01*
X134835876Y-97794819D01*
D11*
%TO.C,U3*%
X130954600Y-96750800D02*
X130954600Y-93850800D01*
X133154600Y-96750800D02*
X130954600Y-96750800D01*
X130954600Y-93850800D02*
X132354600Y-93850800D01*
X132354600Y-93850800D02*
X133154600Y-94650800D01*
X133154600Y-94650800D02*
X133154600Y-96750800D01*
%TO.C,R2*%
X134364759Y-93979000D02*
X134672041Y-93979000D01*
X134364759Y-93219000D02*
X134672041Y-93219000D01*
%TO.C,C12*%
X133765000Y-102384420D02*
X133765000Y-102665580D01*
X134785000Y-102384420D02*
X134785000Y-102665580D01*
%TO.C,C6*%
X134600836Y-95000400D02*
X134385164Y-95000400D01*
X134600836Y-94280400D02*
X134385164Y-94280400D01*
%TO.C,C11*%
X131715000Y-107797164D02*
X131715000Y-108012836D01*
X132435000Y-107797164D02*
X132435000Y-108012836D01*
%TO.C,C41*%
X132779380Y-83740000D02*
X132498220Y-83740000D01*
X132779380Y-84760000D02*
X132498220Y-84760000D01*
%TO.C,C10*%
X133985000Y-104887164D02*
X133985000Y-105102836D01*
X133265000Y-104887164D02*
X133265000Y-105102836D01*
%TO.C,C42*%
X134415000Y-83359420D02*
X134415000Y-83640580D01*
X135435000Y-83359420D02*
X135435000Y-83640580D01*
%TO.C,C4*%
X130210000Y-91367164D02*
X130210000Y-91582836D01*
X129490000Y-91367164D02*
X129490000Y-91582836D01*
%TO.C,C8*%
X131313600Y-97631364D02*
X131313600Y-97847036D01*
X132033600Y-97631364D02*
X132033600Y-97847036D01*
%TO.C,R4*%
X130504200Y-106754959D02*
X130504200Y-107062241D01*
X129744200Y-106754959D02*
X129744200Y-107062241D01*
%TO.C,C1*%
X134600836Y-90318000D02*
X134385164Y-90318000D01*
X134600836Y-91038000D02*
X134385164Y-91038000D01*
%TO.C,J2*%
X131220000Y-71650000D02*
X131220000Y-68440000D01*
X133880000Y-74190000D02*
X133880000Y-70630000D01*
X131220000Y-81460000D02*
X131220000Y-78250000D01*
X133880000Y-79270000D02*
X133880000Y-75710000D01*
X133880000Y-68440000D02*
X131220000Y-68440000D01*
X131220000Y-76730000D02*
X131220000Y-73170000D01*
X135090000Y-80790000D02*
X133880000Y-80790000D01*
X133880000Y-81460000D02*
X133880000Y-80790000D01*
X133880000Y-69110000D02*
X133880000Y-68440000D01*
X133880000Y-81460000D02*
X131220000Y-81460000D01*
%TO.C,J1*%
X133375000Y-109929800D02*
X133575000Y-110129800D01*
X130575000Y-109929800D02*
X131375000Y-109929800D01*
X133575000Y-112729800D02*
X133575000Y-112929800D01*
X131375000Y-112929800D02*
X130575000Y-112929800D01*
X130575000Y-110129800D02*
X130575000Y-109929800D01*
X132775000Y-109929800D02*
X132775000Y-109429800D01*
X131375000Y-109929800D02*
X131375000Y-109429800D01*
X130575000Y-112929800D02*
X130575000Y-112729800D01*
X132775000Y-109929800D02*
X133375000Y-109929800D01*
X133575000Y-112929800D02*
X132775000Y-112929800D01*
%TO.C,C5*%
X130933601Y-93017718D02*
X131086104Y-93170221D01*
X131442718Y-92508601D02*
X131595221Y-92661104D01*
%TO.C,IC2*%
X130705000Y-104800000D02*
X130705000Y-103800000D01*
X132945000Y-102800000D02*
X132945000Y-104800000D01*
%TO.C,C9*%
X132365636Y-98827000D02*
X132149964Y-98827000D01*
X132365636Y-99547000D02*
X132149964Y-99547000D01*
%TO.C,C2*%
X134782836Y-100140000D02*
X134567164Y-100140000D01*
X134782836Y-100860000D02*
X134567164Y-100860000D01*
%TO.C,R3*%
X129642600Y-103833959D02*
X129642600Y-104141241D01*
X130402600Y-103833959D02*
X130402600Y-104141241D01*
%TD*%
M02*
