%TF.GenerationSoftware,KiCad,Pcbnew,(6.0.4)*%
%TF.CreationDate,2023-05-22T00:35:00+09:00*%
%TF.ProjectId,Antenna,416e7465-6e6e-4612-9e6b-696361645f70,rev?*%
%TF.SameCoordinates,Original*%
%TF.FileFunction,Copper,L2,Inr*%
%TF.FilePolarity,Positive*%
%FSLAX46Y46*%
G04 Gerber Fmt 4.6, Leading zero omitted, Abs format (unit mm)*
G04 Created by KiCad (PCBNEW (6.0.4)) date 2023-05-22 00:35:00*
%MOMM*%
%LPD*%
G01*
G04 APERTURE LIST*
%TA.AperFunction,ComponentPad*%
%ADD10C,2.600000*%
%TD*%
%TA.AperFunction,ViaPad*%
%ADD11C,0.450000*%
%TD*%
G04 APERTURE END LIST*
D10*
%TO.N,GND*%
%TO.C,H2*%
X134075000Y-65786000D03*
%TD*%
%TO.N,GND*%
%TO.C,H1*%
X134075000Y-116128800D03*
%TD*%
D11*
%TO.N,GND*%
X134010400Y-90678000D03*
X132689600Y-105410000D03*
X132689600Y-103378000D03*
X129600000Y-100200000D03*
X133680200Y-94488001D03*
X134467600Y-102133400D03*
X131851400Y-78003400D03*
X133476999Y-97053400D03*
X130911600Y-109423200D03*
X130911600Y-108610399D03*
X132918200Y-100939599D03*
X130657600Y-100025201D03*
X130911600Y-107797600D03*
X130403601Y-104521000D03*
X132257800Y-112649000D03*
X134467600Y-101320601D03*
X130657600Y-96774001D03*
X130352800Y-93294200D03*
X133248400Y-110439199D03*
X133248400Y-111251999D03*
X132918200Y-101752400D03*
X130708400Y-91059000D03*
X129600000Y-102650000D03*
X133248400Y-107188000D03*
X134924800Y-84277200D03*
X131597400Y-95300800D03*
X129589347Y-92885112D03*
X132029200Y-104521000D03*
X130657600Y-99212400D03*
X133477000Y-97866200D03*
X130657600Y-95961200D03*
X132064064Y-92313064D03*
X133248400Y-112064800D03*
X130657600Y-98399602D03*
X129600000Y-98025000D03*
X131850000Y-72925000D03*
X134035800Y-95300800D03*
X132918200Y-100126800D03*
X131851400Y-76978400D03*
X133248400Y-109626398D03*
X134289801Y-97866200D03*
X133654800Y-104521000D03*
X132689600Y-98526601D03*
X132842000Y-104521000D03*
X130835400Y-94005400D03*
X132562600Y-92964001D03*
X132410200Y-95300800D03*
X130911600Y-110235998D03*
X129600000Y-104300000D03*
X131325000Y-84250000D03*
X130657600Y-97586801D03*
X134289800Y-97053400D03*
X133248400Y-108000799D03*
X130911600Y-111048799D03*
X130657600Y-100838000D03*
X135102598Y-97053400D03*
X132918200Y-102565198D03*
X129600000Y-95325000D03*
X133222999Y-95300800D03*
X132664200Y-96901000D03*
X129590800Y-91059000D03*
X133248400Y-108813600D03*
X132562600Y-93776800D03*
X130835400Y-94843600D03*
X132689600Y-99339400D03*
X131850000Y-71900000D03*
X135102600Y-97866200D03*
X130911600Y-111861599D03*
X131216401Y-104521000D03*
X132689600Y-97713800D03*
X131489327Y-91738327D03*
X134467600Y-99695002D03*
X131445002Y-112649000D03*
X134467600Y-100507800D03*
%TO.N,/receiver/RX*%
X123300000Y-104650000D03*
X123300000Y-79200000D03*
X123300000Y-130000000D03*
X123300000Y-53850000D03*
%TO.N,/5VA*%
X130200000Y-107416600D03*
X133629400Y-105638600D03*
%TO.N,/~EN1*%
X130759200Y-105333800D03*
X135128000Y-70383400D03*
%TD*%
%TA.AperFunction,Conductor*%
%TO.N,GND*%
G36*
X136268300Y-118033800D02*
G01*
X133019800Y-118033800D01*
X129362200Y-112776000D01*
X129362200Y-107416600D01*
X129770209Y-107416600D01*
X129791244Y-107549413D01*
X129852292Y-107669225D01*
X129947375Y-107764308D01*
X130067187Y-107825356D01*
X130200000Y-107846391D01*
X130332813Y-107825356D01*
X130452625Y-107764308D01*
X130547708Y-107669225D01*
X130608756Y-107549413D01*
X130629791Y-107416600D01*
X130608756Y-107283787D01*
X130547708Y-107163975D01*
X130452625Y-107068892D01*
X130332813Y-107007844D01*
X130200000Y-106986809D01*
X130067187Y-107007844D01*
X129947375Y-107068892D01*
X129852292Y-107163975D01*
X129791244Y-107283787D01*
X129770209Y-107416600D01*
X129362200Y-107416600D01*
X129362200Y-105333800D01*
X130329409Y-105333800D01*
X130350444Y-105466613D01*
X130411492Y-105586425D01*
X130506575Y-105681508D01*
X130626387Y-105742556D01*
X130759200Y-105763591D01*
X130892013Y-105742556D01*
X131011825Y-105681508D01*
X131054733Y-105638600D01*
X133199609Y-105638600D01*
X133220644Y-105771413D01*
X133281692Y-105891225D01*
X133376775Y-105986308D01*
X133496587Y-106047356D01*
X133629400Y-106068391D01*
X133762213Y-106047356D01*
X133882025Y-105986308D01*
X133977108Y-105891225D01*
X134038156Y-105771413D01*
X134059191Y-105638600D01*
X134038156Y-105505787D01*
X133977108Y-105385975D01*
X133882025Y-105290892D01*
X133762213Y-105229844D01*
X133629400Y-105208809D01*
X133496587Y-105229844D01*
X133376775Y-105290892D01*
X133281692Y-105385975D01*
X133220644Y-105505787D01*
X133199609Y-105638600D01*
X131054733Y-105638600D01*
X131106908Y-105586425D01*
X131167956Y-105466613D01*
X131188991Y-105333800D01*
X131167956Y-105200987D01*
X131106908Y-105081175D01*
X131011825Y-104986092D01*
X130892013Y-104925044D01*
X130759200Y-104904009D01*
X130626387Y-104925044D01*
X130506575Y-104986092D01*
X130411492Y-105081175D01*
X130350444Y-105200987D01*
X130329409Y-105333800D01*
X129362200Y-105333800D01*
X129362200Y-90576400D01*
X129946400Y-83718400D01*
X129946400Y-71907462D01*
X130472101Y-70383400D01*
X134698209Y-70383400D01*
X134719244Y-70516213D01*
X134780292Y-70636025D01*
X134875375Y-70731108D01*
X134995187Y-70792156D01*
X135128000Y-70813191D01*
X135260813Y-70792156D01*
X135380625Y-70731108D01*
X135475708Y-70636025D01*
X135536756Y-70516213D01*
X135557791Y-70383400D01*
X135536756Y-70250587D01*
X135475708Y-70130775D01*
X135380625Y-70035692D01*
X135260813Y-69974644D01*
X135128000Y-69953609D01*
X134995187Y-69974644D01*
X134875375Y-70035692D01*
X134780292Y-70130775D01*
X134719244Y-70250587D01*
X134698209Y-70383400D01*
X130472101Y-70383400D01*
X132715000Y-63881000D01*
X136268300Y-63881000D01*
X136268300Y-118033800D01*
G37*
%TD.AperFunction*%
%TD*%
%TA.AperFunction,Conductor*%
%TO.N,GND*%
G36*
X136389921Y-43074002D02*
G01*
X136436414Y-43127658D01*
X136447800Y-43180000D01*
X136447800Y-140817600D01*
X136427798Y-140885721D01*
X136374142Y-140932214D01*
X136321800Y-140943600D01*
X111683800Y-140943600D01*
X111615679Y-140923598D01*
X111569186Y-140869942D01*
X111557800Y-140817600D01*
X111557800Y-130000000D01*
X122870209Y-130000000D01*
X122891244Y-130132813D01*
X122952292Y-130252625D01*
X123047375Y-130347708D01*
X123056207Y-130352208D01*
X123056208Y-130352209D01*
X123107281Y-130378232D01*
X123167187Y-130408756D01*
X123300000Y-130429791D01*
X123432813Y-130408756D01*
X123492719Y-130378232D01*
X123543792Y-130352209D01*
X123543793Y-130352208D01*
X123552625Y-130347708D01*
X123647708Y-130252625D01*
X123708756Y-130132813D01*
X123729791Y-130000000D01*
X123708756Y-129867187D01*
X123647708Y-129747375D01*
X123552625Y-129652292D01*
X123543793Y-129647792D01*
X123543792Y-129647791D01*
X123492719Y-129621768D01*
X123432813Y-129591244D01*
X123300000Y-129570209D01*
X123167187Y-129591244D01*
X123107281Y-129621768D01*
X123056208Y-129647791D01*
X123056207Y-129647792D01*
X123047375Y-129652292D01*
X122952292Y-129747375D01*
X122891244Y-129867187D01*
X122870209Y-130000000D01*
X111557800Y-130000000D01*
X111557800Y-107416600D01*
X129770209Y-107416600D01*
X129791244Y-107549413D01*
X129852292Y-107669225D01*
X129947375Y-107764308D01*
X129956207Y-107768808D01*
X129956208Y-107768809D01*
X130007281Y-107794832D01*
X130067187Y-107825356D01*
X130200000Y-107846391D01*
X130332813Y-107825356D01*
X130392719Y-107794832D01*
X130443792Y-107768809D01*
X130443793Y-107768808D01*
X130452625Y-107764308D01*
X130547708Y-107669225D01*
X130608756Y-107549413D01*
X130629791Y-107416600D01*
X130608756Y-107283787D01*
X130547708Y-107163975D01*
X130452625Y-107068892D01*
X130443793Y-107064392D01*
X130443792Y-107064391D01*
X130392719Y-107038368D01*
X130332813Y-107007844D01*
X130200000Y-106986809D01*
X130067187Y-107007844D01*
X130007281Y-107038368D01*
X129956208Y-107064391D01*
X129956207Y-107064392D01*
X129947375Y-107068892D01*
X129852292Y-107163975D01*
X129791244Y-107283787D01*
X129770209Y-107416600D01*
X111557800Y-107416600D01*
X111557800Y-105333800D01*
X130329409Y-105333800D01*
X130350444Y-105466613D01*
X130411492Y-105586425D01*
X130506575Y-105681508D01*
X130515407Y-105686008D01*
X130515408Y-105686009D01*
X130566481Y-105712032D01*
X130626387Y-105742556D01*
X130759200Y-105763591D01*
X130892013Y-105742556D01*
X130951919Y-105712032D01*
X131002992Y-105686009D01*
X131002993Y-105686008D01*
X131011825Y-105681508D01*
X131054733Y-105638600D01*
X133199609Y-105638600D01*
X133220644Y-105771413D01*
X133281692Y-105891225D01*
X133376775Y-105986308D01*
X133385607Y-105990808D01*
X133385608Y-105990809D01*
X133436681Y-106016832D01*
X133496587Y-106047356D01*
X133629400Y-106068391D01*
X133762213Y-106047356D01*
X133822119Y-106016832D01*
X133873192Y-105990809D01*
X133873193Y-105990808D01*
X133882025Y-105986308D01*
X133977108Y-105891225D01*
X134038156Y-105771413D01*
X134059191Y-105638600D01*
X134038156Y-105505787D01*
X133977108Y-105385975D01*
X133882025Y-105290892D01*
X133873193Y-105286392D01*
X133873192Y-105286391D01*
X133822119Y-105260368D01*
X133762213Y-105229844D01*
X133629400Y-105208809D01*
X133496587Y-105229844D01*
X133436681Y-105260368D01*
X133385608Y-105286391D01*
X133385607Y-105286392D01*
X133376775Y-105290892D01*
X133281692Y-105385975D01*
X133220644Y-105505787D01*
X133199609Y-105638600D01*
X131054733Y-105638600D01*
X131106908Y-105586425D01*
X131167956Y-105466613D01*
X131188991Y-105333800D01*
X131167956Y-105200987D01*
X131106908Y-105081175D01*
X131011825Y-104986092D01*
X131002993Y-104981592D01*
X131002992Y-104981591D01*
X130951919Y-104955568D01*
X130892013Y-104925044D01*
X130759200Y-104904009D01*
X130626387Y-104925044D01*
X130566481Y-104955568D01*
X130515408Y-104981591D01*
X130515407Y-104981592D01*
X130506575Y-104986092D01*
X130411492Y-105081175D01*
X130350444Y-105200987D01*
X130329409Y-105333800D01*
X111557800Y-105333800D01*
X111557800Y-104650000D01*
X122870209Y-104650000D01*
X122891244Y-104782813D01*
X122952292Y-104902625D01*
X123047375Y-104997708D01*
X123056207Y-105002208D01*
X123056208Y-105002209D01*
X123107281Y-105028232D01*
X123167187Y-105058756D01*
X123300000Y-105079791D01*
X123432813Y-105058756D01*
X123492719Y-105028232D01*
X123543792Y-105002209D01*
X123543793Y-105002208D01*
X123552625Y-104997708D01*
X123647708Y-104902625D01*
X123708756Y-104782813D01*
X123729791Y-104650000D01*
X123708756Y-104517187D01*
X123647708Y-104397375D01*
X123552625Y-104302292D01*
X123543793Y-104297792D01*
X123543792Y-104297791D01*
X123492719Y-104271768D01*
X123432813Y-104241244D01*
X123300000Y-104220209D01*
X123167187Y-104241244D01*
X123107281Y-104271768D01*
X123056208Y-104297791D01*
X123056207Y-104297792D01*
X123047375Y-104302292D01*
X122952292Y-104397375D01*
X122891244Y-104517187D01*
X122870209Y-104650000D01*
X111557800Y-104650000D01*
X111557800Y-79200000D01*
X122870209Y-79200000D01*
X122891244Y-79332813D01*
X122952292Y-79452625D01*
X123047375Y-79547708D01*
X123056207Y-79552208D01*
X123056208Y-79552209D01*
X123107281Y-79578232D01*
X123167187Y-79608756D01*
X123300000Y-79629791D01*
X123432813Y-79608756D01*
X123492719Y-79578232D01*
X123543792Y-79552209D01*
X123543793Y-79552208D01*
X123552625Y-79547708D01*
X123647708Y-79452625D01*
X123708756Y-79332813D01*
X123729791Y-79200000D01*
X123708756Y-79067187D01*
X123647708Y-78947375D01*
X123552625Y-78852292D01*
X123543793Y-78847792D01*
X123543792Y-78847791D01*
X123492719Y-78821768D01*
X123432813Y-78791244D01*
X123300000Y-78770209D01*
X123167187Y-78791244D01*
X123107281Y-78821768D01*
X123056208Y-78847791D01*
X123056207Y-78847792D01*
X123047375Y-78852292D01*
X122952292Y-78947375D01*
X122891244Y-79067187D01*
X122870209Y-79200000D01*
X111557800Y-79200000D01*
X111557800Y-70383400D01*
X134698209Y-70383400D01*
X134719244Y-70516213D01*
X134780292Y-70636025D01*
X134875375Y-70731108D01*
X134884207Y-70735608D01*
X134884208Y-70735609D01*
X134935281Y-70761632D01*
X134995187Y-70792156D01*
X135128000Y-70813191D01*
X135260813Y-70792156D01*
X135320719Y-70761632D01*
X135371792Y-70735609D01*
X135371793Y-70735608D01*
X135380625Y-70731108D01*
X135475708Y-70636025D01*
X135536756Y-70516213D01*
X135557791Y-70383400D01*
X135536756Y-70250587D01*
X135475708Y-70130775D01*
X135380625Y-70035692D01*
X135371793Y-70031192D01*
X135371792Y-70031191D01*
X135320719Y-70005168D01*
X135260813Y-69974644D01*
X135128000Y-69953609D01*
X134995187Y-69974644D01*
X134935281Y-70005168D01*
X134884208Y-70031191D01*
X134884207Y-70031192D01*
X134875375Y-70035692D01*
X134780292Y-70130775D01*
X134719244Y-70250587D01*
X134698209Y-70383400D01*
X111557800Y-70383400D01*
X111557800Y-53850000D01*
X122870209Y-53850000D01*
X122891244Y-53982813D01*
X122952292Y-54102625D01*
X123047375Y-54197708D01*
X123056207Y-54202208D01*
X123056208Y-54202209D01*
X123107281Y-54228232D01*
X123167187Y-54258756D01*
X123300000Y-54279791D01*
X123432813Y-54258756D01*
X123492719Y-54228232D01*
X123543792Y-54202209D01*
X123543793Y-54202208D01*
X123552625Y-54197708D01*
X123647708Y-54102625D01*
X123708756Y-53982813D01*
X123729791Y-53850000D01*
X123708756Y-53717187D01*
X123647708Y-53597375D01*
X123552625Y-53502292D01*
X123543793Y-53497792D01*
X123543792Y-53497791D01*
X123492719Y-53471768D01*
X123432813Y-53441244D01*
X123300000Y-53420209D01*
X123167187Y-53441244D01*
X123107281Y-53471768D01*
X123056208Y-53497791D01*
X123056207Y-53497792D01*
X123047375Y-53502292D01*
X122952292Y-53597375D01*
X122891244Y-53717187D01*
X122870209Y-53850000D01*
X111557800Y-53850000D01*
X111557800Y-43180000D01*
X111577802Y-43111879D01*
X111631458Y-43065386D01*
X111683800Y-43054000D01*
X136321800Y-43054000D01*
X136389921Y-43074002D01*
G37*
%TD.AperFunction*%
%TD*%
M02*
