%TF.GenerationSoftware,KiCad,Pcbnew,(6.0.4)*%
%TF.CreationDate,2023-05-27T00:51:03+09:00*%
%TF.ProjectId,RFB,5246422e-6b69-4636-9164-5f7063625858,rev?*%
%TF.SameCoordinates,Original*%
%TF.FileFunction,Paste,Bot*%
%TF.FilePolarity,Positive*%
%FSLAX46Y46*%
G04 Gerber Fmt 4.6, Leading zero omitted, Abs format (unit mm)*
G04 Created by KiCad (PCBNEW (6.0.4)) date 2023-05-27 00:51:03*
%MOMM*%
%LPD*%
G01*
G04 APERTURE LIST*
G04 Aperture macros list*
%AMRoundRect*
0 Rectangle with rounded corners*
0 $1 Rounding radius*
0 $2 $3 $4 $5 $6 $7 $8 $9 X,Y pos of 4 corners*
0 Add a 4 corners polygon primitive as box body*
4,1,4,$2,$3,$4,$5,$6,$7,$8,$9,$2,$3,0*
0 Add four circle primitives for the rounded corners*
1,1,$1+$1,$2,$3*
1,1,$1+$1,$4,$5*
1,1,$1+$1,$6,$7*
1,1,$1+$1,$8,$9*
0 Add four rect primitives between the rounded corners*
20,1,$1+$1,$2,$3,$4,$5,0*
20,1,$1+$1,$4,$5,$6,$7,0*
20,1,$1+$1,$6,$7,$8,$9,0*
20,1,$1+$1,$8,$9,$2,$3,0*%
%AMRotRect*
0 Rectangle, with rotation*
0 The origin of the aperture is its center*
0 $1 length*
0 $2 width*
0 $3 Rotation angle, in degrees counterclockwise*
0 Add horizontal line*
21,1,$1,$2,0,0,$3*%
G04 Aperture macros list end*
%ADD10R,0.200000X0.400000*%
%ADD11R,1.100000X0.600000*%
%ADD12RoundRect,0.225000X0.225000X0.250000X-0.225000X0.250000X-0.225000X-0.250000X0.225000X-0.250000X0*%
%ADD13R,0.650000X0.750000*%
%ADD14R,0.250000X0.500000*%
%ADD15RoundRect,0.140000X-0.170000X0.140000X-0.170000X-0.140000X0.170000X-0.140000X0.170000X0.140000X0*%
%ADD16RoundRect,0.225000X-0.250000X0.225000X-0.250000X-0.225000X0.250000X-0.225000X0.250000X0.225000X0*%
%ADD17RoundRect,0.160000X-0.245000X-0.160000X0.245000X-0.160000X0.245000X0.160000X-0.245000X0.160000X0*%
%ADD18RoundRect,0.093750X-0.093750X-0.106250X0.093750X-0.106250X0.093750X0.106250X-0.093750X0.106250X0*%
%ADD19RoundRect,0.135000X0.135000X0.185000X-0.135000X0.185000X-0.135000X-0.185000X0.135000X-0.185000X0*%
%ADD20RoundRect,0.140000X-0.021213X0.219203X-0.219203X0.021213X0.021213X-0.219203X0.219203X-0.021213X0*%
%ADD21RotRect,1.230000X1.230000X135.000000*%
%ADD22RotRect,0.250000X0.600000X45.000000*%
%ADD23RotRect,0.250000X0.600000X135.000000*%
%ADD24RoundRect,0.135000X-0.135000X-0.185000X0.135000X-0.185000X0.135000X0.185000X-0.135000X0.185000X0*%
%ADD25RoundRect,0.135000X0.185000X-0.135000X0.185000X0.135000X-0.185000X0.135000X-0.185000X-0.135000X0*%
%ADD26RoundRect,0.147500X-0.017678X0.226274X-0.226274X0.017678X0.017678X-0.226274X0.226274X-0.017678X0*%
%ADD27RoundRect,0.135000X0.035355X-0.226274X0.226274X-0.035355X-0.035355X0.226274X-0.226274X0.035355X0*%
%ADD28RoundRect,0.140000X-0.140000X-0.170000X0.140000X-0.170000X0.140000X0.170000X-0.140000X0.170000X0*%
%ADD29RoundRect,0.140000X0.140000X0.170000X-0.140000X0.170000X-0.140000X-0.170000X0.140000X-0.170000X0*%
%ADD30RoundRect,0.135000X-0.185000X0.135000X-0.185000X-0.135000X0.185000X-0.135000X0.185000X0.135000X0*%
%ADD31RoundRect,0.218750X0.218750X0.381250X-0.218750X0.381250X-0.218750X-0.381250X0.218750X-0.381250X0*%
%ADD32RoundRect,0.160000X0.160000X-0.245000X0.160000X0.245000X-0.160000X0.245000X-0.160000X-0.245000X0*%
%ADD33RoundRect,0.093750X0.106250X-0.093750X0.106250X0.093750X-0.106250X0.093750X-0.106250X-0.093750X0*%
%ADD34RoundRect,0.140000X0.170000X-0.140000X0.170000X0.140000X-0.170000X0.140000X-0.170000X-0.140000X0*%
%ADD35R,2.000000X0.500000*%
%ADD36RoundRect,0.140000X-0.219203X-0.021213X-0.021213X-0.219203X0.219203X0.021213X0.021213X0.219203X0*%
%ADD37RoundRect,0.225000X0.250000X-0.225000X0.250000X0.225000X-0.250000X0.225000X-0.250000X-0.225000X0*%
%ADD38RoundRect,0.218750X-0.381250X0.218750X-0.381250X-0.218750X0.381250X-0.218750X0.381250X0.218750X0*%
%ADD39RoundRect,0.140000X0.028284X-0.226274X0.226274X-0.028284X-0.028284X0.226274X-0.226274X0.028284X0*%
%ADD40RoundRect,0.087500X-0.061872X-0.185616X0.185616X0.061872X0.061872X0.185616X-0.185616X-0.061872X0*%
%ADD41RoundRect,0.150000X0.150000X-0.587500X0.150000X0.587500X-0.150000X0.587500X-0.150000X-0.587500X0*%
%ADD42RoundRect,0.160000X0.245000X0.160000X-0.245000X0.160000X-0.245000X-0.160000X0.245000X-0.160000X0*%
%ADD43RoundRect,0.093750X0.093750X0.106250X-0.093750X0.106250X-0.093750X-0.106250X0.093750X-0.106250X0*%
%ADD44RoundRect,0.250000X-0.255000X0.255000X-0.255000X-0.255000X0.255000X-0.255000X0.255000X0.255000X0*%
%ADD45RoundRect,0.062500X-0.062500X0.350000X-0.062500X-0.350000X0.062500X-0.350000X0.062500X0.350000X0*%
%ADD46RoundRect,0.062500X-0.350000X0.062500X-0.350000X-0.062500X0.350000X-0.062500X0.350000X0.062500X0*%
%ADD47R,2.750000X3.050000*%
%ADD48R,0.800000X2.200000*%
%ADD49R,0.249999X0.599999*%
%ADD50R,0.599999X0.249999*%
%ADD51RoundRect,0.218750X0.026517X-0.335876X0.335876X-0.026517X-0.026517X0.335876X-0.335876X0.026517X0*%
%ADD52RoundRect,0.225000X-0.225000X-0.250000X0.225000X-0.250000X0.225000X0.250000X-0.225000X0.250000X0*%
%ADD53RoundRect,0.140000X0.219203X0.021213X0.021213X0.219203X-0.219203X-0.021213X-0.021213X-0.219203X0*%
%ADD54R,0.400000X0.650000*%
%ADD55R,0.650000X0.400000*%
%ADD56RoundRect,0.150000X-0.150000X0.512500X-0.150000X-0.512500X0.150000X-0.512500X0.150000X0.512500X0*%
%ADD57RoundRect,0.135000X-0.035355X0.226274X-0.226274X0.035355X0.035355X-0.226274X0.226274X-0.035355X0*%
%ADD58RoundRect,0.150000X0.150000X-0.825000X0.150000X0.825000X-0.150000X0.825000X-0.150000X-0.825000X0*%
%ADD59RoundRect,0.150000X-0.150000X0.587500X-0.150000X-0.587500X0.150000X-0.587500X0.150000X0.587500X0*%
%ADD60RoundRect,0.135000X-0.226274X-0.035355X-0.035355X-0.226274X0.226274X0.035355X0.035355X0.226274X0*%
%ADD61RoundRect,0.140000X0.021213X-0.219203X0.219203X-0.021213X-0.021213X0.219203X-0.219203X0.021213X0*%
%ADD62RoundRect,0.135000X0.226274X0.035355X0.035355X0.226274X-0.226274X-0.035355X-0.035355X-0.226274X0*%
%ADD63RoundRect,0.218750X0.256250X-0.218750X0.256250X0.218750X-0.256250X0.218750X-0.256250X-0.218750X0*%
G04 APERTURE END LIST*
%TO.C,U4*%
G36*
X44772229Y-79114769D02*
G01*
X44781683Y-79117637D01*
X44790398Y-79122295D01*
X44798036Y-79128562D01*
X44804302Y-79136199D01*
X44808960Y-79144914D01*
X44811828Y-79154368D01*
X44812796Y-79164200D01*
X44812796Y-80323400D01*
X44811828Y-80333233D01*
X44808960Y-80342687D01*
X44804302Y-80351401D01*
X44798036Y-80359039D01*
X44790398Y-80365305D01*
X44781683Y-80369964D01*
X44772229Y-80372831D01*
X44762397Y-80373799D01*
X43603197Y-80373799D01*
X43593365Y-80372831D01*
X43583911Y-80369964D01*
X43575196Y-80365305D01*
X43567558Y-80359039D01*
X43561292Y-80351401D01*
X43556634Y-80342687D01*
X43553766Y-80333233D01*
X43552796Y-80323400D01*
X43552796Y-79164200D01*
X43553766Y-79154368D01*
X43556634Y-79144914D01*
X43561292Y-79136199D01*
X43567558Y-79128562D01*
X43575196Y-79122295D01*
X43583911Y-79117637D01*
X43593365Y-79114769D01*
X43603197Y-79113799D01*
X44762397Y-79113799D01*
X44772229Y-79114769D01*
G37*
G36*
X43312230Y-79114769D02*
G01*
X43321684Y-79117637D01*
X43330398Y-79122295D01*
X43338036Y-79128562D01*
X43344302Y-79136199D01*
X43348961Y-79144914D01*
X43351828Y-79154368D01*
X43352796Y-79164200D01*
X43352796Y-80323400D01*
X43351828Y-80333233D01*
X43348961Y-80342687D01*
X43344302Y-80351401D01*
X43338036Y-80359039D01*
X43330398Y-80365305D01*
X43321684Y-80369964D01*
X43312230Y-80372831D01*
X43302398Y-80373799D01*
X42143197Y-80373799D01*
X42133365Y-80372831D01*
X42123911Y-80369964D01*
X42115196Y-80365305D01*
X42107559Y-80359039D01*
X42101292Y-80351401D01*
X42096634Y-80342687D01*
X42093766Y-80333233D01*
X42092796Y-80323400D01*
X42092796Y-79164200D01*
X42093766Y-79154368D01*
X42096634Y-79144914D01*
X42101292Y-79136199D01*
X42107559Y-79128562D01*
X42115196Y-79122295D01*
X42123911Y-79117637D01*
X42133365Y-79114769D01*
X42143197Y-79113799D01*
X43302398Y-79113799D01*
X43312230Y-79114769D01*
G37*
G36*
X43312230Y-80574769D02*
G01*
X43321684Y-80577637D01*
X43330398Y-80582295D01*
X43338036Y-80588561D01*
X43344302Y-80596199D01*
X43348961Y-80604914D01*
X43351828Y-80614368D01*
X43352796Y-80624200D01*
X43352796Y-81783400D01*
X43351828Y-81793232D01*
X43348961Y-81802686D01*
X43344302Y-81811401D01*
X43338036Y-81819039D01*
X43330398Y-81825305D01*
X43321684Y-81829963D01*
X43312230Y-81832831D01*
X43302398Y-81833799D01*
X42143197Y-81833799D01*
X42133365Y-81832831D01*
X42123911Y-81829963D01*
X42115196Y-81825305D01*
X42107559Y-81819039D01*
X42101292Y-81811401D01*
X42096634Y-81802686D01*
X42093766Y-81793232D01*
X42092796Y-81783400D01*
X42092796Y-80624200D01*
X42093766Y-80614368D01*
X42096634Y-80604914D01*
X42101292Y-80596199D01*
X42107559Y-80588561D01*
X42115196Y-80582295D01*
X42123911Y-80577637D01*
X42133365Y-80574769D01*
X42143197Y-80573801D01*
X43302398Y-80573801D01*
X43312230Y-80574769D01*
G37*
G36*
X41852230Y-82034769D02*
G01*
X41861684Y-82037636D01*
X41870399Y-82042295D01*
X41878037Y-82048561D01*
X41884303Y-82056199D01*
X41888961Y-82064913D01*
X41891829Y-82074367D01*
X41892799Y-82084200D01*
X41892799Y-83243400D01*
X41891829Y-83253232D01*
X41888961Y-83262686D01*
X41884303Y-83271401D01*
X41878037Y-83279038D01*
X41870399Y-83285305D01*
X41861684Y-83289963D01*
X41852230Y-83292831D01*
X41842398Y-83293801D01*
X40683198Y-83293801D01*
X40673365Y-83292831D01*
X40663912Y-83289963D01*
X40655197Y-83285305D01*
X40647559Y-83279038D01*
X40641293Y-83271401D01*
X40636634Y-83262686D01*
X40633767Y-83253232D01*
X40632799Y-83243400D01*
X40632799Y-82084200D01*
X40633767Y-82074367D01*
X40636634Y-82064913D01*
X40641293Y-82056199D01*
X40647559Y-82048561D01*
X40655197Y-82042295D01*
X40663912Y-82037636D01*
X40673365Y-82034769D01*
X40683198Y-82033801D01*
X41842398Y-82033801D01*
X41852230Y-82034769D01*
G37*
G36*
X44772229Y-80574769D02*
G01*
X44781683Y-80577637D01*
X44790398Y-80582295D01*
X44798036Y-80588561D01*
X44804302Y-80596199D01*
X44808960Y-80604914D01*
X44811828Y-80614368D01*
X44812796Y-80624200D01*
X44812796Y-81783400D01*
X44811828Y-81793232D01*
X44808960Y-81802686D01*
X44804302Y-81811401D01*
X44798036Y-81819039D01*
X44790398Y-81825305D01*
X44781683Y-81829963D01*
X44772229Y-81832831D01*
X44762397Y-81833799D01*
X43603197Y-81833799D01*
X43593365Y-81832831D01*
X43583911Y-81829963D01*
X43575196Y-81825305D01*
X43567558Y-81819039D01*
X43561292Y-81811401D01*
X43556634Y-81802686D01*
X43553766Y-81793232D01*
X43552796Y-81783400D01*
X43552796Y-80624200D01*
X43553766Y-80614368D01*
X43556634Y-80604914D01*
X43561292Y-80596199D01*
X43567558Y-80588561D01*
X43575196Y-80582295D01*
X43583911Y-80577637D01*
X43593365Y-80574769D01*
X43603197Y-80573801D01*
X44762397Y-80573801D01*
X44772229Y-80574769D01*
G37*
G36*
X44772229Y-82034769D02*
G01*
X44781683Y-82037636D01*
X44790398Y-82042295D01*
X44798036Y-82048561D01*
X44804302Y-82056199D01*
X44808960Y-82064913D01*
X44811828Y-82074367D01*
X44812796Y-82084200D01*
X44812796Y-83243400D01*
X44811828Y-83253232D01*
X44808960Y-83262686D01*
X44804302Y-83271401D01*
X44798036Y-83279038D01*
X44790398Y-83285305D01*
X44781683Y-83289963D01*
X44772229Y-83292831D01*
X44762397Y-83293801D01*
X43603197Y-83293801D01*
X43593365Y-83292831D01*
X43583911Y-83289963D01*
X43575196Y-83285305D01*
X43567558Y-83279038D01*
X43561292Y-83271401D01*
X43556634Y-83262686D01*
X43553766Y-83253232D01*
X43552796Y-83243400D01*
X43552796Y-82084200D01*
X43553766Y-82074367D01*
X43556634Y-82064913D01*
X43561292Y-82056199D01*
X43567558Y-82048561D01*
X43575196Y-82042295D01*
X43583911Y-82037636D01*
X43593365Y-82034769D01*
X43603197Y-82033801D01*
X44762397Y-82033801D01*
X44772229Y-82034769D01*
G37*
G36*
X41852230Y-80574769D02*
G01*
X41861684Y-80577637D01*
X41870399Y-80582295D01*
X41878037Y-80588561D01*
X41884303Y-80596199D01*
X41888961Y-80604914D01*
X41891829Y-80614368D01*
X41892799Y-80624200D01*
X41892799Y-81783400D01*
X41891829Y-81793232D01*
X41888961Y-81802686D01*
X41884303Y-81811401D01*
X41878037Y-81819039D01*
X41870399Y-81825305D01*
X41861684Y-81829963D01*
X41852230Y-81832831D01*
X41842398Y-81833799D01*
X40683198Y-81833799D01*
X40673365Y-81832831D01*
X40663912Y-81829963D01*
X40655197Y-81825305D01*
X40647559Y-81819039D01*
X40641293Y-81811401D01*
X40636634Y-81802686D01*
X40633767Y-81793232D01*
X40632799Y-81783400D01*
X40632799Y-80624200D01*
X40633767Y-80614368D01*
X40636634Y-80604914D01*
X40641293Y-80596199D01*
X40647559Y-80588561D01*
X40655197Y-80582295D01*
X40663912Y-80577637D01*
X40673365Y-80574769D01*
X40683198Y-80573801D01*
X41842398Y-80573801D01*
X41852230Y-80574769D01*
G37*
G36*
X43312230Y-82034769D02*
G01*
X43321684Y-82037636D01*
X43330398Y-82042295D01*
X43338036Y-82048561D01*
X43344302Y-82056199D01*
X43348961Y-82064913D01*
X43351828Y-82074367D01*
X43352796Y-82084200D01*
X43352796Y-83243400D01*
X43351828Y-83253232D01*
X43348961Y-83262686D01*
X43344302Y-83271401D01*
X43338036Y-83279038D01*
X43330398Y-83285305D01*
X43321684Y-83289963D01*
X43312230Y-83292831D01*
X43302398Y-83293801D01*
X42143197Y-83293801D01*
X42133365Y-83292831D01*
X42123911Y-83289963D01*
X42115196Y-83285305D01*
X42107559Y-83279038D01*
X42101292Y-83271401D01*
X42096634Y-83262686D01*
X42093766Y-83253232D01*
X42092796Y-83243400D01*
X42092796Y-82084200D01*
X42093766Y-82074367D01*
X42096634Y-82064913D01*
X42101292Y-82056199D01*
X42107559Y-82048561D01*
X42115196Y-82042295D01*
X42123911Y-82037636D01*
X42133365Y-82034769D01*
X42143197Y-82033801D01*
X43302398Y-82033801D01*
X43312230Y-82034769D01*
G37*
G36*
X41852230Y-79114769D02*
G01*
X41861684Y-79117637D01*
X41870399Y-79122295D01*
X41878037Y-79128562D01*
X41884303Y-79136199D01*
X41888961Y-79144914D01*
X41891829Y-79154368D01*
X41892799Y-79164200D01*
X41892799Y-80323400D01*
X41891829Y-80333233D01*
X41888961Y-80342687D01*
X41884303Y-80351401D01*
X41878037Y-80359039D01*
X41870399Y-80365305D01*
X41861684Y-80369964D01*
X41852230Y-80372831D01*
X41842398Y-80373799D01*
X40683198Y-80373799D01*
X40673365Y-80372831D01*
X40663912Y-80369964D01*
X40655197Y-80365305D01*
X40647559Y-80359039D01*
X40641293Y-80351401D01*
X40636634Y-80342687D01*
X40633767Y-80333233D01*
X40632799Y-80323400D01*
X40632799Y-79164200D01*
X40633767Y-79154368D01*
X40636634Y-79144914D01*
X40641293Y-79136199D01*
X40647559Y-79128562D01*
X40655197Y-79122295D01*
X40663912Y-79117637D01*
X40673365Y-79114769D01*
X40683198Y-79113799D01*
X41842398Y-79113799D01*
X41852230Y-79114769D01*
G37*
%TD*%
D10*
%TO.C,U7*%
X76463000Y-73410400D03*
X76963000Y-73410400D03*
X77463000Y-73410400D03*
X77463000Y-74910400D03*
X76963000Y-74910400D03*
X76463000Y-74910400D03*
D11*
X76963000Y-74160400D03*
%TD*%
D12*
%TO.C,C141*%
X69355000Y-86969600D03*
X67805000Y-86969600D03*
%TD*%
D13*
%TO.C,IC1*%
X77592600Y-83159600D03*
X76792600Y-83159600D03*
D14*
X76442600Y-82209600D03*
X76942600Y-82209600D03*
X77442600Y-82209600D03*
X77942600Y-82209600D03*
X77942600Y-84109600D03*
X77442600Y-84109600D03*
X76942600Y-84109600D03*
X76442600Y-84109600D03*
%TD*%
D15*
%TO.C,C83*%
X48158400Y-90528200D03*
X48158400Y-91488200D03*
%TD*%
D16*
%TO.C,C102*%
X47650400Y-86093000D03*
X47650400Y-87643000D03*
%TD*%
D17*
%TO.C,IC10*%
X74152700Y-67346200D03*
X74152700Y-68146200D03*
D18*
X73265200Y-68396200D03*
X73265200Y-67746200D03*
X73265200Y-67096200D03*
X75040200Y-67096200D03*
X75040200Y-67746200D03*
X75040200Y-68396200D03*
%TD*%
D19*
%TO.C,R37*%
X44960000Y-89103200D03*
X43940000Y-89103200D03*
%TD*%
D20*
%TO.C,C69*%
X69351211Y-89601989D03*
X68672389Y-90280811D03*
%TD*%
D21*
%TO.C,U2*%
X40821616Y-70836784D03*
X40821616Y-73028816D03*
X39725600Y-71932800D03*
X41917632Y-71932800D03*
D22*
X43756109Y-72392419D03*
X43402556Y-72745973D03*
X43049002Y-73099526D03*
X42695449Y-73453080D03*
X42341896Y-73806633D03*
X41988342Y-74160186D03*
X41634789Y-74513740D03*
X41281235Y-74867293D03*
D23*
X40361997Y-74867293D03*
X40008443Y-74513740D03*
X39654890Y-74160186D03*
X39301336Y-73806633D03*
X38947783Y-73453080D03*
X38594230Y-73099526D03*
X38240676Y-72745973D03*
X37887123Y-72392419D03*
D22*
X37887123Y-71473181D03*
X38240676Y-71119627D03*
X38594230Y-70766074D03*
X38947783Y-70412520D03*
X39301336Y-70058967D03*
X39654890Y-69705414D03*
X40008443Y-69351860D03*
X40361997Y-68998307D03*
D23*
X41281235Y-68998307D03*
X41634789Y-69351860D03*
X41988342Y-69705414D03*
X42341896Y-70058967D03*
X42695449Y-70412520D03*
X43049002Y-70766074D03*
X43402556Y-71119627D03*
X43756109Y-71473181D03*
%TD*%
D24*
%TO.C,R75*%
X67598100Y-83667600D03*
X68618100Y-83667600D03*
%TD*%
D25*
%TO.C,R21*%
X54838600Y-95404400D03*
X54838600Y-94384400D03*
%TD*%
D26*
%TO.C,L5*%
X50050747Y-90893853D03*
X49364853Y-91579747D03*
%TD*%
D16*
%TO.C,C122*%
X70853300Y-80860600D03*
X70853300Y-82410600D03*
%TD*%
D19*
%TO.C,R20*%
X52681600Y-92659200D03*
X51661600Y-92659200D03*
%TD*%
%TO.C,R50*%
X49405000Y-84328000D03*
X48385000Y-84328000D03*
%TD*%
D27*
%TO.C,R4*%
X35250176Y-71048824D03*
X35971424Y-70327576D03*
%TD*%
D28*
%TO.C,C30*%
X37775000Y-81711800D03*
X38735000Y-81711800D03*
%TD*%
D29*
%TO.C,C7*%
X70497700Y-83667600D03*
X69537700Y-83667600D03*
%TD*%
D25*
%TO.C,R68*%
X51638200Y-87124000D03*
X51638200Y-86104000D03*
%TD*%
%TO.C,R35*%
X44983400Y-88140000D03*
X44983400Y-87120000D03*
%TD*%
D12*
%TO.C,C121*%
X75095400Y-69824600D03*
X73545400Y-69824600D03*
%TD*%
D28*
%TO.C,C86*%
X47094200Y-94259400D03*
X48054200Y-94259400D03*
%TD*%
D30*
%TO.C,R52*%
X61849000Y-70711600D03*
X61849000Y-71731600D03*
%TD*%
D20*
%TO.C,C13*%
X46948411Y-84394989D03*
X46269589Y-85073811D03*
%TD*%
D31*
%TO.C,FB8*%
X78989700Y-66014600D03*
X76864700Y-66014600D03*
%TD*%
D25*
%TO.C,R33*%
X60477400Y-94058200D03*
X60477400Y-93038200D03*
%TD*%
D30*
%TO.C,R38*%
X43942000Y-90066400D03*
X43942000Y-91086400D03*
%TD*%
D32*
%TO.C,IC2*%
X68376900Y-81788000D03*
X69176900Y-81788000D03*
D33*
X69426900Y-82675500D03*
X68776900Y-82675500D03*
X68126900Y-82675500D03*
X68126900Y-80900500D03*
X68776900Y-80900500D03*
X69426900Y-80900500D03*
%TD*%
D34*
%TO.C,C85*%
X40767000Y-93342400D03*
X40767000Y-92382400D03*
%TD*%
%TO.C,C39*%
X63129100Y-70582000D03*
X63129100Y-69622000D03*
%TD*%
D35*
%TO.C,J10*%
X48235600Y-72756400D03*
X51535600Y-72756400D03*
X48235600Y-71756400D03*
X51535600Y-71756400D03*
X48235600Y-70756400D03*
X51535600Y-70756400D03*
X48235600Y-69756400D03*
X51535600Y-69756400D03*
X48235600Y-68756400D03*
X51535600Y-68756400D03*
X48235600Y-67756400D03*
X51535600Y-67756400D03*
%TD*%
D36*
%TO.C,C27*%
X43688000Y-75539600D03*
X44366822Y-76218422D03*
%TD*%
D37*
%TO.C,C99*%
X40106600Y-89090800D03*
X40106600Y-87540800D03*
%TD*%
D38*
%TO.C,FB7*%
X76784200Y-58119500D03*
X76784200Y-60244500D03*
%TD*%
D20*
%TO.C,C8*%
X40252022Y-67570978D03*
X39573200Y-68249800D03*
%TD*%
D15*
%TO.C,C17*%
X47650400Y-79888200D03*
X47650400Y-80848200D03*
%TD*%
D39*
%TO.C,U20*%
X70168199Y-76076070D03*
X70238909Y-77136730D03*
X70733884Y-76641755D03*
X69673224Y-76571045D03*
D40*
X69823484Y-78047130D03*
X69469931Y-77693577D03*
X69116377Y-77340023D03*
X68762824Y-76986470D03*
X70583624Y-75165670D03*
X70937177Y-75519223D03*
X71290731Y-75872777D03*
X71644284Y-76226330D03*
%TD*%
D15*
%TO.C,C87*%
X35356800Y-77701200D03*
X35356800Y-78661200D03*
%TD*%
%TO.C,C96*%
X43942000Y-97310000D03*
X43942000Y-98270000D03*
%TD*%
D41*
%TO.C,U10*%
X52308800Y-99387900D03*
X50408800Y-99387900D03*
X51358800Y-97512900D03*
%TD*%
D36*
%TO.C,C26*%
X42992989Y-76241589D03*
X43671811Y-76920411D03*
%TD*%
D12*
%TO.C,C104*%
X38570200Y-89077800D03*
X37020200Y-89077800D03*
%TD*%
D34*
%TO.C,C42*%
X64322900Y-70582000D03*
X64322900Y-69622000D03*
%TD*%
D29*
%TO.C,C132*%
X69507100Y-85699600D03*
X68547100Y-85699600D03*
%TD*%
D34*
%TO.C,C34*%
X72273100Y-69436400D03*
X72273100Y-68476400D03*
%TD*%
D36*
%TO.C,C3*%
X37497378Y-68993378D03*
X38176200Y-69672200D03*
%TD*%
D25*
%TO.C,R63*%
X65338900Y-71499001D03*
X65338900Y-70479001D03*
%TD*%
D15*
%TO.C,C32*%
X46659800Y-79377600D03*
X46659800Y-80337600D03*
%TD*%
D42*
%TO.C,IC8*%
X49733200Y-88512600D03*
X49733200Y-87712600D03*
D43*
X50620700Y-87462600D03*
X50620700Y-88112600D03*
X50620700Y-88762600D03*
X48845700Y-88762600D03*
X48845700Y-88112600D03*
X48845700Y-87462600D03*
%TD*%
D44*
%TO.C,U14*%
X44567000Y-93558200D03*
X43317000Y-94808200D03*
X43317000Y-93558200D03*
X44567000Y-94808200D03*
D45*
X42942000Y-92245700D03*
X43442000Y-92245700D03*
X43942000Y-92245700D03*
X44442000Y-92245700D03*
X44942000Y-92245700D03*
D46*
X45879500Y-93183200D03*
X45879500Y-93683200D03*
X45879500Y-94183200D03*
X45879500Y-94683200D03*
X45879500Y-95183200D03*
D45*
X44942000Y-96120700D03*
X44442000Y-96120700D03*
X43942000Y-96120700D03*
X43442000Y-96120700D03*
X42942000Y-96120700D03*
D46*
X42004500Y-95183200D03*
X42004500Y-94683200D03*
X42004500Y-94183200D03*
X42004500Y-93683200D03*
X42004500Y-93183200D03*
%TD*%
D28*
%TO.C,C11*%
X49659600Y-86283800D03*
X50619600Y-86283800D03*
%TD*%
D20*
%TO.C,C123*%
X72450011Y-76901989D03*
X71771189Y-77580811D03*
%TD*%
D15*
%TO.C,C116*%
X52654200Y-86108600D03*
X52654200Y-87068600D03*
%TD*%
D47*
%TO.C,U16*%
X38177200Y-99262600D03*
X35127200Y-95912600D03*
X38177200Y-95912600D03*
X35127200Y-99262600D03*
D48*
X34372200Y-91287600D03*
X35512200Y-91287600D03*
X36652200Y-91287600D03*
X37792200Y-91287600D03*
X38932200Y-91287600D03*
%TD*%
D16*
%TO.C,C88*%
X49326800Y-93027200D03*
X49326800Y-94577200D03*
%TD*%
D30*
%TO.C,R30*%
X40767000Y-96213200D03*
X40767000Y-97233200D03*
%TD*%
D49*
%TO.C,U4*%
X40472797Y-78303801D03*
X40972796Y-78303801D03*
X41472797Y-78303801D03*
X41972796Y-78303801D03*
X42472798Y-78303801D03*
X42972797Y-78303801D03*
X43472796Y-78303801D03*
X43972797Y-78303801D03*
X44472796Y-78303801D03*
X44972798Y-78303801D03*
D50*
X45622797Y-78953799D03*
X45622797Y-79453798D03*
X45622797Y-79953800D03*
X45622797Y-80453799D03*
X45622797Y-80953800D03*
X45622797Y-81453800D03*
X45622797Y-81953798D03*
X45622797Y-82453800D03*
X45622797Y-82953799D03*
X45622797Y-83453801D03*
D49*
X44972798Y-84103799D03*
X44472796Y-84103799D03*
X43972797Y-84103799D03*
X43472796Y-84103799D03*
X42972797Y-84103799D03*
X42472798Y-84103799D03*
X41972796Y-84103799D03*
X41472797Y-84103799D03*
X40972796Y-84103799D03*
X40472797Y-84103799D03*
D50*
X39822798Y-83453801D03*
X39822798Y-82953799D03*
X39822798Y-82453800D03*
X39822798Y-81953798D03*
X39822798Y-81453800D03*
X39822798Y-80953800D03*
X39822798Y-80453799D03*
X39822798Y-79953800D03*
X39822798Y-79453798D03*
X39822798Y-78953799D03*
%TD*%
D28*
%TO.C,C24*%
X40670600Y-77165200D03*
X41630600Y-77165200D03*
%TD*%
D12*
%TO.C,C98*%
X35496800Y-89077800D03*
X33946800Y-89077800D03*
%TD*%
D51*
%TO.C,FB1*%
X34418953Y-76579047D03*
X35532647Y-75465353D03*
%TD*%
D52*
%TO.C,C20*%
X37782200Y-86029800D03*
X39332200Y-86029800D03*
%TD*%
D29*
%TO.C,C43*%
X67180400Y-67208400D03*
X66220400Y-67208400D03*
%TD*%
D15*
%TO.C,C77*%
X63423800Y-81003200D03*
X63423800Y-81963200D03*
%TD*%
D53*
%TO.C,C133*%
X69205976Y-78936222D03*
X68527154Y-78257400D03*
%TD*%
D28*
%TO.C,C38*%
X59946600Y-69519800D03*
X60906600Y-69519800D03*
%TD*%
D36*
%TO.C,C103*%
X46117189Y-75657389D03*
X46796011Y-76336211D03*
%TD*%
D30*
%TO.C,R73*%
X72273100Y-66518600D03*
X72273100Y-67538600D03*
%TD*%
D19*
%TO.C,R32*%
X58853800Y-91389200D03*
X57833800Y-91389200D03*
%TD*%
D30*
%TO.C,R23*%
X47117000Y-91209400D03*
X47117000Y-92229400D03*
%TD*%
D54*
%TO.C,U9*%
X51953400Y-93868200D03*
X52603400Y-93868200D03*
X53253400Y-93868200D03*
X53253400Y-95768200D03*
X51953400Y-95768200D03*
%TD*%
D29*
%TO.C,C76*%
X67104200Y-79197200D03*
X66144200Y-79197200D03*
%TD*%
D34*
%TO.C,C131*%
X70241100Y-68473800D03*
X70241100Y-67513800D03*
%TD*%
D20*
%TO.C,C4*%
X43706422Y-68561578D03*
X43027600Y-69240400D03*
%TD*%
D55*
%TO.C,U13*%
X60655200Y-71359000D03*
X60655200Y-72009000D03*
X60655200Y-72659000D03*
X58755200Y-72659000D03*
X58755200Y-71359000D03*
%TD*%
D56*
%TO.C,U15*%
X57266800Y-92867900D03*
X58216800Y-92867900D03*
X59166800Y-92867900D03*
X59166800Y-95142900D03*
X57266800Y-95142900D03*
%TD*%
D57*
%TO.C,R5*%
X43007224Y-74848776D03*
X42285976Y-75570024D03*
%TD*%
D34*
%TO.C,C28*%
X43967400Y-86205000D03*
X43967400Y-85245000D03*
%TD*%
%TO.C,C29*%
X44983400Y-86205000D03*
X44983400Y-85245000D03*
%TD*%
D24*
%TO.C,R74*%
X68512500Y-84683600D03*
X69532500Y-84683600D03*
%TD*%
D58*
%TO.C,U6*%
X54813200Y-64563800D03*
X53543200Y-64563800D03*
X52273200Y-64563800D03*
X51003200Y-64563800D03*
X51003200Y-59613800D03*
X52273200Y-59613800D03*
X53543200Y-59613800D03*
X54813200Y-59613800D03*
%TD*%
D59*
%TO.C,Q1*%
X53914000Y-97512900D03*
X55814000Y-97512900D03*
X54864000Y-99387900D03*
%TD*%
D37*
%TO.C,C81*%
X76911200Y-63309800D03*
X76911200Y-61759800D03*
%TD*%
D27*
%TO.C,R1*%
X36647176Y-76789224D03*
X37368424Y-76067976D03*
%TD*%
D60*
%TO.C,R44*%
X37251752Y-73345152D03*
X37973000Y-74066400D03*
%TD*%
D15*
%TO.C,C82*%
X50647600Y-94160400D03*
X50647600Y-95120400D03*
%TD*%
D61*
%TO.C,C1*%
X38751189Y-76107611D03*
X39430011Y-75428789D03*
%TD*%
D62*
%TO.C,R2*%
X37470024Y-70413824D03*
X36748776Y-69692576D03*
%TD*%
D25*
%TO.C,R31*%
X47472600Y-96877600D03*
X47472600Y-95857600D03*
%TD*%
D52*
%TO.C,C119*%
X51396600Y-84505800D03*
X52946600Y-84505800D03*
%TD*%
D37*
%TO.C,C5*%
X35331400Y-81445400D03*
X35331400Y-79895400D03*
%TD*%
D25*
%TO.C,R22*%
X50647600Y-93042200D03*
X50647600Y-92022200D03*
%TD*%
D30*
%TO.C,R36*%
X43967400Y-87120000D03*
X43967400Y-88140000D03*
%TD*%
D16*
%TO.C,C140*%
X68961000Y-68503800D03*
X68961000Y-70053800D03*
%TD*%
D15*
%TO.C,C97*%
X57099200Y-96548000D03*
X57099200Y-97508000D03*
%TD*%
D34*
%TO.C,C79*%
X64414400Y-80998000D03*
X64414400Y-80038000D03*
%TD*%
D27*
%TO.C,R7*%
X35986776Y-71785424D03*
X36708024Y-71064176D03*
%TD*%
D30*
%TO.C,R72*%
X71257100Y-67456400D03*
X71257100Y-68476400D03*
%TD*%
D61*
%TO.C,C90*%
X38039989Y-75396411D03*
X38718811Y-74717589D03*
%TD*%
D63*
%TO.C,FB2*%
X48793400Y-97688500D03*
X48793400Y-96113500D03*
%TD*%
D25*
%TO.C,R51*%
X56743600Y-71934800D03*
X56743600Y-70914800D03*
%TD*%
D28*
%TO.C,C84*%
X47094200Y-93218000D03*
X48054200Y-93218000D03*
%TD*%
D37*
%TO.C,C25*%
X38379400Y-84518800D03*
X38379400Y-82968800D03*
%TD*%
D30*
%TO.C,R34*%
X54838600Y-91920600D03*
X54838600Y-92940600D03*
%TD*%
D20*
%TO.C,C22*%
X46059411Y-76978189D03*
X45380589Y-77657011D03*
%TD*%
D15*
%TO.C,C23*%
X38709600Y-78237200D03*
X38709600Y-79197200D03*
%TD*%
D52*
%TO.C,C19*%
X36905600Y-80441800D03*
X38455600Y-80441800D03*
%TD*%
D60*
%TO.C,R3*%
X38191552Y-68244776D03*
X38912800Y-68966024D03*
%TD*%
D53*
%TO.C,C9*%
X44595422Y-70757422D03*
X43916600Y-70078600D03*
%TD*%
D34*
%TO.C,C21*%
X41808400Y-86332000D03*
X41808400Y-85372000D03*
%TD*%
%TO.C,C70*%
X67487800Y-93266200D03*
X67487800Y-92306200D03*
%TD*%
%TO.C,C89*%
X40767000Y-95272800D03*
X40767000Y-94312800D03*
%TD*%
D25*
%TO.C,R69*%
X51638200Y-89079800D03*
X51638200Y-88059800D03*
%TD*%
D20*
%TO.C,C49*%
X65668211Y-77917989D03*
X64989389Y-78596811D03*
%TD*%
M02*
