M48
; DRILL file {KiCad (6.0.4)} date Sat May 27 00:51:08 2023
; FORMAT={-:-/ absolute / inch / decimal}
; #@! TF.CreationDate,2023-05-27T00:51:08+09:00
; #@! TF.GenerationSoftware,Kicad,Pcbnew,(6.0.4)
; #@! TF.FileFunction,Plated,1,6,PTH
FMAT,2
INCH
; #@! TA.AperFunction,Plated,PTH,ViaDrill
T1C0.0079
; #@! TA.AperFunction,Plated,PTH,ComponentDrill
T2C0.0079
; #@! TA.AperFunction,Plated,PTH,ViaDrill
T3C0.0118
; #@! TA.AperFunction,Plated,PTH,ComponentDrill
T4C0.0118
; #@! TA.AperFunction,Plated,PTH,ViaDrill
T5C0.0157
; #@! TA.AperFunction,Plated,PTH,ComponentDrill
T6C0.0256
; #@! TA.AperFunction,Plated,PTH,ComponentDrill
T7C0.0354
; #@! TA.AperFunction,Plated,PTH,ComponentDrill
T8C0.0394
; #@! TA.AperFunction,Plated,PTH,ComponentDrill
T9C0.0591
; #@! TA.AperFunction,Plated,PTH,ComponentDrill
T10C0.0669
; #@! TA.AperFunction,Plated,PTH,ComponentDrill
T11C0.0866
%
G90
G05
T1
X1.323Y-3.067
X1.323Y-3.137
X1.323Y-3.179
X1.323Y-3.221
X1.323Y-3.109
X1.328Y-2.484
X1.328Y-2.526
X1.328Y-2.568
X1.328Y-2.61
X1.328Y-2.652
X1.328Y-2.694
X1.328Y-2.736
X1.328Y-2.778
X1.328Y-2.82
X1.328Y-2.862
X1.328Y-2.904
X1.328Y-2.946
X1.328Y-2.988
X1.328Y-3.334
X1.328Y-3.418
X1.328Y-3.46
X1.328Y-3.492
X1.328Y-3.52
X1.328Y-3.996
X1.328Y-4.164
X1.331Y-3.695
X1.331Y-3.723
X1.331Y-3.751
X1.331Y-3.779
X1.331Y-3.807
X1.331Y-3.835
X1.331Y-3.863
X1.331Y-3.891
X1.331Y-3.919
X1.331Y-3.947
X1.351Y-3.109
X1.351Y-3.137
X1.352Y-3.506
X1.359Y-3.695
X1.359Y-3.723
X1.359Y-3.751
X1.359Y-3.779
X1.359Y-3.807
X1.359Y-3.835
X1.359Y-3.863
X1.359Y-3.891
X1.359Y-3.919
X1.359Y-3.947
X1.362Y-3.558
X1.364Y-3.051
X1.37Y-2.568
X1.37Y-2.61
X1.37Y-2.694
X1.37Y-2.862
X1.37Y-2.904
X1.37Y-2.946
X1.37Y-3.996
X1.37Y-2.736
X1.387Y-3.695
X1.387Y-3.723
X1.387Y-3.751
X1.387Y-3.779
X1.387Y-3.807
X1.387Y-3.835
X1.387Y-3.863
X1.387Y-3.891
X1.387Y-3.919
X1.387Y-3.947
X1.3878Y-2.7972
X1.407Y-3.137
X1.407Y-3.109
X1.412Y-2.82
X1.412Y-2.904
X1.412Y-3.996
X1.412Y-4.164
X1.412Y-2.568
X1.412Y-2.61
X1.412Y-2.694
X1.412Y-2.862
X1.415Y-3.695
X1.415Y-3.723
X1.415Y-3.751
X1.415Y-3.779
X1.415Y-3.807
X1.415Y-3.835
X1.415Y-3.863
X1.415Y-3.891
X1.415Y-3.919
X1.415Y-3.947
X1.431Y-3.528
X1.431Y-3.556
X1.431Y-3.584
X1.431Y-3.612
X1.431Y-3.64
X1.433Y-3.064
X1.435Y-3.109
X1.439Y-3.181
X1.443Y-3.695
X1.443Y-3.723
X1.443Y-3.751
X1.443Y-3.779
X1.443Y-3.807
X1.443Y-3.835
X1.443Y-3.863
X1.443Y-3.891
X1.443Y-3.919
X1.443Y-3.947
X1.449Y-3.221
X1.449Y-3.263
X1.449Y-3.347
X1.449Y-3.389
X1.454Y-2.568
X1.454Y-2.61
X1.454Y-3.469
X1.454Y-3.996
X1.454Y-4.038
X1.455Y-3.514
X1.455Y-3.542
X1.455Y-3.57
X1.455Y-3.598
X1.455Y-3.626
X1.467Y-3.181
X1.467Y-3.153
X1.469Y-2.939
X1.471Y-3.695
X1.471Y-3.723
X1.471Y-3.751
X1.471Y-3.779
X1.471Y-3.807
X1.471Y-3.835
X1.471Y-3.863
X1.471Y-3.891
X1.471Y-3.919
X1.471Y-3.947
X1.474Y-3.373
X1.474Y-3.401
X1.476Y-2.716
X1.478Y-2.806
X1.487Y-3.217
X1.492Y-3.1
X1.496Y-3.66
X1.496Y-3.463
X1.496Y-3.996
X1.496Y-4.038
X1.496Y-4.08
X1.496Y-4.122
X1.496Y-4.164
X1.496Y-2.568
X1.496Y-2.61
X1.498Y-3.387
X1.499Y-3.311
X1.499Y-3.339
X1.499Y-3.695
X1.499Y-3.723
X1.499Y-3.751
X1.499Y-3.779
X1.499Y-3.807
X1.499Y-3.835
X1.499Y-3.863
X1.499Y-3.891
X1.499Y-3.919
X1.499Y-3.947
X1.51Y-2.656
X1.512Y-3.071
X1.522Y-2.905
X1.523Y-3.325
X1.526Y-3.003
X1.527Y-3.695
X1.527Y-3.723
X1.527Y-3.751
X1.527Y-3.779
X1.527Y-3.807
X1.527Y-3.835
X1.527Y-3.863
X1.527Y-3.891
X1.527Y-3.919
X1.527Y-3.947
X1.531Y-2.832
X1.536Y-3.208
X1.538Y-3.463
X1.538Y-4.038
X1.538Y-3.576
X1.538Y-3.618
X1.538Y-3.66
X1.538Y-3.996
X1.538Y-4.08
X1.538Y-4.122
X1.538Y-4.164
X1.548Y-2.869
X1.549Y-3.309
X1.555Y-3.723
X1.555Y-3.779
X1.555Y-3.835
X1.555Y-3.891
X1.555Y-3.947
X1.556Y-3.696
X1.556Y-3.752
X1.556Y-3.808
X1.556Y-3.864
X1.556Y-3.92
X1.558Y-3.075
X1.57Y-3.167
X1.574Y-3.034
X1.58Y-3.463
X1.58Y-3.576
X1.58Y-3.618
X1.58Y-4.122
X1.58Y-4.164
X1.589Y-3.009
X1.589Y-3.311
X1.59Y-3.385
X1.599Y-3.94
X1.599Y-3.968
X1.599Y-3.996
X1.599Y-4.024
X1.602Y-2.903
X1.604Y-3.407
X1.605Y-3.637
X1.607Y-2.756
X1.6072Y-2.7942
X1.6072Y-2.832
X1.6072Y-2.8698
X1.618Y-3.385
X1.622Y-4.164
X1.623Y-3.48
X1.623Y-3.508
X1.623Y-3.954
X1.623Y-3.982
X1.623Y-4.01
X1.625Y-2.959
X1.627Y-3.816
X1.632Y-3.33
X1.632Y-3.407
X1.632Y-3.753
X1.635Y-2.561
X1.6352Y-2.832
X1.64Y-2.67
X1.647Y-3.466
X1.647Y-3.494
X1.647Y-3.522
X1.655Y-3.788
X1.655Y-3.816
X1.656Y-2.5
X1.657Y-2.896
X1.66Y-3.407
X1.66Y-3.753
X1.6632Y-2.832
X1.664Y-4.164
X1.671Y-3.48
X1.671Y-3.508
X1.671Y-3.536
X1.671Y-3.564
X1.6722Y-3.323
X1.6728Y-2.561
X1.673Y-2.78
X1.6732Y-3.3841
X1.676Y-3.843
X1.683Y-3.603
X1.683Y-3.788
X1.683Y-3.816
X1.685Y-3.667
X1.685Y-3.703
X1.688Y-3.753
X1.688Y-4.113
X1.69Y-3.348
X1.694Y-2.726
X1.695Y-3.407
X1.695Y-3.466
X1.695Y-3.494
X1.695Y-3.522
X1.695Y-3.55
X1.695Y-3.578
X1.696Y-2.851
X1.699Y-2.809
X1.702Y-4.089
X1.704Y-3.843
X1.706Y-2.484
X1.706Y-4.164
X1.708Y-3.615
X1.71Y-3.78
X1.7108Y-2.625
X1.712Y-3.069
X1.712Y-3.808
X1.715Y-2.561
X1.716Y-3.753
X1.716Y-4.113
X1.723Y-2.933
X1.73Y-3.667
X1.73Y-3.703
X1.73Y-4.089
X1.732Y-2.858
X1.744Y-3.753
X1.744Y-4.113
X1.748Y-2.484
X1.748Y-3.808
X1.748Y-4.164
X1.75Y-3.78
X1.752Y-3.609
X1.756Y-3.843
X1.757Y-2.625
X1.757Y-2.667
X1.757Y-2.561
X1.758Y-4.089
X1.765Y-3.466
X1.765Y-3.494
X1.765Y-3.522
X1.765Y-3.55
X1.765Y-3.578
X1.766Y-2.7
X1.767Y-3.672
X1.769Y-2.74
X1.772Y-3.753
X1.772Y-4.113
X1.775Y-3.703
X1.777Y-3.788
X1.777Y-3.816
X1.781Y-2.984
X1.784Y-3.843
X1.789Y-3.48
X1.789Y-3.508
X1.789Y-3.536
X1.789Y-3.564
X1.79Y-2.484
X1.79Y-4.164
X1.799Y-3.106
X1.799Y-3.292
X1.803Y-3.378
X1.803Y-3.406
X1.805Y-3.788
X1.805Y-3.816
X1.806Y-2.666
X1.807Y-3.614
X1.807Y-3.642
X1.813Y-3.494
X1.813Y-3.522
X1.813Y-3.55
X1.82Y-2.985
X1.823Y-3.234
X1.823Y-3.278
X1.8268Y-3.5942
X1.829Y-2.772
X1.832Y-3.12
X1.832Y-4.164
X1.833Y-3.788
X1.833Y-3.816
X1.837Y-2.665
X1.837Y-3.508
X1.837Y-3.954
X1.837Y-3.982
X1.837Y-4.01
X1.84Y-3.395
X1.841Y-2.963
X1.844Y-3.367
X1.847Y-3.329
X1.85Y-3.463
X1.851Y-3.234
X1.851Y-3.278
X1.861Y-3.94
X1.861Y-3.968
X1.861Y-3.996
X1.861Y-4.024
X1.866Y-3.149
X1.867Y-2.783
X1.868Y-3.353
X1.869Y-2.645
X1.869Y-3.814
X1.871Y-3.183
X1.874Y-2.561
X1.874Y-2.484
X1.874Y-4.122
X1.874Y-4.164
X1.875Y-3.483
X1.878Y-2.828
X1.879Y-3.234
X1.879Y-3.278
X1.879Y-3.785
X1.882Y-3.539
X1.899Y-2.703
X1.899Y-2.933
X1.899Y-3.305
X1.8998Y-3.4773
X1.9Y-3.121
X1.9Y-3.699
X1.903Y-2.89
X1.907Y-3.234
X1.907Y-3.278
X1.91Y-3.539
X1.914Y-3.354
X1.915Y-3.502
X1.916Y-3.954
X1.916Y-2.484
X1.916Y-2.561
X1.916Y-3.912
X1.916Y-4.038
X1.916Y-4.08
X1.916Y-4.122
X1.916Y-4.164
X1.93Y-2.957
X1.931Y-2.749
X1.931Y-2.89
X1.931Y-3.645
X1.931Y-3.673
X1.938Y-3.539
X1.945Y-3.451
X1.946Y-3.479
X1.946Y-3.507
X1.947Y-2.587
X1.949Y-2.934
X1.95Y-2.686
X1.95Y-2.726
X1.95Y-2.806
X1.953Y-2.993
X1.958Y-2.965
X1.958Y-4.08
X1.958Y-4.122
X1.958Y-4.164
X1.959Y-2.89
X1.959Y-3.645
X1.959Y-3.673
X1.963Y-3.234
X1.963Y-3.278
X1.9692Y-3.5392
X1.97Y-3.465
X1.97Y-3.493
X1.977Y-2.934
X1.9783Y-3.0917
X1.981Y-2.558
X1.987Y-2.89
X1.987Y-3.673
X1.989Y-3.559
X1.991Y-3.234
X1.991Y-3.278
X1.994Y-3.507
X1.994Y-3.707
X1.997Y-3.025
X2.0Y-3.996
X2.0Y-3.198
X2.0Y-4.038
X2.0Y-4.164
X2.007Y-3.653
X2.008Y-3.062
X2.008Y-3.811
X2.008Y-3.839
X2.008Y-3.867
X2.0088Y-3.5788
X2.015Y-2.89
X2.018Y-3.493
X2.018Y-3.521
X2.019Y-3.234
X2.019Y-3.278
X2.025Y-2.709
X2.034Y-3.66
X2.036Y-2.749
X2.036Y-3.811
X2.036Y-3.839
X2.036Y-3.867
X2.038Y-2.823
X2.042Y-2.442
X2.042Y-3.156
X2.042Y-3.198
X2.042Y-3.507
X2.042Y-3.576
X2.042Y-4.164
X2.044Y-3.11
X2.045Y-3.048
X2.047Y-3.278
X2.047Y-3.234
X2.061Y-2.788
X2.061Y-3.302
X2.061Y-3.455
X2.064Y-3.811
X2.064Y-3.839
X2.064Y-3.867
X2.071Y-2.596
X2.071Y-3.648
X2.075Y-3.278
X2.075Y-3.234
X2.081Y-3.089
X2.084Y-3.996
X2.084Y-2.442
X2.084Y-2.484
X2.084Y-3.156
X2.084Y-3.198
X2.084Y-3.492
X2.084Y-3.534
X2.084Y-4.038
X2.084Y-4.164
X2.084Y-3.576
X2.089Y-2.622
X2.089Y-3.302
X2.089Y-3.719
X2.097Y-3.691
X2.099Y-2.874
X2.099Y-3.067
X2.103Y-3.278
X2.103Y-3.326
X2.103Y-3.234
X2.115Y-2.772
X2.117Y-3.302
X2.121Y-2.967
X2.125Y-3.655
X2.125Y-3.691
X2.125Y-3.719
X2.125Y-3.77
X2.126Y-3.451
X2.126Y-3.534
X2.126Y-2.442
X2.126Y-2.484
X2.126Y-3.114
X2.126Y-3.156
X2.126Y-3.492
X2.126Y-3.576
X2.126Y-4.08
X2.126Y-4.122
X2.126Y-4.164
X2.126Y-3.198
X2.131Y-3.278
X2.131Y-3.326
X2.131Y-3.234
X2.134Y-3.028
X2.138Y-2.674
X2.144Y-2.716
X2.145Y-3.302
X2.151Y-2.933
X2.153Y-3.655
X2.153Y-3.691
X2.153Y-3.719
X2.153Y-3.77
X2.153Y-3.798
X2.159Y-3.234
X2.159Y-3.278
X2.159Y-3.326
X2.161Y-2.971
X2.168Y-3.492
X2.168Y-2.442
X2.168Y-3.114
X2.168Y-3.156
X2.168Y-3.198
X2.168Y-3.451
X2.168Y-3.534
X2.168Y-3.576
X2.168Y-4.08
X2.168Y-4.122
X2.168Y-4.164
X2.171Y-3.024
X2.173Y-3.302
X2.179Y-2.933
X2.181Y-3.655
X2.181Y-3.691
X2.181Y-3.719
X2.181Y-3.77
X2.181Y-3.798
X2.187Y-3.234
X2.187Y-3.278
X2.207Y-2.933
X2.209Y-3.655
X2.209Y-3.691
X2.209Y-3.719
X2.2099Y-3.912
X2.21Y-2.694
X2.21Y-3.954
X2.21Y-4.038
X2.21Y-2.61
X2.21Y-2.652
X2.21Y-2.988
X2.21Y-3.03
X2.21Y-3.072
X2.21Y-3.156
X2.21Y-3.324
X2.21Y-3.996
X2.21Y-4.08
X2.21Y-4.122
X2.21Y-4.164
X2.21Y-3.198
X2.213Y-2.89
X2.215Y-3.234
X2.215Y-3.278
X2.228Y-3.451
X2.228Y-3.479
X2.228Y-3.507
X2.228Y-3.535
X2.231Y-3.563
X2.235Y-2.933
X2.241Y-2.89
X2.243Y-3.234
X2.243Y-3.206
X2.243Y-3.278
X2.243Y-3.306
X2.243Y-3.334
X2.243Y-3.362
X2.243Y-3.673
X2.248Y-3.839
X2.2508Y-3.5828
X2.252Y-3.702
X2.252Y-2.316
X2.252Y-2.484
X2.252Y-2.568
X2.252Y-2.61
X2.252Y-2.652
X2.252Y-2.694
X2.252Y-2.736
X2.252Y-2.988
X2.252Y-3.03
X2.252Y-3.072
X2.252Y-3.114
X2.252Y-3.87
X2.252Y-3.912
X2.252Y-3.954
X2.252Y-3.996
X2.252Y-4.038
X2.252Y-4.08
X2.252Y-4.122
X2.252Y-4.164
X2.255Y-3.18
X2.263Y-2.933
X2.269Y-2.766
X2.269Y-2.833
X2.269Y-2.89
X2.2706Y-3.6026
X2.278Y-2.292
X2.278Y-2.348
X2.278Y-2.404
X2.281Y-2.74
X2.2904Y-3.6224
X2.291Y-2.933
X2.292Y-3.651
X2.294Y-3.03
X2.294Y-2.988
X2.294Y-3.072
X2.294Y-3.702
X2.294Y-3.744
X2.294Y-3.786
X2.294Y-3.828
X2.294Y-4.164
X2.2946Y-3.1404
X2.303Y-3.94
X2.303Y-3.968
X2.303Y-3.996
X2.303Y-4.024
X2.313Y-2.773
X2.3144Y-3.1206
X2.3148Y-2.9528
X2.325Y-2.4811
X2.325Y-2.5561
X2.325Y-2.631
X2.327Y-3.954
X2.327Y-3.982
X2.327Y-4.01
X2.328Y-2.7
X2.333Y-2.836
X2.334Y-2.292
X2.334Y-2.348
X2.334Y-2.404
X2.334Y-3.73
X2.336Y-2.89
X2.336Y-3.03
X2.336Y-3.072
X2.336Y-4.164
X2.342Y-3.119
X2.3442Y-3.8132
X2.3506Y-2.9886
X2.352Y-2.811
X2.356Y-2.861
X2.357Y-2.933
X2.358Y-3.642
X2.359Y-3.683
X2.359Y-3.786
X2.364Y-2.89
X2.364Y-3.833
X2.368Y-2.756
X2.37Y-3.119
X2.37Y-3.479
X2.3704Y-3.0084
X2.3768Y-2.9528
X2.377Y-3.416
X2.378Y-2.274
X2.378Y-2.316
X2.378Y-2.358
X2.378Y-4.164
X2.378Y-3.744
X2.38Y-2.454
X2.38Y-2.482
X2.38Y-2.51
X2.381Y-2.393
X2.3838Y-3.8528
X2.384Y-2.868
X2.384Y-3.55
X2.3894Y-3.4564
X2.3902Y-3.0282
X2.392Y-4.113
X2.397Y-3.393
X2.398Y-3.119
X2.401Y-3.054
X2.401Y-3.082
X2.403Y-3.642
X2.406Y-4.089
X2.4092Y-3.4762
X2.4115Y-3.5355
X2.412Y-2.988
X2.413Y-2.933
X2.416Y-2.831
X2.416Y-3.694
X2.417Y-3.373
X2.418Y-2.888
X2.42Y-2.274
X2.42Y-2.316
X2.42Y-2.358
X2.42Y-4.113
X2.42Y-4.164
X2.424Y-2.859
X2.424Y-3.728
X2.426Y-3.119
X2.429Y-3.496
X2.43Y-3.76
X2.4318Y-3.0078
X2.434Y-4.089
X2.446Y-2.916
X2.448Y-4.113
X2.449Y-2.944
X2.4516Y-3.7424
X2.453Y-2.85
X2.4544Y-3.3624
X2.457Y-3.682
X2.459Y-3.5204
X2.4598Y-3.0078
X2.46Y-3.484
X2.462Y-2.274
X2.462Y-2.316
X2.462Y-4.089
X2.462Y-4.164
X2.462Y-2.358
X2.4714Y-3.7226
X2.4728Y-2.8302
X2.473Y-2.926
X2.4742Y-3.3822
X2.476Y-4.113
X2.477Y-3.564
X2.4798Y-2.7739
X2.4854Y-3.3314
X2.488Y-3.627
X2.488Y-3.655
X2.491Y-3.703
X2.494Y-3.402
X2.498Y-3.434
X2.501Y-3.833
X2.504Y-2.274
X2.504Y-2.316
X2.504Y-2.358
X2.504Y-4.164
X2.5044Y-2.9316
X2.5052Y-3.3512
X2.509Y-3.04
X2.509Y-3.222
X2.509Y-3.309
X2.5136Y-3.674
X2.514Y-3.458
X2.515Y-3.012
X2.5176Y-3.8104
X2.521Y-3.703
X2.5242Y-2.9118
X2.525Y-3.371
X2.526Y-3.424
X2.529Y-2.986
X2.534Y-3.478
X2.537Y-3.319
X2.5374Y-3.7906
X2.538Y-2.83
X2.538Y-2.858
X2.5392Y-2.7748
X2.541Y-3.954
X2.541Y-3.982
X2.541Y-4.01
X2.544Y-2.892
X2.546Y-2.274
X2.546Y-2.316
X2.546Y-3.746
X2.546Y-4.164
X2.546Y-2.358
X2.548Y-3.403
X2.552Y-3.499
X2.555Y-3.77
X2.557Y-3.375
X2.562Y-2.809
X2.565Y-3.94
X2.565Y-3.968
X2.565Y-3.996
X2.565Y-4.024
X2.5674Y-3.3244
X2.571Y-3.008
X2.5725Y-3.698
X2.573Y-3.726
X2.5804Y-3.3904
X2.587Y-3.77
X2.5873Y-3.3443
X2.588Y-2.274
X2.588Y-2.316
X2.588Y-2.358
X2.588Y-3.828
X2.588Y-3.912
X2.588Y-4.122
X2.588Y-4.164
X2.596Y-3.0865
X2.597Y-2.997
X2.597Y-3.746
X2.6002Y-3.4102
X2.6056Y-3.7916
X2.607Y-3.364
X2.614Y-3.464
X2.614Y-3.492
X2.6168Y-2.9772
X2.617Y-3.054
X2.62Y-3.43
X2.624Y-3.704
X2.6254Y-3.8114
X2.6273Y-3.3843
X2.628Y-3.028
X2.628Y-3.085
X2.63Y-2.274
X2.63Y-2.316
X2.63Y-3.87
X2.63Y-3.912
X2.63Y-3.954
X2.63Y-3.996
X2.63Y-4.038
X2.63Y-4.08
X2.63Y-4.122
X2.63Y-4.164
X2.63Y-2.358
X2.6366Y-2.9574
X2.637Y-2.3931
X2.638Y-2.454
X2.638Y-2.482
X2.638Y-2.51
X2.642Y-3.835
X2.6478Y-3.0082
X2.652Y-3.704
X2.656Y-3.068
X2.6564Y-2.9376
X2.657Y-2.758
X2.66Y-2.82
X2.66Y-2.862
X2.661Y-3.309
X2.662Y-2.434
X2.6676Y-2.9884
X2.67Y-3.044
X2.671Y-3.396
X2.671Y-3.424
X2.671Y-3.452
X2.671Y-3.48
X2.672Y-3.912
X2.672Y-3.954
X2.672Y-3.996
X2.672Y-4.038
X2.672Y-4.08
X2.672Y-4.122
X2.672Y-4.164
X2.6726Y-3.7246
X2.676Y-3.627
X2.6762Y-2.9178
X2.684Y-2.292
X2.684Y-2.348
X2.684Y-2.404
X2.684Y-3.02
X2.684Y-3.068
X2.6874Y-2.9686
X2.689Y-2.7595
X2.6924Y-3.7444
X2.693Y-2.494
X2.693Y-2.644
X2.693Y-3.565
X2.694Y-2.57
X2.696Y-2.898
X2.698Y-2.786
X2.698Y-2.814
X2.698Y-2.842
X2.698Y-2.87
X2.699Y-3.646
X2.703Y-3.143
X2.7072Y-2.9488
X2.708Y-3.704
X2.714Y-2.442
X2.714Y-3.884
X2.714Y-3.912
X2.714Y-4.038
X2.714Y-4.08
X2.714Y-4.122
X2.714Y-4.164
X2.716Y-3.76
X2.723Y-3.04
X2.727Y-2.929
X2.732Y-3.003
X2.7322Y-3.9052
X2.733Y-3.209
X2.74Y-2.292
X2.74Y-2.348
X2.74Y-2.404
X2.742Y-2.762
X2.742Y-2.79
X2.742Y-2.818
X2.742Y-2.846
X2.742Y-2.874
X2.742Y-2.902
X2.746Y-3.732
X2.7518Y-2.9832
X2.7518Y-3.0228
X2.752Y-3.925
X2.756Y-2.316
X2.756Y-2.442
X2.756Y-2.731
X2.756Y-4.08
X2.756Y-4.122
X2.756Y-4.164
X2.764Y-3.282
X2.764Y-3.45
X2.764Y-3.478
X2.769Y-3.784
X2.7716Y-3.003
X2.7716Y-3.0426
X2.7757Y-4.0449
X2.777Y-3.256
X2.779Y-2.945
X2.784Y-2.553
X2.791Y-2.983
X2.791Y-3.232
X2.7914Y-3.0228
X2.7914Y-3.0624
X2.793Y-2.722
X2.7955Y-4.0647
X2.798Y-2.778
X2.798Y-3.702
X2.798Y-2.274
X2.798Y-2.316
X2.798Y-2.358
X2.798Y-2.442
X2.798Y-2.501
X2.798Y-2.528
X2.798Y-2.82
X2.798Y-2.862
X2.798Y-3.66
X2.798Y-3.744
X2.798Y-4.122
X2.798Y-4.164
X2.7988Y-3.2908
X2.7994Y-3.7944
X2.8025Y-4.0379
X2.807Y-2.746
X2.8108Y-2.9632
X2.8112Y-3.0426
X2.812Y-2.553
X2.8153Y-4.0845
X2.8186Y-3.3106
X2.8192Y-3.8142
X2.821Y-2.722
X2.8223Y-4.0577
X2.824Y-3.223
X2.824Y-3.251
X2.826Y-2.501
X2.826Y-2.529
X2.8326Y-3.6404
X2.835Y-2.746
X2.8351Y-4.1043
X2.8384Y-3.3304
X2.839Y-3.834
X2.84Y-3.282
X2.84Y-2.316
X2.84Y-2.553
X2.84Y-2.82
X2.84Y-2.904
X2.84Y-2.946
X2.84Y-3.702
X2.84Y-3.744
X2.84Y-3.786
X2.84Y-4.164
X2.8421Y-4.0775
X2.849Y-2.722
X2.849Y-2.77
X2.8524Y-3.6206
X2.854Y-2.501
X2.854Y-2.529
X2.8582Y-3.3502
X2.863Y-2.746
X2.868Y-2.553
X2.8722Y-3.6008
X2.877Y-2.722
X2.877Y-2.77
X2.8782Y-3.3702
X2.882Y-3.198
X2.882Y-3.282
X2.882Y-2.529
X2.882Y-2.862
X2.882Y-2.904
X2.882Y-3.156
X2.882Y-3.24
X2.882Y-3.324
X2.882Y-3.66
X2.882Y-3.702
X2.882Y-3.744
X2.882Y-2.946
X2.887Y-2.642
X2.891Y-2.746
X2.892Y-3.581
X2.898Y-3.39
X2.907Y-2.661
X2.907Y-2.689
X2.908Y-3.417
X2.908Y-3.445
X2.908Y-3.473
X2.908Y-3.501
X2.908Y-3.529
X2.908Y-3.557
X2.911Y-2.516
X2.911Y-2.544
X2.911Y-2.572
X2.911Y-2.6
X2.911Y-2.628
X2.924Y-3.702
X2.924Y-2.232
X2.924Y-2.82
X2.924Y-2.862
X2.924Y-2.904
X2.924Y-3.114
X2.924Y-3.156
X2.924Y-3.198
X2.924Y-3.24
X2.924Y-3.324
X2.924Y-3.618
X2.924Y-3.66
X2.924Y-3.744
X2.924Y-3.282
X2.924Y-3.366
X2.931Y-2.647
X2.931Y-2.675
X2.931Y-2.703
X2.935Y-2.53
X2.935Y-2.558
X2.935Y-2.586
X2.935Y-2.614
X2.9539Y-3.8865
X2.9539Y-4.0775
X2.959Y-2.638
X2.9609Y-3.8597
X2.9609Y-4.1043
X2.966Y-3.114
X2.966Y-3.282
X2.966Y-2.232
X2.966Y-2.274
X2.966Y-2.442
X2.966Y-3.072
X2.966Y-3.156
X2.966Y-3.198
X2.966Y-3.24
X2.966Y-3.324
X2.966Y-3.366
X2.966Y-3.408
X2.966Y-3.45
X2.966Y-3.492
X2.966Y-3.534
X2.966Y-3.576
X2.966Y-3.618
X2.966Y-3.66
X2.966Y-3.702
X2.966Y-3.744
X2.966Y-3.786
X2.966Y-3.828
X2.966Y-4.164
X2.9737Y-3.9063
X2.9737Y-4.0577
X2.978Y-2.492
X2.978Y-2.524
X2.9807Y-3.8795
X2.9807Y-4.0845
X2.9935Y-3.9261
X2.9935Y-4.0379
X3.0005Y-3.8993
X3.0005Y-4.0647
X3.008Y-2.232
X3.008Y-3.072
X3.008Y-2.82
X3.008Y-2.862
X3.008Y-2.904
X3.008Y-3.03
X3.008Y-3.114
X3.008Y-3.156
X3.008Y-3.198
X3.008Y-3.24
X3.008Y-3.282
X3.008Y-3.324
X3.008Y-3.366
X3.008Y-3.408
X3.008Y-3.45
X3.008Y-3.492
X3.008Y-3.534
X3.008Y-3.576
X3.008Y-3.618
X3.008Y-3.66
X3.008Y-3.702
X3.008Y-3.744
X3.008Y-3.786
X3.008Y-3.828
X3.008Y-4.122
X3.008Y-4.164
X3.0203Y-3.9191
X3.0203Y-4.0449
X3.05Y-2.232
X3.05Y-2.988
X3.05Y-3.03
X3.05Y-3.072
X3.05Y-3.156
X3.05Y-3.198
X3.05Y-3.24
X3.05Y-3.282
X3.05Y-3.324
X3.05Y-3.366
X3.05Y-3.408
X3.05Y-3.492
X3.05Y-3.534
X3.05Y-3.576
X3.05Y-3.618
X3.05Y-3.66
X3.05Y-3.828
X3.05Y-3.87
X3.05Y-3.912
X3.05Y-4.08
X3.05Y-4.122
X3.05Y-4.164
X3.05Y-3.114
X3.05Y-3.45
X3.092Y-3.324
X3.092Y-3.45
X3.092Y-2.652
X3.092Y-2.694
X3.092Y-2.736
X3.092Y-2.778
X3.092Y-2.82
X3.092Y-2.862
X3.092Y-2.904
X3.092Y-2.946
X3.092Y-2.988
X3.092Y-3.03
X3.092Y-3.072
X3.092Y-3.114
X3.092Y-3.156
X3.092Y-3.198
X3.092Y-3.24
X3.092Y-3.282
X3.092Y-3.366
X3.092Y-3.408
X3.092Y-3.492
X3.092Y-3.534
X3.092Y-3.576
X3.092Y-3.618
X3.092Y-3.66
X3.092Y-3.828
X3.092Y-3.87
X3.092Y-3.912
X3.092Y-4.038
X3.092Y-4.08
X3.092Y-4.122
X3.092Y-4.164
X3.134Y-2.652
X3.134Y-2.694
X3.134Y-2.736
X3.134Y-2.82
X3.134Y-2.862
X3.134Y-2.904
X3.134Y-2.946
X3.134Y-2.988
X3.134Y-3.072
X3.134Y-3.156
X3.134Y-3.24
X3.134Y-3.282
X3.134Y-3.324
X3.134Y-3.366
X3.134Y-3.408
X3.134Y-3.492
X3.134Y-3.576
X3.134Y-3.618
X3.134Y-3.66
X3.134Y-3.828
X3.134Y-3.87
X3.134Y-3.912
X3.134Y-3.954
X3.134Y-3.996
X3.134Y-4.038
X3.134Y-4.08
X3.134Y-4.122
X3.134Y-4.164
X3.134Y-2.778
X3.134Y-3.03
X3.134Y-3.114
X3.134Y-3.198
X3.134Y-3.45
X3.134Y-3.534
X3.1758Y-4.0379
X3.176Y-2.232
X3.176Y-2.274
X3.176Y-2.316
X3.176Y-2.358
X3.176Y-2.4
X3.176Y-2.442
X3.176Y-2.484
X3.176Y-2.526
X3.176Y-2.568
X3.176Y-2.61
X3.176Y-2.652
X3.176Y-2.694
X3.176Y-2.736
X3.176Y-2.778
X3.176Y-2.862
X3.176Y-2.904
X3.176Y-2.946
X3.176Y-2.988
X3.176Y-3.03
X3.176Y-3.072
X3.176Y-3.114
X3.176Y-3.156
X3.176Y-3.24
X3.176Y-3.282
X3.176Y-3.324
X3.176Y-3.366
X3.176Y-3.408
X3.176Y-3.492
X3.176Y-3.534
X3.176Y-3.576
X3.176Y-3.618
X3.176Y-3.66
X3.176Y-3.702
X3.176Y-3.744
X3.176Y-3.786
X3.176Y-3.828
X3.176Y-3.912
X3.176Y-3.954
X3.176Y-3.996
X3.176Y-4.08
X3.176Y-4.122
X3.176Y-4.164
X3.176Y-2.82
X3.176Y-3.198
X3.176Y-3.45
X3.176Y-3.87
T2
X2.4089Y-2.543
X2.4089Y-2.5932
X2.4089Y-2.6434
X2.4089Y-2.6936
X2.4089Y-2.7438
X2.4591Y-2.543
X2.4591Y-2.5932
X2.4591Y-2.6434
X2.4591Y-2.6936
X2.4591Y-2.7438
X2.4696Y-3.0766
X2.4696Y-3.116
X2.4696Y-3.1554
X2.509Y-3.0766
X2.509Y-3.116
X2.509Y-3.1554
X2.5093Y-2.543
X2.5093Y-2.5932
X2.5093Y-2.6434
X2.5093Y-2.6936
X2.5093Y-2.7438
X2.5431Y-3.5568
X2.5431Y-3.5962
X2.5431Y-3.6355
X2.5484Y-3.0766
X2.5484Y-3.116
X2.5484Y-3.1554
X2.5595Y-2.543
X2.5595Y-2.5932
X2.5595Y-2.6434
X2.5595Y-2.6936
X2.5595Y-2.7438
X2.5824Y-3.5568
X2.5824Y-3.5962
X2.5824Y-3.6355
X2.6097Y-2.543
X2.6097Y-2.5932
X2.6097Y-2.6434
X2.6097Y-2.6936
X2.6097Y-2.7438
X2.6218Y-3.5568
X2.6218Y-3.5962
X2.6218Y-3.6355
T3
X1.503Y-2.743
X1.56Y-2.96
X1.615Y-3.713
X1.735Y-2.753
X1.7694Y-2.828
X1.777Y-3.315
X1.854Y-3.71
X1.861Y-3.001
X1.899Y-3.39
X1.923Y-3.844
X1.924Y-3.744
X1.975Y-2.846
X2.006Y-2.613
X2.034Y-3.774
X2.158Y-2.528
X2.185Y-2.832
X2.197Y-3.838
X2.248Y-3.771
X2.298Y-2.593
X2.313Y-2.519
X2.345Y-2.672
X2.4015Y-3.789
X2.439Y-3.823
X2.476Y-3.858
X2.509Y-3.189
X2.549Y-2.957
X2.646Y-3.6724
X2.647Y-3.112
X2.6702Y-3.859
X2.704Y-3.822
X2.735Y-3.097
X2.739Y-3.785
X2.743Y-2.504
X2.743Y-2.566
X2.746Y-3.675
X2.792Y-3.182
X2.865Y-3.029
X2.985Y-2.756
T4
X1.6033Y-3.1683
X1.6033Y-3.2257
X1.6533Y-3.1183
X1.6533Y-3.1683
X1.6533Y-3.2257
X1.6533Y-3.2757
X1.7096Y-3.2757
X1.7107Y-3.1183
X1.7107Y-3.1683
X1.7107Y-3.2257
X1.7607Y-3.1683
X1.7607Y-3.2257
T5
X1.398Y-3.479
X1.42Y-2.973
X1.476Y-2.511
X1.654Y-3.639
X1.999Y-3.325
X2.651Y-2.671
X2.73Y-3.502
X2.998Y-2.371
X3.001Y-2.575
X3.001Y-2.617
X3.038Y-2.372
T6
X2.008Y-2.279
X2.058Y-2.279
X2.108Y-2.279
X2.158Y-2.279
T7
X1.9451Y-3.999
X2.0436Y-4.0974
X2.142Y-3.999
T8
X1.376Y-2.29
X1.376Y-2.39
X1.376Y-3.2768
X1.376Y-3.3768
X1.476Y-2.29
X1.476Y-2.39
X1.576Y-2.29
X1.576Y-2.39
X1.676Y-2.29
X1.676Y-2.39
X1.776Y-2.29
X1.776Y-2.39
X1.876Y-2.29
X1.876Y-2.39
X3.11Y-2.292
X3.11Y-2.392
X3.11Y-2.492
T9
X1.73Y-3.9821
X2.434Y-3.982
X2.898Y-3.982
T10
X1.63Y-3.8821
X1.63Y-4.0821
X1.83Y-3.8821
X1.83Y-4.0821
X2.334Y-3.882
X2.334Y-4.082
X2.534Y-3.882
X2.534Y-4.082
X2.7566Y-3.982
X2.898Y-3.8406
X2.898Y-4.1234
X3.0394Y-3.982
T11
X1.39Y-4.084
X2.887Y-2.418
X3.102Y-3.744
T0
M30
