%TF.GenerationSoftware,KiCad,Pcbnew,(6.0.4)*%
%TF.CreationDate,2023-05-27T00:51:03+09:00*%
%TF.ProjectId,RFB,5246422e-6b69-4636-9164-5f7063625858,rev?*%
%TF.SameCoordinates,Original*%
%TF.FileFunction,Legend,Bot*%
%TF.FilePolarity,Positive*%
%FSLAX46Y46*%
G04 Gerber Fmt 4.6, Leading zero omitted, Abs format (unit mm)*
G04 Created by KiCad (PCBNEW (6.0.4)) date 2023-05-27 00:51:03*
%MOMM*%
%LPD*%
G01*
G04 APERTURE LIST*
%ADD10C,0.120000*%
%ADD11C,0.200000*%
G04 APERTURE END LIST*
D10*
%TO.C,U7*%
X78063000Y-72710400D02*
X76663000Y-72710400D01*
X78063000Y-75610400D02*
X78063000Y-72710400D01*
X75863000Y-75610400D02*
X78063000Y-75610400D01*
X75863000Y-73510400D02*
X75863000Y-75610400D01*
X76663000Y-72710400D02*
X75863000Y-73510400D01*
%TO.C,C141*%
X68720580Y-86459600D02*
X68439420Y-86459600D01*
X68720580Y-87479600D02*
X68439420Y-87479600D01*
%TO.C,J1*%
X77006848Y-99795762D02*
X74956238Y-97745152D01*
X77006848Y-102489838D02*
X74956238Y-104540448D01*
X72262162Y-97745152D02*
X70211552Y-99795762D01*
X72262162Y-104540448D02*
X70211552Y-102489838D01*
%TO.C,IC1*%
X76072600Y-81659600D02*
X76072600Y-83659600D01*
X78312600Y-83659600D02*
X78312600Y-82659600D01*
%TO.C,C83*%
X47798400Y-90900364D02*
X47798400Y-91116036D01*
X48518400Y-90900364D02*
X48518400Y-91116036D01*
%TO.C,C102*%
X47140400Y-86727420D02*
X47140400Y-87008580D01*
X48160400Y-86727420D02*
X48160400Y-87008580D01*
%TO.C,IC10*%
X74152700Y-68856200D02*
X75152700Y-68856200D01*
X73152700Y-66636200D02*
X75152700Y-66636200D01*
%TO.C,R37*%
X44603641Y-88723200D02*
X44296359Y-88723200D01*
X44603641Y-89483200D02*
X44296359Y-89483200D01*
%TO.C,C69*%
X68833493Y-89610590D02*
X68680990Y-89763093D01*
X69342610Y-90119707D02*
X69190107Y-90272210D01*
%TO.C,U2*%
X37049908Y-71932800D02*
X37409119Y-72292010D01*
X40821616Y-68161092D02*
X40462406Y-68520303D01*
X44234113Y-71573590D02*
X44593324Y-71932800D01*
X40462406Y-75345297D02*
X40821616Y-75704508D01*
X37409119Y-71573590D02*
X37049908Y-71932800D01*
X41180826Y-68520303D02*
X40821616Y-68161092D01*
X40821616Y-75704508D02*
X41180826Y-75345297D01*
%TO.C,R75*%
X67954459Y-83287600D02*
X68261741Y-83287600D01*
X67954459Y-84047600D02*
X68261741Y-84047600D01*
%TO.C,R21*%
X55218600Y-95048041D02*
X55218600Y-94740759D01*
X54458600Y-95048041D02*
X54458600Y-94740759D01*
%TO.C,J2*%
X63273600Y-104497800D02*
X60373600Y-104497800D01*
X63273600Y-97787800D02*
X60373600Y-97787800D01*
X58468600Y-102592800D02*
X58468600Y-99692800D01*
X65178600Y-102592800D02*
X65178600Y-99692800D01*
%TO.C,C122*%
X70343300Y-81495020D02*
X70343300Y-81776180D01*
X71363300Y-81495020D02*
X71363300Y-81776180D01*
%TO.C,R20*%
X52325241Y-92279200D02*
X52017959Y-92279200D01*
X52325241Y-93039200D02*
X52017959Y-93039200D01*
%TO.C,R50*%
X49048641Y-84708000D02*
X48741359Y-84708000D01*
X49048641Y-83948000D02*
X48741359Y-83948000D01*
%TO.C,R4*%
X35233459Y-70528140D02*
X35450740Y-70310859D01*
X35770860Y-71065541D02*
X35988141Y-70848260D01*
%TO.C,C30*%
X38147164Y-82071800D02*
X38362836Y-82071800D01*
X38147164Y-81351800D02*
X38362836Y-81351800D01*
%TO.C,C7*%
X70125536Y-84027600D02*
X69909864Y-84027600D01*
X70125536Y-83307600D02*
X69909864Y-83307600D01*
%TO.C,R68*%
X51258200Y-86767641D02*
X51258200Y-86460359D01*
X52018200Y-86767641D02*
X52018200Y-86460359D01*
%TO.C,R35*%
X44603400Y-87783641D02*
X44603400Y-87476359D01*
X45363400Y-87783641D02*
X45363400Y-87476359D01*
%TO.C,C121*%
X74460980Y-70334600D02*
X74179820Y-70334600D01*
X74460980Y-69314600D02*
X74179820Y-69314600D01*
%TO.C,C86*%
X47466364Y-94619400D02*
X47682036Y-94619400D01*
X47466364Y-93899400D02*
X47682036Y-93899400D01*
%TO.C,R52*%
X61469000Y-71067959D02*
X61469000Y-71375241D01*
X62229000Y-71067959D02*
X62229000Y-71375241D01*
%TO.C,C13*%
X46430693Y-84403590D02*
X46278190Y-84556093D01*
X46939810Y-84912707D02*
X46787307Y-85065210D01*
%TO.C,FB8*%
X78326822Y-66574600D02*
X77527578Y-66574600D01*
X78326822Y-65454600D02*
X77527578Y-65454600D01*
%TO.C,R33*%
X60857400Y-93701841D02*
X60857400Y-93394559D01*
X60097400Y-93701841D02*
X60097400Y-93394559D01*
%TO.C,R38*%
X43562000Y-90422759D02*
X43562000Y-90730041D01*
X44322000Y-90422759D02*
X44322000Y-90730041D01*
%TO.C,IC2*%
X67666900Y-82788000D02*
X67666900Y-80788000D01*
X69886900Y-81788000D02*
X69886900Y-80788000D01*
%TO.C,C85*%
X41127000Y-92970236D02*
X41127000Y-92754564D01*
X40407000Y-92970236D02*
X40407000Y-92754564D01*
%TO.C,C39*%
X63489100Y-70209836D02*
X63489100Y-69994164D01*
X62769100Y-70209836D02*
X62769100Y-69994164D01*
%TO.C,J10*%
X48675600Y-67246400D02*
X48675600Y-67196400D01*
X47295600Y-73266400D02*
X48675600Y-73266400D01*
X48675600Y-73316400D02*
X48675600Y-73266400D01*
X48675600Y-67196400D02*
X51095600Y-67196400D01*
X51095600Y-67246400D02*
X51095600Y-67196400D01*
X51095600Y-73316400D02*
X51095600Y-73266400D01*
X48675600Y-73316400D02*
X51095600Y-73316400D01*
%TO.C,C27*%
X43696601Y-76057318D02*
X43849104Y-76209821D01*
X44205718Y-75548201D02*
X44358221Y-75700704D01*
%TO.C,C99*%
X39596600Y-88456380D02*
X39596600Y-88175220D01*
X40616600Y-88456380D02*
X40616600Y-88175220D01*
%TO.C,FB7*%
X76224200Y-58782378D02*
X76224200Y-59581622D01*
X77344200Y-58782378D02*
X77344200Y-59581622D01*
%TO.C,C8*%
X39734304Y-67579579D02*
X39581801Y-67732082D01*
X40243421Y-68088696D02*
X40090918Y-68241199D01*
%TO.C,C17*%
X48010400Y-80260364D02*
X48010400Y-80476036D01*
X47290400Y-80260364D02*
X47290400Y-80476036D01*
%TO.C,U20*%
X70988443Y-77391289D02*
X72049103Y-76330628D01*
X68358005Y-76882172D02*
X70479326Y-74760851D01*
%TO.C,C87*%
X34996800Y-78073364D02*
X34996800Y-78289036D01*
X35716800Y-78073364D02*
X35716800Y-78289036D01*
%TO.C,C96*%
X44302000Y-97682164D02*
X44302000Y-97897836D01*
X43582000Y-97682164D02*
X43582000Y-97897836D01*
%TO.C,U10*%
X52918800Y-98450400D02*
X52918800Y-100125400D01*
X52918800Y-98450400D02*
X52918800Y-97800400D01*
X49798800Y-98450400D02*
X49798800Y-97800400D01*
X49798800Y-98450400D02*
X49798800Y-99100400D01*
%TO.C,C26*%
X43510707Y-76250190D02*
X43663210Y-76402693D01*
X43001590Y-76759307D02*
X43154093Y-76911810D01*
%TO.C,C104*%
X37935780Y-89587800D02*
X37654620Y-89587800D01*
X37935780Y-88567800D02*
X37654620Y-88567800D01*
%TO.C,C42*%
X64682900Y-70209836D02*
X64682900Y-69994164D01*
X63962900Y-70209836D02*
X63962900Y-69994164D01*
%TO.C,C132*%
X69134936Y-86059600D02*
X68919264Y-86059600D01*
X69134936Y-85339600D02*
X68919264Y-85339600D01*
%TO.C,C34*%
X71913100Y-69064236D02*
X71913100Y-68848564D01*
X72633100Y-69064236D02*
X72633100Y-68848564D01*
%TO.C,C3*%
X37505979Y-69511096D02*
X37658482Y-69663599D01*
X38015096Y-69001979D02*
X38167599Y-69154482D01*
%TO.C,R63*%
X65718900Y-71142642D02*
X65718900Y-70835360D01*
X64958900Y-71142642D02*
X64958900Y-70835360D01*
%TO.C,C32*%
X46299800Y-79749764D02*
X46299800Y-79965436D01*
X47019800Y-79749764D02*
X47019800Y-79965436D01*
%TO.C,IC8*%
X50733200Y-89222600D02*
X48733200Y-89222600D01*
X49733200Y-87002600D02*
X48733200Y-87002600D01*
%TO.C,U14*%
X46052000Y-92798200D02*
X46052000Y-92073200D01*
X46052000Y-96293200D02*
X45327000Y-96293200D01*
X46052000Y-92073200D02*
X45327000Y-92073200D01*
X41832000Y-95568200D02*
X41832000Y-96293200D01*
X46052000Y-95568200D02*
X46052000Y-96293200D01*
X41832000Y-92798200D02*
X41832000Y-92073200D01*
X41832000Y-96293200D02*
X42557000Y-96293200D01*
%TO.C,C11*%
X50031764Y-86643800D02*
X50247436Y-86643800D01*
X50031764Y-85923800D02*
X50247436Y-85923800D01*
%TO.C,C123*%
X72441410Y-77419707D02*
X72288907Y-77572210D01*
X71932293Y-76910590D02*
X71779790Y-77063093D01*
%TO.C,C116*%
X52294200Y-86480764D02*
X52294200Y-86696436D01*
X53014200Y-86480764D02*
X53014200Y-86696436D01*
%TO.C,U16*%
X39632200Y-93017600D02*
X39632200Y-91917600D01*
X33202200Y-94517600D02*
X33202200Y-93017600D01*
X33202200Y-93017600D02*
X33672200Y-93017600D01*
X40102200Y-94517600D02*
X40102200Y-93017600D01*
X40102200Y-93017600D02*
X39632200Y-93017600D01*
X33672200Y-93017600D02*
X33672200Y-90187600D01*
%TO.C,C88*%
X48816800Y-93661620D02*
X48816800Y-93942780D01*
X49836800Y-93661620D02*
X49836800Y-93942780D01*
%TO.C,R30*%
X41147000Y-96569559D02*
X41147000Y-96876841D01*
X40387000Y-96569559D02*
X40387000Y-96876841D01*
D11*
%TO.C,U4*%
X39497798Y-84203799D02*
X39497798Y-84428800D01*
X39722798Y-84428800D02*
X39497798Y-84428800D01*
X40072798Y-77978800D02*
X39497798Y-77978800D01*
X45947797Y-77978800D02*
X45722797Y-77978800D01*
X39497798Y-77978800D02*
X39497798Y-78553800D01*
X45947797Y-77978800D02*
X45947797Y-78203801D01*
X45947797Y-84203799D02*
X45947797Y-84428800D01*
X45947797Y-84428800D02*
X45722797Y-84428800D01*
D10*
%TO.C,C24*%
X41042764Y-76805200D02*
X41258436Y-76805200D01*
X41042764Y-77525200D02*
X41258436Y-77525200D01*
%TO.C,C98*%
X34862380Y-88567800D02*
X34581220Y-88567800D01*
X34862380Y-89587800D02*
X34581220Y-89587800D01*
%TO.C,FB1*%
X34500073Y-75776678D02*
X34730278Y-75546473D01*
X35221322Y-76497927D02*
X35451527Y-76267722D01*
%TO.C,C20*%
X38416620Y-85519800D02*
X38697780Y-85519800D01*
X38416620Y-86539800D02*
X38697780Y-86539800D01*
%TO.C,C43*%
X66808236Y-67568400D02*
X66592564Y-67568400D01*
X66808236Y-66848400D02*
X66592564Y-66848400D01*
%TO.C,C77*%
X63783800Y-81375364D02*
X63783800Y-81591036D01*
X63063800Y-81375364D02*
X63063800Y-81591036D01*
%TO.C,C133*%
X69197375Y-78418504D02*
X69044872Y-78266001D01*
X68688258Y-78927621D02*
X68535755Y-78775118D01*
%TO.C,C38*%
X60318764Y-69879800D02*
X60534436Y-69879800D01*
X60318764Y-69159800D02*
X60534436Y-69159800D01*
%TO.C,C103*%
X46125790Y-76175107D02*
X46278293Y-76327610D01*
X46634907Y-75665990D02*
X46787410Y-75818493D01*
%TO.C,R73*%
X72653100Y-66874959D02*
X72653100Y-67182241D01*
X71893100Y-66874959D02*
X71893100Y-67182241D01*
%TO.C,R32*%
X58497441Y-91009200D02*
X58190159Y-91009200D01*
X58497441Y-91769200D02*
X58190159Y-91769200D01*
%TO.C,R23*%
X47497000Y-91565759D02*
X47497000Y-91873041D01*
X46737000Y-91565759D02*
X46737000Y-91873041D01*
%TO.C,U9*%
X51443400Y-95518200D02*
X51443400Y-93618200D01*
X53763400Y-94118200D02*
X53763400Y-95518200D01*
%TO.C,C76*%
X66732036Y-79557200D02*
X66516364Y-79557200D01*
X66732036Y-78837200D02*
X66516364Y-78837200D01*
%TO.C,C131*%
X70601100Y-68101636D02*
X70601100Y-67885964D01*
X69881100Y-68101636D02*
X69881100Y-67885964D01*
%TO.C,C4*%
X43188704Y-68570179D02*
X43036201Y-68722682D01*
X43697821Y-69079296D02*
X43545318Y-69231799D01*
%TO.C,U13*%
X60405200Y-73169000D02*
X59005200Y-73169000D01*
X59005200Y-70849000D02*
X60905200Y-70849000D01*
%TO.C,U15*%
X56656800Y-94005400D02*
X56656800Y-94805400D01*
X59776800Y-94005400D02*
X59776800Y-93205400D01*
X59776800Y-94005400D02*
X59776800Y-94805400D01*
X56656800Y-94005400D02*
X56656800Y-92205400D01*
%TO.C,R5*%
X42486540Y-74832059D02*
X42269259Y-75049340D01*
X43023941Y-75369460D02*
X42806660Y-75586741D01*
%TO.C,C28*%
X43607400Y-85832836D02*
X43607400Y-85617164D01*
X44327400Y-85832836D02*
X44327400Y-85617164D01*
%TO.C,C29*%
X45343400Y-85832836D02*
X45343400Y-85617164D01*
X44623400Y-85832836D02*
X44623400Y-85617164D01*
%TO.C,R74*%
X68868859Y-85063600D02*
X69176141Y-85063600D01*
X68868859Y-84303600D02*
X69176141Y-84303600D01*
%TO.C,U6*%
X55468200Y-62088800D02*
X55468200Y-65538800D01*
X50348200Y-62088800D02*
X50348200Y-64038800D01*
X55468200Y-62088800D02*
X55468200Y-60138800D01*
X50348200Y-62088800D02*
X50348200Y-60138800D01*
%TO.C,Q1*%
X56424000Y-98450400D02*
X56424000Y-97800400D01*
X53304000Y-98450400D02*
X53304000Y-96775400D01*
X53304000Y-98450400D02*
X53304000Y-99100400D01*
X56424000Y-98450400D02*
X56424000Y-99100400D01*
%TO.C,C81*%
X77421200Y-62675380D02*
X77421200Y-62394220D01*
X76401200Y-62675380D02*
X76401200Y-62394220D01*
%TO.C,R1*%
X36630459Y-76268540D02*
X36847740Y-76051259D01*
X37167860Y-76805941D02*
X37385141Y-76588660D01*
%TO.C,R44*%
X37772436Y-73328435D02*
X37989717Y-73545716D01*
X37235035Y-73865836D02*
X37452316Y-74083117D01*
%TO.C,C82*%
X51007600Y-94532564D02*
X51007600Y-94748236D01*
X50287600Y-94532564D02*
X50287600Y-94748236D01*
%TO.C,C1*%
X38759790Y-75589893D02*
X38912293Y-75437390D01*
X39268907Y-76099010D02*
X39421410Y-75946507D01*
%TO.C,R2*%
X37486741Y-69893140D02*
X37269460Y-69675859D01*
X36949340Y-70430541D02*
X36732059Y-70213260D01*
%TO.C,R31*%
X47092600Y-96521241D02*
X47092600Y-96213959D01*
X47852600Y-96521241D02*
X47852600Y-96213959D01*
%TO.C,C119*%
X52031020Y-85015800D02*
X52312180Y-85015800D01*
X52031020Y-83995800D02*
X52312180Y-83995800D01*
%TO.C,C5*%
X34821400Y-80810980D02*
X34821400Y-80529820D01*
X35841400Y-80810980D02*
X35841400Y-80529820D01*
%TO.C,R22*%
X50267600Y-92685841D02*
X50267600Y-92378559D01*
X51027600Y-92685841D02*
X51027600Y-92378559D01*
%TO.C,R36*%
X44347400Y-87476359D02*
X44347400Y-87783641D01*
X43587400Y-87476359D02*
X43587400Y-87783641D01*
%TO.C,C140*%
X69471000Y-69138220D02*
X69471000Y-69419380D01*
X68451000Y-69138220D02*
X68451000Y-69419380D01*
%TO.C,C97*%
X57459200Y-96920164D02*
X57459200Y-97135836D01*
X56739200Y-96920164D02*
X56739200Y-97135836D01*
%TO.C,C79*%
X64774400Y-80625836D02*
X64774400Y-80410164D01*
X64054400Y-80625836D02*
X64054400Y-80410164D01*
%TO.C,R7*%
X36507460Y-71802141D02*
X36724741Y-71584860D01*
X35970059Y-71264740D02*
X36187340Y-71047459D01*
%TO.C,R72*%
X70877100Y-67812759D02*
X70877100Y-68120041D01*
X71637100Y-67812759D02*
X71637100Y-68120041D01*
%TO.C,C90*%
X38048590Y-74878693D02*
X38201093Y-74726190D01*
X38557707Y-75387810D02*
X38710210Y-75235307D01*
%TO.C,FB2*%
X49303400Y-97063779D02*
X49303400Y-96738221D01*
X48283400Y-97063779D02*
X48283400Y-96738221D01*
%TO.C,R51*%
X56363600Y-71578441D02*
X56363600Y-71271159D01*
X57123600Y-71578441D02*
X57123600Y-71271159D01*
%TO.C,C84*%
X47466364Y-92858000D02*
X47682036Y-92858000D01*
X47466364Y-93578000D02*
X47682036Y-93578000D01*
%TO.C,C25*%
X37869400Y-83884380D02*
X37869400Y-83603220D01*
X38889400Y-83884380D02*
X38889400Y-83603220D01*
%TO.C,R34*%
X54458600Y-92276959D02*
X54458600Y-92584241D01*
X55218600Y-92276959D02*
X55218600Y-92584241D01*
%TO.C,C22*%
X46050810Y-77495907D02*
X45898307Y-77648410D01*
X45541693Y-76986790D02*
X45389190Y-77139293D01*
%TO.C,C23*%
X39069600Y-78609364D02*
X39069600Y-78825036D01*
X38349600Y-78609364D02*
X38349600Y-78825036D01*
%TO.C,C19*%
X37540020Y-80951800D02*
X37821180Y-80951800D01*
X37540020Y-79931800D02*
X37821180Y-79931800D01*
%TO.C,R3*%
X38712236Y-68228059D02*
X38929517Y-68445340D01*
X38174835Y-68765460D02*
X38392116Y-68982741D01*
%TO.C,C9*%
X44077704Y-70748821D02*
X43925201Y-70596318D01*
X44586821Y-70239704D02*
X44434318Y-70087201D01*
%TO.C,C21*%
X42168400Y-85959836D02*
X42168400Y-85744164D01*
X41448400Y-85959836D02*
X41448400Y-85744164D01*
%TO.C,C70*%
X67847800Y-92894036D02*
X67847800Y-92678364D01*
X67127800Y-92894036D02*
X67127800Y-92678364D01*
%TO.C,C89*%
X40407000Y-94900636D02*
X40407000Y-94684964D01*
X41127000Y-94900636D02*
X41127000Y-94684964D01*
%TO.C,R69*%
X51258200Y-88723441D02*
X51258200Y-88416159D01*
X52018200Y-88723441D02*
X52018200Y-88416159D01*
%TO.C,C49*%
X65150493Y-77926590D02*
X64997990Y-78079093D01*
X65659610Y-78435707D02*
X65507107Y-78588210D01*
%TD*%
M02*
