%TF.GenerationSoftware,KiCad,Pcbnew,(6.0.4)*%
%TF.CreationDate,2023-05-22T00:57:41+09:00*%
%TF.ProjectId,RFB,5246422e-6b69-4636-9164-5f7063625858,rev?*%
%TF.SameCoordinates,Original*%
%TF.FileFunction,Legend,Top*%
%TF.FilePolarity,Positive*%
%FSLAX46Y46*%
G04 Gerber Fmt 4.6, Leading zero omitted, Abs format (unit mm)*
G04 Created by KiCad (PCBNEW (6.0.4)) date 2023-05-22 00:57:41*
%MOMM*%
%LPD*%
G01*
G04 APERTURE LIST*
%ADD10C,0.160000*%
%ADD11C,0.120000*%
%ADD12C,0.100000*%
G04 APERTURE END LIST*
D10*
X79132180Y-92680847D02*
X79846466Y-92680847D01*
X79989323Y-92728466D01*
X80084561Y-92823704D01*
X80132180Y-92966561D01*
X80132180Y-93061800D01*
X80132180Y-91728466D02*
X80132180Y-92204657D01*
X79132180Y-92204657D01*
X80036942Y-90823704D02*
X80084561Y-90871323D01*
X80132180Y-91014180D01*
X80132180Y-91109419D01*
X80084561Y-91252276D01*
X79989323Y-91347514D01*
X79894085Y-91395133D01*
X79703609Y-91442752D01*
X79560752Y-91442752D01*
X79370276Y-91395133D01*
X79275038Y-91347514D01*
X79179800Y-91252276D01*
X79132180Y-91109419D01*
X79132180Y-91014180D01*
X79179800Y-90871323D01*
X79227419Y-90823704D01*
X79132180Y-90109419D02*
X79846466Y-90109419D01*
X79989323Y-90157038D01*
X80084561Y-90252276D01*
X80132180Y-90395133D01*
X80132180Y-90490371D01*
X80132180Y-89157038D02*
X80132180Y-89633228D01*
X79132180Y-89633228D01*
X80036942Y-88252276D02*
X80084561Y-88299895D01*
X80132180Y-88442752D01*
X80132180Y-88537990D01*
X80084561Y-88680847D01*
X79989323Y-88776085D01*
X79894085Y-88823704D01*
X79703609Y-88871323D01*
X79560752Y-88871323D01*
X79370276Y-88823704D01*
X79275038Y-88776085D01*
X79179800Y-88680847D01*
X79132180Y-88537990D01*
X79132180Y-88442752D01*
X79179800Y-88299895D01*
X79227419Y-88252276D01*
X79132180Y-87537990D02*
X79846466Y-87537990D01*
X79989323Y-87585609D01*
X80084561Y-87680847D01*
X80132180Y-87823704D01*
X80132180Y-87918942D01*
X80132180Y-86585609D02*
X80132180Y-87061800D01*
X79132180Y-87061800D01*
X80036942Y-85680847D02*
X80084561Y-85728466D01*
X80132180Y-85871323D01*
X80132180Y-85966561D01*
X80084561Y-86109419D01*
X79989323Y-86204657D01*
X79894085Y-86252276D01*
X79703609Y-86299895D01*
X79560752Y-86299895D01*
X79370276Y-86252276D01*
X79275038Y-86204657D01*
X79179800Y-86109419D01*
X79132180Y-85966561D01*
X79132180Y-85871323D01*
X79179800Y-85728466D01*
X79227419Y-85680847D01*
X79132180Y-84966561D02*
X79846466Y-84966561D01*
X79989323Y-85014180D01*
X80084561Y-85109419D01*
X80132180Y-85252276D01*
X80132180Y-85347514D01*
X80132180Y-84014180D02*
X80132180Y-84490371D01*
X79132180Y-84490371D01*
X80036942Y-83109419D02*
X80084561Y-83157038D01*
X80132180Y-83299895D01*
X80132180Y-83395133D01*
X80084561Y-83537990D01*
X79989323Y-83633228D01*
X79894085Y-83680847D01*
X79703609Y-83728466D01*
X79560752Y-83728466D01*
X79370276Y-83680847D01*
X79275038Y-83633228D01*
X79179800Y-83537990D01*
X79132180Y-83395133D01*
X79132180Y-83299895D01*
X79179800Y-83157038D01*
X79227419Y-83109419D01*
X77254904Y-60231400D02*
X77159666Y-60183780D01*
X77016809Y-60183780D01*
X76873952Y-60231400D01*
X76778714Y-60326638D01*
X76731095Y-60421876D01*
X76683476Y-60612352D01*
X76683476Y-60755209D01*
X76731095Y-60945685D01*
X76778714Y-61040923D01*
X76873952Y-61136161D01*
X77016809Y-61183780D01*
X77112047Y-61183780D01*
X77254904Y-61136161D01*
X77302523Y-61088542D01*
X77302523Y-60755209D01*
X77112047Y-60755209D01*
X74873952Y-62291980D02*
X75493000Y-62291980D01*
X75159666Y-62672933D01*
X75302523Y-62672933D01*
X75397761Y-62720552D01*
X75445380Y-62768171D01*
X75493000Y-62863409D01*
X75493000Y-63101504D01*
X75445380Y-63196742D01*
X75397761Y-63244361D01*
X75302523Y-63291980D01*
X75016809Y-63291980D01*
X74921571Y-63244361D01*
X74873952Y-63196742D01*
X75778714Y-62291980D02*
X76112047Y-63291980D01*
X76445380Y-62291980D01*
X77207285Y-62291980D02*
X77016809Y-62291980D01*
X76921571Y-62339600D01*
X76873952Y-62387219D01*
X76778714Y-62530076D01*
X76731095Y-62720552D01*
X76731095Y-63101504D01*
X76778714Y-63196742D01*
X76826333Y-63244361D01*
X76921571Y-63291980D01*
X77112047Y-63291980D01*
X77207285Y-63244361D01*
X77254904Y-63196742D01*
X77302523Y-63101504D01*
X77302523Y-62863409D01*
X77254904Y-62768171D01*
X77207285Y-62720552D01*
X77112047Y-62672933D01*
X76921571Y-62672933D01*
X76826333Y-62720552D01*
X76778714Y-62768171D01*
X76731095Y-62863409D01*
X75493000Y-58643780D02*
X74921571Y-58643780D01*
X75207285Y-58643780D02*
X75207285Y-57643780D01*
X75112047Y-57786638D01*
X75016809Y-57881876D01*
X74921571Y-57929495D01*
X75873952Y-57739019D02*
X75921571Y-57691400D01*
X76016809Y-57643780D01*
X76254904Y-57643780D01*
X76350142Y-57691400D01*
X76397761Y-57739019D01*
X76445380Y-57834257D01*
X76445380Y-57929495D01*
X76397761Y-58072352D01*
X75826333Y-58643780D01*
X76445380Y-58643780D01*
X76731095Y-57643780D02*
X77064428Y-58643780D01*
X77397761Y-57643780D01*
X37026057Y-82688180D02*
X37645104Y-82688180D01*
X37311771Y-83069133D01*
X37454628Y-83069133D01*
X37549866Y-83116752D01*
X37597485Y-83164371D01*
X37645104Y-83259609D01*
X37645104Y-83497704D01*
X37597485Y-83592942D01*
X37549866Y-83640561D01*
X37454628Y-83688180D01*
X37168914Y-83688180D01*
X37073676Y-83640561D01*
X37026057Y-83592942D01*
X37930819Y-82688180D02*
X38264152Y-83688180D01*
X38597485Y-82688180D01*
X38835580Y-82688180D02*
X39454628Y-82688180D01*
X39121295Y-83069133D01*
X39264152Y-83069133D01*
X39359390Y-83116752D01*
X39407009Y-83164371D01*
X39454628Y-83259609D01*
X39454628Y-83497704D01*
X39407009Y-83592942D01*
X39359390Y-83640561D01*
X39264152Y-83688180D01*
X38978438Y-83688180D01*
X38883200Y-83640561D01*
X38835580Y-83592942D01*
X54479866Y-60564780D02*
X54813200Y-61564780D01*
X55146533Y-60564780D01*
X51287323Y-61056780D02*
X50811133Y-61056780D01*
X50811133Y-60056780D01*
X51987485Y-61056780D02*
X51987485Y-60056780D01*
X51987485Y-60532971D02*
X52558914Y-60532971D01*
X52558914Y-61056780D02*
X52558914Y-60056780D01*
X53805104Y-60612400D02*
X53709866Y-60564780D01*
X53567009Y-60564780D01*
X53424152Y-60612400D01*
X53328914Y-60707638D01*
X53281295Y-60802876D01*
X53233676Y-60993352D01*
X53233676Y-61136209D01*
X53281295Y-61326685D01*
X53328914Y-61421923D01*
X53424152Y-61517161D01*
X53567009Y-61564780D01*
X53662247Y-61564780D01*
X53805104Y-61517161D01*
X53852723Y-61469542D01*
X53852723Y-61136209D01*
X53662247Y-61136209D01*
X37645104Y-85275800D02*
X37549866Y-85228180D01*
X37407009Y-85228180D01*
X37264152Y-85275800D01*
X37168914Y-85371038D01*
X37121295Y-85466276D01*
X37073676Y-85656752D01*
X37073676Y-85799609D01*
X37121295Y-85990085D01*
X37168914Y-86085323D01*
X37264152Y-86180561D01*
X37407009Y-86228180D01*
X37502247Y-86228180D01*
X37645104Y-86180561D01*
X37692723Y-86132942D01*
X37692723Y-85799609D01*
X37502247Y-85799609D01*
D11*
%TO.C,Q1*%
X39228200Y-90347800D02*
X39228200Y-88672800D01*
X39228200Y-90347800D02*
X39228200Y-90997800D01*
X36108200Y-90347800D02*
X36108200Y-90997800D01*
X36108200Y-90347800D02*
X36108200Y-89697800D01*
%TO.C,J3*%
X40413600Y-100531000D02*
X40413600Y-103431000D01*
X33703600Y-100531000D02*
X33703600Y-103431000D01*
X35608600Y-105336000D02*
X38508600Y-105336000D01*
X35608600Y-98626000D02*
X38508600Y-98626000D01*
D12*
%TO.C,U1*%
X33667400Y-79158800D02*
X33667400Y-79158800D01*
X33767400Y-79158800D02*
X33767400Y-79158800D01*
X33667400Y-79158800D02*
G75*
G03*
X33767400Y-79158800I50000J0D01*
G01*
X33767400Y-79158800D02*
G75*
G03*
X33667400Y-79158800I-50000J0D01*
G01*
D11*
%TO.C,R9*%
X43689241Y-74649600D02*
X43381959Y-74649600D01*
X43689241Y-73889600D02*
X43381959Y-73889600D01*
%TO.C,C74*%
X61568990Y-93369893D02*
X61721493Y-93217390D01*
X62078107Y-93879010D02*
X62230610Y-93726507D01*
%TO.C,C31*%
X44059282Y-79307401D02*
X43906779Y-79459904D01*
X44568399Y-79816518D02*
X44415896Y-79969021D01*
%TO.C,R46*%
X37923441Y-97128600D02*
X37616159Y-97128600D01*
X37923441Y-96368600D02*
X37616159Y-96368600D01*
%TO.C,C65*%
X68372936Y-88548800D02*
X68157264Y-88548800D01*
X68372936Y-87828800D02*
X68157264Y-87828800D01*
%TO.C,C12*%
X72014700Y-64939564D02*
X72014700Y-65155236D01*
X72734700Y-64939564D02*
X72734700Y-65155236D01*
%TO.C,C57*%
X60219000Y-80333964D02*
X60219000Y-80549636D01*
X60939000Y-80333964D02*
X60939000Y-80549636D01*
%TO.C,U11*%
X49770602Y-66790087D02*
X50088800Y-66471889D01*
X55194111Y-71577200D02*
X54875913Y-71259002D01*
X45301687Y-71895398D02*
X44389519Y-72807566D01*
X50088800Y-66471889D02*
X50406998Y-66790087D01*
X54875913Y-71895398D02*
X55194111Y-71577200D01*
X44983489Y-71577200D02*
X45301687Y-71895398D01*
X50406998Y-76364313D02*
X50088800Y-76682511D01*
X45301687Y-71259002D02*
X44983489Y-71577200D01*
X50088800Y-76682511D02*
X49770602Y-76364313D01*
%TO.C,U10*%
X49758600Y-90939600D02*
X51258600Y-90939600D01*
X48258600Y-93159600D02*
X51258600Y-93159600D01*
%TO.C,R6*%
X44654200Y-77519559D02*
X44654200Y-77826841D01*
X45414200Y-77519559D02*
X45414200Y-77826841D01*
%TO.C,C89*%
X47061800Y-91954763D02*
X47061800Y-92170435D01*
X47781800Y-91954763D02*
X47781800Y-92170435D01*
%TO.C,C35*%
X58695000Y-63392164D02*
X58695000Y-63607836D01*
X59415000Y-63392164D02*
X59415000Y-63607836D01*
%TO.C,C36*%
X58695000Y-65297164D02*
X58695000Y-65512836D01*
X59415000Y-65297164D02*
X59415000Y-65512836D01*
%TO.C,C61*%
X62686693Y-95122390D02*
X62534190Y-95274893D01*
X63195810Y-95631507D02*
X63043307Y-95784010D01*
%TO.C,C72*%
X60888200Y-88436564D02*
X60888200Y-88652236D01*
X60168200Y-88436564D02*
X60168200Y-88652236D01*
%TO.C,R53*%
X48140660Y-78565859D02*
X48357941Y-78783140D01*
X47603259Y-79103260D02*
X47820540Y-79320541D01*
%TO.C,R71*%
X72754700Y-67129441D02*
X72754700Y-66822159D01*
X71994700Y-67129441D02*
X71994700Y-66822159D01*
%TO.C,J8*%
X36233400Y-69554400D02*
X39763400Y-69554400D01*
X36233400Y-69489400D02*
X36233400Y-69554400D01*
X36233400Y-63084400D02*
X36233400Y-63149400D01*
X36233400Y-63084400D02*
X39763400Y-63084400D01*
X34908400Y-63149400D02*
X36233400Y-63149400D01*
X39763400Y-69489400D02*
X39763400Y-69554400D01*
X39763400Y-63084400D02*
X39763400Y-63149400D01*
%TO.C,R62*%
X39463940Y-77372059D02*
X39246659Y-77589340D01*
X40001341Y-77909460D02*
X39784060Y-78126741D01*
%TO.C,J9*%
X33620400Y-83230800D02*
X33620400Y-81900800D01*
X33620400Y-87100800D02*
X36280400Y-87100800D01*
X33620400Y-84500800D02*
X33620400Y-87100800D01*
X33620400Y-81900800D02*
X34950400Y-81900800D01*
X36280400Y-84500800D02*
X36280400Y-87100800D01*
X33620400Y-84500800D02*
X36280400Y-84500800D01*
%TO.C,R12*%
X60637460Y-84044941D02*
X60854741Y-83827660D01*
X60100059Y-83507540D02*
X60317340Y-83290259D01*
%TO.C,C15*%
X42337400Y-83861964D02*
X42337400Y-84077636D01*
X43057400Y-83861964D02*
X43057400Y-84077636D01*
%TO.C,R11*%
X61625440Y-74088141D02*
X61408159Y-73870860D01*
X62162841Y-73550740D02*
X61945560Y-73333459D01*
%TO.C,C78*%
X66823000Y-78670036D02*
X66823000Y-78454364D01*
X67543000Y-78670036D02*
X67543000Y-78454364D01*
%TO.C,U22*%
X46784289Y-85905311D02*
X47844949Y-86965972D01*
X44153851Y-86414428D02*
X46275172Y-88535749D01*
%TO.C,R25*%
X61923959Y-86790800D02*
X62231241Y-86790800D01*
X61923959Y-86030800D02*
X62231241Y-86030800D01*
%TO.C,C40*%
X63284710Y-72898507D02*
X63132207Y-73051010D01*
X62775593Y-72389390D02*
X62623090Y-72541893D01*
%TO.C,U12*%
X49899800Y-83371200D02*
X47999800Y-83371200D01*
X48499800Y-85691200D02*
X49899800Y-85691200D01*
%TO.C,C44*%
X68049800Y-67758736D02*
X68049800Y-67543064D01*
X68769800Y-67758736D02*
X68769800Y-67543064D01*
%TO.C,C56*%
X62376164Y-82656000D02*
X62591836Y-82656000D01*
X62376164Y-81936000D02*
X62591836Y-81936000D01*
%TO.C,C143*%
X44688421Y-85208296D02*
X44535918Y-85360799D01*
X44179304Y-84699179D02*
X44026801Y-84851682D01*
%TO.C,C54*%
X69983236Y-84713400D02*
X69767564Y-84713400D01*
X69983236Y-83993400D02*
X69767564Y-83993400D01*
%TO.C,C6*%
X41274390Y-73254107D02*
X41426893Y-73406610D01*
X41783507Y-72744990D02*
X41936010Y-72897493D01*
%TO.C,C45*%
X68049800Y-63733064D02*
X68049800Y-63948736D01*
X68769800Y-63733064D02*
X68769800Y-63948736D01*
%TO.C,R14*%
X68807600Y-83364041D02*
X68807600Y-83056759D01*
X68047600Y-83364041D02*
X68047600Y-83056759D01*
%TO.C,C101*%
X46328990Y-76378307D02*
X46481493Y-76530810D01*
X46838107Y-75869190D02*
X46990610Y-76021693D01*
%TO.C,C41*%
X63945110Y-73660507D02*
X63792607Y-73813010D01*
X63435993Y-73151390D02*
X63283490Y-73303893D01*
%TO.C,R70*%
X71738700Y-66168241D02*
X71738700Y-65860959D01*
X70978700Y-66168241D02*
X70978700Y-65860959D01*
%TO.C,R54*%
X48517659Y-88384340D02*
X48734940Y-88167059D01*
X49055060Y-88921741D02*
X49272341Y-88704460D01*
%TO.C,C2*%
X42538764Y-71962600D02*
X42754436Y-71962600D01*
X42538764Y-71242600D02*
X42754436Y-71242600D01*
%TO.C,C58*%
X67055390Y-80466693D02*
X67207893Y-80314190D01*
X67564507Y-80975810D02*
X67717010Y-80823307D01*
%TO.C,C50*%
X58858036Y-86381000D02*
X58642364Y-86381000D01*
X58858036Y-87101000D02*
X58642364Y-87101000D01*
%TO.C,C47*%
X63747764Y-75611400D02*
X63963436Y-75611400D01*
X63747764Y-76331400D02*
X63963436Y-76331400D01*
%TO.C,C16*%
X43133600Y-79124636D02*
X43133600Y-78908964D01*
X42413600Y-79124636D02*
X42413600Y-78908964D01*
%TO.C,C75*%
X64865364Y-81936000D02*
X65081036Y-81936000D01*
X64865364Y-82656000D02*
X65081036Y-82656000D01*
%TO.C,IC9*%
X73255800Y-67366200D02*
X75255800Y-67366200D01*
X74255800Y-65146200D02*
X75255800Y-65146200D01*
%TO.C,C129*%
X48438410Y-88062307D02*
X48285907Y-88214810D01*
X47929293Y-87553190D02*
X47776790Y-87705693D01*
%TO.C,C10*%
X59638693Y-90880590D02*
X59486190Y-91033093D01*
X60147810Y-91389707D02*
X59995307Y-91542210D01*
%TO.C,C66*%
X62084500Y-89789364D02*
X62084500Y-90005036D01*
X62804500Y-89789364D02*
X62804500Y-90005036D01*
%TO.C,C71*%
X69388400Y-94418036D02*
X69388400Y-94202364D01*
X70108400Y-94418036D02*
X70108400Y-94202364D01*
%TO.C,L3*%
X72235600Y-88605579D02*
X72235600Y-88280021D01*
X73255600Y-88605579D02*
X73255600Y-88280021D01*
%TO.C,L2*%
X58218800Y-89113579D02*
X58218800Y-88788021D01*
X57198800Y-89113579D02*
X57198800Y-88788021D01*
%TO.C,C55*%
X69119636Y-84984000D02*
X68903964Y-84984000D01*
X69119636Y-85704000D02*
X68903964Y-85704000D01*
%TO.C,J7*%
X36220400Y-56836000D02*
X48980400Y-56836000D01*
X36220400Y-59436000D02*
X36220400Y-56836000D01*
X33620400Y-62036000D02*
X48980400Y-62036000D01*
X33620400Y-59436000D02*
X36220400Y-59436000D01*
X33620400Y-56836000D02*
X34950400Y-56836000D01*
X33620400Y-58166000D02*
X33620400Y-56836000D01*
X33620400Y-62036000D02*
X33620400Y-59436000D01*
X48980400Y-62036000D02*
X48980400Y-56836000D01*
%TO.C,FL2*%
X67359543Y-97870666D02*
X69445508Y-95784701D01*
X69233376Y-99744499D02*
X67359543Y-97870666D01*
X70753656Y-98224219D02*
X69233376Y-99744499D01*
X69445508Y-95784701D02*
X70753656Y-97092849D01*
X70753656Y-97092849D02*
X70753656Y-98224219D01*
%TO.C,C64*%
X64308458Y-87806317D02*
X64460961Y-87958820D01*
X64817575Y-87297200D02*
X64970078Y-87449703D01*
%TO.C,R28*%
X70128400Y-90295759D02*
X70128400Y-90603041D01*
X69368400Y-90295759D02*
X69368400Y-90603041D01*
%TO.C,C63*%
X65688499Y-86731282D02*
X65535996Y-86578779D01*
X65179382Y-87240399D02*
X65026879Y-87087896D01*
%TO.C,L1*%
X59768200Y-88986579D02*
X59768200Y-88661021D01*
X58748200Y-88986579D02*
X58748200Y-88661021D01*
%TO.C,C120*%
X75197580Y-64695800D02*
X74916420Y-64695800D01*
X75197580Y-63675800D02*
X74916420Y-63675800D01*
%TO.C,R19*%
X64844959Y-82932000D02*
X65152241Y-82932000D01*
X64844959Y-83692000D02*
X65152241Y-83692000D01*
%TO.C,C60*%
X68365996Y-95553198D02*
X68213493Y-95400695D01*
X67856879Y-96062315D02*
X67704376Y-95909812D01*
%TO.C,C62*%
X63245390Y-95986093D02*
X63397893Y-95833590D01*
X63754507Y-96495210D02*
X63907010Y-96342707D01*
%TO.C,U8*%
X63959100Y-89232400D02*
X63484100Y-89232400D01*
X67229100Y-93452400D02*
X67704100Y-93452400D01*
X63484100Y-89232400D02*
X63484100Y-89707400D01*
X67704100Y-89232400D02*
X67704100Y-89707400D01*
X67229100Y-89232400D02*
X67704100Y-89232400D01*
X63959100Y-93452400D02*
X63484100Y-93452400D01*
X63484100Y-93452400D02*
X63484100Y-92977400D01*
%TO.C,R8*%
X40124340Y-78159459D02*
X39907059Y-78376740D01*
X40661741Y-78696860D02*
X40444460Y-78914141D01*
%TO.C,R24*%
X61833059Y-87806800D02*
X62140341Y-87806800D01*
X61833059Y-87046800D02*
X62140341Y-87046800D01*
%TO.C,U3*%
X61618600Y-77511400D02*
X61618600Y-77036400D01*
X61618600Y-77036400D02*
X62093600Y-77036400D01*
X61618600Y-80781400D02*
X61618600Y-81256400D01*
X65838600Y-80781400D02*
X65838600Y-81256400D01*
X65838600Y-77511400D02*
X65838600Y-77036400D01*
X65838600Y-81256400D02*
X65363600Y-81256400D01*
X65838600Y-77036400D02*
X65363600Y-77036400D01*
%TO.C,J6*%
X77664000Y-59486800D02*
X80324000Y-59486800D01*
X77664000Y-59486800D02*
X77664000Y-64626800D01*
X80324000Y-59486800D02*
X80324000Y-64626800D01*
X77664000Y-58216800D02*
X77664000Y-56886800D01*
X77664000Y-56886800D02*
X78994000Y-56886800D01*
X77664000Y-64626800D02*
X80324000Y-64626800D01*
%TO.C,C14*%
X45685896Y-80197621D02*
X45838399Y-80045118D01*
X45176779Y-79688504D02*
X45329282Y-79536001D01*
D12*
%TO.C,D1*%
X47404346Y-78316946D02*
G75*
G03*
X47404346Y-78316946I-50000J0D01*
G01*
D11*
%TO.C,C94*%
X43830579Y-69045904D02*
X43983082Y-68893401D01*
X44339696Y-69555021D02*
X44492199Y-69402518D01*
%TO.C,R45*%
X39754659Y-87571540D02*
X39971940Y-87354259D01*
X40292060Y-88108941D02*
X40509341Y-87891660D01*
%TO.C,R13*%
X58673000Y-83008441D02*
X58673000Y-82701159D01*
X57913000Y-83008441D02*
X57913000Y-82701159D01*
%TO.C,C18*%
X40453599Y-80305082D02*
X40301096Y-80152579D01*
X39944482Y-80814199D02*
X39791979Y-80661696D01*
%TO.C,C51*%
X71094093Y-85444990D02*
X70941590Y-85597493D01*
X71603210Y-85954107D02*
X71450707Y-86106610D01*
%TO.C,L4*%
X71706200Y-88605579D02*
X71706200Y-88280021D01*
X70686200Y-88605579D02*
X70686200Y-88280021D01*
%TO.C,C130*%
X69780264Y-66806400D02*
X69995936Y-66806400D01*
X69780264Y-66086400D02*
X69995936Y-66086400D01*
%TO.C,R17*%
X59943000Y-80288159D02*
X59943000Y-80595441D01*
X59183000Y-80288159D02*
X59183000Y-80595441D01*
%TO.C,C100*%
X50012093Y-65939010D02*
X49859590Y-65786507D01*
X50521210Y-65429893D02*
X50368707Y-65277390D01*
%TO.C,C53*%
X58653000Y-84893036D02*
X58653000Y-84677364D01*
X57933000Y-84893036D02*
X57933000Y-84677364D01*
%TO.C,U5*%
X41918397Y-75722400D02*
X41918397Y-77122400D01*
X44238397Y-77122400D02*
X44238397Y-75222400D01*
%TO.C,C37*%
X58695000Y-67202164D02*
X58695000Y-67417836D01*
X59415000Y-67202164D02*
X59415000Y-67417836D01*
%TO.C,C80*%
X38307600Y-79584436D02*
X38307600Y-79368764D01*
X37587600Y-79584436D02*
X37587600Y-79368764D01*
%TO.C,C67*%
X62083836Y-88082800D02*
X61868164Y-88082800D01*
X62083836Y-88802800D02*
X61868164Y-88802800D01*
%TO.C,C139*%
X69174900Y-64529580D02*
X69174900Y-64248420D01*
X70194900Y-64529580D02*
X70194900Y-64248420D01*
%TO.C,IC3*%
X66871200Y-63532900D02*
X67346200Y-63532900D01*
X67346200Y-63532900D02*
X67346200Y-64007900D01*
X66871200Y-70752900D02*
X67346200Y-70752900D01*
X67346200Y-70752900D02*
X67346200Y-70277900D01*
X60601200Y-70752900D02*
X60126200Y-70752900D01*
X60601200Y-63532900D02*
X60126200Y-63532900D01*
X60126200Y-70752900D02*
X60126200Y-70277900D01*
%TO.C,C92*%
X54311436Y-59609400D02*
X54095764Y-59609400D01*
X54311436Y-60329400D02*
X54095764Y-60329400D01*
%TO.C,R27*%
X61722016Y-91753483D02*
X61504735Y-91970764D01*
X62259417Y-92290884D02*
X62042136Y-92508165D01*
%TO.C,C46*%
X68769800Y-65635464D02*
X68769800Y-65851136D01*
X68049800Y-65635464D02*
X68049800Y-65851136D01*
%TO.C,R29*%
X61771800Y-90295759D02*
X61771800Y-90603041D01*
X61011800Y-90295759D02*
X61011800Y-90603041D01*
%TO.C,C52*%
X59669000Y-85401036D02*
X59669000Y-85185364D01*
X58949000Y-85401036D02*
X58949000Y-85185364D01*
%TO.C,C59*%
X66989633Y-96631909D02*
X67142136Y-96784412D01*
X67498750Y-96122792D02*
X67651253Y-96275295D01*
%TO.C,C73*%
X69375700Y-88436564D02*
X69375700Y-88652236D01*
X70095700Y-88436564D02*
X70095700Y-88652236D01*
%TO.C,R10*%
X41502600Y-76272959D02*
X41502600Y-76580241D01*
X40742600Y-76272959D02*
X40742600Y-76580241D01*
%TO.C,R16*%
X62304959Y-83692000D02*
X62612241Y-83692000D01*
X62304959Y-82932000D02*
X62612241Y-82932000D01*
%TO.C,C93*%
X43932282Y-71966801D02*
X43779779Y-72119304D01*
X44441399Y-72475918D02*
X44288896Y-72628421D01*
%TO.C,FL3*%
X61438134Y-95470978D02*
X63524099Y-97556943D01*
X61084581Y-98865091D02*
X59564301Y-97344811D01*
X62215951Y-98865091D02*
X61084581Y-98865091D01*
X59564301Y-97344811D02*
X61438134Y-95470978D01*
X63524099Y-97556943D02*
X62215951Y-98865091D01*
%TO.C,C68*%
X68383700Y-89789364D02*
X68383700Y-90005036D01*
X69103700Y-89789364D02*
X69103700Y-90005036D01*
%TO.C,C48*%
X71603210Y-90779093D02*
X71450707Y-90626590D01*
X71094093Y-91288210D02*
X70941590Y-91135707D01*
%TO.C,R18*%
X68257460Y-81733541D02*
X68474741Y-81516260D01*
X67720059Y-81196140D02*
X67937340Y-80978859D01*
%TO.C,C88*%
X52455400Y-91662364D02*
X52455400Y-91878036D01*
X51735400Y-91662364D02*
X51735400Y-91878036D01*
%TO.C,J5*%
X54053200Y-58996600D02*
X50308200Y-58996600D01*
X55573200Y-56776600D02*
X55573200Y-57886600D01*
X54053200Y-56776600D02*
X54053200Y-57323129D01*
X50308200Y-58194130D02*
X50308200Y-58996600D01*
X54813200Y-56776600D02*
X55573200Y-56776600D01*
X54053200Y-56776600D02*
X50308200Y-56776600D01*
X50308200Y-56776600D02*
X50308200Y-57579070D01*
X54053200Y-58450071D02*
X54053200Y-58996600D01*
%TO.C,R26*%
X70128400Y-92226159D02*
X70128400Y-92533441D01*
X69368400Y-92226159D02*
X69368400Y-92533441D01*
%TO.C,J4*%
X67278600Y-60595600D02*
X67678600Y-60595600D01*
X70553600Y-58005600D02*
X70553600Y-57405600D01*
X57013600Y-58005600D02*
X56903600Y-58005600D01*
X56903600Y-58005600D02*
X56903600Y-57405600D01*
X67678600Y-60595600D02*
X67478600Y-60195600D01*
X67478600Y-60195600D02*
X67278600Y-60595600D01*
X70443600Y-58005600D02*
X70553600Y-58005600D01*
%TO.C,C70*%
X68385100Y-92942236D02*
X68385100Y-92726564D01*
X69105100Y-92942236D02*
X69105100Y-92726564D01*
%TO.C,R15*%
X67031965Y-84299964D02*
X66814684Y-84082683D01*
X66494564Y-84837365D02*
X66277283Y-84620084D01*
%TO.C,R47*%
X41377841Y-92785200D02*
X41070559Y-92785200D01*
X41377841Y-92025200D02*
X41070559Y-92025200D01*
%TO.C,Q2*%
X40066400Y-94284800D02*
X40066400Y-94934800D01*
X36946400Y-94284800D02*
X36946400Y-95959800D01*
X40066400Y-94284800D02*
X40066400Y-93634800D01*
X36946400Y-94284800D02*
X36946400Y-93634800D01*
%TO.C,R48*%
X41479441Y-95479600D02*
X41172159Y-95479600D01*
X41479441Y-96239600D02*
X41172159Y-96239600D01*
%TD*%
M02*
