%TF.GenerationSoftware,KiCad,Pcbnew,(6.0.4)*%
%TF.CreationDate,2023-05-22T00:57:41+09:00*%
%TF.ProjectId,RFB,5246422e-6b69-4636-9164-5f7063625858,rev?*%
%TF.SameCoordinates,Original*%
%TF.FileFunction,Soldermask,Bot*%
%TF.FilePolarity,Negative*%
%FSLAX46Y46*%
G04 Gerber Fmt 4.6, Leading zero omitted, Abs format (unit mm)*
G04 Created by KiCad (PCBNEW (6.0.4)) date 2023-05-22 00:57:41*
%MOMM*%
%LPD*%
G01*
G04 APERTURE LIST*
G04 Aperture macros list*
%AMRoundRect*
0 Rectangle with rounded corners*
0 $1 Rounding radius*
0 $2 $3 $4 $5 $6 $7 $8 $9 X,Y pos of 4 corners*
0 Add a 4 corners polygon primitive as box body*
4,1,4,$2,$3,$4,$5,$6,$7,$8,$9,$2,$3,0*
0 Add four circle primitives for the rounded corners*
1,1,$1+$1,$2,$3*
1,1,$1+$1,$4,$5*
1,1,$1+$1,$6,$7*
1,1,$1+$1,$8,$9*
0 Add four rect primitives between the rounded corners*
20,1,$1+$1,$2,$3,$4,$5,0*
20,1,$1+$1,$4,$5,$6,$7,0*
20,1,$1+$1,$6,$7,$8,$9,0*
20,1,$1+$1,$8,$9,$2,$3,0*%
%AMRotRect*
0 Rectangle, with rotation*
0 The origin of the aperture is its center*
0 $1 length*
0 $2 width*
0 $3 Rotation angle, in degrees counterclockwise*
0 Add horizontal line*
21,1,$1,$2,0,0,$3*%
G04 Aperture macros list end*
%ADD10C,0.000000*%
%ADD11R,1.100000X0.600000*%
%ADD12R,0.200000X0.400000*%
%ADD13R,0.250000X0.500000*%
%ADD14R,1.600000X0.900000*%
%ADD15RoundRect,0.062500X-0.062500X0.325000X-0.062500X-0.325000X0.062500X-0.325000X0.062500X0.325000X0*%
%ADD16RoundRect,0.062500X-0.325000X0.062500X-0.325000X-0.062500X0.325000X-0.062500X0.325000X0.062500X0*%
%ADD17R,1.750000X1.750000*%
%ADD18C,3.800000*%
%ADD19C,2.600000*%
%ADD20C,2.250000*%
%ADD21C,2.050000*%
%ADD22R,1.700000X1.700000*%
%ADD23O,1.700000X1.700000*%
%ADD24R,1.000000X1.000000*%
%ADD25O,1.000000X1.000000*%
%ADD26RoundRect,0.225000X0.225000X0.250000X-0.225000X0.250000X-0.225000X-0.250000X0.225000X-0.250000X0*%
%ADD27RoundRect,0.225000X-0.017678X0.335876X-0.335876X0.017678X0.017678X-0.335876X0.335876X-0.017678X0*%
%ADD28RoundRect,0.093750X-0.093750X-0.106250X0.093750X-0.106250X0.093750X0.106250X-0.093750X0.106250X0*%
%ADD29R,1.000000X1.600000*%
%ADD30RoundRect,0.140000X0.140000X0.170000X-0.140000X0.170000X-0.140000X-0.170000X0.140000X-0.170000X0*%
%ADD31RotRect,0.250000X0.600000X45.000000*%
%ADD32RotRect,0.250000X0.600000X135.000000*%
%ADD33RotRect,3.100000X3.100000X135.000000*%
%ADD34RoundRect,0.135000X-0.135000X-0.185000X0.135000X-0.185000X0.135000X0.185000X-0.135000X0.185000X0*%
%ADD35RoundRect,0.225000X-0.250000X0.225000X-0.250000X-0.225000X0.250000X-0.225000X0.250000X0.225000X0*%
%ADD36RoundRect,0.135000X0.135000X0.185000X-0.135000X0.185000X-0.135000X-0.185000X0.135000X-0.185000X0*%
%ADD37RoundRect,0.135000X0.035355X-0.226274X0.226274X-0.035355X-0.035355X0.226274X-0.226274X0.035355X0*%
%ADD38RoundRect,0.140000X-0.140000X-0.170000X0.140000X-0.170000X0.140000X0.170000X-0.140000X0.170000X0*%
%ADD39RoundRect,0.135000X0.185000X-0.135000X0.185000X0.135000X-0.185000X0.135000X-0.185000X-0.135000X0*%
%ADD40RoundRect,0.147500X-0.147500X-0.172500X0.147500X-0.172500X0.147500X0.172500X-0.147500X0.172500X0*%
%ADD41RoundRect,0.135000X-0.185000X0.135000X-0.185000X-0.135000X0.185000X-0.135000X0.185000X0.135000X0*%
%ADD42RoundRect,0.093750X0.106250X-0.093750X0.106250X0.093750X-0.106250X0.093750X-0.106250X-0.093750X0*%
%ADD43R,1.600000X1.000000*%
%ADD44RoundRect,0.140000X0.170000X-0.140000X0.170000X0.140000X-0.170000X0.140000X-0.170000X-0.140000X0*%
%ADD45R,2.000000X0.500000*%
%ADD46RoundRect,0.140000X-0.219203X-0.021213X-0.021213X-0.219203X0.219203X0.021213X0.021213X0.219203X0*%
%ADD47RoundRect,0.140000X-0.021213X0.219203X-0.219203X0.021213X0.021213X-0.219203X0.219203X-0.021213X0*%
%ADD48RoundRect,0.140000X-0.170000X0.140000X-0.170000X-0.140000X0.170000X-0.140000X0.170000X0.140000X0*%
%ADD49RoundRect,0.087500X-0.061872X-0.185616X0.185616X0.061872X0.061872X0.185616X-0.185616X-0.061872X0*%
%ADD50RotRect,1.400000X1.600000X45.000000*%
%ADD51RoundRect,0.093750X0.093750X0.106250X-0.093750X0.106250X-0.093750X-0.106250X0.093750X-0.106250X0*%
%ADD52R,0.249999X0.599999*%
%ADD53R,0.599999X0.249999*%
%ADD54C,0.500000*%
%ADD55R,4.500001X4.500001*%
%ADD56RoundRect,0.225000X0.017678X-0.335876X0.335876X-0.017678X-0.017678X0.335876X-0.335876X0.017678X0*%
%ADD57RoundRect,0.140000X0.219203X0.021213X0.021213X0.219203X-0.219203X-0.021213X-0.021213X-0.219203X0*%
%ADD58RoundRect,0.147500X-0.172500X0.147500X-0.172500X-0.147500X0.172500X-0.147500X0.172500X0.147500X0*%
%ADD59R,0.650000X0.400000*%
%ADD60RoundRect,0.135000X-0.035355X0.226274X-0.226274X0.035355X0.035355X-0.226274X0.226274X-0.035355X0*%
%ADD61RoundRect,0.225000X0.250000X-0.225000X0.250000X0.225000X-0.250000X0.225000X-0.250000X-0.225000X0*%
%ADD62RoundRect,0.150000X0.150000X-0.825000X0.150000X0.825000X-0.150000X0.825000X-0.150000X-0.825000X0*%
%ADD63RoundRect,0.135000X-0.226274X-0.035355X-0.035355X-0.226274X0.226274X0.035355X0.035355X0.226274X0*%
%ADD64RoundRect,0.140000X0.021213X-0.219203X0.219203X-0.021213X-0.021213X0.219203X-0.219203X0.021213X0*%
%ADD65RoundRect,0.135000X0.226274X0.035355X0.035355X0.226274X-0.226274X-0.035355X-0.035355X-0.226274X0*%
%ADD66RoundRect,0.225000X-0.225000X-0.250000X0.225000X-0.250000X0.225000X0.250000X-0.225000X0.250000X0*%
%ADD67R,0.700000X0.350000*%
G04 APERTURE END LIST*
D10*
G36*
X45313600Y-84861400D02*
G01*
X45313600Y-87147400D01*
X43154600Y-87147400D01*
X43154600Y-84963000D01*
X43510200Y-84607400D01*
X45059600Y-84607400D01*
X45313600Y-84861400D01*
G37*
G36*
X65074800Y-86309200D02*
G01*
X65074800Y-86588600D01*
X64338200Y-87325200D01*
X64008000Y-87325200D01*
X60121800Y-83439000D01*
X46126400Y-83439000D01*
X46126400Y-81965800D01*
X60731400Y-81965800D01*
X65074800Y-86309200D01*
G37*
G36*
X44577000Y-89281000D02*
G01*
X45059600Y-89281000D01*
X45059600Y-92278200D01*
X42443400Y-92278200D01*
X42087800Y-91922600D01*
X42087800Y-89331800D01*
X42265600Y-89154000D01*
X44297600Y-89154000D01*
X44577000Y-89281000D01*
G37*
G36*
X48082200Y-98729800D02*
G01*
X48082200Y-105892600D01*
X40614600Y-105892600D01*
X39598600Y-104521000D01*
X34518600Y-104521000D01*
X34518600Y-99441000D01*
X40716200Y-99441000D01*
X43180000Y-96977200D01*
X43180000Y-95529400D01*
X43256200Y-95478600D01*
X44831000Y-95478600D01*
X48082200Y-98729800D01*
G37*
D11*
%TO.C,U7*%
X76963000Y-74160400D03*
D12*
X76463000Y-74910400D03*
X76963000Y-74910400D03*
X77463000Y-74910400D03*
X77463000Y-73410400D03*
X76963000Y-73410400D03*
X76463000Y-73410400D03*
%TD*%
D13*
%TO.C,IC1*%
X76442600Y-82209600D03*
X76942600Y-82209600D03*
X77442600Y-82209600D03*
X77942600Y-82209600D03*
X77942600Y-84109600D03*
X77442600Y-84109600D03*
X76942600Y-84109600D03*
X76442600Y-84109600D03*
D14*
X77192600Y-83159600D03*
%TD*%
D15*
%TO.C,IC5*%
X42303000Y-92949300D03*
X42803000Y-92949300D03*
X43303000Y-92949300D03*
X43803000Y-92949300D03*
D16*
X44515500Y-93661800D03*
X44515500Y-94161800D03*
X44515500Y-94661800D03*
X44515500Y-95161800D03*
D15*
X43803000Y-95874300D03*
X43303000Y-95874300D03*
X42803000Y-95874300D03*
X42303000Y-95874300D03*
D16*
X41590500Y-95161800D03*
X41590500Y-94661800D03*
X41590500Y-94161800D03*
X41590500Y-93661800D03*
D17*
X43053000Y-94411800D03*
%TD*%
D18*
%TO.C,H3*%
X51689000Y-98704400D03*
D19*
X51689000Y-98704400D03*
%TD*%
D20*
%TO.C,J3*%
X39598600Y-99441000D03*
X39598600Y-104521000D03*
X34518600Y-104521000D03*
X34518600Y-99441000D03*
D21*
X37058600Y-101981000D03*
%TD*%
D20*
%TO.C,J2*%
X58851800Y-104455502D03*
X62443902Y-100863400D03*
X58851800Y-97271298D03*
X55259698Y-100863400D03*
D21*
X58851800Y-100863400D03*
%TD*%
%TO.C,J1*%
X73304400Y-100863400D03*
D20*
X73304400Y-104455502D03*
X69712298Y-100863400D03*
X73304400Y-97271298D03*
X76896502Y-100863400D03*
%TD*%
D19*
%TO.C,H1*%
X77673200Y-95478600D03*
D18*
X77673200Y-95478600D03*
%TD*%
D22*
%TO.C,J9*%
X34950400Y-83230800D03*
D23*
X34950400Y-85770800D03*
%TD*%
D19*
%TO.C,H2*%
X73304400Y-60452000D03*
D18*
X73304400Y-60452000D03*
%TD*%
D22*
%TO.C,J7*%
X34950400Y-58166000D03*
D23*
X34950400Y-60706000D03*
X37490400Y-58166000D03*
X37490400Y-60706000D03*
X40030400Y-58166000D03*
X40030400Y-60706000D03*
X42570400Y-58166000D03*
X42570400Y-60706000D03*
X45110400Y-58166000D03*
X45110400Y-60706000D03*
X47650400Y-58166000D03*
X47650400Y-60706000D03*
%TD*%
D22*
%TO.C,J6*%
X78994000Y-58216800D03*
D23*
X78994000Y-60756800D03*
X78994000Y-63296800D03*
%TD*%
D24*
%TO.C,J5*%
X54813200Y-57886600D03*
D25*
X53543200Y-57886600D03*
X52273200Y-57886600D03*
X51003200Y-57886600D03*
%TD*%
D26*
%TO.C,C141*%
X69380400Y-86969600D03*
X67830400Y-86969600D03*
%TD*%
D27*
%TO.C,C102*%
X48096808Y-86675592D03*
X47000792Y-87771608D03*
%TD*%
D28*
%TO.C,IC10*%
X73265200Y-68396200D03*
X73265200Y-67746200D03*
X73265200Y-67096200D03*
X75040200Y-67096200D03*
X75040200Y-67746200D03*
X75040200Y-68396200D03*
D29*
X74152700Y-67746200D03*
%TD*%
D30*
%TO.C,C69*%
X69314000Y-91617800D03*
X68354000Y-91617800D03*
%TD*%
D31*
%TO.C,U2*%
X43756109Y-72392419D03*
X43402556Y-72745973D03*
X43049002Y-73099526D03*
X42695449Y-73453080D03*
X42341896Y-73806633D03*
X41988342Y-74160186D03*
X41634789Y-74513740D03*
X41281235Y-74867293D03*
D32*
X40361997Y-74867293D03*
X40008443Y-74513740D03*
X39654890Y-74160186D03*
X39301336Y-73806633D03*
X38947783Y-73453080D03*
X38594230Y-73099526D03*
X38240676Y-72745973D03*
X37887123Y-72392419D03*
D31*
X37887123Y-71473181D03*
X38240676Y-71119627D03*
X38594230Y-70766074D03*
X38947783Y-70412520D03*
X39301336Y-70058967D03*
X39654890Y-69705414D03*
X40008443Y-69351860D03*
X40361997Y-68998307D03*
D32*
X41281235Y-68998307D03*
X41634789Y-69351860D03*
X41988342Y-69705414D03*
X42341896Y-70058967D03*
X42695449Y-70412520D03*
X43049002Y-70766074D03*
X43402556Y-71119627D03*
X43756109Y-71473181D03*
D33*
X40821616Y-71932800D03*
%TD*%
D34*
%TO.C,R75*%
X67598100Y-83667600D03*
X68618100Y-83667600D03*
%TD*%
D35*
%TO.C,C122*%
X70853300Y-80860600D03*
X70853300Y-82410600D03*
%TD*%
D36*
%TO.C,R50*%
X49405000Y-84328000D03*
X48385000Y-84328000D03*
%TD*%
D37*
%TO.C,R4*%
X35250176Y-71048824D03*
X35971424Y-70327576D03*
%TD*%
D38*
%TO.C,C30*%
X37775000Y-81711800D03*
X38735000Y-81711800D03*
%TD*%
D30*
%TO.C,C7*%
X70497700Y-83667600D03*
X69537700Y-83667600D03*
%TD*%
D39*
%TO.C,R68*%
X51638200Y-87782400D03*
X51638200Y-86762400D03*
%TD*%
D26*
%TO.C,C121*%
X75095400Y-69824600D03*
X73545400Y-69824600D03*
%TD*%
D40*
%TO.C,L13*%
X42565600Y-97078800D03*
X43535600Y-97078800D03*
%TD*%
D41*
%TO.C,R52*%
X61849000Y-70711600D03*
X61849000Y-71731600D03*
%TD*%
D30*
%TO.C,C13*%
X46733400Y-84861400D03*
X45773400Y-84861400D03*
%TD*%
D42*
%TO.C,IC2*%
X69426900Y-82675500D03*
X68776900Y-82675500D03*
X68126900Y-82675500D03*
X68126900Y-80900500D03*
X68776900Y-80900500D03*
X69426900Y-80900500D03*
D43*
X68776900Y-81788000D03*
%TD*%
D44*
%TO.C,C39*%
X63129100Y-70582000D03*
X63129100Y-69622000D03*
%TD*%
D45*
%TO.C,J10*%
X48235600Y-72756400D03*
X51535600Y-72756400D03*
X48235600Y-71756400D03*
X51535600Y-71756400D03*
X48235600Y-70756400D03*
X51535600Y-70756400D03*
X48235600Y-69756400D03*
X51535600Y-69756400D03*
X48235600Y-68756400D03*
X51535600Y-68756400D03*
X48235600Y-67756400D03*
X51535600Y-67756400D03*
%TD*%
D46*
%TO.C,C27*%
X43688000Y-75539600D03*
X44366822Y-76218422D03*
%TD*%
D47*
%TO.C,C8*%
X40252022Y-67570978D03*
X39573200Y-68249800D03*
%TD*%
D48*
%TO.C,C17*%
X47650400Y-79888200D03*
X47650400Y-80848200D03*
%TD*%
D49*
%TO.C,U20*%
X69823484Y-78047130D03*
X69469931Y-77693577D03*
X69116377Y-77340023D03*
X68762824Y-76986470D03*
X70583624Y-75165670D03*
X70937177Y-75519223D03*
X71290731Y-75872777D03*
X71644284Y-76226330D03*
D50*
X70203554Y-76606400D03*
%TD*%
D48*
%TO.C,C87*%
X34442400Y-78107600D03*
X34442400Y-79067600D03*
%TD*%
D46*
%TO.C,C26*%
X42992989Y-76241589D03*
X43671811Y-76920411D03*
%TD*%
D44*
%TO.C,C42*%
X64322900Y-70582000D03*
X64322900Y-69622000D03*
%TD*%
D30*
%TO.C,C132*%
X69507100Y-85699600D03*
X68547100Y-85699600D03*
%TD*%
D48*
%TO.C,C97*%
X43586400Y-90833000D03*
X43586400Y-91793000D03*
%TD*%
D44*
%TO.C,C34*%
X72273100Y-69436400D03*
X72273100Y-68476400D03*
%TD*%
D46*
%TO.C,C3*%
X37497378Y-68993378D03*
X38176200Y-69672200D03*
%TD*%
D39*
%TO.C,R63*%
X65338900Y-71499001D03*
X65338900Y-70479001D03*
%TD*%
D48*
%TO.C,C32*%
X46659800Y-79456400D03*
X46659800Y-80416400D03*
%TD*%
D51*
%TO.C,IC8*%
X50646100Y-88072200D03*
X50646100Y-88722200D03*
X50646100Y-89372200D03*
X48871100Y-89372200D03*
X48871100Y-88722200D03*
X48871100Y-88072200D03*
D29*
X49758600Y-88722200D03*
%TD*%
D38*
%TO.C,C11*%
X49685000Y-86918800D03*
X50645000Y-86918800D03*
%TD*%
D47*
%TO.C,C123*%
X72450011Y-76901989D03*
X71771189Y-77580811D03*
%TD*%
D48*
%TO.C,C116*%
X52654200Y-86771599D03*
X52654200Y-87731599D03*
%TD*%
D52*
%TO.C,U4*%
X40472797Y-78303801D03*
X40972796Y-78303801D03*
X41472797Y-78303801D03*
X41972796Y-78303801D03*
X42472798Y-78303801D03*
X42972797Y-78303801D03*
X43472796Y-78303801D03*
X43972797Y-78303801D03*
X44472796Y-78303801D03*
X44972798Y-78303801D03*
D53*
X45622797Y-78953799D03*
X45622797Y-79453798D03*
X45622797Y-79953800D03*
X45622797Y-80453799D03*
X45622797Y-80953800D03*
X45622797Y-81453800D03*
X45622797Y-81953798D03*
X45622797Y-82453800D03*
X45622797Y-82953799D03*
X45622797Y-83453801D03*
D52*
X44972798Y-84103799D03*
X44472796Y-84103799D03*
X43972797Y-84103799D03*
X43472796Y-84103799D03*
X42972797Y-84103799D03*
X42472798Y-84103799D03*
X41972796Y-84103799D03*
X41472797Y-84103799D03*
X40972796Y-84103799D03*
X40472797Y-84103799D03*
D53*
X39822798Y-83453801D03*
X39822798Y-82953799D03*
X39822798Y-82453800D03*
X39822798Y-81953798D03*
X39822798Y-81453800D03*
X39822798Y-80953800D03*
X39822798Y-80453799D03*
X39822798Y-79953800D03*
X39822798Y-79453798D03*
X39822798Y-78953799D03*
D54*
X43422800Y-83203800D03*
X43452800Y-79203800D03*
X40722800Y-80473800D03*
X41992800Y-83203800D03*
X43452800Y-80473800D03*
X41992800Y-80473800D03*
X44722800Y-81933800D03*
X43452800Y-81933800D03*
D55*
X42722797Y-81203800D03*
D54*
X41992800Y-81933800D03*
X44722800Y-80473800D03*
X41992800Y-79203800D03*
X40722800Y-81933800D03*
%TD*%
D38*
%TO.C,C24*%
X40670600Y-77165200D03*
X41630600Y-77165200D03*
%TD*%
D56*
%TO.C,C20*%
X38883584Y-86617816D03*
X39979600Y-85521800D03*
%TD*%
D35*
%TO.C,C33*%
X76835000Y-57772000D03*
X76835000Y-59322000D03*
%TD*%
D30*
%TO.C,C43*%
X67726500Y-68400200D03*
X66766500Y-68400200D03*
%TD*%
D48*
%TO.C,C77*%
X63423800Y-81003200D03*
X63423800Y-81963200D03*
%TD*%
D57*
%TO.C,C133*%
X69205976Y-78936222D03*
X68527154Y-78257400D03*
%TD*%
D38*
%TO.C,C38*%
X59946600Y-69519800D03*
X60906600Y-69519800D03*
%TD*%
D48*
%TO.C,C95*%
X55727600Y-72037000D03*
X55727600Y-72997000D03*
%TD*%
D46*
%TO.C,C103*%
X46117189Y-75657389D03*
X46796011Y-76336211D03*
%TD*%
D41*
%TO.C,R73*%
X72273100Y-66518600D03*
X72273100Y-67538600D03*
%TD*%
D30*
%TO.C,C96*%
X44574400Y-89865200D03*
X43614400Y-89865200D03*
%TD*%
D58*
%TO.C,L12*%
X40386000Y-93520400D03*
X40386000Y-94490400D03*
%TD*%
D30*
%TO.C,C76*%
X67104200Y-79197200D03*
X66144200Y-79197200D03*
%TD*%
D44*
%TO.C,C131*%
X70241100Y-68473800D03*
X70241100Y-67513800D03*
%TD*%
D47*
%TO.C,C4*%
X43706422Y-68561578D03*
X43027600Y-69240400D03*
%TD*%
D59*
%TO.C,U13*%
X60655200Y-71359000D03*
X60655200Y-72009000D03*
X60655200Y-72659000D03*
X58755200Y-72659000D03*
X58755200Y-71359000D03*
%TD*%
D60*
%TO.C,R5*%
X43007224Y-74848776D03*
X42285976Y-75570024D03*
%TD*%
D44*
%TO.C,C28*%
X43723400Y-86375200D03*
X43723400Y-85415200D03*
%TD*%
%TO.C,C29*%
X44739400Y-86370000D03*
X44739400Y-85410000D03*
%TD*%
D61*
%TO.C,C106*%
X76835000Y-62776400D03*
X76835000Y-61226400D03*
%TD*%
D44*
%TO.C,C99*%
X41579800Y-98016000D03*
X41579800Y-97056000D03*
%TD*%
D34*
%TO.C,R74*%
X68512500Y-84683600D03*
X69532500Y-84683600D03*
%TD*%
D62*
%TO.C,U6*%
X54813200Y-64563800D03*
X53543200Y-64563800D03*
X52273200Y-64563800D03*
X51003200Y-64563800D03*
X51003200Y-59613800D03*
X52273200Y-59613800D03*
X53543200Y-59613800D03*
X54813200Y-59613800D03*
%TD*%
D37*
%TO.C,R1*%
X36647176Y-76789224D03*
X37368424Y-76067976D03*
%TD*%
D63*
%TO.C,R44*%
X37251752Y-73345152D03*
X37973000Y-74066400D03*
%TD*%
D64*
%TO.C,C1*%
X38751189Y-76107611D03*
X39430011Y-75428789D03*
%TD*%
D65*
%TO.C,R2*%
X37470024Y-70413824D03*
X36748776Y-69692576D03*
%TD*%
D66*
%TO.C,C119*%
X51498200Y-85521800D03*
X53048200Y-85521800D03*
%TD*%
%TO.C,C5*%
X33870600Y-80594200D03*
X35420600Y-80594200D03*
%TD*%
D30*
%TO.C,C91*%
X55775800Y-66344800D03*
X54815800Y-66344800D03*
%TD*%
D61*
%TO.C,C140*%
X68971100Y-68669200D03*
X68971100Y-67119200D03*
%TD*%
D44*
%TO.C,C79*%
X64414400Y-80998000D03*
X64414400Y-80038000D03*
%TD*%
D37*
%TO.C,R7*%
X35986776Y-71785424D03*
X36708024Y-71064176D03*
%TD*%
D41*
%TO.C,R72*%
X71257100Y-67456400D03*
X71257100Y-68476400D03*
%TD*%
D64*
%TO.C,C90*%
X38014589Y-75396411D03*
X38693411Y-74717589D03*
%TD*%
D67*
%TO.C,FL1*%
X43606400Y-88889600D03*
X43606400Y-88239600D03*
X43606400Y-87589600D03*
X44856400Y-87589600D03*
X44856400Y-88239600D03*
X44856400Y-88889600D03*
%TD*%
D39*
%TO.C,R51*%
X56743600Y-71934800D03*
X56743600Y-70914800D03*
%TD*%
D61*
%TO.C,C25*%
X38379400Y-84518800D03*
X38379400Y-82968800D03*
%TD*%
D47*
%TO.C,C22*%
X46059411Y-76978189D03*
X45380589Y-77657011D03*
%TD*%
D48*
%TO.C,C23*%
X38709600Y-78237200D03*
X38709600Y-79197200D03*
%TD*%
D66*
%TO.C,C19*%
X36905600Y-80441800D03*
X38455600Y-80441800D03*
%TD*%
D64*
%TO.C,C98*%
X39716389Y-97342011D03*
X40395211Y-96663189D03*
%TD*%
D63*
%TO.C,R3*%
X38191552Y-68244776D03*
X38912800Y-68966024D03*
%TD*%
D57*
%TO.C,C9*%
X44595422Y-70757422D03*
X43916600Y-70078600D03*
%TD*%
D64*
%TO.C,C21*%
X41418189Y-85886611D03*
X42097011Y-85207789D03*
%TD*%
D39*
%TO.C,R69*%
X51638200Y-89740200D03*
X51638200Y-88720200D03*
%TD*%
D47*
%TO.C,C49*%
X65693611Y-77892589D03*
X65014789Y-78571411D03*
%TD*%
M02*
