M48
; DRILL file {KiCad (6.0.4)} date Mon May 22 00:57:46 2023
; FORMAT={-:-/ absolute / inch / decimal}
; #@! TF.CreationDate,2023-05-22T00:57:46+09:00
; #@! TF.GenerationSoftware,Kicad,Pcbnew,(6.0.4)
; #@! TF.FileFunction,Plated,1,6,PTH
FMAT,2
INCH
; #@! TA.AperFunction,Plated,PTH,ViaDrill
T1C0.0079
; #@! TA.AperFunction,Plated,PTH,ComponentDrill
T2C0.0079
; #@! TA.AperFunction,Plated,PTH,ViaDrill
T3C0.0118
; #@! TA.AperFunction,Plated,PTH,ComponentDrill
T4C0.0118
; #@! TA.AperFunction,Plated,PTH,ViaDrill
T5C0.0157
; #@! TA.AperFunction,Plated,PTH,ComponentDrill
T6C0.0256
; #@! TA.AperFunction,Plated,PTH,ComponentDrill
T7C0.0394
; #@! TA.AperFunction,Plated,PTH,ComponentDrill
T8C0.0591
; #@! TA.AperFunction,Plated,PTH,ComponentDrill
T9C0.0669
; #@! TA.AperFunction,Plated,PTH,ComponentDrill
T10C0.0866
%
G90
G05
T1
X1.323Y-3.137
X1.323Y-3.109
X1.328Y-2.484
X1.328Y-2.568
X1.328Y-2.652
X1.328Y-2.736
X1.328Y-2.82
X1.328Y-2.904
X1.328Y-2.988
X1.328Y-3.072
X1.328Y-3.324
X1.328Y-3.408
X1.328Y-3.492
X1.328Y-3.576
X1.328Y-3.66
X1.328Y-3.744
X1.328Y-3.828
X1.328Y-3.996
X1.328Y-4.164
X1.351Y-3.109
X1.351Y-3.137
X1.364Y-2.716
X1.378Y-3.072
X1.401Y-3.125
X1.401Y-3.153
X1.401Y-3.181
X1.41Y-2.554
X1.412Y-2.82
X1.412Y-2.904
X1.412Y-2.988
X1.412Y-3.492
X1.412Y-3.576
X1.412Y-3.66
X1.412Y-3.744
X1.412Y-3.828
X1.412Y-4.164
X1.42Y-2.716
X1.433Y-3.065
X1.435Y-3.109
X1.439Y-3.153
X1.439Y-3.181
X1.466Y-2.554
X1.467Y-3.181
X1.467Y-3.153
X1.469Y-2.939
X1.476Y-2.716
X1.478Y-2.806
X1.487Y-3.217
X1.494Y-3.1
X1.496Y-3.408
X1.51Y-2.656
X1.52Y-3.053
X1.522Y-2.905
X1.531Y-2.832
X1.536Y-3.208
X1.536Y-3.821
X1.536Y-3.849
X1.543Y-3.69
X1.548Y-2.869
X1.548Y-3.308
X1.557Y-3.666
X1.564Y-3.793
X1.564Y-3.821
X1.564Y-3.849
X1.57Y-3.167
X1.571Y-3.69
X1.574Y-3.034
X1.58Y-3.492
X1.58Y-3.576
X1.585Y-3.666
X1.586Y-2.993
X1.589Y-3.311
X1.592Y-3.849
X1.597Y-3.747
X1.599Y-3.69
X1.602Y-2.903
X1.606Y-3.431
X1.606Y-4.162
X1.607Y-2.756
X1.6072Y-2.7942
X1.6072Y-2.832
X1.6072Y-2.8698
X1.613Y-3.666
X1.6192Y-3.8888
X1.62Y-3.849
X1.625Y-2.959
X1.625Y-3.747
X1.634Y-4.162
X1.635Y-2.561
X1.6352Y-2.832
X1.638Y-3.695
X1.639Y-3.869
X1.64Y-2.67
X1.641Y-3.666
X1.642Y-3.638
X1.653Y-3.747
X1.653Y-3.778
X1.656Y-2.5
X1.657Y-2.896
X1.6588Y-3.8492
X1.662Y-4.162
X1.6632Y-2.832
X1.664Y-3.408
X1.664Y-3.517
X1.664Y-3.545
X1.664Y-3.573
X1.664Y-3.601
X1.665Y-3.708
X1.67Y-3.49
X1.6722Y-3.3248
X1.6728Y-2.561
X1.673Y-2.78
X1.675Y-3.627
X1.683Y-3.744
X1.683Y-3.795
X1.684Y-3.681
X1.69Y-4.162
X1.691Y-3.35
X1.692Y-3.717
X1.694Y-2.5
X1.694Y-2.726
X1.696Y-2.851
X1.699Y-2.809
X1.7108Y-2.625
X1.711Y-3.69
X1.711Y-3.744
X1.712Y-3.069
X1.718Y-4.162
X1.72Y-3.717
X1.723Y-2.933
X1.7318Y-2.5
X1.732Y-2.858
X1.739Y-3.69
X1.739Y-3.744
X1.746Y-4.162
X1.748Y-3.717
X1.748Y-2.691
X1.751Y-3.544
X1.7602Y-3.7642
X1.767Y-3.578
X1.767Y-3.606
X1.767Y-3.634
X1.767Y-3.662
X1.767Y-3.69
X1.769Y-2.74
X1.774Y-4.162
X1.776Y-3.717
X1.78Y-3.784
X1.781Y-2.979
X1.791Y-3.536
X1.791Y-3.564
X1.791Y-3.592
X1.791Y-3.62
X1.791Y-3.648
X1.791Y-3.676
X1.799Y-3.292
X1.802Y-4.162
X1.804Y-3.717
X1.805Y-3.106
X1.805Y-3.4
X1.806Y-2.666
X1.815Y-3.522
X1.815Y-3.55
X1.815Y-3.578
X1.816Y-3.69
X1.8196Y-3.8236
X1.82Y-2.985
X1.823Y-3.234
X1.823Y-3.278
X1.8252Y-3.3802
X1.829Y-2.772
X1.83Y-4.162
X1.837Y-2.665
X1.837Y-3.113
X1.8394Y-3.8434
X1.84Y-2.964
X1.84Y-3.451
X1.845Y-3.4
X1.845Y-3.3604
X1.851Y-3.234
X1.851Y-3.278
X1.858Y-4.162
X1.8594Y-3.8634
X1.86Y-2.776
X1.86Y-2.822
X1.86Y-3.491
X1.861Y-3.332
X1.8648Y-3.3802
X1.866Y-3.149
X1.869Y-2.645
X1.871Y-3.183
X1.874Y-3.639
X1.874Y-3.667
X1.879Y-3.234
X1.879Y-3.278
X1.8792Y-3.8832
X1.886Y-3.91
X1.886Y-3.938
X1.886Y-3.966
X1.886Y-3.994
X1.886Y-4.022
X1.886Y-4.05
X1.886Y-4.078
X1.886Y-4.106
X1.886Y-4.134
X1.886Y-4.162
X1.89Y-3.519
X1.898Y-3.653
X1.898Y-3.681
X1.899Y-2.703
X1.899Y-2.933
X1.899Y-3.305
X1.9Y-3.121
X1.903Y-2.89
X1.907Y-3.234
X1.907Y-3.278
X1.911Y-3.032
X1.914Y-3.354
X1.916Y-2.484
X1.916Y-3.744
X1.916Y-3.828
X1.916Y-3.912
X1.916Y-3.996
X1.916Y-4.08
X1.916Y-4.164
X1.917Y-3.493
X1.922Y-3.639
X1.922Y-3.667
X1.922Y-3.695
X1.927Y-2.933
X1.931Y-2.89
X1.938Y-2.756
X1.9405Y-2.9576
X1.946Y-3.531
X1.946Y-3.503
X1.946Y-3.559
X1.946Y-3.597
X1.946Y-3.625
X1.946Y-3.653
X1.946Y-3.681
X1.946Y-3.709
X1.947Y-2.587
X1.95Y-2.686
X1.95Y-2.726
X1.95Y-2.806
X1.955Y-2.933
X1.959Y-2.89
X1.962Y-2.979
X1.963Y-3.234
X1.963Y-3.278
X1.97Y-3.461
X1.97Y-3.489
X1.97Y-3.517
X1.97Y-3.545
X1.974Y-3.597
X1.974Y-3.625
X1.974Y-3.653
X1.974Y-3.681
X1.974Y-3.709
X1.981Y-2.558
X1.983Y-2.933
X1.987Y-2.89
X1.989Y-2.96
X1.991Y-3.234
X1.991Y-3.278
X1.994Y-3.531
X1.994Y-3.559
X1.998Y-3.695
X2.0Y-3.744
X2.0Y-3.828
X2.0Y-3.996
X2.0Y-4.08
X2.0Y-4.164
X2.007Y-3.655
X2.015Y-2.89
X2.018Y-3.545
X2.019Y-3.234
X2.019Y-3.278
X2.03Y-3.625
X2.033Y-2.717
X2.033Y-2.817
X2.039Y-2.756
X2.042Y-3.531
X2.045Y-3.048
X2.047Y-3.11
X2.047Y-3.278
X2.047Y-3.234
X2.058Y-3.625
X2.066Y-3.366
X2.068Y-2.789
X2.07Y-2.596
X2.075Y-3.278
X2.075Y-3.234
X2.081Y-3.089
X2.084Y-2.484
X2.084Y-3.156
X2.084Y-3.492
X2.084Y-3.66
X2.084Y-3.744
X2.084Y-3.828
X2.084Y-3.996
X2.084Y-4.08
X2.084Y-4.164
X2.089Y-2.622
X2.094Y-3.366
X2.099Y-2.874
X2.099Y-3.067
X2.103Y-3.278
X2.103Y-3.234
X2.115Y-2.772
X2.121Y-2.967
X2.122Y-3.366
X2.131Y-3.278
X2.131Y-3.234
X2.132Y-2.679
X2.144Y-2.716
X2.151Y-2.933
X2.157Y-2.967
X2.159Y-3.234
X2.159Y-3.278
X2.168Y-2.484
X2.168Y-3.072
X2.168Y-3.156
X2.168Y-3.324
X2.168Y-3.576
X2.168Y-3.66
X2.168Y-3.744
X2.168Y-3.828
X2.168Y-4.08
X2.168Y-4.164
X2.179Y-2.933
X2.187Y-3.234
X2.187Y-3.278
X2.196Y-2.611
X2.207Y-2.933
X2.213Y-2.89
X2.215Y-3.234
X2.215Y-3.278
X2.234Y-3.451
X2.234Y-3.479
X2.234Y-3.507
X2.234Y-3.535
X2.234Y-3.563
X2.235Y-2.933
X2.241Y-2.89
X2.243Y-3.234
X2.243Y-3.206
X2.243Y-3.278
X2.243Y-3.306
X2.243Y-3.334
X2.243Y-3.362
X2.252Y-2.316
X2.252Y-2.484
X2.252Y-2.568
X2.252Y-2.652
X2.252Y-2.736
X2.252Y-2.988
X2.252Y-3.072
X2.252Y-3.66
X2.252Y-3.744
X2.252Y-3.828
X2.252Y-4.08
X2.252Y-4.164
X2.255Y-3.18
X2.263Y-2.933
X2.269Y-2.766
X2.269Y-2.833
X2.269Y-2.887
X2.2748Y-3.1602
X2.278Y-2.292
X2.278Y-2.348
X2.278Y-2.404
X2.281Y-2.74
X2.291Y-2.933
X2.2946Y-3.1404
X2.313Y-2.775
X2.3144Y-3.1206
X2.3148Y-2.9528
X2.323Y-2.635
X2.325Y-2.4811
X2.325Y-2.5561
X2.328Y-2.7
X2.334Y-2.292
X2.334Y-2.348
X2.334Y-2.404
X2.336Y-2.89
X2.336Y-3.072
X2.336Y-3.66
X2.336Y-3.744
X2.341Y-2.836
X2.3506Y-2.9886
X2.356Y-2.434
X2.356Y-2.861
X2.357Y-2.933
X2.36Y-2.809
X2.363Y-2.757
X2.364Y-2.89
X2.37Y-3.479
X2.3704Y-3.0084
X2.3768Y-2.9528
X2.377Y-3.416
X2.38Y-2.454
X2.38Y-2.482
X2.38Y-2.51
X2.381Y-2.393
X2.384Y-2.868
X2.384Y-3.55
X2.3894Y-3.4564
X2.3902Y-3.0282
X2.401Y-3.076
X2.4035Y-2.888
X2.4092Y-3.4762
X2.41Y-3.048
X2.413Y-2.933
X2.415Y-3.115
X2.416Y-2.831
X2.42Y-2.316
X2.42Y-4.08
X2.42Y-4.164
X2.4212Y-2.9972
X2.424Y-2.859
X2.429Y-3.496
X2.4318Y-3.7622
X2.4375Y-2.916
X2.441Y-3.017
X2.4412Y-3.9128
X2.449Y-2.944
X2.45Y-3.67
X2.4516Y-3.7424
X2.453Y-2.85
X2.4544Y-3.3624
X2.469Y-2.988
X2.4714Y-3.7226
X2.4728Y-2.8302
X2.473Y-2.926
X2.4742Y-3.3822
X2.4798Y-2.7739
X2.4854Y-3.3314
X2.494Y-3.402
X2.494Y-3.438
X2.4978Y-3.8302
X2.504Y-2.316
X2.504Y-3.912
X2.504Y-4.08
X2.504Y-4.164
X2.5044Y-2.9316
X2.5052Y-3.3512
X2.509Y-3.023
X2.509Y-3.222
X2.509Y-3.309
X2.5136Y-3.681
X2.514Y-3.458
X2.5176Y-3.8104
X2.521Y-3.709
X2.5242Y-2.9118
X2.525Y-3.371
X2.5272Y-3.426
X2.534Y-3.478
X2.537Y-2.977
X2.537Y-3.006
X2.5374Y-3.7906
X2.538Y-2.83
X2.538Y-2.858
X2.5392Y-2.7748
X2.544Y-2.892
X2.5468Y-3.7452
X2.5505Y-3.4039
X2.552Y-3.499
X2.5606Y-3.3706
X2.562Y-2.809
X2.568Y-3.319
X2.5725Y-3.698
X2.573Y-3.726
X2.5772Y-3.0168
X2.5804Y-3.3904
X2.588Y-2.316
X2.588Y-3.828
X2.588Y-3.912
X2.588Y-3.996
X2.588Y-4.08
X2.588Y-4.164
X2.596Y-3.0865
X2.597Y-2.997
X2.5972Y-3.7462
X2.6002Y-3.4102
X2.6056Y-3.7916
X2.6076Y-3.3586
X2.6082Y-3.0478
X2.614Y-3.464
X2.614Y-3.492
X2.6168Y-2.9772
X2.617Y-3.766
X2.62Y-3.43
X2.624Y-3.704
X2.6254Y-3.8114
X2.6278Y-3.0678
X2.628Y-3.028
X2.6366Y-2.9574
X2.637Y-2.3931
X2.638Y-2.454
X2.638Y-2.482
X2.638Y-2.51
X2.642Y-3.73
X2.6452Y-3.8312
X2.6478Y-3.0082
X2.652Y-3.704
X2.6564Y-2.9376
X2.657Y-2.758
X2.661Y-3.306
X2.662Y-2.434
X2.665Y-3.851
X2.6676Y-2.9884
X2.671Y-3.396
X2.671Y-3.424
X2.671Y-3.452
X2.671Y-3.48
X2.672Y-3.912
X2.672Y-3.996
X2.672Y-4.08
X2.672Y-4.164
X2.6726Y-3.7246
X2.6762Y-2.9178
X2.684Y-2.292
X2.684Y-2.348
X2.684Y-2.404
X2.6874Y-2.9686
X2.689Y-2.7595
X2.6924Y-3.7444
X2.694Y-2.57
X2.696Y-2.898
X2.698Y-2.786
X2.698Y-2.814
X2.698Y-2.842
X2.698Y-2.87
X2.703Y-3.124
X2.706Y-2.643
X2.7072Y-2.9488
X2.708Y-3.704
X2.7122Y-3.7642
X2.727Y-2.929
X2.732Y-3.003
X2.732Y-3.784
X2.733Y-3.211
X2.738Y-3.908
X2.74Y-2.292
X2.74Y-2.348
X2.74Y-2.404
X2.742Y-2.762
X2.742Y-2.79
X2.742Y-2.818
X2.742Y-2.846
X2.742Y-2.874
X2.742Y-2.902
X2.746Y-3.732
X2.7518Y-2.9832
X2.7518Y-3.0228
X2.756Y-2.316
X2.756Y-2.731
X2.756Y-4.08
X2.756Y-4.164
X2.764Y-3.282
X2.764Y-3.45
X2.764Y-3.478
X2.7716Y-3.003
X2.7716Y-3.0426
X2.777Y-3.256
X2.779Y-2.945
X2.784Y-2.553
X2.791Y-3.232
X2.7914Y-3.0228
X2.7914Y-3.0624
X2.793Y-2.722
X2.798Y-3.822
X2.7988Y-3.2908
X2.8112Y-3.0426
X2.812Y-2.553
X2.8186Y-3.3106
X2.824Y-3.195
X2.824Y-3.223
X2.824Y-3.251
X2.826Y-3.822
X2.8384Y-3.3304
X2.84Y-2.316
X2.84Y-2.553
X2.84Y-2.82
X2.84Y-2.904
X2.84Y-3.66
X2.84Y-3.744
X2.84Y-4.164
X2.8582Y-3.3502
X2.868Y-2.553
X2.8782Y-3.3702
X2.898Y-3.39
X2.907Y-2.661
X2.907Y-2.689
X2.908Y-3.417
X2.908Y-3.445
X2.908Y-3.473
X2.908Y-3.501
X2.908Y-3.529
X2.911Y-2.544
X2.911Y-2.572
X2.911Y-2.6
X2.911Y-2.628
X2.924Y-2.82
X2.924Y-2.904
X2.924Y-3.156
X2.924Y-3.24
X2.924Y-3.324
X2.924Y-3.576
X2.924Y-3.66
X2.924Y-3.744
X2.924Y-4.164
X2.931Y-2.647
X2.931Y-2.675
X2.931Y-2.703
X2.935Y-2.53
X2.935Y-2.558
X2.935Y-2.586
X2.935Y-2.614
X2.959Y-2.638
X3.008Y-2.316
X3.008Y-2.568
X3.008Y-2.652
X3.008Y-2.82
X3.008Y-2.904
X3.008Y-3.072
X3.008Y-3.156
X3.008Y-3.24
X3.008Y-3.324
X3.008Y-3.408
X3.008Y-3.492
X3.008Y-3.576
X3.008Y-3.66
X3.008Y-3.828
X3.008Y-3.912
X3.008Y-4.08
X3.008Y-4.164
X3.092Y-2.736
X3.092Y-2.82
X3.092Y-2.988
X3.092Y-3.072
X3.092Y-3.156
X3.092Y-3.24
X3.092Y-3.324
X3.092Y-3.408
X3.092Y-3.492
X3.092Y-3.576
X3.092Y-3.66
X3.092Y-3.828
X3.092Y-3.912
X3.092Y-3.996
X3.092Y-4.08
X3.092Y-4.164
X3.176Y-2.232
X3.176Y-2.316
X3.176Y-2.904
X3.176Y-2.988
X3.176Y-3.072
X3.176Y-3.156
X3.176Y-3.24
X3.176Y-3.324
X3.176Y-3.408
X3.176Y-3.492
X3.176Y-3.576
X3.176Y-3.66
X3.176Y-3.744
X3.176Y-3.828
X3.176Y-3.912
X3.176Y-3.996
X3.176Y-4.08
X3.176Y-4.164
T2
X2.4089Y-2.543
X2.4089Y-2.5932
X2.4089Y-2.6434
X2.4089Y-2.6936
X2.4089Y-2.7438
X2.4591Y-2.543
X2.4591Y-2.5932
X2.4591Y-2.6434
X2.4591Y-2.6936
X2.4591Y-2.7438
X2.4696Y-3.0766
X2.4696Y-3.116
X2.4696Y-3.1554
X2.509Y-3.0766
X2.509Y-3.116
X2.509Y-3.1554
X2.5093Y-2.543
X2.5093Y-2.5932
X2.5093Y-2.6434
X2.5093Y-2.6936
X2.5093Y-2.7438
X2.5431Y-3.5568
X2.5431Y-3.5962
X2.5431Y-3.6355
X2.5484Y-3.0766
X2.5484Y-3.116
X2.5484Y-3.1554
X2.5595Y-2.543
X2.5595Y-2.5932
X2.5595Y-2.6434
X2.5595Y-2.6936
X2.5595Y-2.7438
X2.5824Y-3.5568
X2.5824Y-3.5962
X2.5824Y-3.6355
X2.6097Y-2.543
X2.6097Y-2.5932
X2.6097Y-2.6434
X2.6097Y-2.6936
X2.6097Y-2.7438
X2.6218Y-3.5568
X2.6218Y-3.5962
X2.6218Y-3.6355
T3
X1.503Y-2.743
X1.511Y-3.327
X1.531Y-3.432
X1.56Y-2.96
X1.596Y-3.78
X1.637Y-3.388
X1.697Y-3.474
X1.735Y-2.753
X1.7414Y-3.474
X1.7694Y-2.828
X1.786Y-3.474
X1.801Y-3.338
X1.869Y-3.011
X1.909Y-3.394
X1.975Y-2.846
X2.006Y-2.613
X2.054Y-3.594
X2.152Y-2.832
X2.158Y-2.571
X2.3Y-2.576
X2.346Y-2.673
X2.3875Y-3.801
X2.4165Y-3.705
X2.423Y-3.8366
X2.4585Y-3.872
X2.485Y-3.636
X2.509Y-3.189
X2.558Y-2.955
X2.647Y-3.115
X2.6845Y-3.635
X2.6945Y-3.884
X2.6985Y-3.561
X2.7299Y-3.849
X2.73Y-3.666
X2.7415Y-2.568
X2.743Y-2.487
X2.7459Y-3.086
X2.7655Y-3.814
X2.79Y-3.192
X2.865Y-3.029
X2.985Y-2.756
T4
X1.6033Y-3.1683
X1.6033Y-3.2257
X1.6533Y-3.1183
X1.6533Y-3.1683
X1.6533Y-3.2257
X1.6533Y-3.2757
X1.7096Y-3.2757
X1.7107Y-3.1183
X1.7107Y-3.1683
X1.7107Y-3.2257
X1.7607Y-3.1683
X1.7607Y-3.2257
T5
X1.476Y-2.511
X1.875Y-3.601
X2.011Y-3.354
X2.4345Y-3.527
X2.664Y-2.671
X2.73Y-3.503
T6
X2.008Y-2.279
X2.058Y-2.279
X2.108Y-2.279
X2.158Y-2.279
T7
X1.376Y-2.29
X1.376Y-2.39
X1.376Y-3.2768
X1.376Y-3.3768
X1.476Y-2.29
X1.476Y-2.39
X1.576Y-2.29
X1.576Y-2.39
X1.676Y-2.29
X1.676Y-2.39
X1.776Y-2.29
X1.776Y-2.39
X1.876Y-2.29
X1.876Y-2.39
X3.11Y-2.292
X3.11Y-2.392
X3.11Y-2.492
T8
X1.459Y-4.015
X2.317Y-3.971
X2.886Y-3.971
T9
X1.359Y-3.915
X1.359Y-4.115
X1.559Y-3.915
X1.559Y-4.115
X2.1756Y-3.971
X2.317Y-3.8296
X2.317Y-4.1124
X2.4584Y-3.971
X2.7446Y-3.971
X2.886Y-3.8296
X2.886Y-4.1124
X3.0274Y-3.971
T10
X2.035Y-3.886
X2.886Y-2.38
X3.058Y-3.759
T0
M30
