%TF.GenerationSoftware,KiCad,Pcbnew,(6.0.4)*%
%TF.CreationDate,2023-05-22T00:57:41+09:00*%
%TF.ProjectId,RFB,5246422e-6b69-4636-9164-5f7063625858,rev?*%
%TF.SameCoordinates,Original*%
%TF.FileFunction,Paste,Top*%
%TF.FilePolarity,Positive*%
%FSLAX46Y46*%
G04 Gerber Fmt 4.6, Leading zero omitted, Abs format (unit mm)*
G04 Created by KiCad (PCBNEW (6.0.4)) date 2023-05-22 00:57:41*
%MOMM*%
%LPD*%
G01*
G04 APERTURE LIST*
G04 Aperture macros list*
%AMRoundRect*
0 Rectangle with rounded corners*
0 $1 Rounding radius*
0 $2 $3 $4 $5 $6 $7 $8 $9 X,Y pos of 4 corners*
0 Add a 4 corners polygon primitive as box body*
4,1,4,$2,$3,$4,$5,$6,$7,$8,$9,$2,$3,0*
0 Add four circle primitives for the rounded corners*
1,1,$1+$1,$2,$3*
1,1,$1+$1,$4,$5*
1,1,$1+$1,$6,$7*
1,1,$1+$1,$8,$9*
0 Add four rect primitives between the rounded corners*
20,1,$1+$1,$2,$3,$4,$5,0*
20,1,$1+$1,$4,$5,$6,$7,0*
20,1,$1+$1,$6,$7,$8,$9,0*
20,1,$1+$1,$8,$9,$2,$3,0*%
%AMRotRect*
0 Rectangle, with rotation*
0 The origin of the aperture is its center*
0 $1 length*
0 $2 width*
0 $3 Rotation angle, in degrees counterclockwise*
0 Add horizontal line*
21,1,$1,$2,0,0,$3*%
G04 Aperture macros list end*
%ADD10RoundRect,0.150000X-0.150000X0.587500X-0.150000X-0.587500X0.150000X-0.587500X0.150000X0.587500X0*%
%ADD11R,0.600000X0.750000*%
%ADD12RoundRect,0.135000X0.135000X0.185000X-0.135000X0.185000X-0.135000X-0.185000X0.135000X-0.185000X0*%
%ADD13RoundRect,0.140000X0.021213X-0.219203X0.219203X-0.021213X-0.021213X0.219203X-0.219203X0.021213X0*%
%ADD14RoundRect,0.140000X-0.021213X0.219203X-0.219203X0.021213X0.021213X-0.219203X0.219203X-0.021213X0*%
%ADD15RoundRect,0.140000X0.140000X0.170000X-0.140000X0.170000X-0.140000X-0.170000X0.140000X-0.170000X0*%
%ADD16RoundRect,0.140000X-0.170000X0.140000X-0.170000X-0.140000X0.170000X-0.140000X0.170000X0.140000X0*%
%ADD17RoundRect,0.075000X-0.415425X-0.521491X0.521491X0.415425X0.415425X0.521491X-0.521491X-0.415425X0*%
%ADD18RoundRect,0.075000X0.415425X-0.521491X0.521491X-0.415425X-0.415425X0.521491X-0.521491X0.415425X0*%
%ADD19RoundRect,0.087500X-0.175000X-0.087500X0.175000X-0.087500X0.175000X0.087500X-0.175000X0.087500X0*%
%ADD20RoundRect,0.140000X-0.140000X-0.180000X0.140000X-0.180000X0.140000X0.180000X-0.140000X0.180000X0*%
%ADD21RoundRect,0.135000X-0.185000X0.135000X-0.185000X-0.135000X0.185000X-0.135000X0.185000X0.135000X0*%
%ADD22RoundRect,0.135000X-0.226274X-0.035355X-0.035355X-0.226274X0.226274X0.035355X0.035355X0.226274X0*%
%ADD23RoundRect,0.135000X0.185000X-0.135000X0.185000X0.135000X-0.185000X0.135000X-0.185000X-0.135000X0*%
%ADD24R,2.400000X0.740000*%
%ADD25RoundRect,0.135000X-0.035355X0.226274X-0.226274X0.035355X0.035355X-0.226274X0.226274X-0.035355X0*%
%ADD26RoundRect,0.135000X0.035355X-0.226274X0.226274X-0.035355X-0.035355X0.226274X-0.226274X0.035355X0*%
%ADD27RoundRect,0.135000X0.226274X0.035355X0.035355X0.226274X-0.226274X-0.035355X-0.035355X-0.226274X0*%
%ADD28RoundRect,0.140000X0.170000X-0.140000X0.170000X0.140000X-0.170000X0.140000X-0.170000X-0.140000X0*%
%ADD29RoundRect,0.140000X-0.226274X-0.028284X-0.028284X-0.226274X0.226274X0.028284X0.028284X0.226274X0*%
%ADD30RoundRect,0.087500X-0.185616X0.061872X0.061872X-0.185616X0.185616X-0.061872X-0.061872X0.185616X0*%
%ADD31RoundRect,0.135000X-0.135000X-0.185000X0.135000X-0.185000X0.135000X0.185000X-0.135000X0.185000X0*%
%ADD32R,0.650000X0.400000*%
%ADD33RoundRect,0.140000X-0.140000X-0.170000X0.140000X-0.170000X0.140000X0.170000X-0.140000X0.170000X0*%
%ADD34RoundRect,0.140000X-0.219203X-0.021213X-0.021213X-0.219203X0.219203X0.021213X0.021213X0.219203X0*%
%ADD35RoundRect,0.160000X-0.245000X-0.160000X0.245000X-0.160000X0.245000X0.160000X-0.245000X0.160000X0*%
%ADD36RoundRect,0.093750X-0.093750X-0.106250X0.093750X-0.106250X0.093750X0.106250X-0.093750X0.106250X0*%
%ADD37RoundRect,0.218750X0.256250X-0.218750X0.256250X0.218750X-0.256250X0.218750X-0.256250X-0.218750X0*%
%ADD38RotRect,0.350000X0.700000X135.000000*%
%ADD39RoundRect,0.140000X0.219203X0.021213X0.021213X0.219203X-0.219203X-0.021213X-0.021213X-0.219203X0*%
%ADD40RoundRect,0.225000X0.225000X0.250000X-0.225000X0.250000X-0.225000X-0.250000X0.225000X-0.250000X0*%
%ADD41RoundRect,0.249999X0.290001X0.290001X-0.290001X0.290001X-0.290001X-0.290001X0.290001X-0.290001X0*%
%ADD42RoundRect,0.062500X0.375000X0.062500X-0.375000X0.062500X-0.375000X-0.062500X0.375000X-0.062500X0*%
%ADD43RoundRect,0.062500X0.062500X0.375000X-0.062500X0.375000X-0.062500X-0.375000X0.062500X-0.375000X0*%
%ADD44RoundRect,0.249999X0.290001X-0.290001X0.290001X0.290001X-0.290001X0.290001X-0.290001X-0.290001X0*%
%ADD45RoundRect,0.062500X0.062500X-0.375000X0.062500X0.375000X-0.062500X0.375000X-0.062500X-0.375000X0*%
%ADD46RoundRect,0.062500X0.375000X-0.062500X0.375000X0.062500X-0.375000X0.062500X-0.375000X-0.062500X0*%
%ADD47RoundRect,0.147500X0.226274X0.017678X0.017678X0.226274X-0.226274X-0.017678X-0.017678X-0.226274X0*%
%ADD48R,0.400000X0.650000*%
%ADD49RoundRect,0.225000X0.250000X-0.225000X0.250000X0.225000X-0.250000X0.225000X-0.250000X-0.225000X0*%
%ADD50RoundRect,0.250000X-0.292217X-0.292217X0.292217X-0.292217X0.292217X0.292217X-0.292217X0.292217X0*%
%ADD51RoundRect,0.062500X-0.375000X-0.062500X0.375000X-0.062500X0.375000X0.062500X-0.375000X0.062500X0*%
%ADD52RoundRect,0.062500X-0.062500X-0.375000X0.062500X-0.375000X0.062500X0.375000X-0.062500X0.375000X0*%
%ADD53RotRect,0.350000X0.700000X45.000000*%
%ADD54R,0.300000X1.100000*%
%ADD55R,2.300000X3.100000*%
%ADD56RoundRect,0.150000X0.150000X-0.587500X0.150000X0.587500X-0.150000X0.587500X-0.150000X-0.587500X0*%
G04 APERTURE END LIST*
D10*
%TO.C,Q1*%
X38618200Y-89410300D03*
X36718200Y-89410300D03*
X37668200Y-91285300D03*
%TD*%
D11*
%TO.C,U1*%
X34442400Y-79158800D03*
X36092400Y-79158800D03*
X36092400Y-78028800D03*
X34442400Y-78028800D03*
%TD*%
D12*
%TO.C,R9*%
X44045600Y-74269600D03*
X43025600Y-74269600D03*
%TD*%
D13*
%TO.C,C74*%
X61560389Y-93887611D03*
X62239211Y-93208789D03*
%TD*%
D14*
%TO.C,C31*%
X44577000Y-79298800D03*
X43898178Y-79977622D03*
%TD*%
D12*
%TO.C,R46*%
X37259800Y-96748600D03*
X38279800Y-96748600D03*
%TD*%
D15*
%TO.C,C65*%
X68745100Y-88188800D03*
X67785100Y-88188800D03*
%TD*%
D16*
%TO.C,C12*%
X72374700Y-64567400D03*
X72374700Y-65527400D03*
%TD*%
%TO.C,C57*%
X60579000Y-79961800D03*
X60579000Y-80921800D03*
%TD*%
D17*
%TO.C,U11*%
X45200924Y-72575988D03*
X45554478Y-72929542D03*
X45908031Y-73283095D03*
X46261585Y-73636649D03*
X46615138Y-73990202D03*
X46968691Y-74343755D03*
X47322245Y-74697309D03*
X47675798Y-75050862D03*
X48029351Y-75404415D03*
X48382905Y-75757969D03*
X48736458Y-76111522D03*
X49090012Y-76465076D03*
D18*
X51087588Y-76465076D03*
X51441142Y-76111522D03*
X51794695Y-75757969D03*
X52148249Y-75404415D03*
X52501802Y-75050862D03*
X52855355Y-74697309D03*
X53208909Y-74343755D03*
X53562462Y-73990202D03*
X53916015Y-73636649D03*
X54269569Y-73283095D03*
X54623122Y-72929542D03*
X54976676Y-72575988D03*
D17*
X54976676Y-70578412D03*
X54623122Y-70224858D03*
X54269569Y-69871305D03*
X53916015Y-69517751D03*
X53562462Y-69164198D03*
X53208909Y-68810645D03*
X52855355Y-68457091D03*
X52501802Y-68103538D03*
X52148249Y-67749985D03*
X51794695Y-67396431D03*
X51441142Y-67042878D03*
X51087588Y-66689324D03*
D18*
X49090012Y-66689324D03*
X48736458Y-67042878D03*
X48382905Y-67396431D03*
X48029351Y-67749985D03*
X47675798Y-68103538D03*
X47322245Y-68457091D03*
X46968691Y-68810645D03*
X46615138Y-69164198D03*
X46261585Y-69517751D03*
X45908031Y-69871305D03*
X45554478Y-70224858D03*
X45200924Y-70578412D03*
%TD*%
D19*
%TO.C,U10*%
X51046100Y-91299600D03*
X51046100Y-91799600D03*
X51046100Y-92299600D03*
X51046100Y-92799600D03*
X48471100Y-92799600D03*
X48471100Y-92299600D03*
X48471100Y-91799600D03*
X48471100Y-91299600D03*
D20*
X50108600Y-91649600D03*
X49408600Y-92449600D03*
X50108600Y-92449600D03*
X49408600Y-91649600D03*
%TD*%
D21*
%TO.C,R6*%
X45034200Y-77163200D03*
X45034200Y-78183200D03*
%TD*%
D16*
%TO.C,C89*%
X47421800Y-92542599D03*
X47421800Y-91582599D03*
%TD*%
%TO.C,C35*%
X59055000Y-63020000D03*
X59055000Y-63980000D03*
%TD*%
%TO.C,C36*%
X59055000Y-64925000D03*
X59055000Y-65885000D03*
%TD*%
D14*
%TO.C,C61*%
X63204411Y-95113789D03*
X62525589Y-95792611D03*
%TD*%
D16*
%TO.C,C72*%
X60528200Y-88064400D03*
X60528200Y-89024400D03*
%TD*%
D22*
%TO.C,R53*%
X47619976Y-78582576D03*
X48341224Y-79303824D03*
%TD*%
D23*
%TO.C,R71*%
X72374700Y-67485800D03*
X72374700Y-66465800D03*
%TD*%
D24*
%TO.C,J8*%
X36048400Y-63779400D03*
X39948400Y-63779400D03*
X36048400Y-65049400D03*
X39948400Y-65049400D03*
X36048400Y-66319400D03*
X39948400Y-66319400D03*
X36048400Y-67589400D03*
X39948400Y-67589400D03*
X36048400Y-68859400D03*
X39948400Y-68859400D03*
%TD*%
D25*
%TO.C,R62*%
X39984624Y-77388776D03*
X39263376Y-78110024D03*
%TD*%
D26*
%TO.C,R12*%
X60116776Y-84028224D03*
X60838024Y-83306976D03*
%TD*%
D16*
%TO.C,C15*%
X42697400Y-83489800D03*
X42697400Y-84449800D03*
%TD*%
D27*
%TO.C,R11*%
X62146124Y-74071424D03*
X61424876Y-73350176D03*
%TD*%
D28*
%TO.C,C78*%
X67183000Y-79042200D03*
X67183000Y-78082200D03*
%TD*%
D29*
%TO.C,U22*%
X45964045Y-87220530D03*
X46529730Y-86654845D03*
X46034755Y-86159870D03*
X45469070Y-86725555D03*
D30*
X45619330Y-85249470D03*
X45265777Y-85603023D03*
X44912223Y-85956577D03*
X44558670Y-86310130D03*
X46379470Y-88130930D03*
X46733023Y-87777377D03*
X47086577Y-87423823D03*
X47440130Y-87070270D03*
%TD*%
D31*
%TO.C,R25*%
X61567600Y-86410800D03*
X62587600Y-86410800D03*
%TD*%
D14*
%TO.C,C40*%
X63293311Y-72380789D03*
X62614489Y-73059611D03*
%TD*%
D32*
%TO.C,U12*%
X48249800Y-83881200D03*
X48249800Y-84531200D03*
X48249800Y-85181200D03*
X50149800Y-85181200D03*
X50149800Y-83881200D03*
%TD*%
D28*
%TO.C,C44*%
X68409800Y-68130900D03*
X68409800Y-67170900D03*
%TD*%
D33*
%TO.C,C56*%
X62004000Y-82296000D03*
X62964000Y-82296000D03*
%TD*%
D14*
%TO.C,C143*%
X44697022Y-84690578D03*
X44018200Y-85369400D03*
%TD*%
D15*
%TO.C,C54*%
X70355400Y-84353400D03*
X69395400Y-84353400D03*
%TD*%
D34*
%TO.C,C6*%
X41265789Y-72736389D03*
X41944611Y-73415211D03*
%TD*%
D16*
%TO.C,C45*%
X68409800Y-63360900D03*
X68409800Y-64320900D03*
%TD*%
D23*
%TO.C,R14*%
X68427600Y-83720400D03*
X68427600Y-82700400D03*
%TD*%
D34*
%TO.C,C101*%
X46320389Y-75860589D03*
X46999211Y-76539411D03*
%TD*%
D14*
%TO.C,C41*%
X63953711Y-73142789D03*
X63274889Y-73821611D03*
%TD*%
D23*
%TO.C,R70*%
X71358700Y-66524600D03*
X71358700Y-65504600D03*
%TD*%
D26*
%TO.C,R54*%
X48534376Y-88905024D03*
X49255624Y-88183776D03*
%TD*%
D33*
%TO.C,C2*%
X42166600Y-71602600D03*
X43126600Y-71602600D03*
%TD*%
D13*
%TO.C,C58*%
X67046789Y-80984411D03*
X67725611Y-80305589D03*
%TD*%
D15*
%TO.C,C50*%
X59230200Y-86741000D03*
X58270200Y-86741000D03*
%TD*%
D33*
%TO.C,C47*%
X63375600Y-75971400D03*
X64335600Y-75971400D03*
%TD*%
D28*
%TO.C,C16*%
X42773600Y-79496800D03*
X42773600Y-78536800D03*
%TD*%
D33*
%TO.C,C75*%
X64493200Y-82296000D03*
X65453200Y-82296000D03*
%TD*%
D35*
%TO.C,IC9*%
X74255800Y-66656200D03*
X74255800Y-65856200D03*
D36*
X73368300Y-65606200D03*
X73368300Y-66256200D03*
X73368300Y-66906200D03*
X75143300Y-66906200D03*
X75143300Y-66256200D03*
X75143300Y-65606200D03*
%TD*%
D14*
%TO.C,C129*%
X48447011Y-87544589D03*
X47768189Y-88223411D03*
%TD*%
%TO.C,C10*%
X60156411Y-90871989D03*
X59477589Y-91550811D03*
%TD*%
D16*
%TO.C,C66*%
X62444500Y-89417200D03*
X62444500Y-90377200D03*
%TD*%
D28*
%TO.C,C71*%
X69748400Y-94790200D03*
X69748400Y-93830200D03*
%TD*%
D37*
%TO.C,L3*%
X72745600Y-89230300D03*
X72745600Y-87655300D03*
%TD*%
%TO.C,L2*%
X57708800Y-89738300D03*
X57708800Y-88163300D03*
%TD*%
D15*
%TO.C,C55*%
X69491800Y-85344000D03*
X68531800Y-85344000D03*
%TD*%
D38*
%TO.C,FL2*%
X70241003Y-97782278D03*
X69781384Y-97322658D03*
X69321764Y-96863039D03*
X68437881Y-97746922D03*
X68897500Y-98206542D03*
X69357120Y-98666161D03*
%TD*%
D34*
%TO.C,C64*%
X64299857Y-87288599D03*
X64978679Y-87967421D03*
%TD*%
D21*
%TO.C,R28*%
X69748400Y-89939400D03*
X69748400Y-90959400D03*
%TD*%
D39*
%TO.C,C63*%
X65697100Y-87249000D03*
X65018278Y-86570178D03*
%TD*%
D37*
%TO.C,L1*%
X59258200Y-89611300D03*
X59258200Y-88036300D03*
%TD*%
D40*
%TO.C,C120*%
X75832000Y-64185800D03*
X74282000Y-64185800D03*
%TD*%
D31*
%TO.C,R19*%
X64488600Y-83312000D03*
X65508600Y-83312000D03*
%TD*%
D39*
%TO.C,C60*%
X68374597Y-96070916D03*
X67695775Y-95392094D03*
%TD*%
D13*
%TO.C,C62*%
X63236789Y-96503811D03*
X63915611Y-95824989D03*
%TD*%
D41*
%TO.C,U8*%
X66219100Y-91967400D03*
X64969100Y-91967400D03*
X64969100Y-90717400D03*
X66219100Y-90717400D03*
D42*
X67531600Y-92592400D03*
X67531600Y-92092400D03*
X67531600Y-91592400D03*
X67531600Y-91092400D03*
X67531600Y-90592400D03*
X67531600Y-90092400D03*
D43*
X66844100Y-89404900D03*
X66344100Y-89404900D03*
X65844100Y-89404900D03*
X65344100Y-89404900D03*
X64844100Y-89404900D03*
X64344100Y-89404900D03*
D42*
X63656600Y-90092400D03*
X63656600Y-90592400D03*
X63656600Y-91092400D03*
X63656600Y-91592400D03*
X63656600Y-92092400D03*
X63656600Y-92592400D03*
D43*
X64344100Y-93279900D03*
X64844100Y-93279900D03*
X65344100Y-93279900D03*
X65844100Y-93279900D03*
X66344100Y-93279900D03*
X66844100Y-93279900D03*
%TD*%
D25*
%TO.C,R8*%
X40645024Y-78176176D03*
X39923776Y-78897424D03*
%TD*%
D31*
%TO.C,R24*%
X61476700Y-87426800D03*
X62496700Y-87426800D03*
%TD*%
D44*
%TO.C,U3*%
X64353600Y-78521400D03*
X64353600Y-79771400D03*
X63103600Y-78521400D03*
X63103600Y-79771400D03*
D45*
X62478600Y-81083900D03*
X62978600Y-81083900D03*
X63478600Y-81083900D03*
X63978600Y-81083900D03*
X64478600Y-81083900D03*
X64978600Y-81083900D03*
D46*
X65666100Y-80396400D03*
X65666100Y-79896400D03*
X65666100Y-79396400D03*
X65666100Y-78896400D03*
X65666100Y-78396400D03*
X65666100Y-77896400D03*
D45*
X64978600Y-77208900D03*
X64478600Y-77208900D03*
X63978600Y-77208900D03*
X63478600Y-77208900D03*
X62978600Y-77208900D03*
X62478600Y-77208900D03*
D46*
X61791100Y-77896400D03*
X61791100Y-78396400D03*
X61791100Y-78896400D03*
X61791100Y-79396400D03*
X61791100Y-79896400D03*
X61791100Y-80396400D03*
%TD*%
D13*
%TO.C,C14*%
X45168178Y-80206222D03*
X45847000Y-79527400D03*
%TD*%
D47*
%TO.C,D1*%
X46926547Y-77889147D03*
X46240653Y-77203253D03*
%TD*%
D13*
%TO.C,C94*%
X43821978Y-69563622D03*
X44500800Y-68884800D03*
%TD*%
D26*
%TO.C,R45*%
X40492624Y-87370976D03*
X39771376Y-88092224D03*
%TD*%
D23*
%TO.C,R13*%
X58293000Y-83364800D03*
X58293000Y-82344800D03*
%TD*%
D39*
%TO.C,C18*%
X40462200Y-80822800D03*
X39783378Y-80143978D03*
%TD*%
D14*
%TO.C,C51*%
X71611811Y-85436389D03*
X70932989Y-86115211D03*
%TD*%
D37*
%TO.C,L4*%
X71196200Y-89230300D03*
X71196200Y-87655300D03*
%TD*%
D33*
%TO.C,C130*%
X69408100Y-66446400D03*
X70368100Y-66446400D03*
%TD*%
D21*
%TO.C,R17*%
X59563000Y-79931800D03*
X59563000Y-80951800D03*
%TD*%
D39*
%TO.C,C100*%
X50529811Y-65947611D03*
X49850989Y-65268789D03*
%TD*%
D28*
%TO.C,C53*%
X58293000Y-85265200D03*
X58293000Y-84305200D03*
%TD*%
D48*
%TO.C,U5*%
X43728397Y-75472400D03*
X43078397Y-75472400D03*
X42428397Y-75472400D03*
X42428397Y-77372400D03*
X43728397Y-77372400D03*
%TD*%
D16*
%TO.C,C37*%
X59055000Y-66830000D03*
X59055000Y-67790000D03*
%TD*%
D28*
%TO.C,C80*%
X37947600Y-79956600D03*
X37947600Y-78996600D03*
%TD*%
D15*
%TO.C,C67*%
X62456000Y-88442800D03*
X61496000Y-88442800D03*
%TD*%
D49*
%TO.C,C139*%
X69684900Y-65164000D03*
X69684900Y-63614000D03*
%TD*%
D50*
%TO.C,IC3*%
X65648700Y-65230400D03*
X63098700Y-69055400D03*
X61823700Y-67780400D03*
X61823700Y-65230400D03*
X63098700Y-65230400D03*
X64373700Y-69055400D03*
X64373700Y-66505400D03*
X63098700Y-66505400D03*
X65648700Y-69055400D03*
X64373700Y-65230400D03*
X65648700Y-66505400D03*
X65648700Y-67780400D03*
X61823700Y-69055400D03*
X64373700Y-67780400D03*
X63098700Y-67780400D03*
X61823700Y-66505400D03*
D51*
X60298700Y-64392900D03*
X60298700Y-64892900D03*
X60298700Y-65392900D03*
X60298700Y-65892900D03*
X60298700Y-66392900D03*
X60298700Y-66892900D03*
X60298700Y-67392900D03*
X60298700Y-67892900D03*
X60298700Y-68392900D03*
X60298700Y-68892900D03*
X60298700Y-69392900D03*
X60298700Y-69892900D03*
D52*
X60986200Y-70580400D03*
X61486200Y-70580400D03*
X61986200Y-70580400D03*
X62486200Y-70580400D03*
X62986200Y-70580400D03*
X63486200Y-70580400D03*
X63986200Y-70580400D03*
X64486200Y-70580400D03*
X64986200Y-70580400D03*
X65486200Y-70580400D03*
X65986200Y-70580400D03*
X66486200Y-70580400D03*
D51*
X67173700Y-69892900D03*
X67173700Y-69392900D03*
X67173700Y-68892900D03*
X67173700Y-68392900D03*
X67173700Y-67892900D03*
X67173700Y-67392900D03*
X67173700Y-66892900D03*
X67173700Y-66392900D03*
X67173700Y-65892900D03*
X67173700Y-65392900D03*
X67173700Y-64892900D03*
X67173700Y-64392900D03*
D52*
X66486200Y-63705400D03*
X65986200Y-63705400D03*
X65486200Y-63705400D03*
X64986200Y-63705400D03*
X64486200Y-63705400D03*
X63986200Y-63705400D03*
X63486200Y-63705400D03*
X62986200Y-63705400D03*
X62486200Y-63705400D03*
X61986200Y-63705400D03*
X61486200Y-63705400D03*
X60986200Y-63705400D03*
%TD*%
D15*
%TO.C,C92*%
X54683600Y-59969400D03*
X53723600Y-59969400D03*
%TD*%
D25*
%TO.C,R27*%
X62242700Y-91770200D03*
X61521452Y-92491448D03*
%TD*%
D16*
%TO.C,C46*%
X68409800Y-65263300D03*
X68409800Y-66223300D03*
%TD*%
D21*
%TO.C,R29*%
X61391800Y-89939400D03*
X61391800Y-90959400D03*
%TD*%
D28*
%TO.C,C52*%
X59309000Y-85773200D03*
X59309000Y-84813200D03*
%TD*%
D34*
%TO.C,C59*%
X66981032Y-96114191D03*
X67659854Y-96793013D03*
%TD*%
D16*
%TO.C,C73*%
X69735700Y-88064400D03*
X69735700Y-89024400D03*
%TD*%
D21*
%TO.C,R10*%
X41122600Y-75916600D03*
X41122600Y-76936600D03*
%TD*%
D31*
%TO.C,R16*%
X61948600Y-83312000D03*
X62968600Y-83312000D03*
%TD*%
D14*
%TO.C,C93*%
X44450000Y-71958200D03*
X43771178Y-72637022D03*
%TD*%
D53*
%TO.C,FL3*%
X61526522Y-98352438D03*
X61986142Y-97892819D03*
X62445761Y-97433199D03*
X61561878Y-96549316D03*
X61102258Y-97008935D03*
X60642639Y-97468555D03*
%TD*%
D16*
%TO.C,C68*%
X68743700Y-89417200D03*
X68743700Y-90377200D03*
%TD*%
D39*
%TO.C,C48*%
X71611811Y-91296811D03*
X70932989Y-90617989D03*
%TD*%
D26*
%TO.C,R18*%
X67736776Y-81716824D03*
X68458024Y-80995576D03*
%TD*%
D16*
%TO.C,C88*%
X52095400Y-92250200D03*
X52095400Y-91290200D03*
%TD*%
D21*
%TO.C,R26*%
X69748400Y-91869800D03*
X69748400Y-92889800D03*
%TD*%
D54*
%TO.C,J4*%
X67478600Y-61395600D03*
X66978600Y-61395600D03*
X66478600Y-61395600D03*
X65978600Y-61395600D03*
X65478600Y-61395600D03*
X64978600Y-61395600D03*
X64478600Y-61395600D03*
X63978600Y-61395600D03*
X63478600Y-61395600D03*
X62978600Y-61395600D03*
X62478600Y-61395600D03*
X61978600Y-61395600D03*
X61478600Y-61395600D03*
X60978600Y-61395600D03*
X60478600Y-61395600D03*
X59978600Y-61395600D03*
D55*
X58308600Y-59695600D03*
X69148600Y-59695600D03*
%TD*%
D28*
%TO.C,C70*%
X68745100Y-93314400D03*
X68745100Y-92354400D03*
%TD*%
D27*
%TO.C,R15*%
X67015248Y-84820648D03*
X66294000Y-84099400D03*
%TD*%
D12*
%TO.C,R47*%
X41734200Y-92405200D03*
X40714200Y-92405200D03*
%TD*%
D56*
%TO.C,Q2*%
X37556400Y-95222300D03*
X39456400Y-95222300D03*
X38506400Y-93347300D03*
%TD*%
D12*
%TO.C,R48*%
X41835800Y-95859600D03*
X40815800Y-95859600D03*
%TD*%
M02*
